<svg width="364" height="72" viewBox="0 0 364 72" fill="none" xmlns="http://www.w3.org/2000/svg">
<path d="M342.3 71.193H21.53C18.7578 71.1933 16.0126 70.6475 13.4513 69.5867C10.89 68.5259 8.56271 66.9709 6.60242 65.0106C4.64212 63.0503 3.08718 60.723 2.0264 58.1617C0.965614 55.6004 0.419781 52.8553 0.420044 50.083V21.433C0.419781 18.6607 0.965614 15.9156 2.0264 13.3542C3.08718 10.7929 4.64212 8.46567 6.60242 6.50537C8.56271 4.54507 10.89 2.99017 13.4513 1.92938C16.0126 0.868599 18.7578 0.322735 21.53 0.322998H342.3C345.072 0.322735 347.818 0.868599 350.379 1.92938C352.94 2.99017 355.267 4.54507 357.228 6.50537C359.188 8.46567 360.743 10.7929 361.804 13.3542C362.864 15.9156 363.41 18.6607 363.41 21.433V50.083C363.41 52.8553 362.864 55.6004 361.804 58.1617C360.743 60.723 359.188 63.0503 357.228 65.0106C355.267 66.9709 352.94 68.5259 350.379 69.5867C347.818 70.6475 345.072 71.1933 342.3 71.193Z" fill="#00E1BE"/>
<path d="M52.48 53.1528V18.2229H67.39V22.9329H57.48V33.5328H66.11V38.2429H57.48V53.1528H52.48Z" fill="#090C0B"/>
<path d="M65.93 53.1528L73.73 18.2229H77.9001L85.7 53.1528H80.7L79.23 45.6429H72.41L70.94 53.1528H65.93ZM78.29 40.9329L75.8401 28.2728H75.74L73.29 40.9329H78.29Z" fill="#090C0B"/>
<path d="M86.5301 53.1528V48.7329L95.95 22.9329H87.0201V18.2229H101.39V22.1929L91.7701 48.4429H101.39V53.1528H86.5301Z" fill="#090C0B"/>
<path d="M104.48 53.1528V18.2229H119.39V22.9329H109.48V33.1829H118.11V37.8929H109.48V48.1429H119.39V53.1429H104.48V53.1528Z" fill="#090C0B"/>
<path d="M122.63 53.1528V18.2229H130.68C136.57 18.2229 139.513 21.6396 139.51 28.4729C139.56 30.2707 139.233 32.059 138.55 33.7229C137.85 35.2258 136.668 36.451 135.19 37.2029L140.59 53.1429H135.29L130.63 38.2329H127.64V53.1429H122.63V53.1528ZM127.64 22.9329V33.8229H130.49C131.212 33.8547 131.932 33.7284 132.6 33.4529C133.098 33.2217 133.524 32.8585 133.83 32.4028C134.112 31.8773 134.295 31.3045 134.37 30.7129C134.57 29.166 134.57 27.5997 134.37 26.0529C134.293 25.439 134.092 24.8472 133.78 24.3129C133.16 23.3929 131.98 22.9429 130.25 22.9429H127.64V22.9329Z" fill="#090C0B"/>
<path d="M152.8 53.1528V18.2229H157.8V53.1528H152.8Z" fill="#090C0B"/>
<path d="M162.47 53.1528V18.2229H167.28L174.84 39.2728H174.94V18.2229H179.94V53.1528H175.23L167.58 32.1528H167.48V53.1528H162.47Z" fill="#090C0B"/>
<path d="M200.63 28.2829H195.63V27.1529C195.656 26.1051 195.374 25.0727 194.82 24.1829C194.516 23.7546 194.104 23.4137 193.627 23.1944C193.15 22.975 192.623 22.8849 192.1 22.9329C191.518 22.9073 190.94 23.0422 190.43 23.3229C190.018 23.569 189.666 23.9037 189.4 24.3029C189.133 24.7493 188.95 25.2408 188.86 25.753C188.758 26.3105 188.708 26.8762 188.71 27.4429C188.703 28.0171 188.727 28.5912 188.78 29.1629C188.819 29.5936 188.945 30.012 189.15 30.393C189.359 30.7666 189.654 31.0852 190.01 31.3229C190.494 31.6372 191.01 31.8987 191.55 32.103L195.38 33.623C196.356 33.9725 197.268 34.4792 198.08 35.123C198.751 35.6679 199.303 36.3453 199.7 37.113C200.075 37.9624 200.324 38.8617 200.44 39.7829C200.58 40.9141 200.647 42.0531 200.64 43.1929C200.648 44.5718 200.501 45.9472 200.2 47.2929C199.953 48.4493 199.47 49.5423 198.78 50.503C198.074 51.4362 197.146 52.1785 196.08 52.6629C194.798 53.2209 193.408 53.4906 192.01 53.4529C190.849 53.4639 189.697 53.2465 188.62 52.8129C187.607 52.417 186.687 51.8142 185.92 51.0429C185.167 50.2874 184.56 49.3991 184.13 48.4229C183.684 47.3946 183.459 46.2838 183.47 45.1629V43.3029H188.47V44.873C188.462 45.7659 188.747 46.6368 189.28 47.353C189.61 47.7438 190.03 48.0482 190.504 48.2399C190.978 48.4316 191.491 48.5047 192 48.4529C192.683 48.4875 193.365 48.3608 193.99 48.0829C194.452 47.844 194.834 47.4756 195.09 47.0229C195.365 46.5171 195.525 45.9574 195.56 45.383C195.61 44.743 195.63 44.033 195.63 43.253C195.639 42.4984 195.606 41.7438 195.53 40.993C195.487 40.4999 195.355 40.0187 195.14 39.5729C194.91 39.2126 194.598 38.9112 194.23 38.6929C193.746 38.4146 193.245 38.1675 192.73 37.9529L189.15 36.483C187.323 35.8823 185.779 34.6337 184.81 32.9729C184.019 31.2614 183.642 29.3874 183.71 27.503C183.704 26.2397 183.886 24.9824 184.25 23.7729C184.575 22.659 185.127 21.6242 185.87 20.733C186.58 19.8659 187.475 19.1688 188.49 18.6929C189.683 18.1571 190.982 17.8973 192.29 17.9329C193.463 17.9188 194.625 18.154 195.7 18.6229C196.696 19.0566 197.602 19.674 198.37 20.4429C199.085 21.1491 199.652 21.9899 200.04 22.9168C200.428 23.8436 200.629 24.8382 200.63 25.8429V28.2829Z" fill="#090C0B"/>
<path d="M220.25 43.1928V45.3529C220.257 46.4069 220.049 47.4513 219.64 48.4228C219.236 49.377 218.663 50.2509 217.95 51.0029C217.229 51.7563 216.37 52.3639 215.42 52.7928C214.44 53.2369 213.376 53.4622 212.3 53.4528C211.324 53.4491 210.352 53.318 209.41 53.0628C208.438 52.8042 207.533 52.3367 206.76 51.6928C205.944 50.9945 205.283 50.1325 204.82 49.1628C204.269 47.9212 204.009 46.5702 204.06 45.2128V25.9829C204.052 24.8917 204.252 23.8089 204.65 22.7928C205.026 21.8372 205.594 20.9692 206.32 20.2428C207.058 19.5125 207.936 18.9378 208.9 18.5528C209.953 18.1343 211.077 17.927 212.21 17.9428C213.275 17.9029 214.337 18.088 215.326 18.486C216.315 18.8841 217.209 19.4861 217.95 20.2528C218.682 21.0242 219.256 21.9312 219.64 22.9228C220.056 23.9936 220.263 25.1341 220.25 26.2828V28.2429H215.25V26.5728C215.268 25.6536 214.976 24.7551 214.42 24.0228C214.158 23.6742 213.816 23.394 213.422 23.206C213.029 23.018 212.596 22.9277 212.16 22.9428C211.68 22.8788 211.192 22.9531 210.753 23.1568C210.313 23.3605 209.941 23.6852 209.68 24.0928C209.241 25.0016 209.031 26.0043 209.07 27.0129V44.8729C209.04 45.7687 209.269 46.6542 209.73 47.4228C210.002 47.7878 210.365 48.0751 210.782 48.2558C211.2 48.4366 211.658 48.5045 212.11 48.4528C212.47 48.4463 212.826 48.389 213.17 48.2828C213.554 48.1689 213.911 47.9785 214.22 47.7228C214.541 47.4202 214.794 47.0519 214.96 46.6429C215.173 46.0952 215.271 45.5099 215.25 44.9228V43.2028H220.25V43.1928Z" fill="#090C0B"/>
<path d="M224.33 53.1528V18.2229H232.38C238.27 18.2229 241.213 21.6396 241.21 28.4729C241.26 30.2707 240.933 32.059 240.25 33.7229C239.55 35.2258 238.368 36.451 236.89 37.2029L242.29 53.1429H236.99L232.33 38.2329H229.34V53.1429H224.33V53.1528ZM229.33 22.9329V33.8229H232.18C232.902 33.8547 233.622 33.7284 234.29 33.4529C234.788 33.2217 235.214 32.8585 235.52 32.4028C235.802 31.8773 235.985 31.3045 236.06 30.7129C236.26 29.166 236.26 27.5997 236.06 26.0529C235.983 25.439 235.782 24.8472 235.47 24.3129C234.85 23.3929 233.67 22.9429 231.94 22.9429H229.33V22.9329Z" fill="#090C0B"/>
<path d="M245.37 53.1528V18.2229H250.37V53.1528H245.37Z" fill="#090C0B"/>
<path d="M259.3 57.3729L262.29 53.4528C261.383 53.381 260.491 53.1825 259.64 52.8629C258.765 52.538 257.965 52.0378 257.29 51.3929C256.543 50.7009 255.957 49.8545 255.57 48.9128C255.109 47.7353 254.891 46.4767 254.93 45.2128V25.9829C254.922 24.8917 255.122 23.8089 255.52 22.7928C255.896 21.8372 256.464 20.9692 257.19 20.2428C257.928 19.5125 258.806 18.9378 259.77 18.5528C260.823 18.1343 261.947 17.927 263.08 17.9428C264.145 17.9029 265.207 18.088 266.196 18.486C267.185 18.8841 268.079 19.4861 268.82 20.2528C269.552 21.0242 270.126 21.9312 270.51 22.9228C270.926 23.9936 271.133 25.1341 271.12 26.2828V28.2429H266.12V26.5728C266.138 25.6536 265.846 24.7551 265.29 24.0228C265.028 23.6742 264.686 23.394 264.292 23.206C263.899 23.018 263.466 22.9277 263.03 22.9428C262.55 22.8788 262.062 22.9531 261.623 23.1568C261.183 23.3605 260.811 23.6852 260.55 24.0928C260.111 25.0016 259.901 26.0043 259.94 27.0129V44.8729C259.91 45.7687 260.139 46.6542 260.6 47.4228C260.872 47.7878 261.235 48.0751 261.652 48.2558C262.07 48.4366 262.528 48.5045 262.98 48.4528C263.34 48.4463 263.696 48.389 264.04 48.2828C264.424 48.1689 264.781 47.9785 265.09 47.7228C265.411 47.4202 265.664 47.0519 265.83 46.6429C266.043 46.0952 266.141 45.5099 266.12 44.9228V43.2028H271.12V45.3629C271.123 46.3015 270.957 47.2331 270.63 48.1129C270.311 48.9735 269.866 49.7823 269.31 50.5129C268.724 51.2293 268.021 51.8412 267.23 52.3228C266.422 52.813 265.536 53.1614 264.61 53.3529L262.5 56.1029C262.76 56.0729 263.02 56.0428 263.26 56.0328C263.5 56.0228 263.76 56.0129 264.02 56.0129C264.706 55.9874 265.39 56.1031 266.03 56.3529C266.513 56.5544 266.949 56.8541 267.31 57.2329C267.622 57.591 267.857 58.0097 268 58.4628C268.128 58.8605 268.196 59.2751 268.2 59.6928C268.216 60.4129 268.022 61.1221 267.64 61.7329C267.266 62.3006 266.771 62.7787 266.19 63.1329C265.589 63.497 264.934 63.7636 264.25 63.9228C263.568 64.0836 262.871 64.1674 262.17 64.1728C261.276 64.1765 260.385 64.0622 259.52 63.8328C258.7 63.6028 258.06 63.4029 257.61 63.2429L258.44 61.1828C258.96 61.3828 259.49 61.5528 260.01 61.7028C260.537 61.8521 261.082 61.9262 261.63 61.9228C261.918 61.9223 262.206 61.899 262.49 61.8529C262.795 61.8037 263.087 61.6949 263.35 61.5328C263.646 61.383 263.892 61.1499 264.057 60.862C264.223 60.5741 264.3 60.2441 264.28 59.9128C264.286 59.6483 264.226 59.3866 264.105 59.151C263.985 58.9154 263.808 58.7132 263.59 58.5628C263.154 58.227 262.62 58.0442 262.07 58.0428C261.417 58.0286 260.768 58.1442 260.16 58.3829L259.3 57.3729Z" fill="#090C0B"/>
<path d="M272.94 53.1529L280.74 18.223H284.91L292.71 53.1529H287.71L286.24 45.643H279.42L277.95 53.1529H272.94ZM291.19 10.5229C291.039 11.2383 290.842 11.9431 290.6 12.6329C290.388 13.2539 290.073 13.8352 289.67 14.353C289.281 14.8378 288.798 15.2392 288.25 15.533C287.625 15.8393 286.936 15.9903 286.24 15.973C285.7 15.9453 285.165 15.8478 284.65 15.6829C283.98 15.4829 283.28 15.2629 282.57 14.9929C282.21 14.8629 281.87 14.743 281.54 14.653C281.21 14.563 280.89 14.4429 280.56 14.3129C280.118 14.1574 279.657 14.06 279.19 14.0229C278.9 14.0043 278.609 14.0492 278.338 14.1546C278.067 14.26 277.822 14.4232 277.62 14.6329C277.245 15.0784 277.036 15.6405 277.03 16.223H274.53C274.704 14.838 275.227 13.52 276.05 12.3929C276.439 11.9081 276.922 11.5068 277.47 11.213C278.095 10.9066 278.784 10.7556 279.48 10.7729C280.02 10.8006 280.555 10.898 281.07 11.0629C281.74 11.2629 282.44 11.4929 283.15 11.7529C283.86 12.0129 284.55 12.2429 285.19 12.4429C285.625 12.5987 286.079 12.6963 286.54 12.733C286.831 12.7536 287.122 12.7096 287.393 12.6041C287.665 12.4987 287.91 12.3343 288.11 12.1229C288.485 11.6775 288.694 11.1154 288.7 10.533H291.19V10.5229ZM285.3 40.9329L282.85 28.2729H282.75L280.3 40.9329H285.3Z" fill="#090C0B"/>
<path d="M294.87 26.463C294.846 25.1809 295.098 23.9088 295.61 22.733C296.062 21.7028 296.731 20.7819 297.57 20.033C298.354 19.3479 299.26 18.8154 300.24 18.463C301.709 17.9328 303.293 17.7988 304.83 18.0744C306.368 18.35 307.806 19.0255 309 20.033C309.812 20.7953 310.461 21.7136 310.91 22.733C311.422 23.9088 311.674 25.1809 311.65 26.463V44.9129C311.683 46.2119 311.43 47.5023 310.91 48.6929C310.46 49.6826 309.81 50.568 309 51.2929C308.203 51.9985 307.28 52.548 306.28 52.9129C304.331 53.633 302.189 53.633 300.24 52.9129C299.25 52.5588 298.341 52.0077 297.57 51.2929C296.733 50.5814 296.064 49.6936 295.61 48.6929C295.09 47.5023 294.837 46.2119 294.87 44.9129V26.463ZM299.87 44.9129C299.827 45.4053 299.895 45.9011 300.07 46.3633C300.245 46.8256 300.522 47.2425 300.88 47.5829C301.549 48.1387 302.391 48.4431 303.26 48.4431C304.129 48.4431 304.971 48.1387 305.64 47.5829C305.996 47.2411 306.272 46.824 306.447 46.3621C306.622 45.9002 306.691 45.4051 306.65 44.9129V26.463C306.691 25.9708 306.622 25.4756 306.447 25.0137C306.272 24.5518 305.996 24.1347 305.64 23.7929C304.971 23.2371 304.129 22.9329 303.26 22.9329C302.391 22.9329 301.549 23.2371 300.88 23.7929C300.524 24.1347 300.248 24.5518 300.073 25.0137C299.898 25.4756 299.829 25.9708 299.87 26.463V44.9129Z" fill="#090C0B"/>
</svg>
