<svg width="297" height="82" viewBox="0 0 297 82" fill="none" xmlns="http://www.w3.org/2000/svg">
<g filter="url(#filter0_d)">
<path d="M292.32 0.032959H4.32001V73.963H292.32V0.032959Z" fill="#00E1BE"/>
<path d="M26.27 17.553H31.81L39.46 38.953H39.68L46.94 17.553H52.48V56.373H46.94V32.083H46.66L40.84 49.603H37.9L32.08 32.083H31.8V56.373H26.26V17.553H26.27Z" fill="#001E1F"/>
<path d="M60.53 17.553H77V22.823H66.08V34.243H75.73V39.233H66.08V51.103H77.17V56.373H60.54V17.553H60.53Z" fill="#001E1F"/>
<path d="M96.63 27.2531C96.7051 25.9996 96.3755 24.7551 95.69 23.7031C95.337 23.2713 94.8862 22.9299 94.3749 22.7073C93.8636 22.4847 93.3065 22.3873 92.75 22.423C92.2494 22.4067 91.7506 22.4912 91.2833 22.6716C90.816 22.852 90.3898 23.1246 90.03 23.4731C89.1485 24.5874 88.7295 25.9982 88.86 27.413C88.8092 28.8166 89.1155 30.2101 89.75 31.4631C90.4039 32.2839 91.294 32.8843 92.3 33.183L95.68 34.403C97.6738 34.9495 99.4423 36.1157 100.73 37.7331C102.23 39.7831 102.39 42.0031 102.39 44.4431V45.773C102.39 49.713 101.34 52.7031 99.73 54.3631C98.7553 55.2419 97.6166 55.9195 96.3793 56.3571C95.142 56.7947 93.8305 56.9836 92.52 56.913C88.58 56.913 86.03 55.303 84.76 53.533C82.99 51.153 82.99 47.4931 82.99 46.9931V45.7131H88.54V46.7631C88.4761 47.974 88.7869 49.1751 89.43 50.2031C89.81 50.6307 90.2816 50.9669 90.8098 51.1868C91.3379 51.4067 91.9088 51.5046 92.48 51.4731C93.1305 51.5379 93.7871 51.4456 94.3945 51.2037C95.0018 50.9618 95.5422 50.5774 95.97 50.0831C96.6661 48.9334 96.9779 47.5919 96.86 46.2531V44.813C96.9477 43.4256 96.639 42.0418 95.97 40.8231C95.2655 40.0078 94.3426 39.411 93.31 39.1031L89.26 37.663C87.26 36.943 85.27 35.9431 84.16 33.3431C83.4923 31.5348 83.2096 29.6069 83.33 27.683V26.5731C83.2973 25.2389 83.5357 23.9121 84.0307 22.6728C84.5257 21.4335 85.2672 20.3075 86.21 19.3631C87.1145 18.5409 88.1737 17.907 89.3257 17.4983C90.4777 17.0897 91.6996 16.9146 92.92 16.9831C98.46 16.9831 102.18 20.583 102.18 27.023V28.303H96.64V27.2531H96.63Z" fill="#001E1F"/>
<path d="M109.6 17.553H115.14L122.79 38.953H123.01L130.27 17.553H135.81V56.373H130.27V32.083H130L124.18 49.603H121.24L115.42 32.083H115.14V56.373H109.6V17.553Z" fill="#001E1F"/>
<path d="M143.64 27.7531C143.64 24.8131 143.86 21.983 146.52 19.493C148.426 17.8788 150.842 16.9928 153.34 16.9928C155.838 16.9928 158.254 17.8788 160.16 19.493C162.82 21.993 163.04 24.8131 163.04 27.7531V46.163C163.04 49.103 162.82 51.933 160.16 54.423C158.254 56.0372 155.838 56.9232 153.34 56.9232C150.842 56.9232 148.426 56.0372 146.52 54.423C143.86 51.923 143.64 49.103 143.64 46.163V27.7531ZM157.5 26.923C157.559 26.3086 157.485 25.6888 157.283 25.1056C157.081 24.5224 156.756 23.9894 156.33 23.543C155.498 22.8268 154.437 22.433 153.34 22.433C152.243 22.433 151.182 22.8268 150.35 23.543C149.927 23.991 149.604 24.5244 149.404 25.1074C149.204 25.6904 149.131 26.3094 149.19 26.923V46.993C149.131 47.6066 149.204 48.2256 149.404 48.8086C149.604 49.3916 149.927 49.925 150.35 50.373C151.182 51.0892 152.243 51.483 153.34 51.483C154.437 51.483 155.498 51.0892 156.33 50.373C156.754 49.9255 157.078 49.3924 157.28 48.8094C157.482 48.2265 157.557 47.6073 157.5 46.993V26.923Z" fill="#001E1F"/>
<path d="M184.95 27.7531C184.95 24.8131 185.17 21.983 187.83 19.493C189.736 17.8788 192.152 16.9928 194.65 16.9928C197.148 16.9928 199.564 17.8788 201.47 19.493C204.13 21.993 204.35 24.8131 204.35 27.7531V46.163C204.509 47.9474 204.202 49.7426 203.46 51.373L206.95 54.1431L204.12 57.583L200.68 54.863C199.874 55.6096 198.919 56.1779 197.878 56.5311C196.838 56.8843 195.734 57.0144 194.64 56.913C192.134 56.9604 189.701 56.0686 187.82 54.413C185.16 51.913 184.94 49.093 184.94 46.153V27.7531H184.95ZM193.48 49.153L196.31 45.713L198.81 47.713V26.923C198.869 26.3094 198.796 25.6904 198.596 25.1074C198.396 24.5244 198.073 23.991 197.65 23.543C196.818 22.8268 195.757 22.433 194.66 22.433C193.563 22.433 192.502 22.8268 191.67 23.543C191.246 23.9905 190.922 24.5237 190.72 25.1066C190.518 25.6895 190.443 26.3088 190.5 26.923V46.993C190.441 47.6074 190.515 48.2272 190.717 48.8104C190.919 49.3936 191.244 49.9266 191.67 50.373C192.07 50.7465 192.541 51.0369 193.054 51.2274C193.567 51.4179 194.113 51.5048 194.66 51.483C195.169 51.4921 195.675 51.4178 196.16 51.2631L193.48 49.153Z" fill="#001E1F"/>
<path d="M218.6 17.553V46.993C218.6 49.653 219.88 51.483 222.31 51.483C224.74 51.483 226.02 49.653 226.02 46.993V17.553H231.57V46.163C231.57 54.703 226.47 56.923 222.31 56.923C218.15 56.923 213.05 54.703 213.05 46.163V17.553H218.6Z" fill="#001E1F"/>
<path d="M239.61 17.553H256.08V22.823H245.16V34.243H254.81V39.233H245.16V51.103H256.25V56.373H239.62V17.553H239.61Z" fill="#001E1F"/>
<path d="M268.17 29.1431V34.963H262.35V29.1431H268.17ZM268.17 50.543V56.363H262.35V50.543H268.17Z" fill="#001E1F"/>
</g>
<defs>
<filter id="filter0_d" x="0.320007" y="0.032959" width="296" height="81.9301" filterUnits="userSpaceOnUse" color-interpolation-filters="sRGB">
<feFlood flood-opacity="0" result="BackgroundImageFix"/>
<feColorMatrix in="SourceAlpha" type="matrix" values="0 0 0 0 0 0 0 0 0 0 0 0 0 0 0 0 0 0 127 0" result="hardAlpha"/>
<feOffset dy="4"/>
<feGaussianBlur stdDeviation="2"/>
<feColorMatrix type="matrix" values="0 0 0 0 0 0 0 0 0 0 0 0 0 0 0 0 0 0 0.25 0"/>
<feBlend mode="normal" in2="BackgroundImageFix" result="effect1_dropShadow"/>
<feBlend mode="normal" in="SourceGraphic" in2="effect1_dropShadow" result="shape"/>
</filter>
</defs>
</svg>
