<svg width="315" height="248" viewBox="0 0 315 248" fill="none" xmlns="http://www.w3.org/2000/svg">
<path d="M15.21 14.8131H11.32V13.9332C11.3408 13.1181 11.1218 12.3148 10.69 11.6231C10.4551 11.2898 10.1361 11.0245 9.76558 10.8541C9.39502 10.6838 8.98603 10.6142 8.58003 10.6529C8.12612 10.6315 7.67543 10.739 7.28004 10.963C6.96302 11.1574 6.6904 11.4166 6.48 11.7232C6.27527 12.069 6.13311 12.4478 6.06001 12.8429C5.98201 13.2784 5.9452 13.7207 5.95003 14.1632C5.94578 14.6073 5.96581 15.0514 6.01003 15.4933C6.03962 15.8266 6.13837 16.1499 6.3 16.443C6.45992 16.735 6.6902 16.9827 6.96999 17.1632C7.34575 17.411 7.74831 17.6155 8.17 17.773L11.14 18.9532C11.8966 19.2271 12.6053 19.6183 13.24 20.1129C13.7539 20.5416 14.1816 21.0643 14.5 21.6529C14.7945 22.3133 14.9867 23.0148 15.07 23.733C15.1759 24.6123 15.226 25.4973 15.22 26.3829C15.2299 27.4525 15.1158 28.5198 14.88 29.5631C14.682 30.4609 14.3081 31.3105 13.78 32.0631C13.2304 32.7888 12.5087 33.3663 11.68 33.7433C10.6849 34.1782 9.60556 34.3865 8.52003 34.3531C7.61917 34.3593 6.72577 34.1895 5.89003 33.8531C5.10852 33.5413 4.39772 33.0752 3.8 32.483C3.21227 31.8967 2.74065 31.2045 2.40999 30.443C2.06488 29.6411 1.89121 28.7759 1.90004 27.9029V26.4532H5.78999V27.673C5.78559 28.3675 6.00666 29.0449 6.42 29.6031C6.67557 29.9069 7.00119 30.1437 7.36879 30.2936C7.73639 30.4434 8.13496 30.5015 8.53004 30.463C9.05896 30.4876 9.58627 30.3882 10.07 30.173C10.431 29.99 10.7301 29.705 10.93 29.3531C11.1412 28.9575 11.264 28.521 11.29 28.0733C11.33 27.5733 11.35 27.0232 11.35 26.4132C11.3546 25.8288 11.3279 25.2447 11.27 24.6632C11.2409 24.2776 11.139 23.9011 10.97 23.5533C10.7917 23.2735 10.5524 23.0372 10.27 22.8629C9.89872 22.6431 9.51085 22.4527 9.11 22.2931L6.33003 21.1529C4.91111 20.6848 3.71245 19.7138 2.96004 18.423C2.34607 17.0927 2.05153 15.6373 2.09999 14.173C2.09496 13.1908 2.23656 12.2134 2.52003 11.273C2.77236 10.4077 3.20141 9.60428 3.78004 8.91318C4.32935 8.2365 5.02746 7.69571 5.82002 7.33311C6.74733 6.91979 7.75509 6.7184 8.77003 6.74326C9.68055 6.73444 10.5829 6.91471 11.42 7.27305C12.192 7.61506 12.8965 8.09276 13.5 8.6832C14.0547 9.23091 14.495 9.88335 14.7954 10.6026C15.0958 11.3219 15.2503 12.0936 15.25 12.8731V14.8121L15.21 14.8131Z" fill="#F9F9F9"/>
<path d="M19.06 34.1528V7.00293H30.64V10.6631H22.95V18.6328H29.65V22.293H22.95V30.2632H30.64V34.1528H19.06Z" fill="#F9F9F9"/>
<path d="M34.11 34.1528V7.00293H37.84L42.83 21.3828H42.91L47.86 7.00293H51.63V34.1528H47.74V17.6431H47.66L43.81 29.313H41.87L38.06 17.6431H37.98V34.1528H34.11Z" fill="#F9F9F9"/>
<path d="M56.35 34.1528V7.00293H60.24V34.1528H56.35Z" fill="#F9F9F9"/>
<path d="M64.81 34.1528V7.00293H68.54L74.41 23.3628H74.49V7.00293H78.37V34.1528H74.71L68.77 17.833H68.69V34.1528H64.81Z" fill="#F9F9F9"/>
<path d="M81.07 34.1528L87.13 7.00293H90.37L96.43 34.1528H92.55L91.41 28.3232H86.12L84.98 34.1528H81.07ZM86.29 5.7832L89.72 0.402832H93.83L88.8 5.7832H86.29ZM90.67 24.6528L88.77 14.813H88.69L86.79 24.6528H90.67Z" fill="#F9F9F9"/>
<path d="M99.28 34.1528V7.00293H105.53C110.1 7.00293 112.387 9.65981 112.39 14.9731C112.427 16.3696 112.175 17.7586 111.65 19.0532C111.104 20.2205 110.186 21.1736 109.04 21.7632L113.23 34.1528H109.12L105.5 22.563H103.18V34.1528H99.28ZM103.16 10.6631V19.123H105.37C105.931 19.1501 106.492 19.051 107.01 18.833C107.4 18.6588 107.731 18.3738 107.96 18.0132C108.178 17.602 108.321 17.1546 108.38 16.6929C108.462 16.0931 108.499 15.488 108.49 14.8828C108.494 14.2777 108.457 13.6735 108.38 13.0732C108.322 12.5963 108.165 12.1365 107.92 11.7231C107.588 11.3313 107.164 11.0281 106.685 10.8413C106.207 10.6545 105.69 10.5897 105.18 10.6528H103.16V10.6631Z" fill="#F9F9F9"/>
<path d="M116.57 34.1528V7.00293H120.46V34.1528H116.57Z" fill="#F9F9F9"/>
<path d="M124.95 13.4028C124.931 12.4065 125.125 11.4178 125.52 10.5029C125.872 9.70328 126.39 8.98742 127.04 8.40282C127.651 7.8698 128.357 7.45627 129.12 7.18309C130.63 6.62322 132.29 6.62322 133.8 7.18309C134.57 7.46239 135.284 7.87512 135.91 8.40282C136.541 8.99697 137.048 9.71094 137.4 10.5029C137.799 11.4164 137.994 12.4061 137.97 13.4028V27.7431C137.996 28.7529 137.802 29.7562 137.4 30.6831C137.053 31.4549 136.545 32.1436 135.91 32.7031C135.292 33.2513 134.576 33.6785 133.8 33.9629C132.29 34.5227 130.63 34.5227 129.12 33.9629C128.35 33.6848 127.643 33.2568 127.04 32.7031C126.389 32.1513 125.87 31.4612 125.52 30.6831C125.117 29.7568 124.922 28.7531 124.95 27.7431V13.4028ZM128.83 27.7431C128.798 28.1259 128.852 28.5109 128.987 28.8706C129.122 29.2302 129.334 29.5557 129.61 29.8232C130.129 30.2562 130.784 30.4931 131.46 30.4931C132.136 30.4931 132.791 30.2562 133.31 29.8232C133.586 29.5562 133.8 29.2309 133.935 28.8711C134.07 28.5113 134.123 28.126 134.09 27.7431V13.4028C134.122 13.02 134.068 12.635 133.933 12.2754C133.798 11.9157 133.586 11.5908 133.31 11.3232C132.791 10.8903 132.136 10.6528 131.46 10.6528C130.784 10.6528 130.129 10.8903 129.61 11.3232C129.334 11.5902 129.12 11.9151 128.985 12.2749C128.85 12.6347 128.797 13.0199 128.83 13.4028V27.7431Z" fill="#F9F9F9"/>
<path d="M162.73 26.4131V28.0928C162.734 28.9105 162.571 29.7209 162.25 30.4731C161.936 31.2127 161.493 31.89 160.94 32.4731C160.381 33.0568 159.716 33.5282 158.98 33.8628C158.219 34.2046 157.394 34.3788 156.56 34.373C155.8 34.3703 155.044 34.2696 154.31 34.0732C153.552 33.8738 152.849 33.5079 152.25 33.0029C151.616 32.4638 151.105 31.7956 150.75 31.043C150.324 30.0772 150.123 29.0279 150.16 27.9731V13.0229C150.15 12.1742 150.306 11.3317 150.62 10.543C150.916 9.80223 151.358 9.12881 151.92 8.56297C152.491 7.99313 153.171 7.54438 153.92 7.24315C154.736 6.91469 155.61 6.75156 156.49 6.76317C157.317 6.73319 158.142 6.87672 158.91 7.18504C159.678 7.49336 160.373 7.95966 160.95 8.55321C161.521 9.15189 161.967 9.85879 162.26 10.6328C162.586 11.464 162.749 12.3504 162.74 13.2431V14.7729H158.85V13.4731C158.863 12.7586 158.634 12.0607 158.2 11.4931C157.997 11.2227 157.732 11.0051 157.428 10.8589C157.123 10.7126 156.788 10.6417 156.45 10.6528C156.077 10.6019 155.698 10.6596 155.357 10.8193C155.016 10.979 154.729 11.2341 154.53 11.5532C154.186 12.2589 154.021 13.0386 154.05 13.8232V27.7031C154.025 28.3985 154.202 29.0863 154.56 29.6831C154.772 29.9657 155.055 30.1878 155.379 30.3281C155.703 30.4684 156.059 30.5218 156.41 30.4829C156.688 30.4805 156.965 30.4369 157.23 30.353C157.529 30.2606 157.808 30.1113 158.05 29.9131C158.302 29.6808 158.497 29.3934 158.62 29.0732C158.784 28.6494 158.862 28.1973 158.85 27.7431V26.4131H162.73Z" fill="#F9F9F9"/>
<path d="M166.62 13.4028C166.601 12.4065 166.795 11.4178 167.19 10.5029C167.542 9.70328 168.06 8.98742 168.71 8.40282C169.321 7.8698 170.027 7.45627 170.79 7.18309C172.3 6.62322 173.96 6.62322 175.47 7.18309C176.24 7.46239 176.954 7.87512 177.58 8.40282C178.214 8.99427 178.721 9.70892 179.07 10.5029C179.465 11.4178 179.659 12.4065 179.64 13.4028V27.7431C179.666 28.7529 179.472 29.7562 179.07 30.6831C178.723 31.4549 178.215 32.1436 177.58 32.7031C176.963 33.2535 176.247 33.6809 175.47 33.9629C173.96 34.5227 172.3 34.5227 170.79 33.9629C170.02 33.6848 169.313 33.2568 168.71 32.7031C168.062 32.1486 167.543 31.4591 167.19 30.6831C166.786 29.7568 166.592 28.7531 166.62 27.7431V13.4028ZM170.5 27.7431C170.468 28.1259 170.522 28.5109 170.657 28.8706C170.792 29.2302 171.004 29.5557 171.28 29.8232C171.799 30.2562 172.454 30.4931 173.13 30.4931C173.806 30.4931 174.461 30.2562 174.98 29.8232C175.256 29.5562 175.47 29.2309 175.605 28.8711C175.74 28.5113 175.793 28.126 175.76 27.7431V13.4028C175.792 13.02 175.738 12.635 175.603 12.2754C175.468 11.9157 175.256 11.5908 174.98 11.3232C174.461 10.8903 173.806 10.6528 173.13 10.6528C172.454 10.6528 171.799 10.8903 171.28 11.3232C171.004 11.5902 170.79 11.9151 170.655 12.2749C170.52 12.6347 170.467 13.0199 170.5 13.4028V27.7431Z" fill="#F9F9F9"/>
<path d="M184.03 34.1528V7.00293H187.76L192.75 21.3828H192.83L197.78 7.00293H201.55V34.1528H197.67V17.6431H197.59L193.74 29.313H191.8L187.99 17.6431H187.91V34.1528H184.03Z" fill="#F9F9F9"/>
<path d="M205.93 13.4028C205.911 12.4065 206.105 11.4178 206.5 10.5029C206.852 9.70328 207.37 8.98742 208.02 8.40282C208.631 7.8698 209.337 7.45627 210.1 7.18309C211.61 6.62322 213.27 6.62322 214.78 7.18309C215.55 7.46239 216.264 7.87512 216.89 8.40282C217.524 8.99427 218.031 9.70892 218.38 10.5029C218.775 11.4178 218.969 12.4065 218.95 13.4028V27.7431C218.976 28.7529 218.782 29.7562 218.38 30.6831C218.033 31.4549 217.525 32.1436 216.89 32.7031C216.273 33.2535 215.557 33.6809 214.78 33.9629C213.27 34.5227 211.61 34.5227 210.1 33.9629C209.33 33.6848 208.623 33.2568 208.02 32.7031C207.372 32.1486 206.853 31.4591 206.5 30.6831C206.096 29.7568 205.902 28.7531 205.93 27.7431V13.4028ZM209.81 27.7431C209.778 28.1259 209.832 28.5109 209.967 28.8706C210.102 29.2302 210.314 29.5557 210.59 29.8232C211.109 30.2562 211.764 30.4931 212.44 30.4931C213.116 30.4931 213.771 30.2562 214.29 29.8232C214.566 29.5562 214.78 29.2309 214.915 28.8711C215.05 28.5113 215.103 28.126 215.07 27.7431V13.4028C215.102 13.02 215.048 12.635 214.913 12.2754C214.778 11.9157 214.566 11.5908 214.29 11.3232C213.771 10.8903 213.116 10.6528 212.44 10.6528C211.764 10.6528 211.109 10.8903 210.59 11.3232C210.314 11.5902 210.1 11.9151 209.965 12.2749C209.83 12.6347 209.777 13.0199 209.81 13.4028V27.7431Z" fill="#F9F9F9"/>
<path d="M5.20001 66.1528V42.6631H0.710022V39.0029H13.58V42.6631H9.09003V66.1528H5.20001Z" fill="#F9F9F9"/>
<path d="M16.36 66.1528V39.0029H20.25V66.1528H16.36Z" fill="#F9F9F9"/>
<path d="M24.96 66.1528V39.0029H31.21C35.78 39.0029 38.0667 41.6598 38.07 46.9731C38.1066 48.3696 37.8547 49.7586 37.33 51.0532C36.7839 52.2205 35.8659 53.1736 34.72 53.7632L38.91 66.1528H34.8L31.18 54.563H28.86V66.1528H24.96ZM28.85 42.6631V51.123H31.06C31.6215 51.1501 32.1819 51.051 32.7 50.833C33.0903 50.6588 33.4207 50.3738 33.65 50.0132C33.8683 49.602 34.0106 49.1546 34.07 48.6929C34.1518 48.0931 34.1886 47.488 34.18 46.8828C34.1836 46.2777 34.1468 45.6735 34.07 45.0732C34.0115 44.5963 33.8549 44.1365 33.61 43.7231C33.278 43.3313 32.8537 43.0281 32.3754 42.8413C31.897 42.6545 31.3796 42.5897 30.87 42.6528H28.85V42.6631Z" fill="#F9F9F9"/>
<path d="M40.39 66.1528L46.45 39.0029H49.69L55.75 66.1528H51.87L50.73 60.3232H45.44L44.3 66.1528H40.39ZM49.99 56.6528L48.09 46.813H48.01L46.11 56.6528H49.99Z" fill="#F9F9F9"/>
<path d="M58.6 66.1528V39.0029H64.85C69.42 39.0029 71.7067 41.6598 71.71 46.9731C71.7467 48.3696 71.4947 49.7586 70.97 51.0532C70.4238 52.2205 69.5059 53.1736 68.36 53.7632L72.55 66.1528H68.44L64.82 54.563H62.5V66.1528H58.6ZM62.48 42.6631V51.123H64.69C65.2515 51.1501 65.8119 51.051 66.33 50.833C66.7203 50.6588 67.0507 50.3738 67.28 50.0132C67.4983 49.602 67.6406 49.1546 67.7 48.6929C67.7818 48.0931 67.8186 47.488 67.81 46.8828C67.8136 46.2777 67.7768 45.6735 67.7 45.0732C67.6416 44.5963 67.4849 44.1365 67.24 43.7231C66.908 43.3313 66.4837 43.0281 66.0053 42.8413C65.527 42.6545 65.0096 42.5897 64.5 42.6528H62.48V42.6631Z" fill="#F9F9F9"/>
<path d="M96.38 46.8131H92.49V45.9332C92.5108 45.1181 92.2917 44.3148 91.86 43.6231C91.625 43.2898 91.3061 43.0245 90.9356 42.8541C90.565 42.6838 90.156 42.6142 89.75 42.6529C89.2961 42.6315 88.8454 42.739 88.45 42.963C88.133 43.1574 87.8604 43.4166 87.65 43.7232C87.4453 44.069 87.3031 44.4478 87.23 44.8429C87.152 45.2784 87.1152 45.7207 87.12 46.1632C87.1158 46.6073 87.1358 47.0514 87.18 47.4933C87.2096 47.8266 87.3083 48.1499 87.47 48.443C87.6299 48.735 87.8602 48.9827 88.14 49.1632C88.5158 49.411 88.9184 49.6155 89.34 49.773L92.31 50.9532C93.0666 51.2271 93.7753 51.6183 94.41 52.1129C94.9239 52.5416 95.3516 53.0643 95.67 53.6529C95.9645 54.3133 96.1567 55.0148 96.24 55.733C96.3459 56.6123 96.396 57.4973 96.39 58.3829C96.3999 59.4525 96.2858 60.5198 96.05 61.5631C95.852 62.4609 95.4781 63.3105 94.95 64.0631C94.4004 64.7888 93.6786 65.3663 92.85 65.7433C91.8549 66.1782 90.7755 66.3865 89.69 66.3531C88.7892 66.3593 87.8958 66.1895 87.06 65.8531C86.2785 65.5413 85.5677 65.0752 84.97 64.483C84.3823 63.8967 83.9107 63.2045 83.58 62.443C83.2349 61.6411 83.0612 60.7759 83.07 59.9029V58.4532H86.96V59.673C86.9556 60.3675 87.1767 61.0449 87.59 61.6031C87.8456 61.9069 88.1712 62.1437 88.5388 62.2936C88.9064 62.4434 89.3049 62.5015 89.7 62.463C90.2289 62.4876 90.7563 62.3882 91.24 62.173C91.601 61.99 91.9001 61.705 92.1 61.3531C92.3112 60.9575 92.434 60.521 92.46 60.0733C92.5 59.5733 92.52 59.0232 92.52 58.4132C92.5246 57.8288 92.4979 57.2447 92.44 56.6632C92.4108 56.2776 92.3091 55.9011 92.14 55.5533C91.9617 55.2735 91.7224 55.0372 91.44 54.8629C91.0687 54.6431 90.6809 54.4527 90.28 54.2931L87.5 53.1529C86.0811 52.6848 84.8824 51.7138 84.13 50.423C83.5161 49.0927 83.2216 47.6373 83.27 46.173C83.265 45.1908 83.4065 44.2134 83.69 43.273C83.9423 42.4077 84.3714 41.6043 84.95 40.9132C85.4993 40.2365 86.1974 39.6957 86.99 39.3331C87.9173 38.9198 88.9251 38.7184 89.94 38.7433C90.8505 38.7344 91.753 38.9147 92.59 39.273C93.362 39.6151 94.0664 40.0928 94.67 40.6832C95.2247 41.2309 95.665 41.8834 95.9654 42.6026C96.2658 43.3219 96.4203 44.0936 96.42 44.8731V46.8121L96.38 46.8131Z" fill="#F9F9F9"/>
<path d="M100.23 66.1528V39.0029H111.81V42.6631H104.12V50.6328H110.82V54.293H104.12V62.2632H111.81V66.1528H100.23Z" fill="#F9F9F9"/>
<path d="M127.84 39.0029V60.0532C127.849 60.8974 127.686 61.7344 127.36 62.5132C127.043 63.2605 126.585 63.9396 126.01 64.5132C125.429 65.0932 124.744 65.5576 123.99 65.8828C123.22 66.2169 122.389 66.3872 121.55 66.3828C120.717 66.3872 119.893 66.2169 119.13 65.8828C117.626 65.2184 116.424 64.017 115.76 62.5132C115.423 61.7372 115.253 60.8992 115.26 60.0532V39.0029H119.15V59.6729C119.117 60.0575 119.162 60.4451 119.28 60.8125C119.399 61.1799 119.589 61.5198 119.84 61.813C120.299 62.2556 120.912 62.5029 121.55 62.5029C122.188 62.5029 122.801 62.2556 123.26 61.813C123.511 61.5198 123.701 61.1799 123.82 60.8125C123.938 60.4451 123.983 60.0575 123.95 59.6729V39.0029H127.84Z" fill="#F9F9F9"/>
<path d="M140.49 66.1528V39.0029H146.32C147.277 38.9856 148.23 39.1275 149.14 39.4228C149.989 39.7289 150.748 40.2411 151.35 40.913C152.01 41.6178 152.481 42.4777 152.72 43.413C153.006 44.6825 153.133 45.9824 153.1 47.2831C153.113 48.3171 153.043 49.3503 152.89 50.373C152.751 51.212 152.445 52.0144 151.99 52.7329C151.478 53.6036 150.743 54.3218 149.86 54.8129C148.775 55.353 147.571 55.6079 146.36 55.5532H144.38V66.1528H140.49ZM144.37 42.663V51.893H146.24C146.868 51.927 147.496 51.8106 148.07 51.5532C148.479 51.3445 148.811 51.0118 149.02 50.603C149.236 50.1628 149.358 49.6826 149.38 49.1928C149.42 48.6328 149.44 48.0132 149.44 47.3232C149.44 46.6832 149.43 46.0831 149.4 45.5131C149.383 44.9929 149.267 44.4803 149.06 44.0029C148.868 43.5855 148.55 43.2394 148.15 43.0131C147.604 42.7557 147.003 42.6385 146.4 42.6728H144.37V42.663Z" fill="#F9F9F9"/>
<path d="M156.94 66.1528V39.0029H163.19C167.76 39.0029 170.047 41.6598 170.05 46.9731C170.087 48.3696 169.835 49.7586 169.31 51.0532C168.764 52.2205 167.846 53.1736 166.7 53.7632L170.89 66.1528H166.78L163.16 54.563H160.84V66.1528H156.94ZM160.83 42.6631V51.123H163.04C163.601 51.1501 164.162 51.051 164.68 50.833C165.07 50.6588 165.401 50.3738 165.63 50.0132C165.848 49.602 165.991 49.1546 166.05 48.6929C166.132 48.0931 166.169 47.488 166.16 46.8828C166.164 46.2777 166.127 45.6735 166.05 45.0732C165.992 44.5963 165.835 44.1365 165.59 43.7231C165.258 43.3313 164.834 43.0281 164.355 42.8413C163.877 42.6545 163.36 42.5897 162.85 42.6528H160.83V42.6631Z" fill="#F9F9F9"/>
<path d="M173.89 45.4028C173.871 44.4065 174.065 43.4178 174.46 42.5029C174.812 41.7033 175.33 40.9874 175.98 40.4028C176.591 39.8698 177.297 39.4563 178.06 39.1831C179.57 38.6232 181.23 38.6232 182.74 39.1831C183.51 39.4624 184.224 39.8751 184.85 40.4028C185.484 40.9943 185.991 41.7089 186.34 42.5029C186.735 43.4178 186.929 44.4065 186.91 45.4028V59.7431C186.936 60.7529 186.742 61.7562 186.34 62.6831C185.993 63.4549 185.485 64.1436 184.85 64.7031C184.233 65.2535 183.517 65.6809 182.74 65.9629C181.23 66.5227 179.57 66.5227 178.06 65.9629C177.29 65.6848 176.583 65.2568 175.98 64.7031C175.332 64.1486 174.813 63.4591 174.46 62.6831C174.057 61.7568 173.862 60.7531 173.89 59.7431V45.4028ZM177.78 59.7431C177.748 60.1259 177.802 60.5109 177.937 60.8706C178.071 61.2302 178.284 61.5557 178.56 61.8232C179.079 62.2562 179.734 62.4931 180.41 62.4931C181.086 62.4931 181.741 62.2562 182.26 61.8232C182.536 61.5562 182.75 61.2309 182.885 60.8711C183.02 60.5113 183.073 60.126 183.04 59.7431V45.4028C183.072 45.02 183.018 44.635 182.883 44.2754C182.748 43.9157 182.536 43.5908 182.26 43.3232C181.741 42.8903 181.086 42.6528 180.41 42.6528C179.734 42.6528 179.079 42.8903 178.56 43.3232C178.284 43.5902 178.07 43.9151 177.935 44.2749C177.8 44.6347 177.747 45.0199 177.78 45.4028V59.7431Z" fill="#F9F9F9"/>
<path d="M200.33 39.0029V59.7432C200.383 61.0279 200.046 62.2982 199.362 63.3872C198.678 64.4762 197.68 65.3324 196.5 65.8428C195.615 66.2163 194.66 66.3973 193.7 66.373C192.608 66.4159 191.528 66.1304 190.6 65.5532C189.882 65.096 189.224 64.5517 188.64 63.9331L191.69 61.4932C191.977 61.7759 192.304 62.0151 192.66 62.2031C193.017 62.3925 193.416 62.492 193.82 62.4932C194.092 62.4885 194.361 62.4444 194.62 62.3628C194.947 62.2593 195.248 62.0854 195.5 61.853C195.805 61.5903 196.042 61.2572 196.19 60.8828C196.389 60.3529 196.481 59.7889 196.46 59.2231V39.0132H200.33V39.0029Z" fill="#F9F9F9"/>
<path d="M204.94 66.1528V39.0029H216.52V42.6631H208.83V50.6328H215.53V54.293H208.83V62.2632H216.52V66.1528H204.94Z" fill="#F9F9F9"/>
<path d="M222.53 66.1528V42.6631H218.04V39.0029H230.91V42.6631H226.42V66.1528H222.53Z" fill="#F9F9F9"/>
<path d="M232.89 45.4028C232.871 44.4065 233.065 43.4178 233.46 42.5029C233.812 41.7033 234.33 40.9874 234.98 40.4028C235.591 39.8698 236.297 39.4563 237.06 39.1831C238.57 38.6232 240.23 38.6232 241.74 39.1831C242.51 39.4624 243.224 39.8751 243.85 40.4028C244.484 40.9943 244.991 41.7089 245.34 42.5029C245.735 43.4178 245.929 44.4065 245.91 45.4028V59.7431C245.936 60.7529 245.742 61.7562 245.34 62.6831C244.993 63.4549 244.485 64.1436 243.85 64.7031C243.233 65.2535 242.517 65.6809 241.74 65.9629C240.99 66.2374 240.198 66.3794 239.4 66.3828C238.601 66.3811 237.809 66.2391 237.06 65.9629C236.29 65.6848 235.583 65.2568 234.98 64.7031C234.332 64.1486 233.813 63.4591 233.46 62.6831C233.057 61.7568 232.862 60.7531 232.89 59.7431V45.4028ZM236.78 59.7431C236.748 60.1259 236.802 60.5109 236.937 60.8706C237.071 61.2302 237.284 61.5557 237.56 61.8232C238.079 62.2562 238.734 62.4931 239.41 62.4931C240.086 62.4931 240.741 62.2562 241.26 61.8232C241.536 61.5562 241.75 61.2309 241.885 60.8711C242.02 60.5113 242.073 60.126 242.04 59.7431V45.4028C242.072 45.02 242.018 44.635 241.883 44.2754C241.748 43.9157 241.536 43.5908 241.26 43.3232C240.741 42.8903 240.086 42.6528 239.41 42.6528C238.734 42.6528 238.079 42.8903 237.56 43.3232C237.284 43.5902 237.07 43.9151 236.935 44.2749C236.8 44.6347 236.747 45.0199 236.78 45.4028V59.7431Z" fill="#F9F9F9"/>
<path d="M2.64001 98.1527V71.0028H8.39001C9.3176 70.9364 10.2488 71.0651 11.1237 71.3803C11.9986 71.6955 12.7978 72.1902 13.47 72.8329C14.7038 74.2698 15.325 76.1331 15.2 78.0229V90.7231C15.2 93.2631 14.58 95.1427 13.35 96.3427C12.6293 96.9817 11.7886 97.4709 10.877 97.7817C9.96529 98.0924 9.0009 98.2185 8.03998 98.1527H2.64001ZM6.53003 74.663V94.4931H8.32001C8.74339 94.538 9.17145 94.4875 9.57288 94.3456C9.9743 94.2037 10.3389 93.9738 10.64 93.6728C11.1606 92.9218 11.4044 92.0137 11.33 91.1029V78.0229C11.3816 77.1482 11.154 76.2798 10.68 75.5429C10.3839 75.2205 10.0158 74.9727 9.60559 74.8197C9.19543 74.6668 8.75491 74.6131 8.32001 74.663H6.53003Z" fill="#F9F9F9"/>
<path d="M19.59 77.4028C19.5708 76.4065 19.7651 75.4178 20.1599 74.5029C20.5124 73.7033 21.0305 72.9874 21.68 72.4028C22.291 71.8698 22.9965 71.4563 23.76 71.1831C25.2698 70.6232 26.9302 70.6232 28.44 71.1831C29.2096 71.4624 29.9239 71.8751 30.55 72.4028C31.1811 72.997 31.6876 73.7109 32.04 74.5029C32.4394 75.4164 32.634 76.4061 32.61 77.4028V91.7431C32.6361 92.7529 32.4415 93.7562 32.04 94.6831C31.6928 95.4549 31.1848 96.1436 30.55 96.7031C29.9316 97.2513 29.2159 97.6785 28.44 97.9629C26.9302 98.5227 25.2698 98.5227 23.76 97.9629C22.99 97.6848 22.283 97.2568 21.68 96.7031C21.0292 96.1513 20.5099 95.4612 20.1599 94.6831C19.7565 93.7568 19.5619 92.7531 19.59 91.7431V77.4028ZM23.48 91.7431C23.4483 92.1259 23.5018 92.5109 23.6366 92.8706C23.7715 93.2302 23.9844 93.5557 24.26 93.8232C24.7793 94.2562 25.4339 94.4931 26.11 94.4931C26.786 94.4931 27.4407 94.2562 27.96 93.8232C28.2363 93.5562 28.4496 93.2309 28.5846 92.8711C28.7195 92.5113 28.7726 92.126 28.74 91.7431V77.4028C28.7717 77.02 28.7182 76.635 28.5833 76.2754C28.4484 75.9157 28.2356 75.5908 27.96 75.3232C27.4407 74.8903 26.786 74.6528 26.11 74.6528C25.4339 74.6528 24.7793 74.8903 24.26 75.3232C23.9837 75.5902 23.7703 75.9151 23.6354 76.2749C23.5004 76.6347 23.4473 77.0199 23.48 77.4028V91.7431Z" fill="#F9F9F9"/>
<path d="M45.04 98.1528V71.0029H50.87C51.8268 70.9856 52.7798 71.1275 53.69 71.4228C54.5387 71.7289 55.2981 72.2411 55.9 72.913C56.5598 73.6178 57.031 74.4777 57.27 75.413C57.5556 76.6825 57.6832 77.9824 57.65 79.2831C57.6633 80.3171 57.5931 81.3503 57.44 82.373C57.301 83.212 56.995 84.0144 56.54 84.7329C56.028 85.6036 55.2927 86.3218 54.41 86.8129C53.3251 87.353 52.1206 87.6079 50.91 87.5532H48.93V98.1528H45.04ZM48.92 74.663V83.893H50.79C51.4184 83.927 52.0458 83.8106 52.62 83.5532C53.0289 83.3445 53.3614 83.0118 53.57 82.603C53.7859 82.1628 53.9084 81.6826 53.93 81.1928C53.97 80.6328 53.99 80.0132 53.99 79.3232C53.99 78.6832 53.98 78.0831 53.95 77.5131C53.9327 76.9929 53.8173 76.4803 53.61 76.0029C53.4181 75.5855 53.0997 75.2394 52.7 75.0131C52.1541 74.7557 51.5526 74.6385 50.95 74.6728H48.92V74.663Z" fill="#F9F9F9"/>
<path d="M58.33 98.1528L64.39 71.0029H67.63L73.69 98.1528H69.81L68.67 92.3232H63.38L62.24 98.1528H58.33ZM67.93 88.6528L66.03 78.813H65.95L64.05 88.6528H67.93Z" fill="#F9F9F9"/>
<path d="M76.54 98.1528V71.0029H82.37C83.3268 70.9856 84.2798 71.1275 85.19 71.4228C86.0387 71.7289 86.7981 72.2411 87.4 72.913C88.0598 73.6178 88.531 74.4777 88.77 75.413C89.0556 76.6825 89.1832 77.9824 89.15 79.2831C89.1633 80.3171 89.0931 81.3503 88.94 82.373C88.801 83.212 88.495 84.0144 88.04 84.7329C87.528 85.6036 86.7927 86.3218 85.91 86.8129C84.8251 87.353 83.6206 87.6079 82.41 87.5532H80.43V98.1528H76.54ZM80.42 74.663V83.893H82.29C82.9184 83.927 83.5458 83.8106 84.12 83.5532C84.5289 83.3445 84.8614 83.0118 85.07 82.603C85.2859 82.1628 85.4084 81.6826 85.43 81.1928C85.47 80.6328 85.49 80.0132 85.49 79.3232C85.49 78.6832 85.48 78.0831 85.45 77.5131C85.4327 76.9929 85.3173 76.4803 85.11 76.0029C84.9181 75.5855 84.5997 75.2394 84.2 75.0131C83.6541 74.7557 83.0526 74.6385 82.45 74.6728H80.42V74.663Z" fill="#F9F9F9"/>
<path d="M92.99 98.1528V71.0029H104.57V74.6631H96.88V82.6328H103.58V86.293H96.88V94.2632H104.57V98.1528H92.99Z" fill="#F9F9F9"/>
<path d="M108.04 98.1528V71.0029H111.93V94.2632H119.62V98.1528H108.04Z" fill="#F9F9F9"/>
<path d="M131.12 98.1528V71.0029H136.95C137.907 70.9856 138.86 71.1275 139.77 71.4228C140.619 71.7289 141.378 72.2411 141.98 72.913C142.64 73.6178 143.111 74.4777 143.35 75.413C143.636 76.6825 143.763 77.9824 143.73 79.2831C143.743 80.3171 143.673 81.3503 143.52 82.373C143.381 83.212 143.075 84.0144 142.62 84.7329C142.108 85.6036 141.373 86.3218 140.49 86.8129C139.405 87.353 138.201 87.6079 136.99 87.5532H135.01V98.1528H131.12ZM135.01 74.663V83.893H136.88C137.508 83.927 138.136 83.8106 138.71 83.5532C139.119 83.3445 139.451 83.0118 139.66 82.603C139.876 82.1628 139.998 81.6826 140.02 81.1928C140.06 80.6328 140.08 80.0132 140.08 79.3232C140.08 78.6832 140.07 78.0831 140.04 77.5131C140.023 76.9929 139.907 76.4803 139.7 76.0029C139.508 75.5855 139.19 75.2394 138.79 75.0131C138.244 74.7557 137.643 74.6385 137.04 74.6728H135.01V74.663Z" fill="#F9F9F9"/>
<path d="M147.35 77.4028C147.331 76.4065 147.525 75.4178 147.92 74.5029C148.272 73.7033 148.79 72.9874 149.44 72.4028C150.051 71.8698 150.757 71.4563 151.52 71.1831C153.03 70.6232 154.69 70.6232 156.2 71.1831C156.97 71.4624 157.684 71.8751 158.31 72.4028C158.941 72.997 159.448 73.7109 159.8 74.5029C160.199 75.4164 160.394 76.4061 160.37 77.4028V91.7431C160.396 92.7529 160.202 93.7562 159.8 94.6831C159.453 95.4549 158.945 96.1436 158.31 96.7031C157.692 97.2513 156.976 97.6785 156.2 97.9629C154.69 98.5227 153.03 98.5227 151.52 97.9629C150.75 97.6848 150.043 97.2568 149.44 96.7031C148.789 96.1513 148.27 95.4612 147.92 94.6831C147.516 93.7568 147.322 92.7531 147.35 91.7431V77.4028ZM151.23 91.7431C151.198 92.1259 151.252 92.5109 151.387 92.8706C151.521 93.2302 151.734 93.5557 152.01 93.8232C152.529 94.2562 153.184 94.4931 153.86 94.4931C154.536 94.4931 155.191 94.2562 155.71 93.8232C155.986 93.5562 156.2 93.2309 156.335 92.8711C156.469 92.5113 156.523 92.126 156.49 91.7431V77.4028C156.522 77.02 156.468 76.635 156.333 76.2754C156.198 75.9157 155.986 75.5908 155.71 75.3232C155.191 74.8903 154.536 74.6528 153.86 74.6528C153.184 74.6528 152.529 74.8903 152.01 75.3232C151.734 75.5902 151.52 75.9151 151.385 76.2749C151.25 76.6347 151.197 77.0199 151.23 77.4028V91.7431Z" fill="#F9F9F9"/>
<path d="M164.75 98.1528V71.0029H171C175.57 71.0029 177.857 73.6598 177.86 78.9731C177.897 80.3696 177.645 81.7586 177.12 83.0532C176.574 84.2205 175.656 85.1736 174.51 85.7632L178.7 98.1528H174.59L170.97 86.563H168.65V98.1528H164.75ZM168.64 74.6631V83.123H170.85C171.411 83.1501 171.972 83.051 172.49 82.833C172.88 82.6588 173.211 82.3738 173.44 82.0132C173.658 81.602 173.801 81.1546 173.86 80.6929C173.942 80.0931 173.979 79.488 173.97 78.8828C173.974 78.2777 173.937 77.6735 173.86 77.0732C173.802 76.5963 173.645 76.1365 173.4 75.7231C173.068 75.3313 172.644 75.0281 172.165 74.8413C171.687 74.6545 171.17 74.5897 170.66 74.6528H168.64V74.6631Z" fill="#F9F9F9"/>
<path d="M199 71.0029V91.7432C199.053 93.0279 198.715 94.2982 198.032 95.3872C197.348 96.4762 196.35 97.3324 195.17 97.8428C194.285 98.2163 193.33 98.3973 192.37 98.373C191.278 98.4159 190.198 98.1304 189.27 97.5532C188.552 97.096 187.894 96.5517 187.31 95.9331L190.36 93.4932C190.647 93.7759 190.974 94.0151 191.33 94.2031C191.687 94.3925 192.086 94.492 192.49 94.4932C192.762 94.4885 193.031 94.4444 193.29 94.3628C193.617 94.2593 193.918 94.0854 194.17 93.853C194.475 93.5903 194.712 93.2572 194.86 92.8828C195.059 92.3529 195.151 91.7889 195.13 91.2231V71.0132H199V71.0029Z" fill="#F9F9F9"/>
<path d="M203.38 77.4028C203.361 76.4065 203.555 75.4178 203.95 74.5029C204.302 73.7033 204.82 72.9874 205.47 72.4028C206.081 71.8698 206.787 71.4563 207.55 71.1831C209.06 70.6232 210.72 70.6232 212.23 71.1831C213 71.4624 213.714 71.8751 214.34 72.4028C214.974 72.9943 215.481 73.7089 215.83 74.5029C216.225 75.4178 216.419 76.4065 216.4 77.4028V91.7431C216.426 92.7529 216.232 93.7562 215.83 94.6831C215.483 95.4549 214.975 96.1436 214.34 96.7031C213.723 97.2535 213.007 97.6809 212.23 97.9629C210.72 98.5227 209.06 98.5227 207.55 97.9629C206.78 97.6848 206.073 97.2568 205.47 96.7031C204.822 96.1486 204.303 95.4591 203.95 94.6831C203.547 93.7568 203.352 92.7531 203.38 91.7431V77.4028ZM207.26 91.7431C207.228 92.1259 207.282 92.5109 207.417 92.8706C207.552 93.2302 207.764 93.5557 208.04 93.8232C208.559 94.2562 209.214 94.4931 209.89 94.4931C210.566 94.4931 211.221 94.2562 211.74 93.8232C212.016 93.5562 212.23 93.2309 212.365 92.8711C212.5 92.5113 212.553 92.126 212.52 91.7431V77.4028C212.552 77.02 212.498 76.635 212.363 76.2754C212.228 75.9157 212.016 75.5908 211.74 75.3232C211.221 74.8903 210.566 74.6528 209.89 74.6528C209.214 74.6528 208.559 74.8903 208.04 75.3232C207.764 75.5902 207.55 75.9151 207.415 76.2749C207.28 76.6347 207.227 77.0199 207.26 77.4028V91.7431Z" fill="#F9F9F9"/>
<path d="M220.78 98.1528V71.0029H232.36V74.6631H224.67V82.6328H231.37V86.293H224.67V94.2632H232.36V98.1528H220.78Z" fill="#F9F9F9"/>
<path d="M235.83 98.1528V71.0029H239.72V94.2632H247.41V98.1528H235.83Z" fill="#F9F9F9"/>
<path d="M267.94 71.0029V91.7432C267.993 93.0279 267.655 94.2982 266.972 95.3872C266.288 96.4762 265.29 97.3324 264.11 97.8428C263.225 98.2163 262.27 98.3973 261.31 98.373C260.218 98.4159 259.138 98.1304 258.21 97.5532C257.492 97.096 256.834 96.5517 256.25 95.9331L259.3 93.4932C259.587 93.7759 259.914 94.0151 260.27 94.2031C260.627 94.3925 261.026 94.492 261.43 94.4932C261.702 94.4885 261.971 94.4444 262.23 94.3628C262.557 94.2593 262.858 94.0854 263.11 93.853C263.415 93.5903 263.652 93.2572 263.8 92.8828C263.999 92.3529 264.091 91.7889 264.07 91.2231V71.0132H267.94V71.0029Z" fill="#F9F9F9"/>
<path d="M272.32 77.4028C272.301 76.4065 272.495 75.4178 272.89 74.5029C273.242 73.7033 273.761 72.9874 274.41 72.4028C275.021 71.8698 275.727 71.4563 276.49 71.1831C278 70.6232 279.66 70.6232 281.17 71.1831C281.94 71.4624 282.654 71.8751 283.28 72.4028C283.914 72.9943 284.421 73.7089 284.77 74.5029C285.165 75.4178 285.359 76.4065 285.34 77.4028V91.7431C285.366 92.7529 285.172 93.7562 284.77 94.6831C284.423 95.4549 283.915 96.1436 283.28 96.7031C282.663 97.2535 281.947 97.6809 281.17 97.9629C279.66 98.5227 278 98.5227 276.49 97.9629C275.72 97.6848 275.013 97.2568 274.41 96.7031C273.762 96.1486 273.243 95.4591 272.89 94.6831C272.487 93.7568 272.292 92.7531 272.32 91.7431V77.4028ZM276.2 91.7431C276.168 92.1259 276.222 92.5109 276.357 92.8706C276.492 93.2302 276.704 93.5557 276.98 93.8232C277.499 94.2562 278.154 94.4931 278.83 94.4931C279.506 94.4931 280.161 94.2562 280.68 93.8232C280.956 93.5562 281.17 93.2309 281.305 92.8711C281.439 92.5113 281.493 92.126 281.46 91.7431V77.4028C281.492 77.02 281.438 76.635 281.303 76.2754C281.168 75.9157 280.956 75.5908 280.68 75.3232C280.161 74.8903 279.506 74.6528 278.83 74.6528C278.154 74.6528 277.499 74.8903 276.98 75.3232C276.704 75.5902 276.49 75.9151 276.355 76.2749C276.22 76.6347 276.167 77.0199 276.2 77.4028V91.7431Z" fill="#F9F9F9"/>
<path d="M291.82 98.1528V74.6631H287.33V71.0029H300.2V74.6631H295.71V98.1528H291.82Z" fill="#F9F9F9"/>
<path d="M299.02 98.1528L305.08 71.0029H308.32L314.38 98.1528H310.49L309.35 92.3232H304.06L302.92 98.1528H299.02ZM308.62 88.6528L306.72 78.813H306.64L304.74 88.6528H308.62Z" fill="#F9F9F9"/>
<path d="M11.11 136.813C11.1387 136.147 10.9568 135.489 10.59 134.933C10.3885 134.692 10.1334 134.501 9.84521 134.376C9.55702 134.251 9.24363 134.195 8.92999 134.213C8.65307 134.203 8.37696 134.248 8.11773 134.346C7.8585 134.444 7.62132 134.593 7.41998 134.783C6.93765 135.371 6.70762 136.126 6.78002 136.883C6.73697 137.603 6.88892 138.322 7.21996 138.963C7.56963 139.404 8.04322 139.732 8.58001 139.903L10.16 140.473C11.0241 140.726 11.7912 141.235 12.36 141.933C12.9052 142.785 13.1482 143.796 13.05 144.803V145.423C13.1334 146.757 12.7282 148.076 11.91 149.133C11.492 149.509 11.004 149.799 10.4737 149.986C9.94342 150.173 9.38145 150.254 8.82 150.223C8.19561 150.274 7.5679 150.178 6.98766 149.942C6.40743 149.705 5.89093 149.335 5.47997 148.863C4.96971 147.994 4.71334 147 4.73998 145.993V145.373H6.59002V145.873C6.56138 146.519 6.73247 147.158 7.08001 147.703C7.29234 147.941 7.55499 148.13 7.84899 148.254C8.14299 148.379 8.46102 148.436 8.78002 148.423C9.13516 148.455 9.49286 148.402 9.82336 148.268C10.1539 148.134 10.4475 147.923 10.68 147.653C11.0608 147.059 11.2332 146.355 11.17 145.653V144.983C11.2264 144.265 11.0549 143.548 10.68 142.933C10.3124 142.488 9.82208 142.161 9.27001 141.993L7.39001 141.323C6.9186 141.19 6.48194 140.955 6.11059 140.636C5.73924 140.316 5.44213 139.919 5.23998 139.473C4.96276 138.687 4.84383 137.854 4.89001 137.023V136.503C4.86964 135.93 4.96942 135.359 5.18298 134.826C5.39653 134.294 5.71914 133.813 6.13 133.413C6.51429 133.068 6.96322 132.803 7.45074 132.633C7.93825 132.463 8.45462 132.391 8.96996 132.423C11.34 132.423 12.92 133.953 12.92 136.723V137.313H11.07V136.813H11.11Z" fill="white"/>
<path d="M21.49 146.533H23.34V146.703C23.3749 147.162 23.311 147.623 23.1527 148.055C22.9943 148.487 22.7452 148.881 22.4221 149.208C22.099 149.536 21.7094 149.791 21.2795 149.956C20.8496 150.121 20.3894 150.191 19.93 150.163C19.454 150.192 18.9772 150.12 18.5309 149.952C18.0846 149.784 17.679 149.523 17.3408 149.186C17.0026 148.85 16.7395 148.446 16.5687 148.001C16.398 147.556 16.3234 147.079 16.35 146.603V140.913C16.3318 140.456 16.4092 140 16.5773 139.575C16.7454 139.15 17.0005 138.764 17.3262 138.443C17.652 138.122 18.0411 137.873 18.4688 137.711C18.8965 137.549 19.3534 137.478 19.81 137.503C20.2796 137.483 20.7483 137.559 21.1872 137.728C21.6261 137.896 22.0257 138.152 22.3613 138.481C22.697 138.81 22.9615 139.205 23.1384 139.641C23.3154 140.076 23.401 140.543 23.39 141.013V144.523H18.2V146.473C18.2 147.783 18.79 148.353 19.93 148.353C21.02 148.353 21.49 147.683 21.49 146.673V146.533ZM21.54 143.143V141.043C21.5646 140.816 21.5392 140.586 21.4655 140.37C21.3917 140.153 21.2716 139.956 21.1133 139.791C20.9551 139.626 20.7627 139.498 20.5496 139.415C20.3366 139.333 20.108 139.298 19.88 139.313C19.645 139.308 19.4117 139.353 19.1956 139.446C18.9794 139.538 18.7855 139.675 18.6265 139.849C18.4676 140.022 18.3474 140.226 18.2738 140.45C18.2003 140.673 18.1751 140.909 18.2 141.143V143.143H21.54Z" fill="white"/>
<path d="M28.73 137.703V138.913C29.0199 138.484 29.4098 138.131 29.8661 137.885C30.3225 137.639 30.8317 137.508 31.35 137.503C31.848 137.47 32.3447 137.586 32.776 137.838C33.2073 138.089 33.5535 138.464 33.77 138.913C34.0549 138.467 34.4507 138.102 34.9187 137.855C35.3867 137.608 35.911 137.487 36.44 137.503C38.14 137.503 38.96 138.663 38.96 140.393V149.963H37.11V141.203C37.11 140.143 36.67 139.303 35.55 139.303C34.39 139.303 33.85 140.363 33.85 141.553V149.963H32V141.203C32 140.433 31.7 139.303 30.47 139.303C29.28 139.303 28.74 140.413 28.74 141.553V149.963H26.89V137.693H28.73V137.703Z" fill="white"/>
<path d="M44.49 133.003V134.813H42.64V133.003H44.49ZM42.64 137.703H44.49V149.973H42.64V137.703Z" fill="white"/>
<path d="M48.17 137.703H50.02V138.913C50.3154 138.484 50.7093 138.133 51.1686 137.887C51.6279 137.642 52.1393 137.51 52.66 137.503C54.83 137.503 55.23 139.163 55.23 140.343V149.963H53.38V141.203C53.38 140.263 53.01 139.303 51.82 139.303C50.31 139.303 50.02 140.783 50.02 141.553V149.963H48.17V137.703Z" fill="white"/>
<path d="M64.01 148.763H63.99C63.6879 149.216 63.2744 149.583 62.7894 149.83C62.3043 150.077 61.7638 150.195 61.22 150.173C59.27 150.173 58.7 148.693 58.7 146.733C58.7 144.133 59.54 142.673 62.28 142.673C62.8581 142.675 63.4355 142.709 64.01 142.773V140.963C64.0115 140.739 63.9672 140.516 63.8799 140.31C63.7926 140.103 63.664 139.916 63.5021 139.761C63.3402 139.605 63.1484 139.485 62.9382 139.406C62.7281 139.328 62.5042 139.292 62.28 139.303C61.8587 139.287 61.4476 139.435 61.134 139.717C60.8204 139.999 60.6288 140.392 60.6 140.813H58.82C58.815 140.354 58.9062 139.898 59.088 139.477C59.2698 139.055 59.538 138.675 59.8754 138.363C60.2127 138.051 60.6116 137.814 61.0464 137.666C61.4813 137.517 61.9424 137.462 62.4 137.503C65.24 137.503 65.86 139.603 65.86 141.193V149.973H64.01V148.763ZM64.01 144.143C63.5927 144.078 63.172 144.038 62.75 144.023C62.4417 144.006 62.1333 144.056 61.8469 144.172C61.5605 144.287 61.3031 144.465 61.093 144.691C60.8829 144.917 60.7254 145.187 60.6315 145.481C60.5377 145.776 60.5098 146.087 60.55 146.393C60.55 148.123 61.07 148.593 62.13 148.593C62.6629 148.49 63.1429 148.203 63.4864 147.783C63.8299 147.363 64.0152 146.836 64.01 146.293V144.143ZM62.73 135.683H61.77L62.91 132.663H64.91L62.73 135.683Z" fill="white"/>
<path d="M71.4 137.703V139.633C72.71 137.853 73.85 137.533 74.81 137.503V139.583H74.46C73.1 139.583 71.4 140.123 71.4 142.823V149.973H69.55V137.703H71.4Z" fill="white"/>
<path d="M79.21 133.003V134.813H77.36V133.003H79.21ZM77.35 137.703H79.2V149.973H77.35V137.703Z" fill="white"/>
<path d="M82.79 140.973C82.8092 140.051 83.1881 139.173 83.8459 138.527C84.5038 137.881 85.3882 137.518 86.3102 137.516C87.2323 137.513 88.1188 137.871 88.7802 138.513C89.4417 139.156 89.8256 140.031 89.85 140.953V146.663C89.85 147.599 89.4781 148.497 88.8161 149.159C88.1541 149.821 87.2562 150.193 86.32 150.193C85.3838 150.193 84.4859 149.821 83.8239 149.159C83.1619 148.497 82.79 147.599 82.79 146.663V140.973ZM88 141.313C88 139.953 87.23 139.313 86.32 139.313C85.41 139.313 84.64 139.953 84.64 141.313V146.363C84.64 147.653 85.23 148.363 86.32 148.363C87.36 148.363 88 147.693 88 146.363V141.313Z" fill="white"/>
<path d="M106.88 149.973H105.03V148.763C104.735 149.192 104.341 149.544 103.881 149.789C103.422 150.034 102.911 150.166 102.39 150.173C100.22 150.173 99.82 148.513 99.82 147.333V140.353C99.82 139.163 100.22 137.513 102.39 137.513C102.911 137.52 103.422 137.652 103.881 137.897C104.341 138.142 104.735 138.494 105.03 138.923V132.663H106.88V149.973ZM105.02 146.113V141.563C105.02 140.793 104.72 139.313 103.22 139.313C102.03 139.313 101.66 140.273 101.66 141.213V146.453C101.66 147.393 102.03 148.363 103.22 148.363C104.73 148.363 105.02 146.883 105.02 146.113Z" fill="white"/>
<path d="M110.46 140.973C110.479 140.051 110.858 139.173 111.516 138.527C112.174 137.881 113.058 137.518 113.98 137.516C114.902 137.513 115.789 137.871 116.45 138.513C117.112 139.156 117.496 140.031 117.52 140.953V146.663C117.52 147.599 117.148 148.497 116.486 149.159C115.824 149.821 114.926 150.193 113.99 150.193C113.054 150.193 112.156 149.821 111.494 149.159C110.832 148.497 110.46 147.599 110.46 146.663V140.973ZM115.67 141.313C115.67 139.953 114.9 139.313 113.99 139.313C113.08 139.313 112.31 139.953 112.31 141.313V146.363C112.31 147.653 112.9 148.363 113.99 148.363C115.03 148.363 115.67 147.693 115.67 146.363V141.313Z" fill="white"/>
<path d="M129.33 137.703V138.913C129.62 138.484 130.01 138.131 130.466 137.885C130.923 137.639 131.432 137.508 131.95 137.503C132.448 137.47 132.945 137.586 133.376 137.838C133.807 138.089 134.153 138.464 134.37 138.913C134.655 138.467 135.051 138.102 135.519 137.855C135.987 137.608 136.511 137.487 137.04 137.503C138.74 137.503 139.56 138.663 139.56 140.393V149.963H137.71V141.203C137.71 140.143 137.27 139.303 136.15 139.303C134.99 139.303 134.45 140.363 134.45 141.553V149.963H132.6V141.203C132.6 140.433 132.3 139.303 131.07 139.303C129.88 139.303 129.34 140.413 129.34 141.553V149.963H127.49V137.693H129.33V137.703Z" fill="white"/>
<path d="M148.28 146.533H150.13V146.703C150.165 147.162 150.101 147.623 149.943 148.055C149.784 148.487 149.535 148.881 149.212 149.208C148.889 149.536 148.499 149.791 148.069 149.956C147.64 150.121 147.179 150.191 146.72 150.163C146.244 150.192 145.767 150.12 145.321 149.952C144.875 149.784 144.469 149.523 144.131 149.186C143.793 148.85 143.529 148.446 143.359 148.001C143.188 147.556 143.113 147.079 143.14 146.603V140.913C143.122 140.456 143.199 140 143.367 139.575C143.535 139.15 143.79 138.764 144.116 138.443C144.442 138.122 144.831 137.873 145.259 137.711C145.687 137.549 146.143 137.478 146.6 137.503C147.07 137.483 147.538 137.559 147.977 137.728C148.416 137.896 148.816 138.152 149.151 138.481C149.487 138.81 149.751 139.205 149.928 139.641C150.105 140.076 150.191 140.543 150.18 141.013V144.523H145V146.473C145 147.783 145.59 148.353 146.73 148.353C147.82 148.353 148.29 147.683 148.29 146.673V146.534L148.28 146.533ZM148.33 143.143V141.043C148.355 140.816 148.329 140.586 148.255 140.37C148.182 140.153 148.062 139.956 147.903 139.791C147.745 139.626 147.553 139.498 147.34 139.415C147.127 139.333 146.898 139.298 146.67 139.313C146.435 139.308 146.202 139.353 145.986 139.446C145.769 139.538 145.575 139.675 145.417 139.849C145.258 140.022 145.137 140.226 145.064 140.45C144.99 140.673 144.965 140.909 144.99 141.143V143.143H148.33Z" fill="white"/>
<path d="M160.73 149.973H158.88V148.763C158.585 149.192 158.191 149.544 157.731 149.789C157.272 150.034 156.761 150.166 156.24 150.173C154.07 150.173 153.67 148.513 153.67 147.333V137.713H155.52V146.473C155.52 147.413 155.89 148.383 157.08 148.383C158.59 148.383 158.88 146.903 158.88 146.133V137.723H160.73V149.973Z" fill="white"/>
<path d="M175.88 148.763H175.85C175.548 149.216 175.134 149.583 174.649 149.83C174.164 150.077 173.624 150.195 173.08 150.173C171.13 150.173 170.56 148.693 170.56 146.733C170.56 144.133 171.4 142.673 174.14 142.673C174.718 142.675 175.296 142.709 175.87 142.773V140.963C175.871 140.738 175.827 140.516 175.74 140.309C175.653 140.103 175.524 139.916 175.362 139.761C175.2 139.605 175.008 139.485 174.798 139.406C174.588 139.327 174.364 139.292 174.14 139.303C173.719 139.287 173.308 139.435 172.994 139.717C172.68 139.999 172.489 140.392 172.46 140.813H170.68C170.675 140.354 170.766 139.898 170.948 139.476C171.13 139.055 171.398 138.675 171.735 138.363C172.073 138.051 172.472 137.814 172.906 137.665C173.341 137.517 173.802 137.462 174.26 137.503C177.1 137.503 177.72 139.603 177.72 141.193V149.973H175.87V148.764L175.88 148.763ZM175.88 144.143C175.463 144.078 175.042 144.038 174.62 144.023C174.312 144.006 174.003 144.056 173.717 144.172C173.431 144.287 173.173 144.465 172.963 144.691C172.753 144.917 172.595 145.187 172.502 145.481C172.408 145.776 172.38 146.087 172.42 146.393C172.42 148.123 172.94 148.593 174 148.593C174.533 148.49 175.013 148.203 175.356 147.783C175.7 147.363 175.885 146.836 175.88 146.293V144.143Z" fill="white"/>
<path d="M183.27 137.703V138.913C183.56 138.484 183.95 138.131 184.406 137.885C184.863 137.639 185.372 137.508 185.89 137.503C186.388 137.47 186.885 137.586 187.316 137.838C187.747 138.089 188.093 138.464 188.31 138.913C188.596 138.468 188.992 138.104 189.459 137.857C189.927 137.61 190.451 137.488 190.98 137.503C192.69 137.503 193.5 138.663 193.5 140.393V149.963H191.65V141.203C191.65 140.143 191.21 139.303 190.09 139.303C188.93 139.303 188.38 140.363 188.38 141.553V149.963H186.53V141.203C186.53 140.433 186.23 139.303 185 139.303C183.81 139.303 183.27 140.413 183.27 141.553V149.963H181.42V137.693H183.27V137.703Z" fill="white"/>
<path d="M199.03 133.003V134.813H197.18V133.003H199.03ZM197.17 137.703H199.02V149.973H197.17V137.703Z" fill="white"/>
<path d="M209.77 151.463C209.8 151.954 209.726 152.447 209.552 152.908C209.377 153.368 209.107 153.787 208.76 154.135C208.412 154.484 207.994 154.755 207.534 154.931C207.074 155.106 206.582 155.182 206.09 155.153C205.64 155.202 205.185 155.151 204.757 155.003C204.329 154.856 203.94 154.615 203.616 154.298C203.293 153.982 203.044 153.597 202.887 153.172C202.731 152.748 202.67 152.294 202.71 151.843H204.49C204.489 152.056 204.534 152.267 204.62 152.462C204.707 152.657 204.834 152.831 204.992 152.974C205.151 153.116 205.338 153.224 205.541 153.289C205.744 153.354 205.958 153.376 206.17 153.353C206.395 153.365 206.621 153.331 206.832 153.252C207.044 153.174 207.238 153.054 207.401 152.899C207.565 152.744 207.696 152.556 207.785 152.349C207.874 152.142 207.92 151.919 207.92 151.693V148.653C207.625 149.082 207.231 149.434 206.771 149.679C206.312 149.925 205.801 150.056 205.28 150.063C203.11 150.063 202.71 148.403 202.71 147.223V140.373C202.71 139.183 203.11 137.533 205.28 137.533C205.801 137.54 206.312 137.672 206.771 137.917C207.231 138.162 207.625 138.514 207.92 138.943V137.733H209.77V151.463ZM207.92 145.993V141.563C207.92 140.793 207.62 139.313 206.12 139.313C204.93 139.313 204.56 140.273 204.56 141.213V146.333C204.56 147.273 204.93 148.233 206.12 148.233C207.62 148.243 207.92 146.763 207.92 145.993Z" fill="white"/>
<path d="M213.36 140.973C213.379 140.051 213.758 139.173 214.416 138.527C215.074 137.881 215.958 137.518 216.88 137.516C217.802 137.513 218.689 137.871 219.35 138.513C220.012 139.156 220.396 140.031 220.42 140.953V146.663C220.42 147.599 220.048 148.497 219.386 149.159C218.724 149.821 217.826 150.193 216.89 150.193C215.954 150.193 215.056 149.821 214.394 149.159C213.732 148.497 213.36 147.599 213.36 146.663V140.973ZM218.57 141.313C218.57 139.953 217.8 139.313 216.89 139.313C215.98 139.313 215.21 139.953 215.21 141.313V146.363C215.21 147.653 215.8 148.363 216.89 148.363C217.93 148.363 218.57 147.693 218.57 146.363V141.313Z" fill="white"/>
<path d="M230.16 147.723C230.369 147.953 230.626 148.134 230.913 148.253C231.2 148.372 231.51 148.427 231.82 148.413C232.427 148.429 233.019 148.219 233.48 147.823C233.713 147.583 233.891 147.295 234.001 146.979C234.112 146.663 234.152 146.326 234.12 145.993V132.663H235.97V145.603C236.045 146.256 235.972 146.918 235.758 147.539C235.543 148.16 235.192 148.725 234.73 149.193C233.932 149.912 232.883 150.286 231.81 150.233C231.262 150.262 230.715 150.174 230.204 149.974C229.694 149.774 229.232 149.467 228.85 149.073L230.16 147.723Z" fill="#00E1BE"/>
<path d="M239.69 140.973C239.709 140.051 240.088 139.173 240.746 138.527C241.404 137.881 242.288 137.518 243.21 137.516C244.132 137.513 245.019 137.871 245.68 138.513C246.342 139.156 246.726 140.031 246.75 140.953V146.663C246.75 147.599 246.378 148.497 245.716 149.159C245.054 149.821 244.156 150.193 243.22 150.193C242.284 150.193 241.386 149.821 240.724 149.159C240.062 148.497 239.69 147.599 239.69 146.663V140.973ZM244.91 141.313C244.91 139.953 244.14 139.313 243.23 139.313C242.32 139.313 241.55 139.953 241.55 141.313V146.363C241.55 147.653 242.14 148.363 243.23 148.363C244.27 148.363 244.91 147.693 244.91 146.363V141.313Z" fill="#00E1BE"/>
<path d="M255.38 146.533H257.23V146.703C257.265 147.162 257.201 147.623 257.043 148.055C256.884 148.487 256.635 148.881 256.312 149.208C255.989 149.536 255.599 149.791 255.169 149.956C254.74 150.121 254.279 150.191 253.82 150.163C253.344 150.192 252.867 150.12 252.421 149.952C251.975 149.784 251.569 149.523 251.231 149.186C250.893 148.85 250.63 148.446 250.459 148.001C250.288 147.556 250.213 147.079 250.24 146.603V140.913C250.222 140.456 250.299 140 250.467 139.575C250.635 139.15 250.89 138.764 251.216 138.443C251.542 138.122 251.931 137.873 252.359 137.711C252.787 137.549 253.243 137.478 253.7 137.503C254.17 137.483 254.638 137.559 255.077 137.728C255.516 137.896 255.916 138.152 256.251 138.481C256.587 138.81 256.852 139.205 257.028 139.641C257.205 140.076 257.291 140.543 257.28 141.013V144.523H252.09V146.473C252.09 147.783 252.68 148.353 253.82 148.353C254.91 148.353 255.38 147.683 255.38 146.673V146.533ZM255.43 143.143V141.043C255.455 140.816 255.429 140.586 255.355 140.37C255.282 140.153 255.162 139.956 255.003 139.791C254.845 139.626 254.653 139.498 254.44 139.415C254.227 139.333 253.998 139.298 253.77 139.313C253.535 139.308 253.302 139.353 253.086 139.446C252.869 139.538 252.675 139.675 252.516 139.849C252.358 140.022 252.237 140.226 252.164 140.45C252.09 140.673 252.065 140.909 252.09 141.143V143.143H255.43Z" fill="#00E1BE"/>
<path d="M262.62 132.663V146.913C262.605 147.096 262.629 147.279 262.692 147.451C262.755 147.623 262.855 147.779 262.984 147.909C263.114 148.038 263.27 148.138 263.442 148.201C263.614 148.264 263.798 148.288 263.98 148.273H264.25V149.983H263.68C263.303 150.027 262.921 149.99 262.56 149.872C262.199 149.754 261.868 149.558 261.59 149.299C261.312 149.04 261.094 148.724 260.951 148.373C260.807 148.021 260.742 147.642 260.76 147.263V132.673H262.62V132.663Z" fill="#00E1BE"/>
<path d="M4.84003 178.423C5.04982 178.652 5.30703 178.832 5.59375 178.952C5.88047 179.071 6.18976 179.126 6.5 179.113C7.10738 179.129 7.69903 178.919 8.15997 178.523C8.39299 178.283 8.57094 177.994 8.68146 177.678C8.79197 177.362 8.83241 177.026 8.79999 176.693V163.363H10.65V176.303C10.725 176.956 10.6524 177.617 10.4378 178.239C10.2232 178.86 9.87197 179.425 9.40997 179.893C8.61243 180.612 7.56254 180.986 6.48999 180.933C5.94247 180.962 5.39522 180.873 4.88477 180.673C4.37431 180.473 3.91244 180.166 3.53003 179.773L4.84003 178.423Z" fill="#00E1BE"/>
<path d="M14.38 171.673C14.3992 170.751 14.7782 169.874 15.436 169.228C16.0938 168.581 16.9782 168.218 17.9002 168.215C18.8222 168.213 19.7087 168.571 20.3702 169.213C21.0316 169.856 21.4156 170.731 21.44 171.653V177.363C21.44 178.299 21.0681 179.197 20.4061 179.859C19.7441 180.521 18.8462 180.893 17.91 180.893C16.9738 180.893 16.0759 180.521 15.4139 179.859C14.7519 179.197 14.38 178.299 14.38 177.363V171.673ZM19.59 172.023C19.59 170.663 18.82 170.023 17.91 170.023C17 170.023 16.23 170.663 16.23 172.023V177.073C16.23 178.363 16.82 179.073 17.91 179.073C18.95 179.073 19.59 178.403 19.59 177.073V172.023Z" fill="#00E1BE"/>
<path d="M27.2 164.673V168.403H28.93V169.883H27.2V177.333C27.1566 177.56 27.1691 177.793 27.2365 178.014C27.3039 178.234 27.4241 178.435 27.5867 178.599C27.7493 178.762 27.9493 178.884 28.1695 178.953C28.3897 179.021 28.6232 179.035 28.85 178.993H29.05V180.673H28.51C28.0782 180.774 27.6279 180.763 27.2011 180.643C26.7743 180.523 26.385 180.296 26.0695 179.984C25.7539 179.673 25.5225 179.287 25.3967 178.861C25.2709 178.436 25.2548 177.986 25.35 177.553V169.883H24.04V168.403H25.35V164.673H27.2Z" fill="#00E1BE"/>
<path d="M37.03 179.463H37.01C36.7079 179.916 36.2944 180.283 35.8093 180.53C35.3242 180.777 34.7838 180.895 34.24 180.873C32.29 180.873 31.72 179.393 31.72 177.433C31.72 174.833 32.56 173.373 35.3 173.373C35.878 173.376 36.4555 173.409 37.03 173.473V171.663C37.0315 171.439 36.9872 171.216 36.8999 171.01C36.8126 170.803 36.684 170.616 36.5221 170.461C36.3602 170.306 36.1683 170.185 35.9582 170.106C35.7481 170.027 35.5241 169.992 35.3 170.003C34.8786 169.987 34.4675 170.136 34.1539 170.417C33.8403 170.699 33.6488 171.092 33.62 171.513H31.84C31.835 171.054 31.9263 170.598 32.108 170.176C32.2898 169.754 32.558 169.375 32.8953 169.063C33.2327 168.752 33.6316 168.514 34.0665 168.366C34.5013 168.217 34.9624 168.162 35.42 168.203C38.26 168.203 38.88 170.303 38.88 171.893V180.673H37.03V179.463ZM37.03 174.843C36.6127 174.778 36.192 174.738 35.77 174.723C35.4617 174.706 35.1533 174.757 34.8669 174.872C34.5805 174.987 34.3231 175.165 34.113 175.391C33.903 175.617 33.7454 175.887 33.6515 176.181C33.5576 176.475 33.5298 176.787 33.57 177.093C33.57 178.823 34.09 179.293 35.15 179.293C35.6829 179.19 36.1629 178.904 36.5064 178.483C36.8499 178.063 37.0352 177.536 37.03 176.993V174.843Z" fill="#00E1BE"/>
<path d="M48.94 168.413H50.79V169.623C51.0854 169.194 51.4792 168.842 51.9385 168.597C52.3979 168.352 52.9093 168.22 53.43 168.213C55.6 168.213 56 169.873 56 171.053V178.033C56 179.223 55.6 180.873 53.43 180.873C52.9093 180.866 52.3979 180.734 51.9385 180.489C51.4792 180.243 51.0854 179.892 50.79 179.463V185.723H48.94V168.413ZM54.15 177.163V171.923C54.15 170.983 53.78 170.023 52.59 170.023C51.08 170.023 50.79 171.503 50.79 172.273V176.823C50.79 177.593 51.09 179.073 52.59 179.073C53.78 179.073 54.15 178.103 54.15 177.163Z" fill="white"/>
<path d="M64.78 179.463H64.76C64.4579 179.916 64.0444 180.283 63.5593 180.53C63.0742 180.777 62.5338 180.895 61.99 180.873C60.04 180.873 59.47 179.393 59.47 177.433C59.47 174.833 60.31 173.373 63.05 173.373C63.628 173.376 64.2055 173.409 64.78 173.473V171.663C64.7815 171.439 64.7372 171.216 64.6499 171.01C64.5626 170.803 64.434 170.616 64.2721 170.461C64.1102 170.306 63.9183 170.185 63.7082 170.106C63.4981 170.027 63.2741 169.992 63.05 170.003C62.6286 169.987 62.2175 170.136 61.9039 170.417C61.5903 170.699 61.3988 171.092 61.37 171.513H59.59C59.585 171.054 59.6763 170.598 59.858 170.176C60.0398 169.754 60.308 169.375 60.6453 169.063C60.9827 168.752 61.3816 168.514 61.8165 168.366C62.2513 168.217 62.7124 168.162 63.17 168.203C66.01 168.203 66.63 170.303 66.63 171.893V180.673H64.78V179.463ZM64.78 174.843C64.3627 174.778 63.942 174.738 63.52 174.723C63.2117 174.706 62.9033 174.757 62.6169 174.872C62.3305 174.987 62.0731 175.165 61.863 175.391C61.653 175.617 61.4954 175.887 61.4015 176.181C61.3076 176.475 61.2798 176.787 61.32 177.093C61.32 178.823 61.84 179.293 62.9 179.293C63.4329 179.19 63.9129 178.904 64.2564 178.483C64.5999 178.063 64.7852 177.536 64.78 176.993V174.843Z" fill="white"/>
<path d="M72.16 168.413V170.343C73.47 168.563 74.61 168.243 75.57 168.213V170.293H75.22C73.86 170.293 72.16 170.833 72.16 173.533V180.683H70.31V168.413H72.16Z" fill="white"/>
<path d="M82.76 179.463H82.74C82.4379 179.916 82.0244 180.283 81.5394 180.53C81.0543 180.777 80.5138 180.895 79.97 180.873C78.02 180.873 77.45 179.393 77.45 177.433C77.45 174.833 78.29 173.373 81.03 173.373C81.6081 173.376 82.1855 173.409 82.76 173.473V171.663C82.7615 171.439 82.7172 171.216 82.6299 171.01C82.5426 170.803 82.414 170.616 82.2521 170.461C82.0902 170.306 81.8984 170.185 81.6882 170.106C81.4781 170.027 81.2542 169.992 81.03 170.003C80.6087 169.987 80.1976 170.136 79.884 170.417C79.5704 170.699 79.3788 171.092 79.35 171.513H77.57C77.565 171.054 77.6562 170.598 77.838 170.176C78.0198 169.754 78.288 169.375 78.6254 169.063C78.9627 168.752 79.3616 168.514 79.7964 168.366C80.2313 168.217 80.6924 168.162 81.15 168.203C83.99 168.203 84.61 170.303 84.61 171.893V180.673H82.76V179.463ZM82.76 174.843C82.3427 174.778 81.922 174.738 81.5 174.723C81.1917 174.706 80.8833 174.757 80.5969 174.872C80.3105 174.987 80.0531 175.165 79.843 175.391C79.6329 175.617 79.4754 175.887 79.3815 176.181C79.2877 176.475 79.2598 176.787 79.3 177.093C79.3 178.823 79.82 179.293 80.88 179.293C81.4129 179.19 81.8929 178.904 82.2364 178.483C82.5799 178.063 82.7652 177.536 82.76 176.993V174.843Z" fill="white"/>
<path d="M96.84 164.673V168.403H98.57V169.883H96.84V177.333C96.7966 177.56 96.8091 177.793 96.8765 178.014C96.9439 178.234 97.0641 178.435 97.2267 178.599C97.3893 178.762 97.5893 178.884 97.8094 178.953C98.0296 179.021 98.2632 179.035 98.49 178.993H98.69V180.673H98.15C97.7182 180.774 97.2679 180.763 96.8411 180.643C96.4144 180.523 96.025 180.296 95.7095 179.984C95.3939 179.673 95.1625 179.287 95.0367 178.861C94.9109 178.436 94.8948 177.986 94.99 177.553V169.883H93.68V168.403H94.99V164.673H96.84Z" fill="white"/>
<path d="M106.63 177.243H108.48V177.413C108.515 177.872 108.451 178.333 108.293 178.765C108.134 179.197 107.885 179.591 107.562 179.919C107.239 180.247 106.849 180.501 106.42 180.666C105.99 180.831 105.529 180.901 105.07 180.873C104.594 180.902 104.117 180.83 103.671 180.662C103.225 180.494 102.819 180.233 102.481 179.896C102.143 179.56 101.88 179.156 101.709 178.711C101.538 178.266 101.463 177.789 101.49 177.313V171.623C101.472 171.166 101.549 170.71 101.717 170.285C101.885 169.86 102.14 169.474 102.466 169.153C102.792 168.832 103.181 168.583 103.609 168.421C104.037 168.259 104.493 168.188 104.95 168.213C105.42 168.193 105.888 168.269 106.327 168.437C106.766 168.606 107.166 168.862 107.501 169.191C107.837 169.52 108.101 169.915 108.278 170.351C108.455 170.786 108.541 171.253 108.53 171.723V175.233H103.34V177.183C103.34 178.493 103.93 179.063 105.07 179.063C106.16 179.063 106.63 178.393 106.63 177.383V177.243ZM106.68 173.853V171.753C106.705 171.526 106.679 171.296 106.605 171.08C106.532 170.863 106.412 170.666 106.253 170.501C106.095 170.336 105.903 170.208 105.69 170.125C105.477 170.043 105.248 170.008 105.02 170.023C104.785 170.018 104.552 170.063 104.336 170.156C104.119 170.248 103.925 170.385 103.767 170.559C103.608 170.732 103.487 170.936 103.414 171.16C103.34 171.383 103.315 171.619 103.34 171.853V173.853H106.68Z" fill="white"/>
<path d="M123.43 177.243H125.28V177.413C125.315 177.872 125.251 178.333 125.093 178.765C124.934 179.197 124.685 179.591 124.362 179.919C124.039 180.247 123.649 180.501 123.219 180.666C122.79 180.831 122.329 180.901 121.87 180.873C121.394 180.902 120.917 180.83 120.471 180.662C120.025 180.494 119.619 180.233 119.281 179.896C118.943 179.56 118.68 179.156 118.509 178.711C118.338 178.266 118.263 177.789 118.29 177.313V171.623C118.272 171.166 118.349 170.71 118.517 170.285C118.685 169.86 118.941 169.474 119.266 169.153C119.592 168.832 119.981 168.583 120.409 168.421C120.837 168.259 121.293 168.188 121.75 168.213C122.22 168.193 122.688 168.269 123.127 168.437C123.566 168.606 123.966 168.862 124.301 169.191C124.637 169.52 124.901 169.915 125.078 170.351C125.255 170.786 125.341 171.253 125.33 171.723V175.233H120.14V177.183C120.14 178.493 120.73 179.063 121.87 179.063C122.96 179.063 123.43 178.393 123.43 177.383V177.243ZM123.48 173.853V171.753C123.505 171.526 123.479 171.296 123.405 171.08C123.332 170.863 123.212 170.666 123.053 170.501C122.895 170.336 122.703 170.208 122.49 170.125C122.277 170.043 122.048 170.008 121.82 170.023C121.585 170.018 121.352 170.063 121.136 170.156C120.919 170.248 120.725 170.385 120.567 170.559C120.408 170.732 120.287 170.936 120.214 171.16C120.14 171.383 120.115 171.619 120.14 171.853V173.853H123.48Z" fill="white"/>
<path d="M128.81 168.413H130.66V169.623C130.955 169.194 131.349 168.842 131.809 168.597C132.268 168.352 132.779 168.22 133.3 168.213C135.47 168.213 135.87 169.873 135.87 171.053V180.673H134.02V171.913C134.02 170.973 133.65 170.013 132.46 170.013C130.95 170.013 130.66 171.493 130.66 172.263V180.673H128.81V168.413Z" fill="white"/>
<path d="M144.28 171.653C144.16 170.273 143.39 169.973 142.62 169.973C142.405 169.939 142.184 169.956 141.977 170.023C141.77 170.09 141.581 170.206 141.427 170.36C141.273 170.514 141.157 170.703 141.09 170.91C141.023 171.118 141.006 171.338 141.04 171.553C141.04 172.513 141.71 172.913 142.5 173.283L144.03 174.023C144.614 174.287 145.117 174.703 145.485 175.228C145.854 175.752 146.075 176.365 146.126 177.004C146.177 177.643 146.055 178.284 145.774 178.86C145.493 179.436 145.063 179.927 144.528 180.28C143.993 180.633 143.373 180.836 142.733 180.868C142.092 180.9 141.455 180.76 140.888 180.462C140.32 180.164 139.843 179.719 139.506 179.174C139.168 178.629 138.983 178.004 138.97 177.363H140.85C140.95 178.673 141.54 179.143 142.5 179.143C142.741 179.175 142.987 179.151 143.217 179.073C143.448 178.995 143.657 178.865 143.83 178.692C144.002 178.52 144.132 178.311 144.21 178.081C144.288 177.85 144.312 177.604 144.28 177.363C144.28 176.443 143.98 175.983 142.72 175.363L141.21 174.623C140.558 174.388 140.004 173.94 139.636 173.353C139.268 172.766 139.107 172.072 139.18 171.383C139.18 169.723 140.27 168.213 142.71 168.213C145.4 168.213 146.07 170.113 146.12 171.653H144.28Z" fill="white"/>
<path d="M151.2 163.713V165.523H149.35V163.713H151.2ZM149.34 168.413H151.19V180.683H149.34V168.413Z" fill="white"/>
<path d="M154.88 168.413H156.73V169.623C157.025 169.194 157.419 168.842 157.879 168.597C158.338 168.352 158.849 168.22 159.37 168.213C161.54 168.213 161.94 169.873 161.94 171.053V180.673H160.09V171.913C160.09 170.973 159.72 170.013 158.53 170.013C157.02 170.013 156.73 171.493 156.73 172.263V180.673H154.88V168.413Z" fill="white"/>
<path d="M170.71 179.463H170.68C170.378 179.916 169.964 180.283 169.479 180.53C168.994 180.777 168.454 180.895 167.91 180.873C165.96 180.873 165.39 179.393 165.39 177.433C165.39 174.833 166.23 173.373 168.97 173.373C169.548 173.376 170.126 173.409 170.7 173.473V171.663C170.701 171.439 170.657 171.216 170.57 171.01C170.483 170.803 170.354 170.616 170.192 170.461C170.03 170.306 169.838 170.185 169.628 170.106C169.418 170.027 169.194 169.992 168.97 170.003C168.549 169.987 168.138 170.136 167.824 170.417C167.51 170.699 167.319 171.092 167.29 171.513H165.51C165.505 171.054 165.596 170.598 165.778 170.176C165.96 169.754 166.228 169.375 166.565 169.063C166.903 168.752 167.302 168.514 167.736 168.366C168.171 168.217 168.632 168.162 169.09 168.203C171.93 168.203 172.55 170.303 172.55 171.893V180.673H170.7V179.464L170.71 179.463ZM170.71 174.843C170.293 174.778 169.872 174.738 169.45 174.723C169.142 174.706 168.833 174.757 168.547 174.872C168.261 174.987 168.003 175.165 167.793 175.391C167.583 175.617 167.425 175.887 167.331 176.181C167.238 176.475 167.21 176.787 167.25 177.093C167.25 178.823 167.77 179.293 168.83 179.293C169.363 179.19 169.843 178.904 170.186 178.483C170.53 178.063 170.715 177.536 170.71 176.993V174.843Z" fill="white"/>
<path d="M178.1 168.413V170.343C179.41 168.563 180.55 168.243 181.51 168.213V170.293H181.16C179.8 170.293 178.1 170.833 178.1 173.533V180.683H176.25V168.413H178.1Z" fill="white"/>
<path d="M190.33 171.673C190.349 170.751 190.728 169.874 191.386 169.228C192.044 168.581 192.928 168.218 193.85 168.215C194.772 168.213 195.659 168.571 196.32 169.213C196.982 169.856 197.366 170.731 197.39 171.653V177.363C197.39 178.299 197.018 179.197 196.356 179.859C195.694 180.521 194.796 180.893 193.86 180.893C192.924 180.893 192.026 180.521 191.364 179.859C190.702 179.197 190.33 178.299 190.33 177.363V171.673ZM195.54 172.023C195.54 170.663 194.77 170.023 193.86 170.023C192.95 170.023 192.18 170.663 192.18 172.023V177.073C192.18 178.363 192.77 179.073 193.86 179.073C194.9 179.073 195.54 178.403 195.54 177.073V172.023Z" fill="white"/>
<path d="M207.35 168.413H209.2V169.623C209.495 169.194 209.889 168.842 210.349 168.597C210.808 168.352 211.319 168.22 211.84 168.213C214.01 168.213 214.41 169.873 214.41 171.053V178.033C214.41 179.223 214.02 180.873 211.84 180.873C211.319 180.866 210.808 180.734 210.349 180.489C209.889 180.243 209.495 179.892 209.2 179.463V185.723H207.35V168.413ZM212.57 177.163V171.923C212.57 170.983 212.2 170.023 211.01 170.023C209.5 170.023 209.21 171.503 209.21 172.273V176.823C209.21 177.593 209.51 179.073 211.01 179.073C212.2 179.073 212.57 178.103 212.57 177.163Z" fill="white"/>
<path d="M223.19 179.463H223.16C222.858 179.916 222.444 180.283 221.959 180.53C221.474 180.777 220.934 180.895 220.39 180.873C218.44 180.873 217.87 179.393 217.87 177.433C217.87 174.833 218.71 173.373 221.45 173.373C222.028 173.376 222.606 173.409 223.18 173.473V171.663C223.181 171.439 223.137 171.216 223.05 171.01C222.963 170.803 222.834 170.616 222.672 170.461C222.51 170.306 222.318 170.185 222.108 170.106C221.898 170.027 221.674 169.992 221.45 170.003C221.029 169.987 220.618 170.136 220.304 170.417C219.99 170.699 219.799 171.092 219.77 171.513H218C217.995 171.054 218.086 170.598 218.268 170.176C218.45 169.754 218.718 169.375 219.055 169.063C219.393 168.752 219.792 168.514 220.227 168.366C220.661 168.217 221.122 168.162 221.58 168.203C224.42 168.203 225.04 170.303 225.04 171.893V180.673H223.19V179.464V179.463ZM223.19 174.843C222.773 174.778 222.352 174.738 221.93 174.723C221.622 174.706 221.313 174.757 221.027 174.872C220.741 174.987 220.483 175.165 220.273 175.391C220.063 175.617 219.905 175.887 219.812 176.181C219.718 176.475 219.69 176.787 219.73 177.093C219.73 178.823 220.25 179.293 221.31 179.293C221.843 179.19 222.323 178.904 222.666 178.483C223.01 178.063 223.195 177.536 223.19 176.993V174.843Z" fill="white"/>
<path d="M233.44 171.653C233.32 170.273 232.55 169.973 231.78 169.973C231.565 169.939 231.344 169.956 231.137 170.023C230.93 170.09 230.741 170.206 230.587 170.36C230.433 170.514 230.317 170.703 230.25 170.91C230.183 171.118 230.166 171.338 230.2 171.553C230.2 172.513 230.87 172.913 231.66 173.283L233.19 174.023C233.774 174.287 234.277 174.703 234.645 175.228C235.014 175.752 235.235 176.365 235.286 177.004C235.337 177.643 235.215 178.284 234.934 178.86C234.653 179.436 234.223 179.927 233.688 180.28C233.153 180.633 232.533 180.836 231.893 180.868C231.252 180.9 230.615 180.76 230.048 180.462C229.48 180.164 229.003 179.719 228.666 179.174C228.328 178.629 228.143 178.004 228.13 177.363H230.01C230.11 178.673 230.7 179.143 231.67 179.143C231.911 179.175 232.157 179.151 232.387 179.073C232.618 178.995 232.827 178.865 233 178.692C233.172 178.52 233.302 178.311 233.38 178.081C233.458 177.85 233.482 177.604 233.45 177.363C233.45 176.443 233.15 175.983 231.89 175.363L230.38 174.623C229.728 174.388 229.174 173.94 228.806 173.353C228.438 172.766 228.277 172.072 228.35 171.383C228.35 169.723 229.44 168.213 231.88 168.213C234.57 168.213 235.24 170.113 235.29 171.653H233.44Z" fill="white"/>
<path d="M243.23 171.653C243.11 170.273 242.34 169.973 241.57 169.973C241.355 169.939 241.134 169.956 240.927 170.023C240.72 170.09 240.531 170.206 240.377 170.36C240.223 170.514 240.107 170.703 240.04 170.91C239.973 171.118 239.956 171.338 239.99 171.553C239.99 172.513 240.66 172.913 241.45 173.283L242.98 174.023C243.564 174.287 244.067 174.703 244.435 175.228C244.804 175.752 245.025 176.365 245.076 177.004C245.127 177.643 245.005 178.284 244.724 178.86C244.443 179.436 244.013 179.927 243.478 180.28C242.943 180.633 242.323 180.836 241.683 180.868C241.042 180.9 240.405 180.76 239.838 180.462C239.27 180.164 238.793 179.719 238.456 179.174C238.118 178.629 237.933 178.004 237.92 177.363H239.8C239.9 178.673 240.49 179.143 241.46 179.143C241.701 179.175 241.947 179.151 242.177 179.073C242.408 178.995 242.617 178.865 242.79 178.692C242.962 178.52 243.092 178.311 243.17 178.081C243.248 177.85 243.272 177.604 243.24 177.363C243.24 176.443 242.94 175.983 241.68 175.363L240.17 174.623C239.518 174.388 238.964 173.94 238.596 173.353C238.228 172.766 238.068 172.072 238.14 171.383C238.14 169.723 239.23 168.213 241.67 168.213C244.36 168.213 245.03 170.113 245.08 171.653H243.23Z" fill="white"/>
<path d="M248.19 171.673C248.209 170.751 248.588 169.874 249.246 169.228C249.904 168.581 250.788 168.218 251.71 168.215C252.632 168.213 253.519 168.571 254.18 169.213C254.842 169.856 255.226 170.731 255.25 171.653V177.363C255.25 178.299 254.878 179.197 254.216 179.859C253.554 180.521 252.656 180.893 251.72 180.893C250.784 180.893 249.886 180.521 249.224 179.859C248.562 179.197 248.19 178.299 248.19 177.363V171.673ZM253.4 172.023C253.4 170.663 252.63 170.023 251.72 170.023C250.81 170.023 250.04 170.663 250.04 172.023V177.073C250.04 178.363 250.63 179.073 251.72 179.073C252.76 179.073 253.4 178.403 253.4 177.073V172.023Z" fill="white"/>
<path d="M270.3 179.463H270.27C269.968 179.916 269.554 180.283 269.069 180.53C268.584 180.777 268.044 180.895 267.5 180.873C265.55 180.873 264.98 179.393 264.98 177.433C264.98 174.833 265.82 173.373 268.56 173.373C269.138 173.376 269.716 173.409 270.29 173.473V171.663C270.292 171.439 270.247 171.216 270.16 171.01C270.073 170.803 269.944 170.616 269.782 170.461C269.62 170.306 269.428 170.185 269.218 170.106C269.008 170.027 268.784 169.992 268.56 170.003C268.139 169.987 267.728 170.136 267.414 170.417C267.1 170.699 266.909 171.092 266.88 171.513H265.1C265.095 171.054 265.186 170.598 265.368 170.176C265.55 169.754 265.818 169.375 266.155 169.063C266.493 168.752 266.892 168.514 267.326 168.366C267.761 168.217 268.222 168.162 268.68 168.203C271.52 168.203 272.14 170.303 272.14 171.893V180.673H270.29V179.464L270.3 179.463ZM270.3 174.843C269.883 174.778 269.462 174.738 269.04 174.723C268.732 174.706 268.423 174.757 268.137 174.872C267.851 174.987 267.593 175.165 267.383 175.391C267.173 175.617 267.015 175.887 266.922 176.181C266.828 176.475 266.8 176.787 266.84 177.093C266.84 178.823 267.36 179.293 268.42 179.293C268.953 179.19 269.433 178.904 269.776 178.483C270.12 178.063 270.305 177.536 270.3 176.993V174.843Z" fill="white"/>
<path d="M5.06 199.113H6.90997V200.323C7.20536 199.894 7.59927 199.542 8.05859 199.297C8.51792 199.052 9.0293 198.92 9.54999 198.913C11.72 198.913 12.12 200.573 12.12 201.753V208.733C12.12 209.923 11.72 211.573 9.54999 211.573C9.0293 211.566 8.51792 211.434 8.05859 211.189C7.59927 210.944 7.20536 210.592 6.90997 210.163V216.423H5.06V199.113ZM10.27 207.863V202.623C10.27 201.683 9.90002 200.723 8.71002 200.723C7.20002 200.723 6.90997 202.203 6.90997 202.973V207.523C6.90997 208.293 7.21002 209.773 8.71002 209.773C9.90002 209.773 10.27 208.803 10.27 207.863Z" fill="white"/>
<path d="M20.9 210.163H20.88C20.5779 210.616 20.1644 210.983 19.6793 211.23C19.1942 211.477 18.6538 211.595 18.11 211.573C16.16 211.573 15.59 210.093 15.59 208.133C15.59 205.533 16.43 204.073 19.17 204.073C19.748 204.076 20.3255 204.109 20.9 204.173V202.363C20.9015 202.138 20.8572 201.916 20.7699 201.709C20.6826 201.503 20.554 201.316 20.3921 201.161C20.2302 201.005 20.0383 200.885 19.8282 200.806C19.6181 200.727 19.3941 200.692 19.17 200.703C18.7486 200.687 18.3375 200.836 18.0239 201.118C17.7103 201.399 17.5188 201.792 17.49 202.213H15.71C15.705 201.753 15.7963 201.298 15.978 200.876C16.1598 200.454 16.428 200.075 16.7653 199.763C17.1026 199.451 17.5016 199.214 17.9365 199.065C18.3713 198.917 18.8324 198.862 19.29 198.903C22.13 198.903 22.75 201.003 22.75 202.593V211.373H20.9V210.163ZM20.9 205.543C20.4827 205.478 20.062 205.438 19.64 205.423C19.3317 205.405 19.0233 205.456 18.7369 205.572C18.4505 205.687 18.1931 205.864 17.983 206.091C17.7729 206.317 17.6153 206.587 17.5215 206.881C17.4276 207.175 17.3998 207.487 17.44 207.793C17.44 209.523 17.96 209.993 19.02 209.993C19.5529 209.89 20.0329 209.604 20.3764 209.184C20.7199 208.763 20.9052 208.236 20.9 207.693V205.543Z" fill="white"/>
<path d="M31.15 202.353C31.03 200.973 30.26 200.673 29.49 200.673C29.2747 200.639 29.0544 200.656 28.847 200.723C28.6396 200.79 28.4511 200.906 28.297 201.06C28.1428 201.214 28.0274 201.402 27.9601 201.61C27.8929 201.817 27.8757 202.038 27.91 202.253C27.91 203.213 28.58 203.613 29.37 203.983L30.9 204.723C31.4841 204.987 31.9866 205.403 32.3552 205.927C32.7239 206.452 32.9452 207.066 32.996 207.705C33.0468 208.344 32.9253 208.984 32.6442 209.561C32.363 210.137 31.9325 210.627 31.3976 210.98C30.8626 211.333 30.2428 211.536 29.6026 211.568C28.9624 211.6 28.3253 211.46 27.7577 211.162C27.1901 210.864 26.7128 210.42 26.3755 209.875C26.0383 209.329 25.8533 208.704 25.84 208.063H27.72C27.82 209.373 28.41 209.843 29.37 209.843C29.6113 209.875 29.8568 209.851 30.0874 209.773C30.318 209.695 30.5274 209.565 30.6996 209.393C30.8717 209.22 31.0019 209.011 31.08 208.78C31.1581 208.55 31.1821 208.304 31.15 208.063C31.15 207.143 30.85 206.683 29.59 206.063L28.08 205.323C27.4282 205.088 26.874 204.641 26.506 204.053C26.1381 203.466 25.9775 202.772 26.05 202.083C26.05 200.423 27.14 198.913 29.58 198.913C32.27 198.913 32.94 200.813 32.99 202.353H31.15Z" fill="white"/>
<path d="M40.93 202.353C40.81 200.973 40.04 200.673 39.27 200.673C39.0547 200.639 38.8344 200.656 38.627 200.723C38.4196 200.79 38.2311 200.906 38.077 201.06C37.9228 201.214 37.8074 201.402 37.7401 201.61C37.6728 201.817 37.6557 202.038 37.69 202.253C37.69 203.213 38.36 203.613 39.15 203.983L40.68 204.723C41.264 204.987 41.7666 205.403 42.1353 205.927C42.5039 206.452 42.7251 207.066 42.7759 207.705C42.8268 208.344 42.7053 208.984 42.4242 209.561C42.1431 210.137 41.7126 210.627 41.1776 210.98C40.6426 211.333 40.0228 211.536 39.3826 211.568C38.7424 211.6 38.1053 211.46 37.5377 211.162C36.9701 210.864 36.4928 210.42 36.1555 209.875C35.8182 209.329 35.6333 208.704 35.62 208.063H37.5C37.6 209.373 38.19 209.843 39.15 209.843C39.3914 209.875 39.6368 209.851 39.8674 209.773C40.0979 209.695 40.3074 209.565 40.4796 209.393C40.6517 209.22 40.7819 209.011 40.86 208.78C40.9381 208.55 40.9621 208.304 40.93 208.063C40.93 207.143 40.63 206.683 39.37 206.063L37.86 205.323C37.2081 205.088 36.654 204.641 36.286 204.053C35.918 203.466 35.7575 202.772 35.83 202.083C35.83 200.423 36.92 198.913 39.36 198.913C42.05 198.913 42.72 200.813 42.77 202.353H40.93Z" fill="white"/>
<path d="M45.9 202.373C45.9192 201.451 46.2982 200.573 46.956 199.927C47.6138 199.281 48.4982 198.918 49.4202 198.916C50.3423 198.913 51.2287 199.271 51.8902 199.914C52.5517 200.556 52.9356 201.431 52.96 202.353V208.063C52.96 208.999 52.5881 209.897 51.9261 210.559C51.2641 211.221 50.3662 211.593 49.43 211.593C48.4938 211.593 47.5959 211.221 46.9339 210.559C46.2719 209.897 45.9 208.999 45.9 208.063V202.373ZM51.11 202.723C51.11 201.363 50.34 200.723 49.43 200.723C48.52 200.723 47.75 201.363 47.75 202.723V207.773C47.75 209.063 48.34 209.773 49.43 209.773C50.47 209.773 51.11 209.103 51.11 207.773V202.723Z" fill="white"/>
<path d="M62.92 199.113H64.77V200.323C65.0654 199.894 65.4593 199.542 65.9186 199.297C66.3779 199.052 66.8893 198.92 67.41 198.913C69.58 198.913 69.98 200.573 69.98 201.753V208.733C69.98 209.923 69.58 211.573 67.41 211.573C66.8893 211.566 66.3779 211.434 65.9186 211.189C65.4593 210.944 65.0654 210.592 64.77 210.163V216.423H62.92V199.113ZM68.14 207.863V202.623C68.14 201.683 67.77 200.723 66.58 200.723C65.07 200.723 64.78 202.203 64.78 202.973V207.523C64.78 208.293 65.08 209.773 66.58 209.773C67.77 209.773 68.14 208.803 68.14 207.863Z" fill="white"/>
<path d="M78.76 210.163H78.74C78.4379 210.616 78.0244 210.983 77.5394 211.23C77.0543 211.477 76.5138 211.595 75.97 211.573C74.02 211.573 73.45 210.093 73.45 208.133C73.45 205.533 74.29 204.073 77.03 204.073C77.6081 204.076 78.1855 204.109 78.76 204.173V202.363C78.7615 202.138 78.7172 201.916 78.6299 201.709C78.5426 201.503 78.414 201.316 78.2521 201.161C78.0902 201.005 77.8984 200.885 77.6882 200.806C77.4781 200.727 77.2542 200.692 77.03 200.703C76.6087 200.687 76.1976 200.836 75.884 201.118C75.5704 201.399 75.3788 201.792 75.35 202.213H73.57C73.565 201.753 73.6562 201.298 73.838 200.876C74.0198 200.454 74.288 200.075 74.6254 199.763C74.9627 199.451 75.3616 199.214 75.7964 199.065C76.2313 198.917 76.6924 198.862 77.15 198.903C79.99 198.903 80.61 201.003 80.61 202.593V211.373H78.76V210.163ZM78.76 205.543C78.3427 205.478 77.922 205.438 77.5 205.423C77.1917 205.405 76.8833 205.456 76.5969 205.572C76.3105 205.687 76.0531 205.864 75.843 206.091C75.6329 206.317 75.4754 206.587 75.3815 206.881C75.2877 207.175 75.2598 207.487 75.3 207.793C75.3 209.523 75.82 209.993 76.88 209.993C77.4129 209.89 77.8929 209.604 78.2364 209.184C78.5799 208.763 78.7652 208.236 78.76 207.693V205.543Z" fill="white"/>
<path d="M86.15 199.113V201.043C87.46 199.263 88.6 198.943 89.56 198.913V200.993H89.21C87.85 200.993 86.15 201.533 86.15 204.233V211.383H84.3V199.113H86.15Z" fill="white"/>
<path d="M96.75 210.163H96.73C96.4278 210.616 96.0144 210.983 95.5294 211.23C95.0443 211.477 94.5039 211.595 93.96 211.573C92.01 211.573 91.44 210.093 91.44 208.133C91.44 205.533 92.28 204.073 95.02 204.073C95.5981 204.076 96.1755 204.109 96.75 204.173V202.363C96.7515 202.138 96.7072 201.916 96.6199 201.709C96.5326 201.503 96.404 201.316 96.2421 201.161C96.0802 201.005 95.8883 200.885 95.6782 200.806C95.4681 200.727 95.2441 200.692 95.02 200.703C94.5986 200.687 94.1876 200.836 93.874 201.118C93.5603 201.399 93.3688 201.792 93.34 202.213H91.56C91.555 201.753 91.6463 201.298 91.8281 200.876C92.0098 200.454 92.278 200.075 92.6154 199.763C92.9527 199.451 93.3516 199.214 93.7865 199.065C94.2214 198.917 94.6824 198.862 95.14 198.903C97.98 198.903 98.6 201.003 98.6 202.593V211.373H96.75V210.163ZM96.75 205.543C96.3327 205.478 95.912 205.438 95.49 205.423C95.1817 205.405 94.8733 205.456 94.5869 205.572C94.3005 205.687 94.0432 205.864 93.8331 206.091C93.623 206.317 93.4654 206.587 93.3715 206.881C93.2777 207.175 93.2498 207.487 93.29 207.793C93.29 209.523 93.81 209.993 94.87 209.993C95.4029 209.89 95.8829 209.604 96.2264 209.184C96.5699 208.763 96.7552 208.236 96.75 207.693V205.543Z" fill="white"/>
<path d="M110.83 195.373V199.103H112.56V200.583H110.83V208.033C110.787 208.26 110.799 208.493 110.867 208.714C110.934 208.934 111.054 209.135 111.217 209.299C111.379 209.462 111.579 209.584 111.799 209.652C112.02 209.721 112.253 209.735 112.48 209.693H112.68V211.373H112.14C111.708 211.474 111.258 211.463 110.831 211.343C110.404 211.222 110.015 210.996 109.699 210.685C109.384 210.373 109.152 209.987 109.027 209.562C108.901 209.136 108.885 208.686 108.98 208.253V200.583H107.67V199.103H108.98V195.373H110.83Z" fill="white"/>
<path d="M117.42 194.413V196.223H115.57V194.413H117.42ZM115.57 199.113H117.42V211.383H115.57V199.113Z" fill="white"/>
<path d="M122.96 199.113V201.043C124.27 199.263 125.41 198.943 126.37 198.913V200.993H126.02C124.66 200.993 122.96 201.533 122.96 204.233V211.383H121.11V199.113H122.96Z" fill="white"/>
<path d="M133.56 210.163H133.54C133.238 210.616 132.824 210.983 132.339 211.23C131.854 211.477 131.314 211.595 130.77 211.573C128.82 211.573 128.25 210.093 128.25 208.133C128.25 205.533 129.09 204.073 131.83 204.073C132.408 204.076 132.986 204.109 133.56 204.173V202.363C133.561 202.138 133.517 201.916 133.43 201.709C133.343 201.503 133.214 201.316 133.052 201.161C132.89 201.005 132.698 200.885 132.488 200.806C132.278 200.727 132.054 200.692 131.83 200.703C131.409 200.687 130.998 200.836 130.684 201.118C130.37 201.399 130.179 201.792 130.15 202.213H128.37C128.365 201.753 128.456 201.298 128.638 200.876C128.82 200.454 129.088 200.075 129.425 199.763C129.763 199.451 130.162 199.214 130.596 199.065C131.031 198.917 131.492 198.862 131.95 198.903C134.79 198.903 135.41 201.003 135.41 202.593V211.373H133.56V210.163ZM133.56 205.543C133.143 205.478 132.722 205.438 132.3 205.423C131.992 205.405 131.683 205.456 131.397 205.572C131.111 205.687 130.853 205.864 130.643 206.091C130.433 206.317 130.275 206.587 130.182 206.881C130.088 207.175 130.06 207.487 130.1 207.793C130.1 209.523 130.62 209.993 131.68 209.993C132.213 209.89 132.693 209.604 133.036 209.184C133.38 208.763 133.565 208.236 133.56 207.693V205.543Z" fill="white"/>
<path d="M140.95 199.113V201.043C142.26 199.263 143.4 198.943 144.36 198.913V200.993H144.01C142.65 200.993 140.95 201.533 140.95 204.233V211.383H139.1V199.113H140.95Z" fill="white"/>
<path d="M157.99 202.353C157.87 200.973 157.1 200.673 156.33 200.673C156.115 200.639 155.894 200.656 155.687 200.723C155.48 200.79 155.291 200.906 155.137 201.06C154.983 201.214 154.867 201.402 154.8 201.61C154.733 201.817 154.716 202.038 154.75 202.253C154.75 203.213 155.42 203.613 156.21 203.983L157.74 204.723C158.324 204.987 158.827 205.403 159.195 205.927C159.564 206.452 159.785 207.066 159.836 207.705C159.887 208.344 159.765 208.984 159.484 209.561C159.203 210.137 158.773 210.627 158.238 210.98C157.703 211.333 157.083 211.536 156.443 211.568C155.802 211.6 155.165 211.46 154.598 211.162C154.03 210.864 153.553 210.42 153.216 209.875C152.878 209.329 152.693 208.704 152.68 208.063H154.56C154.66 209.373 155.25 209.843 156.21 209.843C156.451 209.875 156.697 209.851 156.927 209.773C157.158 209.695 157.367 209.565 157.54 209.393C157.712 209.22 157.842 209.011 157.92 208.78C157.998 208.55 158.022 208.304 157.99 208.063C157.99 207.143 157.69 206.683 156.43 206.063L154.92 205.323C154.268 205.088 153.714 204.641 153.346 204.053C152.978 203.466 152.818 202.772 152.89 202.083C152.89 200.423 153.98 198.913 156.42 198.913C159.11 198.913 159.78 200.813 159.83 202.353H157.99Z" fill="white"/>
<path d="M168.1 207.943H169.95V208.113C169.985 208.572 169.921 209.033 169.763 209.465C169.604 209.898 169.355 210.291 169.032 210.619C168.709 210.946 168.319 211.202 167.889 211.366C167.46 211.531 166.999 211.601 166.54 211.573C166.064 211.602 165.587 211.531 165.141 211.362C164.695 211.194 164.289 210.933 163.951 210.597C163.613 210.26 163.349 209.856 163.179 209.411C163.008 208.966 162.933 208.489 162.96 208.013V202.323C162.942 201.866 163.019 201.41 163.187 200.985C163.355 200.56 163.611 200.174 163.936 199.853C164.262 199.532 164.651 199.282 165.079 199.121C165.507 198.959 165.963 198.888 166.42 198.913C166.89 198.893 167.358 198.969 167.797 199.138C168.236 199.306 168.636 199.563 168.971 199.892C169.307 200.221 169.571 200.615 169.748 201.05C169.925 201.486 170.011 201.953 170 202.423V205.933H164.81V207.883C164.81 209.193 165.4 209.763 166.54 209.763C167.63 209.763 168.1 209.093 168.1 208.083V207.943ZM168.15 204.553V202.453C168.175 202.226 168.149 201.996 168.075 201.78C168.002 201.563 167.882 201.366 167.723 201.201C167.565 201.036 167.373 200.908 167.16 200.825C166.947 200.743 166.718 200.708 166.49 200.723C166.255 200.718 166.022 200.763 165.806 200.855C165.589 200.948 165.395 201.085 165.237 201.258C165.078 201.431 164.957 201.637 164.884 201.86C164.81 202.083 164.785 202.32 164.81 202.553V204.553H168.15Z" fill="white"/>
<path d="M180.55 211.383H178.7V210.173C178.405 210.602 178.011 210.954 177.551 211.199C177.092 211.445 176.581 211.576 176.06 211.583C173.89 211.583 173.49 209.923 173.49 208.743V199.123H175.34V207.883C175.34 208.823 175.71 209.793 176.9 209.793C178.41 209.793 178.7 208.313 178.7 207.543V199.133H180.55V211.383Z" fill="white"/>
<path d="M190.6 199.113H192.45V200.323C192.745 199.894 193.139 199.542 193.599 199.297C194.058 199.052 194.569 198.92 195.09 198.913C197.26 198.913 197.66 200.573 197.66 201.753V208.733C197.66 209.923 197.27 211.573 195.09 211.573C194.569 211.566 194.058 211.434 193.599 211.189C193.139 210.944 192.745 210.592 192.45 210.163V216.423H190.6V199.113ZM195.82 207.863V202.623C195.82 201.683 195.45 200.723 194.26 200.723C192.75 200.723 192.46 202.203 192.46 202.973V207.523C192.46 208.293 192.76 209.773 194.26 209.773C195.45 209.773 195.82 208.803 195.82 207.863Z" fill="white"/>
<path d="M203.2 199.113V201.043C204.51 199.263 205.65 198.943 206.61 198.913V200.993H206.26C204.9 200.993 203.2 201.533 203.2 204.233V211.383H201.35V199.113H203.2Z" fill="white"/>
<path d="M208.81 202.373C208.829 201.451 209.208 200.573 209.866 199.927C210.524 199.281 211.408 198.918 212.33 198.916C213.252 198.913 214.139 199.271 214.8 199.914C215.462 200.556 215.846 201.431 215.87 202.353V208.063C215.87 208.999 215.498 209.897 214.836 210.559C214.174 211.221 213.276 211.593 212.34 211.593C211.404 211.593 210.506 211.221 209.844 210.559C209.182 209.897 208.81 208.999 208.81 208.063V202.373ZM214.02 202.723C214.02 201.363 213.25 200.723 212.34 200.723C211.43 200.723 210.66 201.363 210.66 202.723V207.773C210.66 209.063 211.25 209.773 212.34 209.773C213.38 209.773 214.02 209.103 214.02 207.773V202.723Z" fill="white"/>
<path d="M221.39 212.933C221.39 215.213 220.4 216.423 218.18 216.423H217.69V214.613H217.81C218.054 214.627 218.298 214.588 218.525 214.496C218.752 214.405 218.955 214.263 219.121 214.083C219.287 213.904 219.41 213.689 219.483 213.456C219.555 213.222 219.575 212.975 219.54 212.733V199.103H221.39V212.933ZM221.39 194.413V196.223H219.54V194.413H221.39Z" fill="white"/>
<path d="M230.11 207.943H231.96V208.113C231.995 208.572 231.931 209.033 231.773 209.465C231.614 209.898 231.365 210.291 231.042 210.619C230.719 210.946 230.329 211.202 229.899 211.366C229.47 211.531 229.009 211.601 228.55 211.573C228.074 211.602 227.597 211.531 227.151 211.362C226.705 211.194 226.299 210.933 225.961 210.597C225.623 210.26 225.36 209.856 225.189 209.411C225.018 208.966 224.943 208.489 224.97 208.013V202.323C224.952 201.866 225.029 201.41 225.197 200.985C225.365 200.56 225.621 200.174 225.946 199.853C226.272 199.532 226.661 199.282 227.089 199.121C227.517 198.959 227.973 198.888 228.43 198.913C228.9 198.893 229.368 198.969 229.807 199.138C230.246 199.306 230.646 199.563 230.981 199.892C231.317 200.221 231.581 200.615 231.758 201.05C231.935 201.486 232.021 201.953 232.01 202.423V205.933H226.82V207.883C226.82 209.193 227.41 209.763 228.55 209.763C229.64 209.763 230.11 209.093 230.11 208.083V207.943ZM230.16 204.553V202.453C230.185 202.226 230.159 201.996 230.085 201.78C230.012 201.563 229.892 201.366 229.733 201.201C229.575 201.036 229.383 200.908 229.17 200.825C228.957 200.743 228.728 200.708 228.5 200.723C228.265 200.718 228.032 200.763 227.816 200.855C227.599 200.948 227.405 201.085 227.247 201.258C227.088 201.431 226.967 201.637 226.894 201.86C226.82 202.083 226.795 202.32 226.82 202.553V204.553H230.16Z" fill="white"/>
<path d="M237.67 195.373V199.103H239.4V200.583H237.67V208.033C237.65 208.282 237.684 208.531 237.769 208.766C237.853 209 237.986 209.214 238.16 209.393C238.5 209.624 238.91 209.73 239.32 209.693H239.52V211.373H238.98C238.548 211.474 238.098 211.463 237.671 211.343C237.244 211.222 236.855 210.996 236.539 210.685C236.224 210.373 235.992 209.987 235.867 209.562C235.741 209.136 235.725 208.686 235.82 208.253V200.583H234.51V199.103H235.82V195.373H237.67Z" fill="white"/>
<path d="M242.31 202.373C242.329 201.451 242.708 200.573 243.366 199.927C244.024 199.281 244.908 198.918 245.83 198.916C246.752 198.913 247.639 199.271 248.3 199.914C248.962 200.556 249.346 201.431 249.37 202.353V208.063C249.37 208.999 248.998 209.897 248.336 210.559C247.674 211.221 246.776 211.593 245.84 211.593C244.904 211.593 244.006 211.221 243.344 210.559C242.682 209.897 242.31 208.999 242.31 208.063V202.373ZM247.52 202.723C247.52 201.363 246.75 200.723 245.84 200.723C244.93 200.723 244.16 201.363 244.16 202.723V207.773C244.16 209.063 244.75 209.773 245.84 209.773C246.88 209.773 247.52 209.103 247.52 207.773V202.723Z" fill="white"/>
<path d="M266.4 211.383H264.55V210.173C264.255 210.602 263.861 210.954 263.401 211.199C262.942 211.445 262.431 211.576 261.91 211.583C259.74 211.583 259.34 209.923 259.34 208.743V201.763C259.34 200.573 259.74 198.923 261.91 198.923C262.431 198.93 262.942 199.062 263.401 199.307C263.861 199.552 264.255 199.904 264.55 200.333V194.073H266.4V211.383ZM264.55 207.523V202.973C264.55 202.203 264.25 200.723 262.75 200.723C261.56 200.723 261.19 201.683 261.19 202.623V207.863C261.19 208.803 261.56 209.773 262.75 209.773C264.25 209.773 264.55 208.283 264.55 207.523Z" fill="white"/>
<path d="M269.98 202.373C269.999 201.451 270.378 200.573 271.036 199.927C271.694 199.281 272.578 198.918 273.5 198.916C274.422 198.913 275.309 199.271 275.97 199.914C276.632 200.556 277.016 201.431 277.04 202.353V208.063C277.04 208.999 276.668 209.897 276.006 210.559C275.344 211.221 274.446 211.593 273.51 211.593C272.574 211.593 271.676 211.221 271.014 210.559C270.352 209.897 269.98 208.999 269.98 208.063V202.373ZM275.19 202.723C275.19 201.363 274.42 200.723 273.51 200.723C272.6 200.723 271.83 201.363 271.83 202.723V207.773C271.83 209.063 272.42 209.773 273.51 209.773C274.55 209.773 275.19 209.103 275.19 207.773V202.723Z" fill="white"/>
<path d="M5.06 229.813H6.90997V231.023C7.20536 230.594 7.59927 230.242 8.05859 229.997C8.51792 229.752 9.0293 229.62 9.54999 229.613C11.72 229.613 12.12 231.273 12.12 232.453V239.433C12.12 240.623 11.72 242.273 9.54999 242.273C9.0293 242.266 8.51792 242.134 8.05859 241.889C7.59927 241.644 7.20536 241.292 6.90997 240.863V247.123H5.06V229.813ZM10.27 238.573V233.333C10.27 232.393 9.90002 231.433 8.71002 231.433C7.20002 231.433 6.90997 232.913 6.90997 233.683V238.233C6.90997 239.003 7.21002 240.483 8.71002 240.483C9.90002 240.473 10.27 239.513 10.27 238.573Z" fill="white"/>
<path d="M20.9 240.873H20.88C20.5779 241.326 20.1644 241.693 19.6793 241.94C19.1942 242.187 18.6538 242.305 18.11 242.283C16.16 242.283 15.59 240.803 15.59 238.843C15.59 236.243 16.43 234.783 19.17 234.783C19.748 234.786 20.3255 234.819 20.9 234.883V233.073C20.9015 232.849 20.8572 232.626 20.7699 232.419C20.6826 232.213 20.554 232.026 20.3921 231.871C20.2302 231.715 20.0383 231.595 19.8282 231.516C19.6181 231.437 19.3941 231.402 19.17 231.413C18.7486 231.397 18.3375 231.546 18.0239 231.828C17.7103 232.109 17.5188 232.502 17.49 232.923H15.71C15.705 232.463 15.7963 232.008 15.978 231.586C16.1598 231.164 16.428 230.785 16.7653 230.474C17.1026 230.162 17.5016 229.924 17.9365 229.775C18.3713 229.627 18.8324 229.572 19.29 229.613C22.13 229.613 22.75 231.713 22.75 233.303V242.083H20.9V240.873ZM20.9 236.243C20.4827 236.178 20.062 236.138 19.64 236.123C19.3317 236.106 19.0233 236.156 18.7369 236.272C18.4505 236.387 18.1931 236.565 17.983 236.791C17.7729 237.017 17.6153 237.287 17.5215 237.581C17.4276 237.876 17.3998 238.187 17.44 238.493C17.44 240.223 17.96 240.693 19.02 240.693C19.5529 240.59 20.0329 240.303 20.3764 239.883C20.7199 239.463 20.9052 238.936 20.9 238.393V236.243Z" fill="white"/>
<path d="M26.43 229.813H28.28V231.023C28.5754 230.594 28.9693 230.242 29.4286 229.997C29.8879 229.752 30.3993 229.62 30.92 229.613C33.09 229.613 33.49 231.273 33.49 232.453V239.433C33.49 240.623 33.09 242.273 30.92 242.273C30.3993 242.266 29.8879 242.134 29.4286 241.889C28.9693 241.644 28.5754 241.292 28.28 240.863V247.123H26.43V229.813ZM31.65 238.573V233.333C31.65 232.393 31.28 231.433 30.09 231.433C28.58 231.433 28.29 232.913 28.29 233.683V238.233C28.29 239.003 28.59 240.483 30.09 240.483C31.27 240.473 31.65 239.513 31.65 238.573Z" fill="white"/>
<path d="M42.22 238.643H44.07V238.813C44.1049 239.272 44.041 239.733 43.8826 240.165C43.7243 240.598 43.4752 240.991 43.1521 241.319C42.829 241.647 42.4393 241.901 42.0095 242.066C41.5796 242.23 41.1194 242.301 40.66 242.273C40.1839 242.302 39.7071 242.23 39.2609 242.062C38.8146 241.894 38.4091 241.633 38.0709 241.297C37.7327 240.961 37.4695 240.556 37.2987 240.111C37.1279 239.665 37.0534 239.189 37.08 238.713V233.023C37.0618 232.566 37.1392 232.11 37.3073 231.685C37.4754 231.26 37.7305 230.874 38.0562 230.553C38.3819 230.232 38.7712 229.983 39.1989 229.821C39.6266 229.659 40.0833 229.588 40.54 229.613C41.0096 229.593 41.4784 229.669 41.9172 229.837C42.3561 230.006 42.7557 230.262 43.0914 230.591C43.427 230.92 43.6915 231.315 43.8684 231.75C44.0454 232.186 44.131 232.653 44.12 233.123V236.633H38.93V238.583C38.93 239.893 39.52 240.463 40.66 240.463C41.75 240.463 42.22 239.793 42.22 238.783V238.643ZM42.27 235.253V233.153C42.2946 232.926 42.2692 232.696 42.1954 232.479C42.1217 232.263 42.0015 232.066 41.8433 231.901C41.6851 231.736 41.4927 231.608 41.2797 231.525C41.0666 231.443 40.838 231.408 40.61 231.423C40.375 231.418 40.1417 231.463 39.9256 231.556C39.7095 231.648 39.5155 231.785 39.3565 231.958C39.1976 232.132 39.0773 232.336 39.0038 232.56C38.9302 232.783 38.9051 233.019 38.93 233.253V235.253H42.27Z" fill="white"/>
<path d="M49.46 224.763V239.013C49.4447 239.196 49.4693 239.379 49.5322 239.551C49.5951 239.723 49.6948 239.879 49.8243 240.009C49.9538 240.138 50.1099 240.238 50.2819 240.301C50.4539 240.364 50.6375 240.388 50.82 240.373H51.09V242.083H50.52C50.1429 242.128 49.7606 242.089 49.3997 241.971C49.0388 241.853 48.7079 241.658 48.43 241.399C48.1522 241.141 47.934 240.824 47.7907 240.473C47.6473 240.121 47.5822 239.742 47.6 239.363V224.773H49.46V224.763Z" fill="white"/>
<path d="M55.91 239.983V242.083H53.79V239.983H55.91Z" fill="white"/>
</svg>
