<svg width="649" height="265" viewBox="0 0 649 265" fill="none" xmlns="http://www.w3.org/2000/svg">
<path d="M85.86 5.55322C88.08 5.55322 91.42 5.90277 93.88 8.59277C96.05 11.0528 96.34 13.983 96.34 16.793V35.293C96.34 38.103 96.05 41.0329 93.88 43.4829C91.42 46.1729 88.09 46.5229 85.86 46.5229H77.67V5.55322H85.86ZM91.95 34.9331V17.1431C91.95 15.6231 91.89 13.1629 90.31 11.5229C89.699 10.9183 88.9643 10.4531 88.1564 10.1597C87.3485 9.86619 86.4866 9.75168 85.63 9.82324H82.06V42.2529H85.63C86.4866 42.3245 87.3485 42.2095 88.1564 41.916C88.9643 41.6225 89.699 41.1579 90.31 40.5532C91.89 38.9132 91.95 36.4531 91.95 34.9331Z" fill="#001E1F"/>
<path d="M105.47 5.55322H121.92V9.59277H109.86V23.873H120.51V27.6729H109.86V42.4829H122.09V46.5229H105.47V5.55322Z" fill="#001E1F"/>
<path d="M152.59 5.55322C157.04 5.55322 163.42 6.19295 163.42 15.2729V18.4932C163.42 23.0032 161.55 26.0429 157.8 27.2129L164.36 46.5332H159.79L153.76 28.0928H148.78V46.5332H144.39V5.56299H152.59V5.55322ZM148.79 24.2832H153.12C156.34 24.2832 159.03 22.4132 159.03 18.7832V14.9229C159.03 9.83285 155.11 9.36279 152.88 9.36279H148.78V24.2832H148.79Z" fill="#7A7A7A"/>
<path d="M185.2 15.9731C185.269 14.3973 184.838 12.8397 183.97 11.5229C183.286 10.7642 182.385 10.2336 181.39 10.0029V23.5229L182.97 24.0532C185.017 24.6462 186.835 25.8495 188.18 27.5029C189.64 29.4929 189.82 31.713 189.82 34.293V35.1729C189.82 39.2129 188.71 42.1931 187.13 43.9531C185.57 45.4299 183.535 46.3021 181.39 46.4131V51.2129H178.93V46.5332C175.36 46.3032 173.08 44.953 171.91 43.313C170.15 40.973 170.15 37.0529 170.15 36.5229V35.063H174.54V36.2329C174.48 37.7617 174.888 39.2725 175.71 40.563C176.516 41.5335 177.674 42.145 178.93 42.2632V26.9229L176.47 26.043C175.35 25.7315 174.314 25.1764 173.434 24.4175C172.554 23.6586 171.853 22.7144 171.38 21.6528C170.725 19.7964 170.446 17.8281 170.56 15.8628V15.2231C170.51 13.866 170.745 12.5132 171.25 11.2524C171.754 9.99167 172.517 8.85061 173.49 7.90283C174.959 6.48831 176.893 5.65674 178.93 5.56299V0.882812H181.39V5.56299C186.31 6.03299 189.58 9.66316 189.58 15.7432V17.1431H185.19V15.9741L185.2 15.9731ZM178.94 22.583V9.94287C178.008 10.0729 177.143 10.505 176.48 11.1729C175.335 12.5629 174.789 14.3505 174.96 16.1431C174.871 17.6588 175.236 19.1666 176.01 20.4731C176.743 21.4646 177.767 22.2021 178.94 22.583ZM181.4 27.793V42.1328C182.523 41.9119 183.537 41.312 184.27 40.4331C185.173 39.0259 185.585 37.3588 185.44 35.6929V34.6929C185.44 33.1129 185.26 31.063 184.27 29.833C183.506 28.9157 182.517 28.2127 181.4 27.793Z" fill="#7A7A7A"/>
<path d="M212.01 14.1528C212.01 5.95283 217.69 4.96289 220.61 4.96289C225.76 4.96289 229.04 8.06313 229.04 13.4531V16.2031C228.925 18.4707 228.325 20.6873 227.28 22.7031L216.74 42.4829H229.03V46.5229H212V42.6631L222.65 22.293C223.946 20.1142 224.633 17.6276 224.64 15.0928V14.1528C224.64 11.5228 223.76 9.23291 220.48 9.23291C216.68 9.23291 216.38 12.6231 216.38 14.9731V17.0229H211.99V14.1528H212.01Z" fill="#7A7A7A"/>
<path d="M242.57 41.5532V46.5332H237.54V41.5532H242.57Z" fill="#7A7A7A"/>
<path d="M268.56 5.55322V9.59277H256.74V22.9429C257.453 22.1467 258.33 21.5145 259.31 21.0898C260.291 20.6652 261.352 20.4581 262.42 20.4829C265.99 20.4829 268.57 22.8228 268.57 27.0928V38.623C268.57 41.373 267.81 47.1128 260.26 47.1128C253.41 47.1128 251.71 41.9631 251.71 38.9731V37.043H256.1V38.2129C256.1 39.9729 256.74 42.833 260.08 42.833C263.94 42.833 264.18 39.4429 264.18 38.2129V28.9629C264.18 27.0929 263.36 24.5132 260.43 24.5132C258.85 24.5132 257.33 25.3328 256.57 27.6128H252.36V5.54297H268.56V5.55322Z" fill="#7A7A7A"/>
<path d="M294.14 38.4429C294.14 41.5429 293.09 47.103 285.59 47.103C278.09 47.103 277.04 41.5429 277.04 38.4429V13.623C277.04 10.523 278.09 4.96289 285.59 4.96289C293.09 4.96289 294.14 10.523 294.14 13.623V38.4429ZM289.75 14.2129C289.75 11.9329 288.81 9.24316 285.59 9.24316C282.37 9.24316 281.43 11.9329 281.43 14.2129V37.8628C281.43 40.1428 282.37 42.8428 285.59 42.8428C288.81 42.8428 289.75 40.1528 289.75 37.8628V14.2129Z" fill="#7A7A7A"/>
<path d="M319.6 38.4429C319.6 41.5429 318.55 47.103 311.05 47.103C303.55 47.103 302.5 41.5429 302.5 38.4429V13.623C302.5 10.523 303.55 4.96289 311.05 4.96289C318.55 4.96289 319.6 10.523 319.6 13.623V38.4429ZM315.21 14.2129C315.21 11.9329 314.27 9.24316 311.05 9.24316C307.83 9.24316 306.89 11.9329 306.89 14.2129V37.8628C306.89 40.1428 307.83 42.8428 311.05 42.8428C314.27 42.8428 315.21 40.1528 315.21 37.8628V14.2129Z" fill="#7A7A7A"/>
<path d="M333.07 41.5532V47.0532L328.04 51.563V41.5532H333.07Z" fill="#7A7A7A"/>
<path d="M359.18 38.4429C359.18 41.5429 358.13 47.103 350.63 47.103C343.13 47.103 342.08 41.5429 342.08 38.4429V13.623C342.08 10.523 343.13 4.96289 350.63 4.96289C358.13 4.96289 359.18 10.523 359.18 13.623V38.4429ZM354.79 14.2129C354.79 11.9329 353.85 9.24316 350.63 9.24316C347.41 9.24316 346.47 11.9329 346.47 14.2129V37.8628C346.47 40.1428 347.41 42.8428 350.63 42.8428C353.85 42.8428 354.79 40.1528 354.79 37.8628V14.2129Z" fill="#7A7A7A"/>
<path d="M384.64 38.4429C384.64 41.5429 383.59 47.103 376.09 47.103C368.59 47.103 367.54 41.5429 367.54 38.4429V13.623C367.54 10.523 368.59 4.96289 376.09 4.96289C383.59 4.96289 384.64 10.523 384.64 13.623V38.4429ZM380.25 14.2129C380.25 11.9329 379.31 9.24316 376.09 9.24316C372.87 9.24316 371.93 11.9329 371.93 14.2129V37.8628C371.93 40.1428 372.87 42.8428 376.09 42.8428C379.31 42.8428 380.25 40.1528 380.25 37.8628V14.2129Z" fill="#7A7A7A"/>
<path d="M408.64 5.55322H417.54C424.92 5.55322 427.67 10.3531 427.67 15.9731V19.603C427.67 24.873 424.28 29.6128 418.42 29.6128H413.04V46.5332H408.65V5.55322H408.64ZM413.03 25.8628H417.19C421.23 25.8628 423.28 23.1732 423.28 20.3032V15.4429C423.28 11.6929 421.35 9.35303 417.25 9.35303H413.04V25.8628H413.03Z" fill="#001E1F"/>
<path d="M434.81 15.9131C434.81 12.8731 435.04 9.94285 437.74 7.42285C439.691 5.83178 442.132 4.96289 444.65 4.96289C447.168 4.96289 449.609 5.83178 451.56 7.42285C454.25 9.94285 454.49 12.8631 454.49 15.9131V36.1631C454.49 39.2031 454.26 42.1328 451.56 44.6528C449.609 46.2439 447.168 47.1128 444.65 47.1128C442.132 47.1128 439.691 46.2439 437.74 44.6528C435.05 42.1328 434.81 39.2131 434.81 36.1631V15.9131ZM450.09 14.9731C450.17 14.1932 450.075 13.4051 449.812 12.6665C449.549 11.9279 449.125 11.2572 448.57 10.7031C447.481 9.76149 446.09 9.24316 444.65 9.24316C443.21 9.24316 441.819 9.76149 440.73 10.7031C440.174 11.2563 439.749 11.9267 439.486 12.6655C439.223 13.4044 439.129 14.1931 439.21 14.9731V37.0928C439.134 37.8816 439.231 38.6776 439.494 39.4253C439.756 40.173 440.178 40.8544 440.73 41.4229C441.814 42.3666 443.213 42.8699 444.65 42.833C446.088 42.8766 447.489 42.3725 448.57 41.4229C449.124 40.8558 449.547 40.1743 449.81 39.4263C450.072 38.6782 450.168 37.8817 450.09 37.0928V14.9731Z" fill="#001E1F"/>
<path d="M471.81 5.55322C476.26 5.55322 482.64 6.19295 482.64 15.2729V18.4932C482.64 23.0032 480.77 26.0429 477.02 27.2129L483.58 46.5332H479L472.97 28.0928H468V46.5332H463.61V5.56299H471.81V5.55322ZM468 24.2832H472.33C475.55 24.2832 478.24 22.4132 478.24 18.7832V14.9229C478.24 9.83285 474.32 9.36279 472.09 9.36279H467.99V24.2832H468Z" fill="#001E1F"/>
<path d="M93.26 189.823V92.063L76.75 104.203V86.7231L93.26 74.583H109.77V189.823H93.26Z" fill="#001E1F"/>
<path d="M135.18 189.823V173.313H151.69V189.823H135.18Z" fill="#001E1F"/>
<path d="M169.97 189.823L188.74 141.433L188.42 141.113C187.666 141.635 186.811 141.993 185.91 142.163C184.446 142.463 182.954 142.597 181.46 142.563C178.626 142.583 175.836 141.859 173.37 140.463C171.02 139.186 169.018 137.352 167.54 135.123C166.786 134.052 166.187 132.881 165.76 131.643C165.262 130.094 164.937 128.494 164.79 126.873C164.423 124.435 164.206 121.978 164.14 119.513C164.03 116.543 163.977 112.793 163.98 108.263C163.98 104.483 164.033 101.38 164.14 98.9532C164.211 96.8639 164.428 94.7821 164.79 92.7232C164.96 91.2811 165.313 89.8665 165.84 88.5133C166.371 87.2308 166.993 85.9874 167.7 84.7931C169.781 81.3052 172.775 78.4524 176.36 76.5431C180.126 74.566 184.327 73.5653 188.58 73.6329C192.817 73.5611 197.001 74.5917 200.72 76.6231C204.228 78.5726 207.181 81.3845 209.3 84.7931C210.05 86.0831 210.7 87.3333 211.24 88.5133C211.83 89.8625 212.263 91.2751 212.53 92.7232C212.75 94.4532 212.91 96.5232 213.02 98.9532C213.13 101.383 213.18 104.483 213.18 108.263C213.18 111.823 213.12 114.763 213.02 117.083C212.92 119.403 212.75 121.373 212.53 122.993C212.21 124.723 211.86 126.263 211.48 127.603C211.1 128.943 210.64 130.383 210.1 131.893L188.41 189.833H169.97V189.823ZM180.49 119.743C180.444 120.857 180.637 121.968 181.056 123.002C181.475 124.035 182.111 124.966 182.92 125.733C184.439 127.204 186.475 128.019 188.59 128.003C190.703 128.026 192.739 127.21 194.25 125.733C195.06 124.967 195.696 124.035 196.116 123.002C196.535 121.969 196.727 120.857 196.68 119.743V98.3829C196.726 97.2689 196.533 96.1578 196.114 95.1246C195.695 94.0914 195.059 93.1602 194.25 92.3932C192.724 90.9353 190.695 90.1217 188.585 90.1217C186.475 90.1217 184.446 90.9353 182.92 92.3932C182.111 93.1602 181.475 94.0914 181.056 95.1246C180.637 96.1578 180.444 97.2688 180.49 98.3829V119.743Z" fill="#001E1F"/>
<path d="M230.18 189.823L248.95 141.433L248.63 141.113C247.876 141.635 247.021 141.993 246.12 142.163C244.656 142.463 243.164 142.597 241.67 142.563C238.836 142.583 236.046 141.859 233.58 140.463C231.23 139.186 229.228 137.352 227.75 135.123C226.996 134.052 226.397 132.881 225.97 131.643C225.472 130.094 225.147 128.494 225 126.873C224.633 124.435 224.416 121.978 224.35 119.513C224.24 116.543 224.187 112.793 224.19 108.263C224.19 104.483 224.243 101.38 224.35 98.9532C224.42 96.8639 224.638 94.7821 225 92.7232C225.17 91.2811 225.523 89.8665 226.05 88.5133C226.581 87.2308 227.203 85.9874 227.91 84.7931C229.991 81.3052 232.985 78.4524 236.57 76.5431C240.336 74.566 244.537 73.5653 248.79 73.6329C253.027 73.5611 257.211 74.5917 260.93 76.6231C264.438 78.5726 267.391 81.3845 269.51 84.7931C270.26 86.0831 270.91 87.3333 271.45 88.5133C272.04 89.8625 272.473 91.2751 272.74 92.7232C272.96 94.4532 273.12 96.5232 273.23 98.9532C273.34 101.383 273.39 104.483 273.39 108.263C273.39 111.823 273.33 114.763 273.23 117.083C273.13 119.403 272.96 121.373 272.74 122.993C272.42 124.723 272.07 126.263 271.69 127.603C271.31 128.943 270.85 130.383 270.31 131.893L248.62 189.833H230.18V189.823ZM240.7 119.743C240.654 120.857 240.847 121.968 241.266 123.002C241.685 124.035 242.321 124.966 243.13 125.733C244.649 127.204 246.685 128.019 248.8 128.003C250.913 128.026 252.949 127.21 254.46 125.733C255.27 124.967 255.906 124.035 256.325 123.002C256.745 121.969 256.937 120.857 256.89 119.743V98.3829C256.936 97.2689 256.743 96.1578 256.324 95.1246C255.905 94.0914 255.269 93.1602 254.46 92.3932C252.934 90.9353 250.905 90.1217 248.795 90.1217C246.685 90.1217 244.656 90.9353 243.13 92.3932C242.321 93.1602 241.685 94.0914 241.266 95.1246C240.847 96.1578 240.654 97.2688 240.7 98.3829V119.743Z" fill="#001E1F"/>
<path d="M288.12 189.823L317.09 90.123H298.96V103.393H284.4V74.583H333.6V91.0928L305.6 189.823H288.12Z" fill="#001E1F"/>
<path d="M345.9 201.803V173.313H362.41V189.823L345.9 201.803Z" fill="#001E1F"/>
<path d="M374.71 98.3828C374.643 94.8255 375.332 91.2947 376.73 88.023C378.011 85.1036 379.853 82.4637 382.15 80.2529C384.411 78.0996 387.08 76.4201 390 75.313C396 73.0461 402.62 73.0461 408.62 75.313C411.542 76.4162 414.211 78.0962 416.47 80.2529C418.77 82.4611 420.612 85.1016 421.89 88.023C423.289 91.2944 423.978 94.8254 423.91 98.3828V166.033C423.972 169.59 423.283 173.12 421.89 176.393C420.609 179.312 418.767 181.952 416.47 184.163C414.209 186.316 411.54 187.996 408.62 189.103C402.62 191.37 396 191.37 390 189.103C387.078 188 384.409 186.32 382.15 184.163C379.85 181.955 378.008 179.314 376.73 176.393C375.331 173.122 374.642 169.591 374.71 166.033V98.3828ZM391.22 166.033C391.184 167.12 391.366 168.203 391.756 169.218C392.146 170.233 392.736 171.16 393.49 171.943C395.056 173.451 397.146 174.293 399.32 174.293C401.494 174.293 403.584 173.451 405.15 171.943C405.903 171.159 406.492 170.232 406.882 169.217C407.272 168.202 407.455 167.12 407.42 166.033V98.3828C407.453 97.2964 407.269 96.2144 406.879 95.1997C406.489 94.185 405.902 93.2583 405.15 92.4732C403.584 90.9653 401.494 90.1226 399.32 90.1226C397.146 90.1226 395.056 90.9653 393.49 92.4732C392.738 93.2583 392.15 94.185 391.761 95.1997C391.371 96.2144 391.187 97.2964 391.22 98.3828V166.033Z" fill="#001E1F"/>
<path d="M434.91 98.3828C434.843 94.8255 435.532 91.2947 436.93 88.023C438.211 85.1036 440.053 82.4637 442.35 80.2529C444.611 78.0996 447.28 76.4201 450.2 75.313C456.2 73.0461 462.82 73.0461 468.82 75.313C471.742 76.4162 474.411 78.0962 476.67 80.2529C478.97 82.4611 480.812 85.1016 482.09 88.023C483.489 91.2944 484.178 94.8254 484.11 98.3828V166.033C484.172 169.59 483.483 173.12 482.09 176.393C480.809 179.312 478.967 181.952 476.67 184.163C474.409 186.316 471.74 187.996 468.82 189.103C462.82 191.37 456.2 191.37 450.2 189.103C447.278 188 444.609 186.32 442.35 184.163C440.05 181.955 438.208 179.314 436.93 176.393C435.531 173.122 434.843 169.591 434.91 166.033V98.3828ZM451.42 166.033C451.384 167.12 451.566 168.203 451.956 169.218C452.346 170.233 452.936 171.16 453.69 171.943C455.256 173.451 457.346 174.293 459.52 174.293C461.694 174.293 463.784 173.451 465.35 171.943C466.103 171.159 466.692 170.232 467.082 169.217C467.472 168.202 467.655 167.12 467.62 166.033V98.3828C467.653 97.2964 467.469 96.2144 467.079 95.1997C466.689 94.185 466.102 93.2583 465.35 92.4732C463.784 90.9653 461.694 90.1226 459.52 90.1226C457.346 90.1226 455.256 90.9653 453.69 92.4732C452.938 93.2583 452.351 94.185 451.961 95.1997C451.571 96.2144 451.387 97.2964 451.42 98.3828V166.033Z" fill="#001E1F"/>
<path d="M10.46 81.7129C14.45 81.7129 20.23 81.4832 23.91 86.0132C25.71 88.2032 26.8 91.4832 26.8 95.5532V99.6929C26.8557 102.831 25.8359 105.894 23.91 108.373C22.7651 109.623 21.344 110.589 19.76 111.193L28.36 136.453H20.23L12.64 112.833H8.03003V136.453H0.210022V81.7129H10.46ZM8.03998 105.803H12.5C13.3879 105.844 14.2749 105.706 15.1082 105.396C15.9414 105.087 16.7039 104.613 17.35 104.003C18.91 102.513 18.99 101.183 18.99 99.0732V95.1631C19.0442 93.3287 18.4009 91.542 17.19 90.1631C15.63 88.6031 13.75 88.7529 12.11 88.7529H8.03998V105.803Z" fill="#001E1F"/>
<path d="M44.87 136.373C43.0101 136.287 41.1866 135.827 39.5081 135.021C37.8296 134.216 36.3304 133.08 35.1 131.683C33.2314 128.978 32.2974 125.737 32.44 122.453V120.653H40.26V122.143C40.26 123.703 40.65 125.893 41.67 126.993C42.5458 127.857 43.6668 128.429 44.88 128.633V111.113L41.83 110.093C38.78 109.073 36.04 107.673 34.32 103.993C33.07 101.333 33.07 98.6732 33.07 96.0132V95.2329C33.0129 93.3355 33.3596 91.4476 34.0871 89.6943C34.8147 87.9411 35.9064 86.3626 37.29 85.063C39.3921 83.1658 42.0583 82.0101 44.88 81.7729V75.4429H48.63V81.7729C51.7085 81.8547 54.6303 83.1486 56.76 85.373C59.81 88.583 60.44 92.643 60.44 95.853V97.6528H52.62V96.1631C52.7351 94.3843 52.2375 92.6197 51.21 91.1631C50.5463 90.3719 49.6389 89.8232 48.63 89.603V104.613L51.13 105.473C53.63 106.333 56.37 107.273 58.56 110.163C60.75 113.133 60.98 116.183 60.98 119.623V120.713C60.98 126.893 59.49 135.493 48.62 136.353V142.683H44.87V136.373ZM44.87 89.6128C43.6657 89.9067 42.6267 90.6656 41.98 91.7231C41.1255 93.1301 40.7436 94.7735 40.89 96.4131C40.7478 98.161 41.218 99.9036 42.22 101.343C42.9364 102.2 43.8488 102.873 44.88 103.303V89.6128H44.87ZM48.63 128.633C49.8588 128.375 50.9791 127.747 51.84 126.833C53.09 125.343 53.17 123.083 53.17 121.433V120.183C53.17 118.853 53.09 116.113 51.84 114.553C50.9611 113.595 49.8581 112.87 48.63 112.443V128.633Z" fill="#001E1F"/>
<path d="M513.68 188.523L511.58 178.973H503.43L501.33 188.523H494.96L504.7 143.963H510.3L520.04 188.523H513.68ZM507.38 156.373L504.07 173.303H510.82L507.38 156.373Z" fill="#001E1F"/>
<path d="M551.18 188.523H545.58L536.16 143.963H543.16L548.32 174.773H548.57L553.92 143.963H560.6L551.18 188.523Z" fill="#001E1F"/>
<path d="M571.43 143.963V188.523H565.06V143.963H571.43Z" fill="#001E1F"/>
<path d="M593.77 155.103C593.862 153.665 593.483 152.236 592.69 151.033C592.285 150.539 591.768 150.149 591.182 149.895C590.595 149.641 589.957 149.531 589.32 149.573C588.745 149.553 588.172 149.65 587.636 149.858C587.1 150.066 586.611 150.381 586.2 150.783C585.188 152.061 584.708 153.68 584.86 155.303C584.798 156.915 585.149 158.515 585.88 159.953C586.631 160.895 587.654 161.583 588.81 161.923L592.69 163.323C594.978 163.947 597.006 165.285 598.48 167.143C600.2 169.503 600.39 172.043 600.39 174.843V176.373C600.39 180.893 599.18 184.333 597.33 186.243C595.67 187.963 592.75 189.173 589.05 189.173C584.53 189.173 581.6 187.323 580.14 185.293C578.1 182.553 578.1 178.353 578.1 177.783V176.323H584.47V177.533C584.399 178.923 584.755 180.301 585.49 181.483C585.925 181.975 586.466 182.363 587.072 182.616C587.678 182.869 588.334 182.98 588.99 182.943C589.737 183.014 590.489 182.907 591.186 182.63C591.883 182.354 592.505 181.916 593 181.353C593.96 180.143 594.02 178.293 594.02 176.963V175.303C594.124 173.71 593.77 172.121 593 170.723C592.19 169.787 591.127 169.103 589.94 168.753L585.29 167.093C583 166.263 580.71 165.123 579.43 162.123C578.667 160.049 578.344 157.838 578.48 155.633V154.363C578.442 152.83 578.715 151.306 579.284 149.883C579.853 148.459 580.706 147.167 581.79 146.083C582.826 145.136 584.041 144.406 585.363 143.935C586.686 143.465 588.089 143.263 589.49 143.343C595.86 143.343 600.12 147.483 600.12 154.863V156.323H593.75V155.103H593.77Z" fill="#001E1F"/>
<path d="M625.1 143.963V150.013H617.21V188.523H610.84V150.013H602.95V143.963H625.1Z" fill="#001E1F"/>
<path d="M642.29 188.523L640.19 178.973H632.04L629.94 188.523H623.57L633.31 143.963H638.91L648.65 188.523H642.29ZM635.98 156.373L632.67 173.303H639.42L635.98 156.373Z" fill="#001E1F"/>
<path d="M122.11 231.503C122.11 228.693 122.33 225.993 124.81 223.663C126.612 222.195 128.865 221.393 131.19 221.393C133.515 221.393 135.768 222.195 137.57 223.663C140.06 225.983 140.27 228.693 140.27 231.503V250.213C140.27 253.023 140.05 255.723 137.57 258.053C135.768 259.522 133.515 260.323 131.19 260.323C128.865 260.323 126.612 259.522 124.81 258.053C122.32 255.733 122.11 253.023 122.11 250.213V231.503ZM136.22 230.643C136.293 229.921 136.205 229.192 135.961 228.509C135.717 227.826 135.324 227.205 134.81 226.693C133.805 225.822 132.52 225.343 131.19 225.343C129.86 225.343 128.575 225.822 127.57 226.693C127.055 227.204 126.661 227.825 126.417 228.508C126.173 229.192 126.085 229.921 126.16 230.643V251.083C126.09 251.812 126.18 252.548 126.423 253.239C126.667 253.93 127.058 254.559 127.57 255.083C128.572 255.953 129.863 256.417 131.19 256.383C132.518 256.424 133.811 255.959 134.81 255.083C135.322 254.559 135.713 253.93 135.957 253.239C136.2 252.548 136.29 251.812 136.22 251.083V230.643Z" fill="#001E1F"/>
<path d="M151.41 221.933V251.073C151.41 254.213 152.98 256.373 155.95 256.373C158.92 256.373 160.49 254.213 160.49 251.073V221.933H164.54V250.203C164.54 258.263 159.84 260.313 155.94 260.313C152.04 260.313 147.34 258.263 147.34 250.203V221.933H151.41Z" fill="#001E1F"/>
<path d="M191.31 226.153L185.2 229.993V226.153L191.42 221.933H195.37V259.773H191.32V226.153H191.31Z" fill="#001E1F"/>
<path d="M206.18 229.883C206.18 222.313 211.42 221.393 214.13 221.393C218.89 221.393 221.92 224.263 221.92 229.233V231.773C221.811 233.865 221.259 235.91 220.3 237.773L210.57 256.043H221.92V259.773H206.19V256.203L216.03 237.393C217.227 235.381 217.863 233.085 217.87 230.743V229.873C217.87 227.443 217.06 225.333 214.03 225.333C210.52 225.333 210.25 228.473 210.25 230.633V232.523H206.2V229.883H206.18Z" fill="#001E1F"/>
<path d="M244.08 221.933L249.16 235.823L254.3 221.933H258.73L251.27 239.723L259.6 259.783H255.28L249.12 244.053L243.44 259.783H238.95L247.06 239.783L239.82 221.943H244.08V221.933Z" fill="#001E1F"/>
<path d="M284.63 221.933C288.74 221.933 294.63 222.523 294.63 230.903V233.873C294.63 238.033 292.9 240.843 289.44 241.923L295.49 259.763H291.27L285.7 242.733H281.11V259.763H277.06V221.923H284.63V221.933ZM281.12 239.233H285.12C288.09 239.233 290.58 237.503 290.58 234.153V230.583C290.58 225.883 286.96 225.443 284.9 225.443H281.12V239.233Z" fill="#001E1F"/>
<path d="M313.4 231.563C313.464 230.107 313.065 228.668 312.26 227.453C311.628 226.752 310.798 226.26 309.88 226.043V238.533L311.34 239.023C313.231 239.571 314.909 240.684 316.15 242.213C317.5 244.053 317.66 246.103 317.66 248.483V249.293C317.66 253.023 316.63 255.783 315.17 257.403C313.729 258.766 311.85 259.571 309.87 259.673V264.103H307.6V259.773C304.3 259.553 302.19 258.313 301.11 256.803C299.49 254.643 299.49 251.023 299.49 250.533V249.183H303.54V250.263C303.481 251.676 303.858 253.072 304.62 254.263C305.363 255.159 306.431 255.723 307.59 255.833V241.673L305.32 240.863C304.287 240.574 303.331 240.062 302.518 239.362C301.706 238.662 301.058 237.792 300.62 236.813C300.015 235.098 299.757 233.279 299.86 231.463V230.873C299.813 229.62 300.029 228.371 300.494 227.207C300.959 226.043 301.663 224.988 302.56 224.113C303.919 222.806 305.707 222.038 307.59 221.953V217.633H309.86V221.953C314.4 222.383 317.43 225.743 317.43 231.363V232.663H313.38V231.563H313.4ZM307.61 237.673V225.993C306.748 226.11 305.949 226.511 305.34 227.133C304.815 227.768 304.42 228.5 304.178 229.288C303.936 230.075 303.852 230.903 303.93 231.723C303.845 233.124 304.183 234.517 304.9 235.723C305.586 236.631 306.531 237.311 307.61 237.673ZM309.88 242.483V255.733C310.917 255.528 311.852 254.974 312.53 254.163C313.366 252.864 313.746 251.323 313.61 249.783V248.863C313.61 247.403 313.45 245.513 312.53 244.373C311.834 243.515 310.918 242.862 309.88 242.483Z" fill="#001E1F"/>
<path d="M330.16 226.153L324.05 229.993V226.153L330.27 221.933H334.22V259.773H330.17V226.153H330.16Z" fill="#001E1F"/>
<path d="M347.51 259.783L354.7 242.433C353.615 243.172 352.332 243.565 351.02 243.563C349.07 243.563 345.13 242.483 345.13 236.963V229.233C345.13 223.123 348.91 221.393 353.02 221.393C358.75 221.393 360.7 225.613 360.7 228.903V235.123C360.7 238.313 359.62 240.423 358.7 242.743L351.83 259.773H347.51V259.783ZM349.19 236.373C349.19 237.943 349.89 240.373 352.65 240.373C353.217 240.34 353.772 240.194 354.281 239.943C354.791 239.693 355.246 239.344 355.618 238.915C355.991 238.487 356.274 237.988 356.451 237.448C356.628 236.909 356.696 236.339 356.65 235.773V229.443C356.65 228.363 356.6 225.333 353.08 225.333C349.78 225.333 349.19 227.873 349.19 229.933V236.373Z" fill="#001E1F"/>
<path d="M382.82 221.933V225.553L373.85 259.773H369.85L378.77 225.553H370.88V230.203H367.37V221.933H382.82Z" fill="#001E1F"/>
<path d="M394.06 255.183V260.263L389.41 264.423V255.173H394.06V255.183Z" fill="#001E1F"/>
<path d="M416.83 252.323C416.83 255.193 415.86 260.323 408.94 260.323C402.02 260.323 401.05 255.183 401.05 252.323V229.403C401.05 226.533 402.02 221.403 408.94 221.403C415.86 221.403 416.83 226.543 416.83 229.403V252.323ZM412.77 229.943C412.77 227.833 411.9 225.343 408.93 225.343C405.96 225.343 405.09 227.833 405.09 229.943V251.783C405.09 253.893 405.96 256.373 408.93 256.373C411.9 256.373 412.77 253.883 412.77 251.783V229.943Z" fill="#001E1F"/>
<path d="M438.99 252.323C438.99 255.193 438.02 260.323 431.1 260.323C424.18 260.323 423.21 255.183 423.21 252.323V229.403C423.21 226.533 424.18 221.403 431.1 221.403C438.02 221.403 438.99 226.543 438.99 229.403V252.323ZM434.94 229.943C434.94 227.833 434.07 225.343 431.1 225.343C428.13 225.343 427.26 227.833 427.26 229.943V251.783C427.26 253.893 428.13 256.373 431.1 256.373C434.07 256.373 434.94 253.883 434.94 251.783V229.943Z" fill="#001E1F"/>
</svg>
