<svg width="1053" height="145" viewBox="0 0 1053 145" fill="none" xmlns="http://www.w3.org/2000/svg">
<path d="M100.71 0.733154V29.4731H96.6V0.733154H100.71Z" fill="white"/>
<path d="M110.77 0.733154L117.63 18.8031V0.733154H121.74V29.4731H117.63L110.77 11.4031V29.4731H106.66V0.733154H110.77Z" fill="white"/>
<path d="M133.23 0.733154C134.95 0.733154 137.42 0.813125 139.23 2.45312C141.32 4.38312 141.45 7.42308 141.45 8.65308V21.3431C141.629 23.4669 140.964 25.5757 139.6 27.2131C138.85 27.9781 137.946 28.5751 136.948 28.9647C135.95 29.3543 134.88 29.5276 133.81 29.4731H127.69V0.733154H133.23ZM131.79 25.4531H133.64C134.142 25.4919 134.647 25.4237 135.121 25.2531C135.595 25.0824 136.028 24.8131 136.39 24.4631C137.094 23.4875 137.428 22.2926 137.33 21.0931V8.36316C137.382 7.41021 137.107 6.46797 136.55 5.69312C136.22 5.32403 135.803 5.04435 135.336 4.88C134.869 4.71566 134.368 4.67204 133.88 4.75317H131.79V25.4531Z" fill="white"/>
<path d="M147.23 0.733154H159.42V4.63318H151.33V13.0931H158.47V16.7931H151.33V25.5831H159.54V29.4832H147.22V0.733154H147.23Z" fill="white"/>
<path d="M164.47 0.733154H170.59C172.36 0.733154 174.53 0.813169 176.34 2.62317C178.23 4.55317 178.43 7.05311 178.43 9.19312V10.0132C178.567 12.1069 177.938 14.179 176.66 15.8431C175.942 16.6174 175.061 17.222 174.08 17.6129C173.099 18.0038 172.044 18.1713 170.99 18.1031H168.57V29.4731H164.46V0.733154H164.47ZM168.58 14.4031H170.8C171.309 14.4347 171.818 14.3554 172.293 14.1707C172.768 13.9859 173.197 13.7001 173.55 13.3331C173.877 12.9201 174.115 12.4439 174.249 11.9346C174.383 11.4252 174.411 10.8937 174.33 10.3732V8.48315C174.417 7.88 174.362 7.26479 174.169 6.68665C173.977 6.1085 173.652 5.58332 173.22 5.15308C172.279 4.52571 171.141 4.26266 170.02 4.41309H168.58V14.4031Z" fill="white"/>
<path d="M183.16 0.733154H195.35V4.63318H187.26V13.0931H194.4V16.7931H187.26V25.5831H195.47V29.4832H183.15V0.733154H183.16Z" fill="white"/>
<path d="M204.51 0.733154L211.37 18.8031V0.733154H215.48V29.4731H211.37L204.51 11.4031V29.4731H200.4V0.733154H204.51Z" fill="white"/>
<path d="M226.97 0.733154C228.69 0.733154 231.16 0.813125 232.97 2.45312C235.06 4.38312 235.19 7.42308 235.19 8.65308V21.3431C235.369 23.4669 234.704 25.5757 233.34 27.2131C232.59 27.9781 231.686 28.5751 230.688 28.9647C229.69 29.3543 228.62 29.5276 227.55 29.4731H221.43V0.733154H226.97ZM225.53 25.4531H227.38C227.882 25.4919 228.387 25.4237 228.861 25.2531C229.335 25.0824 229.768 24.8131 230.13 24.4631C230.834 23.4875 231.168 22.2926 231.07 21.0931V8.36316C231.122 7.41021 230.847 6.46797 230.29 5.69312C229.96 5.32403 229.543 5.04435 229.076 4.88C228.609 4.71566 228.108 4.67204 227.62 4.75317H225.53V25.4531Z" fill="white"/>
<path d="M240.97 0.733154H253.16V4.63318H245.07V13.0931H252.21V16.7931H245.07V25.5831H253.28V29.4832H240.96V0.733154H240.97Z" fill="white"/>
<path d="M262.32 0.733154L269.18 18.8031V0.733154H273.29V29.4731H269.18L262.32 11.4031V29.4731H258.21V0.733154H262.32Z" fill="white"/>
<path d="M291.88 0.733154V4.63318H286.79V29.4731H282.68V4.63318H277.59V0.733154H291.88Z" fill="white"/>
<path d="M296.19 0.733154H308.38V4.63318H300.29V13.0931H307.43V16.7931H300.29V25.5831H308.5V29.4832H296.18V0.733154H296.19Z" fill="white"/>
<path d="M329.58 0.733154C331.3 0.733154 333.77 0.813125 335.58 2.45312C337.67 4.38312 337.8 7.42308 337.8 8.65308V21.3431C337.979 23.4669 337.314 25.5757 335.95 27.2131C335.2 27.9781 334.296 28.5751 333.298 28.9647C332.299 29.3543 331.23 29.5276 330.16 29.4731H324.04V0.733154H329.58ZM328.14 25.4531H329.99C330.492 25.4919 330.997 25.4237 331.471 25.2531C331.945 25.0824 332.378 24.8131 332.74 24.4631C333.444 23.4875 333.778 22.2926 333.68 21.0931V8.36316C333.732 7.41021 333.457 6.46797 332.9 5.69312C332.57 5.32403 332.153 5.04435 331.686 4.88C331.219 4.71566 330.718 4.67204 330.23 4.75317H328.14V25.4531Z" fill="white"/>
<path d="M343.41 8.28308C343.41 6.10308 343.57 4.01309 345.55 2.16309C346.962 0.968649 348.751 0.313232 350.6 0.313232C352.449 0.313232 354.238 0.968649 355.65 2.16309C357.62 4.01309 357.79 6.10308 357.79 8.28308V21.9131C357.79 24.0931 357.63 26.1831 355.65 28.0331C354.238 29.2275 352.449 29.8831 350.6 29.8831C348.751 29.8831 346.962 29.2275 345.55 28.0331C343.58 26.1831 343.41 24.0931 343.41 21.9131V8.28308ZM353.68 7.6731C353.724 7.21912 353.67 6.761 353.521 6.32971C353.373 5.89842 353.134 5.504 352.82 5.1731C352.201 4.64388 351.414 4.35315 350.6 4.35315C349.786 4.35315 348.999 4.64388 348.38 5.1731C348.066 5.504 347.827 5.89842 347.679 6.32971C347.53 6.761 347.476 7.21912 347.52 7.6731V22.5331C347.476 22.9871 347.53 23.4452 347.679 23.8765C347.827 24.3078 348.066 24.7022 348.38 25.0331C348.999 25.5623 349.786 25.8531 350.6 25.8531C351.414 25.8531 352.201 25.5623 352.82 25.0331C353.134 24.7022 353.373 24.3078 353.521 23.8765C353.67 23.4452 353.724 22.9871 353.68 22.5331V7.6731Z" fill="white"/>
<path d="M374 8.28308C374 6.10308 374.16 4.01309 376.14 2.16309C377.552 0.968649 379.341 0.313232 381.19 0.313232C383.039 0.313232 384.828 0.968649 386.24 2.16309C388.21 4.01309 388.38 6.10308 388.38 8.28308V21.9131C388.496 23.2351 388.269 24.5648 387.72 25.7731L390.31 27.8231L388.22 30.3732L385.67 28.3632C385.07 28.9143 384.362 29.3342 383.59 29.5959C382.819 29.8577 382.001 29.9555 381.19 29.8832C379.334 29.9239 377.531 29.2632 376.14 28.0331C374.17 26.1831 374 24.0931 374 21.9131V8.28308ZM380.33 24.1332L382.42 21.5831L384.27 23.0631V7.66309C384.314 7.20911 384.26 6.75099 384.111 6.3197C383.963 5.88841 383.724 5.49399 383.41 5.16309C382.791 4.63387 382.004 4.34314 381.19 4.34314C380.376 4.34314 379.589 4.63387 378.97 5.16309C378.656 5.49399 378.417 5.88841 378.269 6.3197C378.12 6.75099 378.066 7.20911 378.11 7.66309V22.5231C378.066 22.9771 378.12 23.4352 378.269 23.8665C378.417 24.2977 378.656 24.6922 378.97 25.0231C379.267 25.2998 379.617 25.5148 379.998 25.6555C380.379 25.7963 380.784 25.8601 381.19 25.8431C381.566 25.8518 381.941 25.7977 382.3 25.6831L380.33 24.1332Z" fill="white"/>
<path d="M398.93 0.733154V22.5331C398.93 24.5031 399.87 25.8632 401.68 25.8632C403.49 25.8632 404.43 24.5131 404.43 22.5331V0.733154H408.54V21.9231C408.54 28.2431 404.76 29.8932 401.68 29.8932C398.6 29.8932 394.82 28.2531 394.82 21.9231V0.733154H398.93Z" fill="white"/>
<path d="M414.49 0.733154H426.68V4.63318H418.59V13.0931H425.73V16.7931H418.59V25.5831H426.8V29.4832H414.48V0.733154H414.49Z" fill="white"/>
<path d="M442.33 0.733154H454.52V4.63318H446.43V13.0931H453.57V16.7931H446.43V25.5831H454.64V29.4832H442.32V0.733154H442.33Z" fill="white"/>
<path d="M469.06 7.91303C469.119 6.98355 468.873 6.06017 468.36 5.28302C468.097 4.96509 467.762 4.71413 467.383 4.55072C467.004 4.38731 466.592 4.31618 466.18 4.34308C465.81 4.32947 465.44 4.39158 465.095 4.5257C464.749 4.65982 464.434 4.86316 464.17 5.12311C463.517 5.94905 463.209 6.9952 463.31 8.04303C463.269 9.08313 463.496 10.1163 463.97 11.043C464.451 11.654 465.112 12.0982 465.86 12.313L468.36 13.2131C469.835 13.6178 471.144 14.4789 472.1 15.673C473.055 17.1451 473.488 18.8954 473.33 20.6431V21.6331C473.33 24.5531 472.55 26.7631 471.36 27.9931C470.638 28.6434 469.794 29.145 468.878 29.4693C467.962 29.7936 466.991 29.9342 466.02 29.8831C464.932 29.956 463.842 29.7669 462.841 29.332C461.841 28.897 460.959 28.2288 460.27 27.3831C459.379 25.9248 458.924 24.2416 458.96 22.533V21.5931H463.07V22.3731C463.022 23.2708 463.252 24.1615 463.73 24.923C464.011 25.24 464.361 25.4891 464.752 25.6519C465.144 25.8147 465.567 25.8869 465.99 25.8631C466.472 25.9089 466.959 25.8394 467.409 25.6603C467.859 25.4813 468.261 25.1977 468.58 24.8331C469.097 23.9847 469.329 22.9928 469.24 22.0031V20.933C469.309 19.9035 469.079 18.876 468.58 17.9731C468.059 17.3692 467.375 16.9282 466.61 16.7031L463.61 15.6331C462.781 15.4163 462.011 15.0161 461.357 14.4623C460.702 13.9085 460.181 13.2151 459.83 12.433C459.337 11.0939 459.126 9.66755 459.21 8.2431V7.42304C459.184 6.43412 459.361 5.45043 459.729 4.53217C460.097 3.6139 460.648 2.78047 461.35 2.08307C462.019 1.47277 462.804 1.00196 463.657 0.698059C464.51 0.39416 465.416 0.263243 466.32 0.31305C470.43 0.31305 473.18 2.9831 473.18 7.7431V8.68304H469.07V7.91205L469.06 7.91303Z" fill="white"/>
<path d="M490.28 0.733154V4.63318H485.19V29.4731H481.08V4.63318H476V0.733154H490.28Z" fill="white"/>
<path d="M494.59 0.733154H506.78V4.63318H498.69V13.0931H505.83V16.7931H498.69V25.5831H506.9V29.4832H494.58V0.733154H494.59Z" fill="white"/>
<path d="M521.74 0.733154V21.3431C521.74 23.3931 521.66 26.0231 519.65 28.0331C518.95 28.6907 518.121 29.1951 517.215 29.5137C516.31 29.8322 515.347 29.9581 514.39 29.8832C513.359 29.9157 512.333 29.7107 511.394 29.2842C510.454 28.8577 509.625 28.2209 508.97 27.4231L512.13 24.7532C512.391 25.1143 512.738 25.4048 513.14 25.5985C513.541 25.7923 513.985 25.8832 514.43 25.8632C514.89 25.8975 515.352 25.8177 515.774 25.6311C516.196 25.4445 516.566 25.1566 516.85 24.7931C517.418 23.9291 517.691 22.9051 517.63 21.8732V0.723145H521.74V0.733154Z" fill="white"/>
<path d="M536.68 29.4731L535.33 23.3131H530.07L528.71 29.4731H524.6L530.88 0.733154H534.49L540.77 29.4731H536.68ZM532.62 8.73315L530.48 19.6531H534.83L532.62 8.73315Z" fill="white"/>
<path d="M567.93 0.733154V4.63318H562.84V29.4731H558.73V4.63318H553.64V0.733154H567.93Z" fill="white"/>
<path d="M572.24 0.733154H584.44V4.63318H576.35V13.0931H583.49V16.7931H576.35V25.5831H584.56V29.4832H572.24V0.733154Z" fill="white"/>
<path d="M612.72 0.733154V4.63318H607.63V29.4731H603.52V4.63318H598.43V0.733154H612.72Z" fill="white"/>
<path d="M622.41 0.733184C624.5 0.733184 627.54 0.613194 629.47 2.99319C630.535 4.44016 631.071 6.2085 630.99 8.0032V10.1831C631.018 11.8319 630.481 13.4408 629.47 14.7432C628.867 15.3983 628.121 15.9049 627.29 16.2232L631.81 29.4832H627.54L623.56 17.0832H621.14V29.4832H617.03V0.743194H622.41V0.733184ZM621.14 13.3732H623.48C623.946 13.3933 624.412 13.3205 624.849 13.1591C625.287 12.9977 625.688 12.7509 626.03 12.4331C626.369 12.1012 626.624 11.693 626.774 11.2425C626.924 10.7919 626.963 10.3122 626.89 9.84317V7.79312C626.916 6.82987 626.58 5.89177 625.95 5.16312C625.584 4.85579 625.156 4.63075 624.695 4.50308C624.235 4.37541 623.752 4.34811 623.28 4.42313H621.14V13.3732Z" fill="white"/>
<path d="M645.94 29.4731L644.59 23.3131H639.33L637.97 29.4731H633.86L640.14 0.733154H643.75L650.03 29.4731H645.94ZM641.88 8.73315L639.74 19.6531H644.09L641.88 8.73315Z" fill="white"/>
<path d="M659.66 29.4731H656.05L649.97 0.733154H654.49L657.82 20.6031H657.99L661.44 0.733154H665.75L659.66 29.4731Z" fill="white"/>
<path d="M677.72 29.4731L676.37 23.3131H671.11L669.75 29.4731H665.64L671.92 0.733154H675.53L681.81 29.4731H677.72ZM673.66 8.73315L671.52 19.6531H675.87L673.66 8.73315Z" fill="white"/>
<path d="M689.83 0.733154L696.69 18.8031V0.733154H700.8V29.4731H696.69L689.83 11.4031V29.4731H685.72V0.733154H689.83Z" fill="white"/>
<path d="M712.29 0.733154C714.01 0.733154 716.48 0.813125 718.29 2.45312C720.38 4.38312 720.51 7.42308 720.51 8.65308V21.3431C720.689 23.4669 720.024 25.5757 718.66 27.2131C717.91 27.9781 717.006 28.5751 716.008 28.9647C715.009 29.3543 713.94 29.5276 712.87 29.4731H706.75V0.733154H712.29ZM710.86 25.4531H712.71C713.212 25.4919 713.717 25.4237 714.191 25.2531C714.665 25.0824 715.098 24.8131 715.46 24.4631C716.164 23.4875 716.498 22.2926 716.4 21.0931V8.36316C716.452 7.41021 716.177 6.46797 715.62 5.69312C715.29 5.32403 714.873 5.04435 714.406 4.88C713.939 4.71566 713.438 4.67204 712.95 4.75317H710.86V25.4531Z" fill="white"/>
<path d="M726.13 8.28308C726.13 6.10308 726.29 4.01309 728.26 2.16309C729.672 0.968649 731.461 0.313232 733.31 0.313232C735.159 0.313232 736.948 0.968649 738.36 2.16309C740.33 4.01309 740.49 6.10308 740.49 8.28308V21.9131C740.49 24.0931 740.33 26.1831 738.36 28.0331C736.948 29.2275 735.159 29.8831 733.31 29.8831C731.461 29.8831 729.672 29.2275 728.26 28.0331C726.29 26.1831 726.13 24.0931 726.13 21.9131V8.28308ZM736.4 7.6731C736.444 7.21912 736.39 6.761 736.241 6.32971C736.093 5.89842 735.854 5.504 735.54 5.1731C734.921 4.64388 734.134 4.35315 733.32 4.35315C732.506 4.35315 731.719 4.64388 731.1 5.1731C730.786 5.504 730.547 5.89842 730.399 6.32971C730.25 6.761 730.196 7.21912 730.24 7.6731V22.5331C730.196 22.9871 730.25 23.4452 730.399 23.8765C730.547 24.3078 730.786 24.7022 731.1 25.0331C731.719 25.5623 732.506 25.8531 733.32 25.8531C734.134 25.8531 734.921 25.5623 735.54 25.0331C735.854 24.7022 736.093 24.3078 736.241 23.8765C736.39 23.4452 736.444 22.9871 736.4 22.5331V7.6731Z" fill="white"/>
<path d="M766.9 29.4731L765.55 23.3131H760.29L758.93 29.4731H754.82L761.1 0.733154H764.71L770.99 29.4731H766.9ZM762.84 8.73315L760.7 19.6531H765.05L762.84 8.73315Z" fill="white"/>
<path d="M785.34 0.733154V4.63318H780.25V29.4731H776.14V4.63318H771.05V0.733154H785.34Z" fill="white"/>
<path d="M793.76 0.733154V22.5331C793.76 24.5031 794.7 25.8632 796.51 25.8632C798.32 25.8632 799.26 24.5131 799.26 22.5331V0.733154H803.37V21.9231C803.37 28.2431 799.59 29.8932 796.51 29.8932C793.43 29.8932 789.65 28.2531 789.65 21.9231V0.733154H793.76Z" fill="white"/>
<path d="M818.31 29.4731L816.96 23.3131H811.7L810.34 29.4731H806.23L812.51 0.733154H816.12L822.4 29.4731H818.31ZM814.24 8.73315L812.1 19.6531H816.45L814.24 8.73315Z" fill="white"/>
<path d="M830.42 0.733154V25.5731H839.12V29.4731H826.31V0.733154H830.42Z" fill="white"/>
<path d="M844.05 0.733154H848.16L853.83 16.5831H853.99L859.37 0.733154H863.48V29.4731H859.37V11.4932H859.16L854.85 24.4731H852.67L848.36 11.4932H848.15V29.4731H844.04V0.733154H844.05Z" fill="white"/>
<path d="M869.43 0.733154H881.63V4.63318H873.54V13.0931H880.68V16.7931H873.54V25.5831H881.75V29.4832H869.43V0.733154Z" fill="white"/>
<path d="M890.78 0.733154L897.64 18.8031V0.733154H901.75V29.4731H897.64L890.78 11.4031V29.4731H886.67V0.733154H890.78Z" fill="white"/>
<path d="M920.34 0.733154V4.63318H915.25V29.4731H911.14V4.63318H906.05V0.733154H920.34Z" fill="white"/>
<path d="M924.66 0.733154H936.86V4.63318H928.77V13.0931H935.92V16.7931H928.77V25.5831H936.98V29.4832H924.66V0.733154Z" fill="white"/>
<path d="M946.01 24.9531V29.4731L941.49 33.5831V24.9631H946.01V24.9531Z" fill="white"/>
<path d="M0.869995 57.7231H13.06V61.6232H4.97V70.0831H12.11V73.7831H4.97V82.5731H13.18V86.4731H0.859985V57.7231H0.869995Z" fill="white"/>
<path d="M22.22 57.7231V79.5231C22.22 81.4931 23.16 82.8531 24.97 82.8531C26.78 82.8531 27.72 81.5031 27.72 79.5231V57.7231H31.83V78.9131C31.83 85.2331 28.05 86.8832 24.97 86.8832C21.89 86.8832 18.11 85.2431 18.11 78.9131V57.7231H22.22Z" fill="white"/>
<path d="M56.02 86.4631H52.41L46.33 57.7231H50.85L54.18 77.5931H54.34L57.79 57.7231H62.1L56.02 86.4631Z" fill="white"/>
<path d="M65.13 65.2731C65.13 63.0931 65.29 61.0031 67.27 59.1531C68.6816 57.9586 70.4709 57.3032 72.32 57.3032C74.1691 57.3032 75.9584 57.9586 77.37 59.1531C79.34 61.0031 79.51 63.0931 79.51 65.2731V78.9031C79.51 81.0831 79.35 83.1731 77.37 85.0231C75.9584 86.2175 74.1691 86.873 72.32 86.873C70.4709 86.873 68.6816 86.2175 67.27 85.0231C65.3 83.1731 65.13 81.0831 65.13 78.9031V65.2731ZM75.4 64.6631C75.4439 64.2091 75.3898 63.751 75.2415 63.3197C75.0931 62.8884 74.8539 62.494 74.54 62.1631C73.9214 61.6339 73.1341 61.3431 72.32 61.3431C71.5059 61.3431 70.7186 61.6339 70.1 62.1631C69.7861 62.494 69.5469 62.8884 69.3986 63.3197C69.2502 63.751 69.1961 64.2091 69.24 64.6631V79.5231C69.1961 79.9771 69.2502 80.4352 69.3986 80.8665C69.5469 81.2977 69.7861 81.6922 70.1 82.0231C70.7186 82.5523 71.5059 82.8431 72.32 82.8431C73.1341 82.8431 73.9214 82.5523 74.54 82.0231C74.8539 81.6922 75.0931 81.2977 75.2415 80.8665C75.3898 80.4352 75.4439 79.9771 75.4 79.5231V64.6631Z" fill="white"/>
<path d="M89.4 57.7231V79.5231C89.4 81.4931 90.34 82.8531 92.15 82.8531C93.96 82.8531 94.9 81.5031 94.9 79.5231V57.7231H99.01V78.9131C99.01 85.2331 95.23 86.8832 92.15 86.8832C89.07 86.8832 85.29 85.2431 85.29 78.9131V57.7231H89.4Z" fill="white"/>
<path d="M128.2 57.7231V61.6232H123.11V86.4631H119V61.6232H113.91V57.7231H128.2Z" fill="white"/>
<path d="M132.51 57.7231H144.7V61.6232H136.61V70.0831H143.75V73.7831H136.61V82.5731H144.82V86.4731H132.5V57.7231H132.51Z" fill="white"/>
<path d="M160.35 57.7231H172.54V61.6232H164.45V70.0831H171.59V73.7831H164.45V82.5731H172.66V86.4731H160.34V57.7231H160.35Z" fill="white"/>
<path d="M181.7 57.7231L188.56 75.7931V57.7231H192.67V86.4631H188.56L181.7 68.3932V86.4631H177.59V57.7231H181.7Z" fill="white"/>
<path d="M211.26 57.7231V61.6232H206.17V86.4631H202.06V61.6232H196.97V57.7231H211.26Z" fill="white"/>
<path d="M220.95 57.7232C223.04 57.7232 226.08 57.6032 228.01 59.9832C229.075 61.4302 229.611 63.1985 229.53 64.9932V67.1731C229.558 68.8219 229.021 70.4308 228.01 71.7332C227.407 72.3883 226.661 72.8949 225.83 73.2132L230.35 86.4732H226.08L222.1 74.0732H219.68V86.4732H215.57V57.7332H220.95V57.7232ZM219.68 70.3732H222.02C222.486 70.3933 222.952 70.3205 223.389 70.1591C223.827 69.9977 224.228 69.7509 224.57 69.4331C224.909 69.1012 225.164 68.693 225.314 68.2425C225.464 67.7919 225.503 67.3122 225.43 66.8432V64.7931C225.456 63.8299 225.121 62.8917 224.49 62.1631C224.124 61.8558 223.696 61.6307 223.235 61.5031C222.775 61.3754 222.292 61.3481 221.82 61.4231H219.68V70.3732Z" fill="white"/>
<path d="M234.87 57.7231H247.06V61.6232H238.97V70.0831H246.11V73.7831H238.97V82.5731H247.18V86.4731H234.86V57.7231H234.87Z" fill="white"/>
<path d="M263.16 84.2432C262.708 85.0664 262.022 85.7378 261.19 86.1731C260.199 86.6719 259.099 86.9127 257.99 86.8732C257.122 86.9137 256.257 86.7491 255.465 86.3929C254.673 86.0368 253.976 85.499 253.43 84.8231C252.388 83.3668 251.866 81.602 251.95 79.8131V65.2731C251.796 63.4178 252.272 61.565 253.3 60.0132C253.977 59.1306 254.857 58.4238 255.865 57.9521C256.872 57.4805 257.978 57.2579 259.09 57.3031C260.964 57.2272 262.792 57.8917 264.18 59.1531C264.885 59.9056 265.433 60.7912 265.792 61.7578C266.15 62.7245 266.313 63.7529 266.27 64.7831V65.9331H262.16V64.4932C262.192 64.0677 262.135 63.6402 261.994 63.2375C261.853 62.8349 261.63 62.4657 261.34 62.1531C261.044 61.874 260.695 61.6576 260.314 61.5167C259.932 61.3758 259.526 61.3134 259.12 61.3331C258.684 61.3198 258.25 61.4055 257.852 61.5839C257.453 61.7623 257.101 62.0288 256.82 62.3632C256.192 63.2447 255.914 64.3281 256.04 65.4031V78.8732C255.956 79.9089 256.201 80.9449 256.74 81.8331C257.02 82.1677 257.373 82.4342 257.772 82.6127C258.17 82.7911 258.604 82.8767 259.04 82.8632C259.496 82.855 259.945 82.748 260.356 82.5494C260.767 82.3509 261.13 82.0655 261.42 81.7131C262.023 80.6986 262.282 79.5168 262.16 78.3431V74.4832H258.67V70.7831H266.27V86.4731H264.22L263.16 84.2432Z" fill="white"/>
<path d="M282.09 86.4631L280.74 80.3031H275.48L274.13 86.4631H270.02L276.3 57.7231H279.91L286.19 86.4631H282.09ZM278.03 65.7332L275.89 76.6531H280.24L278.03 65.7332Z" fill="white"/>
<path d="M295.48 57.7232C297.57 57.7232 300.61 57.6032 302.54 59.9832C303.605 61.4302 304.141 63.1985 304.06 64.9932V67.1731C304.088 68.8219 303.551 70.4308 302.54 71.7332C301.937 72.3883 301.191 72.8949 300.36 73.2132L304.88 86.4732H300.61L296.63 74.0732H294.21V86.4732H290.1V57.7332H295.48V57.7232ZM294.2 70.3732H296.54C297.006 70.3933 297.472 70.3205 297.909 70.1591C298.347 69.9977 298.748 69.7509 299.09 69.4331C299.429 69.1012 299.684 68.693 299.834 68.2425C299.984 67.7919 300.023 67.3122 299.95 66.8432V64.7931C299.976 63.8299 299.641 62.8917 299.01 62.1631C298.644 61.8558 298.216 61.6307 297.755 61.5031C297.295 61.3754 296.812 61.3481 296.34 61.4231H294.2V70.3732Z" fill="white"/>
<path d="M319.82 65.2731C319.82 63.0931 319.98 61.0031 321.96 59.1531C323.372 57.9586 325.161 57.3032 327.01 57.3032C328.859 57.3032 330.648 57.9586 332.06 59.1531C334.03 61.0031 334.2 63.0931 334.2 65.2731V78.9031C334.2 81.0831 334.04 83.1731 332.06 85.0231C330.648 86.2175 328.859 86.873 327.01 86.873C325.161 86.873 323.372 86.2175 321.96 85.0231C319.99 83.1731 319.82 81.0831 319.82 78.9031V65.2731ZM330.09 64.6631C330.134 64.2091 330.08 63.751 329.931 63.3197C329.783 62.8884 329.544 62.494 329.23 62.1631C328.611 61.6339 327.824 61.3431 327.01 61.3431C326.196 61.3431 325.409 61.6339 324.79 62.1631C324.476 62.494 324.237 62.8884 324.089 63.3197C323.94 63.751 323.886 64.2091 323.93 64.6631V79.5231C323.886 79.9771 323.94 80.4352 324.089 80.8665C324.237 81.2977 324.476 81.6922 324.79 82.0231C325.409 82.5523 326.196 82.8431 327.01 82.8431C327.824 82.8431 328.611 82.5523 329.23 82.0231C329.544 81.6922 329.783 81.2977 329.931 80.8665C330.08 80.4352 330.134 79.9771 330.09 79.5231V64.6631Z" fill="white"/>
<path d="M350.58 57.7231H356.7C358.47 57.7231 360.64 57.8032 362.45 59.6132C364.34 61.5432 364.54 64.0431 364.54 66.1831V67.0032C364.677 69.0969 364.048 71.169 362.77 72.8331C362.052 73.6074 361.171 74.212 360.19 74.6029C359.209 74.9938 358.154 75.1613 357.1 75.0931H354.68V86.4631H350.57V57.7231H350.58ZM354.68 71.3932H356.9C357.409 71.4248 357.918 71.3454 358.393 71.1606C358.868 70.9759 359.297 70.6901 359.65 70.3231C359.977 69.9101 360.215 69.4341 360.349 68.9247C360.484 68.4153 360.511 67.8837 360.43 67.3632V65.4731C360.517 64.87 360.462 64.2548 360.269 63.6766C360.077 63.0985 359.752 62.5734 359.32 62.1432C358.379 61.5158 357.241 61.2527 356.12 61.4031H354.68V71.3932Z" fill="#001E1F"/>
<path d="M377.64 86.4631L376.29 80.3031H371.03L369.68 86.4631H365.57L371.85 57.7231H375.46L381.74 86.4631H377.64ZM373.57 65.7332L371.43 76.6531H375.78L373.57 65.7332Z" fill="#001E1F"/>
<path d="M394.43 64.903C394.489 63.9735 394.243 63.0502 393.73 62.273C393.467 61.9551 393.132 61.7041 392.753 61.5407C392.374 61.3773 391.962 61.3062 391.55 61.3331C391.179 61.3195 390.81 61.3816 390.465 61.5157C390.119 61.6498 389.804 61.8532 389.54 62.1131C388.887 62.939 388.579 63.9852 388.68 65.033C388.639 66.0731 388.866 67.1063 389.34 68.033C389.821 68.644 390.482 69.0882 391.23 69.303L393.73 70.2031C395.205 70.6078 396.514 71.4689 397.47 72.663C398.425 74.1351 398.858 75.8854 398.7 77.6331V78.6231C398.7 81.5431 397.92 83.7531 396.73 84.9831C396.008 85.6334 395.164 86.135 394.248 86.4593C393.332 86.7836 392.361 86.9242 391.39 86.8731C390.302 86.9459 389.212 86.7569 388.211 86.322C387.211 85.887 386.329 85.2188 385.64 84.3731C384.749 82.9148 384.294 81.2316 384.33 79.523V78.5831H388.44V79.3631C388.392 80.2608 388.622 81.1515 389.1 81.913C389.381 82.23 389.731 82.4792 390.122 82.642C390.514 82.8048 390.937 82.8769 391.36 82.8531C391.842 82.8989 392.329 82.8294 392.779 82.6503C393.229 82.4712 393.631 82.1877 393.95 81.8231C394.467 80.9747 394.699 79.9828 394.61 78.9931V77.923C394.679 76.8935 394.449 75.866 393.95 74.9631C393.429 74.3592 392.745 73.9182 391.98 73.6931L388.98 72.6231C388.151 72.4063 387.381 72.0061 386.727 71.4523C386.072 70.8985 385.551 70.2051 385.2 69.423C384.707 68.0839 384.496 66.6575 384.58 65.2331V64.413C384.554 63.4241 384.731 62.4404 385.099 61.5222C385.467 60.6039 386.018 59.7705 386.72 59.0731C387.389 58.4628 388.174 57.9919 389.027 57.688C389.88 57.3842 390.786 57.2532 391.69 57.303C395.8 57.303 398.55 59.9731 398.55 64.7331V65.673H394.44V64.902L394.43 64.903Z" fill="#001E1F"/>
<path d="M413.52 64.903C413.579 63.9735 413.333 63.0502 412.82 62.273C412.557 61.9551 412.222 61.7041 411.843 61.5407C411.464 61.3773 411.052 61.3062 410.64 61.3331C410.27 61.3195 409.9 61.3816 409.555 61.5157C409.209 61.6498 408.894 61.8532 408.63 62.1131C407.977 62.939 407.669 63.9852 407.77 65.033C407.729 66.0731 407.956 67.1063 408.43 68.033C408.911 68.644 409.572 69.0882 410.32 69.303L412.82 70.2031C414.295 70.6078 415.604 71.4689 416.56 72.663C417.515 74.1351 417.948 75.8854 417.79 77.6331V78.6231C417.79 81.5431 417.01 83.7531 415.82 84.9831C415.098 85.6334 414.254 86.135 413.338 86.4593C412.422 86.7836 411.451 86.9242 410.48 86.8731C409.392 86.9459 408.302 86.7569 407.301 86.322C406.301 85.887 405.419 85.2188 404.73 84.3731C403.839 82.9148 403.384 81.2316 403.42 79.523V78.5831H407.53V79.3631C407.482 80.2608 407.712 81.1515 408.19 81.913C408.471 82.23 408.821 82.4792 409.212 82.642C409.604 82.8048 410.027 82.8769 410.45 82.8531C410.932 82.8989 411.419 82.8294 411.869 82.6503C412.32 82.4712 412.721 82.1877 413.04 81.8231C413.557 80.9747 413.789 79.9828 413.7 78.9931V77.923C413.769 76.8935 413.539 75.866 413.04 74.9631C412.519 74.3592 411.835 73.9182 411.07 73.6931L408.07 72.6231C407.241 72.4063 406.471 72.0061 405.817 71.4523C405.162 70.8985 404.641 70.2051 404.29 69.423C403.797 68.0839 403.586 66.6575 403.67 65.2331V64.413C403.644 63.4241 403.821 62.4404 404.189 61.5222C404.557 60.6039 405.108 59.7705 405.81 59.0731C406.479 58.4628 407.264 57.9919 408.117 57.688C408.97 57.3842 409.876 57.2532 410.78 57.303C414.89 57.303 417.64 59.9731 417.64 64.7331V65.673H413.53V64.902L413.52 64.903Z" fill="#001E1F"/>
<path d="M422.97 65.2731C422.97 63.0931 423.13 61.0031 425.11 59.1531C426.522 57.9586 428.311 57.3032 430.16 57.3032C432.009 57.3032 433.798 57.9586 435.21 59.1531C437.18 61.0031 437.35 63.0931 437.35 65.2731V78.9031C437.35 81.0831 437.19 83.1731 435.21 85.0231C433.798 86.2175 432.009 86.873 430.16 86.873C428.311 86.873 426.522 86.2175 425.11 85.0231C423.14 83.1731 422.97 81.0831 422.97 78.9031V65.2731ZM433.23 64.6631C433.274 64.2091 433.22 63.751 433.071 63.3197C432.923 62.8884 432.684 62.494 432.37 62.1631C431.751 61.6339 430.964 61.3431 430.15 61.3431C429.336 61.3431 428.549 61.6339 427.93 62.1631C427.616 62.494 427.377 62.8884 427.229 63.3197C427.08 63.751 427.026 64.2091 427.07 64.6631V79.5231C427.026 79.9771 427.08 80.4352 427.229 80.8665C427.377 81.2977 427.616 81.6922 427.93 82.0231C428.549 82.5523 429.336 82.8431 430.15 82.8431C430.964 82.8431 431.751 82.5523 432.37 82.0231C432.684 81.6922 432.923 81.2977 433.071 80.8665C433.22 80.4352 433.274 79.9771 433.23 79.5231V64.6631Z" fill="#001E1F"/>
<path d="M463.74 86.4631L462.39 80.3031H457.13L455.78 86.4631H451.67L457.95 57.7231H461.56L467.84 86.4631H463.74ZM459.67 65.7332L457.53 76.6531H461.88L459.67 65.7332Z" fill="#001E1F"/>
<path d="M482.34 57.7231H488.46C490.23 57.7231 492.4 57.8032 494.21 59.6132C496.1 61.5432 496.3 64.0431 496.3 66.1831V67.0032C496.437 69.0969 495.808 71.169 494.53 72.8331C493.812 73.6074 492.931 74.212 491.95 74.6029C490.969 74.9938 489.914 75.1613 488.86 75.0931H486.44V86.4631H482.33V57.7231H482.34ZM486.44 71.3932H488.66C489.169 71.4248 489.678 71.3454 490.153 71.1606C490.628 70.9759 491.057 70.6901 491.41 70.3231C491.737 69.9101 491.975 69.4341 492.109 68.9247C492.243 68.4153 492.271 67.8837 492.19 67.3632V65.4731C492.277 64.87 492.222 64.2548 492.029 63.6766C491.837 63.0985 491.512 62.5734 491.08 62.1432C490.139 61.5158 489.001 61.2527 487.88 61.4031H486.44V71.3932Z" fill="#001E1F"/>
<path d="M509.4 86.4631L508.04 80.3031H502.78L501.43 86.4631H497.32L503.6 57.7231H507.21L513.49 86.4631H509.4ZM505.33 65.7332L503.19 76.6531H507.54L505.33 65.7332Z" fill="#001E1F"/>
<path d="M526.19 64.9031C526.249 63.9736 526.003 63.0502 525.49 62.2731C525.227 61.9551 524.892 61.7042 524.513 61.5408C524.134 61.3773 523.722 61.3062 523.31 61.3331C522.939 61.3187 522.57 61.3805 522.224 61.5146C521.878 61.6488 521.564 61.8525 521.3 62.1131C520.647 62.9391 520.339 63.9852 520.44 65.0331C520.399 66.0732 520.626 67.1064 521.1 68.0331C521.581 68.644 522.242 69.0883 522.99 69.3031L525.49 70.2031C526.965 70.6079 528.274 71.4689 529.23 72.6631C530.185 74.1352 530.618 75.8855 530.46 77.6332V78.6232C530.46 81.5432 529.68 83.7531 528.49 84.9831C527.768 85.6334 526.924 86.135 526.008 86.4593C525.092 86.7836 524.121 86.9242 523.15 86.8732C522.062 86.946 520.972 86.757 519.971 86.322C518.971 85.887 518.089 85.2188 517.4 84.3732C516.509 82.9148 516.054 81.2317 516.09 79.5231V78.5831H520.2V79.3631C520.152 80.2609 520.382 81.1515 520.86 81.9131C521.141 82.23 521.491 82.4793 521.882 82.6421C522.274 82.8049 522.697 82.877 523.12 82.8531C523.602 82.899 524.089 82.8295 524.539 82.6504C524.989 82.4713 525.391 82.1877 525.71 81.8231C526.227 80.9747 526.459 79.9828 526.37 78.9931V77.9231C526.439 76.8935 526.209 75.866 525.71 74.9631C525.189 74.3592 524.505 73.9182 523.74 73.6931L520.74 72.6232C519.911 72.4063 519.141 72.0062 518.487 71.4524C517.832 70.8986 517.311 70.2051 516.96 69.4231C516.462 68.0852 516.251 66.6578 516.34 65.2331V64.4131C516.315 63.4252 516.491 62.4425 516.857 61.5246C517.223 60.6067 517.772 59.7727 518.47 59.0731C519.14 58.4635 519.924 57.9932 520.777 57.6893C521.631 57.3855 522.536 57.2541 523.44 57.3031C527.55 57.3031 530.3 59.9731 530.3 64.7331V65.6731H526.19V64.9021V64.9031Z" fill="#001E1F"/>
<path d="M545.28 64.903C545.339 63.9735 545.093 63.0502 544.58 62.273C544.317 61.9551 543.982 61.7041 543.603 61.5407C543.224 61.3773 542.812 61.3062 542.4 61.3331C542.03 61.3202 541.66 61.3827 541.315 61.5168C540.969 61.6509 540.655 61.8538 540.39 62.1131C539.737 62.939 539.429 63.9852 539.53 65.033C539.489 66.0731 539.716 67.1063 540.19 68.033C540.671 68.644 541.332 69.0882 542.08 69.303L544.58 70.2031C546.055 70.6078 547.364 71.4689 548.32 72.663C549.275 74.1351 549.708 75.8854 549.55 77.6331V78.6231C549.55 81.5431 548.77 83.7531 547.58 84.9831C546.858 85.6334 546.014 86.135 545.098 86.4593C544.182 86.7836 543.211 86.9242 542.24 86.8731C541.152 86.9459 540.061 86.7569 539.061 86.322C538.061 85.887 537.179 85.2188 536.49 84.3731C535.599 82.9148 535.144 81.2316 535.18 79.523V78.5831H539.29V79.3631C539.242 80.2608 539.472 81.1515 539.95 81.913C540.231 82.23 540.581 82.4792 540.972 82.642C541.364 82.8048 541.787 82.8769 542.21 82.8531C542.692 82.8989 543.179 82.8294 543.629 82.6503C544.079 82.4712 544.481 82.1877 544.8 81.8231C545.317 80.9747 545.549 79.9828 545.46 78.9931V77.923C545.529 76.8935 545.299 75.866 544.8 74.9631C544.279 74.3592 543.595 73.9182 542.83 73.6931L539.83 72.6231C539.001 72.4063 538.231 72.0061 537.577 71.4523C536.922 70.8985 536.401 70.2051 536.05 69.423C535.552 68.0851 535.341 66.6578 535.43 65.2331V64.413C535.404 63.4241 535.581 62.4404 535.949 61.5222C536.317 60.6039 536.868 59.7705 537.57 59.0731C538.239 58.4628 539.024 57.9919 539.877 57.688C540.73 57.3842 541.636 57.2532 542.54 57.303C546.65 57.303 549.4 59.9731 549.4 64.7331V65.673H545.29V64.902L545.28 64.903Z" fill="#001E1F"/>
<path d="M554.73 65.2731C554.73 63.0931 554.89 61.0031 556.86 59.1531C558.272 57.9586 560.061 57.3032 561.91 57.3032C563.759 57.3032 565.548 57.9586 566.96 59.1531C568.93 61.0031 569.09 63.0931 569.09 65.2731V78.9031C569.09 81.0831 568.93 83.1731 566.96 85.0231C565.548 86.2175 563.759 86.873 561.91 86.873C560.061 86.873 558.272 86.2175 556.86 85.0231C554.89 83.1731 554.73 81.0831 554.73 78.9031V65.2731ZM564.99 64.6631C565.034 64.2091 564.98 63.751 564.831 63.3197C564.683 62.8884 564.444 62.494 564.13 62.1631C563.511 61.6339 562.724 61.3431 561.91 61.3431C561.096 61.3431 560.309 61.6339 559.69 62.1631C559.376 62.494 559.137 62.8884 558.989 63.3197C558.84 63.751 558.786 64.2091 558.83 64.6631V79.5231C558.786 79.9771 558.84 80.4352 558.989 80.8665C559.137 81.2977 559.376 81.6922 559.69 82.0231C560.309 82.5523 561.096 82.8431 561.91 82.8431C562.724 82.8431 563.511 82.5523 564.13 82.0231C564.444 81.6922 564.683 81.2977 564.831 80.8665C564.98 80.4352 565.034 79.9771 564.99 79.5231V64.6631Z" fill="#001E1F"/>
<path d="M585.48 57.7231H591.6C593.37 57.7231 595.54 57.8032 597.35 59.6132C599.24 61.5432 599.44 64.0431 599.44 66.1831V67.0032C599.577 69.0969 598.948 71.169 597.67 72.8331C596.952 73.6074 596.071 74.212 595.09 74.6029C594.109 74.9938 593.054 75.1613 592 75.0931H589.58V86.4631H585.47V57.7231H585.48ZM589.59 71.3932H591.81C592.319 71.4248 592.828 71.3454 593.303 71.1606C593.778 70.9759 594.207 70.6901 594.56 70.3231C594.887 69.9101 595.125 69.4341 595.259 68.9247C595.394 68.4153 595.421 67.8837 595.34 67.3632V65.4731C595.427 64.87 595.372 64.2548 595.179 63.6766C594.987 63.0985 594.662 62.5734 594.23 62.1432C593.289 61.5158 592.151 61.2527 591.03 61.4031H589.59V71.3932Z" fill="white"/>
<path d="M612.54 86.4631L611.19 80.3031H605.93L604.57 86.4631H600.46L606.74 57.7231H610.35L616.63 86.4631H612.54ZM608.47 65.7332L606.33 76.6531H610.68L608.47 65.7332Z" fill="white"/>
<path d="M625.92 57.7232C628.01 57.7232 631.05 57.6032 632.98 59.9832C634.045 61.4302 634.581 63.1985 634.5 64.9932V67.1731C634.528 68.8219 633.991 70.4308 632.98 71.7332C632.377 72.3883 631.631 72.8949 630.8 73.2132L635.32 86.4732H631.05L627.07 74.0732H624.65V86.4732H620.54V57.7332H625.92V57.7232ZM624.65 70.3732H626.99C627.456 70.3933 627.922 70.3205 628.359 70.1591C628.797 69.9977 629.198 69.7509 629.54 69.4331C629.879 69.1012 630.134 68.693 630.284 68.2425C630.434 67.7919 630.473 67.3122 630.4 66.8432V64.7931C630.426 63.8299 630.091 62.8918 629.46 62.1631C629.094 61.8558 628.666 61.6307 628.205 61.5031C627.745 61.3754 627.262 61.3481 626.79 61.4231H624.66V70.3732H624.65Z" fill="white"/>
<path d="M649.45 86.4631L648.1 80.3031H642.84L641.48 86.4631H637.37L643.65 57.7231H647.26L653.54 86.4631H649.45ZM645.39 65.7332L643.25 76.6531H647.6L645.39 65.7332Z" fill="white"/>
<path d="M675.69 86.4631H672.08L666 57.7231H670.52L673.85 77.5931H674.02L677.47 57.7231H681.78L675.69 86.4631Z" fill="white"/>
<path d="M684.8 65.2731C684.8 63.0931 684.96 61.0031 686.93 59.1531C688.342 57.9586 690.131 57.3032 691.98 57.3032C693.829 57.3032 695.618 57.9586 697.03 59.1531C699 61.0031 699.16 63.0931 699.16 65.2731V78.9031C699.16 81.0831 699 83.1731 697.03 85.0231C695.618 86.2175 693.829 86.873 691.98 86.873C690.131 86.873 688.342 86.2175 686.93 85.0231C684.96 83.1731 684.8 81.0831 684.8 78.9031V65.2731ZM695.07 64.6631C695.114 64.2091 695.06 63.751 694.911 63.3197C694.763 62.8884 694.524 62.494 694.21 62.1631C693.591 61.6339 692.804 61.3431 691.99 61.3431C691.176 61.3431 690.389 61.6339 689.77 62.1631C689.456 62.494 689.217 62.8884 689.068 63.3197C688.92 63.751 688.866 64.2091 688.91 64.6631V79.5231C688.866 79.9771 688.92 80.4352 689.068 80.8665C689.217 81.2977 689.456 81.6922 689.77 82.0231C690.389 82.5523 691.176 82.8431 691.99 82.8431C692.804 82.8431 693.591 82.5523 694.21 82.0231C694.524 81.6922 694.763 81.2977 694.911 80.8665C695.06 80.4352 695.114 79.9771 695.07 79.5231V64.6631Z" fill="white"/>
<path d="M714.45 64.2532C714.447 63.5869 714.264 62.9337 713.92 62.3632C713.678 62.0285 713.357 61.7591 712.985 61.5793C712.613 61.3995 712.203 61.3149 711.79 61.3332C711.385 61.3166 710.982 61.3927 710.611 61.5556C710.24 61.7185 709.912 61.9638 709.65 62.2731C709.094 63.1062 708.847 64.1071 708.95 65.1032V79.2731C708.848 80.158 709.034 81.0523 709.48 81.8232C709.717 82.1528 710.032 82.4191 710.397 82.5987C710.761 82.7783 711.164 82.8657 711.57 82.8532C712.003 82.8734 712.436 82.7947 712.834 82.6232C713.233 82.4517 713.587 82.1918 713.87 81.8632C714.312 81.1668 714.516 80.3454 714.45 79.5231V78.4932H718.56V79.6832C718.675 81.5913 718.06 83.4717 716.84 84.9432C716.128 85.6225 715.281 86.1451 714.354 86.4775C713.428 86.8099 712.442 86.9447 711.46 86.8732C710.489 86.9285 709.518 86.7607 708.622 86.3829C707.726 86.005 706.928 85.427 706.29 84.6932C705.168 83.2166 704.653 81.3671 704.85 79.5231V64.6132C704.85 62.7232 705.1 60.5932 706.94 58.9832C708.254 57.8911 709.911 57.2964 711.62 57.3032C713.446 57.2968 715.212 57.9542 716.59 59.1531C717.8 60.4403 718.463 62.1467 718.44 63.9131V65.8832H714.46V64.2532H714.45Z" fill="white"/>
<path d="M723.89 57.7231H736.09V61.6232H728V70.0831H735.14V73.7831H728V82.5731H736.21V86.4731H723.89V57.7231ZM727.05 55.0931H724.42L726.76 50.7831H732.26L734.6 55.0931H731.97L729.51 52.7131L727.05 55.0931Z" fill="white"/>
<path d="M755.84 57.7231V86.4631H751.73V57.7231H755.84Z" fill="white"/>
<path d="M767.17 57.7232C769.26 57.7232 772.3 57.6032 774.23 59.9832C775.295 61.4302 775.831 63.1985 775.75 64.9932V67.1731C775.778 68.8219 775.241 70.4308 774.23 71.7332C773.627 72.3883 772.881 72.8949 772.05 73.2132L776.57 86.4732H772.3L768.32 74.0732H765.9V86.4732H761.79V57.7332H767.17V57.7232ZM765.9 70.3732H768.24C768.706 70.3933 769.172 70.3205 769.609 70.1591C770.047 69.9977 770.448 69.7509 770.79 69.4331C771.129 69.1012 771.384 68.693 771.534 68.2425C771.684 67.7919 771.723 67.3122 771.65 66.8432V64.7931C771.676 63.8299 771.341 62.8918 770.71 62.1631C770.344 61.8558 769.916 61.6307 769.455 61.5031C768.995 61.3754 768.512 61.3481 768.04 61.4231H765.9V70.3732Z" fill="white"/>
<path d="M797.22 57.7231C798.94 57.7231 801.41 57.8031 803.22 59.4431C805.31 61.3731 805.44 64.4132 805.44 65.6432V78.3331C805.619 80.4569 804.954 82.5657 803.59 84.2031C802.84 84.9681 801.936 85.5651 800.938 85.9547C799.94 86.3443 798.87 86.5176 797.8 86.4631H791.68V57.7231H797.22ZM795.79 82.4431H797.64C798.142 82.4818 798.647 82.4137 799.121 82.243C799.595 82.0724 800.028 81.8031 800.39 81.4531C801.094 80.4775 801.428 79.2825 801.33 78.0831V65.3531C801.382 64.4002 801.107 63.458 800.55 62.6831C800.22 62.314 799.803 62.0343 799.336 61.87C798.869 61.7056 798.368 61.662 797.88 61.7432H795.79V82.4431Z" fill="white"/>
<path d="M811.06 65.2731C811.06 63.0931 811.22 61.0031 813.19 59.1531C814.602 57.9586 816.391 57.3032 818.24 57.3032C820.089 57.3032 821.878 57.9586 823.29 59.1531C825.26 61.0031 825.42 63.0931 825.42 65.2731V78.9031C825.42 81.0831 825.26 83.1731 823.29 85.0231C821.878 86.2175 820.089 86.873 818.24 86.873C816.391 86.873 814.602 86.2175 813.19 85.0231C811.22 83.1731 811.06 81.0831 811.06 78.9031V65.2731ZM821.33 64.6631C821.374 64.2091 821.32 63.751 821.172 63.3197C821.023 62.8884 820.784 62.494 820.47 62.1631C819.851 61.6339 819.064 61.3431 818.25 61.3431C817.436 61.3431 816.649 61.6339 816.03 62.1631C815.716 62.494 815.477 62.8884 815.328 63.3197C815.18 63.751 815.126 64.2091 815.17 64.6631V79.5231C815.126 79.9771 815.18 80.4352 815.328 80.8665C815.477 81.2977 815.716 81.6922 816.03 82.0231C816.649 82.5523 817.436 82.8431 818.25 82.8431C819.064 82.8431 819.851 82.5523 820.47 82.0231C820.784 81.6922 821.023 81.2977 821.172 80.8665C821.32 80.4352 821.374 79.9771 821.33 79.5231V64.6631Z" fill="white"/>
<path d="M854.13 57.7231V60.8832L845.51 82.7731H853.93V86.4731H841.2V82.8632L849.62 61.4331H841.78V57.7332H854.13V57.7231Z" fill="white"/>
<path d="M859.47 57.7231H871.67V61.6232H863.58V70.0831H870.73V73.7831H863.58V82.5731H871.79V86.4731H859.47V57.7231Z" fill="white"/>
<path d="M882.1 57.7232C884.19 57.7232 887.23 57.6032 889.16 59.9832C890.225 61.4302 890.761 63.1985 890.68 64.9932V67.1731C890.708 68.8219 890.171 70.4308 889.16 71.7332C888.557 72.3883 887.811 72.8949 886.98 73.2132L891.5 86.4732H887.23L883.25 74.0732H880.83V86.4732H876.72V57.7332H882.1V57.7232ZM880.82 70.3732H883.16C883.626 70.3933 884.092 70.3205 884.529 70.1591C884.967 69.9977 885.368 69.7509 885.71 69.4331C886.049 69.1012 886.304 68.693 886.454 68.2425C886.604 67.7919 886.643 67.3122 886.57 66.8432V64.7931C886.596 63.8299 886.261 62.8918 885.63 62.1631C885.264 61.8558 884.836 61.6307 884.375 61.5031C883.915 61.3754 883.432 61.3481 882.96 61.4231H880.83V70.3732H880.82Z" fill="white"/>
<path d="M895.85 65.2731C895.85 63.0931 896.01 61.0031 897.98 59.1531C899.392 57.9586 901.181 57.3032 903.03 57.3032C904.879 57.3032 906.668 57.9586 908.08 59.1531C910.05 61.0031 910.21 63.0931 910.21 65.2731V78.9031C910.21 81.0831 910.05 83.1731 908.08 85.0231C906.668 86.2175 904.879 86.873 903.03 86.873C901.181 86.873 899.392 86.2175 897.98 85.0231C896.01 83.1731 895.85 81.0831 895.85 78.9031V65.2731ZM906.12 64.6631C906.164 64.2091 906.11 63.751 905.961 63.3197C905.813 62.8884 905.574 62.494 905.26 62.1631C904.641 61.6339 903.854 61.3431 903.04 61.3431C902.226 61.3431 901.439 61.6339 900.82 62.1631C900.506 62.494 900.267 62.8884 900.119 63.3197C899.97 63.751 899.916 64.2091 899.96 64.6631V79.5231C899.916 79.9771 899.97 80.4352 900.119 80.8665C900.267 81.2977 900.506 81.6922 900.82 82.0231C901.439 82.5523 902.226 82.8431 903.04 82.8431C903.854 82.8431 904.641 82.5523 905.26 82.0231C905.574 81.6922 905.813 81.2977 905.961 80.8665C906.11 80.4352 906.164 79.9771 906.12 79.5231V64.6631Z" fill="white"/>
<path d="M936.62 86.4631L935.27 80.3031H930.01L928.65 86.4631H924.54L930.82 57.7231H934.43L940.71 86.4631H936.62ZM932.56 65.7332L930.42 76.6531H934.77L932.56 65.7332Z" fill="white"/>
<path d="M943.44 65.2731C943.44 63.0931 943.6 61.0031 945.57 59.1531C946.982 57.9586 948.771 57.3032 950.62 57.3032C952.469 57.3032 954.258 57.9586 955.67 59.1531C957.64 61.0031 957.8 63.0931 957.8 65.2731V78.9031C957.8 81.0831 957.64 83.1731 955.67 85.0231C954.258 86.2175 952.469 86.873 950.62 86.873C948.771 86.873 946.982 86.2175 945.57 85.0231C943.6 83.1731 943.44 81.0831 943.44 78.9031V65.2731ZM953.7 64.6631C953.744 64.2091 953.69 63.751 953.542 63.3197C953.393 62.8884 953.154 62.494 952.84 62.1631C952.221 61.6339 951.434 61.3431 950.62 61.3431C949.806 61.3431 949.019 61.6339 948.4 62.1631C948.086 62.494 947.847 62.8884 947.698 63.3197C947.55 63.751 947.496 64.2091 947.54 64.6631V79.5231C947.496 79.9771 947.55 80.4352 947.698 80.8665C947.847 81.2977 948.086 81.6922 948.4 82.0231C949.019 82.5523 949.806 82.8431 950.62 82.8431C951.434 82.8431 952.221 82.5523 952.84 82.0231C953.154 81.6922 953.393 81.2977 953.542 80.8665C953.69 80.4352 953.744 79.9771 953.7 79.5231V64.6631Z" fill="white"/>
<path d="M978.3 57.7231L985.16 75.7931V57.7231H989.27V86.4631H985.16L978.3 68.3932V86.4631H974.19V57.7231H978.3Z" fill="white"/>
<path d="M994.8 55.0931L996.85 50.7831H1001.82L997.47 55.0931H994.8ZM999.32 57.7231V86.4631H995.21V57.7231H999.32Z" fill="white"/>
<path d="M1012.91 86.4631H1009.3L1003.22 57.7231H1007.74L1011.07 77.5931H1011.24L1014.69 57.7231H1019L1012.91 86.4631Z" fill="white"/>
<path d="M1022.89 57.7231H1035.09V61.6232H1027V70.0831H1034.15V73.7831H1027V82.5731H1035.21V86.4731H1022.89V57.7231Z" fill="white"/>
<path d="M1044.24 57.7231V82.5631H1052.94V86.4631H1040.13V57.7231H1044.24Z" fill="white"/>
<path d="M151.68 114.713H155.79L161.46 130.563H161.62L167 114.713H171.11V143.453H167V125.473H166.79L162.48 138.453H160.3L155.99 125.473H155.78V143.453H151.67V114.713H151.68Z" fill="white"/>
<path d="M187.08 143.453L185.73 137.293H180.47L179.12 143.453H175.01L181.29 114.713H184.9L191.18 143.453H187.08ZM183.01 122.723L180.87 133.643H185.22L183.01 122.723ZM180.92 112.083L182.97 107.773H187.94L183.59 112.083H180.92Z" fill="white"/>
<path d="M198.25 114.713L201.53 123.743L204.86 114.713H209.38L203.71 128.263L209.95 143.453H205.6L201.53 133.063L197.75 143.453H193.23L199.39 128.263L193.89 114.713H198.25Z" fill="white"/>
<path d="M218.16 114.713V143.453H214.05V114.713H218.16Z" fill="white"/>
<path d="M224.11 114.713H228.22L233.89 130.563H234.05L239.43 114.713H243.54V143.453H239.43V125.473H239.22L234.91 138.453H232.73L228.42 125.473H228.21V143.453H224.1V114.713H224.11Z" fill="white"/>
<path d="M249.32 122.273C249.32 120.093 249.48 118.003 251.46 116.153C252.872 114.959 254.661 114.303 256.51 114.303C258.359 114.303 260.148 114.959 261.56 116.153C263.53 118.003 263.7 120.093 263.7 122.273V135.903C263.7 138.083 263.54 140.173 261.56 142.023C260.148 143.218 258.359 143.873 256.51 143.873C254.661 143.873 252.872 143.218 251.46 142.023C249.49 140.173 249.32 138.083 249.32 135.903V122.273ZM259.59 121.653C259.634 121.199 259.58 120.741 259.431 120.31C259.283 119.878 259.044 119.484 258.73 119.153C258.111 118.624 257.324 118.333 256.51 118.333C255.696 118.333 254.909 118.624 254.29 119.153C253.976 119.484 253.737 119.878 253.589 120.31C253.44 120.741 253.386 121.199 253.43 121.653V136.513C253.386 136.967 253.44 137.425 253.589 137.857C253.737 138.288 253.976 138.682 254.29 139.013C254.909 139.542 255.696 139.833 256.51 139.833C257.324 139.833 258.111 139.542 258.73 139.013C259.044 138.682 259.283 138.288 259.431 137.857C259.58 137.425 259.634 136.967 259.59 136.513V121.653Z" fill="white"/>
<path d="M285.62 114.713C287.34 114.713 289.81 114.793 291.62 116.433C293.71 118.363 293.84 121.403 293.84 122.633V135.323C294.019 137.447 293.354 139.556 291.99 141.193C291.24 141.958 290.336 142.555 289.338 142.945C288.339 143.334 287.27 143.508 286.2 143.453H280.08V114.713H285.62ZM284.18 139.433H286.03C286.532 139.472 287.037 139.404 287.511 139.233C287.985 139.062 288.418 138.793 288.78 138.443C289.485 137.467 289.818 136.273 289.72 135.073V122.343C289.772 121.39 289.497 120.448 288.94 119.673C288.61 119.304 288.193 119.024 287.726 118.86C287.259 118.696 286.758 118.652 286.27 118.733H284.18V139.433Z" fill="white"/>
<path d="M308.49 143.453L307.14 137.293H301.88L300.53 143.453H296.42L302.7 114.713H306.31L312.59 143.453H308.49ZM304.43 122.723L302.29 133.643H306.64L304.43 122.723Z" fill="white"/>
<path d="M327.09 114.713H339.28V118.613H331.19V127.073H338.33V130.773H331.19V139.563H339.4V143.463H327.08V114.713H327.09Z" fill="white"/>
<path d="M353.82 121.903C353.879 120.974 353.633 120.05 353.12 119.273C352.857 118.955 352.522 118.704 352.143 118.541C351.764 118.377 351.352 118.306 350.94 118.333C350.57 118.319 350.2 118.382 349.855 118.516C349.509 118.65 349.194 118.853 348.93 119.113C348.277 119.939 347.969 120.985 348.07 122.033C348.029 123.073 348.256 124.106 348.73 125.033C349.211 125.644 349.872 126.088 350.62 126.303L353.12 127.203C354.595 127.608 355.904 128.469 356.86 129.663C357.815 131.135 358.248 132.885 358.09 134.633V135.623C358.09 138.543 357.31 140.753 356.12 141.983C355.398 142.633 354.554 143.135 353.638 143.459C352.722 143.784 351.751 143.924 350.78 143.873C349.692 143.946 348.602 143.757 347.601 143.322C346.601 142.887 345.719 142.219 345.03 141.373C344.139 139.915 343.684 138.232 343.72 136.523V135.583H347.83V136.363C347.782 137.261 348.012 138.151 348.49 138.913C348.771 139.23 349.121 139.479 349.512 139.642C349.904 139.805 350.327 139.877 350.75 139.853C351.232 139.899 351.719 139.829 352.169 139.65C352.619 139.471 353.021 139.188 353.34 138.823C353.857 137.975 354.089 136.983 354 135.993V134.923C354.069 133.893 353.839 132.866 353.34 131.963C352.819 131.359 352.135 130.918 351.37 130.693L348.37 129.623C347.541 129.406 346.771 129.006 346.117 128.452C345.462 127.899 344.941 127.205 344.59 126.423C344.097 125.084 343.886 123.658 343.97 122.233V121.413C343.944 120.424 344.121 119.44 344.489 118.522C344.857 117.604 345.408 116.77 346.11 116.073C346.779 115.463 347.564 114.992 348.417 114.688C349.27 114.384 350.176 114.253 351.08 114.303C355.19 114.303 357.94 116.973 357.94 121.733V122.673H353.83V121.902L353.82 121.903Z" fill="white"/>
<path d="M372.91 121.243C372.912 120.576 372.729 119.922 372.38 119.353C372.137 119.018 371.814 118.748 371.44 118.568C371.067 118.388 370.654 118.304 370.24 118.323C369.835 118.307 369.432 118.383 369.061 118.546C368.69 118.708 368.362 118.954 368.1 119.263C367.544 120.096 367.297 121.097 367.4 122.093V136.263C367.298 137.148 367.484 138.042 367.93 138.813C368.167 139.143 368.482 139.409 368.847 139.589C369.211 139.768 369.614 139.856 370.02 139.843C370.453 139.863 370.886 139.785 371.284 139.613C371.682 139.442 372.037 139.182 372.32 138.853C372.757 138.155 372.957 137.334 372.89 136.513V135.483H377V136.673C377.115 138.581 376.5 140.462 375.28 141.933C374.568 142.612 373.721 143.135 372.794 143.467C371.868 143.8 370.882 143.935 369.9 143.863C368.929 143.918 367.958 143.751 367.062 143.373C366.166 142.995 365.368 142.417 364.73 141.683C363.608 140.207 363.093 138.357 363.29 136.513V121.603C363.29 119.713 363.54 117.583 365.38 115.973C366.694 114.881 368.351 114.286 370.06 114.293C371.886 114.287 373.652 114.944 375.03 116.143C376.24 117.43 376.903 119.137 376.88 120.903V122.873H372.9V121.243H372.91Z" fill="white"/>
<path d="M391.35 143.453L390 137.293H384.74L383.39 143.453H379.28L385.56 114.713H389.17L395.45 143.453H391.35ZM387.28 122.723L385.14 133.643H389.49L387.28 122.723Z" fill="white"/>
<path d="M403.46 114.713V139.553H412.17V143.453H399.36V114.713H403.46Z" fill="white"/>
<path d="M426.29 143.453L424.94 137.293H419.68L418.33 143.453H414.22L420.5 114.713H424.11L430.39 143.453H426.29ZM422.23 122.723L420.09 133.643H424.44L422.23 122.723Z" fill="white"/>
<path d="M444.89 114.713H457.08V118.613H449V127.073H456.14V130.773H449V139.563H457.21V143.463H444.89V114.713Z" fill="white"/>
<path d="M482.21 121.243C482.212 120.576 482.029 119.922 481.68 119.353C481.437 119.018 481.114 118.748 480.74 118.568C480.367 118.388 479.954 118.304 479.54 118.323C479.135 118.307 478.732 118.383 478.361 118.546C477.99 118.708 477.662 118.954 477.4 119.263C476.844 120.096 476.597 121.097 476.7 122.093V136.263C476.598 137.148 476.784 138.042 477.23 138.813C477.467 139.143 477.782 139.409 478.147 139.589C478.511 139.768 478.914 139.856 479.32 139.843C479.753 139.863 480.186 139.785 480.584 139.613C480.982 139.442 481.337 139.182 481.62 138.853C482.057 138.155 482.257 137.334 482.19 136.513V135.483H486.3V136.673C486.415 138.581 485.8 140.462 484.58 141.933C483.868 142.612 483.021 143.135 482.094 143.467C481.168 143.8 480.182 143.935 479.2 143.863C478.229 143.918 477.258 143.751 476.362 143.373C475.466 142.995 474.668 142.417 474.03 141.683C472.908 140.207 472.393 138.357 472.59 136.513V121.603C472.59 119.713 472.84 117.583 474.68 115.973C475.994 114.881 477.651 114.286 479.36 114.293C481.186 114.287 482.952 114.944 484.33 116.143C485.54 117.43 486.203 119.137 486.18 120.903V122.873H482.2V121.243H482.21Z" fill="white"/>
<path d="M491.49 122.273C491.49 120.093 491.65 118.003 493.63 116.153C495.042 114.959 496.831 114.303 498.68 114.303C500.529 114.303 502.318 114.959 503.73 116.153C505.7 118.003 505.87 120.093 505.87 122.273V135.903C505.87 138.083 505.71 140.173 503.73 142.023C502.318 143.218 500.529 143.873 498.68 143.873C496.831 143.873 495.042 143.218 493.63 142.023C491.66 140.173 491.49 138.083 491.49 135.903V122.273ZM501.76 121.653C501.804 121.199 501.75 120.741 501.601 120.31C501.453 119.878 501.214 119.484 500.9 119.153C500.281 118.624 499.494 118.333 498.68 118.333C497.866 118.333 497.079 118.624 496.46 119.153C496.146 119.484 495.907 119.878 495.759 120.31C495.61 120.741 495.556 121.199 495.6 121.653V136.513C495.556 136.967 495.61 137.425 495.759 137.857C495.907 138.288 496.146 138.682 496.46 139.013C497.079 139.542 497.866 139.833 498.68 139.833C499.494 139.833 500.281 139.542 500.9 139.013C501.214 138.682 501.453 138.288 501.601 137.857C501.75 137.425 501.804 136.967 501.76 136.513V121.653Z" fill="white"/>
<path d="M515.76 114.713L522.62 132.783V114.713H526.73V143.453H522.62L515.76 125.383V143.453H511.65V114.713H515.76Z" fill="white"/>
<path d="M532.51 122.273C532.51 120.093 532.67 118.003 534.64 116.153C536.052 114.959 537.841 114.303 539.69 114.303C541.539 114.303 543.328 114.959 544.74 116.153C546.71 118.003 546.87 120.093 546.87 122.273V135.903C546.986 137.225 546.759 138.555 546.21 139.763L548.8 141.813L546.71 144.363L544.16 142.353C543.56 142.904 542.852 143.324 542.08 143.586C541.309 143.848 540.491 143.946 539.68 143.873C537.824 143.914 536.021 143.253 534.63 142.023C532.66 140.173 532.5 138.083 532.5 135.903V122.273H532.51ZM538.84 138.123L540.93 135.573L542.78 137.053V121.653C542.824 121.199 542.77 120.741 542.621 120.31C542.473 119.878 542.234 119.484 541.92 119.153C541.301 118.624 540.514 118.333 539.7 118.333C538.886 118.333 538.099 118.624 537.48 119.153C537.166 119.484 536.927 119.878 536.779 120.31C536.63 120.741 536.576 121.199 536.62 121.653V136.513C536.576 136.967 536.63 137.425 536.779 137.857C536.927 138.288 537.166 138.682 537.48 139.013C537.777 139.29 538.127 139.505 538.508 139.646C538.889 139.786 539.294 139.85 539.7 139.833C540.076 139.842 540.451 139.788 540.81 139.673L538.84 138.123Z" fill="white"/>
<path d="M557.44 114.713V136.513C557.44 138.483 558.39 139.843 560.19 139.843C561.99 139.843 562.94 138.493 562.94 136.513V114.713H567.05V135.903C567.05 142.223 563.27 143.873 560.19 143.873C557.11 143.873 553.33 142.233 553.33 135.903V114.713H557.44Z" fill="white"/>
<path d="M577.1 114.713V143.453H573V114.713H577.1Z" fill="white"/>
<path d="M592.54 121.903C592.599 120.974 592.353 120.05 591.84 119.273C591.577 118.955 591.242 118.704 590.863 118.541C590.484 118.377 590.072 118.306 589.66 118.333C589.29 118.32 588.92 118.383 588.575 118.517C588.229 118.651 587.915 118.854 587.65 119.113C586.997 119.939 586.689 120.985 586.79 122.033C586.749 123.073 586.976 124.106 587.45 125.033C587.931 125.644 588.592 126.088 589.34 126.303L591.84 127.203C593.315 127.608 594.624 128.469 595.58 129.663C596.535 131.135 596.968 132.885 596.81 134.633V135.623C596.81 138.543 596.03 140.753 594.84 141.983C594.118 142.633 593.274 143.135 592.358 143.459C591.442 143.784 590.471 143.924 589.5 143.873C588.412 143.946 587.322 143.757 586.321 143.322C585.321 142.887 584.439 142.219 583.75 141.373C582.859 139.915 582.404 138.232 582.44 136.523V135.583H586.55V136.363C586.502 137.261 586.732 138.152 587.21 138.913C587.491 139.23 587.841 139.479 588.232 139.642C588.624 139.805 589.047 139.877 589.47 139.853C589.952 139.899 590.439 139.829 590.889 139.65C591.339 139.471 591.741 139.188 592.06 138.823C592.577 137.975 592.809 136.983 592.72 135.993V134.923C592.789 133.893 592.56 132.866 592.06 131.963C591.539 131.359 590.855 130.918 590.09 130.693L587.09 129.623C586.261 129.406 585.491 129.006 584.837 128.452C584.182 127.899 583.661 127.205 583.31 126.423C582.812 125.085 582.601 123.658 582.69 122.233V121.413C582.664 120.424 582.841 119.44 583.209 118.522C583.577 117.604 584.128 116.77 584.83 116.073C585.499 115.463 586.284 114.992 587.137 114.688C587.99 114.384 588.896 114.253 589.8 114.303C593.91 114.303 596.66 116.973 596.66 121.733V122.673H592.55V121.902L592.54 121.903Z" fill="white"/>
<path d="M613.77 114.713V118.613H608.68V143.453H604.57V118.613H599.48V114.713H613.77Z" fill="white"/>
<path d="M625.88 143.453L624.53 137.293H619.27L617.91 143.453H613.8L620.08 114.713H623.69L629.97 143.453H625.88ZM621.82 122.723L619.68 133.643H624.03L621.82 122.723Z" fill="white"/>
<path d="M639.27 114.713C641.36 114.713 644.4 114.593 646.33 116.973C647.395 118.42 647.931 120.188 647.85 121.983V124.163C647.878 125.812 647.341 127.421 646.33 128.723C645.727 129.378 644.981 129.885 644.15 130.203L648.67 143.463H644.4L640.42 131.063H638V143.463H633.89V114.723H639.27V114.713ZM638 127.363H640.34C640.806 127.383 641.272 127.31 641.709 127.149C642.147 126.988 642.548 126.741 642.89 126.423C643.229 126.091 643.484 125.683 643.634 125.232C643.784 124.782 643.823 124.302 643.75 123.833V121.783C643.776 120.82 643.441 119.882 642.81 119.153C642.444 118.846 642.016 118.621 641.555 118.493C641.095 118.365 640.612 118.338 640.14 118.413H638V127.363Z" fill="white"/>
<path d="M673.27 121.903C673.329 120.974 673.083 120.05 672.57 119.273C672.307 118.955 671.972 118.704 671.593 118.541C671.214 118.377 670.802 118.306 670.39 118.333C670.02 118.32 669.65 118.383 669.305 118.517C668.959 118.651 668.645 118.854 668.38 119.113C667.727 119.939 667.419 120.985 667.52 122.033C667.479 123.073 667.706 124.106 668.18 125.033C668.661 125.644 669.322 126.088 670.07 126.303L672.57 127.203C674.045 127.608 675.354 128.469 676.31 129.663C677.265 131.135 677.698 132.885 677.54 134.633V135.623C677.54 138.543 676.76 140.753 675.57 141.983C674.848 142.633 674.004 143.135 673.088 143.459C672.172 143.784 671.201 143.924 670.23 143.873C669.142 143.946 668.052 143.757 667.051 143.322C666.051 142.887 665.169 142.219 664.48 141.373C663.589 139.915 663.134 138.232 663.17 136.523V135.583H667.28V136.363C667.232 137.261 667.462 138.152 667.94 138.913C668.221 139.23 668.571 139.479 668.962 139.642C669.354 139.805 669.777 139.877 670.2 139.853C670.682 139.899 671.169 139.829 671.619 139.65C672.069 139.471 672.471 139.188 672.79 138.823C673.307 137.975 673.539 136.983 673.45 135.993V134.923C673.519 133.893 673.29 132.866 672.79 131.963C672.269 131.359 671.585 130.918 670.82 130.693L667.82 129.623C666.991 129.406 666.221 129.006 665.567 128.452C664.912 127.899 664.391 127.205 664.04 126.423C663.542 125.085 663.331 123.658 663.42 122.233V121.413C663.394 120.424 663.571 119.44 663.939 118.522C664.307 117.604 664.858 116.77 665.56 116.073C666.229 115.463 667.014 114.992 667.867 114.688C668.72 114.384 669.626 114.253 670.53 114.303C674.64 114.303 677.39 116.973 677.39 121.733V122.673H673.28V121.902L673.27 121.903Z" fill="white"/>
<path d="M686.98 114.713V136.513C686.98 138.483 687.93 139.843 689.73 139.843C691.53 139.843 692.48 138.493 692.48 136.513V114.713H696.59V135.903C696.59 142.223 692.81 143.873 689.73 143.873C686.65 143.873 682.87 142.233 682.87 135.903V114.713H686.98Z" fill="white"/>
<path d="M711.53 143.453L710.18 137.293H704.92L703.56 143.453H699.45L705.73 114.713H709.34L715.62 143.453H711.53ZM707.47 122.723L705.33 133.643H709.68L707.47 122.723Z" fill="white"/>
<path d="M734.24 114.713V139.553H742.95V143.453H730.14V114.713H734.24Z" fill="white"/>
<path d="M751.98 114.713V143.453H747.87V114.713H751.98Z" fill="white"/>
<path d="M763.47 114.713C765.375 114.632 767.262 115.12 768.89 116.113C771.48 117.963 771.52 121.043 771.52 122.723C771.52 124.613 771.36 125.923 770.29 127.203C769.854 127.731 769.326 128.175 768.73 128.513C769.573 128.876 770.267 129.514 770.7 130.323C771.352 131.408 771.639 132.673 771.52 133.933V136.113C771.52 137.303 771.52 140.263 769.06 142.113C767.627 143.098 765.905 143.573 764.17 143.463H757.93V114.723H763.47V114.713ZM762.04 126.623H764.01C764.5 126.652 764.991 126.571 765.446 126.385C765.901 126.2 766.309 125.916 766.64 125.553C767.164 124.841 767.438 123.977 767.42 123.093V121.323C767.406 120.594 767.129 119.894 766.64 119.353C766.282 119.024 765.86 118.771 765.401 118.61C764.942 118.448 764.455 118.381 763.97 118.413H762.04V126.623ZM762.04 139.763H763.89C764.423 139.794 764.956 139.695 765.442 139.474C765.929 139.252 766.353 138.916 766.68 138.493C767.204 137.612 767.461 136.598 767.42 135.573V134.223C767.494 133.646 767.432 133.06 767.24 132.512C767.047 131.963 766.729 131.467 766.31 131.063C765.703 130.549 764.924 130.285 764.13 130.323H762.04V139.763Z" fill="white"/>
<path d="M777.07 114.713H789.27V118.613H781.18V127.073H788.33V130.773H781.18V139.563H789.39V143.463H777.07V114.713Z" fill="white"/>
<path d="M799.69 114.713C801.78 114.713 804.82 114.593 806.75 116.973C807.815 118.42 808.351 120.188 808.27 121.983V124.163C808.298 125.812 807.761 127.421 806.75 128.723C806.147 129.378 805.401 129.885 804.57 130.203L809.09 143.463H804.82L800.84 131.063H798.42V143.463H794.31V114.723H799.69V114.713ZM798.42 127.363H800.76C801.226 127.383 801.692 127.31 802.129 127.149C802.567 126.988 802.968 126.741 803.31 126.423C803.649 126.091 803.904 125.683 804.054 125.232C804.204 124.782 804.243 124.302 804.17 123.833V121.783C804.196 120.82 803.861 119.882 803.23 119.153C802.864 118.846 802.436 118.621 801.975 118.493C801.515 118.365 801.032 118.338 800.56 118.413H798.43V127.363H798.42Z" fill="white"/>
<path d="M819.15 114.713C820.87 114.713 823.34 114.793 825.15 116.433C827.24 118.363 827.37 121.403 827.37 122.633V135.323C827.549 137.447 826.884 139.556 825.52 141.193C824.77 141.958 823.866 142.555 822.868 142.945C821.869 143.334 820.8 143.508 819.73 143.453H813.61V114.713H819.15ZM817.72 139.433H819.57C820.072 139.472 820.577 139.404 821.051 139.233C821.525 139.062 821.958 138.793 822.32 138.443C823.024 137.467 823.358 136.273 823.26 135.073V122.343C823.312 121.39 823.037 120.448 822.48 119.673C822.15 119.304 821.733 119.024 821.266 118.86C820.799 118.696 820.298 118.652 819.81 118.733H817.72V139.433Z" fill="white"/>
<path d="M842.02 143.453L840.67 137.293H835.41L834.05 143.453H829.94L836.22 114.713H839.83L846.11 143.453H842.02ZM837.96 122.723L835.82 133.643H840.17L837.96 122.723Z" fill="white"/>
<path d="M855.57 114.713C857.29 114.713 859.76 114.793 861.57 116.433C863.66 118.363 863.79 121.403 863.79 122.633V135.323C863.969 137.447 863.304 139.556 861.94 141.193C861.19 141.958 860.286 142.555 859.288 142.945C858.289 143.334 857.22 143.508 856.15 143.453H850.03V114.713H855.57ZM854.13 139.433H855.98C856.482 139.472 856.987 139.404 857.461 139.233C857.935 139.062 858.368 138.793 858.73 138.443C859.434 137.467 859.768 136.273 859.67 135.073V122.343C859.722 121.39 859.447 120.448 858.89 119.673C858.56 119.304 858.143 119.024 857.676 118.86C857.209 118.696 856.708 118.652 856.22 118.733H854.13V139.433Z" fill="white"/>
<path d="M869.57 114.713H881.77V118.613H873.68V127.073H880.83V130.773H873.68V139.563H881.89V143.463H869.57V114.713Z" fill="white"/>
<path d="M890.92 138.943V143.463H886.4V138.943H890.92Z" fill="white"/>
</svg>
