<svg width="515" height="41" viewBox="0 0 515 41" fill="none" xmlns="http://www.w3.org/2000/svg">
<path d="M1.59003 40.5933L11.58 6.22314H5.33002V10.8032H0.309998V0.873291H17.27V6.56323L7.62 40.5933H1.59003Z" fill="white"/>
<path d="M35.01 40.5933V0.873291H40.48L47.79 21.9033H47.9L55.15 0.873291H60.67V40.5933H54.98V16.4333H54.87L49.24 33.5032H46.39L40.81 16.4333H40.7V40.5933H35.01Z" fill="white"/>
<path d="M67.42 40.5933V0.873291H84.38V6.23315H73.11V17.8933H82.93V23.2532H73.11V34.9133H84.38V40.6033H67.42V40.5933Z" fill="white"/>
<path d="M89.23 40.5933V0.873291H94.7L103.29 24.8032H103.4V0.873291H109.09V40.5933H103.73L95.03 16.7131H94.92V40.5933H89.23Z" fill="white"/>
<path d="M119.36 40.5933V6.22314H112.78V0.863281H131.64V6.22314H125.06V40.5933H119.36Z" fill="white"/>
<path d="M134.54 10.2433C134.511 8.78594 134.798 7.33964 135.38 6.00328C135.896 4.83279 136.656 3.78627 137.61 2.93345C138.503 2.15222 139.534 1.54505 140.65 1.14342C142.321 0.541197 144.121 0.389502 145.87 0.703718C147.618 1.01793 149.253 1.78703 150.61 2.93345C151.536 3.79965 152.277 4.84367 152.79 6.00328C153.372 7.33964 153.659 8.78594 153.63 10.2433V31.2232C153.669 32.7009 153.383 34.1691 152.79 35.5233C152.28 36.6523 151.537 37.6609 150.61 38.4833C149.703 39.2886 148.651 39.9133 147.51 40.3233C146.411 40.7247 145.25 40.9312 144.08 40.9335C142.91 40.9273 141.75 40.7209 140.65 40.3233C139.524 39.9194 138.49 39.2937 137.61 38.4833C136.659 37.6717 135.898 36.6613 135.38 35.5233C134.786 34.1694 134.499 32.701 134.54 31.2232V10.2433ZM140.23 31.2232C140.182 31.7828 140.26 32.3461 140.457 32.8719C140.654 33.3978 140.966 33.873 141.37 34.2633C142.131 34.8965 143.09 35.2433 144.08 35.2433C145.07 35.2433 146.029 34.8965 146.79 34.2633C147.194 33.873 147.506 33.3978 147.703 32.8719C147.9 32.3461 147.978 31.7828 147.93 31.2232V10.2433C147.978 9.6837 147.9 9.12067 147.703 8.59483C147.506 8.069 147.194 7.59376 146.79 7.20347C146.029 6.57021 145.07 6.22325 144.08 6.22325C143.09 6.22325 142.131 6.57021 141.37 7.20347C140.967 7.59452 140.656 8.06993 140.459 8.59556C140.262 9.1212 140.184 9.6838 140.23 10.2433V31.2232Z" fill="white"/>
<path d="M160.03 40.5933V0.873291H169.18C175.88 0.873291 179.227 4.75987 179.22 12.5332C179.278 14.5775 178.906 16.6112 178.13 18.5032C177.335 20.2133 175.99 21.6075 174.31 22.4631L180.45 40.5933H174.42L169.12 23.6333H165.72V40.5933H160.03ZM165.72 6.22314V18.6133H168.96C169.781 18.6466 170.599 18.5035 171.36 18.1934C171.93 17.9322 172.415 17.5162 172.76 16.9932C173.083 16.3975 173.29 15.7461 173.37 15.0732C173.597 13.3138 173.597 11.5326 173.37 9.77319C173.283 9.07471 173.055 8.40117 172.7 7.79321C171.99 6.75321 170.65 6.23315 168.68 6.23315H165.72V6.22314Z" fill="white"/>
<path d="M185.19 40.5933V0.873291H202.15V6.23315H190.88V17.8933H200.7V23.2532H190.88V34.9133H202.15V40.6033H185.19V40.5933Z" fill="white"/>
<path d="M225.64 12.3033H219.95V11.0233C219.979 9.83113 219.659 8.6566 219.03 7.64342C218.684 7.15474 218.215 6.76606 217.671 6.51671C217.127 6.26737 216.526 6.16604 215.93 6.22326C215.267 6.19463 214.61 6.3506 214.03 6.67345C213.564 6.95837 213.165 7.34025 212.86 7.79333C212.552 8.29883 212.345 8.85927 212.25 9.44347C212.137 10.0772 212.08 10.7196 212.08 11.3634C212.08 12.1434 212.11 12.7933 212.16 13.3133C212.204 13.8004 212.347 14.2736 212.58 14.7035C212.818 15.1296 213.154 15.4927 213.56 15.7633C214.11 16.1282 214.7 16.4271 215.32 16.6534L219.67 18.3834C220.779 18.7787 221.816 19.3529 222.74 20.0834C223.498 20.7065 224.124 21.4749 224.58 22.3434C225.01 23.3091 225.293 24.3338 225.42 25.3834C225.577 26.6706 225.651 27.9666 225.64 29.2633C225.65 30.8305 225.482 32.394 225.14 33.9235C224.862 35.2401 224.31 36.4836 223.52 37.5734C222.718 38.6342 221.662 39.4766 220.45 40.0233C218.99 40.6545 217.41 40.9584 215.82 40.9134C214.501 40.9264 213.193 40.6783 211.97 40.1835C210.821 39.7291 209.776 39.0452 208.9 38.1735C208.044 37.3131 207.352 36.3031 206.86 35.1935C206.352 34.0233 206.097 32.7589 206.11 31.4833V29.3634H211.8V31.1534C211.794 32.1682 212.116 33.1575 212.72 33.9733C213.095 34.4197 213.574 34.7678 214.114 34.9874C214.654 35.207 215.24 35.2914 215.82 35.2333C216.596 35.2717 217.37 35.1279 218.08 34.8133C218.608 34.5448 219.046 34.1277 219.34 33.6134C219.653 33.0372 219.835 32.3983 219.87 31.7433C219.93 31.0133 219.95 30.2133 219.95 29.3133C219.957 28.4554 219.92 27.5975 219.84 26.7433C219.8 26.1786 219.647 25.6277 219.39 25.1234C219.13 24.7136 218.777 24.371 218.36 24.1234C217.813 23.8058 217.245 23.5251 216.66 23.2833L212.59 21.6134C210.513 20.9292 208.756 19.5105 207.65 17.6234C206.751 15.6768 206.323 13.5461 206.4 11.4034C206.391 9.96759 206.596 8.53846 207.01 7.16344C207.38 5.89638 208.006 4.7188 208.85 3.70348C209.657 2.71669 210.675 1.92376 211.83 1.38341C213.187 0.776301 214.664 0.482267 216.15 0.523306C217.484 0.507138 218.806 0.772971 220.03 1.30334C221.16 1.79914 222.191 2.49733 223.07 3.36339C223.883 4.16594 224.529 5.12193 224.97 6.17589C225.412 7.22986 225.639 8.36072 225.64 9.50329V12.3033Z" fill="white"/>
<path d="M243.05 40.5933V0.873291H260.01V6.23315H248.74V17.8933H258.56V23.2532H248.74V34.9133H260.01V40.6033H243.05V40.5933Z" fill="#00E1BE"/>
<path d="M283.5 12.3033H277.81V11.0233C277.839 9.83113 277.519 8.6566 276.89 7.64342C276.544 7.15474 276.075 6.76606 275.531 6.51671C274.987 6.26737 274.386 6.16604 273.79 6.22326C273.127 6.19463 272.47 6.3506 271.89 6.67345C271.424 6.95837 271.025 7.34025 270.72 7.79333C270.412 8.29883 270.205 8.85927 270.11 9.44347C269.997 10.0772 269.94 10.7196 269.94 11.3634C269.94 12.1434 269.97 12.7933 270.02 13.3133C270.069 13.7995 270.211 14.2717 270.44 14.7035C270.678 15.1296 271.014 15.4927 271.42 15.7633C271.97 16.1282 272.56 16.4271 273.18 16.6534L277.53 18.3834C278.639 18.7787 279.676 19.3529 280.6 20.0834C281.361 20.7037 281.987 21.4727 282.44 22.3434C282.87 23.3091 283.153 24.3338 283.28 25.3834C283.437 26.6706 283.511 27.9666 283.5 29.2633C283.51 30.8305 283.342 32.394 283 33.9235C282.722 35.2401 282.17 36.4836 281.38 37.5734C280.578 38.6342 279.522 39.4766 278.31 40.0233C276.85 40.6545 275.27 40.9584 273.68 40.9134C272.361 40.9264 271.053 40.6783 269.83 40.1835C268.683 39.7254 267.639 39.0419 266.76 38.1735C265.904 37.3131 265.212 36.3031 264.72 35.1935C264.212 34.0233 263.957 32.7589 263.97 31.4833V29.3634H269.66V31.1534C269.653 32.1682 269.976 33.1575 270.58 33.9733C270.955 34.4197 271.434 34.7678 271.974 34.9874C272.514 35.207 273.1 35.2914 273.68 35.2333C274.456 35.2717 275.23 35.1279 275.94 34.8133C276.468 34.5448 276.906 34.1277 277.2 33.6134C277.513 33.0372 277.695 32.3983 277.73 31.7433C277.79 31.0133 277.81 30.2133 277.81 29.3133C277.817 28.4554 277.78 27.5975 277.7 26.7433C277.656 26.1794 277.503 25.6295 277.25 25.1234C276.987 24.7158 276.635 24.3738 276.22 24.1234C275.673 23.8058 275.105 23.5251 274.52 23.2833L270.45 21.6134C268.373 20.9292 266.616 19.5105 265.51 17.6234C264.608 15.6777 264.176 13.5469 264.25 11.4034C264.241 9.96759 264.446 8.53846 264.86 7.16344C265.23 5.89638 265.856 4.7188 266.7 3.70348C267.509 2.71419 268.531 1.92092 269.69 1.38341C271.047 0.776301 272.524 0.482267 274.01 0.523306C275.344 0.507138 276.666 0.772971 277.89 1.30334C279.02 1.79914 280.051 2.49733 280.93 3.36339C281.743 4.16594 282.389 5.12193 282.83 6.17589C283.271 7.22986 283.499 8.36072 283.5 9.50329V12.3033Z" fill="#00E1BE"/>
<path d="M289.13 40.5933V0.873315H297.67C299.071 0.852087 300.465 1.05796 301.8 1.48318C303.044 1.93052 304.157 2.67976 305.04 3.66335C306.004 4.69354 306.695 5.94812 307.05 7.31326C307.471 9.16929 307.659 11.0706 307.61 12.9732C307.631 14.4858 307.528 15.9976 307.3 17.4932C307.093 18.721 306.648 19.8967 305.99 20.9534C305.24 22.2273 304.163 23.2768 302.87 23.9932C301.281 24.7869 299.515 25.1621 297.74 25.0833H294.84V40.5933H289.13ZM294.82 6.22317V19.7232H297.55C298.47 19.7673 299.388 19.5961 300.23 19.2232C300.831 18.922 301.319 18.4345 301.62 17.8333C301.938 17.1909 302.119 16.4893 302.15 15.7732C302.21 14.9532 302.23 14.0432 302.23 13.0432C302.23 12.1132 302.21 11.2333 302.17 10.3933C302.147 9.63461 301.977 8.88759 301.67 8.19338C301.387 7.58089 300.918 7.0732 300.33 6.74319C299.528 6.3668 298.645 6.19502 297.76 6.24319H294.82V6.22317Z" fill="#00E1BE"/>
<path d="M313.23 40.5933V0.873291H330.19V6.23315H318.92V17.8933H328.74V23.2532H318.92V34.9133H330.19V40.6033H313.23V40.5933Z" fill="#00E1BE"/>
<path d="M353.35 29.2631V31.7231C353.357 32.922 353.119 34.1098 352.65 35.2131C352.193 36.298 351.542 37.291 350.73 38.1432C349.91 38.9973 348.936 39.6894 347.86 40.1833C346.748 40.6859 345.54 40.9417 344.32 40.9333C343.208 40.9292 342.102 40.7777 341.03 40.4831C339.925 40.1897 338.897 39.6574 338.02 38.9233C337.09 38.1346 336.34 37.1559 335.82 36.0532C335.191 34.6425 334.893 33.1066 334.95 31.5632V9.6933C334.937 8.45144 335.165 7.21872 335.62 6.06317C336.048 4.97674 336.695 3.98982 337.52 3.16327C338.356 2.33057 339.353 1.67707 340.45 1.2431C341.649 0.767003 342.93 0.529285 344.22 0.543152C345.431 0.496903 346.639 0.70624 347.764 1.15765C348.889 1.60907 349.906 2.29256 350.75 3.16327C351.582 4.04144 352.235 5.07427 352.67 6.20331C353.142 7.42125 353.379 8.7171 353.37 10.0231V12.2531H347.68V10.3532C347.702 9.30675 347.366 8.28417 346.73 7.45331C346.433 7.05598 346.044 6.73636 345.596 6.52216C345.149 6.30795 344.656 6.20531 344.16 6.22308C343.614 6.15241 343.059 6.23804 342.56 6.46991C342.061 6.70178 341.638 7.07046 341.34 7.53314C340.836 8.56502 340.596 9.70572 340.64 10.8532V31.1633C340.605 32.1821 340.865 33.1892 341.39 34.0632C341.7 34.4779 342.114 34.8042 342.589 35.0095C343.065 35.2147 343.585 35.2917 344.1 35.2331C344.508 35.2302 344.913 35.1628 345.3 35.0331C345.738 34.9005 346.146 34.6832 346.5 34.3932C346.863 34.0463 347.149 33.6273 347.34 33.1633C347.578 32.5416 347.69 31.8785 347.67 31.2131V29.2631H353.35Z" fill="#00E1BE"/>
<path d="M359.54 40.5933V0.873291H365.23V40.5933H359.54Z" fill="#00E1BE"/>
<path d="M369.58 40.5933L378.45 0.873291H383.19L392.06 40.5933H386.37L384.7 32.0532H376.94L375.27 40.5933H369.58ZM383.64 26.7034L380.85 12.3132H380.74L377.95 26.7034H383.64Z" fill="#00E1BE"/>
<path d="M396.25 40.5933V0.873291H401.94V34.9033H413.21V40.5933H396.25Z" fill="#00E1BE"/>
<path d="M418.45 40.5933V0.873291H424.14V40.5933H418.45Z" fill="#00E1BE"/>
<path d="M449.47 12.3033H443.78V11.0233C443.809 9.83113 443.489 8.6566 442.86 7.64342C442.514 7.15474 442.045 6.76606 441.501 6.51671C440.957 6.26737 440.356 6.16604 439.76 6.22326C439.097 6.19463 438.44 6.3506 437.86 6.67345C437.394 6.95837 436.995 7.34025 436.69 7.79333C436.382 8.29882 436.175 8.85927 436.08 9.44347C435.967 10.0772 435.91 10.7196 435.91 11.3634C435.91 12.1434 435.94 12.7933 435.99 13.3133C436.039 13.7995 436.181 14.2717 436.41 14.7035C436.648 15.1295 436.984 15.4927 437.39 15.7633C437.94 16.1282 438.53 16.4271 439.15 16.6534L443.5 18.3834C444.609 18.7786 445.646 19.3529 446.57 20.0834C447.331 20.7037 447.957 21.4727 448.41 22.3434C448.84 23.3091 449.123 24.3338 449.25 25.3834C449.407 26.6706 449.481 27.9666 449.47 29.2633C449.48 30.8305 449.312 32.394 448.97 33.9235C448.692 35.2402 448.14 36.4836 447.35 37.5734C446.548 38.6342 445.492 39.4766 444.28 40.0233C442.82 40.6545 441.24 40.9584 439.65 40.9134C438.331 40.9264 437.023 40.6783 435.8 40.1835C434.653 39.7254 433.609 39.0419 432.73 38.1735C431.874 37.3131 431.182 36.3031 430.69 35.1935C430.182 34.0233 429.926 32.7589 429.94 31.4833V29.3634H435.63V31.1534C435.624 32.1682 435.946 33.1575 436.55 33.9733C436.925 34.4197 437.404 34.7678 437.944 34.9874C438.484 35.207 439.07 35.2914 439.65 35.2333C440.426 35.2717 441.2 35.1279 441.91 34.8133C442.438 34.5448 442.876 34.1277 443.17 33.6134C443.484 33.0372 443.665 32.3983 443.7 31.7433C443.76 31.0133 443.78 30.2133 443.78 29.3133C443.787 28.4554 443.75 27.5975 443.67 26.7433C443.626 26.1794 443.473 25.6295 443.22 25.1234C442.957 24.7158 442.605 24.3738 442.19 24.1234C441.643 23.8058 441.075 23.5251 440.49 23.2833L436.42 21.6134C434.343 20.9292 432.586 19.5105 431.48 17.6234C430.578 15.6777 430.146 13.5469 430.22 11.4034C430.211 9.96759 430.416 8.53844 430.83 7.16344C431.2 5.8964 431.827 4.71883 432.67 3.70348C433.479 2.71419 434.501 1.92092 435.66 1.38341C437.017 0.776301 438.494 0.482267 439.98 0.523306C441.314 0.507138 442.636 0.772971 443.86 1.30334C444.99 1.79914 446.021 2.49733 446.9 3.36339C447.713 4.16594 448.359 5.12193 448.8 6.17589C449.241 7.22986 449.469 8.36072 449.47 9.50329V12.3033Z" fill="#00E1BE"/>
<path d="M458.85 40.5933V6.22314H452.27V0.863281H471.13V6.22314H464.55V40.5933H458.85Z" fill="#00E1BE"/>
<path d="M469.39 40.5933L478.26 0.873291H483L491.87 40.5933H486.18L484.51 32.0532H476.75L475.08 40.5933H469.39ZM483.45 26.7034L480.66 12.3132H480.55L477.76 26.7034H483.45Z" fill="#00E1BE"/>
<path d="M514.47 12.3033H508.78V11.0233C508.809 9.83113 508.489 8.6566 507.86 7.64342C507.514 7.15474 507.045 6.76606 506.501 6.51671C505.957 6.26737 505.356 6.16604 504.76 6.22326C504.097 6.19463 503.44 6.3506 502.86 6.67345C502.394 6.95837 501.995 7.34025 501.69 7.79333C501.382 8.29882 501.175 8.85927 501.08 9.44347C500.967 10.0772 500.91 10.7196 500.91 11.3634C500.91 12.1434 500.94 12.7933 500.99 13.3133C501.039 13.7995 501.181 14.2717 501.41 14.7035C501.648 15.1295 501.984 15.4927 502.39 15.7633C502.94 16.1282 503.53 16.4271 504.15 16.6534L508.5 18.3834C509.609 18.7786 510.646 19.3529 511.57 20.0834C512.331 20.7037 512.957 21.4727 513.41 22.3434C513.84 23.3091 514.123 24.3338 514.25 25.3834C514.407 26.6706 514.481 27.9666 514.47 29.2633C514.48 30.8305 514.312 32.394 513.97 33.9235C513.692 35.2402 513.14 36.4836 512.35 37.5734C511.548 38.6342 510.492 39.4766 509.28 40.0233C507.82 40.6545 506.24 40.9584 504.65 40.9134C503.331 40.9264 502.023 40.6783 500.8 40.1835C499.653 39.7254 498.609 39.0419 497.73 38.1735C496.874 37.3131 496.182 36.3031 495.69 35.1935C495.182 34.0233 494.926 32.7589 494.94 31.4833V29.3634H500.63V31.1534C500.624 32.1682 500.946 33.1575 501.55 33.9733C501.925 34.4197 502.404 34.7678 502.944 34.9874C503.484 35.207 504.07 35.2914 504.65 35.2333C505.426 35.2717 506.2 35.1279 506.91 34.8133C507.438 34.5448 507.876 34.1277 508.17 33.6134C508.484 33.0372 508.665 32.3983 508.7 31.7433C508.76 31.0133 508.78 30.2133 508.78 29.3133C508.787 28.4554 508.75 27.5975 508.67 26.7433C508.626 26.1794 508.473 25.6295 508.22 25.1234C507.957 24.7158 507.605 24.3738 507.19 24.1234C506.643 23.8058 506.075 23.5251 505.49 23.2833L501.42 21.6134C499.343 20.9292 497.586 19.5105 496.48 17.6234C495.578 15.6777 495.146 13.5469 495.22 11.4034C495.211 9.96759 495.416 8.53844 495.83 7.16344C496.2 5.8964 496.827 4.71883 497.67 3.70348C498.479 2.71419 499.501 1.92092 500.66 1.38341C502.017 0.776301 503.494 0.482267 504.98 0.523306C506.314 0.507138 507.636 0.772971 508.86 1.30334C509.99 1.79914 511.021 2.49733 511.9 3.36339C512.713 4.16594 513.359 5.12193 513.8 6.17589C514.241 7.22986 514.469 8.36072 514.47 9.50329V12.3033Z" fill="#00E1BE"/>
</svg>
