<svg width="286" height="134" viewBox="0 0 286 134" fill="none" xmlns="http://www.w3.org/2000/svg">
<path d="M0.530029 27.9426V0.792736H6.20996C7.29769 0.764499 8.37981 0.958277 9.39001 1.36256C10.2102 1.70408 10.9445 2.22322 11.54 2.88258C12.0961 3.51552 12.5058 4.26369 12.74 5.07301C12.9819 5.90813 13.1031 6.77339 13.1 7.64283V8.63258C13.1089 9.26014 13.052 9.88702 12.9301 10.5027C12.8309 10.97 12.6588 11.4189 12.42 11.8328C11.9271 12.6018 11.2453 13.2319 10.4399 13.6629C11.3097 14.0531 12.0217 14.7265 12.46 15.573C12.9403 16.6503 13.1629 17.8244 13.11 19.0027V20.533C13.2433 22.5153 12.6257 24.4749 11.38 26.0227C10.22 27.2927 8.37997 27.9329 5.83997 27.9329H0.530029V27.9426ZM4.41003 4.45289V11.9226H6.16003C6.6412 11.9861 7.13052 11.931 7.58545 11.762C8.04038 11.5929 8.4471 11.3152 8.77002 10.9529C9.26817 10.0929 9.50117 9.10455 9.43994 8.11256C9.50976 7.13874 9.24905 6.16984 8.69995 5.36256C8.34783 5.01936 7.92386 4.75898 7.45862 4.59986C6.99337 4.44075 6.49855 4.38695 6.01001 4.44264H4.41003V4.45289ZM4.41003 15.3626V24.053H6.08997C6.72465 24.0846 7.35796 23.9678 7.93994 23.7127C8.36136 23.5003 8.71219 23.1706 8.94995 22.763C9.19157 22.315 9.3348 21.8205 9.37 21.3128C9.42 20.7528 9.44995 20.1427 9.44995 19.4827C9.45388 18.8842 9.41715 18.2861 9.33997 17.6926C9.27879 17.232 9.12215 16.7894 8.88 16.3928C8.626 16.0322 8.26598 15.7593 7.84998 15.6126C7.30004 15.4255 6.7205 15.3407 6.14001 15.3626H4.41003Z" fill="#F9F9F9"/>
<path d="M17.71 27.9429V0.792969H23.96C28.53 0.792969 30.8166 3.44985 30.8199 8.76318C30.8566 10.1596 30.6047 11.5482 30.08 12.8428C29.5338 14.01 28.6159 14.9636 27.47 15.5532L31.66 27.9429H27.55L23.9301 16.353H21.61V27.9429H17.71ZM21.59 4.45312V12.9131H23.8C24.3615 12.9401 24.9218 12.841 25.4399 12.623C25.8302 12.4489 26.1607 12.1639 26.39 11.8032C26.6082 11.3921 26.7506 10.9446 26.8101 10.4829C26.8919 9.88317 26.9286 9.27808 26.92 8.67285C26.9236 8.06775 26.8869 7.46302 26.8101 6.86279C26.7516 6.38585 26.5949 5.92659 26.35 5.51318C26.018 5.12139 25.5937 4.81815 25.1154 4.63135C24.637 4.44454 24.1196 4.37974 23.61 4.44287H21.59V4.45312Z" fill="#F9F9F9"/>
<path d="M33.13 27.9429L39.1899 0.792969H42.4301L48.49 27.9429H44.6L43.46 22.1128H38.17L37.03 27.9429H33.13ZM42.73 18.4531L40.83 8.61279H40.75L38.85 18.4531H42.73Z" fill="#F9F9F9"/>
<path d="M51.1899 27.9429V0.792969H54.92L60.79 17.1528H60.87V0.792969H64.76V27.9429H61.1L55.16 11.623H55.08V27.9429H51.1899Z" fill="#F9F9F9"/>
<path d="M69.2 27.9428V0.792904H74.95C75.8775 0.726417 76.8088 0.855165 77.6837 1.17035C78.5586 1.48553 79.3579 1.98023 80.03 2.62298C81.2638 4.05982 81.885 5.92316 81.76 7.81292V20.5131C81.76 23.0531 81.14 24.9327 79.91 26.1327C79.1893 26.7717 78.3487 27.261 77.437 27.5717C76.5254 27.8825 75.5609 28.0086 74.6 27.9428H69.2ZM73.09 4.45306V24.2831H74.88C75.3034 24.3281 75.7315 24.2776 76.1329 24.1357C76.5344 23.9938 76.8989 23.7638 77.2 23.4628C77.7205 22.7119 77.9644 21.8037 77.89 20.893V7.81292C77.9416 6.93826 77.714 6.06984 77.24 5.33294C76.9439 5.01052 76.5758 4.76274 76.1656 4.6098C75.7555 4.45686 75.3149 4.4032 74.88 4.45306H73.09Z" fill="#F9F9F9"/>
<path d="M86.5 27.9429V0.792969H90.39V27.9429H86.5Z" fill="#F9F9F9"/>
<path d="M94.95 27.9429V0.792969H98.6801L104.55 17.1528H104.63V0.792969H108.52V27.9429H104.86L98.92 11.623H98.84V27.9429H94.95Z" fill="#F9F9F9"/>
<path d="M112.74 7.20311C112.721 6.20684 112.915 5.2181 113.31 4.30321C113.662 3.50357 114.18 2.78771 114.83 2.20311C115.441 1.67011 116.147 1.2561 116.91 0.982893C118.42 0.42302 120.08 0.42302 121.59 0.982893C122.36 1.26219 123.074 1.67541 123.7 2.20311C124.334 2.79457 124.841 3.50921 125.19 4.30321C125.585 5.21812 125.779 6.20684 125.76 7.20311V8.57323H121.87V7.20311C121.902 6.82032 121.848 6.43531 121.713 6.07567C121.578 5.71602 121.366 5.39059 121.09 5.12303C120.571 4.6901 119.916 4.45311 119.24 4.45311C118.564 4.45311 117.909 4.6901 117.39 5.12303C117.114 5.39004 116.9 5.71539 116.765 6.07518C116.63 6.43497 116.577 6.82024 116.61 7.20311V21.543C116.578 21.9257 116.632 22.3107 116.767 22.6704C116.902 23.03 117.114 23.3555 117.39 23.623C117.909 24.056 118.564 24.293 119.24 24.293C119.916 24.293 120.571 24.056 121.09 23.623C121.366 23.356 121.58 23.0307 121.715 22.6709C121.849 22.3111 121.903 21.9258 121.87 21.543V16.4331H118.79V13.0029H125.76V21.543C125.786 22.5527 125.591 23.556 125.19 24.4829C124.843 25.2547 124.335 25.9434 123.7 26.5029C123.083 27.0533 122.367 27.4812 121.59 27.7632C120.08 28.323 118.42 28.323 116.91 27.7632C116.14 27.4851 115.433 27.0566 114.83 26.5029C114.182 25.9484 113.663 25.2589 113.31 24.4829C112.907 23.5566 112.712 22.5529 112.74 21.543V7.20311Z" fill="#F9F9F9"/>
<path d="M138.18 27.9428V0.792904H143.93C144.858 0.726417 145.789 0.855165 146.664 1.17035C147.539 1.48553 148.338 1.98023 149.01 2.62298C150.244 4.05982 150.865 5.92316 150.74 7.81292V20.5131C150.74 23.0531 150.12 24.9327 148.89 26.1327C148.169 26.7717 147.329 27.261 146.417 27.5717C145.505 27.8825 144.541 28.0086 143.58 27.9428H138.18ZM142.07 4.45306V24.2831H143.86C144.283 24.3281 144.711 24.2776 145.113 24.1357C145.514 23.9938 145.879 23.7638 146.18 23.4628C146.701 22.7119 146.944 21.8037 146.87 20.893V7.81292C146.922 6.93826 146.694 6.06984 146.22 5.33294C145.924 5.01052 145.556 4.76274 145.146 4.6098C144.735 4.45686 144.295 4.4032 143.86 4.45306H142.07Z" fill="#F9F9F9"/>
<path d="M155.48 27.9429V0.792969H159.37V27.9429H155.48Z" fill="#F9F9F9"/>
<path d="M163.86 7.20311C163.841 6.20684 164.035 5.2181 164.43 4.30321C164.782 3.50357 165.3 2.78771 165.95 2.20311C166.561 1.67011 167.267 1.2561 168.03 0.982893C169.54 0.42302 171.2 0.42302 172.71 0.982893C173.48 1.26219 174.194 1.67541 174.82 2.20311C175.454 2.79457 175.961 3.50921 176.31 4.30321C176.705 5.21812 176.899 6.20684 176.88 7.20311V8.57323H173V7.20311C173.032 6.82032 172.978 6.43531 172.843 6.07567C172.708 5.71602 172.496 5.39059 172.22 5.12303C171.701 4.6901 171.046 4.45311 170.37 4.45311C169.694 4.45311 169.039 4.6901 168.52 5.12303C168.244 5.39004 168.03 5.71539 167.895 6.07518C167.76 6.43497 167.707 6.82024 167.74 7.20311V21.543C167.708 21.9257 167.762 22.3107 167.897 22.6704C168.032 23.03 168.244 23.3555 168.52 23.623C169.039 24.056 169.694 24.293 170.37 24.293C171.046 24.293 171.701 24.056 172.22 23.623C172.496 23.356 172.71 23.0307 172.845 22.6709C172.979 22.3111 173.033 21.9258 173 21.543V16.4331H169.92V13.0029H176.89V21.543C176.916 22.5527 176.721 23.556 176.32 24.4829C175.973 25.2547 175.465 25.9434 174.83 26.5029C174.213 27.0533 173.497 27.4812 172.72 27.7632C171.21 28.323 169.55 28.323 168.04 27.7632C167.27 27.4851 166.563 27.0566 165.96 26.5029C165.312 25.9484 164.793 25.2589 164.44 24.4829C164.036 23.5566 163.842 22.5529 163.87 21.543V7.20311H163.86Z" fill="#F9F9F9"/>
<path d="M181.38 27.9429V0.792969H185.27V27.9429H181.38Z" fill="#F9F9F9"/>
<path d="M192.54 27.9429V4.45312H188.05V0.792969H200.92V4.45312H196.43V27.9429H192.54Z" fill="#F9F9F9"/>
<path d="M199.74 27.9429L205.8 0.792969H209.04L215.1 27.9429H211.21L210.07 22.1128H204.78L203.64 27.9429H199.74ZM209.34 18.4531L207.44 8.61279H207.36L205.46 18.4531H209.34Z" fill="#F9F9F9"/>
<path d="M217.94 27.9429V0.792969H221.83V24.0532H229.52V27.9429H217.94Z" fill="#F9F9F9"/>
<path d="M0.530029 60.6629V33.513H6.20996C7.29769 33.4847 8.37981 33.6785 9.39001 34.0828C10.2102 34.4243 10.9445 34.9434 11.54 35.6028C12.0961 36.2357 12.5058 36.9834 12.74 37.7927C12.9819 38.6279 13.1031 39.4931 13.1 40.3626V41.3528C13.1089 41.9804 13.052 42.6072 12.9301 43.2229C12.8309 43.6903 12.6588 44.1392 12.42 44.553C11.9271 45.322 11.2453 45.9516 10.4399 46.3826C11.3097 46.7728 12.0217 47.4462 12.46 48.2927C12.9403 49.37 13.1629 50.5446 13.11 51.7229V53.2527C13.2433 55.235 12.6257 57.1951 11.38 58.7429C10.22 60.0129 8.37997 60.6526 5.83997 60.6526H0.530029V60.6629ZM4.41003 37.1726V44.6428H6.16003C6.6412 44.7063 7.13052 44.6513 7.58545 44.4822C8.04038 44.3131 8.4471 44.0349 8.77002 43.6726C9.26817 42.8126 9.50117 41.8248 9.43994 40.8328C9.50976 39.859 9.24905 38.89 8.69995 38.0828C8.34783 37.7396 7.92386 37.4792 7.45862 37.3201C6.99337 37.161 6.49855 37.1072 6.01001 37.1629H4.41003V37.1726ZM4.41003 48.0828V56.7727H6.08997C6.72465 56.8043 7.35796 56.688 7.93994 56.4329C8.36136 56.2205 8.71219 55.8903 8.94995 55.4827C9.19157 55.0347 9.3348 54.5407 9.37 54.033C9.42 53.473 9.44995 52.8629 9.44995 52.2029C9.45388 51.6044 9.41715 51.0063 9.33997 50.4129C9.27879 49.9522 9.12215 49.5092 8.88 49.1126C8.626 48.7519 8.26598 48.4795 7.84998 48.3328C7.30004 48.1457 6.7205 48.0609 6.14001 48.0828H4.41003Z" fill="#F9F9F9"/>
<path d="M21.33 60.6631V49.1831L16 33.5132H20.11L23.23 44.3032H23.3101L26.4301 33.5132H30.54L25.21 49.1831V60.6631H21.33Z" fill="#F9F9F9"/>
<path d="M41.47 60.6631V33.5132H45.36V45.1431H50.16V33.5132H54.05V60.6631H50.16V48.5732H45.36V60.6631H41.47Z" fill="#F9F9F9"/>
<path d="M62.27 60.6631V49.1831L56.9399 33.5132H61.05L64.17 44.3032H64.25L67.37 33.5132H71.48L66.15 49.1831V60.6631H62.27Z" fill="#F9F9F9"/>
<path d="M74.38 60.6631V33.5132H85.96V37.1729H78.27V45.1431H84.97V48.8032H78.27V56.7729H85.96V60.6631H74.38Z" fill="#F9F9F9"/>
<path d="M102 41.3329H98.1099V40.4531C98.1307 39.638 97.9117 38.8347 97.4799 38.143C97.245 37.8097 96.926 37.5443 96.5555 37.374C96.1849 37.2036 95.7759 37.1341 95.3699 37.1728C94.9191 37.15 94.4712 37.2577 94.0799 37.4829C93.7608 37.6745 93.4877 37.9342 93.28 38.2431C93.0753 38.5889 92.9331 38.9676 92.8599 39.3627C92.782 39.7983 92.7452 40.2406 92.75 40.683C92.7457 41.1271 92.7658 41.5712 92.81 42.0131C92.8396 42.3465 92.9383 42.6698 93.0999 42.9628C93.2598 43.2549 93.4902 43.5026 93.77 43.683C94.1457 43.9309 94.5482 44.1354 94.9699 44.2929L97.9399 45.4731C98.6945 45.7446 99.4004 46.136 100.03 46.6328C100.544 47.0615 100.972 47.5841 101.29 48.1728C101.585 48.8332 101.777 49.5346 101.86 50.2529C101.966 51.1322 102.016 52.0172 102.01 52.9028C102.02 53.9723 101.906 55.0396 101.67 56.0829C101.473 56.9828 101.095 57.8333 100.56 58.5829C100.012 59.3061 99.294 59.8833 98.4699 60.2631C97.4748 60.6981 96.3955 60.9063 95.31 60.873C94.4092 60.8792 93.5158 60.7093 92.68 60.373C91.8967 60.0588 91.183 59.5932 90.5799 59.0029C89.9922 58.4165 89.5206 57.7243 89.1899 56.9628C88.8448 56.1609 88.6712 55.2957 88.68 54.4228V52.9731H92.5699V54.1928C92.5654 54.8874 92.7865 55.5648 93.1999 56.123C93.4555 56.4267 93.7812 56.6636 94.1488 56.8134C94.5164 56.9632 94.9149 57.0214 95.31 56.9829C95.8389 57.0074 96.3662 56.9081 96.8499 56.6928C97.2109 56.5099 97.51 56.2249 97.7099 55.873C97.9211 55.4774 98.0439 55.0404 98.0699 54.5927C98.1099 54.0927 98.13 53.543 98.13 52.933C98.1345 52.3487 98.1079 51.7645 98.05 51.183C98.0208 50.7975 97.919 50.421 97.75 50.0732C97.5716 49.7933 97.3324 49.557 97.05 49.3828C96.6787 49.163 96.2908 48.9726 95.89 48.8129L93.1099 47.6728C91.691 47.2047 90.4924 46.2337 89.7399 44.9428C89.126 43.6125 88.8315 42.1571 88.88 40.6928C88.8749 39.7106 89.0165 38.7333 89.3 37.7929C89.5523 36.9276 89.9814 36.1241 90.56 35.433C91.1093 34.7563 91.8073 34.2155 92.5999 33.853C93.5276 33.4406 94.5351 33.2393 95.55 33.2631C96.4605 33.2543 97.3628 33.4346 98.1999 33.7929C98.9719 34.1349 99.6764 34.6126 100.28 35.2031C100.835 35.7508 101.275 36.4032 101.575 37.1225C101.876 37.8418 102.03 38.6135 102.03 39.393V41.3329H102Z" fill="#F9F9F9"/>
<path d="M105.85 60.6631V33.5132H117.43V37.1729H109.74V45.1431H116.44V48.8032H109.74V56.7729H117.43V60.6631H105.85Z" fill="#F9F9F9"/>
<path d="M120.89 60.6631V33.5132H127.14C131.71 33.5132 133.997 36.1696 134 41.4829C134.037 42.8793 133.785 44.2684 133.26 45.563C132.714 46.7302 131.796 47.6833 130.65 48.2729L134.84 60.6631H130.73L127.11 49.0732H124.79V60.6631H120.89ZM124.78 37.1729V45.6328H126.99C127.551 45.6599 128.112 45.5607 128.63 45.3428C129.02 45.1686 129.351 44.8836 129.58 44.5229C129.798 44.1118 129.941 43.6648 130 43.2031C130.082 42.6034 130.119 41.9983 130.11 41.3931C130.114 40.788 130.077 40.1832 130 39.583C129.942 39.1061 129.785 38.6463 129.54 38.2329C129.208 37.8411 128.784 37.5384 128.305 37.3516C127.827 37.1648 127.31 37.1 126.8 37.1631H124.78V37.1729Z" fill="#F9F9F9"/>
<path d="M8.97997 89.2528C9.00532 88.9729 8.97137 88.6911 8.88036 88.4252C8.78936 88.1592 8.64331 87.915 8.45177 87.7094C8.26024 87.5037 8.02756 87.341 7.76879 87.2313C7.51002 87.1216 7.23096 87.0678 6.94994 87.0731C4.99994 87.0731 4.82995 88.7527 4.82995 89.6927V99.0131C4.80322 99.2943 4.83471 99.5776 4.92248 99.8461C5.01024 100.115 5.15242 100.362 5.34008 100.573C5.52774 100.784 5.75684 100.954 6.01318 101.073C6.26951 101.192 6.54756 101.257 6.82995 101.263C7.78995 101.263 8.97997 100.843 8.97997 98.8427V98.3031H10.86V98.9427C10.86 101.413 9.72 103.073 6.76 103.073C6.25085 103.113 5.73914 103.041 5.26037 102.864C4.78159 102.686 4.34724 102.406 3.98754 102.043C3.62784 101.681 3.35135 101.244 3.17736 100.764C3.00337 100.284 2.93602 99.7719 2.97997 99.2631V89.0228C2.96637 88.5151 3.05834 88.0102 3.25011 87.5399C3.44189 87.0696 3.72935 86.6439 4.09411 86.2904C4.45886 85.9369 4.89301 85.6631 5.36913 85.4862C5.84525 85.3093 6.35291 85.2335 6.85998 85.2631C9.00998 85.2631 10.79 86.3028 10.79 89.0428V90.1527H8.98998V89.2528H8.97997Z" fill="white"/>
<path d="M13.72 93.833C13.7391 92.9112 14.1182 92.0333 14.776 91.3872C15.4338 90.7411 16.3182 90.3781 17.2402 90.3755C18.1623 90.3729 19.0488 90.7312 19.7102 91.3735C20.3717 92.0159 20.7556 92.8913 20.78 93.813V99.523C20.78 100.459 20.4081 101.357 19.7461 102.019C19.0841 102.681 18.1862 103.053 17.25 103.053C16.3138 103.053 15.4159 102.681 14.7539 102.019C14.0919 101.357 13.72 100.459 13.72 99.523V93.833ZM18.9301 94.1729C18.9301 92.8129 18.16 92.1729 17.25 92.1729C16.34 92.1729 15.5699 92.8129 15.5699 94.1729V99.2232C15.5699 100.513 16.16 101.223 17.25 101.223C18.29 101.223 18.9301 100.553 18.9301 99.2232V94.1729Z" fill="white"/>
<path d="M26.22 90.5632V91.7732C26.5099 91.3436 26.8998 90.991 27.3562 90.7454C27.8126 90.4997 28.3217 90.3683 28.84 90.363C29.338 90.3296 29.8347 90.4462 30.266 90.6975C30.6973 90.9488 31.0435 91.3234 31.26 91.7732C31.5456 91.3278 31.9416 90.9641 32.4094 90.717C32.8773 90.47 33.4012 90.3478 33.9301 90.363C35.6401 90.363 36.45 91.5232 36.45 93.2532V102.823H34.6V94.0632C34.6 93.0032 34.16 92.1633 33.04 92.1633C31.88 92.1633 31.33 93.2233 31.33 94.4133V102.823H29.48V94.0632C29.48 93.2932 29.18 92.1633 27.95 92.1633C26.76 92.1633 26.22 93.2733 26.22 94.4133V102.823H24.37V90.5535H26.22V90.5632Z" fill="white"/>
<path d="M40.03 93.833C40.0492 92.9112 40.4281 92.0333 41.0859 91.3872C41.7437 90.7411 42.6283 90.3781 43.5503 90.3755C44.4723 90.3729 45.3587 90.7312 46.0201 91.3735C46.6816 92.0159 47.0656 92.8913 47.09 93.813V99.523C47.09 100.459 46.718 101.357 46.056 102.019C45.394 102.681 44.4963 103.053 43.5601 103.053C42.6238 103.053 41.726 102.681 41.064 102.019C40.402 101.357 40.03 100.459 40.03 99.523V93.833ZM45.24 94.1729C45.24 92.8129 44.4701 92.1729 43.5601 92.1729C42.6501 92.1729 41.88 92.8129 41.88 94.1729V99.2232C41.88 100.513 42.4701 101.223 43.5601 101.223C44.6001 101.223 45.24 100.553 45.24 99.2232V94.1729Z" fill="white"/>
<path d="M61.77 93.8032C61.65 92.4232 60.88 92.123 60.11 92.123C59.8947 92.0887 59.6744 92.1061 59.467 92.1733C59.2597 92.2406 59.0711 92.3556 58.917 92.5098C58.7628 92.6639 58.6473 92.8527 58.5801 93.0601C58.5128 93.2674 58.4957 93.4878 58.53 93.7031C58.53 94.6631 59.2 95.0631 59.99 95.4331L61.52 96.1729C62.1041 96.437 62.6066 96.8531 62.9752 97.3774C63.3439 97.9018 63.5651 98.5153 63.616 99.1543C63.6668 99.7933 63.5453 100.434 63.2642 101.01C62.983 101.586 62.5525 102.077 62.0176 102.43C61.4826 102.783 60.8627 102.986 60.2225 103.018C59.5823 103.05 58.9453 102.91 58.3777 102.612C57.8101 102.314 57.3328 101.87 56.9955 101.325C56.6582 100.78 56.4733 100.154 56.46 99.5132H58.34C58.44 100.823 59.03 101.293 60 101.293C60.2413 101.325 60.4868 101.301 60.7174 101.223C60.948 101.145 61.1574 101.015 61.3296 100.843C61.5017 100.671 61.6318 100.461 61.71 100.23C61.7881 99.9999 61.8121 99.7545 61.78 99.5132C61.78 98.5932 61.48 98.1332 60.22 97.5132L58.71 96.7729C58.0581 96.5375 57.504 96.0907 57.136 95.5034C56.768 94.9161 56.6075 94.2225 56.6801 93.5332C56.6801 91.8732 57.77 90.3628 60.21 90.3628C62.9 90.3628 63.57 92.2632 63.62 93.8032H61.77Z" fill="#11EDC2"/>
<path d="M71.88 99.393H73.73V99.563C73.7649 100.022 73.7009 100.483 73.5426 100.915C73.3843 101.348 73.1353 101.741 72.8121 102.069C72.489 102.397 72.0993 102.651 71.6694 102.816C71.2396 102.98 70.7794 103.051 70.32 103.023C69.8439 103.052 69.3672 102.98 68.9209 102.812C68.4746 102.644 68.069 102.383 67.7308 102.047C67.3927 101.711 67.1295 101.306 66.9587 100.861C66.788 100.415 66.7134 99.9391 66.74 99.4629V93.7729C66.7218 93.316 66.7992 92.8603 66.9673 92.435C67.1354 92.0097 67.3905 91.6242 67.7162 91.3032C68.0419 90.9822 68.4312 90.7327 68.8589 90.5708C69.2866 90.4089 69.7433 90.3379 70.2 90.3628C70.6696 90.3425 71.1384 90.4191 71.5773 90.5874C72.0161 90.7557 72.4157 91.0122 72.7513 91.3413C73.087 91.6703 73.3515 92.065 73.5284 92.5005C73.7054 92.9359 73.791 93.4031 73.78 93.873V97.3828H68.59V99.333C68.59 100.643 69.18 101.213 70.32 101.213C71.41 101.213 71.88 100.543 71.88 99.5332V99.393ZM71.9301 96.0029V93.9028C71.9547 93.6756 71.9292 93.4458 71.8555 93.2295C71.7818 93.0132 71.6615 92.8157 71.5033 92.6508C71.3451 92.486 71.1528 92.3579 70.9397 92.2754C70.7266 92.1928 70.498 92.1576 70.27 92.1728C70.0351 92.1679 69.8017 92.2133 69.5856 92.3056C69.3694 92.398 69.1754 92.5353 69.0165 92.7085C68.8575 92.8816 68.7374 93.0863 68.6638 93.3095C68.5903 93.5328 68.5651 93.7692 68.59 94.0029V96.0029H71.9301Z" fill="#11EDC2"/>
<path d="M85.8101 86.833V90.563H87.54V92.043H85.8101V99.4932C85.7905 99.7416 85.8241 99.9911 85.9086 100.226C85.9931 100.46 86.1265 100.674 86.3 100.853C86.6404 101.084 87.0502 101.19 87.46 101.153H87.66V102.833H87.12C86.6882 102.934 86.2379 102.924 85.8112 102.803C85.3844 102.683 84.995 102.456 84.6794 102.145C84.3639 101.833 84.1325 101.447 84.0067 101.021C83.8809 100.596 83.8648 100.146 83.96 99.7129V92.043H82.65V90.563H83.96V86.833H85.8101Z" fill="#11EDC2"/>
<path d="M90.45 93.833C90.4691 92.9112 90.8482 92.0333 91.506 91.3872C92.1638 90.7411 93.0482 90.3781 93.9702 90.3755C94.8922 90.3729 95.7787 90.7312 96.4402 91.3735C97.1016 92.0159 97.4856 92.8913 97.51 93.813V99.523C97.51 100.459 97.1381 101.357 96.4761 102.019C95.8141 102.681 94.9162 103.053 93.98 103.053C93.0438 103.053 92.1459 102.681 91.4839 102.019C90.8219 101.357 90.45 100.459 90.45 99.523V93.833ZM95.67 94.1729C95.67 92.8129 94.9 92.1729 93.99 92.1729C93.08 92.1729 92.3101 92.8129 92.3101 94.1729V99.2232C92.3101 100.513 92.9 101.223 93.99 101.223C95.03 101.223 95.67 100.553 95.67 99.2232V94.1729Z" fill="#11EDC2"/>
<path d="M102.96 90.563V92.4932C104.27 90.7132 105.41 90.3928 106.37 90.3628V92.4429H106.02C104.66 92.4429 102.96 92.9831 102.96 95.6831V102.833H101.11V90.563H102.96Z" fill="#11EDC2"/>
<path d="M108.91 90.563H110.76V91.7729C111.055 91.3441 111.449 90.9924 111.909 90.7471C112.368 90.5017 112.879 90.3698 113.4 90.3628C115.57 90.3628 115.97 92.0231 115.97 93.2031V102.823H114.12V94.063C114.12 93.123 113.75 92.1631 112.56 92.1631C111.05 92.1631 110.76 93.6431 110.76 94.4131V102.823H108.91V90.563Z" fill="#11EDC2"/>
<path d="M124.75 101.623H124.72C124.418 102.076 124.004 102.443 123.519 102.69C123.034 102.937 122.494 103.055 121.95 103.033C120 103.033 119.43 101.553 119.43 99.5927C119.43 96.9927 120.27 95.5331 123.01 95.5331C123.588 95.5357 124.166 95.5687 124.74 95.6327V93.8232C124.741 93.5988 124.697 93.3761 124.61 93.1694C124.523 92.9627 124.394 92.7759 124.232 92.6205C124.07 92.4652 123.878 92.3448 123.668 92.266C123.458 92.1873 123.234 92.1523 123.01 92.163C122.589 92.1469 122.178 92.2957 121.864 92.5776C121.55 92.8594 121.359 93.2521 121.33 93.6728H119.55C119.545 93.2134 119.636 92.7583 119.818 92.3363C120 91.9144 120.268 91.5354 120.605 91.2236C120.943 90.9117 121.342 90.6735 121.776 90.5253C122.211 90.3771 122.672 90.3217 123.13 90.3627C125.97 90.3627 126.59 92.4631 126.59 94.0531V102.833H124.74V101.624L124.75 101.623ZM124.75 96.9931C124.333 96.9285 123.912 96.8883 123.49 96.873C123.182 96.8556 122.873 96.9064 122.587 97.0219C122.301 97.1374 122.043 97.3146 121.833 97.5409C121.623 97.7673 121.465 98.0373 121.371 98.3315C121.278 98.6257 121.25 98.9369 121.29 99.2431C121.29 100.973 121.81 101.443 122.87 101.443C123.403 101.34 123.883 101.053 124.226 100.633C124.57 100.213 124.755 99.6857 124.75 99.143V96.9931Z" fill="#11EDC2"/>
<path d="M132.13 90.563V92.4932C133.44 90.7132 134.58 90.3928 135.54 90.3628V92.4429H135.19C133.83 92.4429 132.13 92.9831 132.13 95.6831V102.833H130.28V90.563H132.13Z" fill="#11EDC2"/>
<path d="M149.55 101.623H149.52C149.218 102.076 148.804 102.443 148.319 102.69C147.834 102.937 147.294 103.055 146.75 103.033C144.8 103.033 144.23 101.553 144.23 99.5927C144.23 96.9927 145.07 95.5331 147.81 95.5331C148.388 95.5357 148.966 95.5687 149.54 95.6327V93.8232C149.542 93.5988 149.497 93.3761 149.41 93.1694C149.323 92.9627 149.194 92.7759 149.032 92.6205C148.87 92.4652 148.678 92.3448 148.468 92.266C148.258 92.1873 148.034 92.1523 147.81 92.163C147.389 92.1469 146.978 92.2957 146.664 92.5776C146.35 92.8594 146.159 93.2521 146.13 93.6728H144.35C144.345 93.2134 144.436 92.7583 144.618 92.3363C144.8 91.9144 145.068 91.5354 145.405 91.2236C145.743 90.9117 146.142 90.6735 146.576 90.5253C147.011 90.3771 147.472 90.3217 147.93 90.3627C150.77 90.3627 151.39 92.4631 151.39 94.0531V102.833H149.54V101.624L149.55 101.623ZM149.55 96.9931C149.133 96.9285 148.712 96.8883 148.29 96.873C147.982 96.8556 147.673 96.9064 147.387 97.0219C147.101 97.1374 146.843 97.3146 146.633 97.5409C146.423 97.7673 146.265 98.0373 146.172 98.3315C146.078 98.6257 146.05 98.9369 146.09 99.2431C146.09 100.973 146.61 101.443 147.67 101.443C148.203 101.34 148.683 101.053 149.026 100.633C149.37 100.213 149.555 99.6857 149.55 99.143V96.9931Z" fill="#11EDC2"/>
<path d="M162.15 102.833H160.3V101.623C160.005 102.052 159.611 102.404 159.151 102.649C158.692 102.894 158.181 103.026 157.66 103.033C155.49 103.033 155.09 101.373 155.09 100.193V90.5732H156.94V99.333C156.94 100.273 157.31 101.243 158.5 101.243C160.01 101.243 160.3 99.7632 160.3 98.9932V90.583H162.15V102.833Z" fill="#11EDC2"/>
<path d="M168 86.833V90.563H169.73V92.043H168V99.4932C167.98 99.7416 168.014 99.9911 168.099 100.226C168.183 100.46 168.316 100.674 168.49 100.853C168.83 101.084 169.24 101.19 169.65 101.153H169.85V102.833H169.31C168.878 102.934 168.428 102.924 168.001 102.803C167.574 102.683 167.185 102.456 166.87 102.145C166.554 101.833 166.322 101.447 166.197 101.021C166.071 100.596 166.055 100.146 166.15 99.7129V92.043H164.84V90.563H166.15V86.833H168Z" fill="#11EDC2"/>
<path d="M172.65 93.833C172.669 92.9112 173.048 92.0333 173.706 91.3872C174.364 90.7411 175.248 90.3781 176.17 90.3755C177.092 90.3729 177.979 90.7312 178.64 91.3735C179.302 92.0159 179.686 92.8913 179.71 93.813V99.523C179.71 100.459 179.338 101.357 178.676 102.019C178.014 102.681 177.116 103.053 176.18 103.053C175.244 103.053 174.346 102.681 173.684 102.019C173.022 101.357 172.65 100.459 172.65 99.523V93.833ZM177.86 94.1729C177.86 92.8129 177.09 92.1729 176.18 92.1729C175.27 92.1729 174.5 92.8129 174.5 94.1729V99.2232C174.5 100.513 175.09 101.223 176.18 101.223C177.22 101.223 177.86 100.553 177.86 99.2232V94.1729Z" fill="#11EDC2"/>
<path d="M185.15 90.563V92.4932C186.46 90.7132 187.6 90.3928 188.56 90.3628V92.4429H188.21C186.85 92.4429 185.15 92.9831 185.15 95.6831V102.833H183.3V90.563H185.15Z" fill="#11EDC2"/>
<path d="M192.96 85.8628V87.6729H191.11V85.8628H192.96ZM191.1 90.563H192.95V102.833H191.1V90.563Z" fill="#11EDC2"/>
<path d="M203.7 102.833H201.85V101.623C201.555 102.052 201.161 102.404 200.701 102.649C200.242 102.894 199.731 103.026 199.21 103.033C197.04 103.033 196.64 101.373 196.64 100.193V93.2129C196.64 92.0229 197.04 90.373 199.21 90.373C199.731 90.3801 200.242 90.5115 200.701 90.7568C201.161 91.0022 201.555 91.3544 201.85 91.7832V85.5229H203.7V102.833ZM201.85 98.9731V94.4229C201.85 93.6529 201.55 92.1729 200.05 92.1729C198.86 92.1729 198.49 93.1332 198.49 94.0732V99.313C198.49 100.253 198.86 101.223 200.05 101.223C201.55 101.223 201.85 99.7431 201.85 98.9731Z" fill="#11EDC2"/>
<path d="M212.47 101.623H212.44C212.138 102.076 211.724 102.443 211.239 102.69C210.754 102.937 210.214 103.055 209.67 103.033C207.72 103.033 207.15 101.553 207.15 99.5927C207.15 96.9927 207.99 95.5331 210.73 95.5331C211.308 95.5357 211.885 95.5687 212.46 95.6327V93.8232C212.461 93.5988 212.417 93.3761 212.33 93.1694C212.243 92.9627 212.114 92.7759 211.952 92.6205C211.79 92.4652 211.598 92.3448 211.388 92.266C211.178 92.1873 210.954 92.1523 210.73 92.163C210.309 92.1469 209.898 92.2957 209.584 92.5776C209.27 92.8594 209.079 93.2521 209.05 93.6728H207.27C207.265 93.2134 207.356 92.7583 207.538 92.3363C207.72 91.9144 207.988 91.5354 208.325 91.2236C208.663 90.9117 209.062 90.6735 209.496 90.5253C209.931 90.3771 210.392 90.3217 210.85 90.3627C213.69 90.3627 214.31 92.4631 214.31 94.0531V102.833H212.46V101.624L212.47 101.623ZM212.47 96.9931C212.053 96.9285 211.632 96.8883 211.21 96.873C210.902 96.8556 210.593 96.9064 210.307 97.0219C210.02 97.1374 209.763 97.3146 209.553 97.5409C209.343 97.7673 209.185 98.0373 209.092 98.3315C208.998 98.6257 208.97 98.9369 209.01 99.2431C209.01 100.973 209.53 101.443 210.59 101.443C211.123 101.34 211.603 101.053 211.946 100.633C212.29 100.213 212.475 99.6857 212.47 99.143V96.9931Z" fill="#11EDC2"/>
<path d="M225.07 102.833H223.22V101.623C222.925 102.052 222.531 102.404 222.071 102.649C221.612 102.894 221.101 103.026 220.58 103.033C218.41 103.033 218.01 101.373 218.01 100.193V93.2129C218.01 92.0229 218.41 90.373 220.58 90.373C221.101 90.3801 221.612 90.5115 222.071 90.7568C222.531 91.0022 222.925 91.3544 223.22 91.7832V85.5229H225.07V102.833ZM223.22 98.9731V94.4229C223.22 93.6529 222.92 92.1729 221.42 92.1729C220.23 92.1729 219.86 93.1332 219.86 94.0732V99.313C219.86 100.253 220.23 101.223 221.42 101.223C222.92 101.223 223.22 99.7431 223.22 98.9731Z" fill="#11EDC2"/>
<path d="M233.79 99.393H235.64V99.563C235.675 100.022 235.611 100.483 235.453 100.915C235.294 101.348 235.045 101.741 234.722 102.069C234.399 102.397 234.009 102.651 233.579 102.816C233.15 102.98 232.689 103.051 232.23 103.023C231.754 103.052 231.277 102.98 230.831 102.812C230.385 102.644 229.979 102.383 229.641 102.047C229.303 101.711 229.04 101.306 228.869 100.861C228.698 100.415 228.623 99.9391 228.65 99.4629V93.7729C228.632 93.316 228.709 92.8603 228.877 92.435C229.045 92.0097 229.301 91.6242 229.626 91.3032C229.952 90.9822 230.341 90.7327 230.769 90.5708C231.197 90.4089 231.653 90.3379 232.11 90.3628C232.58 90.3425 233.048 90.4191 233.487 90.5874C233.926 90.7557 234.326 91.0122 234.661 91.3413C234.997 91.6703 235.261 92.065 235.438 92.5005C235.615 92.9359 235.701 93.4031 235.69 93.873V97.3828H230.5V99.333C230.5 100.643 231.09 101.213 232.23 101.213C233.32 101.213 233.79 100.543 233.79 99.5332V99.393ZM233.84 96.0029V93.9028C233.865 93.6756 233.839 93.4458 233.765 93.2295C233.692 93.0132 233.572 92.8157 233.413 92.6508C233.255 92.486 233.063 92.3579 232.85 92.2754C232.637 92.1928 232.408 92.1576 232.18 92.1728C231.945 92.1679 231.712 92.2133 231.496 92.3056C231.279 92.398 231.085 92.5353 230.927 92.7085C230.768 92.8816 230.647 93.0863 230.574 93.3095C230.5 93.5328 230.475 93.7692 230.5 94.0029V96.0029H233.84Z" fill="#11EDC2"/>
<path d="M252.62 102.833H250.77V101.623C250.475 102.052 250.081 102.404 249.621 102.649C249.162 102.894 248.651 103.026 248.13 103.033C245.96 103.033 245.56 101.373 245.56 100.193V90.5732H247.41V99.333C247.41 100.273 247.78 101.243 248.97 101.243C250.48 101.243 250.77 99.7632 250.77 98.9932V90.583H252.62V102.833Z" fill="white"/>
<path d="M258.48 86.833V90.563H260.21V92.043H258.48V99.4932C258.46 99.7416 258.494 99.9911 258.579 100.226C258.663 100.46 258.796 100.674 258.97 100.853C259.31 101.084 259.72 101.19 260.13 101.153H260.33V102.833H259.79C259.358 102.934 258.908 102.924 258.481 102.803C258.054 102.683 257.665 102.456 257.349 102.145C257.034 101.833 256.802 101.447 256.677 101.021C256.551 100.596 256.535 100.146 256.63 99.7129V92.043H255.32V90.563H256.63V86.833H258.48Z" fill="white"/>
<path d="M265.07 85.8628V87.6729H263.22V85.8628H265.07ZM263.22 90.563H265.07V102.833H263.22V90.563Z" fill="white"/>
<path d="M270.61 85.5229V99.7729C270.595 99.9554 270.619 100.139 270.682 100.311C270.745 100.483 270.845 100.639 270.974 100.769C271.104 100.898 271.26 100.998 271.432 101.061C271.604 101.123 271.788 101.148 271.97 101.133H272.24V102.843H271.67C271.293 102.887 270.911 102.85 270.55 102.731C270.189 102.613 269.858 102.418 269.58 102.159C269.302 101.9 269.084 101.584 268.941 101.232C268.797 100.881 268.732 100.502 268.75 100.123V85.5332H270.61V85.5229Z" fill="white"/>
<path d="M276.83 85.8628V87.6729H274.98V85.8628H276.83ZM274.98 90.563H276.83V102.833H274.98V90.563Z" fill="white"/>
<path d="M285.63 94.5229V96.103H280.34V94.5229H285.63Z" fill="white"/>
<path d="M2.57996 121.263H8.94995V122.743L4.26001 131.973H8.94995V133.533H2.25V132.053L6.96997 122.823H2.56995V121.263H2.57996Z" fill="white"/>
<path d="M16.78 132.323H16.75C16.4479 132.776 16.0344 133.143 15.5493 133.39C15.0642 133.637 14.5238 133.755 13.98 133.733C12.03 133.733 11.46 132.253 11.46 130.293C11.46 127.693 12.3 126.233 15.04 126.233C15.6181 126.235 16.1955 126.269 16.77 126.333V124.523C16.7715 124.298 16.7272 124.076 16.6399 123.87C16.5526 123.663 16.424 123.476 16.2621 123.321C16.1002 123.165 15.9084 123.044 15.6982 122.966C15.4881 122.887 15.2642 122.852 15.04 122.863C14.6187 122.847 14.2075 122.995 13.8939 123.277C13.5803 123.559 13.3888 123.952 13.36 124.373H11.58C11.5749 123.914 11.6662 123.458 11.848 123.036C12.0298 122.614 12.2981 122.235 12.6354 121.923C12.9727 121.611 13.3717 121.374 13.8065 121.226C14.2414 121.077 14.7025 121.022 15.16 121.063C18 121.063 18.62 123.163 18.62 124.753V133.533H16.77V132.324L16.78 132.323ZM16.78 127.693C16.3627 127.628 15.942 127.588 15.52 127.573C15.2117 127.556 14.9033 127.607 14.6169 127.722C14.3305 127.838 14.0731 128.015 13.863 128.241C13.653 128.467 13.4954 128.737 13.4015 129.031C13.3076 129.325 13.2798 129.637 13.3199 129.943C13.3199 131.673 13.84 132.143 14.9 132.143C15.4329 132.04 15.9128 131.754 16.2563 131.333C16.5998 130.913 16.7852 130.385 16.78 129.843V127.693Z" fill="white"/>
<path d="M22.3199 121.263H24.17V122.473C24.4654 122.044 24.8593 121.693 25.3186 121.447C25.7779 121.202 26.2894 121.07 26.8101 121.063C28.9801 121.063 29.38 122.723 29.38 123.903V133.523H27.53V124.763C27.53 123.823 27.16 122.863 25.97 122.863C24.46 122.863 24.17 124.343 24.17 125.113V133.523H22.3199V121.263Z" fill="white"/>
<path d="M40.13 133.533H38.28V132.323C37.9846 132.752 37.5908 133.104 37.1315 133.349C36.6721 133.594 36.1607 133.726 35.64 133.733C33.47 133.733 33.0699 132.073 33.0699 130.893V123.913C33.0699 122.723 33.47 121.073 35.64 121.073C36.1607 121.08 36.6721 121.212 37.1315 121.457C37.5908 121.702 37.9846 122.054 38.28 122.483V116.223H40.13V133.533ZM38.28 129.673V125.123C38.28 124.353 37.98 122.873 36.48 122.873C35.29 122.873 34.92 123.833 34.92 124.773V130.013C34.92 130.953 35.29 131.923 36.48 131.923C37.98 131.923 38.28 130.443 38.28 129.673Z" fill="white"/>
<path d="M43.71 124.533C43.7291 123.611 44.1082 122.734 44.766 122.087C45.4238 121.441 46.3082 121.078 47.2302 121.076C48.1523 121.073 49.0387 121.431 49.7002 122.073C50.3616 122.716 50.7456 123.591 50.77 124.513V130.223C50.77 131.159 50.3981 132.057 49.7361 132.719C49.0741 133.381 48.1762 133.753 47.24 133.753C46.3038 133.753 45.4059 133.381 44.7439 132.719C44.0819 132.057 43.71 131.159 43.71 130.223V124.533ZM48.92 124.873C48.92 123.513 48.15 122.873 47.24 122.873C46.33 122.873 45.5601 123.513 45.5601 124.873V129.923C45.5601 131.213 46.15 131.923 47.24 131.923C48.28 131.923 48.92 131.253 48.92 129.923V124.873Z" fill="white"/>
<path d="M65.8199 132.323H65.79C65.4879 132.776 65.0744 133.143 64.5894 133.39C64.1043 133.637 63.5639 133.755 63.02 133.733C61.07 133.733 60.5 132.253 60.5 130.293C60.5 127.693 61.34 126.233 64.08 126.233C64.658 126.235 65.2356 126.269 65.8101 126.333V124.523C65.8115 124.298 65.7673 124.076 65.6799 123.87C65.5926 123.663 65.464 123.476 65.3021 123.321C65.1402 123.165 64.9483 123.044 64.7382 122.966C64.528 122.887 64.3041 122.852 64.08 122.863C63.6586 122.847 63.2476 122.995 62.934 123.277C62.6203 123.559 62.4288 123.952 62.4 124.373H60.62C60.6149 123.914 60.7063 123.458 60.8881 123.036C61.0698 122.614 61.338 122.235 61.6753 121.923C62.0126 121.611 62.4116 121.374 62.8464 121.226C63.2813 121.077 63.7424 121.022 64.2 121.063C67.04 121.063 67.66 123.163 67.66 124.753V133.533H65.8101V132.324L65.8199 132.323ZM65.8199 127.693C65.4027 127.628 64.982 127.588 64.5601 127.573C64.2517 127.556 63.9434 127.607 63.657 127.722C63.3706 127.838 63.1132 128.015 62.9031 128.241C62.693 128.467 62.5354 128.737 62.4415 129.031C62.3477 129.325 62.3198 129.637 62.36 129.943C62.36 131.673 62.8799 132.143 63.9399 132.143C64.4729 132.04 64.9529 131.754 65.2964 131.333C65.6399 130.913 65.8251 130.385 65.8199 129.843V127.693Z" fill="white"/>
<path d="M76.0699 124.503C75.9499 123.123 75.18 122.823 74.41 122.823C74.1947 122.789 73.9743 122.806 73.767 122.873C73.5596 122.94 73.3712 123.056 73.217 123.21C73.0629 123.364 72.9474 123.552 72.8801 123.76C72.8129 123.967 72.7956 124.188 72.83 124.403C72.83 125.363 73.5 125.763 74.29 126.133L75.8199 126.873C76.404 127.137 76.9066 127.553 77.2753 128.078C77.6439 128.602 77.8651 129.216 77.9159 129.854C77.9667 130.493 77.8453 131.134 77.5642 131.71C77.2831 132.287 76.8526 132.777 76.3176 133.13C75.7827 133.483 75.1628 133.686 74.5226 133.718C73.8824 133.75 73.2453 133.61 72.6777 133.312C72.1102 133.014 71.6328 132.569 71.2955 132.024C70.9582 131.479 70.7733 130.854 70.76 130.213H72.64C72.74 131.523 73.33 131.993 74.3 131.993C74.5414 132.025 74.7868 132.001 75.0173 131.923C75.2479 131.845 75.4575 131.715 75.6296 131.542C75.8018 131.37 75.9319 131.161 76.01 130.93C76.0881 130.7 76.112 130.454 76.08 130.213C76.08 129.293 75.78 128.833 74.52 128.213L73.01 127.473C72.3582 127.238 71.804 126.79 71.436 126.203C71.0681 125.616 70.9075 124.922 70.98 124.233C70.98 122.573 72.07 121.063 74.51 121.063C77.2 121.063 77.87 122.963 77.92 124.503H76.0699Z" fill="white"/>
<path d="M89.37 121.263V123.193C90.68 121.413 91.82 121.093 92.78 121.063V123.143H92.4301C91.0701 123.143 89.37 123.683 89.37 126.383V133.533H87.52V121.263H89.37Z" fill="white"/>
<path d="M100.11 130.093H101.96V130.263C101.995 130.722 101.931 131.183 101.773 131.615C101.614 132.047 101.365 132.441 101.042 132.769C100.719 133.096 100.329 133.351 99.8995 133.516C99.4697 133.681 99.0095 133.751 98.5501 133.723C98.074 133.752 97.5971 133.68 97.1509 133.512C96.7046 133.344 96.299 133.083 95.9608 132.747C95.6226 132.41 95.3595 132.006 95.1887 131.561C95.0179 131.116 94.9434 130.639 94.97 130.163V124.473C94.9518 124.016 95.0292 123.56 95.1973 123.135C95.3654 122.709 95.6204 122.324 95.9462 122.003C96.2719 121.682 96.6612 121.433 97.0889 121.271C97.5166 121.109 97.9734 121.038 98.4301 121.063C98.8997 121.043 99.3684 121.119 99.8073 121.288C100.246 121.456 100.646 121.712 100.981 122.041C101.317 122.371 101.581 122.765 101.758 123.201C101.935 123.636 102.021 124.103 102.01 124.573V128.083H96.82V130.033C96.82 131.343 97.4101 131.913 98.5501 131.913C99.6401 131.913 100.11 131.243 100.11 130.233V130.093ZM100.16 126.703V124.603C100.185 124.376 100.159 124.146 100.085 123.93C100.012 123.713 99.8915 123.516 99.7333 123.351C99.5751 123.186 99.3828 123.058 99.1697 122.975C98.9566 122.892 98.728 122.858 98.5 122.873C98.265 122.868 98.0317 122.914 97.8156 123.006C97.5994 123.098 97.4055 123.235 97.2466 123.408C97.0876 123.581 96.9673 123.787 96.8938 124.01C96.8203 124.233 96.7951 124.469 96.82 124.703V126.703H100.16Z" fill="white"/>
<path d="M112.56 133.533H110.71V132.323C110.415 132.752 110.021 133.104 109.561 133.349C109.102 133.594 108.591 133.726 108.07 133.733C105.9 133.733 105.5 132.073 105.5 130.893V123.913C105.5 122.723 105.9 121.073 108.07 121.073C108.591 121.08 109.102 121.212 109.561 121.457C110.021 121.702 110.415 122.054 110.71 122.483V116.223H112.56V133.533ZM110.71 129.673V125.123C110.71 124.353 110.41 122.873 108.91 122.873C107.72 122.873 107.35 123.833 107.35 124.773V130.013C107.35 130.953 107.72 131.923 108.91 131.923C110.41 131.923 110.71 130.443 110.71 129.673Z" fill="white"/>
<path d="M121.29 130.093H123.14V130.263C123.175 130.722 123.111 131.183 122.953 131.615C122.794 132.047 122.545 132.441 122.222 132.769C121.899 133.096 121.509 133.351 121.079 133.516C120.65 133.681 120.189 133.751 119.73 133.723C119.254 133.752 118.777 133.68 118.331 133.512C117.885 133.344 117.479 133.083 117.141 132.747C116.803 132.41 116.54 132.006 116.369 131.561C116.198 131.116 116.123 130.639 116.15 130.163V124.473C116.132 124.016 116.209 123.56 116.377 123.135C116.545 122.709 116.801 122.324 117.126 122.003C117.452 121.682 117.841 121.433 118.269 121.271C118.697 121.109 119.153 121.038 119.61 121.063C120.08 121.043 120.548 121.119 120.987 121.288C121.426 121.456 121.826 121.712 122.161 122.041C122.497 122.371 122.761 122.765 122.938 123.201C123.115 123.636 123.201 124.103 123.19 124.573V128.083H118V130.033C118 131.343 118.59 131.913 119.73 131.913C120.82 131.913 121.29 131.243 121.29 130.233V130.093ZM121.34 126.703V124.603C121.365 124.376 121.339 124.146 121.265 123.93C121.192 123.713 121.072 123.516 120.913 123.351C120.755 123.186 120.563 123.058 120.35 122.975C120.137 122.892 119.908 122.858 119.68 122.873C119.445 122.868 119.212 122.914 118.996 123.006C118.779 123.098 118.585 123.235 118.427 123.408C118.268 123.581 118.147 123.787 118.074 124.01C118 124.233 117.975 124.469 118 124.703V126.703H121.34Z" fill="white"/>
<path d="M131.39 124.503C131.27 123.123 130.5 122.823 129.73 122.823C129.515 122.789 129.294 122.806 129.087 122.873C128.88 122.94 128.691 123.056 128.537 123.21C128.383 123.364 128.267 123.552 128.2 123.76C128.133 123.967 128.116 124.188 128.15 124.403C128.15 125.363 128.82 125.763 129.61 126.133L131.14 126.873C131.724 127.137 132.227 127.553 132.595 128.078C132.964 128.602 133.185 129.216 133.236 129.854C133.287 130.493 133.165 131.134 132.884 131.71C132.603 132.287 132.173 132.777 131.638 133.13C131.103 133.483 130.483 133.686 129.843 133.718C129.202 133.75 128.565 133.61 127.998 133.312C127.43 133.014 126.953 132.569 126.615 132.024C126.278 131.479 126.093 130.854 126.08 130.213H127.96C128.06 131.523 128.65 131.993 129.62 131.993C129.861 132.025 130.107 132.001 130.337 131.923C130.568 131.845 130.777 131.715 130.95 131.542C131.122 131.37 131.252 131.161 131.33 130.93C131.408 130.7 131.432 130.454 131.4 130.213C131.4 129.293 131.1 128.833 129.84 128.213L128.33 127.473C127.678 127.238 127.124 126.79 126.756 126.203C126.388 125.616 126.228 124.922 126.3 124.233C126.3 122.573 127.39 121.063 129.83 121.063C132.52 121.063 133.19 122.963 133.24 124.503H131.39Z" fill="white"/>
<path d="M147.55 124.503C147.43 123.123 146.66 122.823 145.89 122.823C145.675 122.789 145.454 122.806 145.247 122.873C145.04 122.94 144.851 123.056 144.697 123.21C144.543 123.364 144.427 123.552 144.36 123.76C144.293 123.967 144.276 124.188 144.31 124.403C144.31 125.363 144.98 125.763 145.77 126.133L147.3 126.873C147.884 127.137 148.387 127.553 148.755 128.078C149.124 128.602 149.345 129.216 149.396 129.854C149.447 130.493 149.325 131.134 149.044 131.71C148.763 132.287 148.333 132.777 147.798 133.13C147.263 133.483 146.643 133.686 146.003 133.718C145.362 133.75 144.725 133.61 144.158 133.312C143.59 133.014 143.113 132.569 142.776 132.024C142.438 131.479 142.253 130.854 142.24 130.213H144.12C144.22 131.523 144.81 131.993 145.78 131.993C146.021 132.025 146.267 132.001 146.497 131.923C146.728 131.845 146.937 131.715 147.11 131.542C147.282 131.37 147.412 131.161 147.49 130.93C147.568 130.7 147.592 130.454 147.56 130.213C147.56 129.293 147.26 128.833 146 128.213L144.49 127.473C143.838 127.238 143.284 126.79 142.916 126.203C142.548 125.616 142.387 124.922 142.46 124.233C142.46 122.573 143.55 121.063 145.99 121.063C148.68 121.063 149.35 122.963 149.4 124.503H147.55Z" fill="white"/>
<path d="M152.51 124.533C152.529 123.611 152.908 122.734 153.566 122.087C154.224 121.441 155.108 121.078 156.03 121.076C156.952 121.073 157.839 121.431 158.5 122.073C159.162 122.716 159.546 123.591 159.57 124.513V130.223C159.57 131.159 159.198 132.057 158.536 132.719C157.874 133.381 156.976 133.753 156.04 133.753C155.104 133.753 154.206 133.381 153.544 132.719C152.882 132.057 152.51 131.159 152.51 130.223V124.533ZM157.73 124.873C157.73 123.513 156.96 122.873 156.05 122.873C155.14 122.873 154.37 123.513 154.37 124.873V129.923C154.37 131.213 154.96 131.923 156.05 131.923C157.09 131.923 157.73 131.253 157.73 129.923V124.873Z" fill="white"/>
<path d="M168.37 129.773H170.22V130.273C170.189 131.21 169.792 132.098 169.113 132.746C168.434 133.393 167.529 133.748 166.591 133.735C165.653 133.722 164.758 133.342 164.098 132.676C163.437 132.01 163.065 131.111 163.06 130.173V124.613C163.038 124.139 163.116 123.665 163.288 123.223C163.461 122.781 163.724 122.38 164.062 122.046C164.399 121.712 164.803 121.453 165.247 121.286C165.692 121.118 166.166 121.046 166.64 121.073C167.107 121.038 167.576 121.102 168.017 121.261C168.458 121.419 168.86 121.669 169.198 121.994C169.536 122.318 169.801 122.71 169.977 123.145C170.154 123.579 170.236 124.045 170.22 124.513V125.053H168.37V124.883C168.37 123.503 167.58 122.883 166.64 122.883C165.68 122.883 164.91 123.503 164.91 124.883V129.933C164.91 131.243 165.5 131.933 166.64 131.933C167.73 131.933 168.37 131.263 168.37 129.933V129.773Z" fill="white"/>
<path d="M175.12 116.563V118.373H173.27V116.563H175.12ZM173.27 121.263H175.12V133.533H173.27V121.263Z" fill="white"/>
<path d="M183.89 132.323H183.86C183.558 132.776 183.144 133.143 182.659 133.39C182.174 133.637 181.634 133.755 181.09 133.733C179.14 133.733 178.57 132.253 178.57 130.293C178.57 127.693 179.41 126.233 182.15 126.233C182.728 126.235 183.306 126.269 183.88 126.333V124.523C183.881 124.298 183.837 124.076 183.75 123.87C183.663 123.663 183.534 123.476 183.372 123.321C183.21 123.165 183.018 123.044 182.808 122.966C182.598 122.887 182.374 122.852 182.15 122.863C181.729 122.847 181.318 122.995 181.004 123.277C180.69 123.559 180.499 123.952 180.47 124.373H178.69C178.685 123.914 178.776 123.458 178.958 123.036C179.14 122.614 179.408 122.235 179.745 121.923C180.083 121.611 180.482 121.374 180.917 121.226C181.351 121.077 181.812 121.022 182.27 121.063C185.11 121.063 185.73 123.163 185.73 124.753V133.533H183.88V132.324L183.89 132.323ZM183.89 127.693C183.473 127.628 183.052 127.588 182.63 127.573C182.322 127.556 182.013 127.607 181.727 127.722C181.441 127.838 181.183 128.015 180.973 128.241C180.763 128.467 180.605 128.737 180.511 129.031C180.418 129.325 180.39 129.637 180.43 129.943C180.43 131.673 180.95 132.143 182.01 132.143C182.543 132.04 183.023 131.754 183.366 131.333C183.71 130.913 183.895 130.385 183.89 129.843V127.693Z" fill="white"/>
<path d="M191.28 116.563V118.373H189.43V116.563H191.28ZM189.42 121.263H191.27V133.533H189.42V121.263Z" fill="white"/>
<path d="M199.68 124.503C199.56 123.123 198.79 122.823 198.02 122.823C197.805 122.789 197.584 122.806 197.377 122.873C197.17 122.94 196.981 123.056 196.827 123.21C196.673 123.364 196.557 123.552 196.49 123.76C196.423 123.967 196.406 124.188 196.44 124.403C196.44 125.363 197.11 125.763 197.9 126.133L199.43 126.873C200.014 127.137 200.517 127.553 200.885 128.078C201.254 128.602 201.475 129.216 201.526 129.854C201.577 130.493 201.455 131.134 201.174 131.71C200.893 132.287 200.463 132.777 199.928 133.13C199.393 133.483 198.773 133.686 198.133 133.718C197.492 133.75 196.855 133.61 196.288 133.312C195.72 133.014 195.243 132.569 194.906 132.024C194.568 131.479 194.383 130.854 194.37 130.213H196.25C196.35 131.523 196.94 131.993 197.91 131.993C198.151 132.025 198.397 132.001 198.627 131.923C198.858 131.845 199.067 131.715 199.24 131.542C199.412 131.37 199.542 131.161 199.62 130.93C199.698 130.7 199.722 130.454 199.69 130.213C199.69 129.293 199.39 128.833 198.13 128.213L196.62 127.473C195.968 127.238 195.414 126.79 195.046 126.203C194.678 125.616 194.517 124.922 194.59 124.233C194.59 122.573 195.68 121.063 198.12 121.063C200.81 121.063 201.48 122.963 201.53 124.503H199.68Z" fill="white"/>
<path d="M206.82 131.433V133.533H204.7V131.433H206.82Z" fill="white"/>
</svg>
