<svg width="1041" height="138" viewBox="0 0 1041 138" fill="none" xmlns="http://www.w3.org/2000/svg">
<path d="M0.329944 8.49317C0.308566 7.30789 0.54042 6.1315 1.00997 5.04298C1.42961 4.09096 2.04654 3.23885 2.81996 2.54298C3.54382 1.90727 4.38207 1.41498 5.28997 1.09278C7.09023 0.426105 9.06969 0.426105 10.87 1.09278C11.7883 1.42501 12.6412 1.91598 13.39 2.54298C14.145 3.24629 14.7474 4.09721 15.16 5.04298C15.6296 6.13148 15.8614 7.30788 15.84 8.49317V25.5532C15.8663 26.6938 15.6338 27.825 15.16 28.8628L18.0199 31.1729L15.66 33.9829L12.94 31.7632C11.5678 32.8771 9.84707 33.4716 8.07994 33.4429C7.128 33.4391 6.18397 33.2699 5.28997 32.9429C4.37292 32.6166 3.53235 32.1061 2.81996 31.4429C2.04591 30.7872 1.42761 29.9674 1.00997 29.043C0.530774 27.9434 0.298628 26.7523 0.329944 25.5532V8.49317ZM4.95995 25.5532C4.92161 26.0082 4.9852 26.4658 5.14608 26.8931C5.30695 27.3204 5.5611 27.7063 5.88997 28.023C6.50082 28.5485 7.2843 28.8299 8.08995 28.813C8.43256 28.8286 8.77429 28.7669 9.08995 28.6328L6.99996 26.9531L9.35994 24.1431L11.22 25.6431V8.49317C11.2583 8.03822 11.1947 7.58012 11.0338 7.15284C10.873 6.72556 10.6188 6.33964 10.29 6.02296C9.67911 5.49739 8.89561 5.216 8.08995 5.23292C7.28505 5.22057 6.50315 5.50139 5.88997 6.02296C5.56104 6.3396 5.30687 6.72555 5.14598 7.15284C4.9851 7.58013 4.92154 8.03822 4.95995 8.49317V25.5532Z" fill="black"/>
<path d="M36.04 0.873047V25.9229C36.05 26.928 35.8561 27.9249 35.47 28.853C35.0911 29.7424 34.5444 30.5503 33.86 31.2329C33.171 31.924 32.3564 32.4771 31.46 32.8628C30.5437 33.2554 29.5568 33.4565 28.56 33.4531C27.5693 33.4595 26.5883 33.2582 25.68 32.8628C23.89 32.0729 22.4599 30.643 21.67 28.853C21.2715 27.9281 21.0706 26.9299 21.08 25.9229V0.873047H25.71V25.4629C25.6701 25.9196 25.7222 26.3797 25.863 26.8159C26.0039 27.2522 26.2306 27.6557 26.53 28.0029C26.7967 28.2707 27.1151 28.4816 27.4658 28.6226C27.8165 28.7635 28.1921 28.8319 28.57 28.8232C28.9481 28.8341 29.3244 28.7666 29.6754 28.6255C30.0264 28.4844 30.3445 28.2725 30.61 28.0029C31.209 27.2983 31.5039 26.3847 31.43 25.4629V0.873047H36.04Z" fill="black"/>
<path d="M38.9 33.1831L46.11 0.873047H49.97L57.18 33.1831H52.55L51.19 26.2432H44.88L43.52 33.1831H38.9ZM50.33 21.8828L48.06 10.1729H47.97L45.7 21.8828H50.33Z" fill="black"/>
<path d="M60.4099 33.1831V0.873047H64.86L71.8499 20.3428H71.94V0.873047H76.57V33.1831H72.21L65.13 13.7632H65.0399V33.1831H60.4099Z" fill="black"/>
<path d="M84.9099 33.1831V5.23291H79.56V0.873047H94.9V5.23291H89.55V33.1831H84.9099Z" fill="black"/>
<path d="M97.25 8.49317C97.2285 7.30789 97.4604 6.13149 97.9299 5.04298C98.3496 4.09096 98.9665 3.23885 99.7399 2.54298C100.464 1.90725 101.302 1.41496 102.21 1.09278C104.01 0.426105 105.99 0.426105 107.79 1.09278C108.708 1.42503 109.561 1.916 110.31 2.54298C111.065 3.24631 111.667 4.09723 112.08 5.04298C112.55 6.13148 112.781 7.30788 112.76 8.49317V25.5532C112.791 26.7523 112.559 27.9434 112.08 29.043C111.669 29.9606 111.065 30.7791 110.31 31.4429C109.573 32.099 108.718 32.6081 107.79 32.9429C105.99 33.6096 104.01 33.6096 102.21 32.9429C101.293 32.6166 100.452 32.1061 99.7399 31.4429C98.9659 30.7872 98.3476 29.9674 97.9299 29.043C97.4508 27.9434 97.2186 26.7523 97.25 25.5532V8.49317ZM101.88 25.5532C101.842 26.0082 101.905 26.4658 102.066 26.8931C102.227 27.3204 102.481 27.7063 102.81 28.023C103.429 28.5337 104.207 28.813 105.01 28.813C105.813 28.813 106.591 28.5337 107.21 28.023C107.539 27.7063 107.793 27.3204 107.954 26.8931C108.115 26.4658 108.178 26.0082 108.14 25.5532V8.49317C108.178 8.03822 108.115 7.58012 107.954 7.15284C107.793 6.72556 107.539 6.33964 107.21 6.02296C106.599 5.49739 105.816 5.216 105.01 5.23292C104.205 5.22057 103.423 5.50139 102.81 6.02296C102.481 6.3396 102.227 6.72555 102.066 7.15284C101.905 7.58013 101.842 8.03822 101.88 8.49317V25.5532Z" fill="black"/>
<path d="M143.26 0.873047L136.64 33.1831H132.56L125.98 0.873047H130.88L134.56 23.4229H134.65L138.37 0.873047H143.26Z" fill="black"/>
<path d="M143.4 33.1831L150.61 0.873047H154.47L161.68 33.1831H157.05L155.69 26.2432H149.38L148.02 33.1831H143.4ZM154.83 21.8828L152.56 10.1729H152.47L150.2 21.8828H154.83Z" fill="black"/>
<path d="M165.09 33.1831V0.873047H169.72V28.5532H178.89V33.1831H165.09Z" fill="black"/>
<path d="M183.01 33.1831V0.873047H196.8V5.23291H187.63V14.7129H195.62V19.0732H187.63V28.5532H196.8V33.1831H183.01Z" fill="black"/>
<path d="M225.21 23.9631V25.9631C225.214 26.9386 225.02 27.9052 224.64 28.8034C224.268 29.687 223.736 30.4938 223.07 31.1833C222.404 31.8822 221.61 32.4456 220.73 32.843C219.826 33.2544 218.843 33.4629 217.85 33.4533C216.945 33.4497 216.044 33.3283 215.17 33.093C214.27 32.8533 213.434 32.4203 212.72 31.8235C211.961 31.1819 211.351 30.3833 210.93 29.4831C210.422 28.3356 210.182 27.0873 210.23 25.8332V8.04319C210.221 7.03447 210.404 6.03307 210.77 5.093C211.118 4.20995 211.642 3.40711 212.31 2.73313C212.991 2.05638 213.8 1.52276 214.69 1.16331C215.662 0.773408 216.702 0.579378 217.75 0.592995C218.735 0.55538 219.717 0.72601 220.632 1.093C221.547 1.45998 222.374 2.01547 223.06 2.72337C223.738 3.43733 224.271 4.27591 224.63 5.19309C225.017 6.18374 225.211 7.23986 225.2 8.30344V10.1233H220.57V8.58323C220.587 7.73225 220.315 6.90073 219.8 6.22337C219.559 5.89946 219.243 5.63882 218.879 5.46458C218.514 5.29034 218.113 5.20775 217.71 5.22337C217.266 5.16537 216.815 5.23501 216.409 5.42454C216.003 5.61407 215.66 5.91545 215.42 6.29319C215.011 7.13273 214.815 8.06024 214.85 8.99339V25.5134C214.82 26.3426 215.032 27.1626 215.46 27.8733C215.713 28.2088 216.049 28.4728 216.434 28.6394C216.82 28.8059 217.242 28.8694 217.66 28.8235C217.993 28.8203 218.323 28.7662 218.64 28.6633C218.995 28.5506 219.327 28.3744 219.62 28.1433C219.919 27.8654 220.151 27.5236 220.3 27.1433C220.495 26.6367 220.587 26.0962 220.57 25.5534V23.9631H225.21Z" fill="black"/>
<path d="M229.84 8.49317C229.819 7.30789 230.05 6.13149 230.52 5.04298C230.94 4.09096 231.557 3.23885 232.33 2.54298C233.054 1.90725 233.892 1.41496 234.8 1.09278C236.6 0.426105 238.58 0.426105 240.38 1.09278C241.298 1.42503 242.151 1.916 242.9 2.54298C243.655 3.24631 244.257 4.09723 244.67 5.04298C245.14 6.13148 245.371 7.30788 245.35 8.49317V25.5532C245.381 26.7523 245.149 27.9434 244.67 29.043C244.259 29.9606 243.655 30.7791 242.9 31.4429C242.163 32.099 241.308 32.6081 240.38 32.9429C238.58 33.6096 236.6 33.6096 234.8 32.9429C233.883 32.6166 233.042 32.1061 232.33 31.4429C231.556 30.7872 230.938 29.9674 230.52 29.043C230.041 27.9434 229.809 26.7523 229.84 25.5532V8.49317ZM234.47 25.5532C234.432 26.0082 234.495 26.4658 234.656 26.8931C234.817 27.3204 235.071 27.7063 235.4 28.023C236.019 28.5337 236.797 28.813 237.6 28.813C238.403 28.813 239.181 28.5337 239.8 28.023C240.129 27.7063 240.383 27.3204 240.544 26.8931C240.705 26.4658 240.768 26.0082 240.73 25.5532V8.49317C240.768 8.03822 240.705 7.58012 240.544 7.15284C240.383 6.72556 240.129 6.33964 239.8 6.02296C239.189 5.49739 238.406 5.216 237.6 5.23292C236.795 5.22057 236.013 5.50139 235.4 6.02296C235.071 6.3396 234.817 6.72555 234.656 7.15284C234.495 7.58013 234.432 8.03822 234.47 8.49317V25.5532Z" fill="black"/>
<path d="M250.4 33.1831V0.873047H254.85L261.84 20.3428H261.93V0.873047H266.56V33.1831H262.2L255.12 13.7632H255.03V33.1831H250.4Z" fill="black"/>
<path d="M271.59 8.49317C271.569 7.30789 271.8 6.13149 272.27 5.04298C272.69 4.09096 273.307 3.23885 274.08 2.54298C274.804 1.90725 275.642 1.41496 276.55 1.09278C278.35 0.426105 280.33 0.426105 282.13 1.09278C283.048 1.42503 283.901 1.916 284.65 2.54298C285.405 3.24631 286.007 4.09723 286.42 5.04298C286.89 6.13148 287.121 7.30788 287.1 8.49317V25.5532C287.126 26.6938 286.894 27.825 286.42 28.8628L289.28 31.1729L286.92 33.9829L284.2 31.7632C282.828 32.8771 281.107 33.4716 279.34 33.4429C278.388 33.4391 277.444 33.2699 276.55 32.9429C275.633 32.6166 274.792 32.1061 274.08 31.4429C273.306 30.7872 272.688 29.9674 272.27 29.043C271.791 27.9434 271.559 26.7523 271.59 25.5532V8.49317ZM276.21 25.5532C276.172 26.0082 276.235 26.4658 276.396 26.8931C276.557 27.3204 276.811 27.7063 277.14 28.023C277.751 28.5485 278.534 28.8299 279.34 28.813C279.683 28.8286 280.024 28.7669 280.34 28.6328L278.25 26.9531L280.61 24.1431L282.47 25.6431V8.49317C282.508 8.03822 282.445 7.58012 282.284 7.15284C282.123 6.72556 281.869 6.33964 281.54 6.02296C280.929 5.49739 280.146 5.216 279.34 5.23292C278.535 5.22057 277.753 5.50139 277.14 6.02296C276.811 6.3396 276.557 6.72555 276.396 7.15284C276.235 7.58013 276.172 8.03822 276.21 8.49317V25.5532Z" fill="black"/>
<path d="M307.3 0.873047V25.9229C307.31 26.928 307.116 27.9249 306.73 28.853C306.351 29.7424 305.804 30.5503 305.12 31.2329C304.431 31.924 303.616 32.4771 302.72 32.8628C301.804 33.2554 300.817 33.4565 299.82 33.4531C298.829 33.4595 297.848 33.2582 296.94 32.8628C295.15 32.0729 293.72 30.643 292.93 28.853C292.532 27.9281 292.331 26.9299 292.34 25.9229V0.873047H296.97V25.4629C296.93 25.9196 296.982 26.3797 297.123 26.8159C297.264 27.2522 297.491 27.6557 297.79 28.0029C298.057 28.2707 298.375 28.4816 298.726 28.6226C299.076 28.7635 299.452 28.8319 299.83 28.8232C300.208 28.8341 300.584 28.7666 300.935 28.6255C301.286 28.4844 301.605 28.2725 301.87 28.0029C302.469 27.2983 302.764 26.3847 302.69 25.4629V0.873047H307.3Z" fill="black"/>
<path d="M312.92 33.1831V0.873047H317.55V33.1831H312.92Z" fill="black"/>
<path d="M338.15 10.1729H333.52V9.13289C333.544 8.16264 333.283 7.20662 332.77 6.38289C332.488 5.98566 332.107 5.66949 331.665 5.4659C331.223 5.26231 330.735 5.17878 330.25 5.22322C329.713 5.19823 329.18 5.32272 328.71 5.58308C328.329 5.81123 328.004 6.12242 327.76 6.49324C327.511 6.90466 327.341 7.35905 327.26 7.83308C327.166 8.35118 327.12 8.87644 327.12 9.40291C327.113 9.93381 327.137 10.465 327.19 10.9932C327.23 11.3882 327.346 11.7716 327.53 12.1231C327.724 12.4666 327.994 12.7607 328.32 12.983C328.77 13.275 329.249 13.5197 329.75 13.713L333.29 15.1231C334.193 15.4433 335.038 15.9094 335.79 16.503C336.408 17.0101 336.918 17.6356 337.29 18.3428C337.637 19.128 337.867 19.9606 337.97 20.8131C338.097 21.8581 338.157 22.9102 338.15 23.963C338.157 25.2378 338.02 26.5093 337.74 27.753C337.514 28.8249 337.064 29.8372 336.42 30.7232C335.763 31.5847 334.905 32.2716 333.92 32.7232C332.732 33.2392 331.445 33.4884 330.15 33.4532C329.078 33.4602 328.015 33.2595 327.02 32.8629C326.086 32.492 325.236 31.9379 324.52 31.233C323.819 30.5343 323.256 29.7103 322.86 28.8033C322.445 27.8511 322.237 26.8218 322.25 25.7833V24.0631H326.88V25.5133C326.872 26.3381 327.136 27.1427 327.63 27.8033C327.936 28.1649 328.325 28.4464 328.764 28.6241C329.203 28.8018 329.679 28.8703 330.15 28.8233C330.782 28.8561 331.412 28.7393 331.99 28.483C332.42 28.2657 332.776 27.9243 333.01 27.503C333.267 27.0355 333.414 26.5157 333.44 25.983C333.49 25.393 333.51 24.7333 333.51 24.0133C333.517 23.3155 333.487 22.6175 333.42 21.9229C333.383 21.4644 333.261 21.017 333.06 20.6031C332.845 20.27 332.558 19.9899 332.22 19.7833C331.776 19.5251 331.315 19.2977 330.84 19.1031L327.53 17.7432C325.842 17.1806 324.414 16.0263 323.51 14.4932C322.779 12.9096 322.429 11.1764 322.49 9.43318C322.486 8.26482 322.654 7.10204 322.99 5.98299C323.288 4.95164 323.799 3.99426 324.49 3.17293C325.146 2.36947 325.977 1.72658 326.92 1.29304C328.026 0.799242 329.229 0.559833 330.44 0.592849C331.523 0.579261 332.596 0.794295 333.59 1.22322C334.512 1.62186 335.35 2.19164 336.06 2.90291C336.721 3.55518 337.246 4.33202 337.605 5.18855C337.963 6.04508 338.149 6.96452 338.15 7.89314V10.1729Z" fill="black"/>
<path d="M345.77 33.1831V5.23291H340.42V0.873047H355.76V5.23291H350.41V33.1831H345.77Z" fill="black"/>
<path d="M354.35 33.1831L361.56 0.873047H365.42L372.63 33.1831H368L366.64 26.2432H360.33L358.97 33.1831H354.35ZM365.79 21.8828L363.52 10.1729H363.43L361.16 21.8828H365.79Z" fill="black"/>
<path d="M376.04 33.1831V0.873047H383.48C388.93 0.873047 391.653 4.03303 391.65 10.353C391.697 12.0165 391.397 13.6715 390.77 15.2129C390.123 16.6042 389.028 17.7383 387.66 18.4331L392.65 33.1831H387.75L383.44 19.3931H380.67V33.1831H376.04ZM380.67 5.22314V15.293H383.3C383.967 15.3231 384.633 15.2072 385.25 14.9531C385.713 14.7424 386.106 14.4021 386.38 13.9731C386.643 13.4854 386.812 12.9527 386.88 12.4028C387.067 10.9689 387.067 9.51696 386.88 8.08301C386.809 7.51583 386.625 6.96868 386.34 6.47314C385.76 5.62314 384.68 5.20312 383.07 5.20312H380.67V5.22314Z" fill="black"/>
<path d="M421.05 10.1729H416.42V9.13289C416.444 8.16264 416.183 7.20662 415.67 6.38289C415.388 5.98566 415.007 5.66949 414.565 5.4659C414.123 5.26231 413.635 5.17878 413.15 5.22322C412.613 5.19823 412.08 5.32272 411.61 5.58308C411.229 5.81123 410.904 6.12242 410.66 6.49324C410.411 6.90466 410.241 7.35905 410.16 7.83308C410.066 8.35118 410.02 8.87644 410.02 9.40291C410.013 9.93381 410.037 10.465 410.09 10.9932C410.13 11.3882 410.246 11.7716 410.43 12.1231C410.624 12.4666 410.894 12.7607 411.22 12.983C411.67 13.275 412.149 13.5197 412.65 13.713L416.19 15.1231C417.093 15.4433 417.938 15.9094 418.69 16.503C419.308 17.0101 419.818 17.6356 420.19 18.3428C420.538 19.128 420.767 19.9606 420.87 20.8131C420.997 21.8581 421.057 22.9102 421.05 23.963C421.057 25.2378 420.92 26.5093 420.64 27.753C420.414 28.8249 419.964 29.8372 419.32 30.7232C418.663 31.5847 417.805 32.2716 416.82 32.7232C415.632 33.2392 414.345 33.4884 413.05 33.4532C411.978 33.4602 410.915 33.2595 409.92 32.8629C408.986 32.492 408.136 31.9379 407.42 31.233C406.719 30.5343 406.156 29.7103 405.76 28.8033C405.345 27.8511 405.137 26.8218 405.15 25.7833V24.0631H409.78V25.5133C409.772 26.3381 410.036 27.1427 410.53 27.8033C410.836 28.1649 411.225 28.4464 411.664 28.6241C412.103 28.8018 412.579 28.8703 413.05 28.8233C413.681 28.8561 414.312 28.7393 414.89 28.483C415.32 28.2657 415.676 27.9243 415.91 27.503C416.167 27.0355 416.314 26.5157 416.34 25.983C416.39 25.393 416.41 24.7333 416.41 24.0133C416.417 23.3155 416.387 22.6175 416.32 21.9229C416.283 21.4644 416.161 21.017 415.96 20.6031C415.745 20.27 415.458 19.9899 415.12 19.7833C414.676 19.5251 414.215 19.2977 413.74 19.1031L410.43 17.7432C408.742 17.1806 407.314 16.0263 406.41 14.4932C405.679 12.9096 405.329 11.1764 405.39 9.43318C405.386 8.26482 405.554 7.10204 405.89 5.98299C406.188 4.95164 406.699 3.99426 407.39 3.17293C408.046 2.36947 408.877 1.72658 409.82 1.29304C410.926 0.799242 412.129 0.559833 413.34 0.592849C414.423 0.579261 415.496 0.794295 416.49 1.22322C417.412 1.62186 418.25 2.19164 418.96 2.90291C419.621 3.55518 420.146 4.33202 420.505 5.18855C420.863 6.04508 421.049 6.96452 421.05 7.89314V10.1729Z" fill="black"/>
<path d="M440.61 0.873047V25.9229C440.62 26.928 440.426 27.9249 440.04 28.853C439.661 29.7424 439.114 30.5503 438.43 31.2329C437.741 31.924 436.926 32.4771 436.03 32.8628C435.114 33.2554 434.127 33.4565 433.13 33.4531C432.139 33.4595 431.158 33.2582 430.25 32.8628C428.46 32.0729 427.03 30.643 426.24 28.853C425.842 27.9281 425.641 26.9299 425.65 25.9229V0.873047H430.28V25.4629C430.24 25.9196 430.292 26.3797 430.433 26.8159C430.574 27.2522 430.801 27.6557 431.1 28.0029C431.367 28.2707 431.685 28.4816 432.036 28.6226C432.386 28.7635 432.762 28.8319 433.14 28.8232C433.518 28.8341 433.894 28.7666 434.245 28.6255C434.596 28.4844 434.915 28.2725 435.18 28.0029C435.779 27.2983 436.074 26.3847 436 25.4629V0.873047H440.61Z" fill="black"/>
<path d="M443.47 33.1831L450.68 0.873047H454.54L461.75 33.1831H457.12L455.76 26.2432H449.45L448.09 33.1831H443.47ZM454.9 21.8828L452.63 10.1729H452.54L450.27 21.8828H454.9Z" fill="black"/>
<path d="M474.73 33.1831V0.873047H479.36V28.5532H488.53V33.1831H474.73Z" fill="black"/>
<path d="M492.79 33.1831V0.873047H497.42V33.1831H492.79Z" fill="black"/>
<path d="M503.05 33.1833V0.87325H509.81C511.106 0.840014 512.396 1.07157 513.6 1.55343C514.577 1.95961 515.451 2.57742 516.16 3.363C516.82 4.11937 517.308 5.01019 517.59 5.97335C517.88 6.96724 518.025 7.998 518.02 9.03341V10.2131C518.031 10.958 517.964 11.7023 517.82 12.4333C517.7 12.9916 517.494 13.5277 517.21 14.0232C516.621 14.9379 515.809 15.6882 514.85 16.2033C515.886 16.6635 516.733 17.4647 517.25 18.4733C517.819 19.7555 518.082 21.1522 518.02 22.5534V24.3732C518.02 27.2132 517.333 29.3897 515.96 30.903C514.59 32.413 512.38 33.1731 509.36 33.1731H503.05V33.1833ZM507.68 5.22335V14.113H509.77C511.31 14.113 512.35 13.7233 512.88 12.9533C513.472 11.9298 513.747 10.7535 513.67 9.57345C513.756 8.41521 513.445 7.26216 512.79 6.30343C512.371 5.89521 511.867 5.58525 511.313 5.39669C510.76 5.20813 510.171 5.14537 509.59 5.21309H507.68V5.22335ZM507.68 18.2033V28.5534H509.68C510.435 28.5883 511.188 28.4478 511.88 28.1433C512.384 27.8955 512.802 27.5019 513.08 27.0134C513.366 26.4817 513.536 25.8953 513.58 25.2932C513.64 24.6232 513.67 23.903 513.67 23.113C513.681 22.4004 513.634 21.6882 513.53 20.9831C513.461 20.4374 513.277 19.9126 512.99 19.4431C512.682 19.0172 512.254 18.6936 511.76 18.5134C511.103 18.295 510.412 18.1967 509.72 18.2233H507.68V18.2033Z" fill="black"/>
<path d="M523.51 33.1831V0.873047H537.3V5.23291H528.13V14.7129H536.12V19.0732H528.13V28.5532H537.3V33.1831H523.51Z" fill="black"/>
<path d="M541.43 33.1831V0.873047H548.87C554.32 0.873047 557.043 4.03303 557.04 10.353C557.087 12.0165 556.787 13.6715 556.16 15.2129C555.513 16.6042 554.418 17.7383 553.05 18.4331L558.04 33.1831H553.14L548.83 19.3931H546.06V33.1831H541.43ZM546.06 5.22314V15.293H548.69C549.357 15.3231 550.022 15.2072 550.64 14.9531C551.103 14.7424 551.496 14.4021 551.77 13.9731C552.033 13.4854 552.202 12.9527 552.27 12.4028C552.457 10.9689 552.457 9.51696 552.27 8.08301C552.199 7.51583 552.015 6.96868 551.73 6.47314C551.15 5.62314 550.07 5.20312 548.46 5.20312H546.06V5.22314Z" fill="black"/>
<path d="M561.9 33.1832V0.87313H568.75C569.856 0.795468 570.966 0.948953 572.01 1.3243C573.053 1.69965 574.007 2.2888 574.81 3.05331C576.278 4.76095 577.018 6.97618 576.87 9.22323V24.3331C576.87 27.3631 576.137 29.593 574.67 31.023C573.81 31.7841 572.808 32.3671 571.722 32.7379C570.635 33.1087 569.486 33.26 568.34 33.1832H561.9ZM566.53 5.22323V28.8233H568.66C569.166 28.8764 569.677 28.8156 570.156 28.6461C570.635 28.4765 571.07 28.202 571.43 27.8429C572.046 26.947 572.336 25.8671 572.25 24.7833V9.22323C572.311 8.18324 572.042 7.15033 571.48 6.27303C571.128 5.88901 570.689 5.59451 570.201 5.41366C569.712 5.23281 569.187 5.17077 568.67 5.23299H566.53V5.22323Z" fill="black"/>
<path d="M579.73 33.1831L586.94 0.873047H590.8L598.01 33.1831H593.38L592.02 26.2432H585.71L584.35 33.1831H579.73ZM591.17 21.8828L588.9 10.1729H588.81L586.54 21.8828H591.17Z" fill="black"/>
<path d="M601.42 33.1832V0.87313H608.27C609.376 0.795468 610.486 0.948953 611.53 1.3243C612.573 1.69965 613.527 2.2888 614.33 3.05331C615.798 4.76095 616.538 6.97618 616.39 9.22323V24.3331C616.39 27.3631 615.657 29.593 614.19 31.023C613.33 31.7841 612.328 32.3671 611.242 32.7379C610.155 33.1087 609.006 33.26 607.86 33.1832H601.42ZM606.05 5.22323V28.8233H608.18C608.686 28.8764 609.197 28.8156 609.676 28.6461C610.155 28.4765 610.59 28.202 610.95 27.8429C611.566 26.947 611.856 25.8671 611.77 24.7833V9.22323C611.831 8.18324 611.562 7.15033 611 6.27303C610.648 5.88901 610.209 5.59451 609.721 5.41366C609.232 5.23281 608.707 5.17077 608.19 5.23299H606.05V5.22323Z" fill="black"/>
<path d="M621.89 33.1831V0.873047H635.68V5.23291H626.51V14.7129H634.5V19.0732H626.51V28.5532H635.68V33.1831H621.89Z" fill="black"/>
<path d="M649.38 33.1832V0.87313H656.23C657.336 0.795468 658.446 0.948953 659.49 1.3243C660.533 1.69965 661.487 2.2888 662.29 3.05331C663.758 4.76095 664.498 6.97618 664.35 9.22323V24.3331C664.35 27.3631 663.617 29.593 662.15 31.023C661.29 31.7841 660.288 32.3671 659.202 32.7379C658.115 33.1087 656.965 33.26 655.82 33.1832H649.38ZM654.01 5.22323V28.8233H656.14C656.646 28.8764 657.157 28.8156 657.636 28.6461C658.115 28.4765 658.55 28.202 658.91 27.8429C659.526 26.947 659.816 25.8671 659.73 24.7833V9.22323C659.791 8.18324 659.522 7.15033 658.96 6.27303C658.608 5.88901 658.169 5.59451 657.681 5.41366C657.192 5.23281 656.667 5.17077 656.15 5.23299H654.01V5.22323Z" fill="black"/>
<path d="M669.85 33.1831V0.873047H683.64V5.23291H674.47V14.7129H682.46V19.0732H674.47V28.5532H683.64V33.1831H669.85Z" fill="black"/>
<path d="M697.34 33.1831V0.873047H711.13V5.23291H701.96V14.7129H709.95V19.0732H701.96V28.5532H711.13V33.1831H697.34Z" fill="black"/>
<path d="M730.24 10.1729H725.61V9.13289C725.634 8.16264 725.373 7.20662 724.86 6.38289C724.58 5.98407 724.199 5.66674 723.757 5.46297C723.314 5.2592 722.825 5.17661 722.34 5.22322C721.803 5.19823 721.27 5.32272 720.8 5.58308C720.419 5.81123 720.094 6.12242 719.85 6.49324C719.601 6.90465 719.431 7.35905 719.35 7.83308C719.257 8.35119 719.21 8.87644 719.21 9.40291C719.203 9.9338 719.227 10.465 719.28 10.9932C719.316 11.3891 719.431 11.7734 719.62 12.1231C719.814 12.4666 720.084 12.7607 720.41 12.983C720.859 13.2769 721.339 13.5216 721.84 13.713L725.38 15.1231C726.283 15.4433 727.128 15.9094 727.88 16.503C728.495 17.0129 729.005 17.6377 729.38 18.3428C729.728 19.128 729.957 19.9606 730.06 20.8131C730.187 21.8581 730.248 22.9102 730.24 23.963C730.248 25.2378 730.11 26.5093 729.83 27.753C729.604 28.8249 729.154 29.8372 728.51 30.7232C727.856 31.5869 726.996 32.2742 726.01 32.7232C724.822 33.2382 723.535 33.4874 722.24 33.4532C721.168 33.4602 720.106 33.2596 719.11 32.8629C718.176 32.492 717.326 31.9379 716.61 31.233C715.909 30.5342 715.346 29.7102 714.95 28.8033C714.535 27.8511 714.327 26.8218 714.34 25.7833V24.0631H718.97V25.5133C718.962 26.3381 719.226 27.1427 719.72 27.8033C720.026 28.1649 720.415 28.4464 720.854 28.6241C721.293 28.8018 721.769 28.8703 722.24 28.8233C722.872 28.8561 723.502 28.7393 724.08 28.483C724.51 28.2656 724.866 27.9243 725.1 27.503C725.355 27.0349 725.502 26.5154 725.53 25.983C725.57 25.393 725.6 24.7333 725.6 24.0133C725.607 23.3155 725.577 22.6175 725.51 21.9229C725.473 21.4644 725.351 21.017 725.15 20.6031C724.935 20.27 724.648 19.9898 724.31 19.7833C723.868 19.5212 723.407 19.2937 722.93 19.1031L719.62 17.7432C717.932 17.1806 716.504 16.0263 715.6 14.4932C714.869 12.9097 714.519 11.1764 714.58 9.43318C714.576 8.26482 714.744 7.10204 715.08 5.98299C715.378 4.95157 715.889 3.99416 716.58 3.17293C717.234 2.36723 718.066 1.7239 719.01 1.29304C720.116 0.799242 721.319 0.559833 722.53 0.592849C723.613 0.579261 724.686 0.794295 725.68 1.22322C726.602 1.62188 727.44 2.19166 728.15 2.90291C728.811 3.55518 729.336 4.33202 729.695 5.18855C730.054 6.04508 730.239 6.96452 730.24 7.89314V10.1729Z" fill="black"/>
<path d="M749.53 23.9631V25.9631C749.534 26.9386 749.34 27.9052 748.96 28.8034C748.588 29.687 748.056 30.4938 747.39 31.1833C746.724 31.8822 745.93 32.4456 745.05 32.843C744.146 33.2544 743.163 33.4629 742.17 33.4533C741.265 33.4496 740.364 33.3283 739.49 33.093C738.591 32.8533 737.754 32.4204 737.04 31.8235C736.281 31.1819 735.671 30.3832 735.25 29.4831C734.742 28.3356 734.503 27.0873 734.55 25.8332V8.04319C734.541 7.03447 734.724 6.03307 735.09 5.093C735.438 4.20994 735.962 3.40709 736.63 2.73313C737.311 2.05638 738.12 1.52276 739.01 1.16331C739.982 0.773408 741.022 0.579378 742.07 0.592995C743.055 0.55538 744.037 0.72601 744.952 1.093C745.867 1.45998 746.694 2.01547 747.38 2.72337C748.058 3.4373 748.591 4.27589 748.95 5.19309C749.337 6.18374 749.531 7.23986 749.52 8.30344V10.1233H744.89V8.58323C744.907 7.73225 744.635 6.90073 744.12 6.22337C743.879 5.89946 743.563 5.63882 743.199 5.46458C742.835 5.29034 742.433 5.20775 742.03 5.22337C741.586 5.16537 741.135 5.23501 740.729 5.42454C740.324 5.61407 739.98 5.91545 739.74 6.29319C739.331 7.13273 739.135 8.06024 739.17 8.99339V25.5134C739.14 26.3426 739.352 27.1626 739.78 27.8733C740.033 28.2088 740.369 28.4728 740.754 28.6394C741.14 28.8059 741.562 28.8694 741.98 28.8235C742.313 28.8203 742.643 28.7662 742.96 28.6633C743.315 28.5506 743.647 28.3744 743.94 28.1433C744.239 27.8654 744.471 27.5235 744.62 27.1433C744.816 26.6367 744.907 26.0962 744.89 25.5534V23.9631H749.53Z" fill="black"/>
<path d="M752.34 33.1831L759.55 0.873047H763.41L770.62 33.1831H766L764.64 26.2432H758.33L756.97 33.1831H752.34ZM763.78 21.8828L761.51 10.1729H761.42L759.15 21.8828H763.78Z" fill="black"/>
<path d="M774.03 33.1831V0.873047H778.66V28.5532H787.83V33.1831H774.03Z" fill="black"/>
<path d="M789.87 33.1831L797.08 0.873047H800.94L808.15 33.1831H803.52L802.16 26.2432H795.85L794.49 33.1831H789.87ZM801.3 21.8828L799.03 10.1729H798.94L796.67 21.8828H801.3Z" fill="black"/>
<path d="M821.13 33.1831V0.873047H834.92V5.23291H825.75V14.7129H833.74V19.0732H825.75V28.5532H834.92V33.1831H821.13Z" fill="black"/>
<path d="M848.63 33.1831V0.873047H862.42V5.23291H853.25V15.0332H861.24V19.3931H853.25V33.1831H848.63Z" fill="black"/>
<path d="M866.69 33.1831V0.873047H871.32V33.1831H866.69Z" fill="black"/>
<path d="M876.76 33.1831V0.873047H881.21L888.2 20.3428H888.29V0.873047H892.92V33.1831H888.56L881.48 13.7632H881.39V33.1831H876.76Z" fill="black"/>
<path d="M896.14 33.1831L903.35 0.873047H907.21L914.42 33.1831H909.79L908.43 26.2432H902.12L900.76 33.1831H896.14ZM907.57 21.8828L905.3 10.1729H905.21L902.94 21.8828H907.57Z" fill="black"/>
<path d="M917.64 33.1831V0.873047H922.09L929.08 20.3428H929.17V0.873047H933.8V33.1831H929.44L922.36 13.7632H922.27V33.1831H917.64Z" fill="black"/>
<path d="M953.81 23.9631V25.9631C953.814 26.9386 953.62 27.9052 953.24 28.8034C952.868 29.687 952.336 30.4938 951.67 31.1833C951.004 31.8822 950.21 32.4456 949.33 32.843C948.426 33.2544 947.443 33.4629 946.45 33.4533C945.545 33.4496 944.644 33.3283 943.77 33.093C942.871 32.8533 942.034 32.4204 941.32 31.8235C940.561 31.1819 939.951 30.3832 939.53 29.4831C939.022 28.3356 938.783 27.0873 938.83 25.8332V8.04319C938.821 7.03447 939.004 6.03307 939.37 5.093C939.718 4.20994 940.242 3.40709 940.91 2.73313C941.591 2.05638 942.4 1.52276 943.29 1.16331C944.263 0.773408 945.302 0.579378 946.35 0.592995C947.335 0.55538 948.317 0.72601 949.232 1.093C950.147 1.45998 950.974 2.01547 951.66 2.72337C952.338 3.4373 952.872 4.27589 953.23 5.19309C953.617 6.18374 953.811 7.23986 953.8 8.30344V10.1233H949.17V8.58323C949.187 7.73225 948.915 6.90073 948.4 6.22337C948.159 5.89946 947.843 5.63882 947.479 5.46458C947.115 5.29034 946.713 5.20775 946.31 5.22337C945.866 5.16537 945.415 5.23501 945.009 5.42454C944.604 5.61407 944.26 5.91545 944.02 6.29319C943.611 7.13273 943.415 8.06024 943.45 8.99339V25.5134C943.42 26.3426 943.632 27.1626 944.06 27.8733C944.313 28.2088 944.649 28.4728 945.034 28.6394C945.42 28.8059 945.842 28.8694 946.26 28.8235C946.593 28.8203 946.923 28.7662 947.24 28.6633C947.595 28.5506 947.927 28.3744 948.22 28.1433C948.519 27.8654 948.752 27.5235 948.9 27.1433C949.096 26.6367 949.187 26.0962 949.17 25.5534V23.9631H953.81Z" fill="black"/>
<path d="M958.71 33.1831V0.873047H972.5V5.23291H963.33V14.7129H971.32V19.0732H963.33V28.5532H972.5V33.1831H958.71Z" fill="black"/>
<path d="M976.77 33.1831V0.873047H981.4V33.1831H976.77Z" fill="black"/>
<path d="M987.02 33.1831V0.873047H994.46C999.91 0.873047 1002.63 4.03303 1002.63 10.353C1002.68 12.0165 1002.38 13.6715 1001.75 15.2129C1001.1 16.6042 1000.01 17.7384 998.64 18.4331L1003.63 33.1831H998.73L994.42 19.3931H991.65V33.1831H987.02ZM991.65 5.22314V15.293H994.28C994.947 15.3231 995.613 15.2072 996.23 14.9531C996.693 14.7424 997.086 14.4021 997.36 13.9731C997.623 13.4854 997.792 12.9527 997.86 12.4028C998.047 10.9689 998.047 9.51696 997.86 8.08301C997.789 7.51582 997.605 6.96866 997.32 6.47314C996.74 5.62314 995.66 5.20312 994.05 5.20312H991.65V5.22314Z" fill="black"/>
<path d="M1005.4 33.1831L1012.61 0.873047H1016.47L1023.68 33.1831H1019.05L1017.69 26.2432H1011.38L1010.02 33.1831H1005.4ZM1016.83 21.8828L1014.56 10.1729H1014.47L1012.2 21.8828H1016.83Z" fill="black"/>
<path d="M1026.36 10.173V7.49331C1026.36 6.58226 1026.54 5.68009 1026.89 4.83902C1027.24 3.99794 1027.75 3.23427 1028.4 2.59292C1029.05 1.98134 1029.8 1.4906 1030.62 1.14322C1031.54 0.764354 1032.53 0.581028 1033.52 0.60513C1034.52 0.629232 1035.5 0.860372 1036.4 1.28335C1037.31 1.72259 1038.09 2.37819 1038.69 3.19302C1038.96 3.56687 1039.21 3.95418 1039.44 4.35318C1039.65 4.71835 1039.81 5.10819 1039.92 5.51333C1040.16 6.56857 1040.27 7.65046 1040.24 8.73306C1040.24 9.52306 1040.23 10.1833 1040.22 10.7033C1040.21 11.165 1040.17 11.6255 1040.11 12.0832C1040.06 12.4283 1039.98 12.7693 1039.88 13.1032C1039.79 13.381 1039.67 13.6466 1039.52 13.8932L1036.39 19.2433C1036.18 19.5991 1036 19.97 1035.85 20.3532C1035.7 20.735 1035.62 21.1424 1035.62 21.5534V25.1833H1030.99V20.963C1030.99 20.3129 1031.1 19.6676 1031.31 19.0534C1031.53 18.4382 1031.8 17.8454 1032.13 17.2834L1035.03 12.5631C1035.27 12.1738 1035.43 11.7429 1035.51 11.2931C1035.59 10.8439 1035.62 10.3889 1035.62 9.93326V7.5231C1035.62 7.22106 1035.57 6.92125 1035.46 6.64126C1035.34 6.36127 1035.17 6.10692 1034.96 5.89322C1034.75 5.67469 1034.5 5.50147 1034.23 5.38443C1033.95 5.26738 1033.65 5.20888 1033.35 5.21304C1032.77 5.22934 1032.21 5.43706 1031.76 5.80337C1031.5 6.00725 1031.3 6.26963 1031.16 6.569C1031.03 6.86836 1030.97 7.19566 1030.99 7.5231V10.153H1026.36V10.173ZM1030.99 33.1833V28.5534H1035.62V33.1833H1030.99Z" fill="black"/>
<path d="M18.49 60.9932C18.49 58.9632 18.65 57.013 20.44 55.333C21.7384 54.2723 23.3634 53.6929 25.04 53.6929C26.7165 53.6929 28.3416 54.2723 29.64 55.333C31.43 57.013 31.59 58.9632 31.59 60.9932V74.4829C31.667 75.8894 31.3993 77.2938 30.81 78.5732L33.11 80.3628L31.51 82.2329L29.25 80.4731C28.0296 81.3603 26.5479 81.8144 25.04 81.7632C23.35 81.8472 21.6956 81.2573 20.44 80.123C18.65 78.443 18.49 76.4929 18.49 74.4629V60.9932ZM28.67 60.373C28.723 59.8529 28.6599 59.3273 28.4853 58.8345C28.3106 58.3416 28.0287 57.8937 27.66 57.5229C26.9341 56.8979 26.0079 56.5542 25.05 56.5542C24.092 56.5542 23.1659 56.8979 22.44 57.5229C22.0693 57.8923 21.7861 58.3403 21.6113 58.8335C21.4365 59.3267 21.3746 59.8527 21.43 60.373V75.1128C21.3804 75.6388 21.4449 76.1697 21.6192 76.6685C21.7935 77.1672 22.0735 77.6223 22.44 78.0029C23.1607 78.6335 24.0927 78.969 25.05 78.9429C25.668 78.9455 26.279 78.8127 26.84 78.5532L24.62 76.793L26.18 74.9229L28.48 76.7529C28.6251 76.2187 28.6925 75.6662 28.68 75.1128V60.373H28.67Z" fill="black"/>
<path d="M48.75 81.3931H45.83V79.4829C45.3635 80.1598 44.7412 80.7147 44.0155 81.1011C43.2899 81.4874 42.482 81.6941 41.66 81.7031C38.23 81.7031 37.6 79.0929 37.6 77.2129V62.043H40.53V75.853C40.53 77.333 41.11 78.853 42.99 78.853C45.37 78.853 45.84 76.5132 45.84 75.3032V62.043H48.76V81.3931H48.75Z" fill="black"/>
<path d="M62.5999 79.4829H62.56C62.0818 80.1953 61.4291 80.7735 60.6641 81.1621C59.8991 81.5507 59.0473 81.7371 58.19 81.7031C55.11 81.7031 54.21 79.3632 54.21 76.2832C54.21 72.1932 55.54 69.8828 59.87 69.8828C60.7822 69.887 61.6935 69.9406 62.5999 70.043V67.1929C62.6017 66.8394 62.5315 66.4895 62.3933 66.1641C62.2552 65.8387 62.0522 65.5446 61.7967 65.3003C61.5412 65.056 61.2385 64.8665 60.9073 64.7432C60.576 64.6198 60.223 64.5653 59.87 64.583C59.2052 64.556 58.5561 64.7898 58.0611 65.2344C57.5661 65.679 57.2643 66.299 57.22 66.9629H54.41C54.41 63.6829 56.91 61.7329 60.07 61.7329C64.55 61.7329 65.53 65.043 65.53 67.543V81.3931H62.5999V79.4819V79.4829ZM62.5999 72.1831C61.9416 72.0737 61.2769 72.0067 60.61 71.9829C58.93 71.9829 57.14 72.8831 57.14 75.7231C57.14 78.4531 57.96 79.1929 59.64 79.1929C60.85 79.1929 62.5999 77.593 62.5999 75.563V72.1831Z" fill="black"/>
<path d="M71.33 62.043H74.26V63.9531C74.7265 63.2762 75.3487 62.7213 76.0744 62.335C76.8 61.9486 77.6079 61.742 78.43 61.7329C81.86 61.7329 82.49 64.3429 82.49 66.2129V81.3828H79.57V67.5732C79.57 66.0932 78.99 64.5732 77.11 64.5732C74.73 64.5732 74.26 66.913 74.26 68.123V81.3828H71.33V62.043Z" fill="black"/>
<path d="M91.7299 56.1528V62.043H94.46V64.3828H91.7299V76.123C91.662 76.481 91.6824 76.85 91.7894 77.1982C91.8964 77.5465 92.0866 77.8635 92.3437 78.1216C92.6008 78.3797 92.9171 78.5714 93.2649 78.6797C93.6128 78.788 93.9818 78.8097 94.34 78.7432H94.65V81.3931H93.7899C92.6999 81.3931 90.86 81.3531 89.81 80.1831C89.0173 79.1182 88.6565 77.7929 88.8 76.4731V64.3828H86.7299V62.043H88.8V56.1528H91.7299Z" fill="black"/>
<path d="M99.06 67.1929C99.0933 65.7385 99.6932 64.3547 100.732 63.336C101.77 62.3173 103.166 61.7445 104.621 61.7393C106.075 61.7341 107.475 62.2969 108.521 63.3081C109.566 64.3194 110.176 65.6987 110.22 67.1529V76.1631C110.22 77.643 109.632 79.0625 108.586 80.1089C107.539 81.1554 106.12 81.7432 104.64 81.7432C103.16 81.7432 101.741 81.1554 100.694 80.1089C99.6479 79.0625 99.06 77.643 99.06 76.1631V67.1929ZM107.29 67.7432C107.29 65.5932 106.08 64.583 104.64 64.583C103.2 64.583 101.99 65.5932 101.99 67.7432V75.7032C101.99 77.7332 102.93 78.8628 104.64 78.8628C106.28 78.8628 107.29 77.8132 107.29 75.7032V67.7432Z" fill="black"/>
<path d="M131.58 81.3931H129.28L124.21 62.0532H127.29L130.53 75.623H130.61L133.77 62.0532H136.73L131.58 81.3931Z" fill="black"/>
<path d="M148.16 79.4829H148.12C147.642 80.1953 146.989 80.7735 146.224 81.1621C145.459 81.5507 144.607 81.7371 143.75 81.7031C140.67 81.7031 139.77 79.3632 139.77 76.2832C139.77 72.1932 141.1 69.8828 145.43 69.8828C146.342 69.887 147.253 69.9406 148.16 70.043V67.1929C148.162 66.8394 148.091 66.4895 147.953 66.1641C147.815 65.8387 147.612 65.5446 147.357 65.3003C147.101 65.056 146.799 64.8665 146.467 64.7432C146.136 64.6198 145.783 64.5653 145.43 64.583C144.765 64.556 144.116 64.7898 143.621 65.2344C143.126 65.679 142.824 66.299 142.78 66.9629H139.97C139.97 63.6829 142.47 61.7329 145.63 61.7329C150.11 61.7329 151.09 65.043 151.09 67.543V81.3931H148.16V79.4829ZM148.16 72.1831C147.502 72.0737 146.837 72.0067 146.17 71.9829C144.49 71.9829 142.7 72.8831 142.7 75.7231C142.7 78.4531 143.52 79.1929 145.2 79.1929C146.41 79.1929 148.16 77.593 148.16 75.563V72.1831Z" fill="black"/>
<path d="M159.82 54.0928V76.5532C159.797 76.8409 159.837 77.1302 159.937 77.4009C160.037 77.6716 160.195 77.917 160.4 78.1206C160.604 78.3242 160.851 78.4813 161.122 78.5801C161.393 78.6789 161.682 78.7171 161.97 78.6929H162.4V81.3828H161.5C158.54 81.3828 156.9 79.6328 156.9 77.0928V54.083H159.82V54.0928Z" fill="black"/>
<path d="M174.68 75.9732H177.6V76.2432C177.6 78.1532 176.7 81.7032 172.22 81.7032C171.468 81.7507 170.714 81.6382 170.008 81.3731C169.303 81.108 168.662 80.6962 168.127 80.1651C167.592 79.634 167.176 78.9957 166.906 78.292C166.636 77.5884 166.518 76.8356 166.56 76.0831V67.1128C166.531 66.3917 166.653 65.6728 166.918 65.0015C167.183 64.3303 167.586 63.7219 168.1 63.2154C168.614 62.7088 169.228 62.3149 169.903 62.0596C170.578 61.8044 171.299 61.6932 172.02 61.733C172.762 61.7014 173.502 61.8223 174.195 62.0879C174.888 62.3536 175.519 62.7582 176.049 63.2774C176.58 63.7966 176.998 64.4193 177.279 65.1065C177.559 65.7937 177.696 66.5309 177.68 67.273V72.813H169.49V75.8931C169.49 77.9631 170.43 78.8531 172.22 78.8531C173.94 78.8531 174.68 77.8032 174.68 76.2032V75.9732ZM174.76 70.6231V67.313C174.8 66.9552 174.76 66.5931 174.645 66.252C174.53 65.911 174.341 65.5992 174.092 65.3389C173.843 65.0787 173.54 64.8763 173.205 64.7457C172.869 64.615 172.509 64.5595 172.15 64.5831C171.779 64.5757 171.411 64.6476 171.07 64.7935C170.729 64.9395 170.423 65.1564 170.172 65.4297C169.922 65.7031 169.732 66.0266 169.616 66.379C169.5 66.7313 169.461 67.1044 169.5 67.4732V70.6329H174.76V70.6231Z" fill="black"/>
<path d="M200.69 67.1528C200.5 64.9728 199.29 64.5029 198.08 64.5029C197.739 64.4483 197.39 64.4752 197.062 64.5815C196.734 64.6879 196.436 64.8708 196.192 65.1147C195.948 65.3587 195.765 65.6571 195.659 65.9854C195.552 66.3136 195.525 66.6622 195.58 67.0029C195.58 68.5229 196.63 69.1529 197.88 69.7329L200.3 70.9028C201.351 71.2969 202.244 72.025 202.842 72.9751C203.44 73.9251 203.709 75.045 203.61 76.1631C203.61 77.7631 203.03 81.7031 197.95 81.7031C193.62 81.7031 192.37 78.8531 192.29 76.1631H195.25C195.41 78.2331 196.34 78.9731 197.86 78.9731C198.241 79.0242 198.629 78.9864 198.993 78.8633C199.357 78.7401 199.688 78.535 199.96 78.2632C200.232 77.9913 200.437 77.6601 200.56 77.2959C200.684 76.9317 200.721 76.5441 200.67 76.1631C200.67 74.7231 200.2 73.9829 198.21 73.0029L195.83 71.833C192.98 70.473 192.63 68.7131 192.63 66.7231C192.63 64.1131 194.35 61.7329 198.21 61.7329C202.46 61.7329 203.51 64.7328 203.59 67.1528H200.69Z" fill="black"/>
<path d="M216.33 79.4829H216.29C215.812 80.1953 215.159 80.7735 214.394 81.1621C213.629 81.5507 212.777 81.7371 211.92 81.7031C208.84 81.7031 207.94 79.3632 207.94 76.2832C207.94 72.1932 209.27 69.8828 213.6 69.8828C214.512 69.887 215.424 69.9406 216.33 70.043V67.1929C216.332 66.8394 216.261 66.4895 216.123 66.1641C215.985 65.8387 215.782 65.5446 215.527 65.3003C215.271 65.056 214.969 64.8665 214.637 64.7432C214.306 64.6198 213.953 64.5653 213.6 64.583C212.935 64.556 212.286 64.7898 211.791 65.2344C211.296 65.679 210.994 66.299 210.95 66.9629H208.14C208.14 63.6829 210.64 61.7329 213.8 61.7329C218.28 61.7329 219.26 65.043 219.26 67.543V81.3931H216.34V79.4819L216.33 79.4829ZM216.33 72.1831C215.672 72.0737 215.007 72.0067 214.34 71.9829C212.66 71.9829 210.87 72.8831 210.87 75.7231C210.87 78.4531 211.69 79.1929 213.37 79.1929C214.58 79.1929 216.33 77.593 216.33 75.563V72.1831Z" fill="black"/>
<path d="M227.99 54.6328V57.4829H225.06V54.6328H227.99ZM225.07 62.043H228V81.3828H225.07V62.043Z" fill="black"/>
<path d="M236.73 62.043V65.083C238.8 62.273 240.59 61.7629 242.11 61.7329V65.0132H241.56C239.41 65.0132 236.72 65.873 236.72 70.123V81.3931H233.79V62.0532H236.73V62.043Z" fill="black"/>
<path d="M267.34 81.3931H264.41V79.4829C263.943 80.1598 263.321 80.7147 262.596 81.1011C261.87 81.4874 261.062 81.6941 260.24 81.7031C256.81 81.7031 256.18 79.0929 256.18 77.2129V66.2129C256.18 64.3429 256.8 61.7329 260.24 61.7329C261.062 61.7421 261.87 61.9486 262.595 62.335C263.321 62.7213 263.943 63.2763 264.41 63.9531V54.083H267.34V81.3931ZM264.42 75.3032V68.123C264.42 66.913 263.95 64.5732 261.57 64.5732C259.7 64.5732 259.11 66.0932 259.11 67.5732V75.8428C259.11 77.3228 259.69 78.8428 261.57 78.8428C263.95 78.8528 264.42 76.5132 264.42 75.3032Z" fill="black"/>
<path d="M272.99 67.1929C273.023 65.7385 273.623 64.3547 274.662 63.336C275.7 62.3173 277.096 61.7445 278.551 61.7393C280.005 61.7341 281.405 62.2969 282.451 63.3081C283.496 64.3194 284.106 65.6987 284.15 67.1529V76.1631C284.15 77.643 283.562 79.0625 282.516 80.1089C281.469 81.1554 280.05 81.7432 278.57 81.7432C277.09 81.7432 275.671 81.1554 274.624 80.1089C273.578 79.0625 272.99 77.643 272.99 76.1631V67.1929ZM281.22 67.7432C281.22 65.5932 280.01 64.583 278.57 64.583C277.13 64.583 275.92 65.5932 275.92 67.7432V75.7032C275.92 77.7332 276.86 78.8628 278.57 78.8628C280.21 78.8628 281.22 77.8132 281.22 75.7032V67.7432Z" fill="black"/>
<path d="M308.09 75.4628H311.02V76.2431C310.966 77.7217 310.335 79.1202 309.262 80.1396C308.19 81.1589 306.761 81.7176 305.282 81.6967C303.802 81.6758 302.39 81.077 301.347 80.0278C300.303 78.9785 299.712 77.5625 299.7 76.0829V67.3129C299.665 66.564 299.788 65.8158 300.061 65.1176C300.334 64.4193 300.751 63.7866 301.285 63.2602C301.819 62.7338 302.458 62.3261 303.16 62.0629C303.862 61.7998 304.612 61.6871 305.36 61.7328C306.097 61.6779 306.837 61.7785 307.533 62.0282C308.228 62.2779 308.863 62.6714 309.397 63.1825C309.931 63.6936 310.351 64.311 310.631 64.995C310.91 65.6791 311.043 66.4141 311.02 67.1528V68.0131H308.09V67.7431C308.09 65.5631 306.84 64.5829 305.36 64.5829C303.84 64.5829 302.63 65.5531 302.63 67.7431V75.703C302.63 77.773 303.57 78.8627 305.36 78.8627C307.08 78.8627 308.09 77.813 308.09 75.703V75.4628Z" fill="black"/>
<path d="M323.46 79.4829H323.42C322.942 80.1953 322.289 80.7735 321.524 81.1621C320.759 81.5507 319.907 81.7371 319.05 81.7031C315.97 81.7031 315.07 79.3632 315.07 76.2832C315.07 72.1932 316.4 69.8828 320.73 69.8828C321.642 69.887 322.554 69.9406 323.46 70.043V67.1929C323.462 66.8394 323.391 66.4895 323.253 66.1641C323.115 65.8387 322.912 65.5446 322.657 65.3003C322.401 65.056 322.099 64.8665 321.767 64.7432C321.436 64.6198 321.083 64.5653 320.73 64.583C320.065 64.556 319.416 64.7898 318.921 65.2344C318.426 65.679 318.124 66.299 318.08 66.9629H315.27C315.27 63.6829 317.77 61.7329 320.93 61.7329C325.41 61.7329 326.39 65.043 326.39 67.543V81.3931H323.47V79.4819L323.46 79.4829ZM323.46 72.1831C322.802 72.0737 322.137 72.0067 321.47 71.9829C319.79 71.9829 318 72.8831 318 75.7231C318 78.4531 318.82 79.1929 320.5 79.1929C321.71 79.1929 323.46 77.593 323.46 75.563V72.1831Z" fill="black"/>
<path d="M335.12 62.0431V63.9533C335.576 63.2757 336.191 62.7194 336.911 62.3327C337.63 61.9459 338.433 61.74 339.25 61.733C340.035 61.6802 340.819 61.8633 341.499 62.2589C342.18 62.6545 342.727 63.2446 343.07 63.9533C343.52 63.2511 344.145 62.6773 344.882 62.2882C345.62 61.8992 346.446 61.7079 347.28 61.733C349.97 61.733 351.26 63.5631 351.26 66.2931V81.3829H348.33V67.5734C348.33 65.8934 347.63 64.5734 345.87 64.5734C344.04 64.5734 343.18 66.2532 343.18 68.1232V81.3829H340.25V67.5734C340.25 66.3634 339.78 64.5734 337.83 64.5734C335.96 64.5734 335.1 66.3232 335.1 68.1232V81.3829H332.17V62.0431H335.12Z" fill="black"/>
<path d="M357.08 62.043H360V63.9531C360.466 63.2762 361.089 62.7213 361.814 62.335C362.54 61.9486 363.348 61.742 364.17 61.7329C367.6 61.7329 368.23 64.3429 368.23 66.2129V77.2129C368.23 79.0829 367.61 81.7031 364.17 81.7031C363.348 81.694 362.54 81.4874 361.814 81.1011C361.089 80.7148 360.467 80.1598 360 79.4829V89.353H357.07V62.043H357.08ZM365.31 75.853V67.583C365.31 66.103 364.73 64.583 362.85 64.583C360.47 64.583 360 66.9228 360 68.1328V75.313C360 76.523 360.47 78.8628 362.85 78.8628C364.72 78.8528 365.31 77.333 365.31 75.853Z" fill="black"/>
<path d="M373.89 67.1929C373.923 65.7385 374.523 64.3547 375.562 63.336C376.6 62.3173 377.996 61.7445 379.45 61.7393C380.905 61.7341 382.305 62.2969 383.35 63.3081C384.396 64.3194 385.006 65.6987 385.05 67.1529V76.1631C385.05 77.643 384.462 79.0625 383.416 80.1089C382.369 81.1554 380.95 81.7432 379.47 81.7432C377.99 81.7432 376.571 81.1554 375.524 80.1089C374.478 79.0625 373.89 77.643 373.89 76.1631V67.1929ZM382.11 67.7432C382.11 65.5932 380.9 64.583 379.46 64.583C378.02 64.583 376.81 65.5932 376.81 67.7432V75.7032C376.81 77.7332 377.75 78.8628 379.46 78.8628C381.1 78.8628 382.11 77.8132 382.11 75.7032V67.7432Z" fill="black"/>
<path d="M411.91 81.3931H408.99V79.4829C408.523 80.1598 407.901 80.7147 407.176 81.1011C406.45 81.4874 405.642 81.6941 404.82 81.7031C401.39 81.7031 400.76 79.0929 400.76 77.2129V66.2129C400.76 64.3429 401.38 61.7329 404.82 61.7329C405.642 61.7421 406.45 61.9486 407.176 62.335C407.901 62.7213 408.523 63.2763 408.99 63.9531V54.083H411.91V81.3931ZM408.99 75.3032V68.123C408.99 66.913 408.52 64.5732 406.14 64.5732C404.27 64.5732 403.68 66.0932 403.68 67.5732V75.8428C403.68 77.3228 404.26 78.8428 406.14 78.8428C408.52 78.8528 408.99 76.5132 408.99 75.3032Z" fill="black"/>
<path d="M425.75 79.4829H425.71C425.232 80.1953 424.579 80.7735 423.814 81.1621C423.049 81.5507 422.197 81.7371 421.34 81.7031C418.26 81.7031 417.36 79.3632 417.36 76.2832C417.36 72.1932 418.69 69.8828 423.02 69.8828C423.932 69.887 424.844 69.9406 425.75 70.043V67.1929C425.752 66.8394 425.681 66.4895 425.543 66.1641C425.405 65.8387 425.202 65.5446 424.947 65.3003C424.691 65.056 424.389 64.8665 424.057 64.7432C423.726 64.6198 423.373 64.5653 423.02 64.583C422.355 64.556 421.706 64.7898 421.211 65.2344C420.716 65.679 420.414 66.299 420.37 66.9629H417.56C417.56 63.6829 420.06 61.7329 423.22 61.7329C427.7 61.7329 428.68 65.043 428.68 67.543V81.3931H425.76V79.4819L425.75 79.4829ZM425.75 72.1831C425.092 72.0737 424.427 72.0067 423.76 71.9829C422.08 71.9829 420.29 72.8831 420.29 75.7231C420.29 78.4531 421.11 79.1929 422.79 79.1929C424 79.1929 425.75 77.593 425.75 75.563V72.1831Z" fill="black"/>
<path d="M447.48 54.6328V57.4829H444.55V54.6328H447.48ZM444.55 62.043H447.48V81.3828H444.55V62.043Z" fill="black"/>
<path d="M464.44 81.3931H461.52V79.4829C461.053 80.1598 460.431 80.7147 459.706 81.1011C458.98 81.4874 458.172 81.6941 457.35 81.7031C453.92 81.7031 453.29 79.0929 453.29 77.2129V66.2129C453.29 64.3429 453.91 61.7329 457.35 61.7329C458.172 61.7421 458.98 61.9486 459.705 62.335C460.431 62.7213 461.053 63.2763 461.52 63.9531V54.083H464.44V81.3931ZM461.52 75.3032V68.123C461.52 66.913 461.05 64.5732 458.67 64.5732C456.8 64.5732 456.21 66.0932 456.21 67.5732V75.8428C456.21 77.3228 456.79 78.8428 458.67 78.8428C461.05 78.8528 461.52 76.5132 461.52 75.3032Z" fill="black"/>
<path d="M478.21 75.9732H481.13V76.2432C481.13 78.1532 480.23 81.7032 475.75 81.7032C474.998 81.7507 474.244 81.6382 473.538 81.3731C472.833 81.108 472.192 80.6962 471.657 80.1651C471.122 79.634 470.706 78.9957 470.436 78.292C470.166 77.5884 470.048 76.8356 470.09 76.0831V67.1128C470.061 66.3917 470.183 65.6728 470.448 65.0015C470.713 64.3303 471.116 63.7219 471.63 63.2154C472.144 62.7088 472.758 62.3149 473.433 62.0596C474.108 61.8044 474.829 61.6932 475.55 61.733C476.292 61.7014 477.032 61.8223 477.725 62.0879C478.418 62.3536 479.049 62.7582 479.579 63.2774C480.11 63.7966 480.528 64.4193 480.809 65.1065C481.089 65.7937 481.226 66.5309 481.21 67.273V72.813H473.02V75.8931C473.02 77.9631 473.96 78.8531 475.75 78.8531C477.47 78.8531 478.21 77.8032 478.21 76.2032V75.9732ZM478.29 70.6231V67.313C478.33 66.9552 478.29 66.5931 478.175 66.252C478.06 65.911 477.871 65.5992 477.622 65.3389C477.373 65.0787 477.07 64.8763 476.735 64.7457C476.399 64.615 476.039 64.5595 475.68 64.5831C475.309 64.5757 474.941 64.6476 474.6 64.7935C474.259 64.9395 473.953 65.1564 473.702 65.4297C473.452 65.7031 473.262 66.0266 473.146 66.379C473.03 66.7313 472.991 67.1044 473.03 67.4732V70.6329H478.29V70.6231Z" fill="black"/>
<path d="M489.63 54.6328V57.4829H486.7V54.6328H489.63ZM486.71 62.043H489.64V81.3828H486.71V62.043Z" fill="black"/>
<path d="M503.48 79.4829H503.44C502.962 80.1953 502.309 80.7735 501.544 81.1621C500.779 81.5507 499.927 81.7371 499.07 81.7031C495.99 81.7031 495.09 79.3632 495.09 76.2832C495.09 72.1932 496.42 69.8828 500.75 69.8828C501.662 69.887 502.573 69.9406 503.48 70.043V67.1929C503.482 66.8394 503.411 66.4895 503.273 66.1641C503.135 65.8387 502.932 65.5446 502.677 65.3003C502.421 65.056 502.119 64.8665 501.787 64.7432C501.456 64.6198 501.103 64.5653 500.75 64.583C500.085 64.556 499.436 64.7898 498.941 65.2344C498.446 65.679 498.144 66.299 498.1 66.9629H495.29C495.29 63.6829 497.79 61.7329 500.95 61.7329C505.43 61.7329 506.41 65.043 506.41 67.543V81.3931H503.48V79.4829ZM503.48 72.1831C502.822 72.0737 502.157 72.0067 501.49 71.9829C499.81 71.9829 498.02 72.8831 498.02 75.7231C498.02 78.4531 498.84 79.1929 500.52 79.1929C501.73 79.1929 503.48 77.593 503.48 75.563V72.1831Z" fill="black"/>
<path d="M533.43 81.3931H530.51V79.4829C530.044 80.1598 529.421 80.7147 528.696 81.1011C527.97 81.4874 527.162 81.6941 526.34 81.7031C522.91 81.7031 522.28 79.0929 522.28 77.2129V66.2129C522.28 64.3429 522.9 61.7329 526.34 61.7329C527.162 61.7431 527.969 61.9502 528.695 62.3364C529.42 62.7227 530.043 63.277 530.51 63.9531V54.083H533.43V81.3931ZM530.51 75.3032V68.123C530.51 66.913 530.04 64.5732 527.66 64.5732C525.79 64.5732 525.2 66.0932 525.2 67.5732V75.8428C525.2 77.3228 525.78 78.8428 527.66 78.8428C530.04 78.8528 530.51 76.5132 530.51 75.3032Z" fill="black"/>
<path d="M547.2 75.9732H550.13V76.2432C550.13 78.1532 549.23 81.7032 544.75 81.7032C543.998 81.7507 543.244 81.6382 542.539 81.3731C541.833 81.108 541.192 80.6962 540.657 80.1651C540.122 79.634 539.706 78.9957 539.436 78.292C539.166 77.5884 539.048 76.8356 539.09 76.0831V67.1128C539.061 66.3917 539.183 65.6728 539.448 65.0015C539.713 64.3303 540.116 63.7219 540.63 63.2154C541.144 62.7088 541.758 62.3149 542.433 62.0596C543.108 61.8044 543.829 61.6932 544.55 61.733C545.292 61.7014 546.032 61.8223 546.725 62.0879C547.418 62.3536 548.049 62.7582 548.579 63.2774C549.11 63.7966 549.528 64.4193 549.809 65.1065C550.089 65.7937 550.226 66.5309 550.21 67.273V72.813H542.02V75.8931C542.02 77.9631 542.96 78.8531 544.75 78.8531C546.47 78.8531 547.21 77.8032 547.21 76.2032V75.9732H547.2ZM547.28 70.6231V67.313C547.32 66.9552 547.28 66.5931 547.165 66.252C547.05 65.911 546.861 65.5992 546.612 65.3389C546.363 65.0787 546.06 64.8763 545.725 64.7457C545.389 64.615 545.029 64.5595 544.67 64.5831C544.299 64.5757 543.931 64.6476 543.59 64.7935C543.249 64.9395 542.943 65.1564 542.692 65.4297C542.442 65.7031 542.252 66.0266 542.136 66.379C542.02 66.7313 541.981 67.1044 542.02 67.4732V70.6329H547.28V70.6231Z" fill="black"/>
<path d="M576.91 81.3931H573.99V79.4829C573.523 80.1598 572.901 80.7147 572.176 81.1011C571.45 81.4874 570.642 81.6941 569.82 81.7031C566.39 81.7031 565.76 79.0929 565.76 77.2129V62.043H568.68V75.853C568.68 77.333 569.27 78.853 571.14 78.853C573.52 78.853 573.99 76.5132 573.99 75.3032V62.043H576.91V81.3931Z" fill="black"/>
<path d="M585.65 62.0431V63.9533C586.106 63.2757 586.721 62.7194 587.441 62.3327C588.16 61.9459 588.963 61.74 589.78 61.733C590.566 61.6802 591.349 61.8633 592.03 62.2589C592.71 62.6545 593.257 63.2446 593.6 63.9533C594.05 63.2511 594.675 62.6773 595.412 62.2882C596.15 61.8992 596.976 61.7079 597.81 61.733C600.5 61.733 601.79 63.5631 601.79 66.2931V81.3829H598.86V67.5734C598.86 65.8934 598.16 64.5734 596.4 64.5734C594.57 64.5734 593.71 66.2532 593.71 68.1232V81.3829H590.78V67.5734C590.78 66.3634 590.31 64.5734 588.36 64.5734C586.49 64.5734 585.63 66.3232 585.63 68.1232V81.3829H582.71V62.0431H585.65Z" fill="black"/>
<path d="M615.64 79.4829H615.6C615.123 80.1962 614.47 80.7748 613.705 81.1636C612.94 81.5523 612.088 81.7383 611.23 81.7031C608.15 81.7031 607.25 79.3632 607.25 76.2832C607.25 72.1932 608.58 69.8828 612.91 69.8828C613.822 69.887 614.734 69.9406 615.64 70.043V67.1929C615.642 66.8394 615.571 66.4895 615.433 66.1641C615.295 65.8387 615.092 65.5446 614.837 65.3003C614.581 65.056 614.279 64.8665 613.947 64.7432C613.616 64.6198 613.263 64.5653 612.91 64.583C612.245 64.556 611.596 64.7898 611.101 65.2344C610.606 65.679 610.304 66.299 610.26 66.9629H607.45C607.45 63.6829 609.95 61.7329 613.11 61.7329C617.6 61.7329 618.57 65.043 618.57 67.543V81.3931H615.64V79.4819V79.4829ZM615.64 72.1831C614.982 72.0737 614.317 72.0067 613.65 71.9829C611.97 71.9829 610.18 72.8831 610.18 75.7231C610.18 78.4531 611 79.1929 612.68 79.1929C613.89 79.1929 615.64 77.593 615.64 75.563V72.1831Z" fill="black"/>
<path d="M640.09 81.3931H637.79L632.72 62.0532H635.8L639.04 75.623H639.12L642.28 62.0532H645.24L640.09 81.3931Z" fill="black"/>
<path d="M657.17 75.9732H660.1V76.2432C660.1 78.1532 659.2 81.7032 654.72 81.7032C653.968 81.7507 653.214 81.6382 652.508 81.3731C651.803 81.108 651.161 80.6962 650.627 80.1651C650.092 79.634 649.676 78.9957 649.406 78.292C649.136 77.5884 649.018 76.8356 649.06 76.0831V67.1128C649.031 66.3917 649.153 65.6728 649.418 65.0015C649.683 64.3303 650.086 63.7219 650.6 63.2154C651.114 62.7088 651.728 62.3149 652.403 62.0596C653.078 61.8044 653.799 61.6932 654.52 61.733C655.262 61.7014 656.002 61.8223 656.695 62.0879C657.388 62.3536 658.019 62.7582 658.549 63.2774C659.08 63.7966 659.498 64.4193 659.779 65.1065C660.059 65.7937 660.196 66.5309 660.18 67.273V72.813H651.99V75.8931C651.99 77.9631 652.93 78.8531 654.72 78.8531C656.44 78.8531 657.18 77.8032 657.18 76.2032V75.9732H657.17ZM657.25 70.6231V67.313C657.29 66.9552 657.25 66.5931 657.135 66.252C657.02 65.911 656.831 65.5992 656.582 65.3389C656.333 65.0787 656.03 64.8763 655.695 64.7457C655.359 64.615 654.999 64.5595 654.64 64.5831C654.269 64.5757 653.901 64.6476 653.56 64.7935C653.219 64.9395 652.913 65.1564 652.662 65.4297C652.412 65.7031 652.222 66.0266 652.106 66.379C651.99 66.7313 651.951 67.1044 651.99 67.4732V70.6329H657.25V70.6231Z" fill="black"/>
<path d="M664.7 62.043H674.76V64.3828L667.35 78.9331H674.76V81.3931H664.19V79.0532L671.64 64.5029H664.7V62.043Z" fill="black"/>
<path d="M689.54 62.043H692.46V63.9531C692.926 63.2762 693.549 62.7213 694.274 62.335C695 61.9486 695.808 61.742 696.63 61.7329C700.06 61.7329 700.69 64.3429 700.69 66.2129V77.2129C700.69 79.0829 700.07 81.7031 696.63 81.7031C695.808 81.6939 695 81.4874 694.275 81.1011C693.549 80.7148 692.927 80.1597 692.46 79.4829V89.353H689.54V62.043ZM697.77 75.853V67.583C697.77 66.103 697.19 64.583 695.31 64.583C692.93 64.583 692.46 66.9228 692.46 68.1328V75.313C692.46 76.523 692.93 78.8628 695.31 78.8628C697.19 78.8528 697.77 77.333 697.77 75.853Z" fill="black"/>
<path d="M706.35 67.1929C706.383 65.7385 706.983 64.3547 708.022 63.336C709.06 62.3173 710.456 61.7445 711.911 61.7393C713.365 61.7341 714.765 62.2969 715.811 63.3081C716.856 64.3194 717.466 65.6987 717.51 67.1529V76.1631C717.51 77.643 716.922 79.0625 715.876 80.1089C714.829 81.1554 713.41 81.7432 711.93 81.7432C710.45 81.7432 709.031 81.1554 707.984 80.1089C706.938 79.0625 706.35 77.643 706.35 76.1631V67.1929ZM714.58 67.7432C714.58 65.5932 713.37 64.583 711.93 64.583C710.49 64.583 709.28 65.5932 709.28 67.7432V75.7032C709.28 77.7332 710.22 78.8628 711.93 78.8628C713.57 78.8628 714.58 77.8132 714.58 75.7032V67.7432Z" fill="black"/>
<path d="M726.08 62.043V65.083C728.15 62.273 729.94 61.7629 731.46 61.7329V65.0132H730.91C728.76 65.0132 726.07 65.873 726.07 70.123V81.3931H723.15V62.0532H726.08V62.043Z" fill="black"/>
<path d="M748.98 56.1528V62.043H751.71V64.3828H748.98V76.123C748.912 76.481 748.932 76.85 749.039 77.1982C749.146 77.5465 749.337 77.8635 749.594 78.1216C749.851 78.3797 750.167 78.5714 750.515 78.6797C750.863 78.788 751.232 78.8097 751.59 78.7432H751.9V81.3931H751.04C749.95 81.3931 748.12 81.3531 747.06 80.1831C746.267 79.1182 745.907 77.7929 746.05 76.4731V64.3828H743.98V62.043H746.05V56.1528H748.98Z" fill="black"/>
<path d="M756.31 67.1929C756.343 65.7385 756.943 64.3547 757.982 63.336C759.02 62.3173 760.416 61.7445 761.87 61.7393C763.325 61.7341 764.725 62.2969 765.771 63.3081C766.816 64.3194 767.426 65.6987 767.47 67.1529V76.1631C767.47 77.643 766.882 79.0625 765.836 80.1089C764.789 81.1554 763.37 81.7432 761.89 81.7432C760.41 81.7432 758.991 81.1554 757.944 80.1089C756.898 79.0625 756.31 77.643 756.31 76.1631V67.1929ZM764.54 67.7432C764.54 65.5932 763.33 64.583 761.89 64.583C760.45 64.583 759.24 65.5932 759.24 67.7432V75.7032C759.24 77.7332 760.18 78.8628 761.89 78.8628C763.53 78.8628 764.54 77.8132 764.54 75.7032V67.7432Z" fill="black"/>
<path d="M784.27 81.3931H781.35V79.4829C780.883 80.1598 780.261 80.7147 779.536 81.1011C778.81 81.4874 778.002 81.6941 777.18 81.7031C773.75 81.7031 773.12 79.0929 773.12 77.2129V66.2129C773.12 64.3429 773.74 61.7329 777.18 61.7329C778.002 61.7431 778.809 61.9502 779.535 62.3364C780.26 62.7227 780.883 63.277 781.35 63.9531V54.083H784.27V81.3931ZM781.35 75.3032V68.123C781.35 66.913 780.88 64.5732 778.5 64.5732C776.63 64.5732 776.04 66.0932 776.04 67.5732V75.8428C776.04 77.3228 776.62 78.8428 778.5 78.8428C780.88 78.8528 781.35 76.5132 781.35 75.3032Z" fill="black"/>
<path d="M798.12 79.4829H798.08C797.603 80.1962 796.95 80.7748 796.185 81.1636C795.42 81.5523 794.568 81.7383 793.71 81.7031C790.63 81.7031 789.73 79.3632 789.73 76.2832C789.73 72.1932 791.06 69.8828 795.39 69.8828C796.302 69.887 797.214 69.9406 798.12 70.043V67.1929C798.122 66.8394 798.051 66.4895 797.913 66.1641C797.775 65.8387 797.572 65.5446 797.317 65.3003C797.061 65.056 796.759 64.8665 796.427 64.7432C796.096 64.6198 795.743 64.5653 795.39 64.583C794.725 64.556 794.076 64.7898 793.581 65.2344C793.086 65.679 792.784 66.299 792.74 66.9629H789.93C789.93 63.6829 792.43 61.7329 795.59 61.7329C800.08 61.7329 801.05 65.043 801.05 67.543V81.3931H798.12V79.4819V79.4829ZM798.12 72.1831C797.462 72.0737 796.797 72.0067 796.13 71.9829C794.45 71.9829 792.66 72.8831 792.66 75.7231C792.66 78.4531 793.48 79.1929 795.16 79.1929C796.37 79.1929 798.12 77.593 798.12 75.563V72.1831Z" fill="black"/>
<path d="M814.3 67.1528C814.1 64.9728 812.9 64.5029 811.69 64.5029C811.349 64.4483 811.001 64.4752 810.672 64.5815C810.344 64.6879 810.046 64.8708 809.802 65.1147C809.558 65.3587 809.375 65.6571 809.269 65.9854C809.162 66.3136 809.135 66.6622 809.19 67.0029C809.19 68.5229 810.24 69.1529 811.49 69.7329L813.91 70.9028C814.962 71.2961 815.857 72.0236 816.456 72.9736C817.056 73.9236 817.328 75.0439 817.23 76.1631C817.23 77.7631 816.64 81.7031 811.57 81.7031C807.24 81.7031 805.99 78.8531 805.91 76.1631H808.87C809.03 78.2331 809.96 78.9731 811.48 78.9731C811.861 79.0242 812.249 78.9864 812.613 78.8633C812.977 78.7401 813.308 78.535 813.58 78.2632C813.852 77.9913 814.057 77.6601 814.18 77.2959C814.304 76.9317 814.341 76.5441 814.29 76.1631C814.29 74.7231 813.82 73.9829 811.83 73.0029L809.45 71.833C806.6 70.473 806.25 68.7131 806.25 66.7231C806.25 64.1131 807.97 61.7329 811.83 61.7329C816.08 61.7329 817.13 64.7328 817.21 67.1528H814.3Z" fill="black"/>
<path d="M840.31 75.9732H843.24V76.2432C843.24 78.1532 842.34 81.7032 837.86 81.7032C837.108 81.7507 836.354 81.6382 835.648 81.3731C834.943 81.108 834.302 80.6962 833.767 80.1651C833.232 79.634 832.816 78.9957 832.546 78.292C832.276 77.5884 832.158 76.8356 832.2 76.0831V67.1128C832.171 66.3917 832.293 65.6728 832.558 65.0015C832.823 64.3303 833.226 63.7219 833.74 63.2154C834.254 62.7088 834.868 62.3149 835.543 62.0596C836.218 61.8044 836.939 61.6932 837.66 61.733C838.402 61.7014 839.142 61.8223 839.835 62.0879C840.528 62.3536 841.159 62.7582 841.689 63.2774C842.22 63.7966 842.638 64.4193 842.919 65.1065C843.199 65.7937 843.336 66.5309 843.32 67.273V72.813H835.13V75.8931C835.13 77.9631 836.07 78.8531 837.86 78.8531C839.58 78.8531 840.32 77.8032 840.32 76.2032V75.9732H840.31ZM840.39 70.6231V67.313C840.43 66.9552 840.39 66.5931 840.275 66.252C840.159 65.911 839.971 65.5992 839.722 65.3389C839.473 65.0787 839.17 64.8763 838.835 64.7457C838.499 64.615 838.139 64.5595 837.78 64.5831C837.409 64.5757 837.041 64.6476 836.7 64.7935C836.359 64.9395 836.053 65.1564 835.802 65.4297C835.552 65.7031 835.362 66.0266 835.246 66.379C835.13 66.7313 835.091 67.1044 835.13 67.4732V70.6329H840.39V70.6231Z" fill="black"/>
<path d="M867.11 75.4628H870.03V76.2431C869.976 77.7217 869.345 79.1202 868.272 80.1396C867.2 81.1589 865.771 81.7176 864.292 81.6967C862.812 81.6758 861.4 81.077 860.357 80.0278C859.313 78.9785 858.722 77.5625 858.71 76.0829V67.3129C858.675 66.564 858.798 65.8158 859.071 65.1176C859.344 64.4193 859.761 63.7866 860.295 63.2602C860.829 62.7338 861.468 62.3261 862.17 62.0629C862.872 61.7998 863.622 61.6871 864.37 61.7328C865.107 61.6779 865.847 61.7785 866.543 62.0282C867.238 62.2779 867.873 62.6714 868.407 63.1825C868.941 63.6936 869.361 64.311 869.641 64.995C869.92 65.6791 870.053 66.4141 870.03 67.1528V68.0131H867.11V67.7431C867.11 65.5631 865.86 64.5829 864.38 64.5829C862.86 64.5829 861.65 65.5531 861.65 67.7431V75.703C861.65 77.773 862.59 78.8627 864.38 78.8627C866.1 78.8627 867.11 77.813 867.11 75.703V75.4628Z" fill="black"/>
<path d="M874.67 67.1929C874.703 65.7385 875.303 64.3547 876.342 63.336C877.38 62.3173 878.776 61.7445 880.23 61.7393C881.685 61.7341 883.085 62.2969 884.13 63.3081C885.176 64.3194 885.786 65.6987 885.83 67.1529V76.1631C885.83 77.643 885.242 79.0625 884.196 80.1089C883.149 81.1554 881.73 81.7432 880.25 81.7432C878.77 81.7432 877.351 81.1554 876.304 80.1089C875.258 79.0625 874.67 77.643 874.67 76.1631V67.1929ZM882.9 67.7432C882.9 65.5932 881.69 64.583 880.25 64.583C878.81 64.583 877.6 65.5932 877.6 67.7432V75.7032C877.6 77.7332 878.54 78.8628 880.25 78.8628C881.89 78.8628 882.9 77.8132 882.9 75.7032V67.7432Z" fill="black"/>
<path d="M891.48 62.043H894.4V63.9531C894.867 63.2762 895.489 62.7213 896.214 62.335C896.94 61.9486 897.748 61.742 898.57 61.7329C902 61.7329 902.63 64.3429 902.63 66.2129V81.3828H899.71V67.5732C899.71 66.0932 899.13 64.5732 897.25 64.5732C894.87 64.5732 894.4 66.913 894.4 68.123V81.3828H891.48V62.043Z" fill="black"/>
<path d="M915.89 67.1528C915.69 64.9728 914.49 64.5029 913.28 64.5029C912.939 64.4483 912.59 64.4752 912.262 64.5815C911.934 64.6879 911.636 64.8708 911.392 65.1147C911.148 65.3587 910.965 65.6571 910.859 65.9854C910.752 66.3136 910.725 66.6622 910.78 67.0029C910.78 68.5229 911.83 69.1529 913.08 69.7329L915.5 70.9028C916.552 71.2961 917.447 72.0236 918.046 72.9736C918.646 73.9236 918.918 75.0439 918.82 76.1631C918.82 77.7631 918.23 81.7031 913.16 81.7031C908.83 81.7031 907.58 78.8531 907.5 76.1631H910.46C910.62 78.2331 911.55 78.9731 913.07 78.9731C913.451 79.0242 913.839 78.9864 914.203 78.8633C914.567 78.7401 914.898 78.535 915.17 78.2632C915.442 77.9913 915.647 77.6601 915.77 77.2959C915.894 76.9317 915.931 76.5441 915.88 76.1631C915.88 74.7231 915.41 73.9829 913.42 73.0029L911.04 71.833C908.19 70.473 907.84 68.7131 907.84 66.7231C907.84 64.1131 909.56 61.7329 913.42 61.7329C917.67 61.7329 918.72 64.7328 918.8 67.1528H915.89Z" fill="black"/>
<path d="M927.32 56.1528V62.043H930.05V64.3828H927.32V76.123C927.252 76.481 927.272 76.85 927.379 77.1982C927.486 77.5465 927.677 77.8635 927.934 78.1216C928.191 78.3797 928.507 78.5714 928.855 78.6797C929.203 78.788 929.572 78.8097 929.93 78.7432H930.24V81.3931H929.38C928.29 81.3931 926.46 81.3531 925.4 80.1831C924.607 79.1182 924.247 77.7929 924.39 76.4731V64.3828H922.32V62.043H924.39V56.1528H927.32Z" fill="black"/>
<path d="M937.73 62.043V65.083C939.8 62.273 941.59 61.7629 943.11 61.7329V65.0132H942.56C940.41 65.0132 937.72 65.873 937.72 70.123V81.3931H934.8V62.0532H937.73V62.043Z" fill="black"/>
<path d="M958.29 81.3931H955.37V79.4829C954.903 80.1598 954.281 80.7147 953.556 81.1011C952.83 81.4874 952.022 81.6941 951.2 81.7031C947.77 81.7031 947.14 79.0929 947.14 77.2129V62.043H950.06V75.853C950.06 77.333 950.65 78.853 952.52 78.853C954.9 78.853 955.37 76.5132 955.37 75.3032V62.043H958.29V81.3931Z" fill="black"/>
<path d="M967.02 54.6328V57.4829H964.1V54.6328H967.02ZM964.09 62.043H967.01V81.3828H964.09V62.043Z" fill="black"/>
<path d="M975.76 62.043V65.083C977.83 62.273 979.62 61.7629 981.14 61.7329V65.0132H980.59C978.44 65.0132 975.75 65.873 975.75 70.123V81.3931H972.83V62.0532H975.76V62.043Z" fill="black"/>
<path d="M1006.37 81.3931H1003.45V79.4829C1002.98 80.1598 1002.36 80.7147 1001.64 81.1011C1000.91 81.4874 1000.1 81.6941 999.28 81.7031C995.85 81.7031 995.22 79.0929 995.22 77.2129V62.043H998.14V75.853C998.14 77.333 998.72 78.853 1000.6 78.853C1002.98 78.853 1003.45 76.5132 1003.45 75.3032V62.043H1006.37V81.3931Z" fill="black"/>
<path d="M1015.11 62.0431V63.9533C1015.57 63.2757 1016.18 62.7194 1016.9 62.3327C1017.62 61.9459 1018.42 61.74 1019.24 61.733C1020.03 61.6802 1020.81 61.8633 1021.49 62.2589C1022.17 62.6545 1022.72 63.2446 1023.06 63.9533C1023.51 63.2503 1024.13 62.6759 1024.87 62.2868C1025.61 61.8976 1026.44 61.7068 1027.27 61.733C1029.96 61.733 1031.25 63.5631 1031.25 66.2931V81.3829H1028.32V67.5734C1028.32 65.8934 1027.62 64.5734 1025.86 64.5734C1024.03 64.5734 1023.17 66.2532 1023.17 68.1232V81.3829H1020.25V67.5734C1020.25 66.3634 1019.78 64.5734 1017.83 64.5734C1015.96 64.5734 1015.1 66.3232 1015.1 68.1232V81.3829H1012.18V62.0431H1015.11Z" fill="black"/>
<path d="M298.69 110.263H301.62V112.173C302.086 111.496 302.709 110.941 303.434 110.555C304.16 110.168 304.968 109.962 305.79 109.953C309.22 109.953 309.85 112.563 309.85 114.433V129.603H306.92V115.793C306.92 114.313 306.34 112.793 304.46 112.793C302.08 112.793 301.61 115.133 301.61 116.343V129.603H298.68V110.263H298.69Z" fill="black"/>
<path d="M323.62 124.183H326.54V124.453C326.54 126.363 325.64 129.913 321.16 129.913C320.408 129.961 319.654 129.848 318.948 129.583C318.243 129.318 317.602 128.907 317.067 128.376C316.532 127.844 316.116 127.206 315.846 126.502C315.576 125.798 315.458 125.046 315.5 124.293V115.333C315.471 114.612 315.593 113.892 315.858 113.221C316.123 112.55 316.526 111.942 317.04 111.435C317.554 110.929 318.168 110.535 318.843 110.28C319.518 110.025 320.239 109.913 320.96 109.953C321.702 109.922 322.442 110.042 323.135 110.308C323.828 110.573 324.459 110.978 324.989 111.498C325.52 112.017 325.938 112.639 326.219 113.326C326.499 114.013 326.636 114.751 326.62 115.493V121.033H318.43V124.113C318.43 126.183 319.37 127.073 321.16 127.073C322.88 127.073 323.62 126.023 323.62 124.423V124.183ZM323.69 118.843V115.533C323.73 115.175 323.69 114.813 323.575 114.472C323.46 114.131 323.271 113.819 323.022 113.559C322.773 113.299 322.47 113.096 322.135 112.966C321.799 112.835 321.439 112.78 321.08 112.803C320.709 112.796 320.341 112.867 320 113.013C319.659 113.159 319.353 113.376 319.102 113.649C318.852 113.923 318.662 114.246 318.546 114.599C318.43 114.951 318.391 115.324 318.43 115.693V118.853H323.69V118.843Z" fill="black"/>
<path d="M343.27 131.943C343.27 134.323 341.94 137.753 337.46 137.753C334.3 137.753 332.12 136.033 332.12 132.523H334.93C335.24 134.673 336.57 134.903 337.58 134.903C337.935 134.921 338.29 134.866 338.624 134.744C338.957 134.621 339.262 134.432 339.521 134.188C339.78 133.945 339.987 133.651 340.129 133.325C340.271 133 340.347 132.648 340.35 132.293V127.493C339.883 128.17 339.261 128.725 338.536 129.111C337.81 129.498 337.002 129.704 336.18 129.713C332.75 129.713 332.12 127.103 332.12 125.223V114.423C332.12 112.553 332.74 109.943 336.18 109.943C337.002 109.952 337.81 110.159 338.535 110.545C339.261 110.931 339.883 111.486 340.35 112.163V110.253H343.28V131.942L343.27 131.943ZM340.35 123.323V116.343C340.35 115.133 339.88 112.793 337.5 112.793C335.63 112.793 335.04 114.313 335.04 115.793V123.863C335.04 125.343 335.62 126.863 337.5 126.863C339.88 126.873 340.35 124.533 340.35 123.323Z" fill="black"/>
<path d="M348.93 115.403C348.963 113.948 349.563 112.565 350.602 111.546C351.64 110.527 353.036 109.954 354.491 109.949C355.945 109.944 357.345 110.507 358.391 111.518C359.436 112.529 360.046 113.909 360.09 115.363V124.373C360.09 125.853 359.502 127.272 358.456 128.319C357.409 129.365 355.99 129.953 354.51 129.953C353.03 129.953 351.611 129.365 350.564 128.319C349.518 127.272 348.93 125.853 348.93 124.373V115.403ZM357.15 115.953C357.15 113.803 355.94 112.793 354.5 112.793C353.06 112.793 351.85 113.803 351.85 115.953V123.913C351.85 125.943 352.79 127.073 354.5 127.073C356.14 127.073 357.15 126.023 357.15 123.913V115.953ZM355.01 107.063H353.49L355.28 102.303H358.44L355.01 107.063Z" fill="black"/>
<path d="M373.96 123.673H376.89V124.453C376.836 125.932 376.205 127.33 375.132 128.35C374.06 129.369 372.631 129.928 371.152 129.907C369.672 129.886 368.26 129.287 367.217 128.238C366.173 127.188 365.582 125.772 365.57 124.293V115.523C365.535 114.774 365.658 114.026 365.931 113.328C366.204 112.629 366.621 111.997 367.155 111.47C367.689 110.944 368.328 110.536 369.03 110.273C369.732 110.01 370.482 109.897 371.23 109.943C371.967 109.888 372.707 109.988 373.403 110.238C374.098 110.488 374.733 110.881 375.267 111.392C375.801 111.904 376.221 112.521 376.501 113.205C376.78 113.889 376.913 114.624 376.89 115.363V116.223H373.96V115.953C373.96 113.773 372.71 112.793 371.23 112.793C369.71 112.793 368.5 113.763 368.5 115.953V123.913C368.5 125.983 369.44 127.073 371.23 127.073C372.95 127.073 373.96 126.023 373.96 123.913V123.673Z" fill="black"/>
<path d="M384.61 102.853V105.703H381.68V102.853H384.61ZM381.68 110.263H384.61V129.603H381.68V110.263Z" fill="black"/>
<path d="M390.26 115.403C390.293 113.948 390.893 112.565 391.932 111.546C392.97 110.527 394.366 109.954 395.82 109.949C397.275 109.944 398.675 110.507 399.72 111.518C400.766 112.529 401.376 113.909 401.42 115.363V124.373C401.42 125.853 400.832 127.272 399.786 128.319C398.739 129.365 397.32 129.953 395.84 129.953C394.36 129.953 392.941 129.365 391.894 128.319C390.848 127.272 390.26 125.853 390.26 124.373V115.403ZM398.49 115.953C398.49 113.803 397.28 112.793 395.84 112.793C394.4 112.793 393.19 113.803 393.19 115.953V123.913C393.19 125.943 394.13 127.073 395.84 127.073C397.48 127.073 398.49 126.023 398.49 123.913V115.953Z" fill="black"/>
<path d="M420.06 102.303V124.763C420.037 125.051 420.077 125.34 420.177 125.611C420.277 125.882 420.435 126.127 420.64 126.331C420.844 126.534 421.091 126.691 421.362 126.79C421.633 126.889 421.922 126.927 422.21 126.903H422.64V129.593H421.74C418.78 129.593 417.14 127.843 417.14 125.303V102.293H420.06V102.303Z" fill="black"/>
<path d="M438.12 129.603H435.2V127.693C434.733 128.37 434.111 128.925 433.386 129.311C432.66 129.697 431.852 129.904 431.03 129.913C427.6 129.913 426.97 127.303 426.97 125.423V110.253H429.9V124.063C429.9 125.543 430.48 127.063 432.36 127.063C434.74 127.063 435.21 124.723 435.21 123.513V110.253H438.13V129.603H438.12Z" fill="black"/>
<path d="M452.16 123.673H455.08V124.453C455.026 125.93 454.395 127.328 453.324 128.346C452.252 129.365 450.825 129.923 449.347 129.902C447.869 129.881 446.457 129.283 445.415 128.234C444.373 127.186 443.782 125.771 443.77 124.293V115.523C443.735 114.774 443.858 114.026 444.131 113.328C444.404 112.629 444.821 111.997 445.355 111.47C445.889 110.944 446.528 110.536 447.23 110.273C447.932 110.01 448.682 109.897 449.43 109.943C450.166 109.888 450.906 109.988 451.601 110.238C452.296 110.488 452.931 110.882 453.464 111.393C453.997 111.904 454.416 112.522 454.695 113.206C454.973 113.89 455.104 114.625 455.08 115.363V116.223H452.16V115.953C452.16 113.773 450.91 112.793 449.43 112.793C447.91 112.793 446.7 113.763 446.7 115.953V123.913C446.7 125.983 447.64 127.073 449.43 127.073C451.15 127.073 452.16 126.023 452.16 123.913V123.673Z" fill="black"/>
<path d="M462.8 110.263V113.303C464.87 110.493 466.66 109.983 468.18 109.953V113.233H467.63C465.48 113.233 462.79 114.093 462.79 118.343V129.613H459.86V110.273H462.8V110.263Z" fill="black"/>
<path d="M479.53 127.693H479.49C479.012 128.405 478.359 128.983 477.594 129.372C476.829 129.761 475.977 129.947 475.12 129.913C472.04 129.913 471.14 127.573 471.14 124.493C471.14 120.403 472.47 118.093 476.8 118.093C477.712 118.097 478.624 118.151 479.53 118.253V115.403C479.532 115.049 479.461 114.699 479.323 114.374C479.185 114.049 478.982 113.755 478.727 113.51C478.471 113.266 478.169 113.076 477.837 112.953C477.506 112.83 477.153 112.775 476.8 112.793C476.135 112.766 475.486 113 474.991 113.444C474.496 113.889 474.194 114.509 474.15 115.173H471.34C471.34 111.893 473.84 109.943 477 109.943C481.48 109.943 482.46 113.253 482.46 115.753V129.603H479.53V127.693ZM479.53 120.403C478.872 120.293 478.207 120.227 477.54 120.203C475.86 120.203 474.07 121.103 474.07 123.943C474.07 126.673 474.89 127.413 476.57 127.413C477.78 127.413 479.53 125.813 479.53 123.783V120.403Z" fill="black"/>
<path d="M491.7 104.373V110.263H494.43V112.603H491.7V124.333C491.632 124.691 491.652 125.06 491.759 125.408C491.866 125.756 492.057 126.073 492.314 126.332C492.571 126.59 492.887 126.781 493.235 126.89C493.583 126.998 493.952 127.02 494.31 126.953H494.62V129.603H493.76C492.67 129.603 490.83 129.563 489.78 128.393C488.992 127.326 488.631 126.003 488.77 124.683V112.593H486.7V110.253H488.77V104.363H491.7V104.373Z" fill="black"/>
<path d="M502.11 102.853V105.703H499.18V102.853H502.11ZM499.19 110.263H502.12V129.603H499.19V110.263Z" fill="black"/>
<path d="M513.58 129.603H511.28L506.21 110.263H509.29L512.53 123.833H512.61L515.77 110.263H518.73L513.58 129.603Z" fill="black"/>
<path d="M522.55 115.403C522.583 113.948 523.183 112.565 524.222 111.546C525.26 110.527 526.656 109.954 528.11 109.949C529.565 109.944 530.965 110.507 532.01 111.518C533.056 112.529 533.666 113.909 533.71 115.363V124.373C533.71 125.853 533.122 127.272 532.076 128.319C531.029 129.365 529.61 129.953 528.13 129.953C526.65 129.953 525.231 129.365 524.184 128.319C523.138 127.272 522.55 125.853 522.55 124.373V115.403ZM530.78 115.953C530.78 113.803 529.57 112.793 528.13 112.793C526.69 112.793 525.48 113.803 525.48 115.953V123.913C525.48 125.943 526.42 127.073 528.13 127.073C529.77 127.073 530.78 126.023 530.78 123.913V115.953Z" fill="black"/>
<path d="M557.37 124.183H560.3V124.453C560.3 126.363 559.4 129.913 554.92 129.913C554.168 129.961 553.414 129.848 552.708 129.583C552.003 129.318 551.362 128.907 550.827 128.376C550.292 127.844 549.876 127.206 549.606 126.502C549.336 125.798 549.218 125.046 549.26 124.293V115.333C549.231 114.612 549.353 113.892 549.618 113.221C549.883 112.55 550.286 111.942 550.8 111.435C551.314 110.929 551.928 110.535 552.603 110.28C553.278 110.025 553.999 109.913 554.72 109.953C555.461 109.922 556.202 110.042 556.895 110.308C557.588 110.573 558.219 110.978 558.749 111.498C559.28 112.017 559.698 112.639 559.979 113.326C560.259 114.013 560.396 114.751 560.38 115.493V121.033H552.19V124.113C552.19 126.183 553.13 127.073 554.92 127.073C556.64 127.073 557.38 126.023 557.38 124.423V124.183H557.37ZM557.45 118.843V115.533C557.49 115.175 557.45 114.813 557.335 114.472C557.219 114.131 557.031 113.819 556.782 113.559C556.533 113.299 556.23 113.096 555.895 112.966C555.559 112.835 555.199 112.78 554.84 112.803C554.469 112.796 554.101 112.867 553.76 113.013C553.419 113.159 553.113 113.376 552.862 113.649C552.612 113.923 552.422 114.246 552.306 114.599C552.19 114.951 552.151 115.324 552.19 115.693V118.853H557.45V118.843Z" fill="black"/>
<path d="M583.89 124.183H586.82V124.453C586.82 126.363 585.92 129.913 581.44 129.913C580.688 129.961 579.934 129.848 579.228 129.583C578.523 129.318 577.881 128.907 577.347 128.376C576.812 127.844 576.396 127.206 576.126 126.502C575.856 125.798 575.738 125.046 575.78 124.293V115.333C575.751 114.612 575.873 113.892 576.138 113.221C576.403 112.55 576.806 111.942 577.32 111.435C577.834 110.929 578.448 110.535 579.123 110.28C579.798 110.025 580.519 109.913 581.24 109.953C581.981 109.922 582.722 110.042 583.415 110.308C584.108 110.573 584.739 110.978 585.269 111.498C585.8 112.017 586.218 112.639 586.499 113.326C586.779 114.013 586.916 114.751 586.9 115.493V121.033H578.71V124.113C578.71 126.183 579.65 127.073 581.44 127.073C583.16 127.073 583.9 126.023 583.9 124.423V124.183H583.89ZM583.97 118.843V115.533C584.01 115.175 583.97 114.813 583.855 114.472C583.74 114.131 583.551 113.819 583.302 113.559C583.053 113.299 582.75 113.096 582.415 112.966C582.079 112.835 581.719 112.78 581.36 112.803C580.989 112.796 580.621 112.867 580.28 113.013C579.939 113.159 579.633 113.376 579.382 113.649C579.132 113.923 578.942 114.246 578.826 114.599C578.71 114.951 578.671 115.324 578.71 115.693V118.853H583.97V118.843Z" fill="black"/>
<path d="M595.28 119.733L590.79 110.253H593.91L596.83 116.843L599.6 110.253H602.68L598.19 119.573L602.91 129.593H599.87L596.75 122.573L593.63 129.593H590.55L595.28 119.733Z" fill="black"/>
<path d="M606.79 110.263H609.71V112.173C610.176 111.496 610.799 110.941 611.524 110.555C612.25 110.168 613.058 109.962 613.88 109.953C617.31 109.953 617.94 112.563 617.94 114.433V125.433C617.94 127.303 617.32 129.923 613.88 129.923C613.058 129.914 612.25 129.707 611.525 129.321C610.799 128.934 610.177 128.38 609.71 127.703V137.573H606.79V110.263ZM615.02 124.063V115.793C615.02 114.313 614.44 112.793 612.56 112.793C610.18 112.793 609.71 115.133 609.71 116.343V123.523C609.71 124.733 610.18 127.073 612.56 127.073C614.43 127.063 615.02 125.543 615.02 124.063Z" fill="black"/>
<path d="M623.59 115.403C623.623 113.948 624.223 112.565 625.262 111.546C626.3 110.527 627.696 109.954 629.151 109.949C630.605 109.944 632.005 110.507 633.051 111.518C634.096 112.529 634.706 113.909 634.75 115.363V124.373C634.75 125.853 634.162 127.272 633.116 128.319C632.069 129.365 630.65 129.953 629.17 129.953C627.69 129.953 626.271 129.365 625.224 128.319C624.178 127.272 623.59 125.853 623.59 124.373V115.403ZM631.82 115.953C631.82 113.803 630.61 112.793 629.17 112.793C627.73 112.793 626.52 113.803 626.52 115.953V123.913C626.52 125.943 627.46 127.073 629.17 127.073C630.81 127.073 631.82 126.023 631.82 123.913V115.953Z" fill="black"/>
<path d="M640.4 110.263H643.32V112.173C643.786 111.496 644.409 110.941 645.134 110.555C645.86 110.168 646.668 109.962 647.49 109.953C650.92 109.953 651.55 112.563 651.55 114.433V129.603H648.63V115.793C648.63 114.313 648.05 112.793 646.17 112.793C643.79 112.793 643.32 115.133 643.32 116.343V129.603H640.4V110.263Z" fill="black"/>
<path d="M665.32 124.183H668.25V124.453C668.25 126.363 667.35 129.913 662.87 129.913C662.118 129.961 661.364 129.848 660.658 129.583C659.953 129.318 659.312 128.907 658.777 128.376C658.242 127.844 657.826 127.206 657.556 126.502C657.286 125.798 657.168 125.046 657.21 124.293V115.333C657.181 114.612 657.303 113.892 657.568 113.221C657.833 112.55 658.236 111.942 658.75 111.435C659.264 110.929 659.878 110.535 660.553 110.28C661.228 110.025 661.949 109.913 662.67 109.953C663.412 109.922 664.152 110.042 664.845 110.308C665.538 110.573 666.169 110.978 666.699 111.498C667.23 112.017 667.648 112.639 667.929 113.326C668.209 114.013 668.346 114.751 668.33 115.493V121.033H660.14V124.113C660.14 126.183 661.08 127.073 662.87 127.073C664.59 127.073 665.33 126.023 665.33 124.423V124.183H665.32ZM665.4 118.843V115.533C665.44 115.175 665.4 114.813 665.285 114.472C665.169 114.131 664.981 113.819 664.732 113.559C664.483 113.299 664.18 113.096 663.845 112.966C663.509 112.835 663.149 112.78 662.79 112.803C662.419 112.796 662.051 112.867 661.71 113.013C661.369 113.159 661.063 113.376 660.812 113.649C660.562 113.923 660.372 114.246 660.256 114.599C660.14 114.951 660.101 115.324 660.14 115.693V118.853H665.4V118.843Z" fill="black"/>
<path d="M673.83 110.263H676.75V112.173C677.216 111.496 677.839 110.941 678.564 110.555C679.29 110.168 680.098 109.962 680.92 109.953C684.35 109.953 684.98 112.563 684.98 114.433V129.603H682.06V115.793C682.06 114.313 681.48 112.793 679.6 112.793C677.22 112.793 676.75 115.133 676.75 116.343V129.603H673.83V110.263Z" fill="black"/>
<path d="M699.02 123.673H701.94V124.453C701.886 125.932 701.255 127.33 700.182 128.35C699.11 129.369 697.681 129.928 696.202 129.907C694.722 129.886 693.31 129.287 692.267 128.238C691.223 127.188 690.632 125.772 690.62 124.293V115.523C690.585 114.774 690.708 114.026 690.981 113.328C691.254 112.629 691.671 111.997 692.205 111.47C692.739 110.944 693.378 110.536 694.08 110.273C694.782 110.01 695.532 109.897 696.28 109.943C697.017 109.888 697.757 109.988 698.453 110.238C699.148 110.488 699.783 110.881 700.317 111.392C700.851 111.904 701.271 112.521 701.551 113.205C701.83 113.889 701.963 114.624 701.94 115.363V116.223H699.02V115.953C699.02 113.773 697.77 112.793 696.29 112.793C694.77 112.793 693.56 113.763 693.56 115.953V123.913C693.56 125.983 694.5 127.073 696.29 127.073C698.01 127.073 699.02 126.023 699.02 123.913V123.673Z" fill="black"/>
<path d="M709.66 102.853V105.703H706.74V102.853H709.66ZM706.74 110.263H709.66V129.603H706.74V110.263Z" fill="black"/>
<path d="M723.51 127.693H723.47C722.993 128.406 722.34 128.985 721.575 129.374C720.81 129.763 719.958 129.948 719.1 129.913C716.02 129.913 715.12 127.573 715.12 124.493C715.12 120.403 716.45 118.093 720.78 118.093C721.692 118.097 722.604 118.151 723.51 118.253V115.403C723.512 115.049 723.441 114.699 723.303 114.374C723.165 114.049 722.962 113.755 722.707 113.51C722.451 113.266 722.149 113.076 721.817 112.953C721.486 112.83 721.133 112.775 720.78 112.793C720.115 112.766 719.466 113 718.971 113.444C718.476 113.889 718.174 114.509 718.13 115.173H715.32C715.32 111.893 717.82 109.943 720.98 109.943C725.47 109.943 726.44 113.253 726.44 115.753V129.603H723.51V127.692V127.693ZM723.51 120.403C722.852 120.293 722.187 120.227 721.52 120.203C719.84 120.203 718.05 121.103 718.05 123.943C718.05 126.673 718.87 127.413 720.55 127.413C721.76 127.413 723.51 125.813 723.51 123.783V120.403Z" fill="black"/>
<path d="M735.17 102.303V124.763C735.147 125.051 735.187 125.34 735.287 125.611C735.387 125.882 735.545 126.127 735.75 126.331C735.954 126.534 736.201 126.691 736.472 126.79C736.743 126.889 737.032 126.927 737.32 126.903H737.75V129.593H736.85C733.89 129.593 732.25 127.843 732.25 125.303V102.293H735.17V102.303Z" fill="black"/>
<path d="M744.73 119.773C744.73 118.523 744.77 118.023 746.06 115.953L748.36 112.283C748.888 111.373 749.158 110.336 749.14 109.283V107.563C749.179 107.177 749.13 106.788 748.997 106.424C748.865 106.06 748.652 105.73 748.374 105.46C748.096 105.19 747.76 104.986 747.393 104.863C747.025 104.741 746.634 104.703 746.25 104.753C744.18 104.753 743.56 106.153 743.56 107.673V109.043H740.63V107.173C740.63 103.663 743.24 101.903 746.13 101.903C749.37 101.903 752.06 103.303 752.06 106.703V109.353C752.124 111.037 751.601 112.692 750.58 114.033L748.36 117.463C747.831 118.344 747.587 119.368 747.66 120.393V122.573H744.74V119.773H744.73ZM747.85 126.283V129.603H744.53V126.283H747.85Z" fill="black"/>
</svg>
