<svg width="164" height="126" viewBox="0 0 164 126" fill="none" xmlns="http://www.w3.org/2000/svg">
<path d="M7.98997 6.00294C8.02365 5.64295 7.98076 5.27997 7.86411 4.93775C7.74747 4.59553 7.55973 4.28181 7.31321 4.01734C7.06668 3.75287 6.76695 3.54369 6.43375 3.40333C6.10056 3.26296 5.74144 3.19478 5.37998 3.20313C2.85998 3.20313 2.63999 5.37301 2.63999 6.58301V18.593C2.60569 18.9556 2.64643 19.3214 2.75974 19.6675C2.87305 20.0136 3.05648 20.3326 3.29856 20.6047C3.54063 20.8768 3.8362 21.0962 4.16678 21.249C4.49736 21.4019 4.85584 21.4848 5.21995 21.4929C6.45995 21.4929 7.98997 20.9531 7.98997 18.3731V17.6731H10.4099V18.5029C10.4099 21.6929 8.93997 23.823 5.11997 23.823C0.65997 23.823 0.249975 20.1931 0.249975 18.9131V5.72291C0.231866 5.06868 0.35008 4.41785 0.597082 3.81177C0.844084 3.2057 1.21448 2.65784 1.68473 2.20264C2.15498 1.74744 2.7148 1.3949 3.32859 1.16773C3.94238 0.940563 4.59668 0.843693 5.24998 0.883062C8.01998 0.883062 10.32 2.22295 10.32 5.76295V7.19312H7.98997V6.00294Z" fill="white"/>
<path d="M13.31 11.8931C13.341 10.7068 13.8331 9.57924 14.6817 8.74978C15.5303 7.92032 16.6687 7.45412 17.8554 7.45022C19.0421 7.44632 20.1836 7.90492 21.0377 8.72878C21.8917 9.55265 22.3912 10.677 22.43 11.8631V19.2229C22.43 20.4323 21.9496 21.5924 21.0944 22.4475C20.2393 23.3027 19.0794 23.783 17.87 23.783C16.6606 23.783 15.5007 23.3027 14.6456 22.4475C13.7904 21.5924 13.31 20.4323 13.31 19.2229V11.8931ZM20.03 12.343C20.03 10.593 19.04 9.76296 17.86 9.76296C16.68 9.76296 15.69 10.593 15.69 12.343V18.843C15.69 20.503 16.45 21.4231 17.86 21.4231C19.2 21.4231 20.03 20.563 20.03 18.843V12.343Z" fill="white"/>
<path d="M28.63 7.69301V9.25282C29.0032 8.69777 29.5061 8.24205 30.095 7.92494C30.6839 7.60783 31.3412 7.43905 32.01 7.433C32.6526 7.38841 33.2938 7.53811 33.8502 7.86268C34.4066 8.18725 34.8525 8.67151 35.13 9.25282C35.4981 8.67891 36.0082 8.20986 36.6109 7.891C37.2136 7.57214 37.8884 7.41446 38.57 7.433C40.77 7.433 41.82 8.93298 41.82 11.163V23.4928H39.43V12.2128C39.43 10.8428 38.86 9.76283 37.42 9.76283C35.92 9.76283 35.22 11.133 35.22 12.663V23.4928H32.83V12.2128C32.83 11.2228 32.45 9.76283 30.85 9.76283C29.32 9.76283 28.62 11.193 28.62 12.663V23.4928H26.23V7.69301H28.63Z" fill="white"/>
<path d="M45.64 11.8931C45.671 10.7068 46.163 9.57924 47.0117 8.74978C47.8603 7.92032 48.9988 7.45412 50.1854 7.45022C51.3721 7.44632 52.5136 7.90492 53.3677 8.72878C54.2218 9.55265 54.7212 10.677 54.76 11.8631V19.2229C54.76 20.4323 54.2795 21.5924 53.4244 22.4475C52.5692 23.3027 51.4094 23.783 50.2 23.783C48.9906 23.783 47.8308 23.3027 46.9756 22.4475C46.1204 21.5924 45.64 20.4323 45.64 19.2229V11.8931ZM52.36 12.343C52.36 10.593 51.37 9.76296 50.19 9.76296C49.01 9.76296 48.02 10.593 48.02 12.343V18.843C48.02 20.503 48.78 21.4231 50.19 21.4231C51.53 21.4231 52.36 20.563 52.36 18.843V12.343Z" fill="white"/>
<path d="M72.08 11.863C71.92 10.083 70.93 9.69312 69.95 9.69312C69.6719 9.64818 69.3872 9.66972 69.1191 9.75635C68.8511 9.84297 68.6074 9.99223 68.4083 10.1914C68.2091 10.3906 68.0601 10.6341 67.9734 10.9021C67.8868 11.1701 67.865 11.4548 67.91 11.7329C67.91 12.9729 68.77 13.4829 69.79 13.9629L71.77 14.9231C72.731 15.3589 73.5137 16.1105 73.9877 17.0532C74.4618 17.9959 74.5985 19.0727 74.3752 20.104C74.1519 21.1353 73.5819 22.0588 72.7604 22.7209C71.9388 23.3831 70.9152 23.7438 69.86 23.7429C66.32 23.7429 65.3 21.4129 65.24 19.2229H67.66C67.79 20.9129 68.55 21.5129 69.79 21.5129C70.1008 21.5559 70.4173 21.5264 70.7147 21.4265C71.0121 21.3266 71.2824 21.1591 71.5043 20.9373C71.7261 20.7154 71.8936 20.4451 71.9935 20.1477C72.0934 19.8503 72.123 19.5337 72.08 19.2229C72.08 18.0429 71.7 17.4431 70.07 16.6431L68.13 15.6831C67.2902 15.3816 66.5763 14.8064 66.1029 14.05C65.6295 13.2937 65.4242 12.4 65.52 11.5129C65.52 9.38294 66.92 7.43311 70.08 7.43311C73.55 7.43311 74.41 9.88304 74.48 11.863H72.08Z" fill="white"/>
<path d="M84.31 19.0631H86.7V19.283C86.7454 19.8752 86.6632 20.4703 86.459 21.0279C86.2547 21.5855 85.9332 22.0927 85.5161 22.5154C85.0991 22.9382 84.5961 23.2666 84.0413 23.4783C83.4865 23.6901 82.8927 23.7803 82.3 23.743C81.6858 23.7814 81.0706 23.6894 80.4947 23.4727C79.9188 23.256 79.3953 22.9198 78.9588 22.4861C78.5223 22.0525 78.1826 21.5311 77.9622 20.9566C77.7418 20.3821 77.6456 19.7675 77.68 19.1531V11.8231C77.6561 11.2337 77.7556 10.6459 77.9721 10.0972C78.1887 9.5486 78.5174 9.05125 78.9373 8.63703C79.3572 8.2228 79.8589 7.90102 80.4104 7.69196C80.9619 7.4829 81.551 7.39134 82.14 7.42316C82.7453 7.39675 83.3495 7.49475 83.9153 7.71124C84.4812 7.92774 84.9966 8.25802 85.4297 8.6817C85.8627 9.10539 86.2042 9.61341 86.433 10.1744C86.6618 10.7354 86.7731 11.3375 86.76 11.9432V16.463H80.07V18.983C80.07 20.673 80.83 21.4031 82.3 21.4031C83.7 21.4031 84.31 20.543 84.31 19.233V19.0631ZM84.38 14.7032V11.993C84.4117 11.701 84.3793 11.4057 84.2849 11.1275C84.1905 10.8493 84.0365 10.595 83.8337 10.3826C83.6308 10.1702 83.3839 10.0048 83.1103 9.89777C82.8368 9.79074 82.5431 9.74467 82.25 9.763C81.9468 9.75682 81.6458 9.81535 81.367 9.93439C81.0881 10.0534 80.8378 10.2302 80.6325 10.4534C80.4273 10.6766 80.2719 10.941 80.1767 11.2288C80.0814 11.5167 80.0484 11.8216 80.08 12.1231V14.7032H84.38Z" fill="white"/>
<path d="M9.33002 55.353H6.94V53.793C6.55823 54.3466 6.04944 54.8008 5.45618 55.1174C4.86291 55.4341 4.20245 55.604 3.53003 55.613C0.730029 55.613 0.219971 53.4831 0.219971 51.9531V42.9729C0.219971 41.4429 0.730029 39.313 3.53003 39.313C4.20245 39.322 4.86291 39.492 5.45618 39.8086C6.04944 40.1252 6.55823 40.5795 6.94 41.1331V33.073H9.33002V55.353ZM6.94 50.3831V44.5229C6.94 43.5329 6.55999 41.623 4.60999 41.623C3.07999 41.623 2.59998 42.863 2.59998 44.073V50.823C2.59998 52.033 3.07999 53.2729 4.60999 53.2729C6.55999 53.2829 6.94 51.3731 6.94 50.3831Z" fill="white"/>
<path d="M19.78 50.9232H22.17V51.1431C22.2153 51.7353 22.1332 52.3301 21.9289 52.8878C21.7247 53.4454 21.4032 53.9528 20.9861 54.3756C20.5691 54.7983 20.0661 55.1267 19.5113 55.3384C18.9564 55.5502 18.3627 55.6404 17.77 55.6031C17.1559 55.6415 16.5406 55.5493 15.9646 55.3326C15.3887 55.1159 14.8653 54.7797 14.4287 54.346C13.9922 53.9123 13.6526 53.3912 13.4322 52.8167C13.2117 52.2422 13.1156 51.6274 13.15 51.013V43.6832C13.1262 43.0938 13.2257 42.506 13.4422 41.9573C13.6587 41.4087 13.9874 40.9114 14.4073 40.4971C14.8271 40.0829 15.3289 39.7609 15.8804 39.5518C16.4319 39.3428 17.021 39.2512 17.61 39.283C18.2152 39.2566 18.8195 39.3549 19.3854 39.5714C19.9512 39.7878 20.4666 40.1181 20.8996 40.5418C21.3327 40.9655 21.6742 41.4735 21.9031 42.0345C22.1319 42.5955 22.2431 43.1973 22.23 43.803V48.3231H15.54V50.8431C15.54 52.5331 16.3 53.263 17.77 53.263C19.17 53.263 19.78 52.4031 19.78 51.0931V50.9232ZM19.84 46.553V43.8431C19.8718 43.5511 19.8393 43.2555 19.7449 42.9774C19.6505 42.6992 19.4965 42.4451 19.2936 42.2327C19.0907 42.0203 18.8439 41.8546 18.5704 41.7476C18.2968 41.6406 18.0032 41.5948 17.71 41.6131C17.4069 41.6069 17.1059 41.6652 16.827 41.7842C16.5481 41.9033 16.2978 42.0803 16.0926 42.3035C15.8873 42.5267 15.7319 42.7911 15.6366 43.0789C15.5414 43.3668 15.5084 43.6714 15.54 43.973V46.553H19.84Z" fill="white"/>
<path d="M32.01 43.7229C31.85 41.9429 30.86 41.553 29.88 41.553C29.6019 41.508 29.3172 41.5298 29.0491 41.6165C28.7811 41.7031 28.5374 41.8521 28.3383 42.0513C28.1391 42.2504 27.9901 42.4942 27.9034 42.7622C27.8168 43.0302 27.7951 43.3149 27.84 43.593C27.84 44.833 28.7 45.343 29.72 45.823L31.7 46.783C32.661 47.2187 33.4437 47.9706 33.9177 48.9133C34.3918 49.856 34.5285 50.9326 34.3052 51.9639C34.0818 52.9951 33.5119 53.9189 32.6904 54.5811C31.8688 55.2432 30.8452 55.6039 29.79 55.603C26.25 55.603 25.23 53.273 25.17 51.083H27.59C27.72 52.773 28.48 53.373 29.72 53.373C30.0308 53.416 30.3473 53.3863 30.6448 53.2864C30.9422 53.1865 31.2124 53.0192 31.4343 52.7974C31.6561 52.5755 31.8236 52.3052 31.9235 52.0078C32.0234 51.7104 32.053 51.3938 32.01 51.083C32.01 49.903 31.63 49.3029 30 48.5029L28.06 47.543C27.2202 47.2414 26.5063 46.6662 26.0329 45.9099C25.5595 45.1536 25.3542 44.2601 25.45 43.373C25.45 41.243 26.85 39.293 30.01 39.293C33.48 39.293 34.34 41.7429 34.41 43.7229H32.01Z" fill="white"/>
<path d="M40.54 34.7329V39.543H42.77V41.4531H40.54V51.043C40.5158 51.3634 40.5604 51.6855 40.6708 51.9873C40.7812 52.2891 40.9548 52.5637 41.18 52.793C41.6215 53.0882 42.1512 53.2225 42.68 53.1731H42.93V55.343H42.23C41.6732 55.4732 41.0925 55.4603 40.5421 55.3054C39.9916 55.1506 39.4893 54.8588 39.082 54.4575C38.6747 54.0562 38.3756 53.5583 38.2126 53.0103C38.0497 52.4622 38.0282 51.8817 38.15 51.323V41.4431H36.46V39.533H38.15V34.7229H40.54V34.7329Z" fill="white"/>
<path d="M52.43 53.793H52.4C52.0094 54.3755 51.4764 54.8485 50.8516 55.167C50.2267 55.4855 49.5309 55.6391 48.83 55.613C46.31 55.613 45.58 53.7031 45.58 51.1831C45.58 47.8331 46.66 45.9531 50.2 45.9531C50.9451 45.9566 51.6895 45.9999 52.43 46.083V43.7529C52.431 43.4644 52.3733 43.1788 52.2603 42.9133C52.1473 42.6478 51.9814 42.408 51.7728 42.2087C51.5641 42.0094 51.317 41.8549 51.0466 41.7542C50.7762 41.6534 50.4882 41.6088 50.2 41.623C49.6568 41.5999 49.126 41.7895 48.7207 42.1519C48.3154 42.5142 48.0676 43.0206 48.03 43.563H45.74C45.74 40.883 47.78 39.293 50.36 39.293C54.02 39.293 54.82 42.003 54.82 44.043V55.353H52.43V53.793ZM52.43 47.833C51.8942 47.7437 51.353 47.6903 50.81 47.6731C49.44 47.6731 47.97 48.4029 47.97 50.7329C47.97 52.9629 48.64 53.573 50.01 53.573C50.6947 53.4381 51.3109 53.0688 51.7526 52.5286C52.1943 51.9883 52.4339 51.3109 52.43 50.613V47.833Z" fill="white"/>
<path d="M65.49 50.5128H67.88V51.153C67.8443 52.3657 67.3331 53.5158 66.4568 54.3549C65.5804 55.1939 64.4091 55.6546 63.196 55.6376C61.9828 55.6205 60.825 55.127 59.9726 54.2636C59.1201 53.4001 58.6415 52.2361 58.64 51.0228V43.8529C58.6109 43.2412 58.711 42.6304 58.9337 42.0599C59.1564 41.4895 59.4968 40.9723 59.9326 40.5421C60.3684 40.1119 60.8899 39.7783 61.4632 39.5631C62.0365 39.3479 62.6487 39.2558 63.26 39.2928C63.8621 39.2476 64.467 39.3298 65.0353 39.5338C65.6036 39.7378 66.1226 40.0593 66.5584 40.4772C66.9942 40.8951 67.3371 41.4001 67.5649 41.9594C67.7926 42.5186 67.8999 43.1193 67.88 43.7228V44.423H65.49V44.203C65.49 42.423 64.47 41.6229 63.26 41.6229C62.02 41.6229 61.03 42.423 61.03 44.203V50.703C61.03 52.393 61.79 53.2828 63.26 53.2828C64.66 53.2828 65.49 52.423 65.49 50.703V50.5128Z" fill="white"/>
<path d="M77.24 53.793H77.21C76.8194 54.3755 76.2864 54.8485 75.6616 55.167C75.0367 55.4855 74.3409 55.6391 73.64 55.613C71.12 55.613 70.39 53.7031 70.39 51.1831C70.39 47.8331 71.47 45.9531 75.01 45.9531C75.7551 45.9566 76.4995 45.9999 77.24 46.083V43.7529C77.241 43.4644 77.1833 43.1788 77.0703 42.9133C76.9573 42.6478 76.7914 42.408 76.5828 42.2087C76.3741 42.0094 76.1271 41.8549 75.8567 41.7542C75.5863 41.6534 75.2982 41.6088 75.01 41.623C74.4668 41.5999 73.936 41.7895 73.5307 42.1519C73.1254 42.5142 72.8776 43.0206 72.84 43.563H70.55C70.55 40.883 72.59 39.293 75.17 39.293C78.83 39.293 79.63 42.003 79.63 44.043V55.353H77.24V53.793ZM77.24 47.833C76.7042 47.7437 76.163 47.6903 75.62 47.6731C74.25 47.6731 72.78 48.4029 72.78 50.7329C72.78 52.9629 73.45 53.573 74.82 53.573C75.5047 53.4381 76.1209 53.0688 76.5626 52.5286C77.0043 51.9883 77.2438 51.3109 77.24 50.613V47.833Z" fill="white"/>
<path d="M85.97 39.553V42.033C87.66 39.743 89.12 39.323 90.37 39.293V41.9729H89.92C88.17 41.9729 85.97 42.6731 85.97 46.1431V55.353H83.58V39.553H85.97Z" fill="white"/>
<path d="M100.27 39.553H102.66V41.113C103.042 40.5594 103.551 40.1052 104.144 39.7886C104.737 39.4719 105.398 39.302 106.07 39.293C108.87 39.293 109.38 41.4231 109.38 42.9531V55.343H106.99V44.063C106.99 42.853 106.51 41.613 104.98 41.613C103.04 41.613 102.65 43.5229 102.65 44.5129V55.343H100.26V39.553H100.27Z" fill="white"/>
<path d="M113.21 43.753C113.241 42.5667 113.733 41.4394 114.582 40.6099C115.43 39.7804 116.569 39.3142 117.755 39.3103C118.942 39.3064 120.084 39.765 120.938 40.5889C121.792 41.4128 122.291 42.5369 122.33 43.7229V51.083C122.33 52.2924 121.85 53.4522 120.994 54.3074C120.139 55.1626 118.979 55.6431 117.77 55.6431C116.561 55.6431 115.401 55.1626 114.546 54.3074C113.69 53.4522 113.21 52.2924 113.21 51.083V43.753ZM119.93 44.2031C119.93 42.4531 118.94 41.6231 117.76 41.6231C116.58 41.6231 115.59 42.4531 115.59 44.2031V50.7031C115.59 52.3631 116.35 53.283 117.76 53.283C119.1 53.283 119.93 52.4232 119.93 50.7031V44.2031Z" fill="white"/>
<path d="M2.59998 71.403V72.9628C2.9732 72.4077 3.47603 71.952 4.06494 71.6349C4.65386 71.3178 5.31114 71.149 5.97998 71.143C6.62259 71.0984 7.26379 71.2481 7.82019 71.5726C8.37659 71.8972 8.82248 72.3815 9.09998 72.9628C9.46811 72.3889 9.97825 71.9198 10.5809 71.601C11.1836 71.2821 11.8584 71.1244 12.54 71.143C14.74 71.143 15.79 72.6429 15.79 74.8729V87.203H13.4V75.923C13.4 74.553 12.83 73.4728 11.39 73.4728C9.89001 73.4728 9.19 74.8429 9.19 76.3729V87.203H6.79999V75.923C6.79999 74.933 6.42001 73.4728 4.82001 73.4728C3.29001 73.4728 2.59003 74.9029 2.59003 76.3729V87.203H0.200012V71.403H2.59998Z" fill="white"/>
<path d="M26.24 82.783H28.63V83.003C28.6754 83.5951 28.5932 84.1902 28.389 84.7479C28.1847 85.3055 27.8632 85.8129 27.4461 86.2357C27.0291 86.6584 26.5261 86.9865 25.9713 87.1983C25.4165 87.4101 24.8226 87.5003 24.23 87.463C23.6158 87.5014 23.0006 87.4094 22.4247 87.1927C21.8487 86.976 21.3253 86.6398 20.8888 86.2061C20.4523 85.7724 20.1126 85.2511 19.8922 84.6766C19.6718 84.1021 19.5756 83.4875 19.61 82.8731V75.543C19.5861 74.9537 19.6857 74.3658 19.9022 73.8172C20.1187 73.2686 20.4474 72.7712 20.8673 72.357C21.2872 71.9428 21.7889 71.621 22.3404 71.4119C22.8919 71.2029 23.481 71.1113 24.07 71.1431C24.6753 71.1167 25.2795 71.2147 25.8454 71.4312C26.4112 71.6477 26.9266 71.978 27.3597 72.4017C27.7927 72.8254 28.1342 73.3334 28.363 73.8944C28.5918 74.4553 28.7031 75.0574 28.69 75.6631V80.1832H22V82.7032C22 84.3932 22.76 85.1231 24.23 85.1231C25.63 85.1231 26.24 84.2632 26.24 82.9532V82.783ZM26.31 78.4131V75.7032C26.3417 75.4112 26.3093 75.1156 26.2149 74.8375C26.1206 74.5593 25.9665 74.305 25.7636 74.0926C25.5608 73.8802 25.3139 73.7148 25.0403 73.6077C24.7668 73.5007 24.4731 73.4546 24.18 73.473C23.8768 73.4668 23.5758 73.5253 23.297 73.6444C23.0181 73.7634 22.7678 73.9402 22.5625 74.1634C22.3573 74.3866 22.2019 74.6509 22.1067 74.9388C22.0114 75.2266 21.9784 75.5315 22.01 75.8331V78.4131H26.31Z" fill="white"/>
<path d="M34.78 71.4031V73.8931C36.47 71.6031 37.93 71.1831 39.18 71.1531V73.833H38.73C36.98 73.833 34.78 74.5329 34.78 78.0029V87.2129H32.39V71.4131H34.78V71.4031Z" fill="white"/>
<path d="M48.06 82.3629H50.45V83.0028C50.4143 84.2156 49.9031 85.3659 49.0267 86.205C48.1503 87.0441 46.9791 87.5048 45.766 87.4877C44.5528 87.4706 43.395 86.9771 42.5426 86.1137C41.6902 85.2503 41.2115 84.0862 41.21 82.8729V75.703C41.1809 75.0914 41.281 74.4802 41.5037 73.9098C41.7264 73.3394 42.0668 72.8224 42.5026 72.3922C42.9384 71.9621 43.4599 71.6285 44.0332 71.4132C44.6065 71.198 45.2187 71.1059 45.83 71.143C46.4321 71.0977 47.037 71.1797 47.6053 71.3837C48.1736 71.5877 48.6926 71.9091 49.1284 72.327C49.5642 72.745 49.9072 73.25 50.1349 73.8092C50.3626 74.3685 50.4699 74.9694 50.45 75.5729V76.2729H48.06V76.0529C48.06 74.2729 47.04 73.4728 45.83 73.4728C44.59 73.4728 43.5999 74.2729 43.5999 76.0529V82.5529C43.5999 84.2429 44.36 85.133 45.83 85.133C47.23 85.133 48.06 84.2729 48.06 82.5529V82.3629Z" fill="white"/>
<path d="M59.82 85.6431H59.79C59.3994 86.2256 58.8664 86.6986 58.2416 87.0171C57.6168 87.3356 56.9208 87.489 56.22 87.4629C53.7 87.4629 52.97 85.553 52.97 83.033C52.97 79.683 54.05 77.803 57.59 77.803C58.3351 77.8064 59.0795 77.85 59.82 77.9331V75.603C59.821 75.3145 59.7633 75.0287 59.6503 74.7632C59.5373 74.4977 59.3714 74.2581 59.1628 74.0588C58.9541 73.8595 58.707 73.7047 58.4366 73.604C58.1662 73.5033 57.8782 73.4586 57.59 73.4729C57.0468 73.4497 56.516 73.6396 56.1107 74.002C55.7054 74.3643 55.4575 74.8707 55.42 75.4131H53.13C53.13 72.7331 55.17 71.1431 57.75 71.1431C61.41 71.1431 62.21 73.8531 62.21 75.8931V87.2031H59.82V85.6431ZM59.82 79.6831C59.2842 79.5938 58.743 79.5402 58.2 79.5229C56.83 79.5229 55.36 80.253 55.36 82.583C55.36 84.813 56.03 85.4231 57.4 85.4231C58.0847 85.2882 58.7009 84.9187 59.1426 84.3784C59.5843 83.8382 59.8239 83.1607 59.82 82.4629V79.6831Z" fill="white"/>
<path d="M75.27 87.2031H72.88V85.6431C72.4982 86.1967 71.9894 86.6506 71.3962 86.9673C70.8029 87.2839 70.1424 87.4538 69.47 87.4629C66.67 87.4629 66.16 85.333 66.16 83.803V74.823C66.16 73.293 66.67 71.1631 69.47 71.1631C70.1424 71.1721 70.8029 71.3421 71.3962 71.6587C71.9894 71.9753 72.4982 72.4293 72.88 72.9829V64.9231H75.27V87.2031ZM72.88 82.2329V76.373C72.88 75.383 72.5 73.4729 70.55 73.4729C69.02 73.4729 68.54 74.7131 68.54 75.9231V82.6731C68.54 83.8831 69.02 85.123 70.55 85.123C72.5 85.133 72.88 83.2229 72.88 82.2329Z" fill="white"/>
<path d="M79.09 75.6131C79.121 74.4268 79.613 73.2992 80.4617 72.4698C81.3103 71.6403 82.4488 71.1741 83.6354 71.1702C84.8221 71.1663 85.9636 71.6251 86.8177 72.449C87.6718 73.2729 88.1712 74.397 88.21 75.583V82.9431C88.21 84.1525 87.7296 85.3123 86.8744 86.1675C86.0192 87.0227 84.8594 87.503 83.65 87.503C82.4406 87.503 81.2808 87.0227 80.4256 86.1675C79.5704 85.3123 79.09 84.1525 79.09 82.9431V75.6131ZM85.81 76.053C85.81 74.303 84.82 73.4729 83.64 73.4729C82.46 73.4729 81.47 74.303 81.47 76.053V82.553C81.47 84.213 82.23 85.1331 83.64 85.1331C84.98 85.1331 85.81 84.273 85.81 82.553V76.053Z" fill="white"/>
<path d="M99.44 71.4031H101.83V72.9629C102.212 72.4093 102.721 71.9553 103.314 71.6387C103.907 71.322 104.568 71.1521 105.24 71.1431C108.04 71.1431 108.55 73.273 108.55 74.803V87.1931H106.16V75.9131C106.16 74.7031 105.68 73.4629 104.15 73.4629C102.21 73.4629 101.82 75.373 101.82 76.363V87.1931H99.43V71.4031H99.44Z" fill="white"/>
<path d="M119.07 85.6431H119.04C118.649 86.2256 118.116 86.6986 117.492 87.0171C116.867 87.3356 116.171 87.489 115.47 87.4629C112.95 87.4629 112.22 85.553 112.22 83.033C112.22 79.683 113.3 77.803 116.84 77.803C117.585 77.8064 118.33 77.85 119.07 77.9331V75.603C119.071 75.3145 119.013 75.0287 118.9 74.7632C118.787 74.4977 118.621 74.2581 118.413 74.0588C118.204 73.8595 117.957 73.7047 117.687 73.604C117.416 73.5033 117.128 73.4586 116.84 73.4729C116.297 73.4497 115.766 73.6396 115.361 74.002C114.955 74.3643 114.708 74.8707 114.67 75.4131H112.38C112.38 72.7331 114.42 71.1431 117 71.1431C120.66 71.1431 121.46 73.8531 121.46 75.8931V87.2031H119.07V85.6431ZM119.07 79.6831C118.534 79.5938 117.993 79.5402 117.45 79.5229C116.08 79.5229 114.61 80.253 114.61 82.583C114.61 84.813 115.28 85.4231 116.65 85.4231C117.335 85.2882 117.951 84.9187 118.393 84.3784C118.834 83.8382 119.074 83.1607 119.07 82.4629V79.6831Z" fill="white"/>
<path d="M139.33 82.783H141.72V83.003C141.765 83.5951 141.683 84.1902 141.479 84.7479C141.275 85.3055 140.953 85.8129 140.536 86.2357C140.119 86.6584 139.616 86.9865 139.061 87.1983C138.506 87.4101 137.913 87.5003 137.32 87.463C136.706 87.5014 136.091 87.4094 135.515 87.1927C134.939 86.976 134.415 86.6398 133.979 86.2061C133.542 85.7724 133.203 85.2511 132.982 84.6766C132.762 84.1021 132.666 83.4875 132.7 82.8731V75.543C132.676 74.9537 132.776 74.3658 132.992 73.8172C133.209 73.2686 133.537 72.7712 133.957 72.357C134.377 71.9428 134.879 71.621 135.43 71.4119C135.982 71.2029 136.571 71.1113 137.16 71.1431C137.765 71.1167 138.369 71.2147 138.935 71.4312C139.501 71.6477 140.017 71.978 140.45 72.4017C140.883 72.8254 141.224 73.3334 141.453 73.8944C141.682 74.4553 141.793 75.0574 141.78 75.6631V80.1832H135.09V82.7032C135.09 84.3932 135.85 85.1231 137.32 85.1231C138.72 85.1231 139.33 84.2632 139.33 82.9532V82.783ZM139.39 78.4131V75.7032C139.422 75.4112 139.389 75.1156 139.295 74.8375C139.201 74.5593 139.046 74.305 138.844 74.0926C138.641 73.8802 138.394 73.7148 138.12 73.6077C137.847 73.5007 137.553 73.4546 137.26 73.473C136.957 73.4668 136.656 73.5253 136.377 73.6444C136.098 73.7634 135.848 73.9402 135.643 74.1634C135.437 74.3866 135.282 74.6509 135.187 74.9388C135.091 75.2266 135.058 75.5315 135.09 75.8331V78.4131H139.39Z" fill="white"/>
<path d="M147.86 71.4031V73.8931C149.55 71.6031 151.01 71.1831 152.26 71.1531V73.833H151.81C150.06 73.833 147.86 74.5329 147.86 78.0029V87.2129H145.47V71.4131H147.86V71.4031Z" fill="white"/>
<path d="M160.73 85.6431H160.7C160.309 86.2256 159.776 86.6986 159.152 87.0171C158.527 87.3356 157.831 87.489 157.13 87.4629C154.61 87.4629 153.88 85.553 153.88 83.033C153.88 79.683 154.96 77.803 158.5 77.803C159.245 77.8064 159.99 77.85 160.73 77.9331V75.603C160.731 75.3145 160.673 75.0287 160.56 74.7632C160.447 74.4977 160.281 74.2581 160.073 74.0588C159.864 73.8595 159.617 73.7047 159.347 73.604C159.076 73.5033 158.788 73.4586 158.5 73.4729C157.957 73.4497 157.426 73.6396 157.021 74.002C156.615 74.3643 156.368 74.8707 156.33 75.4131H154.04C154.04 72.7331 156.08 71.1431 158.66 71.1431C162.32 71.1431 163.12 73.8531 163.12 75.8931V87.2031H160.73V85.6431ZM160.73 79.6831C160.194 79.5938 159.653 79.5402 159.11 79.5229C157.74 79.5229 156.27 80.253 156.27 82.583C156.27 84.813 156.94 85.4231 158.31 85.4231C158.995 85.2882 159.611 84.9187 160.053 84.3784C160.494 83.8382 160.734 83.1607 160.73 82.4629V79.6831Z" fill="white"/>
<path d="M6.93997 114.223H9.32999V114.863C9.29433 116.076 8.78308 117.226 7.90671 118.065C7.03034 118.904 5.85915 119.365 4.64597 119.348C3.43279 119.33 2.275 118.837 1.42258 117.974C0.570161 117.11 0.0915266 115.946 0.0899993 114.733V107.563C0.0609337 106.951 0.16099 106.34 0.3837 105.77C0.606411 105.199 0.946774 104.682 1.3826 104.252C1.81843 103.822 2.33995 103.488 2.91324 103.273C3.48653 103.058 4.09875 102.966 4.70999 103.003C5.31211 102.958 5.91702 103.04 6.48532 103.244C7.05363 103.448 7.57256 103.769 8.0084 104.187C8.44423 104.605 8.78716 105.11 9.01486 105.669C9.24257 106.229 9.34994 106.829 9.32999 107.433V108.133H6.93997V107.913C6.93997 106.133 5.91999 105.333 4.70999 105.333C3.46999 105.333 2.47995 106.133 2.47995 107.913V114.413C2.47995 116.103 3.23999 116.993 4.70999 116.993C6.10999 116.993 6.93997 116.133 6.93997 114.413V114.223Z" fill="white"/>
<path d="M12.32 107.463C12.351 106.277 12.8431 105.149 13.6917 104.32C14.5403 103.49 15.6788 103.024 16.8654 103.02C18.0521 103.016 19.1936 103.475 20.0477 104.299C20.9017 105.123 21.4012 106.247 21.44 107.433V114.793C21.44 116.002 20.9596 117.162 20.1044 118.017C19.2493 118.873 18.0894 119.353 16.88 119.353C15.6706 119.353 14.5107 118.873 13.6556 118.017C12.8004 117.162 12.32 116.002 12.32 114.793V107.463ZM19.04 107.913C19.04 106.163 18.05 105.333 16.87 105.333C15.69 105.333 14.7 106.163 14.7 107.913V114.413C14.7 116.073 15.46 116.993 16.87 116.993C18.21 116.993 19.04 116.133 19.04 114.413V107.913Z" fill="white"/>
<path d="M27.64 103.263V104.823C28.0132 104.268 28.5161 103.812 29.105 103.495C29.6939 103.178 30.3512 103.009 31.02 103.003C31.6626 102.958 32.3038 103.108 32.8602 103.433C33.4166 103.757 33.8625 104.242 34.14 104.823C34.5081 104.249 35.0182 103.78 35.6209 103.461C36.2236 103.142 36.8984 102.984 37.58 103.003C39.78 103.003 40.83 104.503 40.83 106.733V119.063H38.44V107.783C38.44 106.413 37.87 105.333 36.43 105.333C34.93 105.333 34.23 106.703 34.23 108.233V119.063H31.84V107.783C31.84 106.793 31.46 105.333 29.86 105.333C28.33 105.333 27.63 106.763 27.63 108.233V119.063H25.24V103.263H27.64Z" fill="white"/>
<path d="M44.78 103.263H47.17V104.823C47.5518 104.269 48.0606 103.815 48.6539 103.499C49.2471 103.182 49.9076 103.012 50.58 103.003C53.38 103.003 53.89 105.133 53.89 106.663V115.643C53.89 117.173 53.38 119.303 50.58 119.303C49.9076 119.294 49.2471 119.124 48.6539 118.807C48.0606 118.491 47.5518 118.037 47.17 117.483V125.543H44.78V103.263ZM51.5 114.543V107.793C51.5 106.583 51.02 105.343 49.49 105.343C47.55 105.343 47.16 107.253 47.16 108.243V114.103C47.16 115.093 47.54 117.003 49.49 117.003C51.03 116.993 51.5 115.753 51.5 114.543Z" fill="white"/>
<path d="M64.34 114.633H66.73V114.853C66.7753 115.445 66.6932 116.04 66.4889 116.598C66.2847 117.155 65.9632 117.663 65.5461 118.086C65.129 118.508 64.6262 118.837 64.0713 119.048C63.5165 119.26 62.9227 119.35 62.33 119.313C61.7159 119.351 61.1005 119.259 60.5246 119.043C59.9487 118.826 59.4253 118.49 58.9887 118.056C58.5522 117.622 58.2126 117.101 57.9922 116.527C57.7717 115.952 57.6756 115.337 57.71 114.723V107.393C57.6862 106.804 57.7857 106.216 58.0022 105.667C58.2187 105.119 58.5474 104.621 58.9673 104.207C59.3871 103.793 59.8889 103.471 60.4404 103.262C60.9919 103.053 61.581 102.961 62.17 102.993C62.7752 102.967 63.3795 103.065 63.9454 103.281C64.5112 103.498 65.0266 103.828 65.4596 104.252C65.8927 104.675 66.2342 105.183 66.4631 105.744C66.6919 106.305 66.8031 106.907 66.79 107.513V112.033H60.1V114.553C60.1 116.243 60.86 116.973 62.33 116.973C63.73 116.973 64.34 116.113 64.34 114.803V114.633ZM64.4 110.273V107.563C64.4318 107.271 64.3993 106.975 64.3049 106.697C64.2105 106.419 64.0565 106.165 63.8536 105.953C63.6507 105.74 63.4039 105.575 63.1303 105.468C62.8568 105.361 62.5632 105.315 62.27 105.333C61.9669 105.327 61.6659 105.385 61.387 105.504C61.1081 105.623 60.8578 105.8 60.6526 106.024C60.4473 106.247 60.2919 106.511 60.1966 106.799C60.1014 107.087 60.0684 107.392 60.1 107.693V110.273H64.4Z" fill="white"/>
<path d="M73.29 98.4531V103.263H75.52V105.173H73.29V114.763C73.2658 115.083 73.3104 115.405 73.4208 115.707C73.5312 116.009 73.7048 116.284 73.93 116.513C74.372 116.807 74.9013 116.941 75.43 116.893H75.68V119.063H74.98C74.4232 119.193 73.8425 119.18 73.2921 119.025C72.7416 118.871 72.2393 118.579 71.832 118.177C71.4247 117.776 71.1256 117.278 70.9626 116.73C70.7997 116.182 70.7782 115.602 70.9 115.043V105.163H69.21V103.253H70.9V98.4431H73.29V98.4531Z" fill="white"/>
<path d="M81 97.2031V99.533H78.61V97.2031H81ZM78.61 103.263H81V119.063H78.61V103.263Z" fill="white"/>
<path d="M87.75 98.4531V103.263H89.98V105.173H87.75V114.763C87.7258 115.083 87.7704 115.405 87.8808 115.707C87.9912 116.009 88.1648 116.284 88.39 116.513C88.832 116.807 89.3613 116.941 89.89 116.893H90.14V119.063H89.44C88.8832 119.193 88.3025 119.18 87.7521 119.025C87.2016 118.871 86.6993 118.579 86.292 118.177C85.8847 117.776 85.5856 117.278 85.4227 116.73C85.2597 116.182 85.2381 115.602 85.36 115.043V105.163H83.67V103.253H85.36V98.4431H87.75V98.4531Z" fill="white"/>
<path d="M95.46 97.2031V99.533H93.07V97.2031H95.46ZM93.07 103.263H95.46V119.063H93.07V103.263Z" fill="white"/>
<path d="M104.03 119.063H102.15L98.01 103.263H100.53L103.17 114.353H103.23L105.81 103.263H108.23L104.03 119.063Z" fill="white"/>
<path d="M116.77 117.503H116.74C116.349 118.085 115.816 118.558 115.192 118.877C114.567 119.195 113.871 119.349 113.17 119.323C110.65 119.323 109.92 117.413 109.92 114.893C109.92 111.543 111 109.663 114.54 109.663C115.285 109.667 116.03 109.71 116.77 109.793V107.463C116.771 107.174 116.713 106.889 116.6 106.623C116.487 106.358 116.321 106.118 116.113 105.919C115.904 105.719 115.657 105.565 115.387 105.464C115.116 105.363 114.828 105.319 114.54 105.333C113.997 105.31 113.466 105.5 113.061 105.862C112.655 106.224 112.408 106.731 112.37 107.273H110.08C110.08 104.593 112.12 103.003 114.7 103.003C118.36 103.003 119.16 105.713 119.16 107.753V119.063H116.77V117.503ZM116.77 111.543C116.234 111.454 115.693 111.4 115.15 111.383C113.78 111.383 112.31 112.113 112.31 114.443C112.31 116.673 112.98 117.283 114.35 117.283C115.035 117.148 115.651 116.779 116.093 116.239C116.534 115.698 116.774 115.021 116.77 114.323V111.543Z" fill="white"/>
<path d="M125.79 116.353V119.063H123.05V116.353H125.79Z" fill="white"/>
</svg>
