<svg width="173" height="126" viewBox="0 0 173 126" fill="none" xmlns="http://www.w3.org/2000/svg">
<path d="M8.21995 6.00294C8.25363 5.64295 8.21074 5.27997 8.09409 4.93775C7.97745 4.59553 7.78971 4.28181 7.54319 4.01734C7.29666 3.75287 6.99699 3.54369 6.66379 3.40333C6.3306 3.26296 5.97142 3.19478 5.60996 3.20313C3.08996 3.20313 2.86997 5.37301 2.86997 6.58301V18.593C2.83567 18.9556 2.87641 19.3214 2.98972 19.6675C3.10303 20.0136 3.28646 20.3326 3.52854 20.6047C3.77061 20.8768 4.06624 21.0962 4.39683 21.249C4.72741 21.4019 5.08582 21.4848 5.44993 21.4929C6.68993 21.4929 8.21995 20.9531 8.21995 18.3731V17.6731H10.64V18.5029C10.64 21.6929 9.16995 23.823 5.34995 23.823C0.88995 23.823 0.469945 20.1931 0.469945 18.9131V5.72291C0.451836 5.06868 0.570111 4.41785 0.817113 3.81177C1.06412 3.2057 1.43451 2.65784 1.90476 2.20264C2.37501 1.74744 2.93477 1.3949 3.54856 1.16773C4.16234 0.940563 4.81665 0.843693 5.46995 0.883062C8.23995 0.883062 10.54 2.22295 10.54 5.76295V7.19312H8.20994V6.00294H8.21995Z" fill="white"/>
<path d="M13.54 11.8931C13.5711 10.7068 14.0631 9.57924 14.9117 8.74978C15.7604 7.92032 16.8988 7.45412 18.0854 7.45022C19.2721 7.44632 20.4136 7.90492 21.2677 8.72878C22.1218 9.55265 22.6212 10.677 22.66 11.8631V19.2229C22.66 20.4323 22.1796 21.5924 21.3245 22.4475C20.4693 23.3027 19.3094 23.783 18.1 23.783C16.8906 23.783 15.7308 23.3027 14.8756 22.4475C14.0204 21.5924 13.54 20.4323 13.54 19.2229V11.8931ZM20.26 12.343C20.26 10.593 19.27 9.76296 18.09 9.76296C16.91 9.76296 15.92 10.593 15.92 12.343V18.843C15.92 20.503 16.68 21.4231 18.09 21.4231C19.43 21.4231 20.26 20.563 20.26 18.843V12.343Z" fill="white"/>
<path d="M28.86 7.69301V9.25282C29.2332 8.69777 29.736 8.24205 30.325 7.92494C30.9139 7.60783 31.5712 7.43905 32.24 7.433C32.8826 7.38841 33.5238 7.53811 34.0802 7.86268C34.6366 8.18725 35.0825 8.67151 35.36 9.25282C35.7281 8.67891 36.2383 8.20986 36.8409 7.891C37.4436 7.57214 38.1185 7.41446 38.8 7.433C41 7.433 42.05 8.93298 42.05 11.163V23.4928H39.66V12.2128C39.66 10.8428 39.09 9.76283 37.65 9.76283C36.15 9.76283 35.45 11.133 35.45 12.663V23.4928H33.0601V12.2128C33.0601 11.2228 32.68 9.76283 31.08 9.76283C29.55 9.76283 28.85 11.193 28.85 12.663V23.4928H26.46V7.69301H28.86Z" fill="white"/>
<path d="M45.87 11.8931C45.901 10.7068 46.3931 9.57924 47.2417 8.74978C48.0903 7.92032 49.2287 7.45412 50.4154 7.45022C51.6021 7.44632 52.7436 7.90492 53.5977 8.72878C54.4517 9.55265 54.9512 10.677 54.99 11.8631V19.2229C54.99 20.4323 54.5096 21.5924 53.6544 22.4475C52.7993 23.3027 51.6394 23.783 50.4301 23.783C49.2207 23.783 48.0607 23.3027 47.2056 22.4475C46.3504 21.5924 45.87 20.4323 45.87 19.2229V11.8931ZM52.6 12.343C52.6 10.593 51.6101 9.76296 50.4301 9.76296C49.2501 9.76296 48.26 10.593 48.26 12.343V18.843C48.26 20.503 49.0201 21.4231 50.4301 21.4231C51.7701 21.4231 52.6 20.563 52.6 18.843V12.343Z" fill="white"/>
<path d="M75.34 23.4929H72.95V21.9331C72.5682 22.4867 72.0595 22.9407 71.4662 23.2573C70.8729 23.574 70.2125 23.7439 69.54 23.7529C66.74 23.7529 66.23 21.623 66.23 20.093V11.113C66.23 9.58304 66.74 7.45312 69.54 7.45312C70.2125 7.46217 70.8729 7.63209 71.4662 7.94873C72.0595 8.26537 72.5682 8.71935 72.95 9.27295V1.21289H75.34V23.4929ZM72.95 18.5229V12.6631C72.95 11.6731 72.57 9.76294 70.62 9.76294C69.09 9.76294 68.61 11.0029 68.61 12.2129V18.9629C68.61 20.1729 69.09 21.4131 70.62 21.4131C72.57 21.4231 72.95 19.5129 72.95 18.5229Z" fill="white"/>
<path d="M79.16 11.8931C79.191 10.7068 79.6831 9.57924 80.5317 8.74978C81.3804 7.92032 82.5188 7.45412 83.7054 7.45022C84.8921 7.44632 86.0336 7.90492 86.8877 8.72878C87.7418 9.55265 88.2412 10.677 88.28 11.8631V19.2229C88.28 20.4323 87.7996 21.5924 86.9445 22.4475C86.0893 23.3027 84.9294 23.783 83.72 23.783C82.5106 23.783 81.3508 23.3027 80.4956 22.4475C79.6404 21.5924 79.16 20.4323 79.16 19.2229V11.8931ZM85.89 12.343C85.89 10.593 84.9 9.76296 83.72 9.76296C82.54 9.76296 81.55 10.593 81.55 12.343V18.843C81.55 20.503 82.31 21.4231 83.72 21.4231C85.06 21.4231 85.89 20.563 85.89 18.843V12.343Z" fill="white"/>
<path d="M94.49 7.69301V9.25282C94.8632 8.69777 95.366 8.24205 95.955 7.92494C96.5439 7.60783 97.2012 7.43905 97.87 7.433C98.5126 7.38841 99.1538 7.53811 99.7102 7.86268C100.267 8.18725 100.712 8.67151 100.99 9.25282C101.358 8.67891 101.868 8.20986 102.471 7.891C103.074 7.57214 103.748 7.41446 104.43 7.433C106.63 7.433 107.68 8.93298 107.68 11.163V23.4928H105.29V12.2128C105.29 10.8428 104.72 9.76283 103.28 9.76283C101.78 9.76283 101.08 11.133 101.08 12.663V23.4928H98.6899V12.2128C98.6899 11.2228 98.31 9.76283 96.71 9.76283C95.18 9.76283 94.48 11.193 94.48 12.663V23.4928H92.09V7.69301H94.49Z" fill="white"/>
<path d="M114.01 1.64307V3.9729H111.62V1.64307H114.01ZM111.62 7.69312H114.01V23.4929H111.62V7.69312Z" fill="white"/>
<path d="M117.96 7.69312H120.35V9.25293C120.732 8.69933 121.241 8.24535 121.834 7.92871C122.427 7.61207 123.088 7.44215 123.76 7.43311C126.56 7.43311 127.07 9.56302 127.07 11.093V23.4829H124.68V12.2031C124.68 10.9931 124.2 9.75293 122.67 9.75293C120.73 9.75293 120.34 11.6631 120.34 12.6531V23.4829H117.95V7.69312H117.96Z" fill="white"/>
<path d="M137.59 21.9331H137.56C137.169 22.5156 136.636 22.9886 136.012 23.3071C135.387 23.6257 134.691 23.779 133.99 23.7529C131.47 23.7529 130.74 21.843 130.74 19.323C130.74 15.973 131.82 14.093 135.36 14.093C136.105 14.0965 136.849 14.1398 137.59 14.2229V11.8931C137.591 11.6045 137.533 11.3187 137.42 11.0532C137.307 10.7877 137.141 10.5479 136.933 10.3486C136.724 10.1493 136.477 9.99475 136.207 9.89404C135.936 9.79334 135.648 9.74868 135.36 9.76294C134.817 9.74 134.286 9.92993 133.881 10.2922C133.476 10.6545 133.228 11.1608 133.19 11.7031H130.9C130.9 9.02312 132.94 7.43311 135.52 7.43311C139.18 7.43311 139.98 10.1431 139.98 12.1831V23.4929H137.59V21.9331ZM137.59 15.9729C137.054 15.8836 136.513 15.8302 135.97 15.813C134.6 15.813 133.13 16.543 133.13 18.873C133.13 21.103 133.8 21.7129 135.17 21.7129C135.855 21.578 136.471 21.2087 136.913 20.6685C137.354 20.1282 137.594 19.4508 137.59 18.7529V15.9729Z" fill="white"/>
<path d="M146.32 7.69312V10.1831C148.01 7.89311 149.47 7.47312 150.72 7.44312V10.123H150.27C148.52 10.123 146.32 10.823 146.32 14.293V23.5029H143.93V7.70312H146.32V7.69312Z" fill="white"/>
<path d="M0.319946 43.753C0.350962 42.5667 0.843014 41.4394 1.69165 40.6099C2.54029 39.7804 3.67881 39.3142 4.86548 39.3103C6.05215 39.3064 7.19353 39.765 8.04761 40.5889C8.90168 41.4128 9.40112 42.5369 9.43994 43.7229V51.083C9.43994 52.2924 8.95954 53.4522 8.10437 54.3074C7.2492 55.1626 6.08939 55.6431 4.88 55.6431C3.67062 55.6431 2.51081 55.1626 1.65564 54.3074C0.800474 53.4522 0.319946 52.2924 0.319946 51.083V43.753ZM7.04004 44.2031C7.04004 42.4531 6.04999 41.6231 4.87 41.6231C3.69 41.6231 2.69995 42.4531 2.69995 44.2031V50.7031C2.69995 52.3631 3.46 53.283 4.87 53.283C6.21 53.283 7.04004 52.4232 7.04004 50.7031V44.2031Z" fill="white"/>
<path d="M20.6801 39.553H23.0699V41.113C23.4517 40.5594 23.9606 40.1052 24.5538 39.7886C25.1471 39.4719 25.8076 39.302 26.48 39.293C29.28 39.293 29.79 41.4231 29.79 42.9531V55.343H27.4V44.063C27.4 42.853 26.92 41.613 25.39 41.613C23.45 41.613 23.0601 43.5229 23.0601 44.5129V55.343H20.67V39.553H20.6801Z" fill="white"/>
<path d="M33.74 39.553H36.13V55.353H33.74V39.553ZM35.36 36.9331H34.12L35.59 33.043H38.17L35.36 36.9331Z" fill="white"/>
<path d="M44.7 55.353H42.8199L38.6801 39.553H41.2L43.84 50.6431H43.9L46.48 39.553H48.9L44.7 55.353Z" fill="white"/>
<path d="M57.85 50.9232H60.24V51.1431C60.2853 51.7353 60.2031 52.3301 59.9989 52.8878C59.7946 53.4454 59.4732 53.9528 59.0561 54.3756C58.6391 54.7983 58.1361 55.1267 57.5813 55.3384C57.0264 55.5502 56.4326 55.6404 55.8399 55.6031C55.2258 55.6415 54.6106 55.5493 54.0346 55.3326C53.4587 55.1159 52.9353 54.7797 52.4988 54.346C52.0622 53.9123 51.7226 53.3912 51.5022 52.8167C51.2818 52.2422 51.1855 51.6274 51.2199 51.013V43.6832C51.1961 43.0938 51.2957 42.506 51.5122 41.9573C51.7287 41.4087 52.0574 40.9114 52.4773 40.4971C52.8971 40.0829 53.3989 39.7609 53.9504 39.5518C54.5019 39.3428 55.0911 39.2512 55.68 39.283C56.2853 39.2566 56.8895 39.3549 57.4553 39.5714C58.0211 39.7878 58.5366 40.1181 58.9697 40.5418C59.4028 40.9655 59.7442 41.4735 59.973 42.0345C60.2018 42.5955 60.3132 43.1973 60.3 43.803V48.3231H53.61V50.8431C53.61 52.5331 54.3699 53.263 55.8399 53.263C57.2399 53.263 57.85 52.4031 57.85 51.0931V50.9232ZM57.92 46.553V43.8431C57.9518 43.5511 57.9193 43.2555 57.8249 42.9774C57.7306 42.6992 57.5765 42.4451 57.3736 42.2327C57.1707 42.0203 56.9239 41.8546 56.6504 41.7476C56.3768 41.6406 56.0832 41.5948 55.79 41.6131C55.4869 41.6069 55.1858 41.6652 54.907 41.7842C54.6281 41.9033 54.3778 42.0803 54.1726 42.3035C53.9674 42.5267 53.8119 42.7911 53.7166 43.0789C53.6214 43.3668 53.5884 43.6714 53.62 43.973V46.553H57.92Z" fill="white"/>
<path d="M66.39 33.053V51.4031C66.3713 51.6376 66.4038 51.8734 66.4851 52.0942C66.5664 52.315 66.6947 52.5155 66.8611 52.6819C67.0275 52.8483 67.2281 52.9765 67.4489 53.0579C67.6697 53.1392 67.9055 53.1718 68.14 53.1531H68.49V55.353H67.76C65.34 55.353 64 53.923 64 51.853V33.053H66.39Z" fill="white"/>
<path d="M81.04 39.5529V41.1129C81.4133 40.5579 81.9161 40.1022 82.505 39.785C83.0939 39.4679 83.7512 39.2989 84.42 39.2929C85.0627 39.2483 85.7037 39.398 86.2601 39.7225C86.8165 40.0471 87.2625 40.5316 87.54 41.1129C87.9082 40.539 88.4182 40.07 89.0209 39.7511C89.6236 39.4323 90.2984 39.2743 90.98 39.2929C93.18 39.2929 94.23 40.7928 94.23 43.0228V55.3529H91.84V44.0729C91.84 42.7029 91.27 41.6229 89.83 41.6229C88.33 41.6229 87.63 42.9928 87.63 44.5228V55.3529H85.24V44.0729C85.24 43.0829 84.86 41.6229 83.26 41.6229C81.73 41.6229 81.03 43.0528 81.03 44.5228V55.3529H78.64V39.5529H81.04Z" fill="white"/>
<path d="M104.74 53.793H104.71C104.319 54.3755 103.786 54.8485 103.162 55.167C102.537 55.4855 101.841 55.6391 101.14 55.613C98.62 55.613 97.89 53.7031 97.89 51.1831C97.89 47.8331 98.97 45.9531 102.51 45.9531C103.255 45.9566 104 45.9999 104.74 46.083V43.7529C104.741 43.4644 104.683 43.1788 104.57 42.9133C104.457 42.6478 104.291 42.408 104.083 42.2087C103.874 42.0094 103.627 41.8549 103.357 41.7542C103.086 41.6534 102.798 41.6088 102.51 41.623C101.967 41.6001 101.436 41.79 101.031 42.1523C100.626 42.5147 100.378 43.0207 100.34 43.563H98.05C98.05 40.883 100.09 39.293 102.67 39.293C106.33 39.293 107.13 42.003 107.13 44.043V55.353H104.74V53.793ZM104.74 47.833C104.204 47.7437 103.663 47.6903 103.12 47.6731C101.75 47.6731 100.28 48.4029 100.28 50.7329C100.28 52.9629 100.95 53.573 102.32 53.573C103.005 53.4381 103.621 53.0688 104.063 52.5286C104.504 51.9883 104.744 51.3109 104.74 50.613V47.833ZM103.09 36.9331H101.85L103.31 33.043H105.89L103.09 36.9331Z" fill="white"/>
<path d="M113.44 47.293L109.78 39.553H112.33L114.72 44.9331L116.98 39.553H119.5L115.84 47.1631L119.7 55.353H117.21L114.66 49.623L112.11 55.353H109.59L113.44 47.293Z" fill="white"/>
<path d="M124.43 33.4929V35.823H122.04V33.4929H124.43ZM122.04 39.553H124.43V55.353H122.04V39.553Z" fill="white"/>
<path d="M130.77 39.5529V41.1129C131.143 40.5579 131.646 40.1022 132.235 39.785C132.824 39.4679 133.481 39.2989 134.15 39.2929C134.793 39.2483 135.434 39.398 135.99 39.7225C136.547 40.0471 136.993 40.5316 137.27 41.1129C137.638 40.539 138.148 40.07 138.751 39.7511C139.354 39.4323 140.028 39.2743 140.71 39.2929C142.91 39.2929 143.96 40.7928 143.96 43.0228V55.3529H141.57V44.0729C141.57 42.7029 141 41.6229 139.56 41.6229C138.06 41.6229 137.36 42.9928 137.36 44.5228V55.3529H134.97V44.0729C134.97 43.0829 134.59 41.6229 132.99 41.6229C131.46 41.6229 130.76 43.0528 130.76 44.5228V55.3529H128.37V39.5529H130.77Z" fill="white"/>
<path d="M147.78 43.753C147.811 42.5667 148.303 41.4394 149.152 40.6099C150 39.7804 151.139 39.3142 152.325 39.3103C153.512 39.3064 154.654 39.765 155.508 40.5889C156.362 41.4128 156.861 42.5369 156.9 43.7229V51.083C156.9 52.2924 156.42 53.4522 155.564 54.3074C154.709 55.1626 153.549 55.6431 152.34 55.6431C151.131 55.6431 149.971 55.1626 149.116 54.3074C148.26 53.4522 147.78 52.2924 147.78 51.083V43.753ZM154.5 44.2031C154.5 42.4531 153.51 41.6231 152.33 41.6231C151.15 41.6231 150.16 42.4531 150.16 44.2031V50.7031C150.16 52.3631 150.92 53.283 152.33 53.283C153.67 53.283 154.5 52.4232 154.5 50.7031V44.2031Z" fill="white"/>
<path d="M9.56006 87.2031H7.17004V85.6431C6.78827 86.1967 6.27942 86.6506 5.68616 86.9673C5.09289 87.2839 4.43243 87.4538 3.76001 87.4629C0.96001 87.4629 0.449951 85.333 0.449951 83.803V74.823C0.449951 73.293 0.96001 71.1631 3.76001 71.1631C4.43243 71.1721 5.09289 71.3421 5.68616 71.6587C6.27942 71.9753 6.78827 72.4293 7.17004 72.9829V64.9231H9.56006V87.2031ZM7.17004 82.2329V76.373C7.17004 75.383 6.78997 73.4729 4.83997 73.4729C3.30997 73.4729 2.82996 74.7131 2.82996 75.9231V82.6731C2.82996 83.8831 3.30997 85.123 4.83997 85.123C6.78997 85.133 7.17004 83.2229 7.17004 82.2329Z" fill="white"/>
<path d="M20.0699 85.6431H20.04C19.6495 86.2256 19.1164 86.6986 18.4916 87.0171C17.8668 87.3356 17.1708 87.489 16.47 87.4629C13.95 87.4629 13.22 85.553 13.22 83.033C13.22 79.683 14.3 77.803 17.84 77.803C18.5851 77.8064 19.3295 77.85 20.0699 77.9331V75.603C20.071 75.3145 20.0133 75.0287 19.9003 74.7632C19.7873 74.4977 19.6214 74.2581 19.4127 74.0588C19.2041 73.8595 18.957 73.7047 18.6866 73.604C18.4162 73.5033 18.1282 73.4586 17.84 73.4729C17.2968 73.45 16.7662 73.6399 16.361 74.0022C15.9557 74.3645 15.7078 74.8708 15.67 75.4131H13.38C13.38 72.7331 15.42 71.1431 18 71.1431C21.66 71.1431 22.46 73.8531 22.46 75.8931V87.2031H20.0699V85.6431ZM20.0699 79.6831C19.5341 79.5938 18.9929 79.5402 18.45 79.5229C17.08 79.5229 15.61 80.253 15.61 82.583C15.61 84.813 16.28 85.4231 17.65 85.4231C18.3347 85.2882 18.9509 84.9187 19.3926 84.3784C19.8343 83.8382 20.0738 83.1607 20.0699 82.4629V79.6831Z" fill="white"/>
<path d="M40.3299 82.783H42.7199V83.003C42.7653 83.5951 42.6832 84.1902 42.479 84.7479C42.2747 85.3055 41.9532 85.8129 41.5361 86.2357C41.119 86.6584 40.6161 86.9865 40.0613 87.1983C39.5064 87.4101 38.9126 87.5003 38.3199 87.463C37.7058 87.5014 37.0905 87.4094 36.5146 87.1927C35.9387 86.976 35.4152 86.6398 34.9787 86.2061C34.5422 85.7724 34.2026 85.2511 33.9822 84.6766C33.7617 84.1021 33.6655 83.4875 33.6999 82.8731V75.543C33.6761 74.9537 33.7757 74.3658 33.9922 73.8172C34.2087 73.2686 34.5374 72.7712 34.9573 72.357C35.3771 71.9428 35.8789 71.621 36.4304 71.4119C36.9819 71.2029 37.5711 71.1113 38.16 71.1431C38.7653 71.1167 39.3696 71.2147 39.9354 71.4312C40.5012 71.6477 41.0166 71.978 41.4497 72.4017C41.8827 72.8254 42.2243 73.3334 42.4531 73.8944C42.6819 74.4553 42.7932 75.0574 42.78 75.6631V80.1832H36.0899V82.7032C36.0899 84.3932 36.8499 85.1231 38.3199 85.1231C39.7199 85.1231 40.3299 84.2632 40.3299 82.9532V82.783ZM40.4 78.4131V75.7032C40.4318 75.4112 40.3993 75.1156 40.3049 74.8375C40.2105 74.5593 40.0565 74.305 39.8536 74.0926C39.6507 73.8802 39.4039 73.7148 39.1303 73.6077C38.8568 73.5007 38.5632 73.4546 38.27 73.473C37.9669 73.4668 37.6658 73.5253 37.3869 73.6444C37.1081 73.7634 36.8578 73.9402 36.6526 74.1634C36.4473 74.3866 36.2919 74.6509 36.1966 74.9388C36.1014 75.2266 36.0684 75.5315 36.1 75.8331V78.4131H40.4Z" fill="white"/>
<path d="M52.5601 75.573C52.4001 73.793 51.4101 73.4031 50.4301 73.4031C50.152 73.3581 49.8672 73.3799 49.5991 73.4666C49.3311 73.5532 49.0875 73.7022 48.8883 73.9014C48.6891 74.1005 48.5401 74.344 48.4535 74.6121C48.3669 74.8801 48.3451 75.165 48.39 75.4431C48.39 76.6831 49.25 77.1931 50.27 77.6731L52.25 78.6331C53.211 79.0688 53.9937 79.8207 54.4678 80.7634C54.9418 81.7061 55.0786 82.7827 54.8552 83.814C54.6319 84.8452 54.0619 85.769 53.2404 86.4312C52.4188 87.0933 51.3951 87.454 50.34 87.4531C46.8 87.4531 45.78 85.1231 45.72 82.9331H48.14C48.27 84.6231 49.03 85.2229 50.27 85.2229C50.5808 85.2659 50.8973 85.2364 51.1947 85.1365C51.4921 85.0366 51.7624 84.8691 51.9843 84.6472C52.2061 84.4254 52.3736 84.1551 52.4735 83.8577C52.5734 83.5602 52.603 83.2439 52.5601 82.9331C52.5601 81.7531 52.18 81.153 50.55 80.353L48.61 79.3931C47.7702 79.0915 47.0563 78.5163 46.5829 77.76C46.1095 77.0037 45.9042 76.11 46 75.2229C46 73.0929 47.4001 71.1431 50.5601 71.1431C54.0301 71.1431 54.89 73.593 54.96 75.573H52.5601Z" fill="white"/>
<path d="M65.0201 82.3629H67.4101V83.0028C67.3744 84.2156 66.8632 85.3659 65.9868 86.205C65.1105 87.0441 63.9392 87.5048 62.726 87.4877C61.5128 87.4706 60.355 86.9771 59.5026 86.1137C58.6502 85.2503 58.1716 84.0862 58.1701 82.8729V75.703C58.141 75.0914 58.2411 74.4802 58.4638 73.9098C58.6865 73.3394 59.0269 72.8224 59.4627 72.3922C59.8985 71.9621 60.42 71.6285 60.9933 71.4132C61.5666 71.198 62.1788 71.1059 62.7901 71.143C63.3922 71.0977 63.997 71.1797 64.5653 71.3837C65.1336 71.5877 65.6526 71.9091 66.0884 72.327C66.5242 72.745 66.8672 73.25 67.0949 73.8092C67.3226 74.3685 67.43 74.9694 67.4101 75.5729V76.2729H65.0201V76.0529C65.0201 74.2729 64.0001 73.4728 62.7901 73.4728C61.5501 73.4728 60.5601 74.2729 60.5601 76.0529V82.5529C60.5601 84.2429 61.3201 85.133 62.7901 85.133C64.1901 85.133 65.0201 84.2729 65.0201 82.5529V82.3629Z" fill="white"/>
<path d="M76.77 85.6431H76.74C76.3494 86.2256 75.8164 86.6986 75.1915 87.0171C74.5667 87.3356 73.8709 87.489 73.17 87.4629C70.65 87.4629 69.92 85.553 69.92 83.033C69.92 79.683 71 77.803 74.54 77.803C75.2852 77.8064 76.0295 77.85 76.77 77.9331V75.603C76.7711 75.3145 76.7133 75.0287 76.6003 74.7632C76.4873 74.4977 76.3214 74.2581 76.1128 74.0588C75.9041 73.8595 75.6571 73.7047 75.3867 73.604C75.1163 73.5033 74.8282 73.4586 74.54 73.4729C73.9969 73.45 73.4663 73.6399 73.061 74.0022C72.6558 74.3645 72.4078 74.8708 72.37 75.4131H70.08C70.08 72.7331 72.12 71.1431 74.7 71.1431C78.36 71.1431 79.16 73.8531 79.16 75.8931V87.2031H76.77V85.6431ZM76.77 79.6831C76.2342 79.5938 75.693 79.5402 75.15 79.5229C73.78 79.5229 72.3101 80.253 72.3101 82.583C72.3101 84.813 72.98 85.4231 74.35 85.4231C75.0347 85.2882 75.6509 84.9187 76.0927 84.3784C76.5344 83.8382 76.7739 83.1607 76.77 82.4629V79.6831Z" fill="white"/>
<path d="M85.5 64.9031V83.2529C85.4813 83.4875 85.5138 83.7233 85.5951 83.9441C85.6764 84.1649 85.8047 84.3656 85.9711 84.532C86.1375 84.6984 86.338 84.8266 86.5588 84.908C86.7796 84.9893 87.0154 85.0216 87.25 85.0029H87.6V87.2031H86.87C84.45 87.2031 83.11 85.7731 83.11 83.7031V64.9031H85.5Z" fill="white"/>
<path d="M96.91 85.6431H96.88C96.4894 86.2256 95.9564 86.6986 95.3315 87.0171C94.7067 87.3356 94.0109 87.489 93.3101 87.4629C90.7901 87.4629 90.0601 85.553 90.0601 83.033C90.0601 79.683 91.1401 77.803 94.6801 77.803C95.4252 77.8064 96.1696 77.85 96.91 77.9331V75.603C96.9111 75.3145 96.8532 75.0287 96.7402 74.7632C96.6272 74.4977 96.4615 74.2581 96.2528 74.0588C96.0442 73.8595 95.797 73.7047 95.5266 73.604C95.2562 73.5033 94.9682 73.4586 94.6801 73.4729C94.1369 73.45 93.6062 73.6399 93.2009 74.0022C92.7957 74.3645 92.5478 74.8708 92.51 75.4131H90.22C90.22 72.7331 92.26 71.1431 94.84 71.1431C98.5 71.1431 99.3 73.8531 99.3 75.8931V87.2031H96.91V85.6431ZM96.91 79.6831C96.3742 79.5938 95.833 79.5402 95.29 79.5229C93.92 79.5229 92.45 80.253 92.45 82.583C92.45 84.813 93.12 85.4231 94.49 85.4231C95.1747 85.2882 95.791 84.9187 96.2327 84.3784C96.6744 83.8382 96.9139 83.1607 96.91 82.4629V79.6831Z" fill="white"/>
<path d="M119.78 87.2031H117.39V85.6431C117.008 86.1967 116.499 86.6506 115.906 86.9673C115.313 87.2839 114.652 87.4538 113.98 87.4629C111.18 87.4629 110.67 85.333 110.67 83.803V74.823C110.67 73.293 111.18 71.1631 113.98 71.1631C114.652 71.1721 115.313 71.3421 115.906 71.6587C116.499 71.9753 117.008 72.4293 117.39 72.9829V64.9231H119.78V87.2031ZM117.39 82.2329V76.373C117.39 75.383 117.01 73.4729 115.06 73.4729C113.53 73.4729 113.05 74.7131 113.05 75.9231V82.6731C113.05 83.8831 113.53 85.123 115.06 85.123C117.01 85.133 117.39 83.2229 117.39 82.2329Z" fill="white"/>
<path d="M130.23 82.783H132.62V83.003C132.665 83.5951 132.583 84.1902 132.379 84.7479C132.175 85.3055 131.853 85.8129 131.436 86.2357C131.019 86.6584 130.516 86.9865 129.961 87.1983C129.406 87.4101 128.813 87.5003 128.22 87.463C127.606 87.5014 126.991 87.4094 126.415 87.1927C125.839 86.976 125.315 86.6398 124.879 86.2061C124.442 85.7724 124.103 85.2511 123.882 84.6766C123.662 84.1021 123.566 83.4875 123.6 82.8731V75.543C123.576 74.9537 123.676 74.3658 123.892 73.8172C124.109 73.2686 124.437 72.7712 124.857 72.357C125.277 71.9428 125.779 71.621 126.33 71.4119C126.882 71.2029 127.471 71.1113 128.06 71.1431C128.665 71.1167 129.269 71.2147 129.835 71.4312C130.401 71.6477 130.917 71.978 131.35 72.4017C131.783 72.8254 132.124 73.3334 132.353 73.8944C132.582 74.4553 132.693 75.0574 132.68 75.6631V80.1832H125.99V82.7032C125.99 84.3932 126.75 85.1231 128.22 85.1231C129.62 85.1231 130.23 84.2632 130.23 82.9532V82.783ZM130.29 78.4131V75.7032C130.322 75.4112 130.289 75.1156 130.195 74.8375C130.101 74.5593 129.947 74.305 129.744 74.0926C129.541 73.8802 129.294 73.7148 129.02 73.6077C128.747 73.5007 128.453 73.4546 128.16 73.473C127.857 73.4668 127.556 73.5253 127.277 73.6444C126.998 73.7634 126.748 73.9402 126.543 74.1634C126.337 74.3866 126.182 74.6509 126.087 74.9388C125.991 75.2266 125.958 75.5315 125.99 75.8331V78.4131H130.29Z" fill="white"/>
<path d="M152.91 87.2031H150.52V85.6431C150.138 86.1967 149.629 86.6506 149.036 86.9673C148.443 87.2839 147.782 87.4538 147.11 87.4629C144.31 87.4629 143.8 85.333 143.8 83.803V71.4131H146.19V82.6931C146.19 83.9031 146.67 85.1431 148.2 85.1431C150.14 85.1431 150.53 83.2329 150.53 82.2429V71.4131H152.92V87.2031H152.91Z" fill="white"/>
<path d="M159.25 71.403V72.9628C159.623 72.4077 160.126 71.952 160.715 71.6349C161.304 71.3178 161.961 71.149 162.63 71.143C163.273 71.0984 163.914 71.2481 164.47 71.5726C165.027 71.8972 165.472 72.3815 165.75 72.9628C166.118 72.3889 166.628 71.9198 167.231 71.601C167.834 71.2821 168.508 71.1244 169.19 71.143C171.39 71.143 172.44 72.6429 172.44 74.8729V87.203H170.05V75.923C170.05 74.553 169.48 73.4728 168.04 73.4728C166.54 73.4728 165.84 74.8429 165.84 76.3729V87.203H163.45V75.923C163.45 74.933 163.07 73.4728 161.47 73.4728C159.94 73.4728 159.24 74.9029 159.24 76.3729V87.203H156.85V71.403H159.25Z" fill="white"/>
<path d="M0.449951 103.263H2.83997V104.823C3.22174 104.269 3.73059 103.815 4.32385 103.499C4.91712 103.182 5.57758 103.012 6.25 103.003C9.05 103.003 9.56006 105.133 9.56006 106.663V119.053H7.17004V107.773C7.17004 106.563 6.69003 105.323 5.16003 105.323C3.22003 105.323 2.82996 107.233 2.82996 108.223V119.053H0.439941V103.263H0.449951Z" fill="white"/>
<path d="M20.01 114.633H22.4V114.853C22.4454 115.445 22.3631 116.04 22.1589 116.598C21.9547 117.155 21.6332 117.663 21.2162 118.086C20.7991 118.508 20.2961 118.837 19.7413 119.048C19.1865 119.26 18.5927 119.35 18 119.313C17.3859 119.351 16.7706 119.259 16.1947 119.043C15.6188 118.826 15.0953 118.49 14.6588 118.056C14.2223 117.622 13.8826 117.101 13.6622 116.527C13.4418 115.952 13.3456 115.337 13.38 114.723V107.393C13.3561 106.804 13.4557 106.216 13.6722 105.667C13.8887 105.119 14.2174 104.621 14.6373 104.207C15.0572 103.793 15.5589 103.471 16.1104 103.262C16.662 103.053 17.251 102.961 17.8399 102.993C18.4452 102.967 19.0495 103.065 19.6153 103.281C20.1812 103.498 20.6966 103.828 21.1296 104.252C21.5627 104.675 21.9042 105.183 22.133 105.744C22.3619 106.305 22.4731 106.907 22.4599 107.513V112.033H15.77V114.553C15.77 116.243 16.53 116.973 18 116.973C19.4 116.973 20.01 116.113 20.01 114.803V114.633ZM20.0699 110.273V107.563C20.1017 107.271 20.0693 106.975 19.975 106.697C19.8806 106.419 19.7265 106.165 19.5237 105.953C19.3208 105.74 19.0739 105.575 18.8004 105.468C18.5268 105.361 18.2331 105.315 17.9399 105.333C17.6368 105.327 17.3358 105.385 17.057 105.504C16.7781 105.623 16.5278 105.8 16.3226 106.024C16.1174 106.247 15.9619 106.511 15.8667 106.799C15.7714 107.087 15.7384 107.392 15.77 107.693V110.273H20.0699Z" fill="white"/>
<path d="M35.27 120.973C35.3082 121.607 35.2115 122.241 34.9863 122.835C34.7611 123.429 34.4126 123.968 33.9636 124.417C33.5147 124.866 32.9756 125.214 32.382 125.439C31.7883 125.665 31.1538 125.761 30.52 125.723C27.94 125.723 26.16 124.323 26.16 121.453H28.45C28.4491 121.728 28.5066 122 28.6185 122.251C28.7304 122.502 28.8944 122.727 29.0994 122.91C29.3044 123.094 29.5459 123.232 29.808 123.315C30.0701 123.398 30.3468 123.425 30.62 123.393C30.9097 123.407 31.1993 123.363 31.4714 123.263C31.7436 123.163 31.9927 123.009 32.2037 122.81C32.4148 122.611 32.5835 122.371 32.6997 122.105C32.8159 121.839 32.8773 121.553 32.88 121.263V117.343C32.4982 117.897 31.9894 118.351 31.3961 118.667C30.8029 118.984 30.1424 119.154 29.47 119.163C26.67 119.163 26.16 117.033 26.16 115.503V106.673C26.16 105.143 26.67 103.013 29.47 103.013C30.1424 103.022 30.8029 103.192 31.3961 103.509C31.9894 103.825 32.4982 104.279 32.88 104.833V103.273H35.27V120.973ZM32.88 113.933V108.233C32.88 107.243 32.5 105.333 30.55 105.333C29.02 105.333 28.54 106.573 28.54 107.783V114.383C28.54 115.593 29.02 116.833 30.55 116.833C32.5 116.833 32.88 114.923 32.88 113.933Z" fill="white"/>
<path d="M39.09 107.463C39.121 106.277 39.613 105.149 40.4617 104.32C41.3103 103.49 42.4487 103.024 43.6354 103.02C44.822 103.016 45.9636 103.475 46.8176 104.299C47.6717 105.123 48.1711 106.247 48.21 107.433V114.793C48.21 116.002 47.7296 117.162 46.8744 118.017C46.0192 118.872 44.8594 119.353 43.65 119.353C42.4406 119.353 41.2807 118.872 40.4255 118.017C39.5704 117.162 39.09 116.002 39.09 114.793V107.463ZM45.8101 107.913C45.8101 106.163 44.82 105.333 43.64 105.333C42.46 105.333 41.47 106.163 41.47 107.913V114.413C41.47 116.073 42.23 116.993 43.64 116.993C44.98 116.993 45.8101 116.133 45.8101 114.413V107.913ZM44.0601 100.643H42.8199L44.29 96.7529H46.87L44.0601 100.643Z" fill="white"/>
<path d="M58.74 114.223H61.13V114.863C61.0944 116.076 60.5832 117.226 59.7068 118.065C58.8304 118.904 57.6593 119.365 56.4461 119.348C55.2329 119.33 54.075 118.837 53.2226 117.974C52.3701 117.11 51.8916 115.946 51.89 114.733V107.563C51.861 106.951 51.961 106.34 52.1837 105.77C52.4065 105.199 52.7468 104.682 53.1827 104.252C53.6185 103.822 54.14 103.488 54.7133 103.273C55.2866 103.058 55.8988 102.966 56.51 103.003C57.1122 102.958 57.717 103.04 58.2853 103.244C58.8536 103.448 59.3727 103.769 59.8085 104.187C60.2443 104.605 60.5873 105.11 60.815 105.669C61.0427 106.229 61.15 106.829 61.13 107.433V108.133H58.74V107.913C58.74 106.133 57.72 105.333 56.51 105.333C55.27 105.333 54.2801 106.133 54.2801 107.913V114.413C54.2801 116.103 55.04 116.993 56.51 116.993C57.91 116.993 58.74 116.133 58.74 114.413V114.223Z" fill="white"/>
<path d="M66.64 97.2031V99.533H64.25V97.2031H66.64ZM64.25 103.263H66.64V119.063H64.25V103.263Z" fill="white"/>
<path d="M70.47 107.463C70.501 106.277 70.993 105.149 71.8417 104.32C72.6903 103.49 73.8287 103.024 75.0154 103.02C76.202 103.016 77.3436 103.475 78.1976 104.299C79.0517 105.123 79.5511 106.247 79.59 107.433V114.793C79.59 116.002 79.1096 117.162 78.2544 118.017C77.3992 118.873 76.2394 119.353 75.03 119.353C73.8206 119.353 72.6607 118.873 71.8055 118.017C70.9504 117.162 70.47 116.002 70.47 114.793V107.463ZM77.1899 107.913C77.1899 106.163 76.2 105.333 75.02 105.333C73.84 105.333 72.85 106.163 72.85 107.913V114.413C72.85 116.073 73.61 116.993 75.02 116.993C76.36 116.993 77.1899 116.133 77.1899 114.413V107.913Z" fill="white"/>
<path d="M86.08 116.353V119.063H83.34V116.353H86.08Z" fill="white"/>
</svg>
