<svg width="435" height="255" viewBox="0 0 435 255" fill="none" xmlns="http://www.w3.org/2000/svg">
<path d="M10.43 24.5531L9.23001 19.1831H3.79001L2.62 24.5531H0.109985L5.34 0.463135H7.67999L12.94 24.5531H10.43ZM6.44 5.63312L4.13 16.9832H8.84L6.44 5.63312Z" fill="#FCFCFC"/>
<path d="M17.14 7.48315H19.72V9.17316C20.1315 8.5755 20.6806 8.08548 21.321 7.74438C21.9614 7.40329 22.6744 7.22108 23.4 7.21313C26.43 7.21313 26.98 9.52316 26.98 11.1732V20.8731C26.98 22.5231 26.43 24.8331 23.4 24.8331C22.6744 24.8252 21.9614 24.643 21.321 24.3019C20.6806 23.9608 20.1315 23.4708 19.72 22.8731V31.5831H17.14V7.48315ZM24.4 19.6732V12.3831C24.4 11.0731 23.88 9.73315 22.23 9.73315C20.13 9.73315 19.72 11.7932 19.72 12.8632V19.1931C19.72 20.2631 20.13 22.3231 22.23 22.3231C23.88 22.3231 24.4 20.9732 24.4 19.6732Z" fill="#FCFCFC"/>
<path d="M34.69 7.48315V10.1631C36.51 7.68315 38.1 7.24312 39.44 7.20312V10.0931H38.96C37.07 10.0931 34.69 10.8531 34.69 14.6031V24.5432H32.11V7.47314H34.69V7.48315Z" fill="#FCFCFC"/>
<path d="M49.65 19.773H52.23V20.013C52.23 21.703 51.44 24.833 47.48 24.833C46.8164 24.8752 46.1513 24.776 45.5288 24.542C44.9063 24.3081 44.3405 23.9447 43.8689 23.4759C43.3973 23.0071 43.0305 22.4436 42.7928 21.8225C42.5551 21.2014 42.4519 20.5369 42.49 19.873V11.9631C42.4641 11.3264 42.5716 10.6913 42.8055 10.0985C43.0395 9.50584 43.3949 8.96862 43.8488 8.52134C44.3026 8.07406 44.845 7.72656 45.4411 7.50126C46.0371 7.27596 46.6738 7.17781 47.31 7.21305C47.9642 7.18541 48.6171 7.29224 49.2284 7.52689C49.8397 7.76155 50.3964 8.11908 50.8641 8.57737C51.3317 9.03566 51.7004 9.58497 51.9474 10.1914C52.1944 10.7978 52.3144 11.4484 52.3 12.1031V16.993H45.07V19.7131C45.07 21.5331 45.9 22.333 47.48 22.333C48.99 22.333 49.65 21.403 49.65 19.993V19.773ZM49.72 15.053V12.133C49.7539 11.8168 49.7183 11.4971 49.6156 11.1961C49.5129 10.8951 49.3457 10.6202 49.1257 10.3907C48.9056 10.1611 48.638 9.98236 48.3417 9.86704C48.0453 9.75172 47.7274 9.7026 47.41 9.72306C47.0828 9.71687 46.758 9.7803 46.4572 9.90916C46.1564 10.038 45.8864 10.2294 45.6651 10.4705C45.4438 10.7116 45.2763 10.997 45.1737 11.3078C45.0711 11.6185 45.0358 11.9476 45.07 12.273V15.063H49.72V15.053Z" fill="#FCFCFC"/>
<path d="M57.15 7.48315H59.73V9.17316C60.1415 8.5755 60.6906 8.08548 61.331 7.74438C61.9714 7.40329 62.6844 7.22108 63.41 7.21313C66.44 7.21313 66.99 9.52316 66.99 11.1732V24.5531H64.41V12.3731C64.41 11.0631 63.89 9.72314 62.24 9.72314C60.14 9.72314 59.73 11.7831 59.73 12.8531V24.5531H57.15V7.48315Z" fill="#FCFCFC"/>
<path d="M81.96 24.5531H79.38V22.8632C78.9685 23.4608 78.4194 23.9508 77.779 24.2919C77.1386 24.633 76.4256 24.8152 75.7 24.8231C72.67 24.8231 72.12 22.5132 72.12 20.8632V11.1631C72.12 9.51315 72.67 7.20312 75.7 7.20312C76.4256 7.21107 77.1386 7.39328 77.779 7.73438C78.4194 8.07547 78.9685 8.56549 79.38 9.16315V0.453125H81.96V24.5531ZM79.38 19.1831V12.8531C79.38 11.7831 78.97 9.72314 76.87 9.72314C75.22 9.72314 74.7 11.0631 74.7 12.3731V19.6631C74.7 20.9731 75.22 22.3131 76.87 22.3131C78.97 22.3231 79.38 20.2531 79.38 19.1831Z" fill="#FCFCFC"/>
<path d="M94.18 22.8731H94.15C93.7294 23.5017 93.1546 24.0119 92.4805 24.355C91.8065 24.6982 91.0557 24.8628 90.3 24.8331C87.58 24.8331 86.79 22.7731 86.79 20.0531C86.79 16.4431 87.96 14.4131 91.78 14.4131C92.5853 14.4168 93.3897 14.4635 94.19 14.5531V12.0432C94.1917 11.7308 94.1298 11.4213 94.008 11.1337C93.8862 10.846 93.7071 10.5862 93.4816 10.3701C93.2561 10.1539 92.9889 9.98597 92.6964 9.87646C92.4038 9.76696 92.092 9.71821 91.78 9.73315C91.1933 9.70941 90.6204 9.91553 90.1834 10.3077C89.7464 10.6999 89.4796 11.2473 89.44 11.8331H86.96C86.96 8.94313 89.16 7.22314 91.95 7.22314C95.91 7.22314 96.77 10.1431 96.77 12.3531V24.5631H94.19V22.8731H94.18ZM94.18 16.4331C93.6006 16.3412 93.0162 16.2845 92.43 16.2631C90.95 16.2631 89.37 17.0531 89.37 19.5631C89.37 21.9731 90.09 22.6231 91.57 22.6231C92.3114 22.4792 92.9792 22.0805 93.4577 21.4961C93.9362 20.9117 94.1952 20.1784 94.19 19.4232V16.4331H94.18Z" fill="#FCFCFC"/>
<path d="M117.85 22.8731H117.82C117.399 23.5017 116.825 24.0119 116.151 24.355C115.476 24.6982 114.726 24.8628 113.97 24.8331C111.25 24.8331 110.46 22.7731 110.46 20.0531C110.46 16.4431 111.63 14.4131 115.45 14.4131C116.255 14.4168 117.06 14.4635 117.86 14.5531V12.0432C117.862 11.7308 117.8 11.4213 117.678 11.1337C117.556 10.846 117.377 10.5862 117.152 10.3701C116.926 10.1539 116.659 9.98597 116.366 9.87646C116.074 9.76696 115.762 9.71821 115.45 9.73315C114.863 9.70941 114.29 9.91553 113.853 10.3077C113.416 10.6999 113.15 11.2473 113.11 11.8331H110.63C110.63 8.94313 112.83 7.22314 115.62 7.22314C119.58 7.22314 120.44 10.1431 120.44 12.3531V24.5631H117.86V22.8731H117.85ZM117.85 16.4331C117.271 16.3412 116.686 16.2845 116.1 16.2631C114.62 16.2631 113.04 17.0531 113.04 19.5631C113.04 21.9731 113.76 22.6231 115.24 22.6231C115.981 22.4792 116.649 22.0805 117.128 21.4961C117.606 20.9117 117.865 20.1784 117.86 19.4232V16.4331H117.85Z" fill="#FCFCFC"/>
<path d="M137.6 7.48301V9.033C137.913 8.63507 138.272 8.27586 138.67 7.96299C139.34 7.45015 140.166 7.18198 141.01 7.20298C141.671 7.19937 142.318 7.39067 142.87 7.75297C143.421 8.11266 143.852 8.62779 144.11 9.23301C144.476 8.5987 144.995 8.06588 145.62 7.68296C146.193 7.34963 146.848 7.18337 147.51 7.20298C148.102 7.14482 148.699 7.24141 149.242 7.48332C149.786 7.72523 150.257 8.10417 150.61 8.58299C151.174 9.46264 151.441 10.5004 151.37 11.543V24.553H147.93V12.473C147.958 11.9729 147.798 11.4804 147.48 11.093C147.337 10.9235 147.157 10.7886 146.955 10.6985C146.752 10.6085 146.532 10.5655 146.31 10.573C146.071 10.5637 145.832 10.6084 145.612 10.7036C145.393 10.7988 145.197 10.9421 145.04 11.123C144.836 11.3571 144.682 11.6304 144.587 11.9262C144.493 12.222 144.46 12.534 144.49 12.843V24.543H141.05V12.463C141.07 12.2146 141.041 11.9647 140.964 11.7277C140.887 11.4908 140.763 11.2716 140.6 11.083C140.458 10.9127 140.278 10.7773 140.075 10.6872C139.873 10.597 139.652 10.5545 139.43 10.563C139.191 10.5545 138.953 10.5995 138.733 10.6947C138.513 10.7898 138.317 10.9327 138.16 11.113C137.956 11.3471 137.802 11.6204 137.707 11.9162C137.613 12.212 137.58 12.5239 137.61 12.833V24.533H134.17V7.46299H137.6V7.48301Z" fill="#00E1BE"/>
<path d="M159.24 19.4931C159.208 19.7575 159.232 20.0257 159.309 20.2805C159.387 20.5353 159.516 20.7712 159.69 20.9732C159.864 21.1386 160.07 21.2666 160.295 21.3492C160.521 21.4318 160.76 21.4671 161 21.4531C161.273 21.4655 161.545 21.4054 161.787 21.2789C162.029 21.1525 162.234 20.9642 162.38 20.7332C162.585 20.3773 162.692 19.9736 162.69 19.5631H166.13V19.7031C166.187 20.5033 166.04 21.3047 165.702 22.0324C165.365 22.76 164.848 23.39 164.2 23.8632C163.257 24.503 162.14 24.838 161 24.8231C160.262 24.8337 159.53 24.6928 158.849 24.409C158.168 24.1251 157.552 23.7045 157.04 23.1732C156.127 21.9988 155.685 20.5262 155.8 19.0432V12.5031C155.758 11.7325 155.888 10.9622 156.18 10.2479C156.472 9.53367 156.92 8.89326 157.49 8.37313C158.448 7.58326 159.659 7.16756 160.9 7.20314C162.205 7.16559 163.478 7.60663 164.48 8.44313C165.076 8.9961 165.54 9.67592 165.837 10.4323C166.135 11.1887 166.259 12.0024 166.2 12.8131V17.2832H159.25V19.4931H159.24ZM162.75 14.6431V12.4032C162.774 12.1642 162.746 11.923 162.667 11.6961C162.589 11.4692 162.462 11.262 162.295 11.0889C162.129 10.9159 161.927 10.781 161.703 10.6937C161.48 10.6064 161.24 10.5686 161 10.5831C160.748 10.5746 160.497 10.6223 160.265 10.7226C160.033 10.8229 159.826 10.9733 159.66 11.1632C159.366 11.5608 159.221 12.0493 159.25 12.5432V14.6431H162.75Z" fill="#00E1BE"/>
<path d="M174.31 2.29321V7.49316H176.51V10.2432H174.31V19.6032C174.288 19.8648 174.319 20.1282 174.401 20.3774C174.484 20.6267 174.616 20.8565 174.79 21.0532C175.168 21.2928 175.614 21.4018 176.06 21.3632H176.51V24.5632H175.58C174.94 24.6913 174.278 24.6608 173.653 24.4743C173.027 24.2878 172.456 23.9511 171.991 23.4935C171.525 23.0358 171.179 22.4712 170.982 21.8489C170.785 21.2265 170.743 20.5654 170.86 19.9232V10.2532H169.11V7.50317H170.86V2.30316H174.31V2.29321Z" fill="#00E1BE"/>
<path d="M179.95 12.993C179.866 12.1514 179.975 11.3019 180.268 10.5084C180.56 9.71499 181.03 8.9985 181.64 8.41302C182.645 7.63507 183.879 7.21289 185.15 7.21289C186.421 7.21289 187.655 7.63507 188.66 8.41302C189.27 8.99903 189.738 9.71562 190.031 10.5089C190.324 11.3022 190.433 12.1515 190.35 12.993V19.053C190.434 19.8945 190.325 20.7442 190.032 21.5376C189.74 22.331 189.27 23.0475 188.66 23.633C187.655 24.411 186.421 24.8331 185.15 24.8331C183.879 24.8331 182.645 24.411 181.64 23.633C181.03 23.047 180.562 22.3304 180.269 21.5371C179.976 20.7438 179.867 19.8945 179.95 19.053V12.993ZM186.9 12.783C186.941 12.1656 186.756 11.5544 186.38 11.063C186.046 10.7463 185.6 10.5739 185.14 10.583C184.681 10.5789 184.237 10.7506 183.9 11.063C183.524 11.5544 183.339 12.1656 183.38 12.783V19.253C183.339 19.8704 183.524 20.4816 183.9 20.973C184.234 21.2897 184.68 21.4622 185.14 21.453C185.599 21.4571 186.043 21.2854 186.38 20.973C186.756 20.4816 186.941 19.8704 186.9 19.253V12.783Z" fill="#00E1BE"/>
<path d="M201.73 23.0432H201.7C201.395 23.5181 200.997 23.9263 200.53 24.2431C199.899 24.632 199.171 24.8332 198.43 24.8231C197.883 24.8486 197.339 24.743 196.841 24.5151C196.344 24.2872 195.908 23.9437 195.57 23.5131C194.944 22.4445 194.667 21.2067 194.78 19.9731V11.0931C194.745 10.5691 194.816 10.0433 194.988 9.54694C195.159 9.05058 195.429 8.59366 195.78 8.20312C196.11 7.86563 196.508 7.602 196.948 7.42963C197.387 7.25725 197.858 7.18004 198.33 7.20312C199.134 7.1925 199.923 7.41857 200.6 7.85315C201.035 8.11819 201.421 8.45652 201.74 8.85315V0.453125H205.18V24.5432H201.74V23.0432H201.73ZM201.73 12.8531C201.76 12.5441 201.727 12.2321 201.633 11.9363C201.538 11.6406 201.384 11.3672 201.18 11.1331C201.011 10.9567 200.807 10.8169 200.582 10.7223C200.357 10.6277 200.114 10.5803 199.87 10.5831C199.644 10.5724 199.418 10.6137 199.21 10.7038C199.002 10.7939 198.817 10.9306 198.67 11.1031C198.344 11.4858 198.182 11.9818 198.22 12.4832V19.4031C198.181 19.6786 198.202 19.9591 198.279 20.2263C198.357 20.4934 198.49 20.7411 198.67 20.9531C198.819 21.1231 199.004 21.258 199.212 21.3479C199.419 21.4378 199.644 21.4806 199.87 21.4731C200.114 21.4751 200.356 21.4274 200.582 21.3328C200.807 21.2383 201.01 21.0989 201.18 20.9232C201.384 20.6891 201.538 20.4157 201.633 20.1199C201.727 19.8242 201.76 19.5122 201.73 19.2031V12.8531Z" fill="#00E1BE"/>
<path d="M209.61 12.993C209.526 12.1514 209.635 11.3019 209.928 10.5084C210.22 9.71499 210.69 8.9985 211.3 8.41302C212.305 7.63507 213.539 7.21289 214.81 7.21289C216.081 7.21289 217.315 7.63507 218.32 8.41302C218.93 8.99903 219.398 9.71562 219.691 10.5089C219.984 11.3022 220.093 12.1515 220.01 12.993V19.053C220.094 19.8945 219.985 20.7442 219.692 21.5376C219.4 22.331 218.93 23.0475 218.32 23.633C217.315 24.411 216.081 24.8331 214.81 24.8331C213.539 24.8331 212.305 24.411 211.3 23.633C210.69 23.047 210.222 22.3304 209.929 21.5371C209.636 20.7438 209.527 19.8945 209.61 19.053V12.993ZM216.56 12.783C216.601 12.1656 216.416 11.5544 216.04 11.063C215.706 10.7463 215.26 10.5739 214.8 10.583C214.341 10.5789 213.897 10.7506 213.56 11.063C213.184 11.5544 212.999 12.1656 213.04 12.783V19.253C212.999 19.8704 213.184 20.4816 213.56 20.973C213.894 21.2897 214.34 21.4622 214.8 21.453C215.259 21.4571 215.703 21.2854 216.04 20.973C216.416 20.4816 216.601 19.8704 216.56 19.253V12.783Z" fill="#00E1BE"/>
<path d="M227.88 0.473145V19.7031C227.863 19.943 227.898 20.1836 227.98 20.4093C228.063 20.635 228.192 20.8408 228.36 21.0131C228.674 21.2557 229.064 21.3765 229.46 21.3531H229.8V24.5531H228.8C228.143 24.5933 227.486 24.4838 226.878 24.2325C226.27 23.9813 225.727 23.5951 225.29 23.1031C224.629 22.1628 224.324 21.0178 224.43 19.8731V0.463135H227.88V0.473145Z" fill="#00E1BE"/>
<path d="M233.07 12.993C232.986 12.1514 233.095 11.3019 233.388 10.5084C233.68 9.71499 234.15 8.9985 234.76 8.41302C235.765 7.63507 236.999 7.21289 238.27 7.21289C239.541 7.21289 240.775 7.63507 241.78 8.41302C242.39 8.99903 242.858 9.71562 243.151 10.5089C243.444 11.3022 243.553 12.1515 243.47 12.993V19.053C243.554 19.8945 243.445 20.7442 243.152 21.5376C242.86 22.331 242.39 23.0475 241.78 23.633C240.775 24.411 239.541 24.8331 238.27 24.8331C236.999 24.8331 235.765 24.411 234.76 23.633C234.15 23.047 233.682 22.3304 233.389 21.5371C233.096 20.7438 232.987 19.8945 233.07 19.053V12.993ZM240.02 12.783C240.061 12.1656 239.876 11.5544 239.5 11.063C239.166 10.7463 238.72 10.5739 238.26 10.583C237.801 10.5789 237.357 10.7506 237.02 11.063C236.644 11.5544 236.459 12.1656 236.5 12.783V19.253C236.459 19.8704 236.644 20.4816 237.02 20.973C237.354 21.2897 237.8 21.4622 238.26 21.453C238.719 21.4571 239.163 21.2854 239.5 20.973C239.876 20.4816 240.061 19.8704 240.02 19.253V12.783Z" fill="#00E1BE"/>
<path d="M258.16 7.48321V26.1332C258.226 26.8632 258.143 27.599 257.918 28.2966C257.693 28.9941 257.33 29.6392 256.85 30.1932C256.337 30.717 255.719 31.1261 255.036 31.3933C254.354 31.6605 253.622 31.7797 252.89 31.7432C252.176 31.7758 251.464 31.6513 250.804 31.3782C250.144 31.1052 249.552 30.6904 249.07 30.1632C248.281 29.1454 247.823 27.9096 247.76 26.6232H251.2C251.186 26.8542 251.219 27.0856 251.297 27.3037C251.374 27.5218 251.494 27.7222 251.65 27.8932C251.817 28.0573 252.016 28.1847 252.234 28.2674C252.453 28.35 252.687 28.386 252.92 28.3732C253.19 28.3894 253.461 28.3385 253.707 28.2251C253.953 28.1117 254.167 27.9393 254.33 27.7232C254.626 27.1647 254.758 26.5336 254.71 25.9032V23.0132C254.388 23.4072 254.003 23.7451 253.57 24.0132C252.896 24.4524 252.105 24.6788 251.3 24.6632C250.828 24.6888 250.356 24.6128 249.916 24.4402C249.476 24.2677 249.079 24.0027 248.75 23.6632C248.401 23.2713 248.133 22.8142 247.961 22.3182C247.789 21.8222 247.718 21.2971 247.75 20.7732V12.0632C247.637 10.8296 247.914 9.59179 248.54 8.52319C248.878 8.09264 249.314 7.74912 249.811 7.52124C250.309 7.29335 250.853 7.18772 251.4 7.21319C252.141 7.20311 252.869 7.40431 253.5 7.79321C253.963 8.1154 254.36 8.52259 254.67 8.99316H254.7V7.48321H258.16ZM254.72 12.8532C254.75 12.5442 254.717 12.2322 254.623 11.9364C254.528 11.6406 254.374 11.3673 254.17 11.1332C254.001 10.9568 253.797 10.817 253.572 10.7223C253.347 10.6277 253.104 10.5804 252.86 10.5832C252.634 10.5754 252.409 10.6181 252.201 10.708C251.994 10.7979 251.809 10.933 251.66 11.1032C251.317 11.5432 251.156 12.098 251.21 12.6532V19.3932C251.184 19.8931 251.344 20.3848 251.66 20.7732C251.81 20.9427 251.995 21.0771 252.202 21.167C252.409 21.2569 252.634 21.3 252.86 21.2932C253.104 21.2952 253.346 21.2474 253.572 21.1529C253.797 21.0583 254 20.9189 254.17 20.7432C254.374 20.5091 254.528 20.2358 254.623 19.94C254.717 19.6442 254.75 19.3322 254.72 19.0232V12.8532Z" fill="#00E1BE"/>
<path d="M266.17 0.953125V4.32312H262.73V0.953125H266.17ZM262.73 7.48315H266.17V24.5531H262.73V7.48315Z" fill="#00E1BE"/>
<path d="M277.53 22.8732H277.46C277.139 23.3672 276.745 23.809 276.29 24.1832C275.727 24.6396 275.014 24.8712 274.29 24.8333C273.336 24.8782 272.4 24.5602 271.67 23.9432C271.207 23.4087 270.859 22.7853 270.645 22.1113C270.432 21.4372 270.359 20.7267 270.43 20.0233C270.43 18.7833 270.5 16.9232 271.5 15.7532C272.035 15.2361 272.674 14.8372 273.373 14.5823C274.072 14.3273 274.817 14.2221 275.56 14.2733C275.8 14.2733 276.45 14.2732 277.52 14.3732V12.5833C277.546 12.3237 277.519 12.0616 277.442 11.8126C277.365 11.5635 277.238 11.3325 277.07 11.1332C276.891 10.9502 276.676 10.8068 276.438 10.712C276.201 10.6173 275.946 10.5734 275.69 10.5833C275.428 10.5783 275.169 10.6313 274.93 10.7385C274.692 10.8457 274.48 11.0044 274.31 11.2032C274.048 11.5135 273.891 11.8984 273.86 12.3032H270.59C270.554 10.9382 271.061 9.61474 272 8.62323C273.053 7.67322 274.433 7.1679 275.85 7.21326C277.21 7.17627 278.53 7.6714 279.53 8.59326C280.023 9.13637 280.402 9.77294 280.644 10.4652C280.886 11.1575 280.987 11.8913 280.94 12.6232V24.5632H277.5V22.8732H277.53ZM277.53 17.1232C277.133 17.0568 276.732 17.0234 276.33 17.0233C275.975 16.994 275.618 17.0434 275.285 17.1678C274.951 17.2923 274.649 17.4887 274.4 17.7432C274.02 18.2596 273.836 18.8939 273.88 19.5333C273.86 20.0257 273.978 20.514 274.22 20.9432C274.354 21.19 274.554 21.3947 274.798 21.5342C275.042 21.6737 275.319 21.7426 275.6 21.7333C275.878 21.736 276.153 21.6787 276.407 21.5652C276.66 21.4518 276.887 21.285 277.07 21.0761C277.253 20.8672 277.389 20.6213 277.468 20.355C277.548 20.0887 277.569 19.8084 277.53 19.5333V17.1232Z" fill="#00E1BE"/>
<path d="M7.70999 68.9133H7.67999C7.37507 69.3882 6.97708 69.7964 6.51001 70.1133C5.87932 70.5022 5.15089 70.7033 4.41 70.6932C3.86338 70.7187 3.31859 70.6131 2.82107 70.3853C2.32356 70.1574 1.88774 69.8138 1.54999 69.3832C0.923576 68.3146 0.647352 67.0768 0.760009 65.8433V56.9633C0.725275 56.4392 0.795869 55.9134 0.96762 55.4171C1.13937 54.9207 1.4088 54.4638 1.76001 54.0732C2.09019 53.7357 2.48818 53.4721 2.92773 53.2997C3.36729 53.1274 3.83841 53.0502 4.31 53.0732C5.11403 53.0626 5.90343 53.2887 6.57999 53.7233C7.01485 53.9883 7.40056 54.3266 7.72 54.7233V46.3232H11.16V70.4133H7.72V68.9133H7.70999ZM7.70999 58.7333C7.74033 58.4242 7.70722 58.1122 7.61264 57.8165C7.51806 57.5207 7.36402 57.2473 7.16 57.0132C6.99089 56.8368 6.78737 56.697 6.56204 56.6024C6.33671 56.5078 6.09437 56.4604 5.85001 56.4633C5.62355 56.4525 5.39765 56.4938 5.18964 56.5839C4.98162 56.6741 4.79701 56.8107 4.64999 56.9833C4.32385 57.3659 4.16213 57.8619 4.20001 58.3633V65.2833C4.16152 65.5587 4.18169 65.8393 4.25925 66.1064C4.3368 66.3735 4.46996 66.6212 4.64999 66.8333C4.79911 67.0033 4.98408 67.1381 5.19159 67.228C5.39909 67.3179 5.62398 67.3607 5.85001 67.3533C6.09421 67.355 6.33623 67.3071 6.5614 67.2126C6.78657 67.118 6.99021 66.9788 7.16 66.8032C7.36402 66.5691 7.51806 66.2958 7.61264 66.0001C7.70722 65.7043 7.74033 65.3923 7.70999 65.0833V58.7333Z" fill="#00E1BE"/>
<path d="M19.03 65.3732C18.9983 65.6377 19.0219 65.9058 19.0994 66.1606C19.1768 66.4154 19.3065 66.6513 19.48 66.8533C19.6539 67.0188 19.8598 67.1467 20.0852 67.2293C20.3105 67.3118 20.5504 67.3473 20.79 67.3333C21.0631 67.3456 21.3346 67.2855 21.5769 67.1591C21.8193 67.0326 22.0239 66.8443 22.17 66.6133C22.3746 66.2574 22.4816 65.8538 22.48 65.4433H25.92V65.5833C25.977 66.3834 25.8298 67.1848 25.4922 67.9125C25.1546 68.6401 24.6377 69.2701 23.99 69.7432C23.0466 70.383 21.9298 70.7181 20.79 70.7033C20.0522 70.7138 19.32 70.5729 18.6388 70.2891C17.9577 70.0053 17.342 69.5846 16.83 69.0532C15.9172 67.8788 15.475 66.4063 15.59 64.9233V58.3833C15.548 57.6126 15.6779 56.8423 15.9702 56.1281C16.2624 55.4138 16.7098 54.7734 17.28 54.2533C18.2376 53.4634 19.4492 53.0477 20.69 53.0833C21.9947 53.0457 23.2681 53.4868 24.27 54.3233C24.8658 54.8762 25.3298 55.556 25.6275 56.3125C25.9252 57.0689 26.0491 57.8825 25.99 58.6933V63.1633H19.04V65.3732H19.03ZM22.54 60.5233V58.2833C22.5639 58.0444 22.5356 57.8031 22.4571 57.5762C22.3786 57.3493 22.2518 57.1421 22.0854 56.9691C21.919 56.796 21.717 56.6611 21.4933 56.5738C21.2696 56.4865 21.0297 56.4488 20.79 56.4633C20.5377 56.4548 20.2865 56.5024 20.0548 56.6027C19.8231 56.703 19.6165 56.8535 19.45 57.0433C19.1557 57.441 19.0106 57.9294 19.04 58.4233V60.5233H22.54Z" fill="#00E1BE"/>
<path d="M39.13 70.4332V46.3433H42.57V54.7432C42.8921 54.3492 43.2774 54.0113 43.71 53.7432C44.3845 53.304 45.1753 53.0776 45.98 53.0933C46.4516 53.0702 46.9227 53.1474 47.3623 53.3198C47.8018 53.4921 48.1998 53.7558 48.53 54.0933C48.8792 54.4851 49.1473 54.9423 49.319 55.4383C49.4906 55.9343 49.5623 56.4594 49.53 56.9833V65.8633C49.6427 67.0968 49.3665 68.3347 48.74 69.4033C48.4022 69.8338 47.9664 70.1773 47.4689 70.4052C46.9714 70.6331 46.4266 70.7387 45.88 70.7133C45.1391 70.7233 44.4107 70.5221 43.78 70.1332C43.3151 69.8139 42.9175 69.4061 42.61 68.9332H42.58V70.4432H39.13V70.4332ZM42.57 65.0632C42.5397 65.3723 42.5728 65.6843 42.6674 65.98C42.762 66.2758 42.916 66.5492 43.12 66.7833C43.2891 66.9597 43.4926 67.0995 43.718 67.1941C43.9433 67.2887 44.1856 67.3361 44.43 67.3333C44.6564 67.344 44.8823 67.3027 45.0904 67.2126C45.2984 67.1224 45.483 66.9858 45.63 66.8132C45.8106 66.6015 45.9441 66.3539 46.0217 66.0867C46.0992 65.8194 46.1191 65.5387 46.08 65.2632V58.3433C46.1005 58.0949 46.0712 57.8449 45.994 57.6079C45.9167 57.371 45.793 57.1518 45.63 56.9633C45.4809 56.7932 45.2959 56.6584 45.0884 56.5685C44.8809 56.4786 44.656 56.4358 44.43 56.4432C44.1858 56.4415 43.9438 56.4894 43.7186 56.5839C43.4934 56.6785 43.2898 56.8177 43.12 56.9932C42.916 57.2273 42.762 57.5007 42.6674 57.7964C42.5728 58.0922 42.5397 58.4042 42.57 58.7133V65.0632Z" fill="#00E1BE"/>
<path d="M57.53 46.8232V50.1932H54.09V46.8232H57.53ZM54.09 53.3633H57.53V70.4332H54.09V53.3633Z" fill="#00E1BE"/>
<path d="M65.55 46.343V65.573C65.5334 65.8128 65.5676 66.0534 65.6503 66.2792C65.733 66.5049 65.8624 66.7106 66.03 66.883C66.3436 67.1255 66.7343 67.2464 67.13 67.223H67.47V70.423H66.47C65.8133 70.4633 65.156 70.3536 64.5479 70.1024C63.9398 69.8512 63.3969 69.465 62.96 68.973C62.2987 68.0327 61.9938 66.8876 62.1 65.743V46.333H65.55V46.343Z" fill="#00E1BE"/>
<path d="M74.32 46.8232V50.1932H70.88V46.8232H74.32ZM70.88 53.3633H74.32V70.4332H70.88V53.3633Z" fill="#00E1BE"/>
<path d="M78.76 58.8731C78.6763 58.0315 78.7849 57.182 79.0777 56.3885C79.3704 55.5951 79.8397 54.8786 80.45 54.2932C81.4547 53.5152 82.6894 53.093 83.96 53.093C85.2307 53.093 86.4653 53.5152 87.47 54.2932C88.0796 54.8792 88.5484 55.5958 88.8411 56.389C89.1338 57.1823 89.2428 58.0316 89.16 58.8731V64.9331C89.2437 65.7747 89.1351 66.6243 88.8424 67.4177C88.5496 68.2112 88.0803 68.9277 87.47 69.5131C86.4653 70.2911 85.2307 70.7133 83.96 70.7133C82.6894 70.7133 81.4547 70.2911 80.45 69.5131C79.8405 68.9271 79.3717 68.2105 79.0789 67.4172C78.7862 66.624 78.6772 65.7746 78.76 64.9331V58.8731ZM85.71 58.6631C85.7509 58.0457 85.5661 57.4345 85.19 56.9431C84.8558 56.6264 84.4104 56.454 83.95 56.4631C83.4906 56.459 83.047 56.6307 82.71 56.9431C82.334 57.4345 82.1492 58.0457 82.19 58.6631V65.1331C82.1492 65.7505 82.334 66.3618 82.71 66.8531C83.0442 67.1699 83.4897 67.3423 83.95 67.3331C84.4095 67.3373 84.8531 67.1655 85.19 66.8531C85.5661 66.3618 85.7509 65.7505 85.71 65.1331V58.6631Z" fill="#00E1BE"/>
<path d="M93.59 53.3631H97.03V54.9131C97.4089 54.3566 97.9171 53.9003 98.511 53.5833C99.1049 53.2663 99.7668 53.0981 100.44 53.0931C100.912 53.0701 101.383 53.1474 101.822 53.3197C102.262 53.4921 102.66 53.7557 102.99 54.0931C103.339 54.4849 103.607 54.9421 103.779 55.4381C103.951 55.9341 104.022 56.4592 103.99 56.9831V70.433H100.55V58.3531C100.57 58.1047 100.541 57.8547 100.464 57.6177C100.387 57.3808 100.263 57.1616 100.1 56.9731C99.9509 56.803 99.7659 56.6682 99.5584 56.5783C99.3509 56.4884 99.1261 56.4456 98.9 56.453C98.6558 56.451 98.4136 56.4988 98.1884 56.5933C97.9632 56.6879 97.7596 56.8273 97.59 57.003C97.386 57.2371 97.232 57.5105 97.1374 57.8063C97.0428 58.102 97.0096 58.414 97.04 58.7231V70.4231H93.6V53.3631H93.59Z" fill="#00E1BE"/>
<path d="M115.34 68.7432H115.27C114.949 69.2372 114.555 69.679 114.1 70.0532C113.537 70.5096 112.824 70.7412 112.1 70.7032C111.146 70.7482 110.21 70.4302 109.48 69.8132C109.017 69.2787 108.669 68.6553 108.455 67.9813C108.242 67.3072 108.169 66.5967 108.24 65.8932C108.24 64.6532 108.31 62.7932 109.31 61.6232C109.845 61.1061 110.484 60.7072 111.183 60.4523C111.882 60.1973 112.627 60.0921 113.37 60.1432C113.61 60.1432 114.26 60.1432 115.33 60.2432V58.4532C115.356 58.1937 115.329 57.9316 115.252 57.6826C115.175 57.4335 115.048 57.2025 114.88 57.0032C114.701 56.8202 114.486 56.6768 114.248 56.582C114.011 56.4873 113.756 56.4434 113.5 56.4532C113.238 56.4483 112.979 56.5013 112.74 56.6085C112.502 56.7157 112.29 56.8744 112.12 57.0732C111.858 57.3834 111.701 57.7684 111.67 58.1733H108.4C108.364 56.8083 108.871 55.4847 109.81 54.4932C110.863 53.5432 112.243 53.0379 113.66 53.0833C115.02 53.0463 116.34 53.5414 117.34 54.4633C117.833 55.0064 118.212 55.6429 118.454 56.3352C118.696 57.0275 118.797 57.7613 118.75 58.4932V70.4332H115.31V68.7432H115.34ZM115.34 63.0032C114.943 62.9368 114.542 62.9034 114.14 62.9033C113.785 62.874 113.428 62.9234 113.095 63.0479C112.761 63.1723 112.459 63.3687 112.21 63.6232C111.83 64.1396 111.646 64.7739 111.69 65.4133C111.67 65.9057 111.788 66.394 112.03 66.8232C112.164 67.07 112.364 67.2747 112.608 67.4142C112.852 67.5537 113.129 67.6226 113.41 67.6133C113.688 67.616 113.963 67.5587 114.217 67.4453C114.47 67.3318 114.697 67.165 114.88 66.9561C115.063 66.7472 115.199 66.5013 115.278 66.235C115.358 65.9687 115.379 65.6884 115.34 65.4133V63.0032ZM111.93 50.5433L113.44 46.3433H117.12L113.89 50.5433H111.93Z" fill="#00E1BE"/>
<path d="M126.79 53.3633V55.1832L126.86 55.2133C127.402 54.5409 128.09 54 128.871 53.6311C129.652 53.2622 130.506 53.0749 131.37 53.0833V56.7633C129.72 56.4833 126.79 56.9033 126.79 60.6533V70.4233H123.35V53.3533H126.79V53.3633Z" fill="#00E1BE"/>
<path d="M137.87 46.8232V50.1932H134.43V46.8232H137.87ZM134.43 53.3633H137.87V70.4332H134.43V53.3633Z" fill="#00E1BE"/>
<path d="M142.31 58.8731C142.226 58.0315 142.335 57.182 142.628 56.3885C142.92 55.5951 143.39 54.8786 144 54.2932C145.005 53.5152 146.239 53.093 147.51 53.093C148.781 53.093 150.015 53.5152 151.02 54.2932C151.63 54.8792 152.098 55.5958 152.391 56.389C152.684 57.1823 152.793 58.0316 152.71 58.8731V64.9331C152.794 65.7747 152.685 66.6243 152.392 67.4177C152.1 68.2112 151.63 68.9277 151.02 69.5131C150.015 70.2911 148.781 70.7133 147.51 70.7133C146.239 70.7133 145.005 70.2911 144 69.5131C143.39 68.9271 142.922 68.2105 142.629 67.4172C142.336 66.624 142.227 65.7746 142.31 64.9331V58.8731ZM149.26 58.6631C149.301 58.0457 149.116 57.4345 148.74 56.9431C148.406 56.6264 147.96 56.454 147.5 56.4631C147.041 56.459 146.597 56.6307 146.26 56.9431C145.884 57.4345 145.699 58.0457 145.74 58.6631V65.1331C145.699 65.7505 145.884 66.3618 146.26 66.8531C146.594 67.1699 147.04 67.3423 147.5 67.3331C147.959 67.3373 148.403 67.1655 148.74 66.8531C149.116 66.3618 149.301 65.7505 149.26 65.1331V58.6631Z" fill="#00E1BE"/>
<path d="M163.47 57.9732C163.452 57.5106 163.267 57.0701 162.95 56.7332C162.613 56.4247 162.167 56.2629 161.71 56.2832C161.483 56.2723 161.255 56.3095 161.043 56.3925C160.831 56.4755 160.639 56.6024 160.48 56.7648C160.32 56.9271 160.197 57.1214 160.118 57.3348C160.038 57.5482 160.005 57.776 160.02 58.0032C160.016 58.3963 160.135 58.7808 160.36 59.1032C160.71 59.5243 161.176 59.8336 161.7 59.9931L163.76 60.8532C164.618 61.2138 165.374 61.7805 165.96 62.5032C166.581 63.4246 166.883 64.5239 166.82 65.6332C166.843 66.8391 166.455 68.017 165.72 68.9732C165.206 69.5616 164.564 70.023 163.842 70.3215C163.12 70.6199 162.339 70.7471 161.56 70.6932C160.826 70.7387 160.09 70.6277 159.403 70.3674C158.715 70.107 158.09 69.7033 157.57 69.1831C156.732 68.1959 156.281 66.938 156.3 65.6432H159.74C159.731 66.1192 159.891 66.583 160.19 66.9532C160.575 67.3065 161.078 67.5027 161.6 67.5032C161.852 67.5103 162.103 67.4621 162.334 67.3619C162.566 67.2617 162.773 67.1119 162.94 66.9232C163.262 66.5384 163.424 66.044 163.39 65.5432C163.39 64.6532 163.11 63.9931 161.67 63.3731L159.64 62.5132C158.823 62.2097 158.092 61.7121 157.51 61.0632C156.868 60.2399 156.539 59.2161 156.58 58.1732C156.516 56.817 156.97 55.4873 157.85 54.4532C158.337 53.9841 158.914 53.6197 159.547 53.3824C160.18 53.145 160.855 53.0398 161.53 53.0732C162.254 53.0186 162.982 53.1129 163.668 53.3502C164.354 53.5875 164.984 53.9629 165.52 54.4532C166.389 55.4128 166.858 56.6688 166.83 57.9632H163.47V57.9732Z" fill="#00E1BE"/>
<path d="M186.94 65.6432H189.52V65.8832C189.52 67.5732 188.73 70.7032 184.77 70.7032C184.106 70.7453 183.441 70.6461 182.819 70.4121C182.196 70.1782 181.63 69.8148 181.159 69.346C180.687 68.8772 180.32 68.3137 180.083 67.6926C179.845 67.0715 179.742 66.407 179.78 65.7431V57.8332C179.754 57.1965 179.862 56.5614 180.096 55.9687C180.329 55.376 180.685 54.8387 181.139 54.3915C181.593 53.9442 182.135 53.5967 182.731 53.3714C183.327 53.1461 183.964 53.0479 184.6 53.0832C185.254 53.0555 185.907 53.1624 186.518 53.397C187.13 53.6317 187.686 53.9892 188.154 54.4475C188.622 54.9058 188.99 55.4551 189.237 56.0615C189.484 56.6679 189.604 57.3186 189.59 57.9732V62.8632H182.36V65.5832C182.36 67.4032 183.19 68.2032 184.77 68.2032C186.28 68.2032 186.94 67.2732 186.94 65.8632V65.6432ZM187 60.9331V58.0132C187.034 57.697 186.998 57.3772 186.896 57.0762C186.793 56.7752 186.626 56.5004 186.406 56.2708C186.186 56.0412 185.918 55.8625 185.622 55.7472C185.325 55.6318 185.007 55.5827 184.69 55.6032C184.363 55.597 184.038 55.6604 183.737 55.7893C183.436 55.9181 183.166 56.1095 182.945 56.3506C182.724 56.5917 182.556 56.8771 182.454 57.1879C182.351 57.4987 182.316 57.8277 182.35 58.1532V60.9432H187V60.9331Z" fill="#FCFCFC"/>
<path d="M213.15 72.493C213.191 73.1774 213.087 73.8629 212.844 74.504C212.6 75.1451 212.224 75.7273 211.739 76.2122C211.254 76.697 210.672 77.0734 210.031 77.3167C209.39 77.5599 208.704 77.6643 208.02 77.623C205.23 77.623 203.31 76.113 203.31 73.013H205.79C205.79 73.3097 205.852 73.6031 205.973 73.874C206.094 74.145 206.27 74.3874 206.491 74.5856C206.712 74.7837 206.972 74.9331 207.254 75.024C207.537 75.1149 207.835 75.1452 208.13 75.113C208.444 75.1286 208.757 75.0804 209.052 74.9715C209.346 74.8626 209.615 74.6951 209.843 74.4792C210.071 74.2634 210.253 74.0035 210.378 73.7155C210.503 73.4274 210.568 73.117 210.57 72.803V68.573C210.159 69.1707 209.609 69.6607 208.969 70.0018C208.329 70.3429 207.616 70.5251 206.89 70.533C203.86 70.533 203.31 68.223 203.31 66.573V57.043C203.31 55.393 203.86 53.083 206.89 53.083C207.616 53.0909 208.329 53.2732 208.969 53.6143C209.609 53.9554 210.159 54.4454 210.57 55.043V53.353H213.15V72.493ZM210.57 64.893V58.733C210.57 57.663 210.16 55.603 208.06 55.603C206.41 55.603 205.89 56.943 205.89 58.253V65.373C205.89 66.683 206.41 68.023 208.06 68.023C210.16 68.023 210.57 65.953 210.57 64.893Z" fill="#FCFCFC"/>
<path d="M220.86 53.363V56.043C222.68 53.563 224.27 53.123 225.61 53.083V55.973H225.13C223.24 55.973 220.86 56.733 220.86 60.483V70.423H218.28V53.353H220.86V53.363Z" fill="#FCFCFC"/>
<path d="M235.62 68.7432H235.59C235.169 69.3718 234.595 69.882 233.921 70.2252C233.247 70.5683 232.496 70.7329 231.74 70.7032C229.02 70.7032 228.23 68.6433 228.23 65.9233C228.23 62.3133 229.4 60.2833 233.22 60.2833C234.025 60.2869 234.83 60.3336 235.63 60.4233V57.9133C235.632 57.6009 235.57 57.2914 235.448 57.0038C235.326 56.7161 235.147 56.4563 234.922 56.2402C234.696 56.024 234.429 55.8561 234.136 55.7466C233.844 55.6371 233.532 55.5883 233.22 55.6033C232.633 55.5795 232.06 55.7856 231.623 56.1779C231.186 56.5701 230.92 57.1174 230.88 57.7032H228.4C228.4 54.8132 230.6 53.0933 233.39 53.0933C237.35 53.0933 238.21 56.0133 238.21 58.2233V70.4332H235.63V68.7432H235.62ZM235.62 62.3132C235.041 62.2214 234.456 62.1646 233.87 62.1432C232.39 62.1432 230.81 62.9332 230.81 65.4432C230.81 67.8532 231.53 68.5032 233.01 68.5032C233.751 68.3593 234.419 67.9606 234.898 67.3762C235.376 66.7918 235.635 66.0585 235.63 65.3032V62.3132H235.62Z" fill="#FCFCFC"/>
<path d="M243.33 53.3633H245.91V55.0532C246.321 54.4556 246.871 53.9656 247.511 53.6245C248.151 53.2834 248.864 53.1012 249.59 53.0933C252.62 53.0933 253.17 55.4032 253.17 57.0532V70.4332H250.59V58.2532C250.59 56.9432 250.07 55.6033 248.42 55.6033C246.32 55.6033 245.91 57.6633 245.91 58.7333V70.4332H243.33V53.3633Z" fill="#FCFCFC"/>
<path d="M268.13 70.433H265.55V68.743C265.139 69.3406 264.589 69.8307 263.949 70.1718C263.309 70.5129 262.596 70.6951 261.87 70.703C258.84 70.703 258.29 68.393 258.29 66.743V57.043C258.29 55.393 258.84 53.083 261.87 53.083C262.596 53.0909 263.309 53.2732 263.949 53.6143C264.589 53.9554 265.139 54.4454 265.55 55.043V46.333H268.13V70.433ZM265.55 65.063V58.733C265.55 57.663 265.14 55.603 263.04 55.603C261.39 55.603 260.87 56.943 260.87 58.253V65.543C260.87 66.853 261.39 68.193 263.04 68.193C265.14 68.193 265.55 66.133 265.55 65.063Z" fill="#FCFCFC"/>
<path d="M280.28 65.6432H282.86V65.8832C282.86 67.5732 282.07 70.7032 278.11 70.7032C277.446 70.7453 276.781 70.6461 276.159 70.4121C275.536 70.1782 274.971 69.8148 274.499 69.346C274.027 68.8772 273.66 68.3137 273.423 67.6926C273.185 67.0715 273.082 66.407 273.12 65.7431V57.8332C273.094 57.1965 273.202 56.5614 273.436 55.9687C273.67 55.376 274.025 54.8387 274.479 54.3915C274.933 53.9442 275.475 53.5967 276.071 53.3714C276.667 53.1461 277.304 53.0479 277.94 53.0832C278.594 53.0555 279.247 53.1624 279.858 53.397C280.47 53.6317 281.026 53.9892 281.494 54.4475C281.962 54.9058 282.33 55.4551 282.577 56.0615C282.824 56.6679 282.944 57.3186 282.93 57.9732V62.8632H275.7V65.5832C275.7 67.4032 276.53 68.2032 278.11 68.2032C279.62 68.2032 280.28 67.2732 280.28 65.8632V65.6432ZM280.35 60.9331V58.0132C280.384 57.697 280.348 57.3772 280.246 57.0762C280.143 56.7752 279.976 56.5004 279.756 56.2708C279.536 56.0412 279.268 55.8625 278.972 55.7472C278.675 55.6318 278.357 55.5827 278.04 55.6032C277.713 55.597 277.388 55.6604 277.087 55.7893C276.786 55.9181 276.516 56.1095 276.295 56.3506C276.074 56.5917 275.906 56.8771 275.804 57.1879C275.701 57.4987 275.666 57.8277 275.7 58.1532V60.9432H280.35V60.9331Z" fill="#FCFCFC"/>
<path d="M294.35 57.8732C294.18 55.9432 293.11 55.5333 292.04 55.5333C290.77 55.5333 289.84 56.0133 289.84 57.7333C289.84 59.0733 290.77 59.6232 291.87 60.1432L294 61.1733C294.929 61.5213 295.718 62.1649 296.245 63.005C296.773 63.8451 297.01 64.8353 296.92 65.8232C296.92 67.2332 296.4 70.7133 291.93 70.7133C288.11 70.7133 287.01 68.2032 286.94 65.8232H289.55C289.69 67.6432 290.51 68.3032 291.86 68.3032C292.197 68.3497 292.539 68.3175 292.861 68.2093C293.183 68.1011 293.476 67.9197 293.716 67.6795C293.956 67.4393 294.138 67.1466 294.246 66.8246C294.354 66.5025 294.386 66.1598 294.34 65.8232C294.34 64.5532 293.93 63.8933 292.17 63.0333L290.07 62.0032C289.162 61.6768 288.39 61.0546 287.879 60.2366C287.367 59.4186 287.146 58.4523 287.25 57.4932C287.25 55.1832 288.76 53.0933 292.17 53.0933C295.92 53.0933 296.85 55.7432 296.92 57.8732H294.35Z" fill="#FCFCFC"/>
<path d="M3.62 92.7031V95.2131H1.04001V92.7031H3.62ZM1.04001 99.2431H3.62V116.313H1.04001V99.2431Z" fill="#FCFCFC"/>
<path d="M8.75 99.2431H11.33V100.933C11.7415 100.335 12.2905 99.8454 12.931 99.5043C13.5714 99.1632 14.2844 98.9811 15.01 98.9731C18.04 98.9731 18.59 101.283 18.59 102.933V116.313H16.01V104.133C16.01 102.823 15.49 101.483 13.84 101.483C11.74 101.483 11.33 103.543 11.33 104.613V116.313H8.75V99.2431Z" fill="#FCFCFC"/>
<path d="M28.7 116.303H26.67L22.2 99.2332H24.92L27.78 111.203H27.85L30.64 99.2332H33.26L28.7 116.303Z" fill="#FCFCFC"/>
<path d="M43.77 111.523H46.35V111.763C46.35 113.453 45.56 116.583 41.6 116.583C40.9363 116.625 40.2713 116.526 39.6488 116.292C39.0263 116.058 38.4605 115.695 37.9889 115.226C37.5173 114.757 37.1505 114.194 36.9128 113.572C36.6751 112.951 36.5719 112.287 36.61 111.623V103.713C36.5841 103.076 36.6915 102.441 36.9255 101.849C37.1595 101.256 37.5149 100.719 37.9688 100.271C38.4226 99.8241 38.965 99.4766 39.5611 99.2513C40.1571 99.026 40.7937 98.9278 41.43 98.9631C42.0842 98.9354 42.7371 99.0422 43.3484 99.2769C43.9597 99.5116 44.5164 99.8691 44.984 100.327C45.4517 100.786 45.8204 101.335 46.0674 101.941C46.3144 102.548 46.4344 103.198 46.42 103.853V108.743H39.19V111.463C39.19 113.283 40.02 114.083 41.6 114.083C43.11 114.083 43.77 113.153 43.77 111.743V111.523ZM43.84 106.813V103.893C43.8739 103.577 43.8383 103.257 43.7356 102.956C43.6329 102.655 43.4657 102.38 43.2457 102.151C43.0256 101.921 42.7581 101.742 42.4617 101.627C42.1653 101.512 41.8474 101.463 41.53 101.483C41.2028 101.477 40.878 101.54 40.5772 101.669C40.2764 101.798 40.0064 101.989 39.7851 102.231C39.5638 102.472 39.3963 102.757 39.2937 103.068C39.1911 103.379 39.1558 103.708 39.19 104.033V106.823H43.84V106.813Z" fill="#FCFCFC"/>
<path d="M57.84 103.743C57.67 101.813 56.6 101.403 55.53 101.403C54.26 101.403 53.33 101.883 53.33 103.603C53.33 104.943 54.26 105.493 55.36 106.013L57.49 107.043C58.419 107.391 59.2079 108.035 59.7355 108.875C60.263 109.715 60.5 110.705 60.41 111.693C60.41 113.103 59.89 116.583 55.42 116.583C51.6 116.583 50.5 114.073 50.43 111.693H53.04C53.18 113.513 54 114.173 55.35 114.173C55.6865 114.22 56.0293 114.187 56.3514 114.079C56.6734 113.971 56.9661 113.79 57.2063 113.549C57.4465 113.309 57.6279 113.017 57.7361 112.695C57.8443 112.372 57.8764 112.03 57.83 111.693C57.83 110.423 57.42 109.763 55.66 108.903L53.56 107.873C52.6522 107.547 51.8805 106.924 51.369 106.106C50.8575 105.288 50.636 104.322 50.74 103.363C50.74 101.053 52.25 98.9631 55.66 98.9631C59.41 98.9631 60.34 101.613 60.41 103.743H57.84Z" fill="#FCFCFC"/>
<path d="M67.92 94.0432V99.2432H70.33V101.303H67.92V111.663C67.8932 112.009 67.941 112.357 68.06 112.683C68.179 113.009 68.3666 113.306 68.61 113.553C69.0867 113.872 69.6589 114.017 70.23 113.963H70.5V116.303H69.74C68.78 116.303 67.16 116.273 66.23 115.233C65.5341 114.293 65.2165 113.126 65.34 111.963V101.293H63.52V99.2332H65.34V94.0332H67.92V94.0432Z" fill="#FCFCFC"/>
<path d="M77.11 92.7031V95.2131H74.53V92.7031H77.11ZM74.53 99.2431H77.11V116.313H74.53V99.2431Z" fill="#FCFCFC"/>
<path d="M92.08 116.303H89.5V114.613C89.0885 115.211 88.5394 115.701 87.899 116.042C87.2586 116.383 86.5456 116.565 85.82 116.573C82.79 116.573 82.24 114.263 82.24 112.613V102.913C82.24 101.263 82.79 98.9531 85.82 98.9531C86.5456 98.9611 87.2586 99.1433 87.899 99.4844C88.5394 99.8255 89.0885 100.315 89.5 100.913V92.2031H92.08V116.303ZM89.5 110.943V104.613C89.5 103.543 89.09 101.483 86.99 101.483C85.34 101.483 84.82 102.823 84.82 104.133V111.423C84.82 112.733 85.34 114.073 86.99 114.073C89.08 114.073 89.5 112.003 89.5 110.943Z" fill="#FCFCFC"/>
<path d="M97.06 103.783C97.0909 102.502 97.6202 101.284 98.5353 100.387C99.4504 99.4899 100.679 98.9852 101.961 98.98C103.242 98.9748 104.475 99.4695 105.397 100.359C106.319 101.248 106.859 102.462 106.9 103.743V111.693C106.9 112.998 106.382 114.249 105.459 115.172C104.536 116.095 103.285 116.613 101.98 116.613C100.675 116.613 99.4237 116.095 98.501 115.172C97.5784 114.249 97.06 112.998 97.06 111.693V103.783ZM104.33 104.263C104.33 102.373 103.26 101.473 101.99 101.473C100.72 101.473 99.65 102.363 99.65 104.263V111.283C99.65 113.073 100.48 114.073 101.99 114.073C103.44 114.073 104.33 113.143 104.33 111.283V104.263Z" fill="#FCFCFC"/>
<path d="M114.47 99.2431V101.923C116.29 99.4432 117.88 99.0031 119.22 98.9631V101.853H118.74C116.85 101.853 114.47 102.613 114.47 106.363V116.303H111.89V99.2332H114.47V99.2431Z" fill="#FCFCFC"/>
<path d="M129.44 111.523H132.02V111.763C132.02 113.453 131.23 116.583 127.27 116.583C126.606 116.625 125.941 116.526 125.319 116.292C124.696 116.058 124.13 115.695 123.659 115.226C123.187 114.757 122.82 114.194 122.583 113.572C122.345 112.951 122.242 112.287 122.28 111.623V103.713C122.254 103.076 122.362 102.441 122.596 101.849C122.829 101.256 123.185 100.719 123.639 100.271C124.093 99.8241 124.635 99.4766 125.231 99.2513C125.827 99.026 126.464 98.9278 127.1 98.9631C127.754 98.9354 128.407 99.0422 129.018 99.2769C129.63 99.5116 130.186 99.8691 130.654 100.327C131.122 100.786 131.49 101.335 131.737 101.941C131.984 102.548 132.104 103.198 132.09 103.853V108.743H124.86V111.463C124.86 113.283 125.69 114.083 127.27 114.083C128.78 114.083 129.44 113.153 129.44 111.743V111.523ZM129.51 106.813V103.893C129.544 103.577 129.508 103.257 129.406 102.956C129.303 102.655 129.136 102.38 128.916 102.151C128.696 101.921 128.428 101.742 128.132 101.627C127.835 101.512 127.517 101.463 127.2 101.483C126.873 101.477 126.548 101.54 126.247 101.669C125.946 101.798 125.676 101.989 125.455 102.231C125.234 102.472 125.066 102.757 124.964 103.068C124.861 103.379 124.826 103.708 124.86 104.033V106.823H129.51V106.813Z" fill="#FCFCFC"/>
<path d="M143.51 103.743C143.34 101.813 142.27 101.403 141.2 101.403C139.93 101.403 139 101.883 139 103.603C139 104.943 139.93 105.493 141.03 106.013L143.16 107.043C144.089 107.391 144.878 108.035 145.405 108.875C145.933 109.715 146.17 110.705 146.08 111.693C146.08 113.103 145.56 116.583 141.09 116.583C137.27 116.583 136.17 114.073 136.1 111.693H138.71C138.85 113.513 139.67 114.173 141.02 114.173C141.357 114.22 141.699 114.187 142.021 114.079C142.343 113.971 142.636 113.79 142.876 113.549C143.117 113.309 143.298 113.017 143.406 112.695C143.514 112.372 143.546 112.03 143.5 111.693C143.5 110.423 143.09 109.763 141.33 108.903L139.23 107.873C138.322 107.547 137.55 106.924 137.039 106.106C136.528 105.288 136.306 104.322 136.41 103.363C136.41 101.053 137.92 98.9631 141.33 98.9631C145.08 98.9631 146.01 101.613 146.08 103.743H143.51Z" fill="#FCFCFC"/>
<path d="M159.44 99.2431H162.02V100.933C162.431 100.335 162.981 99.8454 163.621 99.5043C164.261 99.1632 164.974 98.9811 165.7 98.9731C168.73 98.9731 169.28 101.283 169.28 102.933V112.633C169.28 114.283 168.73 116.593 165.7 116.593C164.974 116.585 164.261 116.403 163.621 116.062C162.981 115.721 162.431 115.231 162.02 114.633V123.343H159.44V99.2431ZM166.7 111.423V104.133C166.7 102.823 166.18 101.483 164.53 101.483C162.43 101.483 162.02 103.543 162.02 104.613V110.943C162.02 112.013 162.43 114.073 164.53 114.073C166.19 114.073 166.7 112.733 166.7 111.423Z" fill="#FCFCFC"/>
<path d="M181.5 114.623H181.47C181.049 115.252 180.475 115.762 179.801 116.105C179.127 116.448 178.376 116.613 177.62 116.583C174.9 116.583 174.11 114.523 174.11 111.803C174.11 108.193 175.28 106.163 179.1 106.163C179.905 106.167 180.71 106.213 181.51 106.303V103.793C181.512 103.481 181.45 103.171 181.328 102.884C181.206 102.596 181.027 102.336 180.802 102.12C180.576 101.904 180.309 101.736 180.016 101.626C179.724 101.517 179.412 101.468 179.1 101.483C178.513 101.459 177.94 101.666 177.503 102.058C177.066 102.45 176.8 102.997 176.76 103.583H174.28C174.28 100.693 176.48 98.9731 179.27 98.9731C183.23 98.9731 184.09 101.893 184.09 104.103V116.313H181.51V114.623H181.5ZM181.5 108.183C180.921 108.091 180.336 108.034 179.75 108.013C178.27 108.013 176.69 108.803 176.69 111.313C176.69 113.723 177.41 114.373 178.89 114.373C179.631 114.229 180.299 113.83 180.778 113.246C181.256 112.662 181.515 111.928 181.51 111.173V108.183H181.5Z" fill="#FCFCFC"/>
<path d="M191.79 99.2431V101.923C193.61 99.4432 195.2 99.0031 196.54 98.9631V101.853H196.06C194.17 101.853 191.79 102.613 191.79 106.363V116.303H189.21V99.2332H191.79V99.2431Z" fill="#FCFCFC"/>
<path d="M206.55 114.623H206.52C206.099 115.252 205.525 115.762 204.851 116.105C204.177 116.448 203.426 116.613 202.67 116.583C199.95 116.583 199.16 114.523 199.16 111.803C199.16 108.193 200.33 106.163 204.15 106.163C204.955 106.167 205.76 106.213 206.56 106.303V103.793C206.562 103.481 206.5 103.171 206.378 102.884C206.256 102.596 206.077 102.336 205.852 102.12C205.626 101.904 205.359 101.736 205.066 101.626C204.774 101.517 204.462 101.468 204.15 101.483C203.563 101.459 202.99 101.666 202.553 102.058C202.116 102.45 201.85 102.997 201.81 103.583H199.33C199.33 100.693 201.53 98.9731 204.32 98.9731C208.28 98.9731 209.14 101.893 209.14 104.103V116.313H206.56V114.623H206.55ZM206.55 108.183C205.971 108.091 205.386 108.034 204.8 108.013C203.32 108.013 201.74 108.803 201.74 111.313C201.74 113.723 202.46 114.373 203.94 114.373C204.681 114.229 205.349 113.83 205.828 113.246C206.306 112.662 206.565 111.928 206.56 111.173V108.183H206.55Z" fill="#FCFCFC"/>
<path d="M223.96 101.303H222.1V99.2431H223.96V96.6631C223.96 94.1531 224.82 92.2231 228.64 92.2231H229.43V94.4631H228.71C227.37 94.4631 226.51 95.1531 226.51 96.8031V99.2431H229.4V101.303H226.54V116.303H223.96V101.303Z" fill="#FCFCFC"/>
<path d="M240.02 114.623H239.99C239.569 115.252 238.995 115.762 238.32 116.105C237.646 116.448 236.896 116.613 236.14 116.583C233.42 116.583 232.63 114.523 232.63 111.803C232.63 108.193 233.8 106.163 237.62 106.163C238.425 106.167 239.23 106.213 240.03 106.303V103.793C240.032 103.481 239.97 103.171 239.848 102.884C239.726 102.596 239.547 102.336 239.322 102.12C239.096 101.904 238.829 101.736 238.536 101.626C238.244 101.517 237.932 101.468 237.62 101.483C237.033 101.459 236.46 101.666 236.023 102.058C235.586 102.45 235.32 102.997 235.28 103.583H232.8C232.8 100.693 235 98.9731 237.79 98.9731C241.75 98.9731 242.61 101.893 242.61 104.103V116.313H240.03V114.623H240.02ZM240.02 108.183C239.441 108.091 238.856 108.034 238.27 108.013C236.79 108.013 235.21 108.803 235.21 111.313C235.21 113.723 235.93 114.373 237.41 114.373C238.151 114.229 238.819 113.83 239.298 113.246C239.776 112.662 240.035 111.928 240.03 111.173V108.183H240.02Z" fill="#FCFCFC"/>
<path d="M247.21 99.2432H256.09V101.303L249.55 114.133H256.09V116.303H246.77V114.243L253.34 101.413H247.22V99.2432H247.21Z" fill="#FCFCFC"/>
<path d="M266.93 111.523H269.51V111.763C269.51 113.453 268.72 116.583 264.76 116.583C264.096 116.625 263.431 116.526 262.809 116.292C262.186 116.058 261.621 115.695 261.149 115.226C260.677 114.757 260.31 114.194 260.073 113.572C259.835 112.951 259.732 112.287 259.77 111.623V103.713C259.744 103.076 259.852 102.441 260.086 101.849C260.32 101.256 260.675 100.719 261.129 100.271C261.583 99.8241 262.125 99.4766 262.721 99.2513C263.317 99.026 263.954 98.9278 264.59 98.9631C265.244 98.9354 265.897 99.0422 266.508 99.2769C267.12 99.5116 267.676 99.8691 268.144 100.327C268.612 100.786 268.98 101.335 269.227 101.941C269.474 102.548 269.594 103.198 269.58 103.853V108.743H262.35V111.463C262.35 113.283 263.18 114.083 264.76 114.083C266.27 114.083 266.93 113.153 266.93 111.743V111.523ZM267 106.813V103.893C267.034 103.577 266.998 103.257 266.896 102.956C266.793 102.655 266.626 102.38 266.406 102.151C266.186 101.921 265.918 101.742 265.622 101.627C265.325 101.512 265.007 101.463 264.69 101.483C264.363 101.477 264.038 101.54 263.737 101.669C263.436 101.798 263.166 101.989 262.945 102.231C262.724 102.472 262.556 102.757 262.454 103.068C262.351 103.379 262.316 103.708 262.35 104.033V106.823H267V106.813Z" fill="#FCFCFC"/>
<path d="M277.01 99.2431V101.923C278.83 99.4432 280.42 99.0031 281.76 98.9631V101.853H281.28C279.39 101.853 277.01 102.613 277.01 106.363V116.303H274.43V99.2332H277.01V99.2431Z" fill="#FCFCFC"/>
<path d="M10.88 162.183H8.29999V160.493C7.88851 161.091 7.33944 161.581 6.69901 161.922C6.05857 162.263 5.34556 162.445 4.62 162.453C1.59 162.453 1.04001 160.143 1.04001 158.493V148.793C1.04001 147.143 1.59 144.833 4.62 144.833C5.34556 144.841 6.05857 145.023 6.69901 145.364C7.33944 145.705 7.88851 146.195 8.29999 146.793V138.083H10.88V162.183ZM8.29999 156.813V150.483C8.29999 149.413 7.89001 147.353 5.79001 147.353C4.14001 147.353 3.62 148.693 3.62 150.003V157.293C3.62 158.603 4.14001 159.943 5.79001 159.943C7.89001 159.943 8.29999 157.883 8.29999 156.813Z" fill="#FCFCFC"/>
<path d="M18.59 138.583V141.093H16V138.583H18.59ZM16 145.113H18.58V162.183H16V145.113Z" fill="#FCFCFC"/>
<path d="M23.71 145.113H26.29V146.803C26.7015 146.206 27.2506 145.716 27.891 145.375C28.5314 145.033 29.2444 144.851 29.97 144.843C33 144.843 33.55 147.153 33.55 148.803V162.183H30.97V150.003C30.97 148.693 30.45 147.353 28.8 147.353C26.7 147.353 26.29 149.413 26.29 150.483V162.183H23.71V145.113Z" fill="#FCFCFC"/>
<path d="M38.68 138.093H41.26V146.803C41.6715 146.206 42.2206 145.716 42.861 145.375C43.5014 145.033 44.2144 144.851 44.94 144.843C47.97 144.843 48.52 147.153 48.52 148.803V162.183H45.94V150.003C45.94 148.693 45.42 147.353 43.77 147.353C41.67 147.353 41.26 149.413 41.26 150.483V162.183H38.68V138.093Z" fill="#FCFCFC"/>
<path d="M60.66 157.403H63.24V157.643C63.24 159.333 62.45 162.463 58.49 162.463C57.8263 162.505 57.1613 162.406 56.5388 162.172C55.9163 161.938 55.3506 161.575 54.8789 161.106C54.4073 160.637 54.0405 160.074 53.8028 159.453C53.5651 158.831 53.4619 158.167 53.5 157.503V149.593C53.4741 148.956 53.5816 148.321 53.8156 147.729C54.0496 147.136 54.4049 146.599 54.8588 146.151C55.3126 145.704 55.855 145.357 56.4511 145.131C57.0472 144.906 57.6838 144.808 58.32 144.843C58.9742 144.816 59.6271 144.922 60.2384 145.157C60.8497 145.392 61.4064 145.749 61.874 146.207C62.3417 146.666 62.7104 147.215 62.9574 147.822C63.2044 148.428 63.3244 149.079 63.31 149.733V154.623H56.08V157.333C56.08 159.153 56.91 159.953 58.49 159.953C60 159.953 60.66 159.023 60.66 157.613V157.403ZM60.73 152.683V149.763C60.7639 149.447 60.7283 149.127 60.6256 148.826C60.523 148.525 60.3557 148.25 60.1357 148.021C59.9156 147.791 59.6481 147.612 59.3517 147.497C59.0553 147.382 58.7373 147.333 58.42 147.353C58.0928 147.347 57.768 147.41 57.4672 147.539C57.1663 147.668 56.8964 147.859 56.6751 148.101C56.4539 148.342 56.2863 148.627 56.1837 148.938C56.0811 149.249 56.0458 149.578 56.08 149.903V152.693H60.73V152.683Z" fill="#FCFCFC"/>
<path d="M70.74 138.583V141.093H68.16V138.583H70.74ZM68.16 145.113H70.74V162.183H68.16V145.113Z" fill="#FCFCFC"/>
<path d="M78.45 145.113V147.793C80.27 145.313 81.86 144.873 83.2 144.833V147.723H82.72C80.83 147.723 78.45 148.483 78.45 152.233V162.173H75.87V145.103H78.45V145.113Z" fill="#FCFCFC"/>
<path d="M86.26 149.653C86.291 148.372 86.8202 147.154 87.7353 146.257C88.6504 145.36 89.8792 144.855 91.1606 144.85C92.4419 144.845 93.6747 145.34 94.5971 146.229C95.5195 147.118 96.0586 148.333 96.1 149.613V157.563C96.1 158.868 95.5816 160.12 94.6589 161.042C93.7363 161.965 92.4849 162.483 91.18 162.483C89.8751 162.483 88.6237 161.965 87.701 161.042C86.7784 160.12 86.26 158.868 86.26 157.563V149.653ZM93.52 150.143C93.52 148.253 92.45 147.353 91.18 147.353C89.91 147.353 88.84 148.243 88.84 150.143V157.163C88.84 158.953 89.67 159.953 91.18 159.953C92.63 159.953 93.52 159.023 93.52 157.163V150.143Z" fill="#FCFCFC"/>
<path d="M119.81 162.183H117.23V160.493C116.819 161.091 116.269 161.581 115.629 161.922C114.989 162.263 114.276 162.445 113.55 162.453C110.52 162.453 109.97 160.143 109.97 158.493V148.793C109.97 147.143 110.52 144.833 113.55 144.833C114.276 144.841 114.989 145.023 115.629 145.364C116.269 145.705 116.819 146.195 117.23 146.793V138.083H119.81V162.183ZM117.23 156.813V150.483C117.23 149.413 116.82 147.353 114.72 147.353C113.07 147.353 112.55 148.693 112.55 150.003V157.293C112.55 158.603 113.07 159.943 114.72 159.943C116.81 159.943 117.23 157.883 117.23 156.813Z" fill="#FCFCFC"/>
<path d="M131.95 157.403H134.53V157.643C134.53 159.333 133.74 162.463 129.78 162.463C129.116 162.505 128.451 162.406 127.829 162.172C127.206 161.938 126.641 161.575 126.169 161.106C125.697 160.637 125.33 160.074 125.093 159.453C124.855 158.831 124.752 158.167 124.79 157.503V149.593C124.764 148.956 124.872 148.321 125.106 147.729C125.34 147.136 125.695 146.599 126.149 146.151C126.603 145.704 127.145 145.357 127.741 145.131C128.337 144.906 128.974 144.808 129.61 144.843C130.264 144.816 130.917 144.922 131.528 145.157C132.14 145.392 132.696 145.749 133.164 146.207C133.632 146.666 134 147.215 134.247 147.822C134.494 148.428 134.614 149.079 134.6 149.733V154.623H127.37V157.333C127.37 159.153 128.2 159.953 129.78 159.953C131.29 159.953 131.95 159.023 131.95 157.613V157.403ZM132.02 152.683V149.763C132.054 149.447 132.018 149.127 131.916 148.826C131.813 148.525 131.646 148.25 131.426 148.021C131.206 147.791 130.938 147.612 130.642 147.497C130.345 147.382 130.027 147.333 129.71 147.353C129.383 147.347 129.058 147.41 128.757 147.539C128.456 147.668 128.186 147.859 127.965 148.101C127.744 148.342 127.576 148.627 127.474 148.938C127.371 149.249 127.336 149.578 127.37 149.903V152.693H132.02V152.683Z" fill="#FCFCFC"/>
<path d="M149.16 147.183H147.3V145.123H149.16V142.543C149.16 140.033 150.02 138.103 153.84 138.103H154.63V140.333H153.91C152.57 140.333 151.71 141.023 151.71 142.673V145.113H154.6V147.173H151.74V162.173H149.16V147.183Z" fill="#FCFCFC"/>
<path d="M158 149.653C158.031 148.372 158.56 147.154 159.475 146.257C160.39 145.36 161.619 144.855 162.901 144.85C164.182 144.845 165.415 145.34 166.337 146.229C167.259 147.118 167.799 148.333 167.84 149.613V157.563C167.84 158.868 167.322 160.12 166.399 161.042C165.476 161.965 164.225 162.483 162.92 162.483C161.615 162.483 160.364 161.965 159.441 161.042C158.518 160.12 158 158.868 158 157.563V149.653ZM165.26 150.143C165.26 148.253 164.19 147.353 162.92 147.353C161.65 147.353 160.58 148.243 160.58 150.143V157.163C160.58 158.953 161.41 159.953 162.92 159.953C164.37 159.953 165.26 159.023 165.26 157.163V150.143Z" fill="#FCFCFC"/>
<path d="M175.41 145.113V147.793C177.23 145.313 178.82 144.873 180.16 144.833V147.723H179.68C177.79 147.723 175.41 148.483 175.41 152.233V162.173H172.83V145.103H175.41V145.113Z" fill="#FCFCFC"/>
<path d="M186.28 145.113V146.803C186.683 146.204 187.227 145.713 187.863 145.372C188.499 145.03 189.208 144.849 189.93 144.843C190.623 144.796 191.314 144.958 191.915 145.307C192.515 145.657 192.998 146.177 193.3 146.803C193.698 146.183 194.25 145.677 194.902 145.334C195.554 144.99 196.284 144.821 197.02 144.843C199.39 144.843 200.53 146.463 200.53 148.873V162.193H197.95V150.013C197.95 148.533 197.33 147.363 195.78 147.363C194.16 147.363 193.41 148.843 193.41 150.493V162.193H190.83V150.013C190.83 148.943 190.42 147.363 188.7 147.363C187.05 147.363 186.29 148.913 186.29 150.493V162.193H183.71V145.123H186.28V145.113Z" fill="#FCFCFC"/>
<path d="M212.74 160.493H212.71C212.289 161.122 211.715 161.632 211.041 161.975C210.367 162.318 209.616 162.483 208.86 162.453C206.14 162.453 205.35 160.393 205.35 157.673C205.35 154.063 206.52 152.033 210.34 152.033C211.145 152.037 211.95 152.084 212.75 152.173V149.663C212.752 149.351 212.69 149.041 212.568 148.754C212.446 148.466 212.267 148.206 212.042 147.99C211.816 147.774 211.549 147.606 211.256 147.497C210.964 147.387 210.652 147.338 210.34 147.353C209.753 147.33 209.18 147.536 208.743 147.928C208.306 148.32 208.04 148.867 208 149.453H205.52C205.52 146.563 207.72 144.843 210.51 144.843C214.47 144.843 215.33 147.763 215.33 149.973V162.183H212.75V160.493H212.74ZM212.74 154.063C212.161 153.971 211.576 153.915 210.99 153.893C209.51 153.893 207.93 154.683 207.93 157.193C207.93 159.603 208.65 160.253 210.13 160.253C210.871 160.109 211.539 159.711 212.018 159.126C212.496 158.542 212.755 157.808 212.75 157.053V154.063H212.74Z" fill="#FCFCFC"/>
<path d="M231.9 138.583V141.093H229.32V138.583H231.9ZM229.32 145.113H231.9V162.183H229.32V145.113Z" fill="#FCFCFC"/>
<path d="M237.03 145.113H239.61V146.803C240.021 146.206 240.571 145.716 241.211 145.375C241.851 145.033 242.564 144.851 243.29 144.843C246.32 144.843 246.87 147.153 246.87 148.803V162.183H244.29V150.003C244.29 148.693 243.77 147.353 242.12 147.353C240.02 147.353 239.61 149.413 239.61 150.483V162.183H237.03V145.113Z" fill="#FCFCFC"/>
<path d="M255.02 139.923V145.123H257.43V147.183H255.02V157.543C254.993 157.889 255.041 158.237 255.16 158.563C255.279 158.889 255.467 159.186 255.71 159.433C256.187 159.752 256.759 159.897 257.33 159.843H257.6V162.183H256.84C255.88 162.183 254.26 162.153 253.33 161.113C252.634 160.173 252.316 159.006 252.44 157.843V147.173H250.62V145.113H252.44V139.913H255.02V139.923Z" fill="#FCFCFC"/>
<path d="M268.65 157.403H271.23V157.643C271.23 159.333 270.44 162.463 266.48 162.463C265.816 162.505 265.151 162.406 264.529 162.172C263.906 161.938 263.341 161.575 262.869 161.106C262.397 160.637 262.03 160.074 261.793 159.453C261.555 158.831 261.452 158.167 261.49 157.503V149.593C261.464 148.956 261.572 148.321 261.806 147.729C262.04 147.136 262.395 146.599 262.849 146.151C263.303 145.704 263.845 145.357 264.441 145.131C265.037 144.906 265.674 144.808 266.31 144.843C266.964 144.816 267.617 144.922 268.228 145.157C268.84 145.392 269.396 145.749 269.864 146.207C270.332 146.666 270.7 147.215 270.947 147.822C271.194 148.428 271.314 149.079 271.3 149.733V154.623H264.07V157.333C264.07 159.153 264.9 159.953 266.48 159.953C267.99 159.953 268.65 159.023 268.65 157.613V157.403ZM268.72 152.683V149.763C268.754 149.447 268.718 149.127 268.616 148.826C268.513 148.525 268.346 148.25 268.126 148.021C267.906 147.791 267.638 147.612 267.342 147.497C267.045 147.382 266.727 147.333 266.41 147.353C266.083 147.347 265.758 147.41 265.457 147.539C265.156 147.668 264.886 147.859 264.665 148.101C264.444 148.342 264.276 148.627 264.174 148.938C264.071 149.249 264.036 149.578 264.07 149.903V152.693H268.72V152.683Z" fill="#FCFCFC"/>
<path d="M278.73 138.093V157.913C278.709 158.166 278.744 158.421 278.832 158.66C278.92 158.899 279.058 159.115 279.238 159.295C279.418 159.475 279.634 159.613 279.873 159.701C280.112 159.789 280.367 159.824 280.62 159.803H281V162.173H280.21C277.6 162.173 276.15 160.623 276.15 158.383V138.083H278.73V138.093Z" fill="#FCFCFC"/>
<path d="M287.4 138.583V141.093H284.82V138.583H287.4ZM284.82 145.113H287.4V162.183H284.82V145.113Z" fill="#FCFCFC"/>
<path d="M302.37 164.243C302.411 164.927 302.307 165.613 302.064 166.254C301.82 166.895 301.444 167.477 300.959 167.962C300.474 168.447 299.892 168.823 299.251 169.067C298.61 169.31 297.924 169.414 297.24 169.373C294.45 169.373 292.53 167.863 292.53 164.763H295C294.999 165.06 295.061 165.354 295.182 165.625C295.302 165.896 295.479 166.139 295.7 166.337C295.921 166.535 296.181 166.685 296.464 166.775C296.746 166.866 297.045 166.896 297.34 166.863C297.654 166.879 297.967 166.83 298.262 166.721C298.556 166.613 298.825 166.445 299.053 166.229C299.281 166.013 299.463 165.754 299.588 165.465C299.713 165.177 299.778 164.867 299.78 164.553V160.323C299.369 160.921 298.819 161.411 298.179 161.752C297.539 162.093 296.826 162.275 296.1 162.283C293.07 162.283 292.52 159.973 292.52 158.323V148.793C292.52 147.143 293.07 144.833 296.1 144.833C296.826 144.841 297.539 145.023 298.179 145.364C298.819 145.705 299.369 146.195 299.78 146.793V145.103H302.36V164.243H302.37ZM299.79 156.643V150.483C299.79 149.413 299.38 147.353 297.28 147.353C295.63 147.353 295.11 148.693 295.11 150.003V157.123C295.11 158.433 295.63 159.773 297.28 159.773C299.37 159.773 299.79 157.713 299.79 156.643Z" fill="#FCFCFC"/>
<path d="M314.51 157.403H317.09V157.643C317.09 159.333 316.3 162.463 312.34 162.463C311.676 162.505 311.011 162.406 310.389 162.172C309.766 161.938 309.201 161.575 308.729 161.106C308.257 160.637 307.89 160.074 307.653 159.453C307.415 158.831 307.312 158.167 307.35 157.503V149.593C307.324 148.956 307.432 148.321 307.666 147.729C307.9 147.136 308.255 146.599 308.709 146.151C309.163 145.704 309.705 145.357 310.301 145.131C310.897 144.906 311.534 144.808 312.17 144.843C312.824 144.816 313.477 144.922 314.088 145.157C314.7 145.392 315.256 145.749 315.724 146.207C316.192 146.666 316.56 147.215 316.807 147.822C317.054 148.428 317.174 149.079 317.16 149.733V154.623H309.93V157.333C309.93 159.153 310.76 159.953 312.34 159.953C313.85 159.953 314.51 159.023 314.51 157.613V157.403ZM314.58 152.683V149.763C314.614 149.447 314.578 149.127 314.476 148.826C314.373 148.525 314.206 148.25 313.986 148.021C313.766 147.791 313.498 147.612 313.202 147.497C312.905 147.382 312.587 147.333 312.27 147.353C311.943 147.347 311.618 147.41 311.317 147.539C311.016 147.668 310.746 147.859 310.525 148.101C310.304 148.342 310.136 148.627 310.034 148.938C309.931 149.249 309.896 149.578 309.93 149.903V152.693H314.58V152.683Z" fill="#FCFCFC"/>
<path d="M322.01 145.113H324.59V146.803C325.002 146.206 325.551 145.716 326.191 145.375C326.831 145.033 327.544 144.851 328.27 144.843C331.3 144.843 331.85 147.153 331.85 148.803V162.183H329.27V150.003C329.27 148.693 328.75 147.353 327.1 147.353C325 147.353 324.59 149.413 324.59 150.483V162.183H322.01V145.113Z" fill="#FCFCFC"/>
<path d="M340.01 139.923V145.123H342.42V147.183H340.01V157.543C339.983 157.889 340.031 158.237 340.15 158.563C340.269 158.889 340.457 159.186 340.7 159.433C341.177 159.752 341.749 159.897 342.32 159.843H342.59V162.183H341.83C340.87 162.183 339.25 162.153 338.32 161.113C337.624 160.173 337.306 159.006 337.43 157.843V147.173H335.61V145.113H337.43V139.913H340.01V139.923Z" fill="#FCFCFC"/>
<path d="M353.63 157.403H356.21V157.643C356.21 159.333 355.42 162.463 351.46 162.463C350.796 162.505 350.131 162.406 349.509 162.172C348.886 161.938 348.32 161.575 347.849 161.106C347.377 160.637 347.01 160.074 346.773 159.453C346.535 158.831 346.432 158.167 346.47 157.503V149.593C346.444 148.956 346.552 148.321 346.785 147.729C347.019 147.136 347.375 146.599 347.829 146.151C348.283 145.704 348.825 145.357 349.421 145.131C350.017 144.906 350.654 144.808 351.29 144.843C351.944 144.816 352.597 144.922 353.208 145.157C353.82 145.392 354.376 145.749 354.844 146.207C355.312 146.666 355.68 147.215 355.927 147.822C356.174 148.428 356.294 149.079 356.28 149.733V154.623H349.05V157.333C349.05 159.153 349.88 159.953 351.46 159.953C352.97 159.953 353.63 159.023 353.63 157.613V157.403ZM353.7 152.683V149.763C353.734 149.447 353.698 149.127 353.596 148.826C353.493 148.525 353.326 148.25 353.106 148.021C352.886 147.791 352.618 147.612 352.322 147.497C352.025 147.382 351.707 147.333 351.39 147.353C351.063 147.347 350.738 147.41 350.437 147.539C350.136 147.668 349.866 147.859 349.645 148.101C349.424 148.342 349.256 148.627 349.154 148.938C349.051 149.249 349.016 149.578 349.05 149.903V152.693H353.7V152.683Z" fill="#FCFCFC"/>
<path d="M8.06001 203.273H10.64V203.513C10.64 205.203 9.85002 208.333 5.89002 208.333C5.22636 208.375 4.56128 208.276 3.93879 208.042C3.3163 207.808 2.75055 207.445 2.27891 206.976C1.80727 206.507 1.44047 205.944 1.20277 205.322C0.965069 204.701 0.86188 204.037 0.900003 203.373V195.463C0.874074 194.826 0.981559 194.191 1.21556 193.599C1.44955 193.006 1.80489 192.469 2.25877 192.021C2.71264 191.574 3.25501 191.227 3.85108 191.001C4.44715 190.776 5.08376 190.678 5.72001 190.713C6.37421 190.685 7.02711 190.792 7.63841 191.027C8.2497 191.262 8.80639 191.619 9.27406 192.077C9.74172 192.536 10.1104 193.085 10.3574 193.691C10.6044 194.298 10.7244 194.948 10.71 195.603V200.493H3.48002V203.213C3.48002 205.033 4.31002 205.833 5.89002 205.833C7.40002 205.833 8.06001 204.903 8.06001 203.493V203.273ZM8.13001 198.563V195.643C8.1639 195.327 8.12828 195.007 8.02561 194.706C7.92295 194.405 7.75573 194.13 7.53568 193.901C7.31563 193.671 7.04805 193.492 6.75169 193.377C6.45533 193.262 6.13736 193.213 5.82002 193.233C5.49281 193.227 5.16802 193.29 4.8672 193.419C4.56637 193.548 4.29635 193.739 4.07508 193.981C3.85381 194.222 3.68634 194.507 3.58375 194.818C3.48115 195.129 3.4458 195.458 3.48002 195.783V198.573H8.13001V198.563Z" fill="#FCFCFC"/>
<path d="M31.69 202.833H34.27V203.523C34.2197 204.825 33.6626 206.056 32.7175 206.952C31.7724 207.849 30.5143 208.34 29.2117 208.322C27.9091 208.304 26.6653 207.777 25.7457 206.854C24.8262 205.932 24.3038 204.686 24.29 203.383V195.643C24.2589 194.983 24.3672 194.323 24.6079 193.708C24.8486 193.092 25.2163 192.534 25.687 192.07C26.1578 191.606 26.721 191.246 27.3401 191.014C27.9592 190.782 28.6202 190.683 29.28 190.723C29.9298 190.675 30.5826 190.764 31.1959 190.984C31.8092 191.204 32.3693 191.551 32.8399 192.002C33.3104 192.452 33.6809 192.997 33.9273 193.6C34.1737 194.204 34.2905 194.852 34.27 195.503V196.263H31.69V196.023C31.69 194.093 30.59 193.233 29.28 193.233C27.94 193.233 26.87 194.093 26.87 196.023V203.043C26.87 204.863 27.7 205.833 29.28 205.833C30.79 205.833 31.69 204.903 31.69 203.043V202.833Z" fill="#FCFCFC"/>
<path d="M38.37 195.533C38.4009 194.252 38.9302 193.034 39.8453 192.137C40.7604 191.24 41.9892 190.735 43.2706 190.73C44.5519 190.725 45.7848 191.219 46.7071 192.109C47.6295 192.998 48.1686 194.212 48.21 195.493V203.443C48.21 204.748 47.6916 205.999 46.769 206.922C45.8463 207.845 44.5949 208.363 43.29 208.363C41.9851 208.363 40.7337 207.845 39.811 206.922C38.8884 205.999 38.37 204.748 38.37 203.443V195.533ZM45.63 196.013C45.63 194.123 44.56 193.223 43.29 193.223C42.02 193.223 40.95 194.113 40.95 196.013V203.033C40.95 204.823 41.78 205.823 43.29 205.823C44.74 205.823 45.63 204.893 45.63 203.033V196.013Z" fill="#FCFCFC"/>
<path d="M53.2 190.993H55.78V192.683C56.1915 192.085 56.7406 191.595 57.381 191.254C58.0214 190.913 58.7345 190.731 59.46 190.723C62.49 190.723 63.04 193.033 63.04 194.683V208.063H60.46V195.883C60.46 194.573 59.94 193.233 58.29 193.233C56.19 193.233 55.78 195.293 55.78 196.363V208.063H53.2V190.993Z" fill="#FCFCFC"/>
<path d="M74.74 195.503C74.57 193.573 73.5 193.163 72.43 193.163C71.16 193.163 70.23 193.643 70.23 195.363C70.23 196.703 71.16 197.253 72.26 197.773L74.39 198.803C75.319 199.151 76.1079 199.795 76.6354 200.635C77.163 201.475 77.4 202.465 77.31 203.453C77.31 204.863 76.79 208.343 72.32 208.343C68.5 208.343 67.4 205.833 67.33 203.453H69.94C70.08 205.273 70.9 205.933 72.25 205.933C72.5866 205.98 72.9293 205.947 73.2513 205.839C73.5734 205.731 73.866 205.55 74.1063 205.309C74.3465 205.069 74.5278 204.777 74.636 204.454C74.7443 204.132 74.7764 203.79 74.73 203.453C74.73 202.183 74.32 201.523 72.56 200.663L70.46 199.633C69.5522 199.307 68.7805 198.684 68.269 197.866C67.7575 197.048 67.536 196.082 67.64 195.123C67.64 192.813 69.15 190.723 72.56 190.723C76.31 190.723 77.24 193.373 77.31 195.503H74.74Z" fill="#FCFCFC"/>
<path d="M84.82 185.793V190.993H87.23V193.053H84.82V203.413C84.7933 203.759 84.841 204.107 84.96 204.433C85.079 204.759 85.2666 205.056 85.51 205.303C85.9867 205.622 86.5589 205.767 87.13 205.713H87.4V208.053H86.64C85.68 208.053 84.06 208.023 83.13 206.983C82.4341 206.043 82.1164 204.876 82.24 203.713V193.043H80.42V190.983H82.24V185.783H84.82V185.793Z" fill="#FCFCFC"/>
<path d="M94 190.993V193.673C95.82 191.193 97.41 190.753 98.75 190.713V193.603H98.27C96.38 193.603 94 194.363 94 198.113V208.053H91.42V190.983H94V190.993Z" fill="#FCFCFC"/>
<path d="M112.14 208.063H109.56V206.373C109.149 206.971 108.599 207.461 107.959 207.802C107.319 208.143 106.606 208.325 105.88 208.333C102.85 208.333 102.3 206.023 102.3 204.373V190.983H104.88V203.163C104.88 204.473 105.4 205.813 107.05 205.813C109.15 205.813 109.56 203.753 109.56 202.683V190.983H112.14V208.063Z" fill="#FCFCFC"/>
<path d="M119.84 184.453V186.963H117.26V184.453H119.84ZM117.26 190.993H119.84V208.063H117.26V190.993Z" fill="#FCFCFC"/>
<path d="M127.55 190.993V193.673C129.37 191.193 130.96 190.753 132.3 190.713V193.603H131.82C129.93 193.603 127.55 194.363 127.55 198.113V208.053H124.97V190.983H127.55V190.993Z" fill="#FCFCFC"/>
<path d="M151.29 195.503C151.12 193.573 150.05 193.163 148.98 193.163C147.71 193.163 146.78 193.643 146.78 195.363C146.78 196.703 147.71 197.253 148.81 197.773L150.94 198.803C151.869 199.151 152.658 199.795 153.185 200.635C153.713 201.475 153.95 202.465 153.86 203.453C153.86 204.863 153.34 208.343 148.87 208.343C145.05 208.343 143.95 205.833 143.88 203.453H146.49C146.63 205.273 147.45 205.933 148.8 205.933C149.137 205.98 149.479 205.947 149.801 205.839C150.123 205.731 150.416 205.55 150.656 205.309C150.896 205.069 151.078 204.777 151.186 204.454C151.294 204.132 151.326 203.79 151.28 203.453C151.28 202.183 150.87 201.523 149.11 200.663L147.01 199.633C146.102 199.307 145.33 198.684 144.819 197.866C144.307 197.048 144.086 196.082 144.19 195.123C144.19 192.813 145.7 190.723 149.11 190.723C152.86 190.723 153.79 193.373 153.86 195.503H151.29Z" fill="#FCFCFC"/>
<path d="M168.18 208.063H165.6V206.373C165.189 206.971 164.639 207.461 163.999 207.802C163.359 208.143 162.646 208.325 161.92 208.333C158.89 208.333 158.34 206.023 158.34 204.373V190.983H160.92V203.163C160.92 204.473 161.44 205.813 163.09 205.813C165.19 205.813 165.6 203.753 165.6 202.683V190.983H168.18V208.063Z" fill="#FCFCFC"/>
<path d="M180.4 206.373H180.37C179.949 207.002 179.375 207.512 178.701 207.855C178.026 208.198 177.276 208.363 176.52 208.333C173.8 208.333 173.01 206.273 173.01 203.553C173.01 199.943 174.18 197.913 178 197.913C178.805 197.917 179.61 197.963 180.41 198.053V195.543C180.412 195.231 180.35 194.921 180.228 194.634C180.106 194.346 179.927 194.086 179.702 193.87C179.476 193.654 179.209 193.486 178.916 193.376C178.624 193.267 178.312 193.218 178 193.233C177.413 193.209 176.84 193.416 176.403 193.808C175.966 194.2 175.7 194.747 175.66 195.333H173.18C173.18 192.443 175.38 190.723 178.17 190.723C182.13 190.723 182.99 193.643 182.99 195.853V208.063H180.41V206.373H180.4ZM180.4 199.943C179.821 199.851 179.236 199.794 178.65 199.773C177.17 199.773 175.59 200.563 175.59 203.073C175.59 205.483 176.31 206.133 177.79 206.133C178.531 205.989 179.199 205.59 179.678 205.006C180.156 204.422 180.415 203.688 180.41 202.933V199.943H180.4Z" fill="#FCFCFC"/>
<path d="M199.56 183.973V203.793C199.539 204.047 199.574 204.301 199.662 204.54C199.75 204.779 199.888 204.995 200.068 205.175C200.248 205.355 200.464 205.493 200.703 205.581C200.942 205.669 201.197 205.704 201.45 205.683H201.83V208.053H201.04C198.43 208.053 196.98 206.503 196.98 204.263V183.963H199.56V183.973Z" fill="#FCFCFC"/>
<path d="M208.23 184.453V186.963H205.65V184.453H208.23ZM205.65 190.993H208.23V208.063H205.65V190.993Z" fill="#FCFCFC"/>
<path d="M213.36 183.973H215.94V192.683C216.351 192.085 216.901 191.595 217.541 191.254C218.181 190.913 218.894 190.731 219.62 190.723C222.65 190.723 223.2 193.033 223.2 194.683V204.383C223.2 206.033 222.65 208.343 219.62 208.343C218.894 208.335 218.181 208.153 217.541 207.812C216.901 207.471 216.351 206.981 215.94 206.383V208.073H213.36V183.973ZM220.62 203.173V195.883C220.62 194.573 220.1 193.233 218.45 193.233C216.35 193.233 215.94 195.293 215.94 196.363V202.693C215.94 203.763 216.35 205.823 218.45 205.823C220.1 205.823 220.62 204.483 220.62 203.173Z" fill="#FCFCFC"/>
<path d="M235.34 203.273H237.92V203.513C237.92 205.203 237.13 208.333 233.17 208.333C232.506 208.375 231.841 208.276 231.219 208.042C230.596 207.808 230.031 207.445 229.559 206.976C229.087 206.507 228.72 205.944 228.483 205.322C228.245 204.701 228.142 204.037 228.18 203.373V195.463C228.154 194.826 228.262 194.191 228.496 193.599C228.73 193.006 229.085 192.469 229.539 192.021C229.993 191.574 230.535 191.227 231.131 191.001C231.727 190.776 232.364 190.678 233 190.713C233.654 190.685 234.307 190.792 234.918 191.027C235.53 191.262 236.086 191.619 236.554 192.077C237.022 192.536 237.39 193.085 237.637 193.691C237.884 194.298 238.004 194.948 237.99 195.603V200.493H230.76V203.213C230.76 205.033 231.59 205.833 233.17 205.833C234.68 205.833 235.34 204.903 235.34 203.493V203.273ZM235.41 198.563V195.643C235.444 195.327 235.408 195.007 235.306 194.706C235.203 194.405 235.036 194.13 234.816 193.901C234.596 193.671 234.328 193.492 234.032 193.377C233.735 193.262 233.417 193.213 233.1 193.233C232.773 193.227 232.448 193.29 232.147 193.419C231.846 193.548 231.576 193.739 231.355 193.981C231.134 194.222 230.966 194.507 230.864 194.818C230.761 195.129 230.726 195.458 230.76 195.783V198.573H235.41V198.563Z" fill="#FCFCFC"/>
<path d="M245.42 190.993V193.673C247.24 191.193 248.83 190.753 250.17 190.713V193.603H249.69C247.8 193.603 245.42 194.363 245.42 198.113V208.053H242.84V190.983H245.42V190.993Z" fill="#FCFCFC"/>
<path d="M263.21 208.063H260.63V206.373C260.219 206.971 259.669 207.461 259.029 207.802C258.389 208.143 257.676 208.325 256.95 208.333C253.92 208.333 253.37 206.023 253.37 204.373V194.673C253.37 193.023 253.92 190.713 256.95 190.713C257.676 190.721 258.389 190.903 259.029 191.244C259.669 191.585 260.219 192.076 260.63 192.673V183.963H263.21V208.063ZM260.63 202.693V196.363C260.63 195.293 260.22 193.233 258.12 193.233C256.47 193.233 255.95 194.573 255.95 195.883V203.173C255.95 204.483 256.47 205.823 258.12 205.823C260.22 205.823 260.63 203.753 260.63 202.693Z" fill="#FCFCFC"/>
<path d="M275.43 206.373H275.4C274.979 207.002 274.405 207.512 273.731 207.855C273.057 208.198 272.306 208.363 271.55 208.333C268.83 208.333 268.04 206.273 268.04 203.553C268.04 199.943 269.21 197.913 273.03 197.913C273.835 197.917 274.64 197.963 275.44 198.053V195.543C275.442 195.231 275.38 194.921 275.258 194.634C275.136 194.346 274.957 194.086 274.732 193.87C274.506 193.654 274.239 193.486 273.946 193.376C273.654 193.267 273.342 193.218 273.03 193.233C272.443 193.209 271.87 193.416 271.433 193.808C270.996 194.2 270.73 194.747 270.69 195.333H268.21C268.21 192.443 270.41 190.723 273.2 190.723C277.16 190.723 278.02 193.643 278.02 195.853V208.063H275.44V206.373H275.43ZM275.43 199.943C274.851 199.851 274.266 199.794 273.68 199.773C272.2 199.773 270.62 200.563 270.62 203.073C270.62 205.483 271.34 206.133 272.82 206.133C273.561 205.989 274.229 205.59 274.708 205.006C275.186 204.422 275.445 203.688 275.44 202.933V199.943H275.43Z" fill="#FCFCFC"/>
<path d="M292.97 208.063H290.39V206.373C289.979 206.971 289.429 207.461 288.789 207.802C288.149 208.143 287.436 208.325 286.71 208.333C283.68 208.333 283.13 206.023 283.13 204.373V194.673C283.13 193.023 283.68 190.713 286.71 190.713C287.436 190.721 288.149 190.903 288.789 191.244C289.429 191.585 289.979 192.076 290.39 192.673V183.963H292.97V208.063ZM290.39 202.693V196.363C290.39 195.293 289.98 193.233 287.88 193.233C286.23 193.233 285.71 194.573 285.71 195.883V203.173C285.71 204.483 286.23 205.823 287.88 205.823C289.98 205.823 290.39 203.753 290.39 202.693Z" fill="#FCFCFC"/>
<path d="M305.12 203.273H307.7V203.513C307.7 205.203 306.91 208.333 302.95 208.333C302.286 208.375 301.621 208.276 300.999 208.042C300.376 207.808 299.811 207.445 299.339 206.976C298.867 206.507 298.5 205.944 298.263 205.322C298.025 204.701 297.922 204.037 297.96 203.373V195.463C297.934 194.826 298.042 194.191 298.276 193.599C298.51 193.006 298.865 192.469 299.319 192.021C299.773 191.574 300.315 191.227 300.911 191.001C301.507 190.776 302.144 190.678 302.78 190.713C303.434 190.685 304.087 190.792 304.698 191.027C305.31 191.262 305.866 191.619 306.334 192.077C306.802 192.536 307.17 193.085 307.417 193.691C307.664 194.298 307.784 194.948 307.77 195.603V200.493H300.54V203.213C300.54 205.033 301.37 205.833 302.95 205.833C304.46 205.833 305.12 204.903 305.12 203.493V203.273ZM305.19 198.563V195.643C305.224 195.327 305.188 195.007 305.086 194.706C304.983 194.405 304.816 194.13 304.596 193.901C304.376 193.671 304.108 193.492 303.812 193.377C303.515 193.262 303.197 193.213 302.88 193.233C302.553 193.227 302.228 193.29 301.927 193.419C301.626 193.548 301.356 193.739 301.135 193.981C300.914 194.222 300.746 194.507 300.644 194.818C300.541 195.129 300.506 195.458 300.54 195.783V198.573H305.19V198.563Z" fill="#FCFCFC"/>
<path d="M331.34 208.063H328.76V206.373C328.349 206.971 327.799 207.461 327.159 207.802C326.519 208.143 325.806 208.325 325.08 208.333C322.05 208.333 321.5 206.023 321.5 204.373V194.673C321.5 193.023 322.05 190.713 325.08 190.713C325.806 190.721 326.519 190.903 327.159 191.244C327.799 191.585 328.349 192.076 328.76 192.673V183.963H331.34V208.063ZM328.76 202.693V196.363C328.76 195.293 328.35 193.233 326.25 193.233C324.6 193.233 324.08 194.573 324.08 195.883V203.173C324.08 204.483 324.6 205.823 326.25 205.823C328.34 205.823 328.76 203.753 328.76 202.693Z" fill="#FCFCFC"/>
<path d="M343.48 203.273H346.06V203.513C346.06 205.203 345.27 208.333 341.31 208.333C340.646 208.375 339.981 208.276 339.359 208.042C338.736 207.808 338.171 207.445 337.699 206.976C337.227 206.507 336.86 205.944 336.623 205.322C336.385 204.701 336.282 204.037 336.32 203.373V195.463C336.294 194.826 336.402 194.191 336.636 193.599C336.87 193.006 337.225 192.469 337.679 192.021C338.133 191.574 338.675 191.227 339.271 191.001C339.867 190.776 340.504 190.678 341.14 190.713C341.794 190.685 342.447 190.792 343.058 191.027C343.67 191.262 344.226 191.619 344.694 192.077C345.162 192.536 345.53 193.085 345.777 193.691C346.024 194.298 346.144 194.948 346.13 195.603V200.493H338.9V203.213C338.9 205.033 339.73 205.833 341.31 205.833C342.82 205.833 343.48 204.903 343.48 203.493V203.273ZM343.55 198.563V195.643C343.584 195.327 343.548 195.007 343.446 194.706C343.343 194.405 343.176 194.13 342.956 193.901C342.736 193.671 342.468 193.492 342.172 193.377C341.875 193.262 341.557 193.213 341.24 193.233C340.913 193.227 340.588 193.29 340.287 193.419C339.986 193.548 339.716 193.739 339.495 193.981C339.274 194.222 339.106 194.507 339.004 194.818C338.901 195.129 338.866 195.458 338.9 195.783V198.573H343.55V198.563Z" fill="#FCFCFC"/>
<path d="M366.88 203.273H369.46V203.513C369.46 205.203 368.67 208.333 364.71 208.333C364.046 208.375 363.381 208.276 362.759 208.042C362.136 207.808 361.57 207.445 361.099 206.976C360.627 206.507 360.26 205.944 360.023 205.322C359.785 204.701 359.682 204.037 359.72 203.373V195.463C359.694 194.826 359.802 194.191 360.035 193.599C360.269 193.006 360.625 192.469 361.079 192.021C361.533 191.574 362.075 191.227 362.671 191.001C363.267 190.776 363.904 190.678 364.54 190.713C365.194 190.685 365.847 190.792 366.458 191.027C367.07 191.262 367.626 191.619 368.094 192.077C368.562 192.536 368.93 193.085 369.177 193.691C369.424 194.298 369.544 194.948 369.53 195.603V200.493H362.3V203.213C362.3 205.033 363.13 205.833 364.71 205.833C366.22 205.833 366.88 204.903 366.88 203.493V203.273ZM366.95 198.563V195.643C366.984 195.327 366.948 195.007 366.846 194.706C366.743 194.405 366.576 194.13 366.356 193.901C366.136 193.671 365.868 193.492 365.572 193.377C365.275 193.262 364.957 193.213 364.64 193.233C364.313 193.227 363.988 193.29 363.687 193.419C363.386 193.548 363.116 193.739 362.895 193.981C362.674 194.222 362.506 194.507 362.404 194.818C362.301 195.129 362.266 195.458 362.3 195.783V198.573H366.95V198.563Z" fill="#FCFCFC"/>
<path d="M380.95 195.503C380.78 193.573 379.71 193.163 378.64 193.163C377.37 193.163 376.44 193.643 376.44 195.363C376.44 196.703 377.37 197.253 378.47 197.773L380.6 198.803C381.529 199.151 382.318 199.795 382.845 200.635C383.373 201.475 383.61 202.465 383.52 203.453C383.52 204.863 383 208.343 378.53 208.343C374.71 208.343 373.61 205.833 373.54 203.453H376.15C376.29 205.273 377.11 205.933 378.46 205.933C378.797 205.98 379.139 205.947 379.461 205.839C379.783 205.731 380.076 205.55 380.316 205.309C380.557 205.069 380.738 204.777 380.846 204.454C380.954 204.132 380.986 203.79 380.94 203.453C380.94 202.183 380.53 201.523 378.77 200.663L376.67 199.633C375.762 199.307 374.99 198.684 374.479 197.866C373.968 197.048 373.746 196.082 373.85 195.123C373.85 192.813 375.36 190.723 378.77 190.723C382.52 190.723 383.45 193.373 383.52 195.503H380.95Z" fill="#FCFCFC"/>
<path d="M395.26 202.833H397.84V203.523C397.79 204.825 397.233 206.056 396.287 206.952C395.342 207.849 394.084 208.34 392.782 208.322C391.479 208.304 390.235 207.777 389.316 206.854C388.396 205.932 387.874 204.686 387.86 203.383V195.643C387.829 194.983 387.937 194.323 388.178 193.708C388.419 193.092 388.786 192.534 389.257 192.07C389.728 191.606 390.291 191.246 390.91 191.014C391.529 190.782 392.19 190.683 392.85 190.723C393.5 190.675 394.153 190.764 394.766 190.984C395.379 191.204 395.939 191.551 396.41 192.002C396.88 192.452 397.251 192.997 397.497 193.6C397.744 194.204 397.86 194.852 397.84 195.503V196.263H395.26V196.023C395.26 194.093 394.16 193.233 392.85 193.233C391.51 193.233 390.44 194.093 390.44 196.023V203.043C390.44 204.863 391.27 205.833 392.85 205.833C394.36 205.833 395.26 204.903 395.26 203.043V202.833Z" fill="#FCFCFC"/>
<path d="M408.82 206.373H408.79C408.369 207.002 407.795 207.512 407.121 207.855C406.447 208.198 405.696 208.363 404.94 208.333C402.22 208.333 401.43 206.273 401.43 203.553C401.43 199.943 402.6 197.913 406.42 197.913C407.225 197.917 408.03 197.963 408.83 198.053V195.543C408.832 195.231 408.77 194.921 408.648 194.634C408.526 194.346 408.347 194.086 408.122 193.87C407.896 193.654 407.629 193.486 407.336 193.376C407.044 193.267 406.732 193.218 406.42 193.233C405.833 193.209 405.26 193.416 404.823 193.808C404.386 194.2 404.12 194.747 404.08 195.333H401.6C401.6 192.443 403.8 190.723 406.59 190.723C410.55 190.723 411.41 193.643 411.41 195.853V208.063H408.83V206.373H408.82ZM408.82 199.943C408.241 199.851 407.656 199.794 407.07 199.773C405.59 199.773 404.01 200.563 404.01 203.073C404.01 205.483 404.73 206.133 406.21 206.133C406.951 205.989 407.619 205.59 408.098 205.006C408.576 204.422 408.835 203.688 408.83 202.933V199.943H408.82Z" fill="#FCFCFC"/>
<path d="M419.11 183.973V203.793C419.089 204.047 419.124 204.301 419.212 204.54C419.3 204.779 419.438 204.995 419.618 205.175C419.798 205.355 420.014 205.493 420.253 205.581C420.492 205.669 420.747 205.704 421 205.683H421.38V208.053H420.59C417.98 208.053 416.53 206.503 416.53 204.263V183.963H419.11V183.973Z" fill="#FCFCFC"/>
<path d="M432.28 206.373H432.25C431.829 207.002 431.255 207.512 430.581 207.855C429.906 208.198 429.156 208.363 428.4 208.333C425.68 208.333 424.89 206.273 424.89 203.553C424.89 199.943 426.06 197.913 429.88 197.913C430.685 197.917 431.49 197.963 432.29 198.053V195.543C432.292 195.231 432.23 194.921 432.108 194.634C431.986 194.346 431.807 194.086 431.582 193.87C431.356 193.654 431.089 193.486 430.796 193.376C430.504 193.267 430.192 193.218 429.88 193.233C429.293 193.209 428.72 193.416 428.283 193.808C427.846 194.2 427.58 194.747 427.54 195.333H425.06C425.06 192.443 427.26 190.723 430.05 190.723C434.01 190.723 434.87 193.643 434.87 195.853V208.063H432.29V206.373H432.28ZM432.28 199.943C431.701 199.851 431.116 199.794 430.53 199.773C429.05 199.773 427.47 200.563 427.47 203.073C427.47 205.483 428.19 206.133 429.67 206.133C430.411 205.989 431.079 205.59 431.558 205.006C432.036 204.422 432.295 203.688 432.29 202.933V199.943H432.28Z" fill="#FCFCFC"/>
<path d="M8.06001 249.153H10.64V249.393C10.64 251.083 9.85002 254.213 5.89002 254.213C5.22636 254.255 4.56128 254.156 3.93879 253.922C3.3163 253.688 2.75055 253.325 2.27891 252.856C1.80727 252.387 1.44047 251.824 1.20277 251.203C0.965069 250.581 0.86188 249.917 0.900003 249.253V241.343C0.874074 240.706 0.981559 240.071 1.21556 239.479C1.44955 238.886 1.80489 238.349 2.25877 237.901C2.71264 237.454 3.25501 237.107 3.85108 236.881C4.44715 236.656 5.08376 236.558 5.72001 236.593C6.37421 236.566 7.02711 236.672 7.63841 236.907C8.2497 237.142 8.80639 237.499 9.27406 237.957C9.74172 238.416 10.1104 238.965 10.3574 239.572C10.6044 240.178 10.7244 240.829 10.71 241.483V246.373H3.48002V249.093C3.48002 250.913 4.31002 251.713 5.89002 251.713C7.40002 251.713 8.06001 250.783 8.06001 249.373V249.153ZM8.13001 244.443V241.523C8.1639 241.207 8.12828 240.887 8.02561 240.586C7.92295 240.285 7.75573 240.01 7.53568 239.781C7.31563 239.551 7.04805 239.372 6.75169 239.257C6.45533 239.142 6.13736 239.093 5.82002 239.113C5.49281 239.107 5.16802 239.17 4.8672 239.299C4.56637 239.428 4.29635 239.619 4.07508 239.861C3.85381 240.102 3.68634 240.387 3.58375 240.698C3.48115 241.009 3.4458 241.338 3.48002 241.663V244.453H8.13001V244.443Z" fill="#FCFCFC"/>
<path d="M25.26 238.933H23.4V236.873H25.26V234.293C25.26 231.783 26.12 229.853 29.94 229.853H30.73V232.093H30.01C28.67 232.093 27.81 232.783 27.81 234.433V236.873H30.7V238.933H27.84V253.933H25.26V238.933ZM35.72 230.333V232.843H33.14V230.333H35.72ZM33.14 236.863H35.72V253.933H33.14V236.863Z" fill="#FCFCFC"/>
<path d="M40.85 236.863H43.43V238.553C43.8415 237.956 44.3905 237.466 45.031 237.125C45.6714 236.783 46.3844 236.601 47.11 236.593C50.14 236.593 50.69 238.903 50.69 240.553V253.933H48.11V241.753C48.11 240.443 47.59 239.103 45.94 239.103C43.84 239.103 43.43 241.163 43.43 242.233V253.933H40.85V236.863Z" fill="#FCFCFC"/>
<path d="M62.9 252.253H62.87C62.4493 252.882 61.8745 253.392 61.2005 253.735C60.5265 254.078 59.7758 254.243 59.02 254.213C56.3 254.213 55.51 252.153 55.51 249.433C55.51 245.823 56.68 243.793 60.5 243.793C61.3053 243.797 62.1097 243.843 62.91 243.933V241.423C62.9117 241.111 62.8498 240.801 62.728 240.514C62.6062 240.226 62.427 239.966 62.2015 239.75C61.976 239.534 61.7089 239.366 61.4163 239.256C61.1238 239.147 60.812 239.098 60.5 239.113C59.9133 239.089 59.3404 239.295 58.9034 239.688C58.4663 240.08 58.1996 240.627 58.16 241.213H55.68C55.68 238.323 57.88 236.603 60.67 236.603C64.63 236.603 65.49 239.523 65.49 241.733V253.943H62.91V252.253H62.9ZM62.9 245.813C62.3206 245.721 61.7362 245.664 61.15 245.643C59.67 245.643 58.09 246.433 58.09 248.943C58.09 251.353 58.81 252.003 60.29 252.003C61.0314 251.859 61.6992 251.46 62.1777 250.876C62.6561 250.292 62.9152 249.558 62.91 248.803V245.813H62.9Z" fill="#FCFCFC"/>
<path d="M70.61 236.863H73.19V238.553C73.6015 237.956 74.1505 237.466 74.791 237.125C75.4314 236.783 76.1444 236.601 76.87 236.593C79.9 236.593 80.45 238.903 80.45 240.553V253.933H77.87V241.753C77.87 240.443 77.35 239.103 75.7 239.103C73.6 239.103 73.19 241.163 73.19 242.233V253.933H70.61V236.863Z" fill="#FCFCFC"/>
<path d="M92.83 248.703H95.41V249.393C95.3597 250.695 94.8025 251.925 93.8575 252.822C92.9124 253.719 91.6542 254.21 90.3517 254.192C89.0491 254.174 87.8053 253.647 86.8857 252.724C85.9662 251.801 85.4437 250.556 85.43 249.253V241.513C85.3988 240.853 85.5071 240.193 85.7478 239.578C85.9885 238.962 86.3562 238.404 86.827 237.94C87.2978 237.475 87.861 237.116 88.4801 236.884C89.0991 236.652 89.7601 236.553 90.42 236.593C91.0698 236.545 91.7226 236.634 92.3359 236.854C92.9491 237.074 93.5093 237.421 93.9798 237.872C94.4504 238.322 94.8209 238.867 95.0673 239.47C95.3137 240.074 95.4304 240.722 95.41 241.373V242.133H92.83V241.893C92.83 239.963 91.73 239.103 90.42 239.103C89.08 239.103 88.01 239.963 88.01 241.893V248.913C88.01 250.733 88.84 251.703 90.42 251.703C91.93 251.703 92.83 250.773 92.83 248.913V248.703Z" fill="#FCFCFC"/>
<path d="M106.67 249.153H109.25V249.393C109.25 251.083 108.46 254.213 104.5 254.213C103.836 254.255 103.171 254.156 102.549 253.922C101.926 253.688 101.361 253.325 100.889 252.856C100.417 252.387 100.05 251.824 99.8127 251.203C99.575 250.581 99.4719 249.917 99.51 249.253V241.343C99.4841 240.706 99.5915 240.071 99.8255 239.479C100.06 238.886 100.415 238.349 100.869 237.901C101.323 237.454 101.865 237.107 102.461 236.881C103.057 236.656 103.694 236.558 104.33 236.593C104.984 236.566 105.637 236.672 106.248 236.907C106.86 237.142 107.416 237.499 107.884 237.957C108.352 238.416 108.72 238.965 108.967 239.572C109.214 240.178 109.334 240.829 109.32 241.483V246.373H102.09V249.093C102.09 250.913 102.92 251.713 104.5 251.713C106.01 251.713 106.67 250.783 106.67 249.373V249.153ZM106.73 244.443V241.523C106.764 241.207 106.728 240.887 106.626 240.586C106.523 240.285 106.356 240.01 106.136 239.781C105.916 239.551 105.648 239.372 105.352 239.257C105.055 239.142 104.737 239.093 104.42 239.113C104.093 239.107 103.768 239.17 103.467 239.299C103.166 239.428 102.896 239.619 102.675 239.861C102.454 240.102 102.286 240.387 102.184 240.698C102.081 241.009 102.046 241.338 102.08 241.663V244.453H106.73V244.443Z" fill="#FCFCFC"/>
<path d="M116.75 230.333V232.843H114.17V230.333H116.75ZM114.17 236.863H116.75V253.933H114.17V236.863Z" fill="#FCFCFC"/>
<path d="M124.45 236.863V239.543C126.27 237.063 127.86 236.623 129.2 236.583V239.473H128.72C126.83 239.473 124.45 240.233 124.45 243.983V253.923H121.87V236.853H124.45V236.863Z" fill="#FCFCFC"/>
<path d="M139.21 252.253H139.18C138.759 252.882 138.185 253.392 137.51 253.735C136.836 254.078 136.086 254.243 135.33 254.213C132.61 254.213 131.82 252.153 131.82 249.433C131.82 245.823 132.99 243.793 136.81 243.793C137.615 243.797 138.42 243.843 139.22 243.933V241.423C139.222 241.111 139.16 240.801 139.038 240.514C138.916 240.226 138.737 239.966 138.512 239.75C138.286 239.534 138.019 239.366 137.726 239.256C137.434 239.147 137.122 239.098 136.81 239.113C136.223 239.089 135.65 239.295 135.213 239.688C134.776 240.08 134.51 240.627 134.47 241.213H131.99C131.99 238.323 134.19 236.603 136.98 236.603C140.94 236.603 141.8 239.523 141.8 241.733V253.943H139.22V252.253H139.21ZM139.21 245.813C138.631 245.721 138.046 245.664 137.46 245.643C135.98 245.643 134.4 246.433 134.4 248.943C134.4 251.353 135.12 252.003 136.6 252.003C137.341 251.859 138.009 251.46 138.488 250.876C138.966 250.292 139.225 249.558 139.22 248.803V245.813H139.21Z" fill="#FCFCFC"/>
<path d="M149.81 251.013V253.933H146.85V251.013H149.81Z" fill="#FCFCFC"/>
</svg>
