<svg width="181" height="126" viewBox="0 0 181 126" fill="none" xmlns="http://www.w3.org/2000/svg">
<path d="M8.06992 6.00294C8.1036 5.64295 8.06071 5.27997 7.94407 4.93775C7.82742 4.59553 7.63969 4.28181 7.39316 4.01734C7.14664 3.75287 6.84696 3.54369 6.51377 3.40333C6.18057 3.26296 5.82139 3.19478 5.45994 3.20313C2.93994 3.20313 2.71995 5.37301 2.71995 6.58301V18.593C2.68565 18.9556 2.72651 19.3214 2.83982 19.6675C2.95313 20.0136 3.13644 20.3326 3.37851 20.6047C3.62059 20.8768 3.91622 21.0962 4.2468 21.249C4.57738 21.4019 4.93592 21.4848 5.30002 21.4929C6.54002 21.4929 8.06992 20.9531 8.06992 18.3731V17.6731H10.49V18.5029C10.49 21.6929 9.01993 23.823 5.19993 23.823C0.739926 23.823 0.319921 20.1931 0.319921 18.9131V5.72291C0.301812 5.06868 0.420087 4.41785 0.667089 3.81177C0.914091 3.2057 1.28449 2.65784 1.75474 2.20264C2.22498 1.74744 2.78475 1.3949 3.39853 1.16773C4.01232 0.940563 4.66663 0.843693 5.31992 0.883062C8.08992 0.883062 10.39 2.22295 10.39 5.76295V7.19312H8.06003V6.00294H8.06992Z" fill="white"/>
<path d="M13.39 11.8931C13.421 10.7068 13.9131 9.57924 14.7617 8.74978C15.6104 7.92032 16.7488 7.45412 17.9354 7.45022C19.1221 7.44632 20.2636 7.90492 21.1177 8.72878C21.9718 9.55265 22.4712 10.677 22.51 11.8631V19.2229C22.51 20.4323 22.0296 21.5924 21.1744 22.4475C20.3193 23.3027 19.1593 23.783 17.95 23.783C16.7406 23.783 15.5808 23.3027 14.7256 22.4475C13.8704 21.5924 13.39 20.4323 13.39 19.2229V11.8931ZM20.11 12.343C20.11 10.593 19.1199 9.76296 17.9399 9.76296C16.7599 9.76296 15.77 10.593 15.77 12.343V18.843C15.77 20.503 16.5299 21.4231 17.9399 21.4231C19.2799 21.4231 20.11 20.563 20.11 18.843V12.343Z" fill="white"/>
<path d="M28.71 7.69301V9.25282C29.0832 8.69777 29.586 8.24205 30.1749 7.92494C30.7638 7.60783 31.4211 7.43905 32.09 7.433C32.7326 7.38841 33.3738 7.53811 33.9302 7.86268C34.4866 8.18725 34.9325 8.67151 35.21 9.25282C35.5781 8.67891 36.0882 8.20986 36.6909 7.891C37.2936 7.57214 37.9684 7.41446 38.65 7.433C40.85 7.433 41.9 8.93298 41.9 11.163V23.4928H39.51V12.2128C39.51 10.8428 38.94 9.76283 37.5 9.76283C36 9.76283 35.3 11.133 35.3 12.663V23.4928H32.91V12.2128C32.91 11.2228 32.5301 9.76283 30.9301 9.76283C29.4001 9.76283 28.7 11.193 28.7 12.663V23.4928H26.3101V7.69301H28.71Z" fill="white"/>
<path d="M45.72 11.8931C45.751 10.7068 46.243 9.57924 47.0917 8.74978C47.9403 7.92032 49.0787 7.45412 50.2654 7.45022C51.452 7.44632 52.5936 7.90492 53.4476 8.72878C54.3017 9.55265 54.8011 10.677 54.84 11.8631V19.2229C54.84 20.4323 54.3596 21.5924 53.5044 22.4475C52.6492 23.3027 51.4894 23.783 50.28 23.783C49.0706 23.783 47.9107 23.3027 47.0555 22.4475C46.2004 21.5924 45.72 20.4323 45.72 19.2229V11.8931ZM52.45 12.343C52.45 10.593 51.46 9.76296 50.28 9.76296C49.1 9.76296 48.11 10.593 48.11 12.343V18.843C48.11 20.503 48.87 21.4231 50.28 21.4231C51.62 21.4231 52.45 20.563 52.45 18.843V12.343Z" fill="white"/>
<path d="M75.1899 23.4929H72.8V21.9331C72.4183 22.4867 71.9094 22.9407 71.3162 23.2573C70.7229 23.574 70.0624 23.7439 69.39 23.7529C66.59 23.7529 66.08 21.623 66.08 20.093V11.113C66.08 9.58304 66.59 7.45312 69.39 7.45312C70.0624 7.46217 70.7229 7.63209 71.3162 7.94873C71.9094 8.26537 72.4183 8.71935 72.8 9.27295V1.21289H75.1899V23.4929ZM72.8 18.5229V12.6631C72.8 11.6731 72.42 9.76294 70.47 9.76294C68.94 9.76294 68.46 11.0029 68.46 12.2129V18.9629C68.46 20.1729 68.94 21.4131 70.47 21.4131C72.42 21.4231 72.8 19.5129 72.8 18.5229Z" fill="white"/>
<path d="M81.53 7.69312V10.1831C83.22 7.89311 84.6801 7.47312 85.9301 7.44312V10.123H85.48C83.73 10.123 81.53 10.823 81.53 14.293V23.5029H79.14V7.70312H81.53V7.69312Z" fill="white"/>
<path d="M90.8 1.64307V3.9729H88.41V1.64307H90.8ZM88.41 7.69312H90.8V23.4929H88.41V7.69312Z" fill="white"/>
<path d="M94.75 1.19312H97.14V9.25293C97.5218 8.69933 98.0306 8.24535 98.6239 7.92871C99.2172 7.61207 99.8776 7.44215 100.55 7.43311C103.35 7.43311 103.86 9.56302 103.86 11.093V20.073C103.86 21.603 103.35 23.7329 100.55 23.7329C99.8776 23.7239 99.2172 23.5539 98.6239 23.2373C98.0306 22.9207 97.5218 22.4667 97.14 21.9131V23.4729H94.75V1.19312ZM101.47 18.9729V12.2229C101.47 11.0129 100.99 9.77295 99.46 9.77295C97.52 9.77295 97.13 11.6831 97.13 12.6731V18.533C97.13 19.523 97.51 21.4331 99.46 21.4331C100.99 21.4231 101.47 20.1829 101.47 18.9729Z" fill="white"/>
<path d="M110.2 1.19312V19.543C110.181 19.7775 110.214 20.0133 110.295 20.2341C110.376 20.4549 110.505 20.6556 110.671 20.822C110.838 20.9884 111.038 21.1167 111.259 21.198C111.48 21.2793 111.715 21.3117 111.95 21.293H112.3V23.4929H111.57C109.15 23.4929 107.81 22.0629 107.81 19.9929V1.19312H110.2Z" fill="white"/>
<path d="M121.6 21.9331H121.57C121.179 22.5156 120.646 22.9886 120.022 23.3071C119.397 23.6257 118.701 23.779 118 23.7529C115.48 23.7529 114.75 21.843 114.75 19.323C114.75 15.973 115.83 14.093 119.37 14.093C120.115 14.0965 120.859 14.1398 121.6 14.2229V11.8931C121.601 11.6045 121.543 11.3187 121.43 11.0532C121.317 10.7877 121.151 10.5479 120.943 10.3486C120.734 10.1493 120.487 9.99475 120.217 9.89404C119.946 9.79334 119.658 9.74868 119.37 9.76294C118.827 9.74 118.296 9.92993 117.891 10.2922C117.486 10.6545 117.238 11.1608 117.2 11.7031H114.91C114.91 9.02312 116.95 7.43311 119.53 7.43311C123.19 7.43311 123.99 10.1431 123.99 12.1831V23.4929H121.6V21.9331ZM121.6 15.9729C121.064 15.8836 120.523 15.8302 119.98 15.813C118.61 15.813 117.14 16.543 117.14 18.873C117.14 21.103 117.81 21.7129 119.18 21.7129C119.865 21.578 120.481 21.2087 120.923 20.6685C121.364 20.1282 121.604 19.4508 121.6 18.7529V15.9729Z" fill="white"/>
<path d="M130.33 7.69312V10.1831C132.02 7.89311 133.48 7.47312 134.73 7.44312V10.123H134.28C132.53 10.123 130.33 10.823 130.33 14.293V23.5029H127.94V7.70312H130.33V7.69312Z" fill="white"/>
<path d="M0.170044 43.753C0.201059 42.5667 0.692989 41.4394 1.54163 40.6099C2.39026 39.7804 3.52879 39.3142 4.71545 39.3103C5.90212 39.3064 7.04363 39.765 7.89771 40.5889C8.75178 41.4128 9.25122 42.5369 9.29004 43.7229V51.083C9.29004 52.2924 8.80963 53.4522 7.95447 54.3074C7.0993 55.1626 5.93937 55.6431 4.72998 55.6431C3.52059 55.6431 2.36078 55.1626 1.50562 54.3074C0.650449 53.4522 0.170044 52.2924 0.170044 51.083V43.753ZM6.89001 44.2031C6.89001 42.4531 5.89997 41.6231 4.71997 41.6231C3.53997 41.6231 2.55005 42.4531 2.55005 44.2031V50.7031C2.55005 52.3631 3.30997 53.283 4.71997 53.283C6.05997 53.283 6.89001 52.4232 6.89001 50.7031V44.2031Z" fill="white"/>
<path d="M19.1899 43.7229C19.0299 41.9429 18.0401 41.553 17.0601 41.553C16.782 41.508 16.4972 41.5298 16.2291 41.6165C15.9611 41.7031 15.7175 41.8521 15.5183 42.0513C15.3191 42.2504 15.17 42.4942 15.0834 42.7622C14.9967 43.0302 14.9751 43.3149 15.02 43.593C15.02 44.833 15.88 45.343 16.9 45.823L18.88 46.783C19.841 47.2187 20.6238 47.9706 21.0978 48.9133C21.5718 49.856 21.7086 50.9326 21.4852 51.9639C21.2619 52.9951 20.6919 53.9189 19.8704 54.5811C19.0488 55.2432 18.0252 55.6039 16.97 55.603C13.43 55.603 12.41 53.273 12.35 51.083H14.77C14.9 52.773 15.66 53.373 16.9 53.373C17.2108 53.416 17.5273 53.3863 17.8247 53.2864C18.1221 53.1865 18.3924 53.0192 18.6143 52.7974C18.8361 52.5755 19.0035 52.3052 19.1034 52.0078C19.2033 51.7104 19.2329 51.3938 19.1899 51.083C19.1899 49.903 18.8101 49.3029 17.1801 48.5029L15.24 47.543C14.4002 47.2414 13.6863 46.6662 13.2129 45.9099C12.7395 45.1536 12.5342 44.2601 12.63 43.373C12.63 41.243 14.0299 39.293 17.1899 39.293C20.6599 39.293 21.52 41.7429 21.59 43.7229H19.1899Z" fill="white"/>
<path d="M38.8399 50.9232H41.23V51.1431C41.2753 51.7353 41.1932 52.3301 40.989 52.8878C40.7848 53.4454 40.4632 53.9528 40.0461 54.3756C39.629 54.7983 39.1261 55.1267 38.5713 55.3384C38.0164 55.5502 37.4226 55.6404 36.8299 55.6031C36.2158 55.6415 35.6005 55.5493 35.0246 55.3326C34.4487 55.1159 33.9253 54.7797 33.4887 54.346C33.0522 53.9123 32.7126 53.3912 32.4922 52.8167C32.2717 52.2422 32.1755 51.6274 32.2099 51.013V43.6832C32.1861 43.0938 32.2857 42.506 32.5022 41.9573C32.7187 41.4087 33.0474 40.9114 33.4673 40.4971C33.8871 40.0829 34.3889 39.7609 34.9404 39.5518C35.4919 39.3428 36.0811 39.2512 36.67 39.283C37.2753 39.2566 37.8794 39.3549 38.4453 39.5714C39.0111 39.7878 39.5266 40.1181 39.9597 40.5418C40.3928 40.9655 40.7342 41.4735 40.963 42.0345C41.1918 42.5955 41.3032 43.1973 41.29 43.803V48.3231H34.6V50.8431C34.6 52.5331 35.3599 53.263 36.8299 53.263C38.2299 53.263 38.8399 52.4031 38.8399 51.0931V50.9232ZM38.91 46.553V43.8431C38.9418 43.5511 38.9093 43.2555 38.8149 42.9774C38.7205 42.6992 38.5665 42.4451 38.3636 42.2327C38.1607 42.0203 37.9139 41.8546 37.6404 41.7476C37.3668 41.6406 37.0732 41.5948 36.78 41.6131C36.4769 41.6069 36.1758 41.6652 35.8969 41.7842C35.6181 41.9033 35.3678 42.0803 35.1626 42.3035C34.9573 42.5267 34.8019 42.7911 34.7066 43.0789C34.6114 43.3668 34.5784 43.6714 34.61 43.973V46.553H38.91Z" fill="white"/>
<path d="M47.38 39.553V42.033C49.07 39.743 50.53 39.323 51.78 39.293V41.9729H51.33C49.58 41.9729 47.38 42.6731 47.38 46.1431V55.353H44.99V39.553H47.38Z" fill="white"/>
<path d="M56.65 39.553V42.033C58.34 39.743 59.8 39.323 61.05 39.293V41.9729H60.6C58.85 41.9729 56.65 42.6731 56.65 46.1431V55.353H54.26V39.553H56.65Z" fill="white"/>
<path d="M63.08 43.753C63.111 42.5667 63.603 41.4394 64.4517 40.6099C65.3003 39.7804 66.4388 39.3142 67.6255 39.3103C68.8122 39.3064 69.9535 39.765 70.8076 40.5889C71.6617 41.4128 72.1611 42.5369 72.2 43.7229V51.083C72.2 52.2924 71.7195 53.4522 70.8644 54.3074C70.0092 55.1626 68.8494 55.6431 67.64 55.6431C66.4306 55.6431 65.2708 55.1626 64.4156 54.3074C63.5605 53.4522 63.08 52.2924 63.08 51.083V43.753ZM69.8101 44.2031C69.8101 42.4531 68.82 41.6231 67.64 41.6231C66.46 41.6231 65.47 42.4531 65.47 44.2031V50.7031C65.47 52.3631 66.23 53.283 67.64 53.283C68.98 53.283 69.8101 52.4232 69.8101 50.7031V44.2031Z" fill="white"/>
<path d="M82.1 43.7229C81.94 41.9429 80.95 41.553 79.97 41.553C79.6919 41.508 79.4072 41.5298 79.1392 41.6165C78.8711 41.7031 78.6274 41.8521 78.4282 42.0513C78.229 42.2504 78.08 42.4942 77.9934 42.7622C77.9068 43.0302 77.8851 43.3149 77.9301 43.593C77.9301 44.833 78.7901 45.343 79.8101 45.823L81.79 46.783C82.751 47.2187 83.5337 47.9706 84.0077 48.9133C84.4817 49.856 84.6185 50.9326 84.3951 51.9639C84.1718 52.9951 83.602 53.9189 82.7804 54.5811C81.9588 55.2432 80.9352 55.6039 79.88 55.603C76.34 55.603 75.32 53.273 75.26 51.083H77.6801C77.8101 52.773 78.5701 53.373 79.8101 53.373C80.1209 53.416 80.4373 53.3863 80.7347 53.2864C81.0322 53.1865 81.3024 53.0192 81.5243 52.7974C81.7461 52.5755 81.9135 52.3052 82.0134 52.0078C82.1133 51.7104 82.1429 51.3938 82.1 51.083C82.1 49.903 81.72 49.3029 80.09 48.5029L78.15 47.543C77.3103 47.2414 76.5963 46.6662 76.1229 45.9099C75.6495 45.1536 75.4442 44.2601 75.54 43.373C75.54 41.243 76.94 39.293 80.1 39.293C83.57 39.293 84.43 41.7429 84.5 43.7229H82.1Z" fill="white"/>
<path d="M97.65 39.5529V41.1129C98.0232 40.5579 98.5261 40.1022 99.115 39.785C99.7039 39.4679 100.361 39.2989 101.03 39.2929C101.673 39.2483 102.314 39.398 102.87 39.7225C103.427 40.0471 103.873 40.5316 104.15 41.1129C104.518 40.539 105.028 40.07 105.631 39.7511C106.234 39.4323 106.908 39.2743 107.59 39.2929C109.79 39.2929 110.84 40.7928 110.84 43.0228V55.3529H108.45V44.0729C108.45 42.7029 107.88 41.6229 106.44 41.6229C104.94 41.6229 104.24 42.9928 104.24 44.5228V55.3529H101.85V44.0729C101.85 43.0829 101.47 41.6229 99.87 41.6229C98.34 41.6229 97.64 43.0528 97.64 44.5228V55.3529H95.25V39.5529H97.65Z" fill="white"/>
<path d="M121.35 53.793H121.32C120.929 54.3755 120.396 54.8485 119.772 55.167C119.147 55.4855 118.451 55.6391 117.75 55.613C115.23 55.613 114.5 53.7031 114.5 51.1831C114.5 47.8331 115.58 45.9531 119.12 45.9531C119.865 45.9566 120.609 45.9999 121.35 46.083V43.7529C121.351 43.4644 121.293 43.1788 121.18 42.9133C121.067 42.6478 120.901 42.408 120.693 42.2087C120.484 42.0094 120.237 41.8549 119.967 41.7542C119.696 41.6534 119.408 41.6088 119.12 41.623C118.577 41.6001 118.046 41.79 117.641 42.1523C117.236 42.5147 116.988 43.0207 116.95 43.563H114.66C114.66 40.883 116.7 39.293 119.28 39.293C122.94 39.293 123.74 42.003 123.74 44.043V55.353H121.35V53.793ZM121.35 47.833C120.814 47.7437 120.273 47.6903 119.73 47.6731C118.36 47.6731 116.89 48.4029 116.89 50.7329C116.89 52.9629 117.56 53.573 118.93 53.573C119.615 53.4381 120.231 53.0688 120.673 52.5286C121.114 51.9883 121.354 51.3109 121.35 50.613V47.833Z" fill="white"/>
<path d="M130.08 33.4929V35.823H127.69V33.4929H130.08ZM127.69 39.553H130.08V55.353H127.69V39.553Z" fill="white"/>
<path d="M140.11 43.7229C139.95 41.9429 138.96 41.553 137.98 41.553C137.702 41.508 137.417 41.5298 137.149 41.6165C136.881 41.7031 136.637 41.8521 136.438 42.0513C136.239 42.2504 136.09 42.4942 136.003 42.7622C135.917 43.0302 135.895 43.3149 135.94 43.593C135.94 44.833 136.8 45.343 137.82 45.823L139.8 46.783C140.761 47.2187 141.544 47.9706 142.018 48.9133C142.492 49.856 142.628 50.9326 142.405 51.9639C142.182 52.9951 141.612 53.9189 140.79 54.5811C139.969 55.2432 138.945 55.6039 137.89 55.603C134.35 55.603 133.33 53.273 133.27 51.083H135.69C135.82 52.773 136.58 53.373 137.82 53.373C138.131 53.416 138.447 53.3863 138.745 53.2864C139.042 53.1865 139.312 53.0192 139.534 52.7974C139.756 52.5755 139.924 52.3052 140.023 52.0078C140.123 51.7104 140.153 51.3938 140.11 51.083C140.11 49.903 139.73 49.3029 138.1 48.5029L136.16 47.543C135.32 47.2414 134.606 46.6662 134.133 45.9099C133.66 45.1536 133.454 44.2601 133.55 43.373C133.55 41.243 134.95 39.293 138.11 39.293C141.58 39.293 142.44 41.7429 142.51 43.7229H140.11Z" fill="white"/>
<path d="M7.02005 82.3629H9.41007V83.0028C9.37441 84.2156 8.86322 85.3659 7.98685 86.205C7.11048 87.0441 5.93916 87.5048 4.72599 87.4877C3.51281 87.4706 2.35502 86.9771 1.5026 86.1137C0.650178 85.2503 0.171605 84.0862 0.170077 82.8729V75.703C0.141012 75.0914 0.241068 74.4802 0.463779 73.9098C0.686489 73.3394 1.02685 72.8224 1.46268 72.3922C1.89851 71.9621 2.42003 71.6285 2.99332 71.4132C3.56661 71.198 4.17883 71.1059 4.79007 71.143C5.39219 71.0977 5.99704 71.1797 6.56534 71.3837C7.13364 71.5877 7.65258 71.9091 8.08841 72.327C8.52424 72.745 8.86718 73.25 9.09488 73.8092C9.32259 74.3685 9.43002 74.9694 9.41007 75.5729V76.2729H7.02005V76.0529C7.02005 74.2729 6.00007 73.4728 4.79007 73.4728C3.55007 73.4728 2.56009 74.2729 2.56009 76.0529V82.5529C2.56009 84.2429 3.32007 85.133 4.79007 85.133C6.19007 85.133 7.02005 84.2729 7.02005 82.5529V82.3629Z" fill="white"/>
<path d="M12.4 75.6131C12.431 74.4268 12.9231 73.2992 13.7717 72.4698C14.6204 71.6403 15.7588 71.1741 16.9454 71.1702C18.1321 71.1663 19.2736 71.6251 20.1277 72.449C20.9818 73.2729 21.4812 74.397 21.52 75.583V82.9431C21.52 84.1525 21.0396 85.3123 20.1844 86.1675C19.3293 87.0227 18.1693 87.503 16.96 87.503C15.7506 87.503 14.5908 87.0227 13.7356 86.1675C12.8804 85.3123 12.4 84.1525 12.4 82.9431V75.6131ZM19.13 76.053C19.13 74.303 18.14 73.4729 16.96 73.4729C15.78 73.4729 14.79 74.303 14.79 76.053V82.553C14.79 84.213 15.55 85.1331 16.96 85.1331C18.3 85.1331 19.13 84.273 19.13 82.553V76.053Z" fill="white"/>
<path d="M27.73 71.403V72.9628C28.1032 72.4077 28.606 71.952 29.1949 71.6349C29.7839 71.3178 30.4411 71.149 31.11 71.143C31.7526 71.0984 32.3938 71.2481 32.9502 71.5726C33.5066 71.8972 33.9525 72.3815 34.23 72.9628C34.5981 72.3889 35.1083 71.9198 35.7109 71.601C36.3136 71.2821 36.9885 71.1244 37.67 71.143C39.87 71.143 40.92 72.6429 40.92 74.8729V87.203H38.53V75.923C38.53 74.553 37.96 73.4728 36.52 73.4728C35.02 73.4728 34.3199 74.8429 34.3199 76.3729V87.203H31.9301V75.923C31.9301 74.933 31.55 73.4728 29.95 73.4728C28.42 73.4728 27.72 74.9029 27.72 76.3729V87.203H25.33V71.403H27.73Z" fill="white"/>
<path d="M53.98 87.2031H51.59V85.6431C51.2082 86.1967 50.6995 86.6506 50.1062 86.9673C49.5129 87.2839 48.8525 87.4538 48.1801 87.4629C45.3801 87.4629 44.87 85.333 44.87 83.803V71.4131H47.26V82.6931C47.26 83.9031 47.74 85.1431 49.27 85.1431C51.21 85.1431 51.6 83.2329 51.6 82.2429V71.4131H53.99V87.2031H53.98Z" fill="white"/>
<path d="M57.92 71.4031H60.3101V72.9629C60.6918 72.4093 61.2006 71.9553 61.7938 71.6387C62.3871 71.322 63.0476 71.1521 63.72 71.1431C66.52 71.1431 67.03 73.273 67.03 74.803V87.1931H64.64V75.9131C64.64 74.7031 64.16 73.4629 62.63 73.4629C60.69 73.4629 60.3 75.373 60.3 76.363V87.1931H57.91V71.4031H57.92Z" fill="white"/>
<path d="M77.0699 75.573C76.9099 73.793 75.9199 73.4031 74.9399 73.4031C74.6619 73.3581 74.3772 73.3799 74.1091 73.4666C73.8411 73.5532 73.5975 73.7022 73.3983 73.9014C73.1991 74.1005 73.05 74.344 72.9634 74.6121C72.8768 74.8801 72.8551 75.165 72.9 75.4431C72.9 76.6831 73.76 77.1931 74.78 77.6731L76.76 78.6331C77.721 79.0688 78.5038 79.8207 78.9778 80.7634C79.4518 81.7061 79.5884 82.7827 79.3651 83.814C79.1418 84.8452 78.5719 85.769 77.7504 86.4312C76.9288 87.0933 75.9052 87.454 74.85 87.4531C71.31 87.4531 70.29 85.1231 70.23 82.9331H72.65C72.78 84.6231 73.54 85.2229 74.78 85.2229C75.0908 85.2659 75.4073 85.2364 75.7047 85.1365C76.0021 85.0366 76.2724 84.8691 76.4943 84.6472C76.7161 84.4254 76.8835 84.1551 76.9834 83.8577C77.0833 83.5602 77.1129 83.2439 77.0699 82.9331C77.0699 81.7531 76.6901 81.153 75.0601 80.353L73.12 79.3931C72.2802 79.0915 71.5663 78.5163 71.0929 77.76C70.6195 77.0037 70.4142 76.11 70.51 75.2229C70.51 73.0929 71.9099 71.1431 75.0699 71.1431C78.5399 71.1431 79.4 73.593 79.47 75.573H77.0699Z" fill="white"/>
<path d="M99.34 87.2031H96.95V85.6431C96.5682 86.1967 96.0595 86.6506 95.4662 86.9673C94.8729 87.2839 94.2125 87.4538 93.54 87.4629C90.74 87.4629 90.23 85.333 90.23 83.803V74.823C90.23 73.293 90.74 71.1631 93.54 71.1631C94.2125 71.1721 94.8729 71.3421 95.4662 71.6587C96.0595 71.9753 96.5682 72.4293 96.95 72.9829V64.9231H99.34V87.2031ZM96.95 82.2329V76.373C96.95 75.383 96.57 73.4729 94.62 73.4729C93.09 73.4729 92.61 74.7131 92.61 75.9231V82.6731C92.61 83.8831 93.09 85.123 94.62 85.123C96.57 85.133 96.95 83.2229 96.95 82.2329Z" fill="white"/>
<path d="M103.16 75.6131C103.191 74.4268 103.683 73.2992 104.532 72.4698C105.38 71.6403 106.519 71.1741 107.705 71.1702C108.892 71.1663 110.034 71.6251 110.888 72.449C111.742 73.2729 112.241 74.397 112.28 75.583V82.9431C112.28 84.1525 111.8 85.3123 110.944 86.1675C110.089 87.0227 108.929 87.503 107.72 87.503C106.511 87.503 105.351 87.0227 104.496 86.1675C103.64 85.3123 103.16 84.1525 103.16 82.9431V75.6131ZM109.88 76.053C109.88 74.303 108.89 73.4729 107.71 73.4729C106.53 73.4729 105.54 74.303 105.54 76.053V82.553C105.54 84.213 106.3 85.1331 107.71 85.1331C109.05 85.1331 109.88 84.273 109.88 82.553V76.053Z" fill="white"/>
<path d="M122.18 75.573C122.02 73.793 121.03 73.4031 120.05 73.4031C119.772 73.3581 119.487 73.3799 119.219 73.4666C118.951 73.5532 118.707 73.7022 118.508 73.9014C118.309 74.1005 118.16 74.344 118.073 74.6121C117.987 74.8801 117.965 75.165 118.01 75.4431C118.01 76.6831 118.87 77.1931 119.89 77.6731L121.87 78.6331C122.831 79.0688 123.614 79.8207 124.088 80.7634C124.562 81.7061 124.699 82.7827 124.475 83.814C124.252 84.8452 123.682 85.769 122.86 86.4312C122.039 87.0933 121.015 87.454 119.96 87.4531C116.42 87.4531 115.4 85.1231 115.34 82.9331H117.76C117.89 84.6231 118.65 85.2229 119.89 85.2229C120.201 85.2659 120.517 85.2364 120.815 85.1365C121.112 85.0366 121.382 84.8691 121.604 84.6472C121.826 84.4254 121.994 84.1551 122.094 83.8577C122.193 83.5602 122.223 83.2439 122.18 82.9331C122.18 81.7531 121.8 81.153 120.17 80.353L118.23 79.3931C117.39 79.0915 116.676 78.5163 116.203 77.76C115.729 77.0037 115.524 76.11 115.62 75.2229C115.62 73.0929 117.02 71.1431 120.18 71.1431C123.65 71.1431 124.51 73.593 124.58 75.573H122.18Z" fill="white"/>
<path d="M6.80003 114.633H9.18992V114.853C9.23531 115.445 9.15318 116.04 8.94896 116.598C8.74473 117.155 8.42316 117.663 8.00608 118.086C7.58901 118.508 7.08618 118.837 6.53135 119.048C5.97653 119.26 5.38271 119.35 4.79002 119.313C4.1759 119.351 3.56051 119.259 2.9846 119.043C2.40869 118.826 1.88523 118.49 1.44871 118.056C1.0122 117.622 0.672549 117.101 0.452129 116.527C0.23171 115.952 0.135622 115.337 0.170025 114.723V107.393C0.146186 106.804 0.245631 106.216 0.462139 105.667C0.678647 105.119 1.00736 104.621 1.42723 104.207C1.8471 103.793 2.34886 103.471 2.90037 103.262C3.45188 103.053 4.04104 102.961 4.62999 102.993C5.23526 102.967 5.83953 103.065 6.40538 103.281C6.97122 103.498 7.4866 103.828 7.91966 104.252C8.35272 104.675 8.69425 105.183 8.92308 105.744C9.1519 106.305 9.26314 106.907 9.24998 107.513V112.033H2.56004V114.553C2.56004 116.243 3.32002 116.973 4.79002 116.973C6.19002 116.973 6.80003 116.113 6.80003 114.803V114.633ZM6.85997 110.273V107.563C6.89172 107.271 6.85925 106.975 6.76487 106.697C6.6705 106.419 6.51647 106.165 6.31358 105.953C6.11069 105.74 5.86386 105.575 5.59031 105.468C5.31676 105.361 5.02313 105.315 4.72996 105.333C4.42682 105.327 4.12589 105.385 3.84703 105.504C3.56817 105.623 3.31775 105.8 3.11253 106.024C2.90731 106.247 2.75199 106.511 2.65672 106.799C2.56145 107.087 2.52849 107.392 2.56004 107.693V110.273H6.85997Z" fill="white"/>
<path d="M15.33 103.263V104.823C15.7032 104.268 16.206 103.812 16.7949 103.495C17.3838 103.178 18.0411 103.009 18.71 103.003C19.3526 102.958 19.9938 103.108 20.5502 103.433C21.1066 103.757 21.5525 104.242 21.83 104.823C22.1981 104.249 22.7082 103.78 23.3109 103.461C23.9136 103.142 24.5884 102.984 25.27 103.003C27.47 103.003 28.52 104.503 28.52 106.733V119.063H26.13V107.783C26.13 106.413 25.56 105.333 24.12 105.333C22.62 105.333 21.92 106.703 21.92 108.233V119.063H19.53V107.783C19.53 106.793 19.15 105.333 17.55 105.333C16.02 105.333 15.3199 106.763 15.3199 108.233V119.063H12.9301V103.263H15.33Z" fill="white"/>
<path d="M32.47 103.263H34.86V104.823C35.2418 104.269 35.7506 103.815 36.3439 103.499C36.9371 103.182 37.5976 103.012 38.27 103.003C41.07 103.003 41.58 105.133 41.58 106.663V115.643C41.58 117.173 41.07 119.303 38.27 119.303C37.5976 119.294 36.9371 119.124 36.3439 118.807C35.7506 118.491 35.2418 118.037 34.86 117.483V125.543H32.47V103.263ZM39.2 114.543V107.793C39.2 106.583 38.7199 105.343 37.1899 105.343C35.2499 105.343 34.86 107.253 34.86 108.243V114.103C34.86 115.093 35.2399 117.003 37.1899 117.003C38.7199 116.993 39.2 115.753 39.2 114.543Z" fill="white"/>
<path d="M47.92 103.263V105.743C49.61 103.453 51.0699 103.033 52.3199 103.003V105.683H51.87C50.12 105.683 47.92 106.383 47.92 109.853V119.063H45.53V103.263H47.92Z" fill="white"/>
<path d="M60.98 114.633H63.37V114.853C63.4154 115.445 63.3331 116.04 63.1289 116.598C62.9247 117.155 62.6032 117.663 62.1861 118.086C61.7691 118.508 61.2661 118.837 60.7113 119.048C60.1565 119.26 59.5626 119.35 58.9699 119.313C58.3558 119.351 57.7406 119.259 57.1646 119.043C56.5887 118.826 56.0653 118.49 55.6288 118.056C55.1922 117.622 54.8526 117.101 54.6322 116.527C54.4118 115.952 54.3155 115.337 54.35 114.723V107.393C54.3261 106.804 54.4257 106.216 54.6422 105.667C54.8587 105.119 55.1874 104.621 55.6073 104.207C56.0271 103.793 56.5289 103.471 57.0804 103.262C57.6319 103.053 58.2211 102.961 58.81 102.993C59.4153 102.967 60.0195 103.065 60.5853 103.281C61.1511 103.498 61.6666 103.828 62.0997 104.252C62.5328 104.675 62.8742 105.183 63.103 105.744C63.3318 106.305 63.4432 106.907 63.43 107.513V112.033H56.74V114.553C56.74 116.243 57.4999 116.973 58.9699 116.973C60.3699 116.973 60.98 116.113 60.98 114.803V114.633ZM61.05 110.273V107.563C61.0818 107.271 61.0493 106.975 60.9549 106.697C60.8606 106.419 60.7065 106.165 60.5036 105.953C60.3007 105.74 60.0539 105.575 59.7804 105.468C59.5068 105.361 59.2132 105.315 58.92 105.333C58.6169 105.327 58.3158 105.385 58.037 105.504C57.7581 105.623 57.5078 105.8 57.3026 106.024C57.0974 106.247 56.9419 106.511 56.8467 106.799C56.7514 107.087 56.7184 107.392 56.75 107.693V110.273H61.05Z" fill="white"/>
<path d="M73.63 114.633H76.02V114.853C76.0654 115.445 75.9831 116.04 75.7789 116.598C75.5747 117.155 75.2532 117.663 74.8362 118.086C74.4191 118.508 73.9161 118.837 73.3613 119.048C72.8065 119.26 72.2127 119.35 71.62 119.313C71.0058 119.351 70.3906 119.259 69.8147 119.043C69.2388 118.826 68.7153 118.49 68.2788 118.056C67.8423 117.622 67.5026 117.101 67.2822 116.527C67.0618 115.952 66.9656 115.337 67 114.723V107.393C66.9761 106.804 67.0757 106.216 67.2922 105.667C67.5087 105.119 67.8374 104.621 68.2573 104.207C68.6772 103.793 69.1789 103.471 69.7304 103.262C70.282 103.053 70.871 102.961 71.4599 102.993C72.0652 102.967 72.6695 103.065 73.2353 103.281C73.8012 103.498 74.3165 103.828 74.7496 104.252C75.1827 104.675 75.5242 105.183 75.753 105.744C75.9819 106.305 76.0931 106.907 76.0799 107.513V112.033H69.39V114.553C69.39 116.243 70.15 116.973 71.62 116.973C73.02 116.973 73.63 116.113 73.63 114.803V114.633ZM73.6899 110.273V107.563C73.7217 107.271 73.6893 106.975 73.5949 106.697C73.5006 106.419 73.3465 106.165 73.1437 105.953C72.9408 105.74 72.6939 105.575 72.4204 105.468C72.1468 105.361 71.8532 105.315 71.56 105.333C71.2569 105.327 70.9558 105.385 70.677 105.504C70.3981 105.623 70.1478 105.8 69.9426 106.024C69.7374 106.247 69.5819 106.511 69.4867 106.799C69.3914 107.087 69.3584 107.392 69.39 107.693V110.273H73.6899Z" fill="white"/>
<path d="M79.78 103.263H82.17V104.823C82.5518 104.269 83.0605 103.815 83.6538 103.499C84.2471 103.182 84.9075 103.012 85.58 103.003C88.38 103.003 88.89 105.133 88.89 106.663V119.053H86.5V107.773C86.5 106.563 86.02 105.323 84.49 105.323C82.55 105.323 82.16 107.233 82.16 108.223V119.053H79.77V103.263H79.78Z" fill="white"/>
<path d="M101.95 119.063H99.5601V117.503C99.1783 118.057 98.6694 118.511 98.0762 118.827C97.4829 119.144 96.8224 119.314 96.15 119.323C93.35 119.323 92.84 117.193 92.84 115.663V106.683C92.84 105.153 93.35 103.023 96.15 103.023C96.8224 103.032 97.4829 103.202 98.0762 103.519C98.6694 103.835 99.1783 104.289 99.5601 104.843V96.783H101.95V119.063ZM99.5601 114.093V108.233C99.5601 107.243 99.18 105.333 97.23 105.333C95.7 105.333 95.22 106.573 95.22 107.783V114.533C95.22 115.743 95.7 116.983 97.23 116.983C99.18 116.993 99.5601 115.083 99.5601 114.093Z" fill="white"/>
<path d="M112.4 114.633H114.79V114.853C114.835 115.445 114.753 116.04 114.549 116.598C114.345 117.155 114.023 117.663 113.606 118.086C113.189 118.508 112.686 118.837 112.131 119.048C111.576 119.26 110.983 119.35 110.39 119.313C109.776 119.351 109.161 119.259 108.585 119.043C108.009 118.826 107.485 118.49 107.049 118.056C106.612 117.622 106.273 117.101 106.052 116.527C105.832 115.952 105.736 115.337 105.77 114.723V107.393C105.746 106.804 105.846 106.216 106.062 105.667C106.279 105.119 106.607 104.621 107.027 104.207C107.447 103.793 107.949 103.471 108.5 103.262C109.052 103.053 109.641 102.961 110.23 102.993C110.835 102.967 111.44 103.065 112.005 103.281C112.571 103.498 113.087 103.828 113.52 104.252C113.953 104.675 114.294 105.183 114.523 105.744C114.752 106.305 114.863 106.907 114.85 107.513V112.033H108.16V114.553C108.16 116.243 108.92 116.973 110.39 116.973C111.79 116.973 112.4 116.113 112.4 114.803V114.633ZM112.46 110.273V107.563C112.492 107.271 112.459 106.975 112.365 106.697C112.271 106.419 112.117 106.165 111.914 105.953C111.711 105.74 111.464 105.575 111.19 105.468C110.917 105.361 110.623 105.315 110.33 105.333C110.027 105.327 109.726 105.385 109.447 105.504C109.168 105.623 108.918 105.8 108.712 106.024C108.507 106.247 108.352 106.511 108.257 106.799C108.161 107.087 108.128 107.392 108.16 107.693V110.273H112.46Z" fill="white"/>
<path d="M127.66 119.063H125.27V117.503C124.888 118.057 124.379 118.511 123.786 118.827C123.193 119.144 122.532 119.314 121.86 119.323C119.06 119.323 118.55 117.193 118.55 115.663V106.683C118.55 105.153 119.06 103.023 121.86 103.023C122.532 103.032 123.193 103.202 123.786 103.519C124.379 103.835 124.888 104.289 125.27 104.843V96.783H127.66V119.063ZM125.27 114.093V108.233C125.27 107.243 124.89 105.333 122.94 105.333C121.41 105.333 120.93 106.573 120.93 107.783V114.533C120.93 115.743 121.41 116.983 122.94 116.983C124.88 116.993 125.27 115.083 125.27 114.093Z" fill="white"/>
<path d="M131.48 107.463C131.511 106.277 132.003 105.149 132.852 104.32C133.7 103.49 134.839 103.024 136.025 103.02C137.212 103.016 138.354 103.475 139.208 104.299C140.062 105.123 140.561 106.247 140.6 107.433V114.793C140.6 116.002 140.12 117.162 139.264 118.017C138.409 118.873 137.249 119.353 136.04 119.353C134.831 119.353 133.671 118.873 132.816 118.017C131.96 117.162 131.48 116.002 131.48 114.793V107.463ZM138.2 107.913C138.2 106.163 137.21 105.333 136.03 105.333C134.85 105.333 133.86 106.163 133.86 107.913V114.413C133.86 116.073 134.62 116.993 136.03 116.993C137.37 116.993 138.2 116.133 138.2 114.413V107.913Z" fill="white"/>
<path d="M146.8 103.263V105.743C148.49 103.453 149.95 103.033 151.2 103.003V105.683H150.75C149 105.683 146.8 106.383 146.8 109.853V119.063H144.41V103.263H146.8Z" fill="white"/>
<path d="M159.86 114.633H162.25V114.853C162.295 115.445 162.213 116.04 162.009 116.598C161.805 117.155 161.483 117.663 161.066 118.086C160.649 118.508 160.146 118.837 159.591 119.048C159.036 119.26 158.443 119.35 157.85 119.313C157.236 119.351 156.621 119.259 156.045 119.043C155.469 118.826 154.945 118.49 154.509 118.056C154.072 117.622 153.733 117.101 153.512 116.527C153.292 115.952 153.196 115.337 153.23 114.723V107.393C153.206 106.804 153.306 106.216 153.522 105.667C153.739 105.119 154.067 104.621 154.487 104.207C154.907 103.793 155.409 103.471 155.96 103.262C156.512 103.053 157.101 102.961 157.69 102.993C158.295 102.967 158.899 103.065 159.465 103.281C160.031 103.498 160.547 103.828 160.98 104.252C161.413 104.675 161.754 105.183 161.983 105.744C162.212 106.305 162.323 106.907 162.31 107.513V112.033H155.62V114.553C155.62 116.243 156.38 116.973 157.85 116.973C159.25 116.973 159.86 116.113 159.86 114.803V114.633ZM159.92 110.273V107.563C159.952 107.271 159.919 106.975 159.825 106.697C159.731 106.419 159.577 106.165 159.374 105.953C159.171 105.74 158.924 105.575 158.65 105.468C158.377 105.361 158.083 105.315 157.79 105.333C157.487 105.327 157.186 105.385 156.907 105.504C156.628 105.623 156.378 105.8 156.173 106.024C155.967 106.247 155.812 106.511 155.717 106.799C155.621 107.087 155.588 107.392 155.62 107.693V110.273H159.92Z" fill="white"/>
<path d="M172.09 107.433C171.93 105.653 170.94 105.263 169.96 105.263C169.682 105.218 169.397 105.24 169.129 105.326C168.861 105.413 168.618 105.562 168.418 105.761C168.219 105.96 168.07 106.204 167.983 106.472C167.897 106.74 167.875 107.025 167.92 107.303C167.92 108.543 168.78 109.053 169.8 109.533L171.78 110.493C172.741 110.929 173.524 111.681 173.998 112.623C174.472 113.566 174.608 114.643 174.385 115.674C174.162 116.705 173.592 117.629 172.77 118.291C171.949 118.953 170.925 119.314 169.87 119.313C166.33 119.313 165.31 116.983 165.25 114.793H167.67C167.8 116.483 168.56 117.083 169.8 117.083C170.111 117.126 170.427 117.096 170.725 116.997C171.022 116.897 171.292 116.729 171.514 116.507C171.736 116.285 171.904 116.015 172.003 115.718C172.103 115.42 172.133 115.104 172.09 114.793C172.09 113.613 171.71 113.013 170.08 112.213L168.14 111.253C167.3 110.951 166.586 110.376 166.113 109.62C165.64 108.864 165.434 107.97 165.53 107.083C165.53 104.953 166.93 103.003 170.09 103.003C173.56 103.003 174.42 105.453 174.49 107.433H172.09Z" fill="white"/>
<path d="M180.5 116.353V119.063H177.76V116.353H180.5Z" fill="white"/>
</svg>
