<svg width="196" height="120" viewBox="0 0 196 120" fill="none" xmlns="http://www.w3.org/2000/svg">
<path d="M8.09995 6.00294C8.13363 5.64295 8.09074 5.27997 7.9741 4.93775C7.85745 4.59553 7.66972 4.28181 7.42319 4.01734C7.17667 3.75287 6.87693 3.54369 6.54374 3.40333C6.21054 3.26296 5.85142 3.19478 5.48997 3.20313C2.96997 3.20313 2.74998 5.37301 2.74998 6.58301V18.593C2.71568 18.9556 2.75648 19.3214 2.86979 19.6675C2.9831 20.0136 3.16647 20.3326 3.40854 20.6047C3.65062 20.8768 3.94619 21.0962 4.27677 21.249C4.60735 21.4019 4.96589 21.4848 5.32999 21.4929C6.56999 21.4929 8.09995 20.9531 8.09995 18.3731V17.6731H10.52V18.5029C10.52 21.6929 9.04996 23.823 5.22996 23.823C0.769956 23.823 0.359961 20.1931 0.359961 18.9131V5.72291C0.341852 5.06868 0.460065 4.41785 0.707068 3.81177C0.95407 3.2057 1.32447 2.65784 1.79471 2.20264C2.26496 1.74744 2.82479 1.3949 3.43857 1.16773C4.05236 0.940563 4.70667 0.843693 5.35996 0.883062C8.12996 0.883062 10.43 2.22295 10.43 5.76295V7.19312H8.09995V6.00294Z" fill="white"/>
<path d="M13.42 11.8931C13.451 10.7068 13.9431 9.57924 14.7917 8.74978C15.6403 7.92032 16.7788 7.45412 17.9655 7.45022C19.1521 7.44632 20.2936 7.90492 21.1476 8.72878C22.0017 9.55265 22.5012 10.677 22.54 11.8631V19.2229C22.54 20.4323 22.0596 21.5924 21.2044 22.4475C20.3492 23.3027 19.1894 23.783 17.98 23.783C16.7706 23.783 15.6108 23.3027 14.7556 22.4475C13.9004 21.5924 13.42 20.4323 13.42 19.2229V11.8931ZM20.14 12.343C20.14 10.593 19.15 9.76296 17.97 9.76296C16.79 9.76296 15.8 10.593 15.8 12.343V18.843C15.8 20.503 16.56 21.4231 17.97 21.4231C19.31 21.4231 20.14 20.563 20.14 18.843V12.343Z" fill="white"/>
<path d="M28.74 7.69301V9.25282C29.1132 8.69777 29.616 8.24205 30.205 7.92494C30.7939 7.60783 31.4512 7.43905 32.12 7.433C32.7626 7.38841 33.4037 7.53811 33.9601 7.86268C34.5165 8.18725 34.9625 8.67151 35.24 9.25282C35.6081 8.67891 36.1183 8.20986 36.7209 7.891C37.3236 7.57214 37.9984 7.41446 38.68 7.433C40.88 7.433 41.93 8.93298 41.93 11.163V23.4928H39.54V12.2128C39.54 10.8428 38.97 9.76283 37.53 9.76283C36.03 9.76283 35.33 11.133 35.33 12.663V23.4928H32.94V12.2128C32.94 11.2228 32.56 9.76283 30.96 9.76283C29.43 9.76283 28.73 11.193 28.73 12.663V23.4928H26.34V7.69301H28.74Z" fill="white"/>
<path d="M45.75 11.8931C45.781 10.7068 46.2731 9.57924 47.1217 8.74978C47.9703 7.92032 49.1087 7.45412 50.2954 7.45022C51.4821 7.44632 52.6236 7.90492 53.4777 8.72878C54.3317 9.55265 54.8312 10.677 54.87 11.8631V19.2229C54.87 20.4323 54.3896 21.5924 53.5344 22.4475C52.6793 23.3027 51.5194 23.783 50.31 23.783C49.1006 23.783 47.9407 23.3027 47.0856 22.4475C46.2304 21.5924 45.75 20.4323 45.75 19.2229V11.8931ZM52.47 12.343C52.47 10.593 51.48 9.76296 50.3 9.76296C49.12 9.76296 48.13 10.593 48.13 12.343V18.843C48.13 20.503 48.89 21.4231 50.3 21.4231C51.64 21.4231 52.47 20.563 52.47 18.843V12.343Z" fill="white"/>
<path d="M72.83 18.653H75.2199V19.2929C75.1843 20.5056 74.6731 21.6557 73.7967 22.4948C72.9204 23.3339 71.7492 23.7948 70.536 23.7777C69.3228 23.7607 68.165 23.2671 67.3126 22.4037C66.4602 21.5403 65.9815 20.3763 65.98 19.163V11.9928C65.9509 11.3811 66.051 10.7703 66.2737 10.1999C66.4964 9.62942 66.8367 9.1122 67.2726 8.68203C67.7084 8.25186 68.23 7.91851 68.8033 7.70327C69.3765 7.48803 69.9887 7.39595 70.5999 7.43301C71.2021 7.38774 71.807 7.4697 72.3753 7.67373C72.9436 7.87776 73.4626 8.19918 73.8984 8.61709C74.3342 9.035 74.6772 9.54003 74.9049 10.0993C75.1326 10.6585 75.2399 11.2594 75.2199 11.8629V12.5629H72.83V12.3429C72.83 10.5629 71.8099 9.76284 70.5999 9.76284C69.3599 9.76284 68.37 10.5629 68.37 12.3429V18.8429C68.37 20.5329 69.1299 21.423 70.5999 21.423C71.9999 21.423 72.83 20.5629 72.83 18.8429V18.653Z" fill="white"/>
<path d="M80.73 7.69312V10.1831C82.42 7.89311 83.88 7.47312 85.13 7.44312V10.123H84.68C82.93 10.123 80.73 10.823 80.73 14.293V23.5029H78.34V7.70312H80.73V7.69312Z" fill="white"/>
<path d="M90 1.64307V3.9729H87.61V1.64307H90ZM87.61 7.69312H90V23.4929H87.61V7.69312Z" fill="white"/>
<path d="M100.51 21.9331H100.48C100.089 22.5156 99.5564 22.9886 98.9316 23.3071C98.3068 23.6257 97.6108 23.779 96.91 23.7529C94.39 23.7529 93.66 21.843 93.66 19.323C93.66 15.973 94.74 14.093 98.28 14.093C99.0252 14.0965 99.7695 14.1398 100.51 14.2229V11.8931C100.511 11.6045 100.453 11.3187 100.34 11.0532C100.227 10.7877 100.061 10.5479 99.8528 10.3486C99.6441 10.1493 99.397 9.99475 99.1266 9.89404C98.8563 9.79334 98.5682 9.74868 98.28 9.76294C97.7368 9.73975 97.206 9.92963 96.8007 10.292C96.3954 10.6544 96.1475 11.1607 96.11 11.7031H93.82C93.82 9.02312 95.86 7.43311 98.44 7.43311C102.1 7.43311 102.9 10.1431 102.9 12.1831V23.4929H100.51V21.9331ZM100.51 15.9729C99.9742 15.8836 99.433 15.8302 98.89 15.813C97.52 15.813 96.05 16.543 96.05 18.873C96.05 21.103 96.72 21.7129 98.09 21.7129C98.7747 21.578 99.3909 21.2087 99.8326 20.6685C100.274 20.1282 100.514 19.4508 100.51 18.7529V15.9729Z" fill="white"/>
<path d="M109.24 7.69312V10.1831C110.93 7.89311 112.39 7.47312 113.64 7.44312V10.123H113.19C111.44 10.123 109.24 10.823 109.24 14.293V23.5029H106.85V7.70312H109.24V7.69312Z" fill="white"/>
<path d="M9.44 55.353H7.04999V53.793C6.66822 54.3466 6.15943 54.8008 5.56616 55.1174C4.9729 55.4341 4.31243 55.604 3.64001 55.613C0.840015 55.613 0.330017 53.4831 0.330017 51.9531V39.563H2.71997V50.843C2.71997 52.053 3.19998 53.293 4.72998 53.293C6.66998 53.293 7.06 51.3831 7.06 50.3931V39.563H9.45001V55.353H9.44Z" fill="white"/>
<path d="M15.77 39.5529V41.1129C16.1432 40.5579 16.646 40.1022 17.2349 39.785C17.8238 39.4679 18.4812 39.2989 19.15 39.2929C19.7926 39.2483 20.4338 39.398 20.9902 39.7225C21.5466 40.0471 21.9925 40.5316 22.27 41.1129C22.6382 40.539 23.1482 40.07 23.7509 39.7511C24.3536 39.4323 25.0284 39.2743 25.71 39.2929C27.91 39.2929 28.96 40.7928 28.96 43.0228V55.3529H26.57V44.0729C26.57 42.7029 26 41.6229 24.56 41.6229C23.06 41.6229 22.36 42.9928 22.36 44.5228V55.3529H19.97V44.0729C19.97 43.0829 19.59 41.6229 17.99 41.6229C16.46 41.6229 15.76 43.0528 15.76 44.5228V55.3529H13.37V39.5529H15.77Z" fill="white"/>
<path d="M39.48 53.793H39.45C39.0594 54.3755 38.5264 54.8485 37.9016 55.167C37.2767 55.4855 36.5809 55.6391 35.88 55.613C33.36 55.613 32.63 53.7031 32.63 51.1831C32.63 47.8331 33.71 45.9531 37.25 45.9531C37.9951 45.9566 38.7395 45.9999 39.48 46.083V43.7529C39.481 43.4644 39.4233 43.1788 39.3103 42.9133C39.1973 42.6478 39.0314 42.408 38.8228 42.2087C38.6141 42.0094 38.3671 41.8549 38.0967 41.7542C37.8263 41.6534 37.5382 41.6088 37.25 41.623C36.7068 41.5999 36.176 41.7895 35.7707 42.1519C35.3654 42.5142 35.1176 43.0206 35.08 43.563H32.79C32.79 40.883 34.83 39.293 37.41 39.293C41.07 39.293 41.87 42.003 41.87 44.043V55.353H39.48V53.793ZM39.48 47.833C38.9441 47.7437 38.4029 47.6903 37.86 47.6731C36.49 47.6731 35.02 48.4029 35.02 50.7329C35.02 52.9629 35.69 53.573 37.06 53.573C37.7447 53.4381 38.3609 53.0688 38.8026 52.5286C39.2443 51.9883 39.4838 51.3109 39.48 50.613V47.833Z" fill="white"/>
<path d="M62.35 57.2629C62.3882 57.8967 62.2915 58.5314 62.0663 59.125C61.8412 59.7186 61.4926 60.2576 61.0436 60.7065C60.5947 61.1555 60.0556 61.5041 59.462 61.7292C58.8684 61.9544 58.2337 62.0512 57.6 62.0129C55.02 62.0129 53.23 60.6129 53.23 57.7429H55.52C55.5192 58.0179 55.5766 58.2901 55.6885 58.5413C55.8005 58.7924 55.9643 59.0172 56.1693 59.2004C56.3743 59.3837 56.6158 59.5213 56.8779 59.6045C57.14 59.6877 57.4168 59.7146 57.69 59.6831C57.9797 59.6975 58.2693 59.6533 58.5414 59.553C58.8136 59.4527 59.0627 59.2983 59.2737 59.0994C59.4848 58.9004 59.6535 58.661 59.7697 58.3953C59.8859 58.1295 59.9473 57.843 59.95 57.553V53.6331C59.5682 54.1867 59.0595 54.6406 58.4662 54.9573C57.8729 55.2739 57.2124 55.4441 56.54 55.4531C53.74 55.4531 53.23 53.323 53.23 51.793V42.9629C53.23 41.4329 53.74 39.303 56.54 39.303C57.2124 39.312 57.8729 39.4819 58.4662 39.7986C59.0595 40.1152 59.5682 40.5694 59.95 41.123V39.563H62.34V57.2629H62.35ZM59.96 50.2229V44.5229C59.96 43.5329 59.58 41.623 57.63 41.623C56.1 41.623 55.62 42.863 55.62 44.073V50.6731C55.62 51.8831 56.1 53.123 57.63 53.123C59.58 53.123 59.96 51.2129 59.96 50.2229Z" fill="white"/>
<path d="M72.8 50.9232H75.19V51.1431C75.2354 51.7353 75.1532 52.3301 74.9489 52.8878C74.7447 53.4454 74.4232 53.9528 74.0061 54.3756C73.5891 54.7983 73.0861 55.1267 72.5313 55.3384C71.9765 55.5502 71.3826 55.6404 70.79 55.6031C70.1758 55.6415 69.5606 55.5493 68.9847 55.3326C68.4087 55.1159 67.8853 54.7797 67.4488 54.346C67.0123 53.9123 66.6726 53.3912 66.4522 52.8167C66.2318 52.2422 66.1356 51.6274 66.17 51.013V43.6832C66.1461 43.0938 66.2457 42.506 66.4622 41.9573C66.6787 41.4087 67.0074 40.9114 67.4273 40.4971C67.8472 40.0829 68.3489 39.7609 68.9004 39.5518C69.4519 39.3428 70.041 39.2512 70.63 39.283C71.2353 39.2566 71.8395 39.3549 72.4054 39.5714C72.9712 39.7878 73.4866 40.1181 73.9197 40.5418C74.3527 40.9655 74.6942 41.4735 74.9231 42.0345C75.1519 42.5955 75.2631 43.1973 75.25 43.803V48.3231H68.56V50.8431C68.56 52.5331 69.32 53.263 70.79 53.263C72.19 53.263 72.8 52.4031 72.8 51.0931V50.9232ZM72.86 46.553V43.8431C72.8917 43.5511 72.8593 43.2555 72.7649 42.9774C72.6706 42.6992 72.5165 42.4451 72.3136 42.2327C72.1107 42.0203 71.8639 41.8546 71.5903 41.7476C71.3168 41.6406 71.0231 41.5948 70.73 41.6131C70.4268 41.6069 70.1258 41.6652 69.847 41.7842C69.5681 41.9033 69.3177 42.0803 69.1125 42.3035C68.9073 42.5267 68.7519 42.7911 68.6567 43.0789C68.5614 43.3668 68.5284 43.6714 68.56 43.973V46.553H72.86Z" fill="white"/>
<path d="M85.03 43.7229C84.87 41.9429 83.88 41.553 82.9 41.553C82.6219 41.508 82.3371 41.5298 82.0691 41.6165C81.8011 41.7031 81.5575 41.8521 81.3583 42.0513C81.1591 42.2504 81.0101 42.4942 80.9235 42.7622C80.8368 43.0302 80.8151 43.3149 80.86 43.593C80.86 44.833 81.72 45.343 82.74 45.823L84.72 46.783C85.681 47.2187 86.4637 47.9706 86.9377 48.9133C87.4118 49.856 87.5485 50.9326 87.3252 51.9639C87.1019 52.9951 86.532 53.9189 85.7104 54.5811C84.8888 55.2432 83.8652 55.6039 82.81 55.603C79.27 55.603 78.25 53.273 78.19 51.083H80.61C80.74 52.773 81.5 53.373 82.74 53.373C83.0508 53.416 83.3673 53.3863 83.6647 53.2864C83.9622 53.1865 84.2324 53.0192 84.4543 52.7974C84.6761 52.5755 84.8436 52.3052 84.9435 52.0078C85.0434 51.7104 85.073 51.3938 85.03 51.083C85.03 49.903 84.65 49.3029 83.02 48.5029L81.08 47.543C80.2403 47.2414 79.5262 46.6662 79.0529 45.9099C78.5795 45.1536 78.3742 44.2601 78.47 43.373C78.47 41.243 79.87 39.293 83.03 39.293C86.5 39.293 87.36 41.7429 87.43 43.7229H85.03Z" fill="white"/>
<path d="M93.57 34.7329V39.543H95.8V41.4531H93.57V51.043C93.5458 51.3634 93.5904 51.6855 93.7008 51.9873C93.8112 52.2891 93.9848 52.5637 94.21 52.793C94.652 53.0871 95.1813 53.2213 95.71 53.1731H95.96V55.343H95.26C94.7032 55.4732 94.1225 55.4603 93.5721 55.3054C93.0216 55.1506 92.5193 54.8588 92.112 54.4575C91.7047 54.0562 91.4056 53.5583 91.2427 53.0103C91.0797 52.4622 91.0581 51.8817 91.18 51.323V41.4431H89.49V39.533H91.18V34.7229H93.57V34.7329Z" fill="white"/>
<path d="M105.45 53.793H105.42C105.029 54.3755 104.496 54.8485 103.872 55.167C103.247 55.4855 102.551 55.6391 101.85 55.613C99.33 55.613 98.6 53.7031 98.6 51.1831C98.6 47.8331 99.68 45.9531 103.22 45.9531C103.965 45.9566 104.71 45.9999 105.45 46.083V43.7529C105.451 43.4644 105.393 43.1788 105.28 42.9133C105.167 42.6478 105.001 42.408 104.793 42.2087C104.584 42.0094 104.337 41.8549 104.067 41.7542C103.796 41.6534 103.508 41.6088 103.22 41.623C102.677 41.5999 102.146 41.7895 101.741 42.1519C101.335 42.5142 101.088 43.0206 101.05 43.563H98.76C98.76 40.883 100.8 39.293 103.38 39.293C107.04 39.293 107.84 42.003 107.84 44.043V55.353H105.45V53.793ZM99.62 36.7129C99.62 35.3429 100.29 33.623 101.82 33.623C102.298 33.6303 102.767 33.75 103.19 33.9729L103.8 34.2629C104.106 34.422 104.445 34.5076 104.79 34.5129C105.21 34.5129 105.62 34.223 105.75 33.303H107.18C107.18 35.313 106.1 36.3931 105.05 36.3931C104.555 36.3701 104.07 36.2511 103.62 36.043L102.98 35.7529C102.695 35.6088 102.38 35.5335 102.06 35.533C101.68 35.533 101.2 35.8229 101.1 36.7429H99.63V36.7129H99.62ZM105.45 47.833C104.914 47.7437 104.373 47.6903 103.83 47.6731C102.46 47.6731 100.99 48.4029 100.99 50.7329C100.99 52.9629 101.66 53.573 103.03 53.573C103.715 53.4381 104.331 53.0688 104.773 52.5286C105.214 51.9883 105.454 51.3109 105.45 50.613V47.833Z" fill="white"/>
<path d="M111.66 43.753C111.691 42.5667 112.183 41.4394 113.032 40.6099C113.88 39.7804 115.019 39.3142 116.205 39.3103C117.392 39.3064 118.534 39.765 119.388 40.5889C120.242 41.4128 120.741 42.5369 120.78 43.7229V51.083C120.78 52.2924 120.3 53.4522 119.444 54.3074C118.589 55.1626 117.429 55.6431 116.22 55.6431C115.011 55.6431 113.851 55.1626 112.996 54.3074C112.14 53.4522 111.66 52.2924 111.66 51.083V43.753ZM118.38 44.2031C118.38 42.4531 117.39 41.6231 116.21 41.6231C115.03 41.6231 114.04 42.4531 114.04 44.2031V50.7031C114.04 52.3631 114.8 53.283 116.21 53.283C117.55 53.283 118.38 52.4232 118.38 50.7031V44.2031Z" fill="white"/>
<path d="M6.81999 82.783H9.21V83.003C9.25538 83.5951 9.17314 84.1902 8.96891 84.7479C8.76468 85.3055 8.44317 85.8129 8.0261 86.2357C7.60903 86.6584 7.10613 86.9865 6.55131 87.1983C5.99648 87.4101 5.40266 87.5003 4.80998 87.463C4.19585 87.5014 3.58059 87.4094 3.00468 87.1927C2.42876 86.976 1.9053 86.6398 1.46879 86.2061C1.03227 85.7724 0.692565 85.2511 0.472146 84.6766C0.251726 84.1021 0.155577 83.4875 0.18998 82.8731V75.543C0.166142 74.9537 0.265648 74.3658 0.482156 73.8172C0.698664 73.2686 1.02737 72.7712 1.44724 72.357C1.86711 71.9428 2.36887 71.621 2.92039 71.4119C3.4719 71.2029 4.06105 71.1113 4.65 71.1431C5.25527 71.1167 5.85949 71.2147 6.42533 71.4312C6.99118 71.6477 7.50662 71.978 7.93968 72.4017C8.37274 72.8254 8.71421 73.3334 8.94303 73.8944C9.17186 74.4553 9.28316 75.0574 9.27 75.6631V80.1832H2.57999V82.7032C2.57999 84.3932 3.33998 85.1231 4.80998 85.1231C6.20998 85.1231 6.81999 84.2632 6.81999 82.9532V82.783ZM6.88999 78.4131V75.7032C6.92175 75.4112 6.88927 75.1156 6.7949 74.8375C6.70053 74.5593 6.5465 74.305 6.34361 74.0926C6.14072 73.8802 5.89389 73.7148 5.62034 73.6077C5.34679 73.5007 5.05316 73.4546 4.75999 73.473C4.45685 73.4668 4.15585 73.5253 3.87699 73.6444C3.59813 73.7634 3.34778 73.9402 3.14256 74.1634C2.93733 74.3866 2.78195 74.6509 2.68668 74.9388C2.59141 75.2266 2.55846 75.5315 2.59 75.8331V78.4131H6.88999Z" fill="white"/>
<path d="M13.74 73.313H12.02V71.4031H13.74V69.0129C13.74 66.6829 14.54 64.9031 18.07 64.9031H18.8V66.9729H18.13C16.89 66.9729 16.09 67.6131 16.09 69.1431V71.4031H18.77V73.313H16.13V87.2031H13.74V73.313ZM23.42 65.353V67.6831H21.03V65.353H23.42ZM21.03 71.4031H23.42V87.2031H21.03V71.4031Z" fill="white"/>
<path d="M34.09 82.3629H36.48V83.0028C36.4443 84.2156 35.9331 85.3659 35.0567 86.205C34.1804 87.0441 33.0091 87.5048 31.7959 87.4877C30.5828 87.4706 29.425 86.9771 28.5725 86.1137C27.7201 85.2503 27.2415 84.0862 27.24 82.8729V75.703C27.2109 75.0914 27.311 74.4802 27.5337 73.9098C27.7564 73.3394 28.0967 72.8224 28.5326 72.3922C28.9684 71.9621 29.49 71.6285 30.0633 71.4132C30.6366 71.198 31.2487 71.1059 31.86 71.143C32.4621 71.0977 33.067 71.1797 33.6353 71.3837C34.2036 71.5877 34.7226 71.9091 35.1584 72.327C35.5942 72.745 35.9371 73.25 36.1648 73.8092C36.3925 74.3685 36.4999 74.9694 36.48 75.5729V76.2729H34.09V76.0529C34.09 74.2729 33.07 73.4728 31.86 73.4728C30.62 73.4728 29.63 74.2729 29.63 76.0529V82.5529C29.63 84.2429 30.39 85.133 31.86 85.133C33.26 85.133 34.09 84.2729 34.09 82.5529V82.3629Z" fill="white"/>
<path d="M45.85 85.6431H45.82C45.4294 86.2256 44.8964 86.6986 44.2715 87.0171C43.6467 87.3356 42.9509 87.489 42.25 87.4629C39.73 87.4629 39 85.553 39 83.033C39 79.683 40.08 77.803 43.62 77.803C44.3651 77.8064 45.1095 77.85 45.85 77.9331V75.603C45.851 75.3145 45.7933 75.0287 45.6803 74.7632C45.5673 74.4977 45.4014 74.2581 45.1927 74.0588C44.9841 73.8595 44.7371 73.7047 44.4667 73.604C44.1963 73.5033 43.9082 73.4586 43.62 73.4729C43.0768 73.4497 42.546 73.6396 42.1407 74.002C41.7354 74.3643 41.4876 74.8707 41.45 75.4131H39.16C39.16 72.7331 41.2 71.1431 43.78 71.1431C47.44 71.1431 48.24 73.8531 48.24 75.8931V87.2031H45.85V85.6431ZM45.85 79.6831C45.3141 79.5938 44.7729 79.5402 44.23 79.5229C42.86 79.5229 41.39 80.253 41.39 82.583C41.39 84.813 42.06 85.4231 43.43 85.4231C44.1147 85.2882 44.7309 84.9187 45.1726 84.3784C45.6143 83.8382 45.8538 83.1607 45.85 82.4629V79.6831Z" fill="white"/>
<path d="M51.71 71.4031H59.93V73.313L53.88 85.1931H59.93V87.2031H51.3V85.293L57.38 73.4131H51.71V71.4031Z" fill="white"/>
<path d="M76.91 82.783H79.3V83.003C79.3453 83.5951 79.2632 84.1902 79.0589 84.7479C78.8547 85.3055 78.5332 85.8129 78.1161 86.2357C77.6991 86.6584 77.1961 86.9865 76.6413 87.1983C76.0864 87.4101 75.4927 87.5003 74.9 87.463C74.2859 87.5014 73.6706 87.4094 73.0946 87.1927C72.5187 86.976 71.9953 86.6398 71.5588 86.2061C71.1222 85.7724 70.7826 85.2511 70.5622 84.6766C70.3418 84.1021 70.2456 83.4875 70.28 82.8731V75.543C70.2562 74.9537 70.3557 74.3658 70.5722 73.8172C70.7887 73.2686 71.1174 72.7712 71.5373 72.357C71.9571 71.9428 72.4589 71.621 73.0104 71.4119C73.5619 71.2029 74.151 71.1113 74.74 71.1431C75.3452 71.1167 75.9495 71.2147 76.5154 71.4312C77.0812 71.6477 77.5966 71.978 78.0296 72.4017C78.4627 72.8254 78.8042 73.3334 79.0331 73.8944C79.2619 74.4553 79.3731 75.0574 79.36 75.6631V80.1832H72.67V82.7032C72.67 84.3932 73.43 85.1231 74.9 85.1231C76.3 85.1231 76.91 84.2632 76.91 82.9532V82.783ZM76.9699 78.4131V75.7032C77.0017 75.4112 76.9693 75.1156 76.8749 74.8375C76.7805 74.5593 76.6265 74.305 76.4236 74.0926C76.2207 73.8802 75.9739 73.7148 75.7004 73.6077C75.4268 73.5007 75.1332 73.4546 74.84 73.473C74.5369 73.4668 74.2359 73.5253 73.957 73.6444C73.6782 73.7634 73.4278 73.9402 73.2226 74.1634C73.0173 74.3866 72.8619 74.6509 72.7666 74.9388C72.6714 75.2266 72.6384 75.5315 72.67 75.8331V78.4131H76.9699Z" fill="white"/>
<path d="M90.47 71.4031H92.86V72.9629C93.2418 72.4093 93.7506 71.9553 94.3439 71.6387C94.9371 71.322 95.5976 71.1521 96.27 71.1431C99.07 71.1431 99.58 73.273 99.58 74.803V83.783C99.58 85.313 99.07 87.4431 96.27 87.4431C95.5976 87.4341 94.9371 87.2639 94.3439 86.9473C93.7506 86.6306 93.2418 86.1767 92.86 85.623V93.6831H90.47V71.4031ZM97.2 82.6831V75.9331C97.2 74.7231 96.72 73.4829 95.19 73.4829C93.25 73.4829 92.86 75.3931 92.86 76.3831V82.2429C92.86 83.2329 93.24 85.1431 95.19 85.1431C96.72 85.1331 97.2 83.8931 97.2 82.6831Z" fill="white"/>
<path d="M105.93 71.4031V73.8931C107.62 71.6031 109.08 71.1831 110.33 71.1531V73.833H109.88C108.13 73.833 105.93 74.5329 105.93 78.0029V87.2129H103.54V71.4131H105.93V71.4031Z" fill="white"/>
<path d="M112.36 75.6131C112.391 74.4268 112.883 73.2992 113.732 72.4698C114.58 71.6403 115.719 71.1741 116.905 71.1702C118.092 71.1663 119.234 71.6251 120.088 72.449C120.942 73.2729 121.441 74.397 121.48 75.583V82.9431C121.48 84.1525 121 85.3123 120.144 86.1675C119.289 87.0227 118.129 87.503 116.92 87.503C115.711 87.503 114.551 87.0227 113.696 86.1675C112.84 85.3123 112.36 84.1525 112.36 82.9431V75.6131ZM119.08 76.053C119.08 74.303 118.09 73.4729 116.91 73.4729C115.73 73.4729 114.74 74.303 114.74 76.053V82.553C114.74 84.213 115.5 85.1331 116.91 85.1331C118.25 85.1331 119.08 84.273 119.08 82.553V76.053Z" fill="white"/>
<path d="M132.02 82.3629H134.41V83.0028C134.374 84.2156 133.863 85.3659 132.987 86.205C132.11 87.0441 130.939 87.5048 129.726 87.4877C128.513 87.4706 127.355 86.9771 126.503 86.1137C125.65 85.2503 125.171 84.0862 125.17 82.8729V75.703C125.141 75.0914 125.241 74.4802 125.464 73.9098C125.686 73.3394 126.027 72.8224 126.463 72.3922C126.898 71.9621 127.42 71.6285 127.993 71.4132C128.567 71.198 129.179 71.1059 129.79 71.143C130.392 71.0977 130.997 71.1797 131.565 71.3837C132.134 71.5877 132.653 71.9091 133.088 72.327C133.524 72.745 133.867 73.25 134.095 73.8092C134.323 74.3685 134.43 74.9694 134.41 75.5729V76.2729H132.02V76.0529C132.02 74.2729 131 73.4728 129.79 73.4728C128.55 73.4728 127.56 74.2729 127.56 76.0529V82.5529C127.56 84.2429 128.32 85.133 129.79 85.133C131.19 85.133 132.02 84.2729 132.02 82.5529V82.3629Z" fill="white"/>
<path d="M144.02 82.783H146.41V83.003C146.455 83.5951 146.373 84.1902 146.169 84.7479C145.965 85.3055 145.643 85.8129 145.226 86.2357C144.809 86.6584 144.306 86.9865 143.751 87.1983C143.196 87.4101 142.603 87.5003 142.01 87.463C141.396 87.5014 140.781 87.4094 140.205 87.1927C139.629 86.976 139.105 86.6398 138.669 86.2061C138.232 85.7724 137.893 85.2511 137.672 84.6766C137.452 84.1021 137.356 83.4875 137.39 82.8731V75.543C137.366 74.9537 137.466 74.3658 137.682 73.8172C137.899 73.2686 138.227 72.7712 138.647 72.357C139.067 71.9428 139.569 71.621 140.12 71.4119C140.672 71.2029 141.261 71.1113 141.85 71.1431C142.455 71.1167 143.059 71.2147 143.625 71.4312C144.191 71.6477 144.707 71.978 145.14 72.4017C145.573 72.8254 145.914 73.3334 146.143 73.8944C146.372 74.4553 146.483 75.0574 146.47 75.6631V80.1832H139.78V82.7032C139.78 84.3932 140.54 85.1231 142.01 85.1231C143.41 85.1231 144.02 84.2632 144.02 82.9532V82.783ZM144.09 78.4131V75.7032C144.122 75.4112 144.089 75.1156 143.995 74.8375C143.901 74.5593 143.747 74.305 143.544 74.0926C143.341 73.8802 143.094 73.7148 142.82 73.6077C142.547 73.5007 142.253 73.4546 141.96 73.473C141.657 73.4668 141.356 73.5253 141.077 73.6444C140.798 73.7634 140.548 73.9402 140.343 74.1634C140.137 74.3866 139.982 74.6509 139.887 74.9388C139.791 75.2266 139.758 75.5315 139.79 75.8331V78.4131H144.09Z" fill="white"/>
<path d="M156.26 75.573C156.1 73.793 155.11 73.4031 154.13 73.4031C153.852 73.3581 153.567 73.3799 153.299 73.4666C153.031 73.5532 152.787 73.7022 152.588 73.9014C152.389 74.1005 152.24 74.344 152.153 74.6121C152.067 74.8801 152.045 75.165 152.09 75.4431C152.09 76.6831 152.95 77.1931 153.97 77.6731L155.95 78.6331C156.911 79.0688 157.694 79.8207 158.168 80.7634C158.642 81.7061 158.779 82.7827 158.555 83.814C158.332 84.8452 157.762 85.769 156.94 86.4312C156.119 87.0933 155.095 87.454 154.04 87.4531C150.5 87.4531 149.48 85.1231 149.42 82.9331H151.84C151.97 84.6231 152.73 85.2229 153.97 85.2229C154.281 85.2659 154.597 85.2364 154.895 85.1365C155.192 85.0366 155.462 84.8691 155.684 84.6472C155.906 84.4254 156.074 84.1551 156.173 83.8577C156.273 83.5602 156.303 83.2439 156.26 82.9331C156.26 81.7531 155.88 81.153 154.25 80.353L152.31 79.3931C151.47 79.0915 150.756 78.5163 150.283 77.76C149.809 77.0037 149.604 76.11 149.7 75.2229C149.7 73.0929 151.1 71.1431 154.26 71.1431C157.73 71.1431 158.59 73.593 158.66 75.573H156.26Z" fill="white"/>
<path d="M168.07 75.573C167.91 73.793 166.92 73.4031 165.94 73.4031C165.662 73.3581 165.377 73.3799 165.109 73.4666C164.841 73.5532 164.597 73.7022 164.398 73.9014C164.199 74.1005 164.05 74.344 163.963 74.6121C163.877 74.8801 163.855 75.165 163.9 75.4431C163.9 76.6831 164.76 77.1931 165.78 77.6731L167.76 78.6331C168.721 79.0688 169.504 79.8207 169.978 80.7634C170.452 81.7061 170.588 82.7827 170.365 83.814C170.142 84.8452 169.572 85.769 168.75 86.4312C167.929 87.0933 166.905 87.454 165.85 87.4531C162.31 87.4531 161.29 85.1231 161.23 82.9331H163.65C163.78 84.6231 164.54 85.2229 165.78 85.2229C166.091 85.2659 166.407 85.2364 166.705 85.1365C167.002 85.0366 167.272 84.8691 167.494 84.6472C167.716 84.4254 167.884 84.1551 167.983 83.8577C168.083 83.5602 168.113 83.2439 168.07 82.9331C168.07 81.7531 167.69 81.153 166.06 80.353L164.12 79.3931C163.28 79.0915 162.566 78.5163 162.093 77.76C161.62 77.0037 161.414 76.11 161.51 75.2229C161.51 73.0929 162.91 71.1431 166.07 71.1431C169.54 71.1431 170.4 73.593 170.47 75.573H168.07Z" fill="white"/>
<path d="M173.68 75.6131C173.711 74.4268 174.203 73.2992 175.052 72.4698C175.9 71.6403 177.039 71.1741 178.225 71.1702C179.412 71.1663 180.554 71.6251 181.408 72.449C182.262 73.2729 182.761 74.397 182.8 75.583V82.9431C182.8 84.1525 182.32 85.3123 181.464 86.1675C180.609 87.0227 179.449 87.503 178.24 87.503C177.031 87.503 175.871 87.0227 175.016 86.1675C174.16 85.3123 173.68 84.1525 173.68 82.9431V75.6131ZM180.4 76.053C180.4 74.303 179.41 73.4729 178.23 73.4729C177.05 73.4729 176.06 74.303 176.06 76.053V82.553C176.06 84.213 176.82 85.1331 178.23 85.1331C179.57 85.1331 180.4 84.273 180.4 82.553V76.053Z" fill="white"/>
<path d="M192.7 75.573C192.54 73.793 191.55 73.4031 190.57 73.4031C190.292 73.3581 190.007 73.3799 189.739 73.4666C189.471 73.5532 189.228 73.7022 189.028 73.9014C188.829 74.1005 188.68 74.344 188.593 74.6121C188.507 74.8801 188.485 75.165 188.53 75.4431C188.53 76.6831 189.39 77.1931 190.41 77.6731L192.39 78.6331C193.351 79.0688 194.134 79.8207 194.608 80.7634C195.082 81.7061 195.218 82.7827 194.995 83.814C194.772 84.8452 194.202 85.769 193.38 86.4312C192.559 87.0933 191.535 87.454 190.48 87.4531C186.94 87.4531 185.92 85.1231 185.86 82.9331H188.28C188.41 84.6231 189.17 85.2229 190.41 85.2229C190.721 85.2659 191.037 85.2364 191.335 85.1365C191.632 85.0366 191.902 84.8691 192.124 84.6472C192.346 84.4254 192.514 84.1551 192.613 83.8577C192.713 83.5602 192.743 83.2439 192.7 82.9331C192.7 81.7531 192.32 81.153 190.69 80.353L188.75 79.3931C187.91 79.0915 187.196 78.5163 186.723 77.76C186.25 77.0037 186.044 76.11 186.14 75.2229C186.14 73.0929 187.54 71.1431 190.7 71.1431C194.17 71.1431 195.03 73.593 195.1 75.573H192.7Z" fill="white"/>
<path d="M6.81999 114.633H9.21V114.853C9.25538 115.445 9.17314 116.04 8.96891 116.598C8.76468 117.155 8.44317 117.663 8.0261 118.086C7.60903 118.508 7.10613 118.837 6.55131 119.048C5.99648 119.26 5.40266 119.35 4.80998 119.313C4.19585 119.351 3.58059 119.259 3.00468 119.043C2.42876 118.826 1.9053 118.49 1.46879 118.056C1.03227 117.622 0.692565 117.101 0.472146 116.527C0.251726 115.952 0.155577 115.337 0.18998 114.723V107.393C0.166142 106.804 0.265648 106.216 0.482156 105.667C0.698664 105.119 1.02737 104.621 1.44724 104.207C1.86711 103.793 2.36887 103.471 2.92039 103.262C3.4719 103.053 4.06105 102.961 4.65 102.993C5.25527 102.967 5.85949 103.065 6.42533 103.281C6.99118 103.498 7.50662 103.828 7.93968 104.252C8.37274 104.675 8.71421 105.183 8.94303 105.744C9.17186 106.305 9.28316 106.907 9.27 107.513V112.033H2.57999V114.553C2.57999 116.243 3.33998 116.973 4.80998 116.973C6.20998 116.973 6.81999 116.113 6.81999 114.803V114.633ZM6.88999 110.273V107.563C6.92175 107.271 6.88927 106.975 6.7949 106.697C6.70053 106.419 6.5465 106.165 6.34361 105.953C6.14072 105.74 5.89389 105.575 5.62034 105.468C5.34679 105.361 5.05316 105.315 4.75999 105.333C4.45685 105.327 4.15585 105.385 3.87699 105.504C3.59813 105.623 3.34778 105.8 3.14256 106.024C2.93733 106.247 2.78195 106.511 2.68668 106.799C2.59141 107.087 2.55846 107.392 2.59 107.693V110.273H6.88999Z" fill="white"/>
<path d="M19.06 107.433C18.9 105.653 17.91 105.263 16.93 105.263C16.6519 105.218 16.3672 105.24 16.0991 105.326C15.8311 105.413 15.5875 105.562 15.3883 105.761C15.1891 105.96 15.0401 106.204 14.9534 106.472C14.8668 106.74 14.8451 107.025 14.89 107.303C14.89 108.543 15.75 109.053 16.77 109.533L18.75 110.493C19.711 110.929 20.4937 111.681 20.9677 112.623C21.4417 113.566 21.5785 114.643 21.3552 115.674C21.1318 116.705 20.5619 117.629 19.7404 118.291C18.9188 118.953 17.8952 119.314 16.84 119.313C13.3 119.313 12.28 116.983 12.22 114.793H14.64C14.77 116.483 15.53 117.083 16.77 117.083C17.0808 117.126 17.3973 117.096 17.6948 116.997C17.9922 116.897 18.2624 116.729 18.4843 116.507C18.7061 116.285 18.8736 116.015 18.9734 115.718C19.0733 115.42 19.103 115.104 19.06 114.793C19.06 113.613 18.68 113.013 17.05 112.213L15.11 111.253C14.2702 110.951 13.5563 110.376 13.0829 109.62C12.6095 108.864 12.4042 107.97 12.5 107.083C12.5 104.953 13.9 103.003 17.06 103.003C20.53 103.003 21.39 105.453 21.46 107.433H19.06Z" fill="white"/>
<path d="M31.51 114.223H33.9V114.863C33.8643 116.076 33.3531 117.226 32.4767 118.065C31.6003 118.904 30.4292 119.365 29.216 119.348C28.0028 119.33 26.845 118.837 25.9926 117.974C25.1402 117.11 24.6615 115.946 24.6599 114.733V107.563C24.6309 106.951 24.731 106.34 24.9537 105.77C25.1764 105.199 25.5168 104.682 25.9526 104.252C26.3884 103.822 26.91 103.488 27.4832 103.273C28.0565 103.058 28.6688 102.966 29.28 103.003C29.8821 102.958 30.487 103.04 31.0553 103.244C31.6236 103.448 32.1426 103.769 32.5784 104.187C33.0142 104.605 33.3572 105.11 33.5849 105.669C33.8126 106.229 33.9199 106.829 33.9 107.433V108.133H31.51V107.913C31.51 106.133 30.49 105.333 29.28 105.333C28.04 105.333 27.05 106.133 27.05 107.913V114.413C27.05 116.103 27.81 116.993 29.28 116.993C30.68 116.993 31.51 116.133 31.51 114.413V114.223Z" fill="white"/>
<path d="M43.27 117.503H43.24C42.8494 118.085 42.3164 118.558 41.6916 118.877C41.0668 119.195 40.3708 119.349 39.67 119.323C37.15 119.323 36.42 117.413 36.42 114.893C36.42 111.543 37.5 109.663 41.04 109.663C41.7851 109.667 42.5295 109.71 43.27 109.793V107.463C43.2711 107.174 43.2133 106.889 43.1003 106.623C42.9873 106.358 42.8214 106.118 42.6128 105.919C42.4041 105.719 42.1571 105.565 41.8867 105.464C41.6163 105.363 41.3282 105.319 41.04 105.333C40.4968 105.31 39.9661 105.5 39.5607 105.862C39.1554 106.224 38.9076 106.731 38.87 107.273H36.58C36.58 104.593 38.62 103.003 41.2 103.003C44.86 103.003 45.66 105.713 45.66 107.753V119.063H43.27V117.503ZM43.27 111.543C42.7342 111.454 42.193 111.4 41.65 111.383C40.28 111.383 38.81 112.113 38.81 114.443C38.81 116.673 39.48 117.283 40.85 117.283C41.5347 117.148 42.1509 116.779 42.5926 116.239C43.0343 115.698 43.2739 115.021 43.27 114.323V111.543Z" fill="white"/>
<path d="M51.99 96.7629V115.113C51.9713 115.348 52.0037 115.583 52.0851 115.804C52.1664 116.025 52.2947 116.225 52.4611 116.392C52.6275 116.558 52.828 116.686 53.0488 116.768C53.2696 116.849 53.5054 116.882 53.74 116.863H54.09V119.063H53.36C50.94 119.063 49.6 117.633 49.6 115.563V96.7629H51.99Z" fill="white"/>
<path d="M63.4 117.503H63.37C62.9794 118.085 62.4464 118.558 61.8216 118.877C61.1968 119.195 60.5008 119.349 59.8 119.323C57.28 119.323 56.55 117.413 56.55 114.893C56.55 111.543 57.63 109.663 61.17 109.663C61.9151 109.667 62.6595 109.71 63.4 109.793V107.463C63.4011 107.174 63.3433 106.889 63.2303 106.623C63.1173 106.358 62.9514 106.118 62.7427 105.919C62.5341 105.719 62.2871 105.565 62.0167 105.464C61.7463 105.363 61.4582 105.319 61.17 105.333C60.6268 105.31 60.0961 105.5 59.6907 105.862C59.2854 106.224 59.0376 106.731 59 107.273H56.71C56.71 104.593 58.75 103.003 61.33 103.003C64.99 103.003 65.79 105.713 65.79 107.753V119.063H63.4V117.503ZM63.4 111.543C62.8642 111.454 62.323 111.4 61.78 111.383C60.41 111.383 58.94 112.113 58.94 114.443C58.94 116.673 59.61 117.283 60.98 117.283C61.6647 117.148 62.2809 116.779 62.7226 116.239C63.1643 115.698 63.4039 115.021 63.4 114.323V111.543ZM61.74 100.643H60.5L61.97 96.7529H64.55L61.74 100.643Z" fill="white"/>
<path d="M74.04 119.063H72.16L68.02 103.263H70.54L73.18 114.353H73.24L75.82 103.263H78.24L74.04 119.063Z" fill="white"/>
<path d="M87.2 114.633H89.59V114.853C89.6354 115.445 89.5531 116.04 89.3489 116.598C89.1447 117.155 88.8232 117.663 88.4061 118.086C87.989 118.508 87.4861 118.837 86.9313 119.048C86.3765 119.26 85.7827 119.35 85.19 119.313C84.5759 119.351 83.9605 119.259 83.3846 119.043C82.8087 118.826 82.2852 118.49 81.8487 118.056C81.4122 117.622 81.0726 117.101 80.8522 116.527C80.6317 115.952 80.5356 115.337 80.57 114.723V107.393C80.5461 106.804 80.6457 106.216 80.8622 105.667C81.0787 105.119 81.4074 104.621 81.8272 104.207C82.2471 103.793 82.7489 103.471 83.3004 103.262C83.8519 103.053 84.4411 102.961 85.03 102.993C85.6353 102.967 86.2395 103.065 86.8053 103.281C87.3712 103.498 87.8866 103.828 88.3197 104.252C88.7527 104.675 89.0942 105.183 89.323 105.744C89.5519 106.305 89.6632 106.907 89.65 107.513V112.033H82.96V114.553C82.96 116.243 83.72 116.973 85.19 116.973C86.59 116.973 87.2 116.113 87.2 114.803V114.633ZM87.26 110.273V107.563C87.2917 107.271 87.2593 106.975 87.1649 106.697C87.0705 106.419 86.9165 106.165 86.7136 105.953C86.5107 105.74 86.2639 105.575 85.9903 105.468C85.7168 105.361 85.4232 105.315 85.13 105.333C84.8268 105.327 84.5258 105.385 84.247 105.504C83.9681 105.623 83.7178 105.8 83.5126 106.024C83.3073 106.247 83.1519 106.511 83.0567 106.799C82.9614 107.087 82.9285 107.392 82.96 107.693V110.273H87.26Z" fill="white"/>
<path d="M95.73 97.2031V99.533H93.34V97.2031H95.73ZM93.34 103.263H95.73V119.063H93.34V103.263Z" fill="white"/>
<path d="M105.77 107.433C105.61 105.653 104.62 105.263 103.64 105.263C103.362 105.218 103.077 105.24 102.809 105.326C102.541 105.413 102.297 105.562 102.098 105.761C101.899 105.96 101.75 106.204 101.663 106.472C101.577 106.74 101.555 107.025 101.6 107.303C101.6 108.543 102.46 109.053 103.48 109.533L105.46 110.493C106.421 110.929 107.204 111.681 107.678 112.623C108.152 113.566 108.289 114.643 108.065 115.674C107.842 116.705 107.272 117.629 106.45 118.291C105.629 118.953 104.605 119.314 103.55 119.313C100.01 119.313 98.99 116.983 98.93 114.793H101.35C101.48 116.483 102.24 117.083 103.48 117.083C103.791 117.126 104.107 117.096 104.405 116.997C104.702 116.897 104.972 116.729 105.194 116.507C105.416 116.285 105.584 116.015 105.683 115.718C105.783 115.42 105.813 115.104 105.77 114.793C105.77 113.613 105.39 113.013 103.76 112.213L101.82 111.253C100.98 110.951 100.266 110.376 99.7929 109.62C99.3195 108.864 99.1142 107.97 99.21 107.083C99.21 104.953 100.61 103.003 103.77 103.003C107.24 103.003 108.1 105.453 108.17 107.433H105.77Z" fill="white"/>
<path d="M114.18 116.353V119.063H111.44V116.353H114.18Z" fill="white"/>
</svg>
