<svg width="354" height="200" viewBox="0 0 354 200" fill="none" xmlns="http://www.w3.org/2000/svg">
<path d="M0.910034 27.4931V0.342713H6.73999C7.69677 0.325433 8.64984 0.467779 9.56006 0.763123C10.4087 1.06911 11.1681 1.58085 11.77 2.25287C12.4298 2.95766 12.901 3.81754 13.14 4.75287C13.4255 6.0223 13.5532 7.32226 13.52 8.62299C13.5333 9.65696 13.4632 10.6902 13.3101 11.7128C13.1701 12.55 12.8677 13.3521 12.42 14.0732C11.9053 14.9418 11.1706 15.6588 10.29 16.1528C9.2052 16.6928 8.00063 16.9477 6.79004 16.893H4.81006V27.4931H0.910034ZM4.80005 4.00287V13.2328H6.67004C7.29842 13.2669 7.92579 13.1505 8.5 12.893C8.9089 12.6844 9.24136 12.3517 9.44995 11.9428C9.66576 11.5026 9.78843 11.0229 9.81006 10.5331C9.85006 9.97314 9.87 9.35302 9.87 8.66302C9.87 8.02303 9.85996 7.42297 9.82996 6.85297C9.81263 6.33273 9.69731 5.82017 9.48999 5.34271C9.29815 4.92533 8.97973 4.57921 8.57996 4.35297C8.03407 4.09556 7.43251 3.97885 6.82996 4.01312H4.80005V4.00287Z" fill="#F9F9F9"/>
<path d="M14.2 27.4932L20.26 0.342773H23.5L29.5601 27.4932H25.67L24.53 21.6631H19.24L18.1 27.4932H14.2ZM23.8 17.9932L21.9 8.15283H21.8199L19.92 17.9932H23.8Z" fill="#F9F9F9"/>
<path d="M32.41 27.4932V0.342773H36.3V23.603H43.99V27.4932H32.41Z" fill="#F9F9F9"/>
<path d="M47.46 27.4932V0.342773H59.04V4.00293H51.35V11.9731H58.05V15.6328H51.35V23.603H59.04V27.4932H47.46Z" fill="#F9F9F9"/>
<path d="M75.0699 8.16302H71.18V7.28314C71.2008 6.46805 70.9817 5.66475 70.55 4.97308C70.315 4.63973 69.9961 4.37439 69.6256 4.20404C69.255 4.03369 68.8459 3.96417 68.4399 4.00287C67.989 3.98004 67.5412 4.08773 67.15 4.31292C66.8308 4.50455 66.5577 4.76426 66.3499 5.07318C66.1453 5.41898 66.0032 5.79772 65.93 6.19281C65.852 6.62839 65.8151 7.07064 65.8199 7.51312C65.8156 7.95722 65.8357 8.4008 65.88 8.84271C65.9096 9.17609 66.0084 9.49983 66.17 9.7929C66.3299 10.0849 66.5601 10.3326 66.8399 10.5131C67.2157 10.761 67.6183 10.9655 68.04 11.123L71.01 12.3032C71.7646 12.5747 72.4703 12.9661 73.0999 13.4628C73.6139 13.8915 74.0415 14.4142 74.3599 15.0029C74.6545 15.6632 74.8467 16.3647 74.93 17.0829C75.0359 17.9622 75.0859 18.8472 75.0799 19.7328C75.0897 20.8024 74.9757 21.8697 74.7399 22.913C74.5429 23.8129 74.1653 24.6634 73.63 25.413C73.0819 26.1362 72.3641 26.7129 71.54 27.0927C70.5449 27.5277 69.4655 27.7364 68.38 27.7031C67.4791 27.7092 66.5857 27.5394 65.75 27.2031C64.9667 26.8889 64.2531 26.4232 63.65 25.8329C63.0622 25.2466 62.5906 24.5544 62.26 23.7929C61.9149 22.991 61.7412 22.1258 61.75 21.2529V19.8032H65.64V21.0229C65.6355 21.7175 65.8566 22.3949 66.27 22.9531C66.5255 23.2568 66.8511 23.4937 67.2187 23.6435C67.5863 23.7933 67.9849 23.8515 68.38 23.8129C68.9089 23.8375 69.4362 23.7381 69.92 23.5229C70.281 23.34 70.5801 23.0549 70.78 22.7031C70.9911 22.3075 71.114 21.8705 71.14 21.4228C71.18 20.9228 71.1999 20.3731 71.1999 19.7631C71.2045 19.1788 71.1778 18.5946 71.1199 18.0131C71.0908 17.6275 70.9889 17.2506 70.8199 16.9028C70.6416 16.6229 70.4023 16.3871 70.1199 16.2128C69.7486 15.9931 69.3608 15.8027 68.9599 15.643L66.18 14.5029C64.7611 14.0348 63.5624 13.0638 62.81 11.7729C62.196 10.4426 61.9014 8.98722 61.9499 7.52289C61.9448 6.54071 62.0864 5.56337 62.3699 4.62298C62.6223 3.75767 63.0513 2.95422 63.63 2.26312C64.1792 1.58641 64.8774 1.04562 65.67 0.683042C66.5976 0.270715 67.6051 0.0688797 68.6199 0.0927099C69.5305 0.0838895 70.4329 0.264645 71.27 0.622983C72.042 0.964953 72.7464 1.44266 73.3499 2.03314C73.9046 2.58084 74.3449 3.23329 74.6453 3.95257C74.9458 4.67186 75.1003 5.44358 75.0999 6.22308V8.16205L75.0699 8.16302Z" fill="#F9F9F9"/>
<path d="M81.47 27.4932V4.00293H76.98V0.342773H89.85V4.00293H85.36V27.4932H81.47Z" fill="#F9F9F9"/>
<path d="M92.52 27.4932V0.342773H98.77C103.34 0.342773 105.627 2.99965 105.63 8.31299C105.667 9.70941 105.415 11.0985 104.89 12.3931C104.344 13.5603 103.426 14.5134 102.28 15.103L106.47 27.4932H102.36L98.74 15.9028H96.42V27.4932H92.52ZM96.4 4.00293V12.4629H98.61C99.1715 12.4899 99.7319 12.3908 100.25 12.1729C100.64 11.9987 100.971 11.7137 101.2 11.353C101.418 10.9419 101.56 10.4949 101.62 10.0332C101.702 9.43346 101.739 8.82838 101.73 8.22314C101.734 7.61804 101.697 7.01331 101.62 6.41309C101.562 5.93615 101.405 5.47639 101.16 5.06299C100.828 4.67119 100.404 4.36844 99.9253 4.18164C99.4469 3.99484 98.9297 3.93003 98.42 3.99316H96.4V4.00293Z" fill="#F9F9F9"/>
<path d="M107.94 27.4932L114 0.342773H117.24L123.3 27.4932H119.41L118.27 21.6631H112.98L111.84 27.4932H107.94ZM117.54 17.9932L115.64 8.15283H115.56L113.66 17.9932H117.54Z" fill="#F9F9F9"/>
<path d="M134.19 27.4932V0.342773H145.77V4.00293H138.08V11.9731H144.78V15.6328H138.08V23.603H145.77V27.4932H134.19Z" fill="#F9F9F9"/>
<path d="M147.33 27.4932L152.82 13.2729L147.75 0.342773H151.86L154.79 8.38281L157.76 0.342773H161.87L156.69 13.2729L162.29 27.4932H158.18L154.79 18.3428L151.44 27.4932H147.33Z" fill="#F9F9F9"/>
<path d="M177.34 19.7529V21.4331C177.344 22.2509 177.181 23.0607 176.86 23.813C176.546 24.5525 176.103 25.2299 175.55 25.813C174.991 26.3967 174.326 26.8686 173.59 27.2031C172.829 27.5449 172.004 27.7186 171.17 27.7129C170.41 27.7101 169.654 27.6095 168.92 27.4131C168.163 27.2136 167.459 26.8478 166.86 26.3427C166.226 25.8036 165.715 25.1354 165.36 24.3828C164.934 23.417 164.733 22.3677 164.77 21.313V6.36277C164.76 5.51402 164.917 4.67159 165.23 3.88279C165.523 3.13652 165.966 2.45879 166.532 1.89109C167.098 1.32338 167.775 0.878022 168.52 0.58298C169.336 0.254524 170.21 0.0913924 171.09 0.103C171.917 0.0730265 172.742 0.217044 173.51 0.525363C174.278 0.833682 174.973 1.29949 175.55 1.89304C176.121 2.49174 176.567 3.19912 176.86 3.97312C177.181 4.80565 177.344 5.69069 177.34 6.58298V8.11277H173.45V6.81296C173.463 6.09846 173.234 5.40053 172.8 4.83298C172.597 4.56249 172.332 4.34494 172.028 4.1987C171.723 4.05246 171.388 3.98201 171.05 3.99314C170.677 3.94219 170.298 3.99997 169.957 4.15964C169.617 4.31931 169.329 4.57396 169.13 4.89304C168.786 5.59872 168.621 6.37843 168.65 7.16306V21.0429C168.625 21.7384 168.802 22.4261 169.16 23.0229C169.372 23.3055 169.654 23.5281 169.979 23.6684C170.303 23.8087 170.659 23.8621 171.01 23.8232C171.288 23.821 171.565 23.7768 171.83 23.6928C172.13 23.6027 172.409 23.4531 172.65 23.2529C172.902 23.0206 173.097 22.7333 173.22 22.4131C173.384 21.9892 173.462 21.5371 173.45 21.083V19.7529H177.34Z" fill="#F9F9F9"/>
<path d="M181.45 27.4932V0.342773H185.34V23.603H193.03V27.4932H181.45Z" fill="#F9F9F9"/>
<path d="M209.07 0.342773V21.3931C209.079 22.2372 208.916 23.0743 208.59 23.853C208.273 24.6004 207.814 25.2795 207.24 25.853C206.659 26.433 205.974 26.898 205.22 27.2231C204.45 27.5572 203.619 27.7275 202.78 27.7231C201.947 27.7285 201.122 27.5582 200.36 27.2231C198.856 26.5588 197.654 25.3569 196.99 23.853C196.653 23.0771 196.483 22.239 196.49 21.3931V0.342773H200.38V21.0132C200.347 21.3978 200.392 21.785 200.51 22.1523C200.629 22.5197 200.819 22.8596 201.07 23.1528C201.529 23.5955 202.142 23.8428 202.78 23.8428C203.418 23.8428 204.031 23.5955 204.49 23.1528C204.741 22.8596 204.931 22.5197 205.05 22.1523C205.168 21.785 205.213 21.3978 205.18 21.0132V0.342773H209.07Z" fill="#F9F9F9"/>
<path d="M226.25 8.16302H222.36V7.28314C222.381 6.46805 222.162 5.66475 221.73 4.97308C221.495 4.63973 221.176 4.37439 220.805 4.20404C220.435 4.03369 220.026 3.96417 219.62 4.00287C219.169 3.98004 218.721 4.08773 218.33 4.31292C218.011 4.50455 217.738 4.76426 217.53 5.07318C217.325 5.41898 217.183 5.79772 217.11 6.19281C217.032 6.62839 216.995 7.07064 217 7.51312C216.996 7.95722 217.016 8.4008 217.06 8.84271C217.09 9.17609 217.188 9.49983 217.35 9.7929C217.51 10.0849 217.74 10.3326 218.02 10.5131C218.396 10.761 218.798 10.9655 219.22 11.123L222.19 12.3032C222.945 12.5747 223.65 12.9661 224.28 13.4628C224.794 13.8915 225.222 14.4142 225.54 15.0029C225.835 15.6632 226.027 16.3647 226.11 17.0829C226.216 17.9622 226.266 18.8472 226.26 19.7328C226.27 20.8024 226.156 21.8697 225.92 22.913C225.723 23.8129 225.345 24.6634 224.81 25.413C224.262 26.1362 223.544 26.7129 222.72 27.0927C221.725 27.5277 220.646 27.7364 219.56 27.7031C218.659 27.7092 217.766 27.5394 216.93 27.2031C216.147 26.8889 215.433 26.4232 214.83 25.8329C214.242 25.2466 213.771 24.5544 213.44 23.7929C213.095 22.991 212.921 22.1258 212.93 21.2529V19.8032H216.82V21.0229C216.815 21.7175 217.037 22.3949 217.45 22.9531C217.705 23.2568 218.031 23.4937 218.399 23.6435C218.766 23.7933 219.165 23.8515 219.56 23.8129C220.089 23.8375 220.616 23.7381 221.1 23.5229C221.461 23.34 221.76 23.0549 221.96 22.7031C222.171 22.3075 222.294 21.8705 222.32 21.4228C222.36 20.9228 222.38 20.3731 222.38 19.7631C222.385 19.1788 222.358 18.5946 222.3 18.0131C222.271 17.6275 222.169 17.2506 222 16.9028C221.822 16.6229 221.582 16.3871 221.3 16.2128C220.929 15.9931 220.541 15.8027 220.14 15.643L217.36 14.5029C215.941 14.0348 214.742 13.0638 213.99 11.7729C213.376 10.4426 213.081 8.98722 213.13 7.52289C213.125 6.54071 213.267 5.56337 213.55 4.62298C213.802 3.75767 214.231 2.95422 214.81 2.26312C215.359 1.58641 216.057 1.04562 216.85 0.683042C217.778 0.270715 218.785 0.0688797 219.8 0.0927099C220.711 0.0838895 221.613 0.264645 222.45 0.622983C223.222 0.964953 223.926 1.44266 224.53 2.03314C225.085 2.58084 225.525 3.23329 225.825 3.95257C226.126 4.67186 226.28 5.44358 226.28 6.22308V8.16205L226.25 8.16302Z" fill="#F9F9F9"/>
<path d="M230.21 27.4932V0.342773H234.1V27.4932H230.21Z" fill="#F9F9F9"/>
<path d="M252 0.342773L246.44 27.4932H243.01L237.49 0.342773H241.6L244.68 19.293H244.76L247.88 0.342773H252Z" fill="#F9F9F9"/>
<path d="M252.11 27.4932L258.17 0.342773H261.41L267.47 27.4932H263.58L262.44 21.6631H257.15L256.01 27.4932H252.11ZM261.71 17.9932L259.81 8.15283H259.73L257.83 17.9932H261.71Z" fill="#F9F9F9"/>
<path d="M13.25 52.4731V54.1528C13.2541 54.9706 13.0908 55.7809 12.77 56.5332C12.4563 57.2727 12.0126 57.9501 11.4599 58.5332C10.9009 59.1169 10.2357 59.5883 9.49997 59.9228C8.7393 60.2647 7.91386 60.4389 7.07993 60.4331C6.32015 60.4303 5.5639 60.3292 4.82993 60.1328C4.07242 59.9333 3.36882 59.568 2.76999 59.063C2.13618 58.5239 1.62478 57.8557 1.26999 57.103C0.844412 56.1372 0.64275 55.0879 0.680028 54.0332V39.083C0.670321 38.2342 0.826544 37.3918 1.13999 36.603C1.43277 35.8567 1.87588 35.1785 2.44187 34.6108C3.00786 34.0431 3.68465 33.5982 4.43003 33.3032C5.2465 32.9747 6.11999 32.8116 6.99997 32.8232C7.82721 32.7933 8.65156 32.9368 9.41977 33.2451C10.188 33.5534 10.883 34.0192 11.4599 34.6128C12.0314 35.2115 12.4769 35.9189 12.77 36.6929C13.0911 37.5254 13.2538 38.4109 13.25 39.3032V40.833H9.35996V39.5332C9.37334 38.8187 9.14419 38.1208 8.70994 37.5532C8.50735 37.2827 8.24251 37.0647 7.93784 36.9184C7.63318 36.7722 7.2977 36.7017 6.95994 36.7129C6.58721 36.6619 6.20779 36.7197 5.86716 36.8794C5.52654 37.039 5.23929 37.2937 5.04001 37.6128C4.69578 38.3185 4.53093 39.0982 4.56003 39.8828V53.7632C4.5351 54.4586 4.71213 55.1463 5.06992 55.7431C5.2822 56.0257 5.56449 56.2479 5.88889 56.3882C6.2133 56.5285 6.56873 56.5818 6.92002 56.543C7.1983 56.5407 7.47463 56.497 7.73996 56.4131C8.04004 56.3229 8.31898 56.1733 8.56003 55.9731C8.81228 55.7408 9.00731 55.453 9.12998 55.1328C9.29357 54.709 9.37171 54.2574 9.35996 53.8032V52.4731H13.25Z" fill="#F9F9F9"/>
<path d="M17.14 39.4731C17.1208 38.4769 17.3151 37.4881 17.7099 36.5732C18.0624 35.7736 18.5804 35.0577 19.23 34.4731C19.841 33.9401 20.5466 33.5261 21.31 33.2529C22.8198 32.693 24.4802 32.693 25.99 33.2529C26.7596 33.5322 27.4739 33.9454 28.0999 34.4731C28.7342 35.0646 29.2412 35.7792 29.5899 36.5732C29.9847 37.4881 30.1791 38.4769 30.16 39.4731V53.813C30.1861 54.8228 29.9915 55.826 29.5899 56.7529C29.2428 57.5247 28.7348 58.2134 28.0999 58.7729C27.4831 59.3233 26.767 59.7512 25.99 60.0332C24.4802 60.5931 22.8198 60.5931 21.31 60.0332C20.5401 59.7551 19.833 59.3266 19.23 58.7729C18.5821 58.2184 18.0633 57.529 17.7099 56.7529C17.3065 55.8266 17.1119 54.8229 17.14 53.813V39.4731ZM21.02 53.8032C20.9883 54.186 21.0417 54.571 21.1766 54.9306C21.3115 55.2903 21.5244 55.6152 21.8 55.8828C22.3193 56.3157 22.9739 56.5532 23.65 56.5532C24.3261 56.5532 24.9807 56.3157 25.5 55.8828C25.7763 55.6158 25.9897 55.2909 26.1246 54.9311C26.2595 54.5713 26.3126 54.1861 26.28 53.8032V39.4629C26.3117 39.0801 26.2581 38.6951 26.1233 38.3354C25.9884 37.9758 25.7756 37.6504 25.5 37.3828C24.9807 36.9499 24.3261 36.7129 23.65 36.7129C22.9739 36.7129 22.3193 36.9499 21.8 37.3828C21.5237 37.6498 21.3103 37.9752 21.1754 38.3349C21.0405 38.6947 20.9874 39.08 21.02 39.4629V53.8032Z" fill="#F9F9F9"/>
<path d="M34.54 60.2129V33.063H38.27L43.26 47.4429H43.34L48.29 33.063H52.0601V60.2129H48.1801V43.7031H48.1L44.25 55.373H42.3101L38.5 43.7031H38.42V60.2129H34.54Z" fill="#F9F9F9"/>
<path d="M56.4499 39.4731C56.4307 38.4769 56.6252 37.4881 57.02 36.5732C57.3724 35.7736 57.8905 35.0577 58.54 34.4731C59.1511 33.9401 59.8565 33.5261 60.62 33.2529C62.1297 32.693 63.7903 32.693 65.3 33.2529C66.0697 33.5322 66.784 33.9454 67.41 34.4731C68.0442 35.0646 68.5512 35.7792 68.9 36.5732C69.2948 37.4881 69.4891 38.4769 69.4699 39.4731V53.813C69.496 54.8228 69.3016 55.826 68.9 56.7529C68.5529 57.5247 68.0449 58.2134 67.41 58.7729C66.7932 59.3233 66.0771 59.7512 65.3 60.0332C63.7903 60.5931 62.1297 60.5931 60.62 60.0332C59.85 59.7551 59.143 59.3266 58.54 58.7729C57.8922 58.2184 57.3734 57.529 57.02 56.7529C56.6165 55.8266 56.4218 54.8229 56.4499 53.813V39.4731ZM60.3299 53.8032C60.2982 54.186 60.3518 54.571 60.4867 54.9306C60.6215 55.2903 60.8344 55.6152 61.11 55.8828C61.6292 56.3157 62.2839 56.5532 62.9599 56.5532C63.636 56.5532 64.2908 56.3157 64.81 55.8828C65.0864 55.6158 65.2996 55.2909 65.4345 54.9311C65.5695 54.5713 65.6226 54.1861 65.5899 53.8032V39.4629C65.6216 39.0801 65.5682 38.6951 65.4333 38.3354C65.2985 37.9758 65.0856 37.6504 64.81 37.3828C64.2908 36.9499 63.636 36.7129 62.9599 36.7129C62.2839 36.7129 61.6292 36.9499 61.11 37.3828C60.8336 37.6498 60.6202 37.9752 60.4853 38.3349C60.3504 38.6947 60.2973 39.08 60.3299 39.4629V53.8032Z" fill="#F9F9F9"/>
<path d="M82 60.2129V33.063H85.89V60.2129H82Z" fill="#F9F9F9"/>
<path d="M90.46 60.2129V33.063H94.1899L100.06 49.4229H100.14V33.063H104.03V60.2129H100.37L94.4301 43.8931H94.35V60.2129H90.46Z" fill="#F9F9F9"/>
<path d="M121.65 33.063L116.09 60.2129H112.66L107.14 33.063H111.25L114.33 52.0132H114.41L117.53 33.063H121.65Z" fill="#F9F9F9"/>
<path d="M124.93 60.2129V33.063H136.51V36.7231H128.82V44.6929H135.52V48.353H128.82V56.3232H136.51V60.2129H124.93Z" fill="#F9F9F9"/>
<path d="M152.55 40.8828H148.66V40.0029C148.681 39.1878 148.462 38.3845 148.03 37.6928C147.795 37.3595 147.476 37.0941 147.106 36.9238C146.735 36.7534 146.326 36.6844 145.92 36.7231C145.469 36.7003 145.021 36.8079 144.63 37.0331C144.311 37.2248 144.038 37.484 143.83 37.7929C143.625 38.1387 143.483 38.5179 143.41 38.913C143.332 39.3486 143.295 39.7904 143.3 40.2329C143.296 40.6769 143.316 41.121 143.36 41.5629C143.39 41.8963 143.488 42.2201 143.65 42.5131C143.81 42.8052 144.04 43.0524 144.32 43.2329C144.696 43.4807 145.098 43.6852 145.52 43.8427L148.49 45.0229C149.245 45.2944 149.95 45.6863 150.58 46.183C151.094 46.6118 151.521 47.1344 151.84 47.7231C152.134 48.3835 152.327 49.0849 152.41 49.8032C152.516 50.6824 152.566 51.5675 152.56 52.4531C152.57 53.5226 152.456 54.5894 152.22 55.6328C152.023 56.5326 151.645 57.3831 151.11 58.1328C150.562 58.8559 149.844 59.4331 149.02 59.8129C148.025 60.2479 146.945 60.4561 145.86 60.4228C144.959 60.429 144.066 60.2591 143.23 59.9228C142.447 59.6086 141.733 59.1435 141.13 58.5532C140.542 57.9668 140.071 57.2746 139.74 56.5131C139.395 55.7112 139.221 54.846 139.23 53.9731V52.5229H143.12V53.7431C143.115 54.4377 143.337 55.1146 143.75 55.6728C144.006 55.9765 144.331 56.2139 144.699 56.3637C145.066 56.5135 145.465 56.5717 145.86 56.5331C146.389 56.5577 146.916 56.4584 147.4 56.2431C147.761 56.0602 148.06 55.7747 148.26 55.4228C148.471 55.0272 148.594 54.5907 148.62 54.143C148.66 53.643 148.68 53.0929 148.68 52.4829C148.685 51.8985 148.658 51.3143 148.6 50.7329C148.571 50.3473 148.469 49.9708 148.3 49.623C148.122 49.3431 147.882 49.1073 147.6 48.933C147.229 48.7133 146.841 48.5224 146.44 48.3627L143.66 47.2231C142.241 46.755 141.042 45.784 140.29 44.4931C139.676 43.1628 139.382 41.7074 139.43 40.2431C139.425 39.2609 139.566 38.2831 139.85 37.3427C140.102 36.4774 140.531 35.674 141.11 34.9829C141.659 34.3061 142.357 33.7653 143.15 33.4028C144.078 32.9904 145.085 32.7891 146.1 32.8129C147.01 32.8041 147.913 32.9844 148.75 33.3427C149.522 33.6847 150.226 34.1624 150.83 34.7529C151.385 35.3006 151.825 35.953 152.125 36.6723C152.426 37.3916 152.58 38.1633 152.58 38.9428V40.8818L152.55 40.8828Z" fill="#F9F9F9"/>
<path d="M158.94 60.2129V36.7231H154.45V33.063H167.32V36.7231H162.83V60.2129H158.94Z" fill="#F9F9F9"/>
<path d="M170.1 60.2129V33.063H173.99V60.2129H170.1Z" fill="#F9F9F9"/>
<path d="M178.71 60.2129V33.063H184.96C189.53 33.063 191.817 35.7199 191.82 41.0332C191.857 42.4296 191.605 43.8182 191.08 45.1128C190.534 46.2801 189.616 47.2336 188.47 47.8232L192.66 60.2129H188.55L184.93 48.623H182.61V60.2129H178.71ZM182.6 36.7231V45.1831H184.81C185.372 45.2101 185.932 45.111 186.45 44.8931C186.84 44.7189 187.171 44.4339 187.4 44.0732C187.618 43.6621 187.76 43.2146 187.82 42.7529C187.902 42.1532 187.939 41.5481 187.93 40.9429C187.934 40.3378 187.897 39.733 187.82 39.1328C187.761 38.6559 187.605 38.1966 187.36 37.7832C187.028 37.3914 186.604 37.0882 186.125 36.9014C185.647 36.7146 185.13 36.6498 184.62 36.7129H182.6V36.7231Z" fill="#F9F9F9"/>
<path d="M203.93 60.2129V33.063H215.51V36.7231H207.82V44.6929H214.52V48.353H207.82V56.3232H215.51V60.2129H203.93Z" fill="#F9F9F9"/>
<path d="M218.97 60.2129V33.063H222.7L227.69 47.4429H227.77L232.72 33.063H236.49V60.2129H232.61V43.7031H232.53L228.68 55.373H226.74L222.93 43.7031H222.85V60.2129H218.97Z" fill="#F9F9F9"/>
<path d="M261.71 40.8828H257.82V40.0029C257.841 39.1878 257.622 38.3845 257.19 37.6928C256.955 37.3595 256.636 37.0941 256.265 36.9238C255.895 36.7534 255.486 36.6844 255.08 36.7231C254.629 36.7003 254.181 36.8079 253.79 37.0331C253.471 37.2248 253.198 37.484 252.99 37.7929C252.785 38.1387 252.643 38.5179 252.57 38.913C252.492 39.3486 252.455 39.7904 252.46 40.2329C252.456 40.6769 252.476 41.121 252.52 41.5629C252.55 41.8963 252.648 42.2201 252.81 42.5131C252.97 42.8052 253.2 43.0524 253.48 43.2329C253.856 43.4807 254.258 43.6852 254.68 43.8427L257.65 45.0229C258.405 45.2944 259.11 45.6863 259.74 46.183C260.254 46.6118 260.681 47.1344 261 47.7231C261.294 48.3835 261.487 49.0849 261.57 49.8032C261.676 50.6824 261.726 51.5675 261.72 52.4531C261.73 53.5226 261.616 54.5894 261.38 55.6328C261.183 56.5326 260.805 57.3831 260.27 58.1328C259.722 58.8559 259.004 59.4331 258.18 59.8129C257.185 60.2479 256.105 60.4561 255.02 60.4228C254.119 60.429 253.226 60.2591 252.39 59.9228C251.607 59.6086 250.893 59.1435 250.29 58.5532C249.702 57.9668 249.231 57.2746 248.9 56.5131C248.555 55.7112 248.381 54.846 248.39 53.9731V52.5229H252.28V53.7431C252.276 54.4377 252.497 55.1146 252.91 55.6728C253.166 55.9765 253.491 56.2139 253.859 56.3637C254.226 56.5135 254.625 56.5717 255.02 56.5331C255.549 56.5577 256.076 56.4584 256.56 56.2431C256.921 56.0602 257.22 55.7747 257.42 55.4228C257.631 55.0272 257.754 54.5907 257.78 54.143C257.82 53.643 257.84 53.0929 257.84 52.4829C257.844 51.8985 257.818 51.3143 257.76 50.7329C257.731 50.3473 257.629 49.9708 257.46 49.623C257.282 49.3431 257.042 49.1073 256.76 48.933C256.389 48.7133 256.001 48.5224 255.6 48.3627L252.82 47.2231C251.401 46.755 250.202 45.784 249.45 44.4931C248.836 43.1628 248.541 41.7074 248.59 40.2431C248.585 39.2609 248.726 38.2831 249.01 37.3427C249.262 36.4774 249.691 35.674 250.27 34.9829C250.819 34.3061 251.517 33.7653 252.31 33.4028C253.238 32.9904 254.245 32.7891 255.26 32.8129C256.17 32.8041 257.073 32.9844 257.91 33.3427C258.682 33.6847 259.386 34.1624 259.99 34.7529C260.545 35.3006 260.985 35.953 261.285 36.6723C261.586 37.3916 261.74 38.1633 261.74 38.9428V40.8818L261.71 40.8828Z" fill="#F9F9F9"/>
<path d="M268.11 60.2129V36.7231H263.62V33.063H276.49V36.7231H272V60.2129H268.11Z" fill="#F9F9F9"/>
<path d="M275.31 60.2129L281.37 33.063H284.61L290.67 60.2129H286.78L285.64 54.3828H280.35L279.21 60.2129H275.31ZM284.91 50.7129L283.01 40.873H282.93L281.03 50.7129H284.91Z" fill="#F9F9F9"/>
<path d="M293.51 60.2129V33.063H299.76C304.33 33.063 306.617 35.7199 306.62 41.0332C306.657 42.4296 306.405 43.8182 305.88 45.1128C305.334 46.2801 304.416 47.2336 303.27 47.8232L307.46 60.2129H303.35L299.73 48.623H297.41V60.2129H293.51ZM297.4 36.7231V45.1831H299.61C300.171 45.2101 300.732 45.111 301.25 44.8931C301.64 44.7189 301.971 44.4339 302.2 44.0732C302.418 43.6621 302.56 43.2146 302.62 42.7529C302.702 42.1532 302.739 41.5481 302.73 40.9429C302.734 40.3378 302.697 39.733 302.62 39.1328C302.562 38.6559 302.405 38.1966 302.16 37.7832C301.828 37.3914 301.404 37.0882 300.925 36.9014C300.447 36.7146 299.93 36.6498 299.42 36.7129H297.4V36.7231Z" fill="#F9F9F9"/>
<path d="M312.56 60.2129V36.7231H308.07V33.063H320.94V36.7231H316.45V60.2129H312.56Z" fill="#F9F9F9"/>
<path d="M336.17 33.063V54.1128C336.179 54.9569 336.016 55.7945 335.69 56.5732C335.373 57.3206 334.914 57.9997 334.34 58.5732C333.759 59.1533 333.074 59.6177 332.32 59.9429C331.55 60.277 330.719 60.4472 329.88 60.4429C329.047 60.4483 328.222 60.2779 327.46 59.9429C325.956 59.2785 324.754 58.0771 324.09 56.5732C323.753 55.7973 323.583 54.9588 323.59 54.1128V33.063H327.48V53.7329C327.447 54.1175 327.492 54.5047 327.61 54.8721C327.729 55.2394 327.919 55.5798 328.17 55.873C328.629 56.3157 329.242 56.563 329.88 56.563C330.518 56.563 331.131 56.3157 331.59 55.873C331.841 55.5798 332.031 55.2394 332.15 54.8721C332.268 54.5047 332.313 54.1175 332.28 53.7329V33.063H336.17Z" fill="#F9F9F9"/>
<path d="M340.78 60.2128V33.0629H346.61C347.567 33.0457 348.52 33.1875 349.43 33.4829C350.279 33.7888 351.038 34.3011 351.64 34.9731C352.3 35.6779 352.771 36.5378 353.01 37.4731C353.296 38.7425 353.423 40.042 353.39 41.3427C353.403 42.3767 353.333 43.4104 353.18 44.433C353.04 45.2702 352.738 46.0718 352.29 46.7929C351.775 47.6615 351.041 48.3791 350.16 48.873C349.075 49.413 347.871 49.6675 346.66 49.6127H344.68V60.2128H340.78ZM344.67 36.7231V45.9531H346.54C347.168 45.9871 347.796 45.8702 348.37 45.6127C348.779 45.4041 349.111 45.0719 349.32 44.663C349.536 44.2228 349.658 43.7426 349.68 43.2529C349.72 42.6929 349.74 42.0728 349.74 41.3828C349.74 40.7428 349.73 40.1432 349.7 39.5732C349.683 39.0529 349.567 38.5404 349.36 38.0629C349.168 37.6456 348.85 37.2994 348.45 37.0732C347.904 36.8158 347.303 36.6986 346.7 36.7329H344.67V36.7231Z" fill="#F9F9F9"/>
<path d="M3.47998 85.063H5.35999L8.98999 95.8931H9.06006L12.54 85.063H14.42V102.373H12.5699V90.6528H12.5L9.41003 99.4629H8.5L5.41003 90.6528H5.33997V102.373H3.48999V85.063H3.47998Z" fill="white"/>
<path d="M23.29 98.9429H25.14V99.1128C25.1749 99.5718 25.111 100.033 24.9526 100.465C24.7943 100.898 24.5452 101.291 24.2221 101.619C23.8989 101.946 23.5093 102.202 23.0795 102.366C22.6496 102.531 22.1894 102.601 21.73 102.573C21.2539 102.602 20.7771 102.531 20.3308 102.362C19.8846 102.194 19.4791 101.933 19.1409 101.597C18.8027 101.26 18.5396 100.856 18.3688 100.411C18.198 99.9658 18.1234 99.4894 18.15 99.0132V93.3232C18.1318 92.8663 18.2092 92.4102 18.3773 91.9849C18.5454 91.5595 18.8005 91.174 19.1262 90.853C19.452 90.532 19.8411 90.2825 20.2688 90.1206C20.6965 89.9587 21.1533 89.8882 21.61 89.9131C22.0796 89.8928 22.5483 89.9694 22.9872 90.1377C23.4261 90.306 23.8258 90.5625 24.1614 90.8916C24.497 91.2207 24.7614 91.6148 24.9384 92.0503C25.1153 92.4857 25.2009 92.9529 25.1899 93.4228V96.9331H20V98.8828C20 100.193 20.59 100.763 21.73 100.763C22.82 100.763 23.29 100.093 23.29 99.083V98.9429ZM23.34 95.5532V93.4531C23.3646 93.2259 23.3391 92.9961 23.2654 92.7798C23.1917 92.5635 23.0715 92.366 22.9133 92.2012C22.7551 92.0363 22.5627 91.9078 22.3496 91.8252C22.1365 91.7426 21.9081 91.7079 21.6801 91.7231C21.4451 91.7183 21.2117 91.7631 20.9956 91.8555C20.7795 91.9478 20.5855 92.0852 20.4265 92.2583C20.2676 92.4314 20.1474 92.6366 20.0739 92.8599C20.0003 93.0831 19.9751 93.3195 20 93.5532V95.5532H23.34Z" fill="white"/>
<path d="M30.85 86.373V90.103H32.58V91.583H30.85V99.0332C30.8305 99.2817 30.8641 99.5311 30.9486 99.7656C31.0331 100 31.1665 100.214 31.34 100.393C31.6803 100.624 32.0903 100.73 32.5 100.693H32.7V102.373H32.16C31.7282 102.474 31.2778 102.463 30.8511 102.343C30.4243 102.222 30.035 101.996 29.7195 101.685C29.4039 101.373 29.1724 100.987 29.0466 100.562C28.9208 100.136 28.9048 99.686 29 99.2529V91.583H27.6899V90.103H29V86.373H30.85Z" fill="white"/>
<path d="M35.49 93.3731C35.5092 92.4512 35.8882 91.5734 36.546 90.9273C37.2038 90.2812 38.0882 89.9182 39.0103 89.9155C39.9323 89.9129 40.8188 90.2712 41.4802 90.9136C42.1417 91.5559 42.5257 92.4313 42.55 93.353V99.063C42.55 99.9992 42.1781 100.897 41.5161 101.559C40.8541 102.221 39.9562 102.593 39.02 102.593C38.0838 102.593 37.1859 102.221 36.5239 101.559C35.8619 100.897 35.49 99.9992 35.49 99.063V93.3731ZM40.71 93.7232C40.71 92.3632 39.94 91.7232 39.03 91.7232C38.12 91.7232 37.35 92.3632 37.35 93.7232V98.773C37.35 100.063 37.94 100.773 39.03 100.773C40.07 100.773 40.71 100.103 40.71 98.773V93.7232Z" fill="white"/>
<path d="M53.21 102.383H51.36V101.173C51.0646 101.602 50.6708 101.954 50.2114 102.199C49.7521 102.445 49.2407 102.576 48.72 102.583C46.55 102.583 46.15 100.923 46.15 99.7432V92.7632C46.15 91.5732 46.55 89.9229 48.72 89.9229C49.2407 89.9299 49.7521 90.0618 50.2114 90.3071C50.6708 90.5525 51.0646 90.9042 51.36 91.333V85.0732H53.21V102.383ZM51.36 98.5229V93.9731C51.36 93.2031 51.0601 91.7231 49.5601 91.7231C48.3701 91.7231 48 92.683 48 93.623V98.8628C48 99.8028 48.3701 100.773 49.5601 100.773C51.0601 100.773 51.36 99.2829 51.36 98.5229Z" fill="white"/>
<path d="M56.79 93.3731C56.8092 92.4512 57.1881 91.5734 57.8459 90.9273C58.5038 90.2812 59.3882 89.9182 60.3102 89.9155C61.2322 89.9129 62.1187 90.2712 62.7802 90.9136C63.4416 91.5559 63.8256 92.4313 63.85 93.353V99.063C63.85 99.9992 63.478 100.897 62.816 101.559C62.154 102.221 61.2562 102.593 60.3199 102.593C59.3837 102.593 58.4859 102.221 57.8239 101.559C57.1618 100.897 56.79 99.9992 56.79 99.063V93.3731ZM62 93.7232C62 92.3632 61.2299 91.7232 60.3199 91.7232C59.4099 91.7232 58.64 92.3632 58.64 93.7232V98.773C58.64 100.063 59.2299 100.773 60.3199 100.773C61.3599 100.773 62 100.103 62 98.773V93.7232Z" fill="white"/>
<path d="M69.2901 85.063V99.313C69.2747 99.4955 69.2994 99.6791 69.3623 99.8511C69.4253 100.023 69.5249 100.179 69.6543 100.309C69.7838 100.438 69.94 100.538 70.112 100.601C70.2839 100.664 70.4676 100.688 70.6501 100.673H70.9201V102.383H70.35C69.9729 102.427 69.5907 102.39 69.2298 102.271C68.8689 102.153 68.538 101.958 68.2602 101.699C67.9823 101.44 67.7641 101.124 67.6208 100.772C67.4774 100.421 67.4124 100.042 67.4301 99.6631V85.0732H69.2901V85.063Z" fill="white"/>
<path d="M73.5699 93.3731C73.5891 92.4512 73.9682 91.5734 74.626 90.9273C75.2838 90.2812 76.1682 89.9182 77.0902 89.9155C78.0122 89.9129 78.8987 90.2712 79.5602 90.9136C80.2216 91.5559 80.6056 92.4313 80.63 93.353V99.063C80.63 99.9992 80.2581 100.897 79.5961 101.559C78.9341 102.221 78.0362 102.593 77.1 102.593C76.1638 102.593 75.2659 102.221 74.6039 101.559C73.9419 100.897 73.5699 99.9992 73.5699 99.063V93.3731ZM78.78 93.7232C78.78 92.3632 78.01 91.7232 77.1 91.7232C76.19 91.7232 75.42 92.3632 75.42 93.7232V98.773C75.42 100.063 76.01 100.773 77.1 100.773C78.14 100.773 78.78 100.103 78.78 98.773V93.7232Z" fill="white"/>
<path d="M91.28 103.863C91.3101 104.354 91.2357 104.847 91.0615 105.308C90.8874 105.768 90.6174 106.187 90.2697 106.536C89.9219 106.884 89.5041 107.155 89.0439 107.331C88.5838 107.506 88.0916 107.582 87.6 107.553C87.1501 107.603 86.6948 107.551 86.2671 107.403C85.8393 107.255 85.4498 107.015 85.1265 106.698C84.8031 106.382 84.5541 105.997 84.3973 105.572C84.2406 105.148 84.18 104.694 84.22 104.243H86C85.9994 104.456 86.0438 104.667 86.1304 104.862C86.2169 105.057 86.3436 105.231 86.5022 105.374C86.6608 105.516 86.8477 105.624 87.0507 105.689C87.2536 105.754 87.4681 105.776 87.6801 105.753C87.9054 105.765 88.1307 105.73 88.3424 105.652C88.5541 105.574 88.7478 105.454 88.9115 105.299C89.0752 105.144 89.2057 104.956 89.2948 104.749C89.3839 104.542 89.43 104.318 89.4301 104.093V101.053C89.1347 101.482 88.7407 101.834 88.2814 102.079C87.822 102.324 87.3107 102.456 86.79 102.463C84.62 102.463 84.22 100.803 84.22 99.623V92.7729C84.22 91.5829 84.62 89.9331 86.79 89.9331C87.3107 89.9401 87.822 90.0716 88.2814 90.3169C88.7407 90.5622 89.1347 90.9139 89.4301 91.3428V90.1328H91.28V103.863ZM89.4301 98.3931V93.9629C89.4301 93.1929 89.13 91.7129 87.63 91.7129C86.44 91.7129 86.0699 92.6728 86.0699 93.6128V98.7329C86.0699 99.6729 86.44 100.633 87.63 100.633C89.13 100.643 89.4301 99.1631 89.4301 98.3931Z" fill="white"/>
<path d="M96.8101 85.4131V87.2231H94.96V85.4131H96.8101ZM94.96 90.1128H96.8101V102.383H94.96V90.1128Z" fill="white"/>
<path d="M105.58 101.163H105.55C105.248 101.616 104.834 101.983 104.349 102.23C103.864 102.477 103.324 102.595 102.78 102.573C100.83 102.573 100.26 101.093 100.26 99.1327C100.26 96.5327 101.1 95.0732 103.84 95.0732C104.418 95.0757 104.995 95.1087 105.57 95.1728V93.3627C105.571 93.1383 105.527 92.9161 105.44 92.7094C105.353 92.5027 105.224 92.3159 105.062 92.1606C104.9 92.0052 104.708 91.8848 104.498 91.8061C104.288 91.7274 104.064 91.6923 103.84 91.703C103.419 91.687 103.008 91.8357 102.694 92.1176C102.38 92.3995 102.189 92.7921 102.16 93.2128H100.38C100.375 92.7534 100.466 92.2983 100.648 91.8764C100.83 91.4545 101.098 91.075 101.435 90.7631C101.773 90.4512 102.172 90.2135 102.606 90.0654C103.041 89.9172 103.502 89.8618 103.96 89.9028C106.8 89.9028 107.42 92.0027 107.42 93.5927V102.373H105.57V101.164L105.58 101.163ZM105.58 96.5429C105.163 96.4783 104.742 96.4381 104.32 96.4228C104.012 96.4054 103.703 96.4562 103.417 96.5717C103.131 96.6872 102.873 96.8644 102.663 97.0907C102.453 97.3171 102.295 97.5871 102.202 97.8813C102.108 98.1755 102.08 98.4867 102.12 98.7929C102.12 100.523 102.64 100.993 103.7 100.993C104.233 100.89 104.713 100.604 105.056 100.184C105.4 99.7633 105.585 99.2355 105.58 98.6928V96.5429Z" fill="white"/>
<path d="M117.49 90.1128H119.34V91.3232C119.635 90.8944 120.029 90.5422 120.489 90.2969C120.948 90.0516 121.459 89.9201 121.98 89.9131C124.15 89.9131 124.55 91.5729 124.55 92.7529V99.7329C124.55 100.923 124.16 102.573 121.98 102.573C121.459 102.566 120.948 102.434 120.489 102.189C120.029 101.944 119.635 101.592 119.34 101.163V107.423H117.49V90.1128ZM122.7 98.8628V93.623C122.7 92.683 122.33 91.7231 121.14 91.7231C119.63 91.7231 119.34 93.2031 119.34 93.9731V98.5229C119.34 99.2929 119.64 100.773 121.14 100.773C122.33 100.773 122.7 99.8028 122.7 98.8628Z" fill="white"/>
<path d="M133.33 101.163H133.3C132.998 101.616 132.584 101.983 132.099 102.23C131.614 102.477 131.074 102.595 130.53 102.573C128.58 102.573 128.01 101.093 128.01 99.1327C128.01 96.5327 128.85 95.0732 131.59 95.0732C132.168 95.0757 132.745 95.1087 133.32 95.1728V93.3627C133.321 93.1383 133.277 92.9161 133.19 92.7094C133.103 92.5027 132.974 92.3159 132.812 92.1606C132.65 92.0052 132.458 91.8848 132.248 91.8061C132.038 91.7274 131.814 91.6923 131.59 91.703C131.169 91.687 130.758 91.8357 130.444 92.1176C130.13 92.3995 129.939 92.7921 129.91 93.2128H128.13C128.125 92.7534 128.216 92.2983 128.398 91.8764C128.58 91.4545 128.848 91.075 129.185 90.7631C129.523 90.4512 129.922 90.2135 130.356 90.0654C130.791 89.9172 131.252 89.8618 131.71 89.9028C134.55 89.9028 135.17 92.0027 135.17 93.5927V102.373H133.32V101.164L133.33 101.163ZM133.33 96.5429C132.913 96.4783 132.492 96.4381 132.07 96.4228C131.762 96.4054 131.453 96.4562 131.167 96.5717C130.881 96.6872 130.623 96.8644 130.413 97.0907C130.203 97.3171 130.045 97.5871 129.952 97.8813C129.858 98.1755 129.83 98.4867 129.87 98.7929C129.87 100.523 130.39 100.993 131.45 100.993C131.983 100.89 132.463 100.604 132.806 100.184C133.15 99.7633 133.335 99.2355 133.33 98.6928V96.5429Z" fill="white"/>
<path d="M140.72 90.1128V92.043C142.03 90.263 143.17 89.9431 144.13 89.9131V91.9932H143.78C142.42 91.9932 140.72 92.5329 140.72 95.2329V102.383H138.87V90.1128H140.72Z" fill="white"/>
<path d="M151.31 101.163H151.28C150.978 101.616 150.564 101.983 150.079 102.23C149.594 102.477 149.054 102.595 148.51 102.573C146.56 102.573 145.99 101.093 145.99 99.1327C145.99 96.5327 146.83 95.0732 149.57 95.0732C150.148 95.0757 150.726 95.1087 151.3 95.1728V93.3627C151.302 93.1383 151.257 92.9161 151.17 92.7094C151.083 92.5027 150.954 92.3159 150.792 92.1606C150.63 92.0052 150.438 91.8848 150.228 91.8061C150.018 91.7274 149.794 91.6923 149.57 91.703C149.149 91.687 148.738 91.8357 148.424 92.1176C148.11 92.3995 147.919 92.7921 147.89 93.2128H146.11C146.105 92.7534 146.196 92.2983 146.378 91.8764C146.56 91.4545 146.828 91.075 147.165 90.7631C147.503 90.4512 147.902 90.2135 148.336 90.0654C148.771 89.9172 149.232 89.8618 149.69 89.9028C152.53 89.9028 153.15 92.0027 153.15 93.5927V102.373H151.3V101.164L151.31 101.163ZM151.31 96.5429C150.893 96.4783 150.472 96.4381 150.05 96.4228C149.742 96.4054 149.433 96.4562 149.147 96.5717C148.861 96.6872 148.603 96.8644 148.393 97.0907C148.183 97.3171 148.025 97.5871 147.932 97.8813C147.838 98.1755 147.81 98.4867 147.85 98.7929C147.85 100.523 148.37 100.993 149.43 100.993C149.963 100.89 150.443 100.604 150.786 100.184C151.13 99.7633 151.315 99.2355 151.31 98.6928V96.5429Z" fill="white"/>
<path d="M166.8 102.383H165.34L162.13 90.1128H164.08L166.13 98.7231H166.18L168.18 90.1128H170.06L166.8 102.383Z" fill="white"/>
<path d="M172.49 93.3731C172.509 92.4512 172.888 91.5734 173.546 90.9273C174.204 90.2812 175.088 89.9182 176.01 89.9155C176.932 89.9129 177.819 90.2712 178.48 90.9136C179.142 91.5559 179.526 92.4313 179.55 93.353V99.063C179.55 99.9992 179.178 100.897 178.516 101.559C177.854 102.221 176.956 102.593 176.02 102.593C175.084 102.593 174.186 102.221 173.524 101.559C172.862 100.897 172.49 99.9992 172.49 99.063V93.3731ZM177.7 93.7232C177.7 92.3632 176.93 91.7232 176.02 91.7232C175.11 91.7232 174.34 92.3632 174.34 93.7232V98.773C174.34 100.063 174.93 100.773 176.02 100.773C177.06 100.773 177.7 100.103 177.7 98.773V93.7232Z" fill="white"/>
<path d="M188.35 98.623H190.2V99.123C190.169 100.06 189.772 100.948 189.093 101.596C188.414 102.243 187.509 102.598 186.571 102.585C185.633 102.572 184.738 102.192 184.078 101.526C183.417 100.86 183.045 99.9608 183.04 99.0229V93.4628C183.018 92.9886 183.096 92.5149 183.268 92.0727C183.441 91.6305 183.704 91.2297 184.042 90.8959C184.379 90.5621 184.783 90.3028 185.228 90.1352C185.672 89.9676 186.146 89.8952 186.62 89.9228C187.087 89.888 187.556 89.9521 187.997 90.1108C188.438 90.2694 188.84 90.5191 189.178 90.8437C189.516 91.1683 189.781 91.5605 189.957 91.9946C190.134 92.4286 190.216 92.8946 190.2 93.3627V93.9028H188.35V93.7329C188.35 92.3529 187.56 91.7329 186.62 91.7329C185.66 91.7329 184.89 92.3529 184.89 93.7329V98.7831C184.89 100.093 185.48 100.783 186.62 100.783C187.71 100.783 188.35 100.113 188.35 98.7831V98.623Z" fill="white"/>
<path d="M198.28 98.9429H200.13V99.1128C200.165 99.5718 200.101 100.033 199.943 100.465C199.784 100.898 199.535 101.291 199.212 101.619C198.889 101.947 198.499 102.202 198.069 102.366C197.64 102.531 197.179 102.601 196.72 102.573C196.244 102.603 195.767 102.531 195.321 102.362C194.875 102.194 194.469 101.933 194.131 101.597C193.793 101.26 193.53 100.856 193.359 100.411C193.188 99.9658 193.113 99.4894 193.14 99.0132V93.3232C193.122 92.8663 193.199 92.4102 193.367 91.9849C193.535 91.5596 193.79 91.174 194.116 90.853C194.442 90.532 194.831 90.2825 195.259 90.1206C195.687 89.9587 196.143 89.8882 196.6 89.9131C197.07 89.8928 197.538 89.9694 197.977 90.1377C198.416 90.306 198.816 90.5625 199.151 90.8916C199.487 91.2207 199.751 91.6148 199.928 92.0503C200.105 92.4858 200.191 92.9529 200.18 93.4229V96.9331H194.99V98.8828C194.99 100.193 195.58 100.763 196.72 100.763C197.81 100.763 198.28 100.093 198.28 99.083V98.9429ZM195.24 87.8828H194.1L195.36 85.063H197.93L199.17 87.8828H198.03L196.65 86.1528L195.24 87.8828ZM198.33 95.5532V93.4531C198.355 93.2259 198.329 92.9961 198.255 92.7798C198.182 92.5635 198.062 92.3661 197.903 92.2012C197.745 92.0363 197.553 91.9078 197.34 91.8252C197.127 91.7426 196.898 91.7079 196.67 91.7231C196.435 91.7183 196.202 91.7631 195.986 91.8555C195.769 91.9478 195.575 92.0852 195.417 92.2583C195.258 92.4314 195.137 92.6366 195.064 92.8599C194.99 93.0831 194.965 93.3195 194.99 93.5532V95.5532H198.33Z" fill="white"/>
<path d="M215.13 101.163H215.1C214.798 101.616 214.384 101.983 213.899 102.23C213.414 102.477 212.874 102.595 212.33 102.573C210.38 102.573 209.81 101.093 209.81 99.1327C209.81 96.5327 210.65 95.0732 213.39 95.0732C213.968 95.0757 214.546 95.1087 215.12 95.1728V93.3627C215.121 93.1383 215.077 92.9161 214.99 92.7094C214.903 92.5027 214.774 92.3159 214.612 92.1606C214.45 92.0052 214.258 91.8848 214.048 91.8061C213.838 91.7274 213.614 91.6923 213.39 91.703C212.969 91.687 212.558 91.8357 212.244 92.1176C211.93 92.3995 211.739 92.7921 211.71 93.2128H209.93C209.925 92.7534 210.016 92.2983 210.198 91.8764C210.38 91.4545 210.648 91.075 210.985 90.7631C211.323 90.4512 211.722 90.2135 212.156 90.0654C212.591 89.9172 213.052 89.8618 213.51 89.9028C216.35 89.9028 216.97 92.0027 216.97 93.5927V102.373H215.12V101.164L215.13 101.163ZM215.13 96.5429C214.713 96.4783 214.292 96.4381 213.87 96.4228C213.562 96.4054 213.253 96.4562 212.967 96.5717C212.681 96.6872 212.423 96.8644 212.213 97.0907C212.003 97.3171 211.845 97.5871 211.751 97.8813C211.658 98.1755 211.63 98.4867 211.67 98.7929C211.67 100.523 212.19 100.993 213.25 100.993C213.783 100.89 214.263 100.604 214.606 100.184C214.95 99.7633 215.135 99.2355 215.13 98.6928V96.5429Z" fill="white"/>
<path d="M222.52 85.063V99.313C222.505 99.4955 222.529 99.6791 222.592 99.8511C222.655 100.023 222.755 100.179 222.884 100.309C223.014 100.438 223.17 100.538 223.342 100.601C223.514 100.664 223.698 100.688 223.88 100.673H224.15V102.383H223.58C223.203 102.427 222.821 102.39 222.46 102.271C222.099 102.153 221.768 101.958 221.49 101.699C221.212 101.44 220.994 101.124 220.851 100.772C220.707 100.421 220.642 100.042 220.66 99.6631V85.0732H222.52V85.063Z" fill="white"/>
<path d="M231.93 98.9429H233.78V99.1128C233.815 99.5718 233.751 100.033 233.593 100.465C233.434 100.898 233.185 101.291 232.862 101.619C232.539 101.947 232.149 102.202 231.719 102.366C231.29 102.531 230.829 102.601 230.37 102.573C229.894 102.603 229.417 102.531 228.971 102.362C228.525 102.194 228.119 101.933 227.781 101.597C227.443 101.26 227.18 100.856 227.009 100.411C226.838 99.9658 226.763 99.4894 226.79 99.0132V93.3232C226.772 92.8663 226.849 92.4102 227.017 91.9849C227.185 91.5596 227.441 91.174 227.766 90.853C228.092 90.532 228.481 90.2825 228.909 90.1206C229.337 89.9587 229.793 89.8882 230.25 89.9131C230.72 89.8928 231.188 89.9694 231.627 90.1377C232.066 90.306 232.466 90.5625 232.801 90.8916C233.137 91.2207 233.401 91.6148 233.578 92.0503C233.755 92.4858 233.841 92.9529 233.83 93.4229V96.9331H228.64V98.8828C228.64 100.193 229.23 100.763 230.37 100.763C231.46 100.763 231.93 100.093 231.93 99.083V98.9429ZM231.98 95.5532V93.4531C232.005 93.2259 231.979 92.9961 231.905 92.7798C231.832 92.5635 231.712 92.3661 231.553 92.2012C231.395 92.0363 231.203 91.9078 230.99 91.8252C230.777 91.7426 230.548 91.7079 230.32 91.7231C230.085 91.7183 229.852 91.7631 229.636 91.8555C229.419 91.9478 229.225 92.0852 229.067 92.2583C228.908 92.4314 228.787 92.6366 228.714 92.8599C228.64 93.0831 228.615 93.3195 228.64 93.5532V95.5532H231.98ZM230.6 88.083H229.64L230.78 85.063H232.78L230.6 88.083Z" fill="white"/>
<path d="M239.17 90.1126V91.323C239.46 90.8934 239.85 90.5403 240.306 90.2947C240.763 90.0491 241.272 89.9181 241.79 89.9129C242.288 89.8794 242.785 89.9955 243.216 90.2468C243.647 90.4981 243.993 90.8732 244.21 91.323C244.496 90.8776 244.892 90.5134 245.359 90.2664C245.827 90.0193 246.351 89.8976 246.88 89.9129C248.59 89.9129 249.4 91.073 249.4 92.803V102.373H247.55V93.6126C247.55 92.5526 247.11 91.7127 245.99 91.7127C244.83 91.7127 244.28 92.7727 244.28 93.9627V102.373H242.43V93.6126C242.43 92.8426 242.13 91.7127 240.9 91.7127C239.71 91.7127 239.17 92.8227 239.17 93.9627V102.373H237.32V90.1028H239.17V90.1126Z" fill="white"/>
<path d="M266.52 102.383H264.67V101.173C264.375 101.602 263.981 101.954 263.521 102.199C263.062 102.445 262.551 102.576 262.03 102.583C259.86 102.583 259.46 100.923 259.46 99.7432V92.7632C259.46 91.5732 259.86 89.9229 262.03 89.9229C262.551 89.9299 263.062 90.0618 263.521 90.3071C263.981 90.5525 264.375 90.9042 264.67 91.333V85.0732H266.52V102.383ZM264.66 98.5229V93.9731C264.66 93.2031 264.36 91.7231 262.86 91.7231C261.67 91.7231 261.3 92.683 261.3 93.623V98.8628C261.3 99.8028 261.67 100.773 262.86 100.773C264.37 100.773 264.66 99.2829 264.66 98.5229Z" fill="white"/>
<path d="M275.24 98.9429H277.09V99.1128C277.125 99.5718 277.061 100.033 276.903 100.465C276.744 100.898 276.495 101.291 276.172 101.619C275.849 101.946 275.459 102.202 275.029 102.366C274.6 102.531 274.14 102.601 273.68 102.573C273.204 102.602 272.727 102.531 272.281 102.362C271.835 102.194 271.429 101.933 271.091 101.597C270.753 101.26 270.49 100.856 270.319 100.411C270.148 99.9658 270.073 99.4894 270.1 99.0132V93.3232C270.082 92.8663 270.159 92.4102 270.327 91.9849C270.495 91.5595 270.75 91.174 271.076 90.853C271.402 90.532 271.791 90.2825 272.219 90.1206C272.647 89.9587 273.103 89.8882 273.56 89.9131C274.03 89.8928 274.498 89.9694 274.937 90.1377C275.376 90.306 275.776 90.5625 276.111 90.8916C276.447 91.2207 276.711 91.6148 276.888 92.0503C277.065 92.4857 277.151 92.9529 277.14 93.4228V96.9331H271.95V98.8828C271.95 100.193 272.54 100.763 273.68 100.763C274.77 100.763 275.24 100.093 275.24 99.083V98.9429ZM275.29 95.5532V93.4531C275.315 93.2259 275.289 92.9961 275.215 92.7798C275.142 92.5635 275.021 92.366 274.863 92.2012C274.705 92.0363 274.513 91.9078 274.3 91.8252C274.087 91.7426 273.858 91.7079 273.63 91.7231C273.395 91.7183 273.162 91.7631 272.946 91.8555C272.729 91.9478 272.535 92.0852 272.376 92.2583C272.218 92.4314 272.097 92.6366 272.024 92.8599C271.95 93.0831 271.925 93.3195 271.95 93.5532V95.5532H275.29Z" fill="white"/>
<path d="M8.05005 124.053C7.93005 122.673 7.16001 122.373 6.39001 122.373C6.17473 122.339 5.95432 122.356 5.74695 122.423C5.53958 122.491 5.35117 122.606 5.19702 122.76C5.04287 122.914 4.92737 123.103 4.86011 123.31C4.79284 123.517 4.77575 123.738 4.81006 123.953C4.81006 124.913 5.48002 125.313 6.27002 125.683L7.80005 126.423C8.3841 126.687 8.88661 127.103 9.25525 127.627C9.62389 128.152 9.84518 128.765 9.896 129.404C9.94682 130.043 9.82531 130.684 9.54419 131.26C9.26307 131.836 8.83257 132.327 8.29761 132.68C7.76264 133.033 7.14276 133.236 6.50256 133.268C5.86237 133.3 5.2253 133.16 4.65771 132.862C4.09013 132.564 3.61281 132.12 3.27551 131.575C2.93822 131.03 2.7533 130.404 2.73999 129.763H4.62C4.72 131.073 5.31003 131.543 6.28003 131.543C6.52136 131.575 6.76674 131.551 6.99731 131.473C7.22789 131.395 7.43748 131.265 7.60962 131.093C7.78176 130.921 7.91188 130.711 7.98999 130.48C8.0681 130.25 8.09213 130.005 8.06006 129.763C8.06006 128.843 7.76 128.383 6.5 127.763L4.98999 127.023C4.33814 126.788 3.78399 126.341 3.41602 125.753C3.04805 125.166 2.88745 124.472 2.95996 123.783C2.95996 122.123 4.04999 120.613 6.48999 120.613C9.17999 120.613 9.85002 122.513 9.90002 124.053H8.05005Z" fill="white"/>
<path d="M18.15 129.643H20V129.813C20.0349 130.272 19.971 130.733 19.8126 131.165C19.6543 131.598 19.4052 131.991 19.082 132.319C18.7589 132.647 18.3693 132.901 17.9395 133.066C17.5096 133.23 17.0494 133.301 16.59 133.273C16.1139 133.302 15.6372 133.23 15.1909 133.062C14.7447 132.894 14.339 132.633 14.0009 132.297C13.6627 131.961 13.3995 131.556 13.2288 131.111C13.058 130.665 12.9834 130.189 13.01 129.713V124.023C12.9918 123.566 13.0692 123.11 13.2373 122.685C13.4054 122.26 13.6605 121.874 13.9862 121.553C14.3119 121.232 14.7011 120.983 15.1288 120.821C15.5565 120.659 16.0133 120.588 16.47 120.613C16.9396 120.593 17.4083 120.669 17.8472 120.837C18.286 121.006 18.6857 121.262 19.0214 121.591C19.357 121.92 19.6215 122.315 19.7985 122.75C19.9754 123.186 20.061 123.653 20.0501 124.123V127.633H14.86V129.583C14.86 130.893 15.45 131.463 16.59 131.463C17.68 131.463 18.15 130.793 18.15 129.783V129.643ZM18.2 126.253V124.153C18.2246 123.926 18.1992 123.696 18.1255 123.479C18.0518 123.263 17.9315 123.066 17.7733 122.901C17.6151 122.736 17.4227 122.608 17.2096 122.525C16.9965 122.443 16.7681 122.408 16.54 122.423C16.3051 122.418 16.0717 122.463 15.8556 122.556C15.6395 122.648 15.4454 122.785 15.2865 122.958C15.1276 123.132 15.0074 123.336 14.9338 123.56C14.8603 123.783 14.8351 124.019 14.86 124.253V126.253H18.2Z" fill="white"/>
<path d="M32.09 117.073V120.803H33.8199V122.283H32.09V129.733C32.0704 129.981 32.1041 130.231 32.1886 130.466C32.2731 130.7 32.4064 130.914 32.58 131.093C32.9203 131.324 33.3303 131.43 33.74 131.393H33.9399V133.073H33.4C32.9682 133.174 32.5178 133.163 32.0911 133.043C31.6643 132.923 31.275 132.696 30.9595 132.385C30.6439 132.073 30.4124 131.686 30.2866 131.261C30.1608 130.836 30.1448 130.386 30.24 129.953V122.283H28.9301V120.803H30.24V117.073H32.09Z" fill="white"/>
<path d="M36.73 124.073C36.7492 123.151 37.1282 122.274 37.786 121.627C38.4438 120.981 39.3282 120.618 40.2502 120.615C41.1723 120.613 42.0588 120.971 42.7202 121.613C43.3817 122.256 43.7656 123.132 43.79 124.053V129.763C43.79 130.699 43.4181 131.597 42.7561 132.259C42.0941 132.921 41.1962 133.293 40.26 133.293C39.3238 133.293 38.4259 132.921 37.7639 132.259C37.1019 131.597 36.73 130.699 36.73 129.763V124.073ZM41.9399 124.423C41.9399 123.063 41.17 122.423 40.26 122.423C39.35 122.423 38.58 123.063 38.58 124.423V129.473C38.58 130.763 39.17 131.473 40.26 131.473C41.3 131.473 41.9399 130.803 41.9399 129.473V124.423Z" fill="white"/>
<path d="M49.23 120.813V122.743C50.54 120.963 51.68 120.643 52.64 120.613V122.693H52.29C50.93 122.693 49.23 123.233 49.23 125.933V133.083H47.38V120.813H49.23Z" fill="white"/>
<path d="M55.1899 120.813H57.04V122.023C57.3354 121.594 57.7293 121.242 58.1886 120.997C58.6479 120.752 59.1594 120.62 59.6801 120.613C61.8501 120.613 62.25 122.273 62.25 123.453V133.073H60.4V124.313C60.4 123.373 60.03 122.413 58.84 122.413C57.33 122.413 57.04 123.893 57.04 124.663V133.073H55.1899V120.813Z" fill="white"/>
<path d="M71.02 131.873H71C70.6979 132.326 70.2844 132.693 69.7993 132.94C69.3142 133.187 68.7738 133.305 68.23 133.283C66.28 133.283 65.71 131.803 65.71 129.843C65.71 127.243 66.55 125.783 69.29 125.783C69.8681 125.786 70.4455 125.819 71.02 125.883V124.073C71.0215 123.849 70.9772 123.626 70.8899 123.419C70.8026 123.213 70.674 123.026 70.5121 122.871C70.3502 122.715 70.1584 122.595 69.9482 122.516C69.7381 122.437 69.5142 122.402 69.29 122.413C68.8687 122.397 68.4575 122.546 68.1439 122.828C67.8303 123.109 67.6388 123.502 67.61 123.923H65.83C65.8249 123.463 65.9162 123.008 66.098 122.586C66.2798 122.164 66.5481 121.785 66.8854 121.474C67.2227 121.162 67.6217 120.924 68.0565 120.775C68.4914 120.627 68.9525 120.572 69.41 120.613C72.25 120.613 72.87 122.713 72.87 124.303V133.083H71.02V131.874V131.873ZM71.02 127.243C70.6027 127.178 70.182 127.138 69.76 127.123C69.4517 127.106 69.1433 127.156 68.8569 127.272C68.5705 127.387 68.3131 127.565 68.103 127.791C67.8929 128.017 67.7353 128.287 67.6415 128.581C67.5476 128.876 67.5199 129.187 67.5601 129.493C67.5601 131.223 68.08 131.693 69.14 131.693C69.6729 131.59 70.1528 131.303 70.4963 130.883C70.8398 130.463 71.0252 129.936 71.02 129.393V127.243Z" fill="white"/>
<path d="M78.41 120.813V122.743C79.72 120.963 80.8599 120.643 81.8199 120.613V122.693H81.47C80.11 122.693 78.41 123.233 78.41 125.933V133.083H76.5601V120.813H78.41Z" fill="white"/>
<path d="M97.8 133.083H95.95V131.873C95.6546 132.302 95.2607 132.654 94.8014 132.899C94.3421 133.144 93.8307 133.276 93.3101 133.283C91.1401 133.283 90.74 131.623 90.74 130.443V120.823H92.59V129.583C92.59 130.523 92.96 131.493 94.15 131.493C95.66 131.493 95.95 130.013 95.95 129.243V120.833H97.8V133.083Z" fill="white"/>
<path d="M103.34 120.813V122.023C103.63 121.594 104.02 121.241 104.476 120.995C104.933 120.75 105.442 120.618 105.96 120.613C106.458 120.58 106.955 120.696 107.386 120.948C107.817 121.199 108.163 121.573 108.38 122.023C108.666 121.578 109.062 121.214 109.529 120.967C109.997 120.72 110.521 120.598 111.05 120.613C112.76 120.613 113.57 121.773 113.57 123.503V133.073H111.72V124.313C111.72 123.253 111.28 122.413 110.16 122.413C109 122.413 108.45 123.473 108.45 124.663V133.073H106.6V124.313C106.6 123.543 106.3 122.413 105.07 122.413C103.88 122.413 103.34 123.523 103.34 124.663V133.073H101.49V120.803H103.34V120.813Z" fill="white"/>
<path d="M128.66 129.643H130.51V129.813C130.545 130.272 130.481 130.733 130.323 131.165C130.164 131.598 129.915 131.991 129.592 132.319C129.269 132.647 128.879 132.901 128.449 133.066C128.02 133.23 127.559 133.301 127.1 133.273C126.624 133.302 126.147 133.23 125.701 133.062C125.255 132.894 124.849 132.633 124.511 132.297C124.173 131.961 123.91 131.556 123.739 131.111C123.568 130.665 123.493 130.189 123.52 129.713V124.023C123.502 123.566 123.579 123.11 123.747 122.685C123.915 122.26 124.17 121.874 124.496 121.553C124.822 121.232 125.211 120.983 125.639 120.821C126.067 120.659 126.523 120.588 126.98 120.613C127.45 120.593 127.918 120.669 128.357 120.837C128.796 121.006 129.196 121.262 129.531 121.591C129.867 121.92 130.131 122.315 130.308 122.75C130.485 123.186 130.571 123.653 130.56 124.123V127.633H125.37V129.583C125.37 130.893 125.96 131.463 127.1 131.463C128.19 131.463 128.66 130.793 128.66 129.783V129.643ZM128.71 126.253V124.153C128.735 123.926 128.709 123.696 128.635 123.479C128.562 123.263 128.442 123.066 128.283 122.901C128.125 122.736 127.933 122.608 127.72 122.525C127.507 122.443 127.278 122.408 127.05 122.423C126.815 122.418 126.582 122.463 126.366 122.556C126.149 122.648 125.955 122.785 125.797 122.958C125.638 123.132 125.517 123.336 125.444 123.56C125.37 123.783 125.345 124.019 125.37 124.253V126.253H128.71Z" fill="white"/>
<path d="M135.9 120.813V122.023C136.19 121.594 136.58 121.241 137.036 120.995C137.493 120.75 138.002 120.618 138.52 120.613C139.018 120.58 139.515 120.696 139.946 120.948C140.377 121.199 140.723 121.573 140.94 122.023C141.226 121.578 141.622 121.214 142.089 120.967C142.557 120.72 143.081 120.598 143.61 120.613C145.32 120.613 146.13 121.773 146.13 123.503V133.073H144.28V124.313C144.28 123.253 143.84 122.413 142.72 122.413C141.56 122.413 141.01 123.473 141.01 124.663V133.073H139.16V124.313C139.16 123.543 138.86 122.413 137.63 122.413C136.44 122.413 135.9 123.523 135.9 124.663V133.073H134.05V120.803H135.9V120.813Z" fill="white"/>
<path d="M149.81 120.813H151.66V122.023C151.955 121.594 152.349 121.242 152.809 120.997C153.268 120.752 153.779 120.62 154.3 120.613C156.47 120.613 156.87 122.273 156.87 123.453V130.433C156.87 131.623 156.48 133.273 154.3 133.273C153.779 133.266 153.268 133.134 152.809 132.889C152.349 132.644 151.955 132.292 151.66 131.863V138.123H149.81V120.813ZM155.02 129.563V124.323C155.02 123.383 154.65 122.423 153.46 122.423C151.95 122.423 151.66 123.903 151.66 124.673V129.223C151.66 129.993 151.96 131.473 153.46 131.473C154.65 131.473 155.02 130.513 155.02 129.563Z" fill="white"/>
<path d="M162.41 120.813V122.743C163.72 120.963 164.86 120.643 165.82 120.613V122.693H165.47C164.11 122.693 162.41 123.233 162.41 125.933V133.083H160.56V120.813H162.41Z" fill="white"/>
<path d="M173.15 129.643H175V129.813C175.035 130.272 174.971 130.733 174.813 131.165C174.654 131.598 174.405 131.991 174.082 132.319C173.759 132.647 173.369 132.901 172.939 133.066C172.51 133.23 172.049 133.301 171.59 133.273C171.114 133.302 170.637 133.23 170.191 133.062C169.745 132.894 169.339 132.633 169.001 132.297C168.663 131.961 168.4 131.556 168.229 131.111C168.058 130.665 167.983 130.189 168.01 129.713V124.023C167.992 123.566 168.069 123.11 168.237 122.685C168.405 122.26 168.66 121.874 168.986 121.553C169.312 121.232 169.701 120.983 170.129 120.821C170.557 120.659 171.013 120.588 171.47 120.613C171.94 120.593 172.408 120.669 172.847 120.837C173.286 121.006 173.686 121.262 174.021 121.591C174.357 121.92 174.622 122.315 174.798 122.75C174.975 123.186 175.061 123.653 175.05 124.123V127.633H169.86V129.583C169.86 130.893 170.45 131.463 171.59 131.463C172.68 131.463 173.15 130.793 173.15 129.783V129.643ZM173.2 126.253V124.153C173.225 123.926 173.199 123.696 173.125 123.479C173.052 123.263 172.932 123.066 172.773 122.901C172.615 122.736 172.423 122.608 172.21 122.525C171.997 122.443 171.768 122.408 171.54 122.423C171.305 122.418 171.072 122.463 170.856 122.556C170.639 122.648 170.445 122.785 170.287 122.958C170.128 123.132 170.007 123.336 169.934 123.56C169.86 123.783 169.835 124.019 169.86 124.253V126.253H173.2Z" fill="white"/>
<path d="M183.58 129.643H185.43V129.813C185.465 130.272 185.401 130.733 185.243 131.165C185.084 131.598 184.835 131.991 184.512 132.319C184.189 132.647 183.799 132.901 183.37 133.066C182.94 133.23 182.479 133.301 182.02 133.273C181.544 133.302 181.067 133.23 180.621 133.062C180.175 132.894 179.769 132.633 179.431 132.297C179.093 131.961 178.829 131.556 178.659 131.111C178.488 130.665 178.413 130.189 178.44 129.713V124.023C178.422 123.566 178.499 123.11 178.667 122.685C178.835 122.26 179.091 121.874 179.416 121.553C179.742 121.232 180.131 120.983 180.559 120.821C180.987 120.659 181.443 120.588 181.9 120.613C182.37 120.593 182.838 120.669 183.277 120.837C183.716 121.006 184.116 121.262 184.451 121.591C184.787 121.92 185.051 122.315 185.228 122.75C185.405 123.186 185.491 123.653 185.48 124.123V127.633H180.29V129.583C180.29 130.893 180.88 131.463 182.02 131.463C183.11 131.463 183.58 130.793 183.58 129.783V129.643ZM183.63 126.253V124.153C183.655 123.926 183.629 123.696 183.555 123.479C183.482 123.263 183.362 123.066 183.203 122.901C183.045 122.736 182.853 122.608 182.64 122.525C182.427 122.443 182.198 122.408 181.97 122.423C181.735 122.418 181.502 122.463 181.286 122.556C181.069 122.648 180.875 122.785 180.717 122.958C180.558 123.132 180.437 123.336 180.364 123.56C180.29 123.783 180.265 124.019 180.29 124.253V126.253H183.63Z" fill="white"/>
<path d="M188.97 120.813H190.82V122.023C191.115 121.594 191.509 121.242 191.969 120.997C192.428 120.752 192.939 120.62 193.46 120.613C195.63 120.613 196.03 122.273 196.03 123.453V133.073H194.18V124.313C194.18 123.373 193.81 122.413 192.62 122.413C191.11 122.413 190.82 123.893 190.82 124.663V133.073H188.97V120.813Z" fill="white"/>
<path d="M206.78 133.083H204.93V131.873C204.635 132.302 204.241 132.654 203.781 132.899C203.322 133.144 202.811 133.276 202.29 133.283C200.12 133.283 199.72 131.623 199.72 130.443V123.463C199.72 122.273 200.12 120.623 202.29 120.623C202.811 120.63 203.322 120.762 203.781 121.007C204.241 121.252 204.635 121.604 204.93 122.033V115.773H206.78V133.083ZM204.93 129.223V124.673C204.93 123.903 204.63 122.423 203.13 122.423C201.94 122.423 201.57 123.383 201.57 124.323V129.563C201.57 130.503 201.94 131.473 203.13 131.473C204.63 131.473 204.93 129.993 204.93 129.223Z" fill="white"/>
<path d="M215.5 129.643H217.35V129.813C217.385 130.272 217.321 130.733 217.163 131.165C217.004 131.598 216.755 131.991 216.432 132.319C216.109 132.647 215.719 132.901 215.289 133.066C214.86 133.23 214.399 133.301 213.94 133.273C213.464 133.302 212.987 133.23 212.541 133.062C212.095 132.894 211.689 132.633 211.351 132.297C211.013 131.961 210.75 131.556 210.579 131.111C210.408 130.665 210.333 130.189 210.36 129.713V124.023C210.342 123.566 210.419 123.11 210.587 122.685C210.755 122.26 211.01 121.874 211.336 121.553C211.662 121.232 212.051 120.983 212.479 120.821C212.907 120.659 213.363 120.588 213.82 120.613C214.29 120.593 214.758 120.669 215.197 120.837C215.636 121.006 216.036 121.262 216.371 121.591C216.707 121.92 216.972 122.315 217.148 122.75C217.325 123.186 217.411 123.653 217.4 124.123V127.633H212.21V129.583C212.21 130.893 212.8 131.463 213.94 131.463C215.03 131.463 215.5 130.793 215.5 129.783V129.643ZM215.55 126.253V124.153C215.575 123.926 215.549 123.696 215.475 123.479C215.402 123.263 215.282 123.066 215.123 122.901C214.965 122.736 214.773 122.608 214.56 122.525C214.347 122.443 214.118 122.408 213.89 122.423C213.655 122.418 213.422 122.463 213.206 122.556C212.989 122.648 212.795 122.785 212.636 122.958C212.478 123.132 212.357 123.336 212.284 123.56C212.21 123.783 212.185 124.019 212.21 124.253V126.253H215.55Z" fill="white"/>
<path d="M227.95 133.083H226.1V131.873C225.805 132.302 225.411 132.654 224.951 132.899C224.492 133.144 223.981 133.276 223.46 133.283C221.29 133.283 220.89 131.623 220.89 130.443V123.463C220.89 122.273 221.29 120.623 223.46 120.623C223.981 120.63 224.492 120.762 224.951 121.007C225.411 121.252 225.805 121.604 226.1 122.033V115.773H227.95V133.083ZM226.1 129.223V124.673C226.1 123.903 225.8 122.423 224.3 122.423C223.11 122.423 222.74 123.383 222.74 124.323V129.563C222.74 130.503 223.11 131.473 224.3 131.473C225.8 131.473 226.1 129.993 226.1 129.223Z" fill="white"/>
<path d="M231.53 124.073C231.549 123.151 231.928 122.274 232.586 121.627C233.244 120.981 234.128 120.618 235.05 120.615C235.972 120.613 236.859 120.971 237.52 121.613C238.182 122.256 238.566 123.132 238.59 124.053V129.763C238.59 130.699 238.218 131.597 237.556 132.259C236.894 132.921 235.996 133.293 235.06 133.293C234.124 133.293 233.226 132.921 232.564 132.259C231.902 131.597 231.53 130.699 231.53 129.763V124.073ZM236.75 124.423C236.75 123.063 235.98 122.423 235.07 122.423C234.16 122.423 233.39 123.063 233.39 124.423V129.473C233.39 130.763 233.98 131.473 235.07 131.473C236.11 131.473 236.75 130.803 236.75 129.473V124.423Z" fill="white"/>
<path d="M244.04 120.813V122.743C245.35 120.963 246.49 120.643 247.45 120.613V122.693H247.1C245.74 122.693 244.04 123.233 244.04 125.933V133.083H242.19V120.813H244.04Z" fill="white"/>
<path d="M258.22 115.763V130.013C258.205 130.196 258.229 130.379 258.292 130.551C258.355 130.723 258.455 130.879 258.584 131.009C258.714 131.138 258.87 131.238 259.042 131.301C259.214 131.364 259.398 131.388 259.58 131.373H259.85V133.083H259.28C258.903 133.128 258.521 133.089 258.16 132.971C257.799 132.853 257.468 132.658 257.19 132.399C256.912 132.141 256.694 131.824 256.551 131.473C256.407 131.121 256.342 130.742 256.36 130.363V115.773H258.22V115.763Z" fill="white"/>
<path d="M269.65 133.083H267.8V131.873C267.505 132.302 267.111 132.654 266.651 132.899C266.192 133.144 265.681 133.276 265.16 133.283C262.99 133.283 262.59 131.623 262.59 130.443V120.823H264.44V129.583C264.44 130.523 264.81 131.493 266 131.493C267.51 131.493 267.8 130.013 267.8 129.243V120.833H269.65V133.083Z" fill="white"/>
<path d="M278.45 124.773V126.353H273.16V124.773H278.45Z" fill="white"/>
<path d="M8.5401 160.023H10.3901V160.523C10.3591 161.46 9.96163 162.348 9.28302 162.996C8.60441 163.643 7.69887 163.998 6.76105 163.985C5.82322 163.972 4.9279 163.592 4.26764 162.926C3.60738 162.26 3.23482 161.361 3.23004 160.423V154.863C3.20779 154.389 3.28548 153.915 3.45807 153.473C3.63065 153.031 3.89431 152.63 4.23187 152.296C4.56943 151.962 4.97338 151.703 5.41754 151.536C5.8617 151.368 6.33619 151.296 6.81012 151.323C7.27725 151.288 7.74644 151.352 8.18719 151.511C8.62794 151.669 9.03033 151.919 9.3681 152.244C9.70587 152.568 9.97143 152.96 10.1475 153.395C10.3236 153.829 10.4063 154.295 10.3901 154.763V155.303H8.5401V155.133C8.5401 153.753 7.75012 153.133 6.81012 153.133C5.85012 153.133 5.08002 153.753 5.08002 155.133V160.183C5.08002 161.493 5.67012 162.183 6.81012 162.183C7.90012 162.183 8.5401 161.513 8.5401 160.183V160.023Z" fill="white"/>
<path d="M15.29 151.513V153.443C16.6 151.663 17.74 151.343 18.7 151.313V153.393H18.35C16.99 153.393 15.29 153.933 15.29 156.633V163.783H13.4399V151.513H15.29Z" fill="white"/>
<path d="M25.89 162.573H25.86C25.5579 163.026 25.1444 163.393 24.6593 163.64C24.1742 163.887 23.6338 164.005 23.09 163.983C21.14 163.983 20.5699 162.503 20.5699 160.543C20.5699 157.943 21.41 156.483 24.15 156.483C24.7281 156.485 25.3055 156.519 25.88 156.583V154.773C25.8815 154.548 25.8372 154.326 25.7499 154.12C25.6626 153.913 25.534 153.726 25.3721 153.571C25.2102 153.415 25.0184 153.294 24.8082 153.216C24.5981 153.137 24.3742 153.102 24.15 153.113C23.7287 153.097 23.3175 153.245 23.0039 153.527C22.6903 153.809 22.4988 154.202 22.47 154.623H20.6899C20.6849 154.164 20.7762 153.708 20.958 153.286C21.1398 152.864 21.408 152.485 21.7454 152.173C22.0827 151.861 22.4817 151.624 22.9165 151.476C23.3514 151.327 23.8124 151.272 24.27 151.313C27.11 151.313 27.73 153.413 27.73 155.003V163.783H25.88V162.574L25.89 162.573ZM25.89 157.943C25.4727 157.878 25.052 157.838 24.63 157.823C24.3217 157.806 24.0133 157.857 23.7269 157.972C23.4405 158.088 23.1831 158.265 22.973 158.491C22.7629 158.717 22.6053 158.987 22.5115 159.281C22.4176 159.575 22.3899 159.887 22.4301 160.193C22.4301 161.923 22.95 162.393 24.01 162.393C24.5429 162.29 25.0228 162.004 25.3663 161.583C25.7098 161.163 25.8952 160.635 25.89 160.093V157.943Z" fill="white"/>
<path d="M33.59 147.783V151.513H35.3199V152.993H33.59V160.443C33.5704 160.691 33.6041 160.941 33.6886 161.176C33.7731 161.41 33.9064 161.624 34.08 161.803C34.4203 162.034 34.8303 162.14 35.24 162.103H35.4399V163.783H34.9C34.4682 163.884 34.0178 163.873 33.5911 163.753C33.1643 163.633 32.775 163.406 32.4595 163.095C32.1439 162.783 31.9124 162.396 31.7866 161.971C31.6608 161.546 31.6448 161.096 31.74 160.663V152.993H30.4301V151.513H31.74V147.783H33.59Z" fill="white"/>
<path d="M40.1899 146.813V148.623H38.34V146.813H40.1899ZM38.34 151.513H40.1899V163.783H38.34V151.513Z" fill="white"/>
<path d="M47.45 163.783H45.99L42.78 151.513H44.73L46.78 160.123H46.83L48.83 151.513H50.71L47.45 163.783Z" fill="white"/>
<path d="M53.14 154.783C53.1592 153.861 53.5381 152.984 54.1959 152.337C54.8537 151.691 55.7383 151.328 56.6603 151.326C57.5823 151.323 58.4688 151.681 59.1302 152.323C59.7917 152.966 60.1756 153.841 60.2 154.763V160.473C60.2 161.409 59.8281 162.307 59.1661 162.969C58.5041 163.631 57.6063 164.003 56.67 164.003C55.7338 164.003 54.836 163.631 54.174 162.969C53.5119 162.307 53.14 161.409 53.14 160.473V154.783ZM58.35 155.123C58.35 153.763 57.58 153.123 56.67 153.123C55.76 153.123 54.99 153.763 54.99 155.123V160.173C54.99 161.463 55.58 162.173 56.67 162.173C57.71 162.173 58.35 161.503 58.35 160.173V155.123Z" fill="white"/>
<path d="M65.86 161.683V164.013L63.74 165.913V161.683H65.86Z" fill="white"/>
<path d="M80.83 154.753C80.71 153.373 79.94 153.073 79.17 153.073C78.9548 153.039 78.7343 153.056 78.527 153.123C78.3196 153.19 78.1312 153.306 77.9771 153.46C77.8229 153.614 77.7074 153.802 77.6401 154.01C77.5729 154.217 77.5557 154.438 77.59 154.653C77.59 155.613 78.26 156.013 79.05 156.383L80.58 157.123C81.164 157.387 81.6666 157.803 82.0353 158.328C82.4039 158.852 82.6251 159.466 82.6759 160.104C82.7267 160.743 82.6053 161.384 82.3242 161.96C82.0431 162.537 81.6126 163.027 81.0776 163.38C80.5427 163.733 79.9228 163.936 79.2826 163.968C78.6424 164 78.0053 163.86 77.4377 163.562C76.8702 163.264 76.3928 162.819 76.0555 162.274C75.7182 161.729 75.5333 161.104 75.52 160.463H77.4C77.5 161.773 78.0901 162.243 79.0601 162.243C79.3014 162.275 79.5468 162.251 79.7773 162.173C80.0079 162.095 80.2174 161.965 80.3895 161.792C80.5617 161.62 80.6919 161.411 80.77 161.18C80.8481 160.95 80.872 160.704 80.84 160.463C80.84 159.543 80.54 159.083 79.28 158.463L77.77 157.723C77.1182 157.488 76.564 157.04 76.196 156.453C75.8281 155.866 75.6675 155.172 75.74 154.483C75.74 152.823 76.83 151.313 79.27 151.313C81.96 151.313 82.6301 153.213 82.6801 154.753H80.83Z" fill="#07EABF"/>
<path d="M90.74 162.573H90.71C90.4078 163.026 89.9945 163.393 89.5094 163.64C89.0243 163.887 88.4838 164.005 87.9399 163.983C85.9899 163.983 85.42 162.503 85.42 160.543C85.42 157.943 86.26 156.483 89 156.483C89.578 156.485 90.1555 156.519 90.73 156.583V154.773C90.7315 154.548 90.6872 154.326 90.5999 154.12C90.5125 153.913 90.3841 153.726 90.2222 153.571C90.0603 153.415 89.8683 153.294 89.6582 153.216C89.4481 153.137 89.2241 153.102 89 153.113C88.5786 153.097 88.1675 153.245 87.8539 153.527C87.5403 153.809 87.3488 154.202 87.3199 154.623H85.54C85.535 154.164 85.6262 153.708 85.808 153.286C85.9898 152.864 86.258 152.485 86.5953 152.173C86.9327 151.861 87.3316 151.624 87.7665 151.476C88.2013 151.327 88.6624 151.272 89.12 151.313C91.96 151.313 92.58 153.413 92.58 155.003V163.783H90.73V162.574L90.74 162.573ZM90.74 157.943C90.3227 157.878 89.902 157.838 89.48 157.823C89.1717 157.806 88.8633 157.857 88.5769 157.972C88.2905 158.088 88.0331 158.265 87.823 158.491C87.6129 158.717 87.4553 158.987 87.3615 159.281C87.2676 159.575 87.2398 159.887 87.28 160.193C87.28 161.923 87.8 162.393 88.86 162.393C89.3929 162.29 89.8729 162.004 90.2164 161.583C90.5599 161.163 90.7452 160.635 90.74 160.093V157.943Z" fill="#07EABF"/>
<path d="M96.27 146.473H98.12V152.733C98.4154 152.304 98.8092 151.952 99.2686 151.707C99.7279 151.462 100.239 151.33 100.76 151.323C102.93 151.323 103.33 152.983 103.33 154.163V161.143C103.33 162.333 102.94 163.983 100.76 163.983C100.239 163.976 99.7279 163.844 99.2686 163.599C98.8092 163.354 98.4154 163.002 98.12 162.573V163.783H96.27V146.473ZM101.48 160.273V155.033C101.48 154.093 101.11 153.133 99.92 153.133C98.41 153.133 98.12 154.613 98.12 155.383V159.933C98.12 160.703 98.42 162.183 99.92 162.183C101.11 162.173 101.48 161.213 101.48 160.273Z" fill="#07EABF"/>
<path d="M112.06 160.343H113.91V160.513C113.945 160.972 113.881 161.433 113.723 161.865C113.564 162.297 113.315 162.691 112.992 163.019C112.669 163.346 112.279 163.601 111.849 163.766C111.42 163.931 110.959 164.001 110.5 163.973C110.024 164.002 109.547 163.93 109.101 163.762C108.655 163.594 108.249 163.333 107.911 162.997C107.573 162.66 107.309 162.256 107.139 161.811C106.968 161.366 106.893 160.889 106.92 160.413V154.723C106.902 154.266 106.979 153.81 107.147 153.385C107.315 152.959 107.571 152.574 107.896 152.253C108.222 151.932 108.611 151.683 109.039 151.521C109.467 151.359 109.923 151.288 110.38 151.313C110.85 151.293 111.318 151.369 111.757 151.538C112.196 151.706 112.596 151.962 112.931 152.291C113.267 152.621 113.531 153.015 113.708 153.451C113.885 153.886 113.971 154.353 113.96 154.823V158.333H108.77V160.283C108.77 161.593 109.36 162.163 110.5 162.163C111.59 162.163 112.06 161.493 112.06 160.483V160.343ZM112.11 156.953V154.853C112.135 154.626 112.109 154.396 112.035 154.18C111.962 153.963 111.842 153.766 111.683 153.601C111.525 153.436 111.333 153.308 111.12 153.225C110.907 153.142 110.678 153.108 110.45 153.123C110.215 153.118 109.982 153.164 109.766 153.256C109.55 153.348 109.355 153.485 109.197 153.658C109.038 153.831 108.917 154.037 108.844 154.26C108.77 154.483 108.745 154.719 108.77 154.953V156.953H112.11Z" fill="#07EABF"/>
<path d="M119.3 151.513V153.443C120.61 151.663 121.75 151.343 122.71 151.313V153.393H122.36C121 153.393 119.3 153.933 119.3 156.633V163.783H117.45V151.513H119.3Z" fill="#07EABF"/>
<path d="M136.84 160.023H138.69V160.523C138.659 161.46 138.262 162.348 137.583 162.996C136.904 163.643 135.999 163.998 135.061 163.985C134.123 163.972 133.228 163.592 132.568 162.926C131.907 162.26 131.535 161.361 131.53 160.423V154.863C131.508 154.389 131.586 153.915 131.758 153.473C131.931 153.031 132.194 152.63 132.532 152.296C132.869 151.962 133.273 151.703 133.718 151.536C134.162 151.368 134.636 151.296 135.11 151.323C135.577 151.288 136.046 151.352 136.487 151.511C136.928 151.669 137.33 151.919 137.668 152.244C138.006 152.568 138.271 152.96 138.448 153.395C138.624 153.829 138.706 154.295 138.69 154.763V155.303H136.84V155.133C136.84 153.753 136.05 153.133 135.11 153.133C134.15 153.133 133.38 153.753 133.38 155.133V160.183C133.38 161.493 133.97 162.183 135.11 162.183C136.2 162.183 136.84 161.513 136.84 160.183V160.023Z" fill="#07EABF"/>
<path d="M141.63 154.783C141.649 153.861 142.028 152.984 142.686 152.337C143.344 151.691 144.228 151.328 145.15 151.326C146.072 151.323 146.959 151.681 147.62 152.323C148.282 152.966 148.666 153.841 148.69 154.763V160.473C148.69 161.409 148.318 162.307 147.656 162.969C146.994 163.631 146.096 164.003 145.16 164.003C144.224 164.003 143.326 163.631 142.664 162.969C142.002 162.307 141.63 161.409 141.63 160.473V154.783ZM146.84 155.123C146.84 153.763 146.07 153.123 145.16 153.123C144.25 153.123 143.48 153.763 143.48 155.123V160.173C143.48 161.463 144.07 162.173 145.16 162.173C146.2 162.173 146.84 161.503 146.84 160.173V155.123Z" fill="#07EABF"/>
<path d="M154.13 151.513V152.723C154.42 152.294 154.81 151.941 155.266 151.695C155.722 151.449 156.232 151.319 156.75 151.313C157.248 151.28 157.745 151.396 158.176 151.648C158.607 151.899 158.954 152.274 159.17 152.723C159.456 152.278 159.852 151.914 160.319 151.667C160.787 151.42 161.311 151.298 161.84 151.313C163.55 151.313 164.36 152.473 164.36 154.203V163.773H162.51V155.013C162.51 153.953 162.07 153.113 160.95 153.113C159.79 153.113 159.24 154.173 159.24 155.363V163.773H157.39V155.013C157.39 154.243 157.09 153.113 155.86 153.113C154.67 153.113 154.13 154.223 154.13 155.363V163.773H152.28V151.503H154.13V151.513Z" fill="#07EABF"/>
<path d="M167.94 154.783C167.959 153.861 168.338 152.984 168.996 152.337C169.654 151.691 170.538 151.328 171.46 151.326C172.382 151.323 173.269 151.681 173.93 152.323C174.592 152.966 174.976 153.841 175 154.763V160.473C175 161.409 174.628 162.307 173.966 162.969C173.304 163.631 172.406 164.003 171.47 164.003C170.534 164.003 169.636 163.631 168.974 162.969C168.312 162.307 167.94 161.409 167.94 160.473V154.783ZM173.16 155.123C173.16 153.763 172.39 153.123 171.48 153.123C170.57 153.123 169.8 153.763 169.8 155.123V160.173C169.8 161.463 170.39 162.173 171.48 162.173C172.52 162.173 173.16 161.503 173.16 160.173V155.123Z" fill="#07EABF"/>
<path d="M186.82 146.813V148.623H184.97V146.813H186.82ZM184.96 151.513H186.81V163.783H184.96V151.513Z" fill="#07EABF"/>
<path d="M190.5 151.513H192.35V152.723C192.645 152.294 193.039 151.943 193.499 151.697C193.958 151.452 194.469 151.32 194.99 151.313C197.16 151.313 197.56 152.973 197.56 154.153V163.773H195.71V155.013C195.71 154.073 195.34 153.113 194.15 153.113C192.64 153.113 192.35 154.593 192.35 155.363V163.773H190.5V151.513Z" fill="#07EABF"/>
<path d="M204.83 163.783H203.37L200.16 151.513H202.11L204.16 160.123H204.21L206.21 151.513H208.09L204.83 163.783Z" fill="#07EABF"/>
<path d="M215.65 160.343H217.5V160.513C217.535 160.972 217.471 161.433 217.313 161.865C217.154 162.297 216.905 162.691 216.582 163.019C216.259 163.346 215.869 163.601 215.439 163.766C215.01 163.931 214.549 164.001 214.09 163.973C213.614 164.002 213.137 163.93 212.691 163.762C212.245 163.594 211.839 163.333 211.501 162.997C211.163 162.66 210.9 162.256 210.729 161.811C210.558 161.366 210.483 160.889 210.51 160.413V154.723C210.492 154.266 210.569 153.81 210.737 153.385C210.905 152.959 211.16 152.574 211.486 152.253C211.812 151.932 212.201 151.683 212.629 151.521C213.057 151.359 213.513 151.288 213.97 151.313C214.44 151.293 214.908 151.369 215.347 151.538C215.786 151.706 216.186 151.962 216.521 152.291C216.857 152.621 217.122 153.015 217.298 153.451C217.475 153.886 217.561 154.353 217.55 154.823V158.333H212.36V160.283C212.36 161.593 212.95 162.163 214.09 162.163C215.18 162.163 215.65 161.493 215.65 160.483V160.343ZM215.7 156.953V154.853C215.725 154.626 215.699 154.396 215.625 154.18C215.552 153.963 215.432 153.766 215.273 153.601C215.115 153.436 214.923 153.308 214.71 153.225C214.497 153.142 214.268 153.108 214.04 153.123C213.805 153.118 213.572 153.164 213.356 153.256C213.139 153.348 212.945 153.485 212.787 153.658C212.628 153.831 212.507 154.037 212.434 154.26C212.36 154.483 212.335 154.719 212.36 154.953V156.953H215.7Z" fill="#07EABF"/>
<path d="M225.75 154.753C225.63 153.373 224.86 153.073 224.09 153.073C223.875 153.039 223.654 153.056 223.447 153.123C223.24 153.19 223.051 153.306 222.897 153.46C222.743 153.614 222.627 153.802 222.56 154.01C222.493 154.217 222.476 154.438 222.51 154.653C222.51 155.613 223.18 156.013 223.97 156.383L225.5 157.123C226.084 157.387 226.587 157.803 226.955 158.328C227.324 158.852 227.545 159.466 227.596 160.104C227.647 160.743 227.525 161.384 227.244 161.96C226.963 162.537 226.533 163.027 225.998 163.38C225.463 163.733 224.843 163.936 224.203 163.968C223.562 164 222.925 163.86 222.358 163.562C221.79 163.264 221.313 162.819 220.976 162.274C220.638 161.729 220.453 161.104 220.44 160.463H222.32C222.42 161.773 223.01 162.243 223.98 162.243C224.221 162.275 224.467 162.251 224.697 162.173C224.928 162.095 225.137 161.965 225.31 161.792C225.482 161.62 225.612 161.411 225.69 161.18C225.768 160.95 225.792 160.704 225.76 160.463C225.76 159.543 225.46 159.083 224.2 158.463L222.69 157.723C222.038 157.488 221.484 157.04 221.116 156.453C220.748 155.866 220.588 155.172 220.66 154.483C220.66 152.823 221.75 151.313 224.19 151.313C226.88 151.313 227.55 153.213 227.6 154.753H225.75Z" fill="#07EABF"/>
<path d="M232.99 147.783V151.513H234.72V152.993H232.99V160.443C232.97 160.691 233.004 160.941 233.089 161.176C233.173 161.41 233.306 161.624 233.48 161.803C233.82 162.034 234.23 162.14 234.64 162.103H234.84V163.783H234.3C233.868 163.884 233.418 163.873 232.991 163.753C232.564 163.633 232.175 163.406 231.859 163.095C231.544 162.783 231.312 162.396 231.187 161.971C231.061 161.546 231.045 161.096 231.14 160.663V152.993H229.83V151.513H231.14V147.783H232.99Z" fill="#07EABF"/>
<path d="M239.59 146.813V148.623H237.74V146.813H239.59ZM237.74 151.513H239.59V163.783H237.74V151.513Z" fill="#07EABF"/>
<path d="M245.12 151.513V153.443C246.43 151.663 247.57 151.343 248.53 151.313V153.393H248.18C246.82 153.393 245.12 153.933 245.12 156.633V163.783H243.27V151.513H245.12Z" fill="#07EABF"/>
<path d="M262.49 160.343H264.34V160.513C264.375 160.972 264.311 161.433 264.153 161.865C263.994 162.297 263.745 162.691 263.422 163.019C263.099 163.346 262.709 163.601 262.279 163.766C261.85 163.931 261.39 164.001 260.93 163.973C260.454 164.002 259.977 163.93 259.531 163.762C259.085 163.594 258.679 163.333 258.341 162.997C258.003 162.66 257.74 162.256 257.569 161.811C257.398 161.366 257.323 160.889 257.35 160.413V154.723C257.332 154.266 257.409 153.81 257.577 153.385C257.745 152.959 258 152.574 258.326 152.253C258.652 151.932 259.041 151.683 259.469 151.521C259.897 151.359 260.353 151.288 260.81 151.313C261.28 151.293 261.748 151.369 262.187 151.538C262.626 151.706 263.026 151.962 263.361 152.291C263.697 152.621 263.961 153.015 264.138 153.451C264.315 153.886 264.401 154.353 264.39 154.823V158.333H259.2V160.283C259.2 161.593 259.79 162.163 260.93 162.163C262.02 162.163 262.49 161.493 262.49 160.483V160.343ZM262.54 156.953V154.853C262.565 154.626 262.539 154.396 262.465 154.18C262.392 153.963 262.271 153.766 262.113 153.601C261.955 153.436 261.763 153.308 261.55 153.225C261.337 153.142 261.108 153.108 260.88 153.123C260.645 153.118 260.412 153.164 260.196 153.256C259.979 153.348 259.785 153.485 259.626 153.658C259.468 153.831 259.347 154.037 259.274 154.26C259.2 154.483 259.175 154.719 259.2 154.953V156.953H262.54Z" fill="white"/>
<path d="M269.73 151.513V152.723C270.02 152.294 270.41 151.941 270.866 151.695C271.323 151.449 271.832 151.319 272.35 151.313C272.848 151.28 273.345 151.396 273.776 151.648C274.207 151.899 274.554 152.274 274.77 152.723C275.056 152.278 275.452 151.914 275.919 151.667C276.387 151.42 276.911 151.298 277.44 151.313C279.15 151.313 279.96 152.473 279.96 154.203V163.773H278.11V155.013C278.11 153.953 277.67 153.113 276.55 153.113C275.39 153.113 274.84 154.173 274.84 155.363V163.773H272.99V155.013C272.99 154.243 272.69 153.113 271.46 153.113C270.27 153.113 269.73 154.223 269.73 155.363V163.773H267.88V151.503H269.73V151.513Z" fill="white"/>
<path d="M3.32996 182.213H5.18005V183.423C5.47544 182.994 5.86929 182.642 6.32861 182.397C6.78794 182.152 7.29926 182.02 7.81995 182.013C9.98995 182.013 10.39 183.673 10.39 184.853V194.473H8.54004V185.713C8.54004 184.773 8.16998 183.813 6.97998 183.813C5.46998 183.813 5.18005 185.293 5.18005 186.063V194.473H3.32996V182.213Z" fill="white"/>
<path d="M19.11 191.043H20.96V191.213C20.9948 191.672 20.9309 192.133 20.7726 192.565C20.6143 192.998 20.3652 193.391 20.0421 193.719C19.719 194.047 19.3294 194.301 18.8995 194.466C18.4697 194.63 18.0095 194.701 17.5501 194.673C17.074 194.702 16.5971 194.63 16.1509 194.462C15.7046 194.294 15.299 194.033 14.9608 193.697C14.6226 193.36 14.3595 192.956 14.1887 192.511C14.0179 192.065 13.9434 191.589 13.97 191.113V185.423C13.9518 184.966 14.0292 184.51 14.1973 184.085C14.3654 183.66 14.6204 183.274 14.9462 182.953C15.2719 182.632 15.6612 182.383 16.0889 182.221C16.5166 182.059 16.9734 181.988 17.4301 182.013C17.8997 181.993 18.3684 182.069 18.8073 182.237C19.2461 182.406 19.6457 182.663 19.9813 182.992C20.317 183.321 20.5815 183.715 20.7584 184.15C20.9354 184.586 21.021 185.053 21.01 185.523V189.033H15.82V190.983C15.82 192.293 16.4101 192.863 17.5501 192.863C18.6401 192.863 19.11 192.193 19.11 191.183V191.043ZM19.16 187.653V185.553C19.1846 185.326 19.1592 185.096 19.0855 184.88C19.0117 184.664 18.8915 184.466 18.7333 184.301C18.5751 184.136 18.3828 184.008 18.1697 183.925C17.9566 183.843 17.728 183.808 17.5 183.823C17.265 183.818 17.0317 183.863 16.8156 183.956C16.5994 184.048 16.4055 184.185 16.2466 184.358C16.0876 184.532 15.9673 184.737 15.8938 184.96C15.8203 185.183 15.7951 185.419 15.82 185.653V187.653H19.16Z" fill="white"/>
<path d="M31.57 195.973C31.6001 196.465 31.5256 196.957 31.3515 197.417C31.1773 197.878 30.9075 198.297 30.5597 198.646C30.2119 198.994 29.7942 199.265 29.334 199.44C28.8738 199.616 28.3817 199.692 27.89 199.663C27.4402 199.713 26.9849 199.662 26.5571 199.514C26.1294 199.366 25.7397 199.125 25.4164 198.808C25.093 198.491 24.844 198.107 24.6873 197.683C24.5305 197.258 24.47 196.804 24.51 196.353H26.2901C26.2895 196.566 26.3339 196.777 26.4204 196.972C26.507 197.167 26.6337 197.341 26.7922 197.484C26.9508 197.626 27.1378 197.734 27.3407 197.799C27.5437 197.865 27.758 197.886 27.97 197.863C28.1953 197.875 28.4207 197.841 28.6325 197.763C28.8442 197.685 29.0378 197.564 29.2016 197.409C29.3653 197.253 29.4956 197.067 29.5847 196.859C29.6739 196.652 29.7199 196.429 29.72 196.203V193.163C29.4246 193.592 29.0307 193.944 28.5714 194.189C28.1121 194.434 27.6007 194.566 27.08 194.573C24.91 194.573 24.51 192.913 24.51 191.733V184.883C24.51 183.693 24.91 182.043 27.08 182.043C27.6007 182.05 28.1121 182.182 28.5714 182.427C29.0307 182.673 29.4246 183.024 29.72 183.453V182.243H31.57V195.973ZM29.71 190.503V186.073C29.71 185.303 29.41 183.823 27.91 183.823C26.72 183.823 26.35 184.783 26.35 185.723V190.843C26.35 191.783 26.72 192.743 27.91 192.743C29.42 192.753 29.71 191.273 29.71 190.503Z" fill="white"/>
<path d="M35.15 185.483C35.1692 184.561 35.5481 183.683 36.2059 183.037C36.8637 182.391 37.7483 182.028 38.6703 182.025C39.5923 182.023 40.4787 182.381 41.1401 183.023C41.8016 183.666 42.1856 184.541 42.21 185.463V191.173C42.21 192.109 41.8382 193.007 41.1761 193.669C40.5141 194.331 39.6163 194.703 38.6801 194.703C37.7438 194.703 36.846 194.331 36.184 193.669C35.522 193.007 35.15 192.109 35.15 191.173V185.483ZM40.36 185.823C40.36 184.463 39.5901 183.823 38.6801 183.823C37.7701 183.823 37 184.463 37 185.823V190.873C37 192.163 37.5901 192.873 38.6801 192.873C39.7201 192.873 40.36 192.203 40.36 190.873V185.823ZM39 180.183H38.04L39.1801 177.163H41.1801L39 180.183Z" fill="white"/>
<path d="M51.0101 190.723H52.86V191.223C52.8291 192.16 52.4316 193.048 51.753 193.696C51.0744 194.343 50.1688 194.699 49.231 194.685C48.2932 194.672 47.3979 194.292 46.7376 193.625C46.0773 192.959 45.7048 192.061 45.7 191.123V185.563C45.6778 185.089 45.7555 184.615 45.928 184.173C46.1006 183.731 46.3643 183.33 46.7018 182.996C47.0394 182.662 47.4434 182.403 47.8875 182.235C48.3317 182.068 48.8062 181.995 49.2801 182.023C49.7472 181.988 50.2164 182.052 50.6572 182.211C51.0979 182.37 51.5003 182.619 51.8381 182.944C52.1758 183.268 52.4414 183.66 52.6175 184.094C52.7936 184.528 52.8762 184.995 52.86 185.463V186.003H51.0101V185.833C51.0101 184.453 50.2201 183.833 49.2801 183.833C48.3201 183.833 47.5501 184.453 47.5501 185.833V190.883C47.5501 192.193 48.1401 192.883 49.2801 192.883C50.3701 192.883 51.0101 192.213 51.0101 190.883V190.723Z" fill="white"/>
<path d="M57.75 177.513V179.323H55.9V177.513H57.75ZM55.9 182.213H57.75V194.483H55.9V182.213Z" fill="white"/>
<path d="M61.34 185.483C61.3591 184.561 61.7382 183.683 62.396 183.037C63.0538 182.391 63.9382 182.028 64.8602 182.025C65.7823 182.023 66.6687 182.381 67.3302 183.023C67.9917 183.666 68.3756 184.541 68.4 185.463V191.173C68.4 192.109 68.0281 193.007 67.3661 193.669C66.7041 194.331 65.8062 194.703 64.87 194.703C63.9338 194.703 63.0359 194.331 62.3739 193.669C61.7119 193.007 61.34 192.109 61.34 191.173V185.483ZM66.55 185.823C66.55 184.463 65.78 183.823 64.87 183.823C63.96 183.823 63.1899 184.463 63.1899 185.823V190.873C63.1899 192.163 63.78 192.873 64.87 192.873C65.91 192.873 66.55 192.203 66.55 190.873V185.823Z" fill="white"/>
<path d="M76.7 185.453C76.58 184.073 75.81 183.773 75.04 183.773C74.8248 183.739 74.6043 183.756 74.397 183.823C74.1896 183.891 74.0012 184.006 73.847 184.16C73.6929 184.314 73.5774 184.503 73.5101 184.71C73.4429 184.917 73.4256 185.138 73.46 185.353C73.46 186.313 74.13 186.713 74.92 187.083L76.45 187.823C77.034 188.087 77.5366 188.503 77.9053 189.027C78.2739 189.552 78.4951 190.166 78.5459 190.805C78.5967 191.444 78.4753 192.085 78.1942 192.661C77.9131 193.237 77.4826 193.726 76.9476 194.08C76.4127 194.433 75.7928 194.636 75.1526 194.668C74.5124 194.7 73.8753 194.56 73.3077 194.262C72.7402 193.964 72.2628 193.52 71.9255 192.975C71.5882 192.43 71.4033 191.804 71.39 191.163H73.27C73.37 192.473 73.9601 192.943 74.9301 192.943C75.1714 192.975 75.4168 192.951 75.6473 192.873C75.8779 192.795 76.0874 192.665 76.2595 192.493C76.4317 192.321 76.5619 192.111 76.64 191.88C76.7181 191.65 76.742 191.404 76.71 191.163C76.71 190.243 76.41 189.783 75.15 189.163L73.64 188.423C72.9882 188.187 72.434 187.741 72.066 187.153C71.6981 186.566 71.5375 185.872 71.61 185.183C71.61 183.523 72.7 182.013 75.14 182.013C77.83 182.013 78.5 183.913 78.55 185.453H76.7Z" fill="white"/>
<path d="M93.1801 191.043H95.03V191.213C95.0649 191.672 95.001 192.133 94.8427 192.565C94.6843 192.998 94.4352 193.391 94.1121 193.719C93.789 194.047 93.3994 194.301 92.9695 194.466C92.5396 194.63 92.0795 194.701 91.62 194.673C91.144 194.702 90.6671 194.63 90.2208 194.462C89.7746 194.294 89.3691 194.033 89.0309 193.697C88.6927 193.36 88.4296 192.956 88.2588 192.511C88.088 192.065 88.0135 191.589 88.04 191.113V185.423C88.0218 184.966 88.0992 184.51 88.2673 184.085C88.4354 183.66 88.6905 183.274 89.0162 182.953C89.342 182.632 89.7311 182.383 90.1588 182.221C90.5865 182.059 91.0434 181.988 91.5 182.013C91.9696 181.993 92.4383 182.069 92.8772 182.237C93.3161 182.406 93.7158 182.663 94.0514 182.992C94.387 183.321 94.6514 183.715 94.8284 184.15C95.0053 184.586 95.0909 185.053 95.08 185.523V189.033H89.89V190.983C89.89 192.293 90.48 192.863 91.62 192.863C92.71 192.863 93.1801 192.193 93.1801 191.183V191.043ZM93.23 187.653V185.553C93.2546 185.326 93.2291 185.096 93.1554 184.88C93.0817 184.664 92.9616 184.466 92.8034 184.301C92.6451 184.136 92.4527 184.008 92.2396 183.925C92.0266 183.843 91.798 183.808 91.57 183.823C91.335 183.818 91.1018 183.863 90.8856 183.956C90.6695 184.048 90.4755 184.185 90.3165 184.358C90.1576 184.532 90.0373 184.737 89.9638 184.96C89.8902 185.183 89.8651 185.419 89.89 185.653V187.653H93.23Z" fill="white"/>
<path d="M100.4 188.223L97.5601 182.213H99.54L101.39 186.393L103.14 182.213H105.09L102.25 188.123L105.24 194.483H103.31L101.33 190.033L99.35 194.483H97.4L100.4 188.223Z" fill="white"/>
<path d="M107.68 182.213H109.53V183.423C109.825 182.994 110.219 182.642 110.679 182.397C111.138 182.152 111.649 182.02 112.17 182.013C114.34 182.013 114.74 183.673 114.74 184.853V191.833C114.74 193.023 114.35 194.673 112.17 194.673C111.649 194.666 111.138 194.534 110.679 194.289C110.219 194.044 109.825 193.692 109.53 193.263V199.523H107.68V182.213ZM112.9 190.973V185.733C112.9 184.793 112.53 183.833 111.34 183.833C109.83 183.833 109.54 185.313 109.54 186.083V190.633C109.54 191.403 109.84 192.883 111.34 192.883C112.53 192.873 112.9 191.913 112.9 190.973Z" fill="white"/>
<path d="M118.33 185.483C118.349 184.561 118.728 183.683 119.386 183.037C120.044 182.391 120.928 182.028 121.85 182.025C122.772 182.023 123.659 182.381 124.32 183.023C124.982 183.666 125.366 184.541 125.39 185.463V191.173C125.39 192.109 125.018 193.007 124.356 193.669C123.694 194.331 122.796 194.703 121.86 194.703C120.924 194.703 120.026 194.331 119.364 193.669C118.702 193.007 118.33 192.109 118.33 191.173V185.483ZM123.55 185.823C123.55 184.463 122.78 183.823 121.87 183.823C120.96 183.823 120.19 184.463 120.19 185.823V190.873C120.19 192.163 120.78 192.873 121.87 192.873C122.91 192.873 123.55 192.203 123.55 190.873V185.823Z" fill="white"/>
<path d="M128.98 182.213H130.83V183.423C131.125 182.994 131.519 182.642 131.979 182.397C132.438 182.152 132.949 182.02 133.47 182.013C135.64 182.013 136.04 183.673 136.04 184.853V194.473H134.19V185.713C134.19 184.773 133.82 183.813 132.63 183.813C131.12 183.813 130.83 185.293 130.83 186.063V194.473H128.98V182.213Z" fill="white"/>
<path d="M144.77 191.043H146.62V191.213C146.655 191.672 146.591 192.133 146.433 192.565C146.274 192.998 146.025 193.391 145.702 193.719C145.379 194.047 144.989 194.301 144.559 194.466C144.13 194.63 143.669 194.701 143.21 194.673C142.734 194.702 142.257 194.63 141.811 194.462C141.365 194.294 140.959 194.033 140.621 193.697C140.283 193.36 140.02 192.956 139.849 192.511C139.678 192.065 139.603 191.589 139.63 191.113V185.423C139.612 184.966 139.689 184.51 139.857 184.085C140.025 183.66 140.28 183.274 140.606 182.953C140.932 182.632 141.321 182.383 141.749 182.221C142.176 182.059 142.633 181.988 143.09 182.013C143.56 181.993 144.028 182.069 144.467 182.237C144.906 182.406 145.306 182.663 145.641 182.992C145.977 183.321 146.242 183.715 146.418 184.15C146.595 184.586 146.681 185.053 146.67 185.523V189.033H141.48V190.983C141.48 192.293 142.07 192.863 143.21 192.863C144.3 192.863 144.77 192.193 144.77 191.183V191.043ZM144.82 187.653V185.553C144.845 185.326 144.819 185.096 144.745 184.88C144.672 184.664 144.552 184.466 144.393 184.301C144.235 184.136 144.043 184.008 143.83 183.925C143.617 183.843 143.388 183.808 143.16 183.823C142.925 183.818 142.692 183.863 142.476 183.956C142.259 184.048 142.065 184.185 141.907 184.358C141.748 184.532 141.627 184.737 141.554 184.96C141.48 185.183 141.455 185.419 141.48 185.653V187.653H144.82Z" fill="white"/>
<path d="M150.15 182.213H152V183.423C152.295 182.994 152.689 182.642 153.149 182.397C153.608 182.152 154.119 182.02 154.64 182.013C156.81 182.013 157.21 183.673 157.21 184.853V194.473H155.36V185.713C155.36 184.773 154.99 183.813 153.8 183.813C152.29 183.813 152 185.293 152 186.063V194.473H150.15V182.213Z" fill="white"/>
<path d="M166.11 190.723H167.96V191.223C167.929 192.16 167.532 193.048 166.853 193.696C166.174 194.343 165.269 194.699 164.331 194.685C163.393 194.672 162.498 194.292 161.838 193.625C161.177 192.959 160.805 192.061 160.8 191.123V185.563C160.778 185.089 160.856 184.615 161.028 184.173C161.201 183.731 161.464 183.33 161.802 182.996C162.139 182.662 162.543 182.403 162.987 182.235C163.432 182.068 163.906 181.995 164.38 182.023C164.847 181.988 165.316 182.052 165.757 182.211C166.198 182.37 166.6 182.619 166.938 182.944C167.276 183.268 167.541 183.66 167.717 184.094C167.894 184.528 167.976 184.995 167.96 185.463V186.003H166.11V185.833C166.11 184.453 165.32 183.833 164.38 183.833C163.42 183.833 162.65 184.453 162.65 185.833V190.883C162.65 192.193 163.24 192.883 164.38 192.883C165.47 192.883 166.11 192.213 166.11 190.883V190.723Z" fill="white"/>
<path d="M172.86 177.513V179.323H171V177.513H172.86ZM171 182.213H172.85V194.483H171V182.213Z" fill="white"/>
<path d="M181.63 193.273H181.6C181.298 193.726 180.884 194.093 180.399 194.34C179.914 194.587 179.374 194.705 178.83 194.683C176.88 194.683 176.31 193.203 176.31 191.243C176.31 188.643 177.15 187.183 179.89 187.183C180.468 187.186 181.046 187.219 181.62 187.283V185.473C181.621 185.249 181.577 185.026 181.49 184.82C181.403 184.613 181.274 184.426 181.112 184.271C180.95 184.116 180.758 183.995 180.548 183.916C180.338 183.837 180.114 183.802 179.89 183.813C179.469 183.797 179.058 183.946 178.744 184.227C178.43 184.509 178.239 184.902 178.21 185.323H176.43C176.425 184.864 176.516 184.408 176.698 183.986C176.88 183.564 177.148 183.185 177.485 182.873C177.823 182.562 178.222 182.324 178.656 182.176C179.091 182.028 179.552 181.972 180.01 182.013C182.85 182.013 183.47 184.113 183.47 185.703V194.483H181.62V193.274L181.63 193.273ZM181.63 188.643C181.213 188.578 180.792 188.538 180.37 188.523C180.062 188.506 179.753 188.556 179.467 188.672C179.181 188.787 178.923 188.965 178.713 189.191C178.503 189.417 178.345 189.687 178.251 189.981C178.158 190.276 178.13 190.587 178.17 190.893C178.17 192.623 178.69 193.093 179.75 193.093C180.283 192.99 180.763 192.703 181.106 192.283C181.45 191.863 181.635 191.336 181.63 190.793V188.643Z" fill="white"/>
<path d="M189.02 177.513V179.323H187.17V177.513H189.02ZM187.16 182.213H189.01V194.483H187.16V182.213Z" fill="white"/>
<path d="M197.41 185.453C197.29 184.073 196.52 183.773 195.75 183.773C195.535 183.739 195.314 183.756 195.107 183.823C194.9 183.891 194.711 184.006 194.557 184.16C194.403 184.314 194.287 184.503 194.22 184.71C194.153 184.917 194.136 185.138 194.17 185.353C194.17 186.313 194.84 186.713 195.63 187.083L197.16 187.823C197.744 188.087 198.247 188.503 198.615 189.027C198.984 189.552 199.205 190.166 199.256 190.805C199.307 191.444 199.185 192.085 198.904 192.661C198.623 193.237 198.193 193.726 197.658 194.08C197.123 194.433 196.503 194.636 195.863 194.668C195.222 194.7 194.585 194.56 194.018 194.262C193.45 193.964 192.973 193.52 192.635 192.975C192.298 192.43 192.113 191.804 192.1 191.163H193.98C194.08 192.473 194.67 192.943 195.64 192.943C195.881 192.975 196.127 192.951 196.357 192.873C196.588 192.795 196.797 192.665 196.97 192.493C197.142 192.321 197.272 192.111 197.35 191.88C197.428 191.65 197.452 191.404 197.42 191.163C197.42 190.243 197.12 189.783 195.86 189.163L194.35 188.423C193.698 188.187 193.144 187.741 192.776 187.153C192.408 186.566 192.247 185.872 192.32 185.183C192.32 183.523 193.41 182.013 195.85 182.013C198.54 182.013 199.21 183.913 199.26 185.453H197.41Z" fill="white"/>
<path d="M204.55 192.383V194.483H202.43V192.383H204.55Z" fill="white"/>
</svg>
