<svg width="185" height="158" viewBox="0 0 185 158" fill="none" xmlns="http://www.w3.org/2000/svg">
<path d="M9.37 6.07276C9.40368 5.71278 9.36079 5.3498 9.24415 5.00757C9.1275 4.66535 8.93974 4.35164 8.69321 4.08716C8.44669 3.82269 8.14698 3.61352 7.81379 3.47315C7.48059 3.33278 7.12147 3.26436 6.76002 3.27271C4.24002 3.27271 4.01999 5.44284 4.01999 6.65284V18.6628C3.9857 19.0254 4.0265 19.3912 4.13981 19.7373C4.25312 20.0834 4.43652 20.4025 4.67859 20.6746C4.92067 20.9467 5.21621 21.166 5.54679 21.3189C5.87737 21.4717 6.23591 21.5546 6.60001 21.5627C7.84001 21.5627 9.37 21.0229 9.37 18.4429V17.7427H11.79V18.5728C11.79 21.7628 10.32 23.8928 6.50001 23.8928C2.04001 23.8928 1.63001 20.2627 1.63001 18.9827V5.79273C1.6119 5.1385 1.73012 4.48767 1.97712 3.8816C2.22412 3.27552 2.59452 2.72742 3.06476 2.27222C3.53501 1.81702 4.09481 1.46472 4.70859 1.23755C5.32238 1.01039 5.97672 0.913517 6.63001 0.952886C9.40001 0.952886 11.7 2.29276 11.7 5.82276V7.25269H9.37V6.07276Z" fill="white"/>
<path d="M14.69 11.9727C14.721 10.7864 15.213 9.65908 16.0617 8.82961C16.9103 8.00015 18.0488 7.53396 19.2354 7.53005C20.4221 7.52615 21.5636 7.98476 22.4177 8.80862C23.2717 9.63248 23.7712 10.7569 23.81 11.9429V19.3028C23.81 20.5121 23.3296 21.672 22.4744 22.5271C21.6192 23.3823 20.4594 23.8628 19.25 23.8628C18.0406 23.8628 16.8808 23.3823 16.0256 22.5271C15.1704 21.672 14.69 20.5121 14.69 19.3028V11.9727ZM21.41 12.4129C21.41 10.6629 20.42 9.83279 19.24 9.83279C18.06 9.83279 17.07 10.6629 17.07 12.4129V18.9129C17.07 20.5729 17.83 21.4927 19.24 21.4927C20.58 21.4927 21.41 20.6329 21.41 18.9129V12.4129Z" fill="white"/>
<path d="M30.01 7.76259V9.32264C30.3832 8.76759 30.886 8.31187 31.4749 7.99476C32.0639 7.67765 32.7212 7.50863 33.39 7.50258C34.0326 7.45799 34.6738 7.60769 35.2302 7.93226C35.7866 8.25683 36.2325 8.74133 36.51 9.32264C36.8781 8.74873 37.3883 8.27969 37.9909 7.96083C38.5936 7.64197 39.2684 7.48404 39.95 7.50258C42.15 7.50258 43.2 9.00256 43.2 11.2326V23.5626H40.81V12.2826C40.81 10.9126 40.24 9.83265 38.8 9.83265C37.3 9.83265 36.6 11.2026 36.6 12.7326V23.5626H34.21V12.2826C34.21 11.2926 33.83 9.83265 32.23 9.83265C30.7 9.83265 30 11.2626 30 12.7326V23.5626H27.61V7.76259H30.01Z" fill="white"/>
<path d="M47.03 11.9727C47.061 10.7864 47.553 9.65908 48.4017 8.82961C49.2503 8.00015 50.3888 7.53396 51.5754 7.53005C52.7621 7.52615 53.9036 7.98476 54.7577 8.80862C55.6117 9.63248 56.1112 10.7569 56.15 11.9429V19.3028C56.15 20.5121 55.6696 21.672 54.8144 22.5271C53.9592 23.3823 52.7994 23.8628 51.59 23.8628C50.3806 23.8628 49.2208 23.3823 48.3656 22.5271C47.5104 21.672 47.03 20.5121 47.03 19.3028V11.9727ZM53.75 12.4129C53.75 10.6629 52.76 9.83279 51.58 9.83279C50.4 9.83279 49.41 10.6629 49.41 12.4129V18.9129C49.41 20.5729 50.17 21.4927 51.58 21.4927C52.92 21.4927 53.75 20.6329 53.75 18.9129V12.4129Z" fill="white"/>
<path d="M74.0999 18.7225H76.49V19.3627C76.4543 20.5754 75.9431 21.7255 75.0667 22.5646C74.1904 23.4037 73.0191 23.8644 71.8059 23.8473C70.5928 23.8302 69.435 23.3367 68.5826 22.4733C67.7301 21.6099 67.2515 20.4458 67.25 19.2325V12.0626C67.2209 11.4509 67.321 10.8401 67.5437 10.2697C67.7664 9.69923 68.1067 9.182 68.5426 8.75183C68.9784 8.32167 69.4999 7.98807 70.0732 7.77283C70.6465 7.55759 71.2587 7.46551 71.87 7.50257C72.4721 7.4573 73.077 7.5395 73.6453 7.74353C74.2136 7.94756 74.7325 8.26898 75.1684 8.68689C75.6042 9.1048 75.9471 9.60983 76.1748 10.1691C76.4025 10.7283 76.5099 11.3293 76.49 11.9327V12.6327H74.0999V12.4127C74.0999 10.6327 73.08 9.83264 71.87 9.83264C70.63 9.83264 69.64 10.6327 69.64 12.4127V18.9127C69.64 20.6027 70.4 21.4926 71.87 21.4926C73.27 21.4926 74.0999 20.6327 74.0999 18.9127V18.7225Z" fill="white"/>
<path d="M82 7.7627V10.2427C83.69 7.95268 85.15 7.53269 86.4 7.50269V10.1829H85.95C84.2 10.1829 82 10.8828 82 14.3528V23.5627H79.61V7.7627H82Z" fill="white"/>
<path d="M91.27 1.71265V4.04272H88.88V1.71265H91.27ZM88.88 7.7627H91.27V23.5627H88.88V7.7627Z" fill="white"/>
<path d="M101.78 22.0027H101.75C101.359 22.5852 100.826 23.0582 100.202 23.3767C99.5767 23.6952 98.8808 23.8488 98.18 23.8228C95.66 23.8228 94.93 21.9128 94.93 19.3928C94.93 16.0428 96.01 14.1628 99.55 14.1628C100.295 14.1663 101.04 14.2096 101.78 14.2927V11.9626C101.781 11.6741 101.723 11.3885 101.61 11.123C101.497 10.8576 101.331 10.6178 101.123 10.4185C100.914 10.2192 100.667 10.0646 100.397 9.96387C100.126 9.86316 99.8382 9.8185 99.55 9.83276C99.0068 9.80957 98.4761 9.99946 98.0707 10.3618C97.6654 10.7242 97.4176 11.2303 97.38 11.7727H95.09C95.09 9.09271 97.13 7.50269 99.71 7.50269C103.37 7.50269 104.17 10.2127 104.17 12.2527V23.5627H101.78V22.0027ZM101.78 16.0527C101.244 15.9634 100.703 15.91 100.16 15.8928C98.79 15.8928 97.32 16.6229 97.32 18.9529C97.32 21.1829 97.99 21.7927 99.36 21.7927C100.045 21.6578 100.661 21.2886 101.103 20.7483C101.544 20.208 101.784 19.5306 101.78 18.8328V16.0527Z" fill="white"/>
<path d="M110.51 7.7627V10.2427C112.2 7.95268 113.66 7.53269 114.91 7.50269V10.1829H114.46C112.71 10.1829 110.51 10.8828 110.51 14.3528V23.5627H108.12V7.7627H110.51Z" fill="white"/>
<path d="M133.93 23.5627H131.54V22.0027C131.158 22.5563 130.649 23.0105 130.056 23.3271C129.463 23.6438 128.802 23.8137 128.13 23.8228C125.33 23.8228 124.82 21.6928 124.82 20.1628V7.77271H127.21V19.0527C127.21 20.2627 127.69 21.5027 129.22 21.5027C131.16 21.5027 131.55 19.5928 131.55 18.6028V7.77271H133.94V23.5627H133.93Z" fill="white"/>
<path d="M140.26 7.76259V9.32264C140.633 8.76759 141.136 8.31187 141.725 7.99476C142.314 7.67765 142.971 7.50863 143.64 7.50258C144.283 7.45799 144.924 7.60769 145.48 7.93226C146.037 8.25683 146.483 8.74133 146.76 9.32264C147.128 8.74873 147.638 8.27969 148.241 7.96083C148.844 7.64197 149.518 7.48404 150.2 7.50258C152.4 7.50258 153.45 9.00256 153.45 11.2326V23.5626H151.06V12.2826C151.06 10.9126 150.49 9.83265 149.05 9.83265C147.55 9.83265 146.85 11.2026 146.85 12.7326V23.5626H144.46V12.2826C144.46 11.2926 144.08 9.83265 142.48 9.83265C140.95 9.83265 140.25 11.2626 140.25 12.7326V23.5626H137.86V7.76259H140.26Z" fill="white"/>
<path d="M1.60001 39.6228H3.98999V41.1829C4.37176 40.6293 4.88058 40.175 5.47385 39.8584C6.06711 39.5418 6.72758 39.3718 7.39999 39.3628C10.2 39.3628 10.71 41.4927 10.71 43.0227V55.4128H8.32001V44.1328C8.32001 42.9228 7.84 41.6829 6.31 41.6829C4.37 41.6829 3.98001 43.5928 3.98001 44.5828V55.4128H1.59V39.6228H1.60001Z" fill="white"/>
<path d="M21.16 50.9927H23.55V51.2127C23.5954 51.8048 23.5132 52.3999 23.309 52.9576C23.1047 53.5152 22.7832 54.0226 22.3662 54.4454C21.9491 54.8681 21.4462 55.1965 20.8913 55.4083C20.3365 55.62 19.7427 55.7103 19.15 55.6729C18.5359 55.7113 17.9206 55.6191 17.3447 55.4024C16.7688 55.1857 16.2453 54.8495 15.8088 54.4158C15.3723 53.9822 15.0326 53.4608 14.8122 52.8863C14.5918 52.3118 14.4956 51.6972 14.53 51.0828V43.7527C14.5062 43.1634 14.6057 42.5758 14.8222 42.0272C15.0387 41.4785 15.3674 40.9812 15.7873 40.567C16.2072 40.1527 16.7089 39.8307 17.2604 39.6216C17.812 39.4126 18.401 39.321 18.99 39.3528C19.5953 39.3264 20.1995 39.4244 20.7654 39.6409C21.3312 39.8574 21.8466 40.1877 22.2797 40.6114C22.7127 41.0351 23.0542 41.5431 23.2831 42.1041C23.5119 42.665 23.6232 43.2672 23.61 43.8729V48.3929H16.92V50.9129C16.92 52.6029 17.68 53.3328 19.15 53.3328C20.55 53.3328 21.16 52.4729 21.16 51.1629V50.9927ZM21.22 46.6329V43.9229C21.2518 43.6309 21.2193 43.3354 21.1249 43.0572C21.0306 42.779 20.8765 42.5247 20.6737 42.3123C20.4708 42.0999 20.2239 41.9345 19.9504 41.8275C19.6768 41.7204 19.3832 41.6746 19.09 41.6929C18.7869 41.6868 18.4859 41.745 18.207 41.8641C17.9281 41.9831 17.6778 42.1602 17.4726 42.3834C17.2673 42.6066 17.112 42.8707 17.0167 43.1585C16.9214 43.4464 16.8885 43.7512 16.92 44.0528V46.6329H21.22Z" fill="white"/>
<path d="M36.42 57.3328C36.4582 57.9665 36.3615 58.6012 36.1364 59.1948C35.9112 59.7884 35.5626 60.3274 35.1136 60.7764C34.6647 61.2253 34.1256 61.5739 33.532 61.7991C32.9384 62.0243 32.3038 62.121 31.67 62.0828C29.09 62.0828 27.31 60.6827 27.31 57.8127H29.6C29.5992 58.0877 29.6566 58.3599 29.7685 58.6111C29.8804 58.8623 30.0443 59.0867 30.2493 59.27C30.4543 59.4533 30.6958 59.5911 30.9579 59.6743C31.2201 59.7575 31.4968 59.7842 31.77 59.7527C32.0597 59.7671 32.3493 59.7228 32.6215 59.6226C32.8936 59.5223 33.1427 59.3681 33.3538 59.1692C33.5648 58.9703 33.7335 58.7308 33.8497 58.4651C33.9659 58.1993 34.0273 57.9128 34.03 57.6228V53.7029C33.6482 54.2565 33.1394 54.7105 32.5461 55.0271C31.9529 55.3437 31.2924 55.5137 30.62 55.5227C27.82 55.5227 27.31 53.3928 27.31 51.8628V43.0327C27.31 41.5027 27.82 39.3728 30.62 39.3728C31.2924 39.3818 31.9529 39.5518 32.5461 39.8684C33.1394 40.185 33.6482 40.6393 34.03 41.1929V39.6328H36.42V57.3328ZM34.03 50.2927V44.5928C34.03 43.6028 33.65 41.6929 31.7 41.6929C30.17 41.6929 29.69 42.9328 29.69 44.1428V50.7327C29.69 51.9427 30.17 53.1829 31.7 53.1829C33.65 53.1929 34.03 51.2827 34.03 50.2927Z" fill="white"/>
<path d="M40.24 43.8228C40.271 42.6365 40.7631 41.5089 41.6117 40.6794C42.4603 39.85 43.5988 39.384 44.7854 39.3801C45.9721 39.3762 47.1136 39.8348 47.9677 40.6587C48.8217 41.4826 49.3212 42.6067 49.36 43.7927V51.1528C49.36 52.3622 48.8796 53.522 48.0244 54.3772C47.1692 55.2324 46.0094 55.7126 44.8 55.7126C43.5906 55.7126 42.4308 55.2324 41.5756 54.3772C40.7204 53.522 40.24 52.3622 40.24 51.1528V43.8228ZM46.96 44.2727C46.96 42.5227 45.97 41.6929 44.79 41.6929C43.61 41.6929 42.62 42.5227 42.62 44.2727V50.7727C42.62 52.4327 43.38 53.3528 44.79 53.3528C46.13 53.3528 46.96 52.4927 46.96 50.7727V44.2727ZM45.21 37.0127H43.97L45.44 33.1228H48.02L45.21 37.0127Z" fill="white"/>
<path d="M59.89 50.5827H62.28V51.2226C62.2443 52.4353 61.7331 53.5856 60.8568 54.4247C59.9804 55.2638 58.8092 55.7245 57.596 55.7074C56.3828 55.6904 55.225 55.1968 54.3726 54.3334C53.5202 53.47 53.0415 52.306 53.04 51.0927V43.9228C53.0109 43.3111 53.111 42.7 53.3337 42.1295C53.5565 41.5591 53.8968 41.0421 54.3326 40.612C54.7684 40.1818 55.29 39.8482 55.8633 39.633C56.4366 39.4177 57.0488 39.3256 57.66 39.3627C58.2621 39.3174 58.867 39.3994 59.4353 39.6034C60.0036 39.8074 60.5226 40.1289 60.9584 40.5468C61.3942 40.9647 61.7372 41.4697 61.9649 42.029C62.1926 42.5882 62.3 43.1891 62.28 43.7926V44.4926H59.89V44.2726C59.89 42.4926 58.87 41.6928 57.66 41.6928C56.42 41.6928 55.43 42.4926 55.43 44.2726V50.7726C55.43 52.4626 56.19 53.3527 57.66 53.3527C59.06 53.3527 59.89 52.4926 59.89 50.7726V50.5827Z" fill="white"/>
<path d="M67.79 33.5627V35.8928H65.4V33.5627H67.79ZM65.41 39.6228H67.8V55.4229H65.41V39.6228Z" fill="white"/>
<path d="M71.62 43.8228C71.651 42.6365 72.1431 41.5089 72.9917 40.6795C73.8403 39.85 74.9787 39.3841 76.1654 39.3802C77.3521 39.3762 78.4936 39.8349 79.3477 40.6587C80.2017 41.4826 80.7012 42.6067 80.74 43.7927V51.1529C80.74 52.3622 80.2596 53.5221 79.4044 54.3772C78.5493 55.2324 77.3894 55.7127 76.18 55.7127C74.9706 55.7127 73.8107 55.2324 72.9556 54.3772C72.1004 53.5221 71.62 52.3622 71.62 51.1529V43.8228ZM78.34 44.2727C78.34 42.5227 77.35 41.6929 76.17 41.6929C74.99 41.6929 74 42.5227 74 44.2727V50.7727C74 52.4327 74.76 53.3528 76.17 53.3528C77.51 53.3528 78.34 52.4927 78.34 50.7727V44.2727Z" fill="white"/>
<path d="M94.36 33.1228V51.4727C94.3413 51.7072 94.3737 51.9433 94.4551 52.1641C94.5364 52.3849 94.6647 52.5853 94.8311 52.7517C94.9975 52.9181 95.198 53.0463 95.4188 53.1277C95.6396 53.209 95.8754 53.2413 96.11 53.2227H96.46V55.4229H95.73C93.31 55.4229 91.97 53.9929 91.97 51.9229V33.1228H94.36Z" fill="white"/>
<path d="M108.31 55.4229H105.92V53.8628C105.538 54.4164 105.029 54.8704 104.436 55.187C103.843 55.5037 103.182 55.6738 102.51 55.6829C99.71 55.6829 99.2 53.5527 99.2 52.0227V39.6328H101.59V50.9128C101.59 52.1228 102.07 53.3628 103.6 53.3628C105.54 53.3628 105.93 51.4526 105.93 50.4626V39.6328H108.32V55.4229H108.31Z" fill="white"/>
<path d="M118.99 50.5827H121.38V51.2226C121.344 52.4353 120.833 53.5856 119.957 54.4247C119.08 55.2638 117.909 55.7245 116.696 55.7074C115.483 55.6904 114.325 55.1968 113.473 54.3334C112.62 53.47 112.142 52.306 112.14 51.0927V43.9228C112.111 43.3111 112.211 42.7 112.434 42.1295C112.656 41.5591 112.997 41.0421 113.433 40.612C113.868 40.1818 114.39 39.8482 114.963 39.633C115.537 39.4177 116.149 39.3256 116.76 39.3627C117.362 39.3174 117.967 39.3994 118.535 39.6034C119.104 39.8074 119.623 40.1289 120.058 40.5468C120.494 40.9647 120.837 41.4697 121.065 42.029C121.293 42.5882 121.4 43.1891 121.38 43.7926V44.4926H118.99V44.2726C118.99 42.4926 117.97 41.6928 116.76 41.6928C115.52 41.6928 114.53 42.4926 114.53 44.2726V50.7726C114.53 52.4626 115.29 53.3527 116.76 53.3527C118.16 53.3527 118.99 52.4926 118.99 50.7726V50.5827Z" fill="white"/>
<path d="M126.89 39.6228V42.1128C128.58 39.8228 130.04 39.4028 131.29 39.3728V42.0527H130.84C129.09 42.0527 126.89 42.7527 126.89 46.2227V55.4329H124.5V39.6328H126.89V39.6228Z" fill="white"/>
<path d="M139.76 53.8628H139.73C139.339 54.4453 138.806 54.9183 138.182 55.2368C137.557 55.5554 136.861 55.709 136.16 55.6829C133.64 55.6829 132.91 53.7727 132.91 51.2527C132.91 47.9027 133.99 46.0227 137.53 46.0227C138.275 46.0262 139.02 46.0697 139.76 46.1528V43.8228C139.761 43.5342 139.703 43.2484 139.59 42.9829C139.477 42.7174 139.311 42.4779 139.103 42.2786C138.894 42.0793 138.647 41.9244 138.377 41.8237C138.106 41.723 137.818 41.6786 137.53 41.6929C136.987 41.6697 136.456 41.8593 136.051 42.2217C135.645 42.584 135.398 43.0904 135.36 43.6328H133.07C133.07 40.9528 135.11 39.3628 137.69 39.3628C141.35 39.3628 142.15 42.0728 142.15 44.1128V55.4229H139.76V53.8628ZM139.76 47.9028C139.224 47.8135 138.683 47.7599 138.14 47.7427C136.77 47.7427 135.3 48.4727 135.3 50.8027C135.3 53.0327 135.97 53.6428 137.34 53.6428C138.025 53.5079 138.641 53.1384 139.083 52.5981C139.524 52.0579 139.764 51.3807 139.76 50.6829V47.9028Z" fill="white"/>
<path d="M148.9 34.8127V39.6228H151.13V41.5327H148.9V51.1228C148.876 51.4433 148.92 51.7651 149.031 52.0669C149.141 52.3687 149.315 52.6436 149.54 52.8728C149.981 53.168 150.511 53.3021 151.04 53.2527H151.29V55.4229H150.59C150.033 55.553 149.452 55.5398 148.902 55.385C148.352 55.2302 147.849 54.9387 147.442 54.5374C147.035 54.136 146.736 53.6379 146.573 53.0898C146.41 52.5417 146.388 51.9615 146.51 51.4028V41.5227H144.82V39.6128H146.51V34.8027H148.9V34.8127Z" fill="white"/>
<path d="M156.61 33.5627V35.8928H154.22V33.5627H156.61ZM154.22 39.6228H156.61V55.4229H154.22V39.6228Z" fill="white"/>
<path d="M165.18 55.4229H163.3L159.16 39.6228H161.68L164.32 50.7126H164.38L166.96 39.6228H169.38L165.18 55.4229Z" fill="white"/>
<path d="M171.71 43.8228C171.741 42.6365 172.233 41.5089 173.082 40.6795C173.93 39.85 175.069 39.3841 176.255 39.3802C177.442 39.3762 178.584 39.8349 179.438 40.6587C180.292 41.4826 180.791 42.6067 180.83 43.7927V51.1529C180.83 52.3622 180.35 53.5221 179.494 54.3772C178.639 55.2324 177.479 55.7127 176.27 55.7127C175.061 55.7127 173.901 55.2324 173.046 54.3772C172.19 53.5221 171.71 52.3622 171.71 51.1529V43.8228ZM178.43 44.2727C178.43 42.5227 177.44 41.6929 176.26 41.6929C175.08 41.6929 174.09 42.5227 174.09 44.2727V50.7727C174.09 52.4327 174.85 53.3528 176.26 53.3528C177.6 53.3528 178.43 52.4927 178.43 50.7727V44.2727Z" fill="white"/>
<path d="M8.10001 82.8528H10.49V83.0728C10.5354 83.6649 10.4532 84.26 10.249 84.8177C10.0447 85.3753 9.72323 85.8825 9.30616 86.3052C8.88909 86.728 8.38616 87.0564 7.83134 87.2681C7.27651 87.4799 6.68269 87.5701 6.09 87.5328C5.47588 87.5712 4.86059 87.4789 4.28467 87.2623C3.70876 87.0456 3.1853 86.7094 2.74879 86.2757C2.31227 85.842 1.97262 85.3209 1.7522 84.7464C1.53178 84.1719 1.43561 83.5573 1.47001 82.9429V75.6129C1.44617 75.0235 1.54571 74.4357 1.76221 73.887C1.97872 73.3384 2.30743 72.841 2.7273 72.4268C3.14717 72.0126 3.64893 71.6906 4.20045 71.4815C4.75196 71.2725 5.34105 71.1809 5.93 71.2127C6.53527 71.1863 7.13955 71.2845 7.70539 71.501C8.27124 71.7175 8.78661 72.0478 9.21967 72.4715C9.65273 72.8952 9.99424 73.4032 10.2231 73.9642C10.4519 74.5251 10.5632 75.127 10.55 75.7327V80.2527H3.85999V82.7728C3.85999 84.4628 4.62 85.1929 6.09 85.1929C7.49 85.1929 8.10001 84.3328 8.10001 83.0228V82.8528ZM8.16001 78.4827V75.7728C8.19176 75.4807 8.15932 75.1855 8.06495 74.9073C7.97058 74.6291 7.81654 74.3748 7.61365 74.1624C7.41076 73.95 7.16391 73.7846 6.89036 73.6776C6.61681 73.5705 6.32318 73.5245 6.03001 73.5428C5.72687 73.5366 5.42587 73.5949 5.14701 73.7139C4.86815 73.833 4.6178 74.01 4.41257 74.2332C4.20735 74.4564 4.05194 74.7208 3.95667 75.0086C3.8614 75.2965 3.82845 75.6013 3.85999 75.9029V78.4827H8.16001Z" fill="white"/>
<path d="M28.17 82.8528H30.56V83.0728C30.6054 83.6649 30.5232 84.26 30.319 84.8177C30.1147 85.3753 29.7932 85.8825 29.3762 86.3052C28.9591 86.728 28.4561 87.0564 27.9013 87.2681C27.3465 87.4799 26.7527 87.5701 26.16 87.5328C25.5459 87.5712 24.9306 87.4789 24.3547 87.2623C23.7788 87.0456 23.2553 86.7094 22.8188 86.2757C22.3823 85.842 22.0426 85.3209 21.8222 84.7464C21.6018 84.1719 21.5056 83.5573 21.54 82.9429V75.6129C21.5162 75.0235 21.6157 74.4357 21.8322 73.887C22.0487 73.3384 22.3774 72.841 22.7973 72.4268C23.2172 72.0126 23.7189 71.6906 24.2705 71.4815C24.822 71.2725 25.4111 71.1809 26 71.2127C26.6053 71.1863 27.2095 71.2845 27.7754 71.501C28.3412 71.7175 28.8566 72.0478 29.2897 72.4715C29.7227 72.8952 30.0642 73.4032 30.2931 73.9642C30.5219 74.5251 30.6332 75.127 30.62 75.7327V80.2527H23.93V82.7728C23.93 84.4628 24.69 85.1929 26.16 85.1929C27.56 85.1929 28.17 84.3328 28.17 83.0228V82.8528ZM28.23 78.4827V75.7728C28.2618 75.4807 28.2293 75.1855 28.135 74.9073C28.0406 74.6291 27.8866 74.3748 27.6837 74.1624C27.4808 73.95 27.2339 73.7846 26.9604 73.6776C26.6868 73.5705 26.3932 73.5245 26.1 73.5428C25.7969 73.5366 25.4959 73.5949 25.217 73.7139C24.9382 73.833 24.6878 74.01 24.4826 74.2332C24.2774 74.4564 24.1219 74.7208 24.0267 75.0086C23.9314 75.2965 23.8985 75.6013 23.93 75.9029V78.4827H28.23Z" fill="white"/>
<path d="M36.67 79.2227L33.01 71.4827H35.56L37.95 76.8628L40.21 71.4827H42.73L39.07 79.0928L42.92 87.2827H40.44L37.89 81.5527L35.34 87.2827H32.82L36.67 79.2227Z" fill="white"/>
<path d="M45.27 71.4727H47.66V73.0327C48.0418 72.4791 48.5506 72.0251 49.1438 71.7085C49.7371 71.3919 50.3976 71.2217 51.07 71.2126C53.87 71.2126 54.38 73.3428 54.38 74.8728V83.8528C54.38 85.3828 53.87 87.5127 51.07 87.5127C50.3976 87.5037 49.7371 87.3337 49.1438 87.0171C48.5506 86.7004 48.0418 86.2465 47.66 85.6929V93.7527H45.27V71.4727ZM51.99 82.7527V76.0027C51.99 74.7927 51.51 73.5527 49.98 73.5527C48.04 73.5527 47.65 75.4629 47.65 76.4529V82.3127C47.65 83.3027 48.03 85.2126 49.98 85.2126C51.52 85.2126 51.99 83.9627 51.99 82.7527Z" fill="white"/>
<path d="M58.21 75.6829C58.241 74.4966 58.7331 73.369 59.5817 72.5396C60.4303 71.7101 61.5688 71.2439 62.7554 71.24C63.9421 71.2361 65.0836 71.6947 65.9377 72.5186C66.7917 73.3424 67.2912 74.4668 67.33 75.6529V83.0127C67.33 84.2221 66.8496 85.3819 65.9944 86.2371C65.1392 87.0923 63.9794 87.5728 62.77 87.5728C61.5606 87.5728 60.4008 87.0923 59.5456 86.2371C58.6904 85.3819 58.21 84.2221 58.21 83.0127V75.6829ZM64.93 76.1328C64.93 74.3828 63.94 73.5528 62.76 73.5528C61.58 73.5528 60.59 74.3828 60.59 76.1328V82.6328C60.59 84.2928 61.35 85.2127 62.76 85.2127C64.1 85.2127 64.93 84.3528 64.93 82.6328V76.1328Z" fill="white"/>
<path d="M71.14 71.4727H73.53V73.0327C73.9118 72.4791 74.4206 72.0251 75.0139 71.7085C75.6071 71.3919 76.2676 71.2217 76.94 71.2126C79.74 71.2126 80.25 73.3428 80.25 74.8728V87.2627H77.86V75.9827C77.86 74.7727 77.38 73.5327 75.85 73.5327C73.91 73.5327 73.52 75.4429 73.52 76.4329V87.2627H71.13V71.4727H71.14Z" fill="white"/>
<path d="M90.7 82.8528H93.09V83.0728C93.1354 83.6649 93.0531 84.26 92.8489 84.8177C92.6447 85.3753 92.3232 85.8825 91.9061 86.3052C91.489 86.728 90.9861 87.0564 90.4313 87.2681C89.8765 87.4799 89.2827 87.5701 88.69 87.5328C88.0759 87.5712 87.4605 87.4789 86.8846 87.2623C86.3087 87.0456 85.7852 86.7094 85.3487 86.2757C84.9122 85.842 84.5726 85.3209 84.3522 84.7464C84.1317 84.1719 84.0356 83.5573 84.07 82.9429V75.6129C84.0461 75.0235 84.1457 74.4357 84.3622 73.887C84.5787 73.3384 84.9074 72.841 85.3272 72.4268C85.7471 72.0126 86.2489 71.6906 86.8004 71.4815C87.3519 71.2725 87.9411 71.1809 88.53 71.2127C89.1353 71.1863 89.7395 71.2845 90.3053 71.501C90.8712 71.7175 91.3866 72.0478 91.8197 72.4715C92.2527 72.8952 92.5942 73.4032 92.823 73.9642C93.0519 74.5251 93.1632 75.127 93.15 75.7327V80.2527H86.46V82.7728C86.46 84.4628 87.22 85.1929 88.69 85.1929C90.09 85.1929 90.7 84.3328 90.7 83.0228V82.8528ZM90.76 78.4827V75.7728C90.7917 75.4807 90.7593 75.1855 90.6649 74.9073C90.5705 74.6291 90.4165 74.3748 90.2136 74.1624C90.0107 73.95 89.7639 73.7846 89.4903 73.6776C89.2168 73.5705 88.9232 73.5245 88.63 73.5428C88.3268 73.5366 88.0258 73.5949 87.747 73.7139C87.4681 73.833 87.2178 74.01 87.0126 74.2332C86.8073 74.4564 86.6519 74.7208 86.5567 75.0086C86.4614 75.2965 86.4285 75.6013 86.46 75.9029V78.4827H90.76Z" fill="white"/>
<path d="M96.85 71.4727H99.24V73.0327C99.6218 72.4791 100.131 72.0251 100.724 71.7085C101.317 71.3919 101.978 71.2217 102.65 71.2126C105.45 71.2126 105.96 73.3428 105.96 74.8728V87.2627H103.57V75.9827C103.57 74.7727 103.09 73.5327 101.56 73.5327C99.62 73.5327 99.23 75.4429 99.23 76.4329V87.2627H96.84V71.4727H96.85Z" fill="white"/>
<path d="M116.63 82.4327H119.02V83.0726C118.984 84.2854 118.473 85.4355 117.597 86.2745C116.72 87.1136 115.549 87.5743 114.336 87.5573C113.123 87.5402 111.965 87.0469 111.113 86.1835C110.26 85.3201 109.782 84.156 109.78 82.9428V75.7726C109.751 75.1609 109.851 74.55 110.074 73.9796C110.296 73.4092 110.637 72.892 111.073 72.4618C111.508 72.0316 112.03 71.698 112.603 71.4828C113.177 71.2676 113.789 71.1755 114.4 71.2125C115.002 71.1673 115.607 71.2495 116.175 71.4535C116.744 71.6575 117.263 71.9789 117.698 72.3969C118.134 72.8148 118.477 73.3198 118.705 73.879C118.933 74.4383 119.04 75.0392 119.02 75.6427V76.3427H116.63V76.1227C116.63 74.3427 115.61 73.5426 114.4 73.5426C113.16 73.5426 112.17 74.3427 112.17 76.1227V82.6227C112.17 84.3127 112.93 85.2028 114.4 85.2028C115.8 85.2028 116.63 84.3427 116.63 82.6227V82.4327Z" fill="white"/>
<path d="M124.53 65.4229V67.7527H122.14V65.4229H124.53ZM122.14 71.4727H124.53V87.2727H122.14V71.4727Z" fill="white"/>
<path d="M135.04 85.7227H135.01C134.619 86.3052 134.086 86.7781 133.462 87.0967C132.837 87.4152 132.141 87.5688 131.44 87.5427C128.92 87.5427 128.19 85.6328 128.19 83.1128C128.19 79.7628 129.27 77.8828 132.81 77.8828C133.555 77.8863 134.3 77.9296 135.04 78.0127V75.6829C135.041 75.3943 134.983 75.1085 134.87 74.843C134.757 74.5775 134.591 74.3377 134.383 74.1384C134.174 73.9391 133.927 73.7845 133.657 73.6838C133.386 73.5831 133.098 73.5385 132.81 73.5527C132.267 73.5295 131.736 73.7194 131.331 74.0818C130.925 74.4441 130.678 74.9503 130.64 75.4927H128.35C128.35 72.8127 130.39 71.2227 132.97 71.2227C136.63 71.2227 137.43 73.9327 137.43 75.9727V87.2827H135.04V85.7227ZM135.04 79.7627C134.504 79.6734 133.963 79.62 133.42 79.6028C132.05 79.6028 130.58 80.3328 130.58 82.6628C130.58 84.8928 131.25 85.5027 132.62 85.5027C133.305 85.3678 133.921 84.9985 134.363 84.4583C134.804 83.918 135.044 83.2406 135.04 82.5427V79.7627Z" fill="white"/>
<path d="M143.77 64.9727V83.3328C143.751 83.5673 143.784 83.8031 143.865 84.0239C143.946 84.2447 144.075 84.4452 144.241 84.6116C144.407 84.778 144.608 84.9062 144.829 84.9875C145.05 85.0689 145.285 85.1015 145.52 85.0828H145.87V87.2827H145.14C142.72 87.2827 141.38 85.8527 141.38 83.7827V64.9827H143.77V64.9727Z" fill="white"/>
<path d="M151.29 84.5728V87.5627L148.55 90.0127V84.5627H151.29V84.5728Z" fill="white"/>
<path d="M8.16 117.573H8.13C7.73942 118.155 7.2064 118.628 6.58157 118.947C5.95675 119.265 5.26085 119.419 4.56 119.393C2.04 119.393 1.31 117.483 1.31 114.963C1.31 111.613 2.38999 109.733 5.92999 109.733C6.67511 109.736 7.41953 109.78 8.16 109.863V107.533C8.16104 107.244 8.10329 106.959 7.9903 106.693C7.8773 106.428 7.71143 106.188 7.50278 105.989C7.29412 105.789 7.04707 105.634 6.77667 105.534C6.50628 105.433 6.21818 105.389 5.92999 105.403C5.3868 105.38 4.85604 105.569 4.45071 105.932C4.04539 106.294 3.79757 106.8 3.76001 107.343H1.47C1.47 104.663 3.51 103.073 6.09 103.073C9.75 103.073 10.55 105.783 10.55 107.823V119.133H8.16V117.573ZM8.16 111.613C7.62417 111.523 7.08297 111.47 6.54001 111.453C5.17001 111.453 3.70001 112.183 3.70001 114.513C3.70001 116.743 4.36999 117.353 5.73999 117.353C6.42467 117.218 7.0409 116.848 7.4826 116.308C7.92431 115.768 8.16386 115.091 8.16 114.393V111.613Z" fill="white"/>
<path d="M14.5 103.333H16.89V104.893C17.2718 104.339 17.7806 103.885 18.3738 103.568C18.9671 103.252 19.6276 103.082 20.3 103.073C23.1 103.073 23.61 105.203 23.61 106.733V119.123H21.22V107.843C21.22 106.633 20.74 105.393 19.21 105.393C17.27 105.393 16.88 107.303 16.88 108.293V119.123H14.49V103.333H14.5Z" fill="white"/>
<path d="M30.37 98.5227V103.333H32.6V105.243H30.37V114.833C30.3458 115.153 30.3904 115.475 30.5008 115.777C30.6112 116.079 30.7848 116.354 31.01 116.583C31.4515 116.878 31.9812 117.012 32.51 116.963H32.76V119.133H32.06C31.5032 119.263 30.9225 119.25 30.3721 119.095C29.8216 118.94 29.3193 118.649 28.912 118.247C28.5047 117.846 28.2056 117.348 28.0427 116.8C27.8797 116.252 27.8581 115.671 27.98 115.113V105.233H26.29V103.333H27.98V98.5227H30.37Z" fill="white"/>
<path d="M42.18 114.703H44.57V114.923C44.6154 115.515 44.5332 116.11 44.329 116.668C44.1247 117.225 43.8032 117.733 43.3861 118.155C42.9691 118.578 42.4661 118.906 41.9113 119.118C41.3565 119.33 40.7627 119.42 40.17 119.383C39.5559 119.421 38.9406 119.329 38.3647 119.112C37.7888 118.896 37.2653 118.559 36.8288 118.126C36.3923 117.692 36.0526 117.171 35.8322 116.596C35.6118 116.022 35.5156 115.407 35.55 114.793V107.463C35.5262 106.873 35.6257 106.286 35.8422 105.737C36.0587 105.188 36.3874 104.691 36.8073 104.277C37.2272 103.863 37.7289 103.541 38.2804 103.332C38.8319 103.123 39.4211 103.031 40.01 103.063C40.6153 103.036 41.2195 103.134 41.7854 103.351C42.3512 103.567 42.8666 103.898 43.2997 104.322C43.7327 104.745 44.0743 105.253 44.3031 105.814C44.5319 106.375 44.6432 106.977 44.63 107.583V112.103H37.94V114.623C37.94 116.313 38.7 117.043 40.17 117.043C41.57 117.043 42.18 116.183 42.18 114.873V114.703ZM42.25 110.343V107.633C42.2818 107.341 42.2493 107.045 42.1549 106.767C42.0606 106.489 41.9065 106.235 41.7037 106.023C41.5008 105.81 41.2539 105.644 40.9804 105.537C40.7068 105.43 40.4132 105.385 40.12 105.403C39.8169 105.397 39.5159 105.455 39.237 105.574C38.9581 105.693 38.7078 105.87 38.5026 106.093C38.2973 106.317 38.142 106.581 38.0467 106.869C37.9514 107.157 37.9185 107.461 37.95 107.763V110.343H42.25Z" fill="white"/>
<path d="M54.42 107.503C54.26 105.723 53.27 105.333 52.29 105.333C52.0119 105.288 51.7271 105.31 51.4591 105.396C51.1911 105.483 50.9475 105.632 50.7483 105.831C50.5491 106.03 50.4001 106.274 50.3134 106.542C50.2268 106.81 50.2051 107.095 50.25 107.373C50.25 108.613 51.11 109.123 52.13 109.603L54.11 110.563C55.071 110.998 55.8537 111.75 56.3277 112.693C56.8018 113.636 56.9385 114.712 56.7152 115.744C56.4919 116.775 55.9219 117.699 55.1004 118.361C54.2788 119.023 53.2552 119.384 52.2 119.383C48.66 119.383 47.64 117.053 47.58 114.863H50C50.13 116.553 50.89 117.153 52.13 117.153C52.4408 117.196 52.7573 117.166 53.0547 117.066C53.3522 116.966 53.6224 116.799 53.8443 116.577C54.0661 116.355 54.2336 116.085 54.3335 115.788C54.4334 115.49 54.463 115.174 54.42 114.863C54.42 113.683 54.04 113.083 52.41 112.283L50.47 111.323C49.6302 111.021 48.9163 110.446 48.4429 109.69C47.9695 108.933 47.7642 108.04 47.86 107.153C47.86 105.023 49.26 103.073 52.42 103.073C55.89 103.073 56.75 105.523 56.82 107.503H54.42Z" fill="white"/>
<path d="M76.68 119.133H74.29V117.573C73.9082 118.126 73.3994 118.581 72.8062 118.897C72.2129 119.214 71.5524 119.384 70.88 119.393C68.08 119.393 67.57 117.263 67.57 115.733V106.753C67.57 105.223 68.08 103.093 70.88 103.093C71.5524 103.102 72.2129 103.272 72.8062 103.588C73.3994 103.905 73.9082 104.359 74.29 104.913V96.8528H76.68V119.133ZM74.29 114.163V108.303C74.29 107.313 73.91 105.403 71.96 105.403C70.43 105.403 69.95 106.643 69.95 107.853V114.603C69.95 115.813 70.43 117.053 71.96 117.053C73.91 117.063 74.29 115.153 74.29 114.163Z" fill="white"/>
<path d="M87.13 114.703H89.52V114.923C89.5654 115.515 89.4831 116.11 89.2789 116.668C89.0747 117.225 88.7532 117.733 88.3361 118.155C87.919 118.578 87.4161 118.906 86.8613 119.118C86.3065 119.33 85.7127 119.42 85.12 119.383C84.5058 119.421 83.8906 119.329 83.3147 119.112C82.7388 118.896 82.2153 118.559 81.7788 118.126C81.3423 117.692 81.0026 117.171 80.7821 116.596C80.5617 116.022 80.4656 115.407 80.5 114.793V107.463C80.4761 106.873 80.5756 106.286 80.7922 105.737C81.0087 105.188 81.3374 104.691 81.7572 104.277C82.1771 103.863 82.6789 103.541 83.2304 103.332C83.782 103.123 84.3711 103.031 84.96 103.063C85.5653 103.036 86.1695 103.134 86.7353 103.351C87.3012 103.567 87.8166 103.898 88.2497 104.322C88.6827 104.745 89.0242 105.253 89.253 105.814C89.4819 106.375 89.5932 106.977 89.58 107.583V112.103H82.89V114.623C82.89 116.313 83.65 117.043 85.12 117.043C86.52 117.043 87.13 116.183 87.13 114.873V114.703ZM87.19 110.343V107.633C87.2217 107.341 87.1893 107.045 87.0949 106.767C87.0005 106.489 86.8465 106.235 86.6437 106.023C86.4408 105.81 86.1939 105.644 85.9203 105.537C85.6468 105.43 85.3531 105.385 85.06 105.403C84.7568 105.397 84.4558 105.455 84.177 105.574C83.8981 105.693 83.6478 105.87 83.4425 106.093C83.2373 106.317 83.0819 106.581 82.9867 106.869C82.8914 107.157 82.8584 107.461 82.89 107.763V110.343H87.19Z" fill="white"/>
<path d="M103.09 97.2827V99.6128H100.7V97.2827H103.09ZM100.7 103.333H103.09V119.133H100.7V103.333Z" fill="white"/>
<path d="M107.04 103.333H109.43V104.893C109.812 104.339 110.321 103.885 110.914 103.568C111.507 103.252 112.168 103.082 112.84 103.073C115.64 103.073 116.15 105.203 116.15 106.733V119.123H113.76V107.843C113.76 106.633 113.28 105.393 111.75 105.393C109.81 105.393 109.42 107.303 109.42 108.293V119.123H107.03V103.333H107.04Z" fill="white"/>
<path d="M124.72 119.133H122.84L118.7 103.333H121.22L123.86 114.423H123.92L126.5 103.333H128.92L124.72 119.133Z" fill="white"/>
<path d="M137.88 114.703H140.27V114.923C140.315 115.515 140.233 116.11 140.029 116.668C139.825 117.225 139.503 117.733 139.086 118.155C138.669 118.578 138.166 118.906 137.611 119.118C137.056 119.33 136.463 119.42 135.87 119.383C135.256 119.421 134.641 119.329 134.065 119.112C133.489 118.896 132.965 118.559 132.529 118.126C132.092 117.692 131.753 117.171 131.532 116.596C131.312 116.022 131.216 115.407 131.25 114.793V107.463C131.226 106.873 131.326 106.286 131.542 105.737C131.759 105.188 132.087 104.691 132.507 104.277C132.927 103.863 133.429 103.541 133.98 103.332C134.532 103.123 135.121 103.031 135.71 103.063C136.315 103.036 136.919 103.134 137.485 103.351C138.051 103.567 138.567 103.898 139 104.322C139.433 104.745 139.774 105.253 140.003 105.814C140.232 106.375 140.343 106.977 140.33 107.583V112.103H133.64V114.623C133.64 116.313 134.4 117.043 135.87 117.043C137.27 117.043 137.88 116.183 137.88 114.873V114.703ZM137.94 110.343V107.633C137.972 107.341 137.939 107.045 137.845 106.767C137.751 106.489 137.597 106.235 137.394 106.023C137.191 105.81 136.944 105.644 136.67 105.537C136.397 105.43 136.103 105.385 135.81 105.403C135.507 105.397 135.206 105.455 134.927 105.574C134.648 105.693 134.398 105.87 134.193 106.093C133.987 106.317 133.832 106.581 133.737 106.869C133.641 107.157 133.608 107.461 133.64 107.763V110.343H137.94Z" fill="white"/>
<path d="M150.11 107.503C149.95 105.723 148.96 105.333 147.98 105.333C147.702 105.288 147.417 105.31 147.149 105.396C146.881 105.483 146.637 105.632 146.438 105.831C146.239 106.03 146.09 106.274 146.003 106.542C145.917 106.81 145.895 107.095 145.94 107.373C145.94 108.613 146.8 109.123 147.82 109.603L149.8 110.563C150.761 110.998 151.544 111.75 152.018 112.693C152.492 113.636 152.628 114.712 152.405 115.744C152.182 116.775 151.612 117.699 150.79 118.361C149.969 119.023 148.945 119.384 147.89 119.383C144.35 119.383 143.33 117.053 143.27 114.863H145.69C145.82 116.553 146.58 117.153 147.82 117.153C148.131 117.196 148.447 117.166 148.745 117.066C149.042 116.966 149.312 116.799 149.534 116.577C149.756 116.355 149.924 116.085 150.023 115.788C150.123 115.49 150.153 115.174 150.11 114.863C150.11 113.683 149.73 113.083 148.1 112.283L146.16 111.323C145.32 111.021 144.606 110.446 144.133 109.69C143.659 108.933 143.454 108.04 143.55 107.153C143.55 105.023 144.95 103.073 148.11 103.073C151.58 103.073 152.44 105.523 152.51 107.503H150.11Z" fill="white"/>
<path d="M158.64 98.5227V103.333H160.87V105.243H158.64V114.833C158.616 115.153 158.66 115.475 158.771 115.777C158.881 116.079 159.055 116.354 159.28 116.583C159.722 116.877 160.251 117.011 160.78 116.963H161.03V119.133H160.33C159.773 119.263 159.193 119.25 158.642 119.095C158.092 118.94 157.589 118.649 157.182 118.247C156.775 117.846 156.476 117.348 156.313 116.8C156.15 116.252 156.128 115.671 156.25 115.113V105.233H154.56V103.333H156.25V98.5227H158.64Z" fill="white"/>
<path d="M166.35 97.2827V99.6128H163.96V97.2827H166.35ZM163.96 103.333H166.35V119.133H163.96V103.333Z" fill="white"/>
<path d="M172.69 103.333V105.823C174.38 103.533 175.84 103.113 177.09 103.083V105.763H176.64C174.89 105.763 172.69 106.463 172.69 109.933V119.143H170.3V103.333H172.69Z" fill="white"/>
<path d="M4.39999 130.373V135.183H6.63V137.093H4.39999V146.683C4.37581 147.003 4.42041 147.325 4.53079 147.627C4.64117 147.929 4.81479 148.204 5.04001 148.433C5.48199 148.727 6.01129 148.861 6.54001 148.813H6.79001V150.983H6.09C5.53319 151.113 4.95252 151.1 4.40207 150.945C3.85162 150.79 3.34933 150.498 2.94202 150.097C2.5347 149.696 2.23563 149.198 2.07266 148.65C1.90969 148.102 1.88814 147.521 2.01001 146.963V137.083H0.320007V135.173H2.01001V130.363H4.39999V130.373Z" fill="white"/>
<path d="M16.22 146.563H18.61V146.783C18.6554 147.375 18.5732 147.97 18.369 148.528C18.1647 149.085 17.8432 149.592 17.4262 150.015C17.0091 150.438 16.5062 150.766 15.9513 150.978C15.3965 151.19 14.8027 151.28 14.21 151.243C13.5959 151.281 12.9806 151.189 12.4047 150.972C11.8288 150.756 11.3053 150.42 10.8688 149.986C10.4323 149.552 10.0926 149.031 9.8722 148.456C9.65178 147.882 9.5556 147.267 9.59 146.653V139.333C9.56617 138.744 9.6657 138.156 9.88221 137.607C10.0987 137.058 10.4274 136.561 10.8473 136.147C11.2672 135.733 11.7689 135.411 12.3204 135.202C12.872 134.993 13.461 134.901 14.05 134.933C14.6553 134.907 15.2595 135.005 15.8254 135.221C16.3912 135.438 16.9066 135.768 17.3397 136.191C17.7727 136.615 18.1143 137.123 18.3431 137.684C18.5719 138.245 18.6832 138.847 18.67 139.453V143.973H11.98V146.493C11.98 148.183 12.74 148.913 14.21 148.913C15.61 148.913 16.22 148.053 16.22 146.743V146.563ZM16.29 142.193V139.483C16.3218 139.191 16.2893 138.895 16.195 138.617C16.1006 138.339 15.9465 138.085 15.7437 137.872C15.5408 137.66 15.2939 137.495 15.0204 137.388C14.7468 137.28 14.4532 137.234 14.16 137.253C13.8569 137.247 13.5559 137.305 13.277 137.424C12.9982 137.543 12.7478 137.72 12.5426 137.943C12.3374 138.166 12.1819 138.431 12.0867 138.719C11.9914 139.006 11.9585 139.311 11.99 139.613V142.193H16.29Z" fill="white"/>
<path d="M24.76 135.193V136.753C25.1332 136.198 25.636 135.742 26.2249 135.425C26.8139 135.108 27.4712 134.939 28.14 134.933C28.7826 134.888 29.4238 135.038 29.9802 135.362C30.5366 135.687 30.9825 136.171 31.26 136.753C31.6281 136.179 32.1383 135.71 32.7409 135.391C33.3436 135.072 34.0184 134.914 34.7 134.933C36.9 134.933 37.95 136.433 37.95 138.663V150.993H35.56V139.713C35.56 138.343 34.99 137.263 33.55 137.263C32.05 137.263 31.35 138.633 31.35 140.163V150.993H28.96V139.713C28.96 138.723 28.58 137.263 26.98 137.263C25.45 137.263 24.75 138.693 24.75 140.163V150.993H22.36V135.193H24.76Z" fill="white"/>
<path d="M41.9 135.193H44.29V136.753C44.6718 136.199 45.1806 135.745 45.7738 135.428C46.3671 135.112 47.0276 134.942 47.7 134.933C50.5 134.933 51.01 137.063 51.01 138.593V147.573C51.01 149.103 50.5 151.233 47.7 151.233C47.0276 151.224 46.3671 151.054 45.7738 150.737C45.1806 150.42 44.6718 149.966 44.29 149.413V157.473H41.9V135.193ZM48.62 146.463V139.713C48.62 138.503 48.14 137.263 46.61 137.263C44.67 137.263 44.28 139.173 44.28 140.163V146.023C44.28 147.013 44.66 148.923 46.61 148.923C48.14 148.923 48.62 147.673 48.62 146.463Z" fill="white"/>
<path d="M54.83 139.393C54.861 138.207 55.3531 137.079 56.2017 136.25C57.0503 135.42 58.1888 134.954 59.3754 134.95C60.5621 134.946 61.7036 135.405 62.5577 136.229C63.4118 137.052 63.9112 138.177 63.95 139.363V146.723C63.95 147.932 63.4696 149.092 62.6144 149.947C61.7592 150.802 60.5994 151.283 59.39 151.283C58.1806 151.283 57.0208 150.802 56.1656 149.947C55.3104 149.092 54.83 147.932 54.83 146.723V139.393ZM61.55 139.843C61.55 138.093 60.56 137.263 59.38 137.263C58.2 137.263 57.21 138.093 57.21 139.843V146.343C57.21 148.003 57.97 148.923 59.38 148.923C60.72 148.923 61.55 148.063 61.55 146.343V139.843Z" fill="white"/>
<path d="M81.68 146.563H84.07V146.783C84.1154 147.375 84.0332 147.97 83.829 148.528C83.6247 149.085 83.3032 149.592 82.8861 150.015C82.4691 150.438 81.9661 150.766 81.4113 150.978C80.8565 151.19 80.2626 151.28 79.67 151.243C79.0558 151.281 78.4406 151.189 77.8647 150.972C77.2887 150.756 76.7653 150.42 76.3288 149.986C75.8923 149.552 75.5526 149.031 75.3322 148.456C75.1118 147.882 75.0156 147.267 75.05 146.653V139.333C75.0261 138.744 75.1256 138.156 75.3421 137.607C75.5586 137.058 75.8874 136.561 76.3073 136.147C76.7272 135.733 77.2289 135.411 77.7804 135.202C78.3319 134.993 78.921 134.901 79.51 134.933C80.1153 134.907 80.7195 135.005 81.2853 135.221C81.8512 135.438 82.3666 135.768 82.7997 136.191C83.2327 136.615 83.5742 137.123 83.803 137.684C84.0318 138.245 84.1431 138.847 84.13 139.453V143.973H77.44V146.493C77.44 148.183 78.2 148.913 79.67 148.913C81.07 148.913 81.68 148.053 81.68 146.743V146.563ZM81.75 142.193V139.483C81.7817 139.191 81.7493 138.895 81.6549 138.617C81.5605 138.339 81.4065 138.085 81.2036 137.872C81.0008 137.66 80.7539 137.495 80.4803 137.388C80.2068 137.28 79.9131 137.234 79.62 137.253C79.3168 137.247 79.0158 137.305 78.737 137.424C78.4581 137.543 78.2078 137.72 78.0025 137.943C77.7973 138.166 77.6419 138.431 77.5467 138.719C77.4514 139.006 77.4184 139.311 77.45 139.613V142.193H81.75Z" fill="white"/>
<path d="M104.37 150.993H101.98V149.433C101.598 149.986 101.089 150.44 100.496 150.757C99.9029 151.074 99.2424 151.244 98.57 151.253C95.77 151.253 95.26 149.123 95.26 147.593V138.613C95.26 137.083 95.77 134.953 98.57 134.953C99.2424 134.962 99.9029 135.132 100.496 135.448C101.089 135.765 101.598 136.219 101.98 136.773V128.713H104.37V150.993ZM101.98 146.023V140.163C101.98 139.173 101.6 137.263 99.65 137.263C98.12 137.263 97.64 138.503 97.64 139.713V146.463C97.64 147.673 98.12 148.913 99.65 148.913C101.59 148.923 101.98 147.013 101.98 146.023Z" fill="white"/>
<path d="M110.7 129.133V131.463H108.31V129.133H110.7ZM108.31 135.193H110.7V150.993H108.31V135.193Z" fill="white"/>
<path d="M114.65 135.193H117.04V136.753C117.422 136.199 117.931 135.745 118.524 135.428C119.117 135.112 119.778 134.942 120.45 134.933C123.25 134.933 123.76 137.063 123.76 138.593V150.983H121.37V139.703C121.37 138.493 120.89 137.253 119.36 137.253C117.42 137.253 117.03 139.163 117.03 140.153V150.983H114.64V135.193H114.65Z" fill="white"/>
<path d="M127.71 128.693H130.1V136.753C130.482 136.199 130.991 135.745 131.584 135.428C132.177 135.112 132.838 134.942 133.51 134.933C136.31 134.933 136.82 137.063 136.82 138.593V150.983H134.43V139.703C134.43 138.493 133.95 137.253 132.42 137.253C130.48 137.253 130.09 139.163 130.09 140.153V150.983H127.7V128.693H127.71Z" fill="white"/>
<path d="M147.27 146.563H149.66V146.783C149.705 147.375 149.623 147.97 149.419 148.528C149.215 149.085 148.893 149.592 148.476 150.015C148.059 150.438 147.556 150.766 147.001 150.978C146.446 151.19 145.853 151.28 145.26 151.243C144.646 151.281 144.031 151.189 143.455 150.972C142.879 150.756 142.355 150.42 141.919 149.986C141.482 149.552 141.143 149.031 140.922 148.456C140.702 147.882 140.606 147.267 140.64 146.653V139.333C140.616 138.744 140.716 138.156 140.932 137.607C141.149 137.058 141.477 136.561 141.897 136.147C142.317 135.733 142.819 135.411 143.37 135.202C143.922 134.993 144.511 134.901 145.1 134.933C145.705 134.907 146.309 135.005 146.875 135.221C147.441 135.438 147.957 135.768 148.39 136.191C148.823 136.615 149.164 137.123 149.393 137.684C149.622 138.245 149.733 138.847 149.72 139.453V143.973H143.03V146.493C143.03 148.183 143.79 148.913 145.26 148.913C146.66 148.913 147.27 148.053 147.27 146.743V146.563ZM147.34 142.193V139.483C147.372 139.191 147.339 138.895 147.245 138.617C147.151 138.339 146.997 138.085 146.794 137.872C146.591 137.66 146.344 137.495 146.07 137.388C145.797 137.28 145.503 137.234 145.21 137.253C144.907 137.247 144.606 137.305 144.327 137.424C144.048 137.543 143.798 137.72 143.593 137.943C143.387 138.166 143.232 138.431 143.137 138.719C143.041 139.006 143.008 139.311 143.04 139.613V142.193H147.34Z" fill="white"/>
<path d="M155.81 129.133V131.463H153.42V129.133H155.81ZM153.42 135.193H155.81V150.993H153.42V135.193Z" fill="white"/>
<path d="M162.15 135.193V137.673C163.84 135.383 165.3 134.963 166.55 134.933V137.613H166.1C164.35 137.613 162.15 138.313 162.15 141.783V150.993H159.76V135.193H162.15Z" fill="white"/>
<path d="M168.58 139.393C168.611 138.207 169.103 137.079 169.952 136.25C170.8 135.42 171.939 134.954 173.125 134.95C174.312 134.946 175.454 135.405 176.308 136.229C177.162 137.052 177.661 138.177 177.7 139.363V146.723C177.7 147.932 177.22 149.092 176.364 149.947C175.509 150.802 174.349 151.283 173.14 151.283C171.931 151.283 170.771 150.802 169.916 149.947C169.06 149.092 168.58 147.932 168.58 146.723V139.393ZM175.31 139.843C175.31 138.093 174.32 137.263 173.14 137.263C171.96 137.263 170.97 138.093 170.97 139.843V146.343C170.97 148.003 171.73 148.923 173.14 148.923C174.48 148.923 175.31 148.063 175.31 146.343V139.843Z" fill="white"/>
<path d="M184.19 148.283V150.993H181.45V148.283H184.19Z" fill="white"/>
</svg>
