<svg width="1052" height="96" viewBox="0 0 1052 96" fill="none" xmlns="http://www.w3.org/2000/svg">
<path d="M0.820007 0.962891H14.08V5.20288H5.28V14.4028H13.05V18.4229H5.28V27.9829H14.21V32.2229H0.809998V0.962891H0.820007Z" fill="white"/>
<path d="M24.04 0.962891V24.6829C24.04 26.8229 25.07 28.3029 27.03 28.3029C28.99 28.3029 30.02 26.8329 30.02 24.6829V0.962891H34.49V24.0129C34.49 30.8929 30.38 32.6729 27.03 32.6729C23.68 32.6729 19.57 30.8829 19.57 24.0129V0.962891H24.04Z" fill="white"/>
<path d="M60.8 32.2229H56.87L50.26 0.962891H55.17L58.79 22.5829H58.97L62.72 0.962891H67.41L60.8 32.2229Z" fill="white"/>
<path d="M70.72 9.18298C70.72 6.81298 70.9 4.53296 73.04 2.53296C74.5746 1.23461 76.5198 0.522217 78.53 0.522217C80.5402 0.522217 82.4854 1.23461 84.02 2.53296C86.16 4.54296 86.34 6.82298 86.34 9.18298V24.0131C86.34 26.3831 86.16 28.653 84.02 30.663C82.4854 31.9613 80.5402 32.6738 78.53 32.6738C76.5198 32.6738 74.5746 31.9613 73.04 30.663C70.9 28.653 70.72 26.3731 70.72 24.0131V9.18298ZM81.89 8.51306C81.9382 8.01875 81.8792 7.51983 81.717 7.05042C81.5548 6.581 81.2931 6.15204 80.95 5.79297C80.2784 5.2186 79.4237 4.90295 78.54 4.90295C77.6563 4.90295 76.8016 5.2186 76.13 5.79297C75.7881 6.1529 75.5273 6.58196 75.3652 7.05115C75.203 7.52033 75.1433 8.01885 75.19 8.51306V24.683C75.1418 25.1773 75.2008 25.6762 75.363 26.1456C75.5253 26.615 75.7869 27.0439 76.13 27.403C76.8016 27.9773 77.6563 28.293 78.54 28.293C79.4237 28.293 80.2784 27.9773 80.95 27.403C81.2919 27.043 81.5526 26.6141 81.7148 26.1449C81.8769 25.6757 81.9367 25.1772 81.89 24.683V8.51306Z" fill="white"/>
<path d="M97.12 0.962891V24.6829C97.12 26.8229 98.15 28.3029 100.11 28.3029C102.07 28.3029 103.1 26.8329 103.1 24.6829V0.962891H107.57V24.0129C107.57 30.8929 103.46 32.6729 100.11 32.6729C96.76 32.6729 92.65 30.8829 92.65 24.0129V0.962891H97.12Z" fill="white"/>
<path d="M131.43 0.962997C133.71 0.962997 137.01 0.832958 139.11 3.42296C140.269 4.99633 140.852 6.92081 140.76 8.87303V11.243C140.794 13.0365 140.212 14.7874 139.11 16.203C138.455 16.9157 137.644 17.4668 136.74 17.813L141.65 32.243H137L132.67 18.753H130.04V32.243H125.57V0.983016H131.43V0.962997ZM130.04 14.723H132.59C133.097 14.7471 133.604 14.6682 134.08 14.4912C134.556 14.3142 134.992 14.0427 135.36 13.693C135.729 13.333 136.006 12.8903 136.17 12.4016C136.333 11.9129 136.378 11.3924 136.3 10.883V8.65294C136.329 7.60385 135.962 6.58237 135.27 5.79295C134.872 5.45995 134.407 5.21624 133.907 5.07823C133.407 4.94022 132.882 4.9112 132.37 4.99303H130.05V14.723H130.04Z" fill="white"/>
<path d="M146.57 0.962891H159.83V5.20288H151.03V14.4028H158.8V18.4229H151.03V27.9829H159.96V32.2229H146.56V0.962891H146.57Z" fill="white"/>
<path d="M173.64 32.2229H169.71L163.1 0.962891H168.01L171.63 22.5829H171.81L175.56 0.962891H180.25L173.64 32.2229Z" fill="white"/>
<path d="M184.49 0.962891H197.75V5.20288H188.95V14.4028H196.72V18.4229H188.95V27.9829H197.88V32.2229H184.48V0.962891H184.49Z" fill="white"/>
<path d="M207.72 0.962891V27.9829H217.19V32.2229H203.26V0.962891H207.72Z" fill="white"/>
<path d="M232.56 32.2229L231.09 25.5228H225.37L223.9 32.2229H219.43L226.26 0.962891H230.19L237.02 32.2229H232.56ZM228.13 9.67285L225.81 21.5529H230.54L228.13 9.67285Z" fill="white"/>
<path d="M247.12 0.962997C249.4 0.962997 252.7 0.832958 254.8 3.42296C255.959 4.99633 256.542 6.92081 256.45 8.87303V11.243C256.484 13.0365 255.902 14.7874 254.8 16.203C254.145 16.9157 253.334 17.4668 252.43 17.813L257.34 32.243H252.69L248.36 18.753H245.73V32.243H241.26V0.983016H247.12V0.962997ZM245.73 14.723H248.28C248.787 14.7471 249.294 14.6682 249.77 14.4912C250.246 14.3142 250.682 14.0427 251.05 13.693C251.419 13.333 251.696 12.8903 251.86 12.4016C252.023 11.9129 252.068 11.3924 251.99 10.883V8.65294C252.019 7.60385 251.652 6.58237 250.96 5.79295C250.562 5.45995 250.097 5.21624 249.597 5.07823C249.097 4.94022 248.572 4.9112 248.06 4.99303H245.74V14.723H245.73Z" fill="white"/>
<path d="M287.54 0.962891V5.20288H282V32.2229H277.53V5.20288H272V0.962891H287.54Z" fill="#00E1BE"/>
<path d="M296.7 0.962891V24.6829C296.7 26.8229 297.73 28.3029 299.69 28.3029C301.65 28.3029 302.68 26.8329 302.68 24.6829V0.962891H307.15V24.0129C307.15 30.8929 303.04 32.6729 299.69 32.6729C296.34 32.6729 292.23 30.8829 292.23 24.0129V0.962891H296.7Z" fill="#00E1BE"/>
<path d="M319.66 0.962891C321.54 0.962891 324.22 1.0529 326.18 2.8429C328.46 4.9429 328.59 8.24289 328.59 9.58289V23.3829C328.59 25.5229 328.37 27.8028 326.58 29.7728C325.763 30.6045 324.779 31.2538 323.694 31.6779C322.608 32.1019 321.444 32.2911 320.28 32.2329H313.63V0.9729H319.66V0.962891ZM318.1 27.8529H320.11C320.656 27.8953 321.204 27.822 321.719 27.6376C322.235 27.4532 322.705 27.1618 323.1 26.7828C323.867 25.7241 324.233 24.4266 324.13 23.1229V9.27283C324.187 8.23732 323.887 7.21362 323.28 6.37292C322.923 5.96999 322.47 5.66414 321.963 5.48401C321.456 5.30387 320.911 5.25531 320.38 5.3429H318.1V27.8529Z" fill="#00E1BE"/>
<path d="M334.71 9.18298C334.71 6.81298 334.89 4.53296 337.03 2.53296C338.565 1.23461 340.51 0.522217 342.52 0.522217C344.53 0.522217 346.475 1.23461 348.01 2.53296C350.15 4.54296 350.33 6.82298 350.33 9.18298V24.0131C350.33 26.3831 350.15 28.653 348.01 30.663C346.475 31.9613 344.53 32.6738 342.52 32.6738C340.51 32.6738 338.565 31.9613 337.03 30.663C334.89 28.653 334.71 26.3731 334.71 24.0131V9.18298ZM345.88 8.51306C345.928 8.01875 345.869 7.51983 345.707 7.05042C345.545 6.581 345.283 6.15204 344.94 5.79297C344.268 5.2186 343.414 4.90295 342.53 4.90295C341.646 4.90295 340.792 5.2186 340.12 5.79297C339.778 6.1529 339.517 6.58196 339.355 7.05115C339.193 7.52033 339.133 8.01885 339.18 8.51306V24.683C339.132 25.1773 339.191 25.6762 339.353 26.1456C339.515 26.615 339.777 27.0439 340.12 27.403C340.792 27.9773 341.646 28.293 342.53 28.293C343.414 28.293 344.268 27.9773 344.94 27.403C345.282 27.043 345.543 26.6141 345.705 26.1449C345.867 25.6757 345.927 25.1772 345.88 24.683V8.51306Z" fill="#00E1BE"/>
<path d="M367.99 9.18298C367.99 6.81298 368.17 4.53296 370.31 2.53296C371.845 1.23461 373.79 0.522217 375.8 0.522217C377.81 0.522217 379.755 1.23461 381.29 2.53296C383.43 4.54296 383.61 6.82298 383.61 9.18298V24.0131C383.737 25.4508 383.492 26.8969 382.9 28.213L385.71 30.443L383.43 33.213L380.66 31.0229C380.009 31.6243 379.24 32.0821 378.401 32.3663C377.562 32.6506 376.672 32.7551 375.79 32.673C373.773 32.7155 371.813 31.9981 370.3 30.663C368.16 28.653 367.98 26.3731 367.98 24.0131V9.18298H367.99ZM374.87 26.423L377.15 23.653L379.16 25.2631V8.51306C379.208 8.01875 379.149 7.51983 378.987 7.05042C378.825 6.581 378.563 6.15204 378.22 5.79297C377.548 5.2186 376.694 4.90295 375.81 4.90295C374.926 4.90295 374.072 5.2186 373.4 5.79297C373.058 6.1529 372.797 6.58196 372.635 7.05115C372.473 7.52033 372.413 8.01885 372.46 8.51306V24.683C372.412 25.1773 372.471 25.6762 372.633 26.1456C372.795 26.615 373.057 27.0439 373.4 27.403C373.723 27.7028 374.103 27.9359 374.516 28.0886C374.93 28.2414 375.369 28.3108 375.81 28.293C376.221 28.3048 376.63 28.244 377.02 28.113L374.87 26.423Z" fill="#00E1BE"/>
<path d="M395.1 0.962891V24.6829C395.1 26.8229 396.13 28.3029 398.09 28.3029C400.05 28.3029 401.08 26.8329 401.08 24.6829V0.962891H405.55V24.0129C405.55 30.8929 401.44 32.6729 398.09 32.6729C394.74 32.6729 390.63 30.8829 390.63 24.0129V0.962891H395.1Z" fill="#00E1BE"/>
<path d="M412.03 0.962891H425.29V5.20288H416.49V14.4028H424.26V18.4229H416.49V27.9829H425.42V32.2229H412.02V0.962891H412.03Z" fill="#00E1BE"/>
<path d="M442.32 0.962891H455.9V5.20288H446.79V14.5829H454.79V18.8229H446.79V32.2229H442.32V0.962891Z" fill="#00E1BE"/>
<path d="M465.28 0.962891V32.2229H460.81V0.962891H465.28Z" fill="#00E1BE"/>
<path d="M485.15 0.962891V4.40283L475.77 28.2129H484.93V32.2329H471.08V28.3029L480.24 4.99292H471.71V0.9729H485.15V0.962891Z" fill="#00E1BE"/>
<path d="M502.49 0.962891H515.75V5.20288H506.95V14.4028H514.72V18.4229H506.95V27.9829H515.88V32.2229H502.48V0.962891H502.49Z" fill="#00E1BE"/>
<path d="M532.77 0.962891H546.35V5.20288H537.24V14.5829H545.23V18.8229H537.24V32.2229H532.77V0.962891Z" fill="#00E1BE"/>
<path d="M559.71 32.2229L558.24 25.5228H552.52L551.05 32.2229H546.58L553.41 0.962891H557.34L564.17 32.2229H559.71ZM555.28 9.67285L552.96 21.5529H557.69L555.28 9.67285Z" fill="#00E1BE"/>
<path d="M577.62 8.06289C577.621 7.33897 577.42 6.62922 577.04 6.01296C576.777 5.64842 576.427 5.35509 576.022 5.15957C575.617 4.96404 575.169 4.87248 574.72 4.89296C574.28 4.87294 573.841 4.95553 573.439 5.1343C573.036 5.31306 572.68 5.58301 572.4 5.92287C571.799 6.831 571.53 7.91933 571.64 9.00295V24.4129C571.527 25.3747 571.731 26.3472 572.22 27.1829C572.479 27.5423 572.822 27.8324 573.22 28.0277C573.618 28.223 574.057 28.3176 574.5 28.3029C574.97 28.3246 575.44 28.2396 575.873 28.0543C576.306 27.869 576.691 27.5883 577 27.2329C577.476 26.4718 577.697 25.5783 577.63 24.6829V23.5629H582.1V24.8629C582.236 26.9409 581.562 28.9906 580.22 30.5829C578.99 31.8073 577.353 32.5369 575.62 32.633L575.53 33.8429C576.3 33.8302 577.047 34.1007 577.63 34.6029C577.942 34.8729 578.189 35.2102 578.352 35.5896C578.515 35.969 578.589 36.3805 578.57 36.7929C578.583 37.2801 578.49 37.7642 578.296 38.2116C578.103 38.6589 577.814 39.0587 577.45 39.383C576.65 40.0476 575.628 40.3836 574.59 40.3229C573.79 40.3497 573 40.1485 572.31 39.7429C571.887 39.5146 571.508 39.2133 571.19 38.8529L572.84 37.2429C572.998 37.3933 573.18 37.5151 573.38 37.6029C573.632 37.7149 573.904 37.776 574.18 37.7829C574.534 37.8035 574.883 37.6932 575.16 37.4729C575.35 37.2842 575.461 37.0304 575.47 36.763C575.469 36.6118 575.437 36.4625 575.375 36.3247C575.313 36.1869 575.223 36.0637 575.11 35.9629C574.865 35.7921 574.583 35.683 574.287 35.6447C573.991 35.6064 573.69 35.6401 573.41 35.7429L573.59 32.6629C572.665 32.6168 571.759 32.3881 570.923 31.9899C570.087 31.5917 569.338 31.0319 568.72 30.3429C567.11 28.4629 567.16 26.3229 567.16 24.7129V8.50295C567.16 6.45295 567.43 4.12295 569.44 2.38295C570.87 1.19506 572.671 0.547249 574.53 0.552876C576.515 0.541164 578.436 1.25611 579.93 2.56289C581.246 3.96383 581.967 5.82104 581.94 7.74294V9.88295H577.61V8.06289H577.62Z" fill="#00E1BE"/>
<path d="M587.71 9.18298C587.71 6.81298 587.89 4.53296 590.03 2.53296C591.565 1.23461 593.51 0.522217 595.52 0.522217C597.53 0.522217 599.475 1.23461 601.01 2.53296C603.15 4.54296 603.33 6.82298 603.33 9.18298V24.0131C603.33 26.3831 603.15 28.653 601.01 30.663C599.475 31.9613 597.53 32.6738 595.52 32.6738C593.51 32.6738 591.565 31.9613 590.03 30.663C587.89 28.653 587.71 26.3731 587.71 24.0131V9.18298ZM598.88 8.51306C598.928 8.01875 598.869 7.51983 598.707 7.05042C598.545 6.581 598.283 6.15204 597.94 5.79297C597.268 5.2186 596.414 4.90295 595.53 4.90295C594.646 4.90295 593.792 5.2186 593.12 5.79297C592.778 6.1529 592.517 6.58196 592.355 7.05115C592.193 7.52033 592.133 8.01885 592.18 8.51306V24.683C592.132 25.1773 592.191 25.6762 592.353 26.1456C592.515 26.615 592.777 27.0439 593.12 27.403C593.792 27.9773 594.646 28.293 595.53 28.293C596.414 28.293 597.268 27.9773 597.94 27.403C598.282 27.043 598.543 26.6141 598.705 26.1449C598.867 25.6757 598.927 25.1772 598.88 24.683V8.51306Z" fill="#00E1BE"/>
<path d="M632.07 32.2229L630.6 25.5228H624.88L623.41 32.2229H618.94L625.77 0.962891H629.7L636.53 32.2229H632.07ZM627.65 9.67285L625.33 21.5529H630.06L627.65 9.67285Z" fill="white"/>
<path d="M652.3 0.962891H665.88V5.20288H656.77V14.5829H664.77V18.8229H656.77V32.2229H652.3V0.962891Z" fill="white"/>
<path d="M676.65 0.962997C678.93 0.962997 682.23 0.832958 684.33 3.42296C685.489 4.99633 686.072 6.92081 685.98 8.87303V11.243C686.014 13.0365 685.432 14.7874 684.33 16.203C683.675 16.9157 682.864 17.4668 681.96 17.813L686.87 32.243H682.23L677.9 18.753H675.26V32.243H670.79V0.983016H676.65V0.962997ZM675.26 14.723H677.81C678.317 14.7471 678.824 14.6682 679.3 14.4912C679.776 14.3142 680.212 14.0427 680.58 13.693C680.949 13.333 681.226 12.8903 681.39 12.4016C681.553 11.9129 681.598 11.3924 681.52 10.883V8.65294C681.549 7.60385 681.182 6.58237 680.49 5.79295C680.092 5.45944 679.627 5.21541 679.127 5.07738C678.627 4.93934 678.102 4.9106 677.59 4.99303H675.27V14.723H675.26Z" fill="white"/>
<path d="M691.79 0.962891H705.05V5.20288H696.25V14.4028H704.02V18.4229H696.25V27.9829H705.18V32.2229H691.78V0.962891H691.79Z" fill="white"/>
<path d="M715.02 0.962891L722.48 20.6129V0.962891H726.95V32.2229H722.48L715.02 12.5729V32.2229H710.55V0.962891H715.02Z" fill="white"/>
<path d="M747.18 0.962891V5.20288H741.64V32.2229H737.17V5.20288H731.63V0.962891H747.18Z" fill="white"/>
<path d="M751.87 0.962891H765.13V5.20288H756.33V14.4028H764.1V18.4229H756.33V27.9829H765.26V32.2229H751.86V0.962891H751.87Z" fill="white"/>
<path d="M788.18 0.962891C790.06 0.962891 792.74 1.0529 794.7 2.8429C796.98 4.9429 797.11 8.24289 797.11 9.58289V23.3829C797.11 25.5229 796.89 27.8028 795.1 29.7728C794.284 30.6052 793.3 31.2549 792.214 31.679C791.128 32.103 789.964 32.2918 788.8 32.2329H782.15V0.9729H788.18V0.962891ZM786.62 27.8529H788.63C789.176 27.8953 789.724 27.822 790.239 27.6376C790.755 27.4532 791.225 27.1618 791.62 26.7828C792.388 25.7241 792.753 24.4266 792.65 23.1229V9.27283C792.707 8.23732 792.407 7.21362 791.8 6.37292C791.443 5.96999 790.99 5.66414 790.483 5.48401C789.976 5.30387 789.431 5.25531 788.9 5.3429H786.62V27.8529Z" fill="white"/>
<path d="M803.42 0.962891H816.68V5.20288H807.88V14.4028H815.65V18.4229H807.88V27.9829H816.81V32.2229H803.41V0.962891H803.42Z" fill="white"/>
<path d="M843.66 0.962891L837.14 23.3429H841.47V14.5029H845.94V23.3929H848.08V27.4128H845.94V32.2329H841.47V27.4128H832.63V23.6628L839.29 0.9729H843.66V0.962891Z" fill="white"/>
<path d="M853.27 7.70296C853.27 6.14296 853.4 3.72292 855.41 2.03292C856.765 0.996893 858.435 0.460119 860.14 0.513021C861.099 0.474853 862.055 0.637405 862.947 0.990438C863.839 1.34347 864.647 1.87911 865.32 2.56295C865.948 3.25254 866.424 4.06657 866.717 4.95211C867.01 5.83765 867.113 6.77489 867.02 7.70296V25.483C867.02 27.273 866.89 29.373 864.83 31.113C863.505 32.1802 861.84 32.7339 860.14 32.6729C858.503 32.7436 856.892 32.2376 855.59 31.243C853.58 29.633 853.27 27.583 853.27 25.483V7.70296ZM862.56 8.33297C862.636 7.46423 862.448 6.59271 862.02 5.83297C861.809 5.53317 861.526 5.29046 861.198 5.12642C860.87 4.96239 860.507 4.88221 860.14 4.89303C859.774 4.8851 859.411 4.96654 859.084 5.13033C858.756 5.29412 858.473 5.53528 858.26 5.83297C857.831 6.59253 857.643 7.4642 857.72 8.33297V24.863C857.642 25.7318 857.831 26.6037 858.26 27.363C858.462 27.6721 858.743 27.9221 859.073 28.0872C859.403 28.2524 859.771 28.3268 860.14 28.3029C860.509 28.3319 860.879 28.2597 861.211 28.0941C861.542 27.9285 861.822 27.6757 862.02 27.363C862.435 26.5982 862.622 25.7308 862.56 24.863V8.33297Z" fill="white"/>
<path d="M873.05 7.70296C873.05 6.14296 873.18 3.72292 875.19 2.03292C876.545 0.996893 878.215 0.460119 879.92 0.513021C880.879 0.474853 881.835 0.637405 882.727 0.990438C883.619 1.34347 884.427 1.87911 885.1 2.56295C885.728 3.25254 886.204 4.06657 886.497 4.95211C886.79 5.83765 886.893 6.77489 886.8 7.70296V25.483C886.8 27.273 886.67 29.373 884.61 31.113C883.285 32.1802 881.62 32.7339 879.92 32.6729C878.283 32.7436 876.673 32.2376 875.37 31.243C873.36 29.633 873.05 27.583 873.05 25.483V7.70296ZM882.34 8.33297C882.416 7.46423 882.228 6.59271 881.8 5.83297C881.589 5.53317 881.306 5.29046 880.978 5.12642C880.65 4.96239 880.287 4.88221 879.92 4.89303C879.554 4.8851 879.191 4.96654 878.864 5.13033C878.536 5.29412 878.253 5.53528 878.04 5.83297C877.611 6.59253 877.423 7.4642 877.5 8.33297V24.863C877.422 25.7318 877.611 26.6037 878.04 27.363C878.242 27.6721 878.523 27.9221 878.853 28.0872C879.183 28.2524 879.552 28.3268 879.92 28.3029C880.289 28.3319 880.659 28.2597 880.99 28.0941C881.322 27.9285 881.602 27.6757 881.8 27.363C882.215 26.5982 882.402 25.7308 882.34 24.863V8.33297Z" fill="white"/>
<path d="M914.91 8.78295C914.976 7.77223 914.709 6.76786 914.15 5.92297C913.865 5.57507 913.502 5.30011 913.09 5.12096C912.678 4.94182 912.229 4.86375 911.78 4.89306C911.377 4.87908 910.974 4.94714 910.598 5.09325C910.221 5.23937 909.878 5.46045 909.59 5.74303C908.879 6.6384 908.542 7.77449 908.65 8.91296C908.606 10.0423 908.85 11.1643 909.36 12.173C909.882 12.8357 910.599 13.3183 911.41 13.553L914.13 14.533C915.735 14.9697 917.158 15.909 918.19 17.213C919.23 18.8117 919.702 20.7137 919.53 22.613V23.683C919.53 26.853 918.68 29.263 917.39 30.603C916.604 31.3102 915.686 31.8554 914.689 32.2071C913.692 32.5589 912.636 32.7104 911.58 32.6529C908.41 32.6529 906.35 31.353 905.33 29.933C904.358 28.3499 903.861 26.5204 903.9 24.663V23.633H908.37V24.483C908.32 25.457 908.567 26.4233 909.08 27.253C909.386 27.5991 909.766 27.8714 910.192 28.0498C910.618 28.2282 911.079 28.3078 911.54 28.283C912.064 28.3355 912.593 28.2612 913.082 28.0663C913.571 27.8713 914.006 27.5615 914.35 27.163C914.909 26.2381 915.158 25.1591 915.06 24.083V22.923C915.132 21.8041 914.886 20.6877 914.35 19.703C913.784 19.0475 913.041 18.5685 912.21 18.323L908.95 17.163C908.048 16.9271 907.211 16.492 906.5 15.8898C905.789 15.2875 905.221 14.5334 904.84 13.683C904.306 12.2252 904.078 10.6729 904.17 9.12304V8.23302C904.144 7.15807 904.336 6.08904 904.735 5.09045C905.134 4.09185 905.731 3.18436 906.49 2.42297C907.217 1.75948 908.069 1.24791 908.996 0.918205C909.924 0.588499 910.907 0.447379 911.89 0.503044C916.36 0.503044 919.35 3.403 919.35 8.583V9.61303H914.88V8.78295H914.91Z" fill="white"/>
<path d="M938 0.962891V5.20288H932.46V32.2229H928V5.20288H922.46V0.962891H938Z" fill="white"/>
<path d="M951.18 32.2229L949.71 25.5228H943.99L942.52 32.2229H938.05L944.88 0.962891H948.81L955.64 32.2229H951.18ZM946.76 9.67285L944.44 21.5529H949.17L946.76 9.67285Z" fill="white"/>
<path d="M965.74 0.962997C968.02 0.962997 971.32 0.832958 973.42 3.42296C974.579 4.99633 975.162 6.92081 975.07 8.87303V11.243C975.104 13.0365 974.522 14.7874 973.42 16.203C972.765 16.9157 971.954 17.4668 971.05 17.813L975.96 32.243H971.32L966.99 18.753H964.36V32.243H959.89V0.983016H965.74V0.962997ZM964.36 14.723H966.9C967.407 14.7471 967.914 14.6682 968.39 14.4912C968.866 14.3142 969.302 14.0427 969.67 13.693C970.039 13.333 970.316 12.8903 970.48 12.4016C970.643 11.9129 970.688 11.3924 970.61 10.883V8.65294C970.639 7.60385 970.272 6.58237 969.58 5.79295C969.182 5.45944 968.717 5.21541 968.217 5.07738C967.717 4.93934 967.193 4.9106 966.68 4.99303H964.36V14.723Z" fill="white"/>
<path d="M993.97 0.962891V5.20288H988.43V32.2229H983.96V5.20288H978.42V0.962891H993.97Z" fill="white"/>
<path d="M1003.13 0.962891V24.6829C1003.13 26.8229 1004.16 28.3029 1006.12 28.3029C1008.08 28.3029 1009.11 26.8329 1009.11 24.6829V0.962891H1013.58V24.0129C1013.58 30.8929 1009.47 32.6729 1006.12 32.6729C1002.77 32.6729 998.66 30.8829 998.66 24.0129V0.962891H1003.13Z" fill="white"/>
<path d="M1020.06 0.962891H1026.71C1028.63 0.962891 1031 1.05294 1032.96 3.01294C1035.01 5.11294 1035.24 7.83284 1035.24 10.1628V11.0529C1035.39 13.3286 1034.7 15.5805 1033.32 17.3929C1032.54 18.2348 1031.58 18.8922 1030.52 19.3177C1029.45 19.7433 1028.31 19.9261 1027.16 19.8529H1024.53V32.2229H1020.06V0.962891ZM1024.53 15.8329H1026.94C1027.49 15.8671 1028.05 15.7811 1028.56 15.5808C1029.08 15.3806 1029.55 15.0708 1029.93 14.6729C1030.29 14.2243 1030.55 13.7065 1030.69 13.1522C1030.84 12.5979 1030.87 12.0192 1030.78 11.4529V9.40283C1030.87 8.7469 1030.81 8.07825 1030.6 7.44983C1030.39 6.82141 1030.04 6.25057 1029.57 5.78284C1028.55 5.10282 1027.31 4.81856 1026.09 4.98291H1024.53V15.8329Z" fill="white"/>
<path d="M1047.44 16.063C1047.42 15.4636 1047.18 14.8925 1046.77 14.453C1046.55 14.2552 1046.3 14.102 1046.02 14.0025C1045.75 13.9029 1045.45 13.859 1045.16 13.8731C1044.87 13.8583 1044.57 13.9061 1044.3 14.0135C1044.02 14.1208 1043.77 14.2853 1043.56 14.496C1043.36 14.7067 1043.2 14.9589 1043.09 15.2359C1042.99 15.5129 1042.95 15.8084 1042.97 16.1031C1042.96 16.6155 1043.12 17.1164 1043.42 17.533C1043.88 18.0802 1044.48 18.4832 1045.16 18.693L1047.84 19.813C1048.95 20.2859 1049.93 21.02 1050.7 21.953C1051.51 23.1458 1051.9 24.5733 1051.82 26.0131C1051.85 27.5772 1051.35 29.1049 1050.39 30.3431C1049.72 31.1073 1048.89 31.7065 1047.95 32.0934C1047.02 32.4804 1046 32.6446 1044.99 32.573C1044.04 32.6359 1043.08 32.4926 1042.19 32.1526C1041.29 31.8127 1040.48 31.2842 1039.81 30.6031C1038.72 29.3216 1038.13 27.6861 1038.16 26.0031H1042.63C1042.62 26.6202 1042.82 27.2217 1043.21 27.703C1043.71 28.1638 1044.36 28.4177 1045.04 28.413C1045.37 28.4216 1045.69 28.3579 1045.99 28.2266C1046.3 28.0953 1046.56 27.8994 1046.78 27.653C1047.19 27.152 1047.4 26.5118 1047.36 25.8631C1047.36 24.7031 1047 23.853 1045.13 23.053L1042.49 21.933C1041.43 21.5354 1040.48 20.8909 1039.72 20.053C1038.89 18.9836 1038.46 17.6562 1038.51 16.303C1038.43 14.5447 1039.02 12.8204 1040.16 11.4831C1040.79 10.8754 1041.54 10.4033 1042.37 10.0955C1043.19 9.78773 1044.06 9.65079 1044.94 9.69303C1047.75 9.69303 1049.36 10.6731 1050.12 11.4831C1051.25 12.7304 1051.86 14.3618 1051.82 16.043H1047.44V16.063Z" fill="white"/>
<path d="M31.48 62.9629H44.74V67.2029H35.94V76.4028H43.71V80.4229H35.94V89.9829H44.87V94.2229H31.47V62.9629H31.48Z" fill="white"/>
<path d="M61.59 71.183C61.59 68.813 61.77 66.533 63.91 64.533C65.4447 63.2346 67.3898 62.5222 69.4 62.5222C71.4102 62.5222 73.3554 63.2346 74.89 64.533C77.03 66.543 77.21 68.823 77.21 71.183V86.0131C77.3367 87.4508 77.0923 88.8969 76.5 90.213L79.31 92.443L77.03 95.213L74.26 93.0229C73.6095 93.6243 72.8397 94.0821 72.0006 94.3663C71.1616 94.6506 70.2721 94.7551 69.39 94.673C67.3726 94.7155 65.413 93.9981 63.9 92.663C61.76 90.653 61.58 88.3731 61.58 86.0131V71.183H61.59ZM68.47 88.423L70.75 85.653L72.76 87.2631V70.5131C72.8082 70.0187 72.7492 69.5198 72.587 69.0504C72.4247 68.581 72.1631 68.152 71.82 67.793C71.1484 67.2186 70.2937 66.903 69.41 66.903C68.5263 66.903 67.6716 67.2186 67 67.793C66.6581 68.1529 66.3973 68.582 66.2352 69.0511C66.073 69.5203 66.0133 70.0188 66.06 70.5131V86.683C66.0118 87.1773 66.0708 87.6762 66.233 88.1456C66.3953 88.615 66.6569 89.0439 67 89.403C67.3232 89.7028 67.7026 89.9359 68.1161 90.0886C68.5297 90.2414 68.9694 90.3108 69.41 90.293C69.8208 90.3048 70.2304 90.244 70.62 90.113L68.47 88.423Z" fill="white"/>
<path d="M88.7 62.9629V86.6829C88.7 88.8229 89.73 90.3029 91.69 90.3029C93.65 90.3029 94.68 88.8329 94.68 86.6829V62.9629H99.15V86.0129C99.15 92.8929 95.04 94.6729 91.69 94.6729C88.34 94.6729 84.23 92.8829 84.23 86.0129V62.9629H88.7Z" fill="white"/>
<path d="M105.63 62.9629H118.89V67.2029H110.09V76.4028H117.86V80.4229H110.09V89.9829H119.02V94.2229H105.62V62.9629H105.63Z" fill="white"/>
<path d="M144.22 94.2229H140.29L133.68 62.9629H138.59L142.21 84.5829H142.39L146.14 62.9629H150.83L144.22 94.2229Z" fill="white"/>
<path d="M154.14 71.183C154.14 68.813 154.32 66.533 156.46 64.533C157.995 63.2346 159.94 62.5222 161.95 62.5222C163.96 62.5222 165.905 63.2346 167.44 64.533C169.58 66.543 169.76 68.823 169.76 71.183V86.0131C169.76 88.3831 169.58 90.653 167.44 92.663C165.905 93.9613 163.96 94.6738 161.95 94.6738C159.94 94.6738 157.995 93.9613 156.46 92.663C154.32 90.653 154.14 88.3731 154.14 86.0131V71.183ZM165.31 70.5131C165.358 70.0187 165.299 69.5198 165.137 69.0504C164.975 68.581 164.713 68.152 164.37 67.793C163.698 67.2186 162.844 66.903 161.96 66.903C161.076 66.903 160.222 67.2186 159.55 67.793C159.208 68.1529 158.947 68.582 158.785 69.0511C158.623 69.5203 158.563 70.0188 158.61 70.5131V86.683C158.562 87.1773 158.621 87.6762 158.783 88.1456C158.945 88.615 159.207 89.0439 159.55 89.403C160.222 89.9773 161.076 90.293 161.96 90.293C162.844 90.293 163.698 89.9773 164.37 89.403C164.712 89.043 164.973 88.6141 165.135 88.1449C165.297 87.6757 165.357 87.1772 165.31 86.683V70.5131Z" fill="white"/>
<path d="M186.39 70.0631C186.391 69.3392 186.19 68.6295 185.81 68.0132C185.547 67.6487 185.197 67.3553 184.792 67.1598C184.387 66.9643 183.939 66.8727 183.49 66.8932C183.05 66.8732 182.611 66.9558 182.208 67.1345C181.806 67.3133 181.45 67.5832 181.17 67.9231C180.569 68.8312 180.3 69.9196 180.41 71.0032V86.4131C180.297 87.3749 180.501 88.3474 180.99 89.1831C181.249 89.5425 181.592 89.8327 181.99 90.028C182.388 90.2233 182.827 90.3178 183.27 90.3031C183.74 90.3238 184.209 90.2385 184.642 90.0532C185.075 89.868 185.46 89.5877 185.77 89.2332C186.241 88.4702 186.458 87.5773 186.39 86.6831V85.5631H190.86V86.8632C190.992 88.9406 190.318 90.9889 188.98 92.5831C188.04 93.6131 186.21 94.6831 183.13 94.6831C182.073 94.7414 181.017 94.5582 180.042 94.1476C179.066 93.737 178.197 93.1096 177.5 92.3131C175.89 90.4331 175.94 88.2931 175.94 86.6831V70.4732C175.94 68.4232 176.21 66.0932 178.22 64.3532C179.65 63.1653 181.451 62.5175 183.31 62.5231C185.295 62.5114 187.216 63.2263 188.71 64.5331C190.026 65.934 190.747 67.7913 190.72 69.7132V71.8532H186.39V70.0631Z" fill="white"/>
<path d="M196.67 62.9631H209.93V67.2031H201.13V76.4031H208.9V80.4231H201.13V89.9832H210.06V94.2231H196.66V62.9631H196.67ZM200.1 60.1031H197.24L199.79 55.4131H205.78L208.32 60.1031H205.46L202.78 57.5132L200.1 60.1031Z" fill="white"/>
<path d="M226.95 62.9629H233.61C235.53 62.9629 237.9 63.0529 239.86 65.0129C241.91 67.1129 242.14 69.8328 242.14 72.1628V73.0529C242.286 75.3286 241.604 77.5805 240.22 79.3929C239.44 80.2348 238.483 80.8922 237.417 81.3177C236.352 81.7433 235.205 81.9261 234.06 81.8529H231.43V94.2229H226.96V62.9629H226.95ZM231.42 77.8329H233.83C234.383 77.8671 234.936 77.7811 235.452 77.5808C235.968 77.3806 236.435 77.0708 236.82 76.6729C237.177 76.2243 237.437 75.7065 237.583 75.1522C237.73 74.5979 237.759 74.0192 237.67 73.4529V71.4028C237.764 70.7469 237.703 70.0782 237.493 69.4498C237.283 68.8214 236.929 68.2506 236.46 67.7828C235.435 67.1028 234.199 66.8186 232.98 66.9829H231.42V77.8329Z" fill="white"/>
<path d="M253.13 62.963C255.41 62.963 258.71 62.833 260.81 65.423C261.969 66.9963 262.552 68.9208 262.46 70.873V73.243C262.494 75.0365 261.912 76.7874 260.81 78.203C260.155 78.9157 259.344 79.4668 258.44 79.813L263.35 94.243H258.7L254.37 80.753H251.74V94.243H247.27V62.983H253.13V62.963ZM251.74 76.723H254.29C254.797 76.7471 255.304 76.6682 255.78 76.4912C256.256 76.3142 256.692 76.0427 257.06 75.693C257.429 75.333 257.706 74.8903 257.87 74.4016C258.033 73.9129 258.078 73.3924 258 72.883V70.6529C258.029 69.6039 257.662 68.5824 256.97 67.793C256.572 67.4599 256.107 67.2162 255.607 67.0782C255.107 66.9402 254.582 66.9112 254.07 66.993H251.75V76.723H251.74Z" fill="white"/>
<path d="M268.27 62.9629H281.53V67.2029H272.73V76.4028H280.5V80.4229H272.73V89.9829H281.66V94.2229H268.26V62.9629H268.27Z" fill="white"/>
<path d="M297.35 70.0631C297.351 69.3392 297.15 68.6295 296.77 68.0132C296.507 67.6487 296.157 67.3553 295.752 67.1598C295.347 66.9643 294.899 66.8727 294.45 66.8932C294.01 66.8732 293.571 66.9558 293.169 67.1345C292.766 67.3133 292.41 67.5832 292.13 67.9231C291.529 68.8312 291.26 69.9196 291.37 71.0032V86.4131C291.257 87.3749 291.461 88.3474 291.95 89.1831C292.209 89.5425 292.552 89.8327 292.95 90.028C293.348 90.2233 293.787 90.3178 294.23 90.3031C294.7 90.3238 295.169 90.2385 295.602 90.0532C296.035 89.868 296.42 89.5877 296.73 89.2332C297.201 88.4702 297.418 87.5773 297.35 86.6831V85.5631H301.82V86.8632C301.952 88.9406 301.278 90.9889 299.94 92.5831C299 93.6131 297.17 94.6831 294.09 94.6831C293.033 94.7414 291.977 94.5582 291.002 94.1476C290.026 93.737 289.157 93.1096 288.46 92.3131C286.85 90.4331 286.9 88.2931 286.9 86.6831V70.4732C286.9 68.4232 287.17 66.0932 289.18 64.3532C290.61 63.1653 292.411 62.5175 294.27 62.5231C296.255 62.5114 298.176 63.2263 299.67 64.5331C300.986 65.934 301.707 67.7913 301.68 69.7132V71.8532H297.35V70.0631Z" fill="white"/>
<path d="M312.09 62.9629V94.2229H307.62V62.9629H312.09Z" fill="white"/>
<path d="M328.88 70.783C328.946 69.7722 328.679 68.7678 328.12 67.923C327.835 67.5751 327.472 67.3001 327.06 67.121C326.648 66.9418 326.198 66.8638 325.75 66.8931C325.346 66.8783 324.944 66.946 324.567 67.0922C324.191 67.2383 323.848 67.4598 323.56 67.743C322.849 68.6384 322.512 69.7745 322.62 70.913C322.576 72.0423 322.82 73.1643 323.33 74.173C323.852 74.8357 324.569 75.3183 325.38 75.553L328.1 76.533C329.705 76.9697 331.128 77.909 332.16 79.213C333.2 80.8117 333.672 82.7137 333.5 84.613V85.683C333.5 88.853 332.65 91.263 331.36 92.603C330.574 93.3102 329.656 93.8554 328.659 94.2071C327.662 94.5589 326.606 94.7104 325.55 94.6529C322.38 94.6529 320.32 93.353 319.3 91.933C318.328 90.3499 317.831 88.5204 317.87 86.663V85.633H322.34V86.483C322.29 87.457 322.537 88.4233 323.05 89.253C323.356 89.5991 323.736 89.8714 324.162 90.0498C324.588 90.2282 325.049 90.3078 325.51 90.283C326.034 90.3356 326.563 90.2613 327.052 90.0664C327.541 89.8715 327.976 89.5615 328.32 89.163C328.879 88.2381 329.127 87.1591 329.03 86.083V84.923C329.102 83.8041 328.856 82.6877 328.32 81.703C327.754 81.0475 327.011 80.5685 326.18 80.323L322.92 79.163C322.018 78.9271 321.181 78.492 320.47 77.8898C319.758 77.2875 319.191 76.5334 318.81 75.683C318.271 74.2264 318.042 72.6731 318.14 71.123V70.233C318.114 69.1581 318.306 68.0889 318.705 67.0903C319.104 66.0917 319.701 65.1843 320.46 64.423C321.187 63.7595 322.039 63.2479 322.966 62.9182C323.894 62.5885 324.877 62.4474 325.86 62.503C330.33 62.503 333.32 65.403 333.32 70.583V71.613H328.85V70.783H328.88Z" fill="white"/>
<path d="M349.34 94.2229L347.87 87.5228H342.15L340.68 94.2229H336.21L343.04 62.9629H346.97L353.8 94.2229H349.34ZM344.92 71.6729L342.6 83.5529H347.33L344.92 71.6729Z" fill="white"/>
<path d="M369.58 62.9629H383.16V67.2029H374.05V76.5829H382.05V80.8229H374.05V94.2229H369.58V62.9629Z" fill="white"/>
<path d="M396.51 94.2229L395.04 87.5228H389.32L387.85 94.2229H383.38L390.21 62.9629H394.14L400.97 94.2229H396.51ZM392.09 71.6729L389.77 83.5529H394.5L392.09 71.6729Z" fill="white"/>
<path d="M418.62 62.9629V66.4028L409.24 90.2129H418.4V94.2329H404.56V90.3029L413.72 66.9929H405.19V62.9729H418.62V62.9629Z" fill="white"/>
<path d="M424.43 62.9629H437.69V67.2029H428.89V76.4028H436.66V80.4229H428.89V89.9829H437.82V94.2229H424.42V62.9629H424.43Z" fill="white"/>
<path d="M449.04 62.963C451.32 62.963 454.62 62.833 456.72 65.423C457.879 66.9963 458.462 68.9208 458.37 70.873V73.243C458.404 75.0365 457.822 76.7874 456.72 78.203C456.065 78.9157 455.254 79.4668 454.35 79.813L459.26 94.243H454.62L450.29 80.753H447.65V94.243H443.18V62.983H449.04V62.963ZM447.66 76.723H450.21C450.717 76.7471 451.224 76.6682 451.7 76.4912C452.176 76.3142 452.612 76.0427 452.98 75.693C453.349 75.333 453.626 74.8903 453.79 74.4016C453.953 73.9129 453.998 73.3924 453.92 72.883V70.6529C453.949 69.6039 453.582 68.5824 452.89 67.793C452.492 67.4594 452.027 67.2154 451.527 67.0774C451.027 66.9393 450.502 66.9106 449.99 66.993H447.67V76.723H447.66Z" fill="white"/>
<path d="M475.71 62.9629H482.37C484.29 62.9629 486.66 63.0529 488.62 65.0129C490.67 67.1129 490.9 69.8328 490.9 72.1628V73.0529C491.046 75.3286 490.364 77.5805 488.98 79.3929C488.2 80.2348 487.243 80.8922 486.177 81.3177C485.112 81.7433 483.965 81.9261 482.82 81.8529H480.19V94.2229H475.72V62.9629H475.71ZM480.17 77.8329H482.58C483.133 77.8671 483.686 77.7811 484.202 77.5808C484.718 77.3806 485.185 77.0708 485.57 76.6729C485.927 76.2243 486.187 75.7065 486.333 75.1522C486.48 74.5979 486.509 74.0192 486.42 73.4529V71.4028C486.514 70.7469 486.453 70.0782 486.243 69.4498C486.033 68.8214 485.679 68.2506 485.21 67.7828C484.185 67.1028 482.949 66.8186 481.73 66.9829H480.17V77.8329Z" fill="white"/>
<path d="M505.14 94.2229L503.67 87.5228H497.95L496.48 94.2229H492.01L498.84 62.9629H502.77L509.6 94.2229H505.14ZM500.72 71.6729L498.4 83.5529H503.13L500.72 71.6729Z" fill="white"/>
<path d="M519.71 62.963C521.99 62.963 525.29 62.833 527.39 65.423C528.549 66.9963 529.132 68.9208 529.04 70.873V73.243C529.074 75.0365 528.492 76.7874 527.39 78.203C526.735 78.9157 525.924 79.4668 525.02 79.813L529.93 94.243H525.29L520.96 80.753H518.33V94.243H513.86V62.983H519.71V62.963ZM518.32 76.723H520.87C521.377 76.7471 521.884 76.6682 522.36 76.4912C522.836 76.3142 523.272 76.0427 523.64 75.693C524.009 75.333 524.286 74.8903 524.45 74.4016C524.613 73.9129 524.658 73.3924 524.58 72.883V70.6529C524.609 69.6039 524.242 68.5824 523.55 67.793C523.152 67.4594 522.687 67.2154 522.187 67.0774C521.687 66.9393 521.163 66.9106 520.65 66.993H518.33V76.723H518.32Z" fill="white"/>
<path d="M545.3 94.2229L543.83 87.5228H538.11L536.64 94.2229H532.17L539 62.9629H542.93L549.76 94.2229H545.3ZM540.88 71.6729L538.56 83.5529H543.29L540.88 71.6729Z" fill="white"/>
<path d="M575.85 70.0631C575.851 69.3392 575.65 68.6295 575.27 68.0132C575.007 67.6487 574.657 67.3553 574.252 67.1598C573.847 66.9643 573.399 66.8727 572.95 66.8932C572.51 66.8732 572.071 66.9558 571.669 67.1345C571.266 67.3133 570.91 67.5832 570.63 67.9231C570.029 68.8312 569.76 69.9196 569.87 71.0032V86.4131C569.757 87.3749 569.961 88.3474 570.45 89.1831C570.709 89.5425 571.052 89.8327 571.45 90.028C571.848 90.2233 572.287 90.3178 572.73 90.3031C573.2 90.3248 573.67 90.2399 574.103 90.0546C574.536 89.8693 574.921 89.5885 575.23 89.2332C575.706 88.472 575.927 87.5785 575.86 86.6831V85.5631H580.33V86.8632C580.462 88.9406 579.788 90.9889 578.45 92.5831C577.51 93.6131 575.68 94.6831 572.6 94.6831C571.543 94.7414 570.487 94.5582 569.512 94.1476C568.536 93.737 567.667 93.1096 566.97 92.3131C565.36 90.4331 565.41 88.2931 565.41 86.6831V70.4732C565.41 68.4232 565.68 66.0932 567.69 64.3532C569.12 63.1653 570.921 62.5175 572.78 62.5231C574.765 62.5114 576.686 63.2263 578.18 64.5331C579.496 65.934 580.217 67.7913 580.19 69.7132V71.8532H575.86V70.0631H575.85Z" fill="#00E1BE"/>
<path d="M585.95 71.183C585.95 68.813 586.13 66.533 588.27 64.533C589.805 63.2346 591.75 62.5222 593.76 62.5222C595.77 62.5222 597.715 63.2346 599.25 64.533C601.39 66.543 601.57 68.823 601.57 71.183V86.0131C601.57 88.3831 601.39 90.653 599.25 92.663C597.715 93.9613 595.77 94.6738 593.76 94.6738C591.75 94.6738 589.805 93.9613 588.27 92.663C586.13 90.653 585.95 88.3731 585.95 86.0131V71.183ZM597.12 70.5131C597.168 70.0187 597.109 69.5198 596.947 69.0504C596.785 68.581 596.523 68.152 596.18 67.793C595.508 67.2186 594.654 66.903 593.77 66.903C592.886 66.903 592.032 67.2186 591.36 67.793C591.018 68.1529 590.757 68.582 590.595 69.0511C590.433 69.5203 590.373 70.0188 590.42 70.5131V86.683C590.372 87.1773 590.431 87.6762 590.593 88.1456C590.755 88.615 591.017 89.0439 591.36 89.403C592.032 89.9773 592.886 90.293 593.77 90.293C594.654 90.293 595.508 89.9773 596.18 89.403C596.522 89.043 596.783 88.6141 596.945 88.1449C597.107 87.6757 597.167 87.1772 597.12 86.683V70.5131Z" fill="#00E1BE"/>
<path d="M612.35 62.9629L619.81 82.6129V62.9629H624.28V94.2229H619.81L612.35 74.5729V94.2229H607.88V62.9629H612.35Z" fill="#00E1BE"/>
<path d="M630.57 71.183C630.57 68.813 630.75 66.533 632.89 64.533C634.425 63.2346 636.37 62.5222 638.38 62.5222C640.39 62.5222 642.335 63.2346 643.87 64.533C646.01 66.543 646.19 68.823 646.19 71.183V86.0131C646.317 87.4508 646.072 88.8968 645.48 90.213L648.29 92.443L646.01 95.213L643.24 93.0229C642.589 93.6243 641.82 94.0821 640.981 94.3663C640.142 94.6506 639.252 94.7551 638.37 94.673C636.352 94.7172 634.392 93.9995 632.88 92.663C630.74 90.653 630.56 88.3731 630.56 86.0131V71.183H630.57ZM637.45 88.423L639.73 85.653L641.74 87.2631V70.5131C641.788 70.0187 641.729 69.5198 641.567 69.0504C641.405 68.581 641.143 68.152 640.8 67.793C640.128 67.2186 639.274 66.903 638.39 66.903C637.506 66.903 636.652 67.2186 635.98 67.793C635.638 68.1529 635.377 68.582 635.215 69.0511C635.053 69.5203 634.993 70.0188 635.04 70.5131V86.683C634.992 87.1773 635.051 87.6762 635.213 88.1456C635.375 88.615 635.637 89.0439 635.98 89.403C636.303 89.7036 636.682 89.9372 637.096 90.09C637.509 90.2428 637.949 90.3118 638.39 90.293C638.801 90.3049 639.21 90.244 639.6 90.113L637.45 88.423Z" fill="#00E1BE"/>
<path d="M657.69 62.9629V86.6829C657.69 88.8229 658.72 90.3029 660.68 90.3029C662.64 90.3029 663.67 88.8329 663.67 86.6829V62.9629H668.14V86.0129C668.14 92.8929 664.03 94.6729 660.68 94.6729C657.33 94.6729 653.22 92.8829 653.22 86.0129V62.9629H657.69Z" fill="#00E1BE"/>
<path d="M679.08 62.9629V94.2229H674.61V62.9629H679.08Z" fill="#00E1BE"/>
<path d="M695.88 70.783C695.946 69.7722 695.679 68.7679 695.12 67.923C694.835 67.5751 694.472 67.3001 694.06 67.121C693.648 66.9418 693.199 66.8638 692.75 66.8931C692.346 66.8791 691.944 66.9471 691.568 67.0933C691.191 67.2394 690.849 67.4605 690.56 67.743C689.849 68.6384 689.512 69.7745 689.62 70.913C689.576 72.0423 689.82 73.1643 690.33 74.173C690.852 74.8357 691.569 75.3183 692.38 75.553L695.1 76.533C696.705 76.9697 698.128 77.909 699.16 79.213C700.2 80.8117 700.672 82.7137 700.5 84.613V85.683C700.5 88.853 699.65 91.263 698.36 92.603C697.574 93.3102 696.656 93.8554 695.659 94.2071C694.662 94.5589 693.606 94.7104 692.55 94.6529C689.38 94.6529 687.32 93.353 686.3 91.933C685.328 90.3499 684.831 88.5204 684.87 86.663V85.633H689.34V86.483C689.29 87.457 689.537 88.4233 690.05 89.253C690.356 89.5991 690.736 89.8714 691.162 90.0498C691.588 90.2282 692.049 90.3078 692.51 90.283C693.034 90.3355 693.563 90.2612 694.052 90.0663C694.541 89.8713 694.976 89.5615 695.32 89.163C695.879 88.2381 696.128 87.1591 696.03 86.083V84.923C696.102 83.8041 695.856 82.6877 695.32 81.703C694.754 81.0475 694.011 80.5685 693.18 80.323L689.92 79.163C689.018 78.9271 688.181 78.492 687.47 77.8898C686.758 77.2875 686.191 76.5334 685.81 75.683C685.276 74.2252 685.047 72.6729 685.14 71.123V70.233C685.114 69.1581 685.306 68.089 685.705 67.0904C686.104 66.0919 686.701 65.1844 687.46 64.423C688.187 63.7595 689.039 63.2479 689.966 62.9182C690.894 62.5885 691.877 62.4474 692.86 62.503C697.33 62.503 700.32 65.403 700.32 70.583V71.613H695.85V70.783H695.88Z" fill="#00E1BE"/>
<path d="M718.97 62.9629V67.2029H713.43V94.2229H708.96V67.2029H703.42V62.9629H718.97Z" fill="#00E1BE"/>
<path d="M732.15 94.2229L730.68 87.5228H724.96L723.49 94.2229H719.02L725.85 62.9629H729.78L736.61 94.2229H732.15ZM727.73 71.6729L725.41 83.5529H730.14L727.73 71.6729Z" fill="#00E1BE"/>
<path d="M746.71 62.963C748.99 62.963 752.29 62.833 754.39 65.423C755.549 66.9963 756.132 68.9208 756.04 70.873V73.243C756.074 75.0365 755.492 76.7874 754.39 78.203C753.735 78.9157 752.924 79.4668 752.02 79.813L756.93 94.243H752.29L747.96 80.753H745.32V94.243H740.85V62.983H746.71V62.963ZM745.33 76.723H747.88C748.387 76.7471 748.894 76.6682 749.37 76.4912C749.846 76.3142 750.282 76.0427 750.65 75.693C751.019 75.333 751.296 74.8903 751.46 74.4016C751.623 73.9129 751.668 73.3924 751.59 72.883V70.6529C751.619 69.6039 751.252 68.5824 750.56 67.793C750.162 67.4594 749.697 67.2154 749.197 67.0774C748.697 66.9393 748.173 66.9106 747.66 66.993H745.34V76.723H745.33Z" fill="#00E1BE"/>
<path d="M783.7 70.783C783.765 69.7722 783.499 68.7679 782.94 67.923C782.655 67.5751 782.292 67.3001 781.88 67.121C781.468 66.9418 781.018 66.8638 780.57 66.8931C780.166 66.8791 779.764 66.9471 779.388 67.0933C779.011 67.2394 778.669 67.4605 778.38 67.743C777.669 68.6384 777.332 69.7745 777.44 70.913C777.396 72.0423 777.64 73.1643 778.15 74.173C778.673 74.8357 779.389 75.3183 780.2 75.553L782.92 76.533C784.525 76.9697 785.948 77.909 786.98 79.213C788.02 80.8117 788.492 82.7137 788.32 84.613V85.683C788.32 88.853 787.47 91.263 786.18 92.603C785.394 93.3102 784.476 93.8554 783.479 94.2071C782.482 94.5589 781.426 94.7104 780.37 94.6529C777.2 94.6529 775.14 93.353 774.12 91.933C773.148 90.3499 772.651 88.5204 772.69 86.663V85.633H777.16V86.483C777.11 87.457 777.357 88.4233 777.87 89.253C778.176 89.5991 778.556 89.8714 778.982 90.0498C779.408 90.2282 779.869 90.3078 780.33 90.283C780.854 90.3355 781.383 90.2612 781.872 90.0663C782.361 89.8713 782.796 89.5615 783.14 89.163C783.699 88.2381 783.947 87.1591 783.85 86.083V84.923C783.922 83.8041 783.676 82.6877 783.14 81.703C782.574 81.0475 781.831 80.5685 781 80.323L777.74 79.163C776.838 78.9271 776.001 78.492 775.29 77.8898C774.579 77.2875 774.011 76.5334 773.63 75.683C773.096 74.2252 772.867 72.6729 772.96 71.123V70.233C772.934 69.1581 773.126 68.089 773.525 67.0904C773.924 66.0919 774.521 65.1844 775.28 64.423C776.007 63.7595 776.859 63.2479 777.786 62.9182C778.714 62.5885 779.698 62.4474 780.68 62.503C785.15 62.503 788.14 65.403 788.14 70.583V71.613H783.67V70.783H783.7Z" fill="white"/>
<path d="M798.62 62.9629V86.6829C798.62 88.8229 799.65 90.3029 801.61 90.3029C803.57 90.3029 804.6 88.8329 804.6 86.6829V62.9629H809.07V86.0129C809.07 92.8929 804.96 94.6729 801.61 94.6729C798.26 94.6729 794.15 92.8829 794.15 86.0129V62.9629H798.62Z" fill="white"/>
<path d="M825.33 94.2229L823.86 87.5228H818.14L816.67 94.2229H812.2L819.03 62.9629H822.96L829.79 94.2229H825.33ZM820.91 71.6729L818.59 83.5529H823.32L820.91 71.6729Z" fill="white"/>
<path d="M850.03 62.9629V89.9829H859.5V94.2229H845.57V62.9629H850.03Z" fill="white"/>
<path d="M869.33 62.9629V94.2229H864.86V62.9629H869.33Z" fill="white"/>
<path d="M881.83 62.9631C883.904 62.875 885.957 63.404 887.73 64.4831C890.54 66.4931 890.59 69.843 890.59 71.673C890.59 73.723 890.41 75.153 889.25 76.543C888.77 77.1145 888.195 77.5984 887.55 77.9731C888.465 78.37 889.219 79.0641 889.69 79.943C890.399 81.1244 890.711 82.5017 890.58 83.8731V86.2431C890.58 87.5431 890.58 90.7531 887.9 92.7631C886.344 93.8329 884.475 94.3504 882.59 94.2331H875.8V62.9731H881.83V62.9631ZM880.27 75.913H882.41C882.943 75.9438 883.476 75.8557 883.971 75.6551C884.465 75.4545 884.909 75.1464 885.27 74.7531C885.842 73.9783 886.141 73.0358 886.12 72.0731V70.153C886.104 69.3605 885.802 68.6006 885.27 68.0131C884.882 67.6537 884.424 67.377 883.926 67.1999C883.427 67.0228 882.898 66.9491 882.37 66.9831H880.27V75.913ZM880.27 90.2031H882.28C882.861 90.2356 883.44 90.1271 883.97 89.8868C884.499 89.6464 884.962 89.2815 885.32 88.8231C885.887 87.8658 886.165 86.7647 886.12 85.653V84.183C886.12 82.663 885.9 81.5931 884.91 80.7431C884.251 80.1833 883.403 79.897 882.54 79.943H880.26V90.2031H880.27Z" fill="white"/>
<path d="M896.62 62.9629H909.88V67.2029H901.08V76.4028H908.85V80.4229H901.08V89.9829H910.01V94.2229H896.61V62.9629H896.62Z" fill="white"/>
<path d="M921.23 62.963C923.51 62.963 926.81 62.833 928.91 65.423C930.069 66.9963 930.652 68.9208 930.56 70.873V73.243C930.594 75.0365 930.012 76.7874 928.91 78.203C928.255 78.9157 927.444 79.4668 926.54 79.813L931.45 94.243H926.81L922.48 80.753H919.84V94.243H915.37V62.983H921.23V62.963ZM919.85 76.723H922.4C922.907 76.7471 923.414 76.6682 923.89 76.4912C924.366 76.3142 924.802 76.0427 925.17 75.693C925.539 75.333 925.816 74.8903 925.98 74.4016C926.143 73.9129 926.188 73.3924 926.11 72.883V70.6529C926.139 69.6039 925.772 68.5824 925.08 67.793C924.682 67.4594 924.217 67.2154 923.717 67.0774C923.217 66.9393 922.693 66.9106 922.18 66.993H919.86V76.723H919.85Z" fill="white"/>
<path d="M942.4 62.9629C944.28 62.9629 946.96 63.0529 948.92 64.8429C951.2 66.9429 951.33 70.2429 951.33 71.5829V85.3829C951.33 87.5229 951.11 89.8028 949.32 91.7728C948.504 92.6052 947.52 93.2549 946.434 93.679C945.348 94.103 944.184 94.2918 943.02 94.2329H936.37V62.9729H942.4V62.9629ZM940.84 89.8529H942.85C943.396 89.8953 943.944 89.822 944.459 89.6376C944.975 89.4532 945.445 89.1618 945.84 88.7828C946.607 87.7241 946.973 86.4266 946.87 85.1229V71.2728C946.927 70.2373 946.627 69.2136 946.02 68.3729C945.663 67.97 945.21 67.6641 944.703 67.484C944.196 67.3039 943.651 67.2553 943.12 67.3429H940.84V89.8529Z" fill="white"/>
<path d="M967.28 94.2229L965.81 87.5228H960.09L958.62 94.2229H954.15L960.98 62.9629H964.91L971.74 94.2229H967.28ZM962.86 71.6729L960.54 83.5529H965.27L962.86 71.6729Z" fill="white"/>
<path d="M982.02 62.9629C983.9 62.9629 986.58 63.0529 988.54 64.8429C990.82 66.9429 990.95 70.2429 990.95 71.5829V85.3829C990.95 87.5229 990.73 89.8028 988.94 91.7728C988.124 92.6052 987.14 93.2549 986.054 93.679C984.968 94.103 983.804 94.2918 982.64 94.2329H975.99V62.9729H982.02V62.9629ZM980.46 89.8529H982.47C983.016 89.8953 983.564 89.822 984.079 89.6376C984.595 89.4532 985.065 89.1618 985.46 88.7828C986.227 87.7241 986.593 86.4266 986.49 85.1229V71.2728C986.547 70.2373 986.247 69.2136 985.64 68.3729C985.283 67.97 984.83 67.6641 984.323 67.484C983.816 67.3039 983.271 67.2553 982.74 67.3429H980.46V89.8529Z" fill="white"/>
<path d="M997.26 62.9629H1010.52V67.2029H1001.72V76.4028H1009.49V80.4229H1001.72V89.9829H1010.65V94.2229H997.25V62.9629H997.26Z" fill="white"/>
<path d="M1020.48 89.313V94.223H1015.57V89.313H1020.48Z" fill="white"/>
</svg>
