<svg width="275" height="246" viewBox="0 0 275 246" fill="none" xmlns="http://www.w3.org/2000/svg">
<path d="M0.829991 12.4731C0.810813 11.4769 1.00518 10.4881 1.4 9.57323C1.75242 8.77359 2.27051 8.05773 2.92002 7.47313C3.53106 6.94011 4.23656 6.52609 5 6.25291C6.50977 5.69304 8.17023 5.69304 9.68 6.25291C10.4497 6.53221 11.164 6.94543 11.79 7.47313C12.4212 8.06726 12.9277 8.78124 13.28 9.57323C13.6795 10.4867 13.874 11.4764 13.85 12.4731V13.8428H9.96V12.4731C9.9917 12.0903 9.93819 11.7053 9.80332 11.3457C9.66845 10.986 9.45558 10.6606 9.18 10.393C8.66073 9.96012 8.00606 9.72313 7.32999 9.72313C6.65392 9.72313 5.99929 9.96012 5.48002 10.393C5.20369 10.6601 4.9903 10.9854 4.85538 11.3452C4.72046 11.705 4.66739 12.0903 4.70002 12.4731V26.813C4.66832 27.1958 4.72183 27.5808 4.85669 27.9404C4.99156 28.3001 5.20443 28.6255 5.48002 28.893C5.99929 29.326 6.65392 29.563 7.32999 29.563C8.00606 29.563 8.66073 29.326 9.18 28.893C9.45632 28.626 9.66971 28.3007 9.80463 27.9409C9.93955 27.5811 9.99262 27.1958 9.96 26.813V21.7031H6.88001V18.2729H13.85V26.813C13.8761 27.8228 13.6816 28.826 13.28 29.7529C12.9329 30.5247 12.4249 31.2134 11.79 31.7729C11.1717 32.3212 10.4559 32.7488 9.68 33.0332C8.17023 33.5931 6.50977 33.5931 5 33.0332C4.23004 32.7551 3.52302 32.3266 2.92002 31.7729C2.26926 31.2212 1.74993 30.531 1.4 29.7529C0.996522 28.8266 0.801909 27.8229 0.829991 26.813V12.4731Z" fill="#F9F9F9"/>
<path d="M18.24 33.2129V6.06299H24.49C29.06 6.06299 31.3467 8.71987 31.35 14.0332C31.3866 15.4296 31.1347 16.8182 30.61 18.1128C30.0638 19.2801 29.1459 20.2336 28 20.8232L32.19 33.2129H28.08L24.46 21.623H22.14V33.2129H18.24ZM22.13 9.72314V18.1831H24.34C24.9015 18.2101 25.4619 18.111 25.98 17.8931C26.3703 17.7189 26.7007 17.4339 26.93 17.0732C27.1483 16.6621 27.2906 16.2146 27.35 15.7529C27.4318 15.1532 27.4686 14.5481 27.46 13.9429C27.4636 13.3378 27.4268 12.733 27.35 12.1328C27.2915 11.6559 27.1349 11.1966 26.89 10.7832C26.558 10.3914 26.1337 10.0882 25.6553 9.90137C25.177 9.71456 24.6596 9.64976 24.15 9.71289H22.13V9.72314Z" fill="#F9F9F9"/>
<path d="M33.67 33.2129L39.73 6.06299H42.97L49.03 33.2129H45.15L44.01 27.3828H38.72L37.58 33.2129H33.67ZM43.27 23.7231L41.37 13.8828H41.29L39.39 23.7231H43.27Z" fill="#F9F9F9"/>
<path d="M63.64 6.06299L58.08 33.2129H54.65L49.13 6.06299H53.24L56.33 25.0132H56.41L59.53 6.06299H63.64Z" fill="#F9F9F9"/>
<path d="M63.76 33.2129L69.82 6.06299H73.06L79.12 33.2129H75.24L74.1 27.3828H68.81L67.67 33.2129H63.76ZM73.36 23.7231L71.46 13.8828H71.38L69.48 23.7231H73.36Z" fill="#F9F9F9"/>
<path d="M85.13 36.4931L87.45 33.4428C86.7447 33.3903 86.0507 33.2354 85.39 32.9829C84.7111 32.7267 84.0892 32.3392 83.56 31.8427C82.9832 31.3064 82.5294 30.6514 82.23 29.9228C81.8725 29.0059 81.7025 28.0267 81.73 27.0429V12.0927C81.7203 11.244 81.8765 10.4016 82.19 9.61277C82.4858 8.87204 82.9279 8.19863 83.49 7.63279C84.0613 7.06295 84.7415 6.6142 85.49 6.31296C86.3065 5.9845 87.18 5.82137 88.06 5.83298C88.8872 5.80301 89.7116 5.94702 90.4798 6.25534C91.248 6.56366 91.943 7.02947 92.52 7.62302C93.0915 8.2217 93.537 8.92909 93.83 9.7031C94.1559 10.5343 94.3188 11.4202 94.31 12.313V13.8427H90.42V12.5429C90.4334 11.8284 90.2043 11.1305 89.77 10.563C89.5675 10.2925 89.3025 10.0749 88.9979 9.92868C88.6932 9.78244 88.3578 9.71199 88.02 9.72312C87.6473 9.67217 87.2678 9.72995 86.9271 9.88962C86.5865 10.0493 86.2993 10.3039 86.1 10.623C85.7558 11.3287 85.5909 12.1084 85.62 12.893V26.7729C85.5951 27.4683 85.7722 28.1561 86.13 28.7529C86.3423 29.0355 86.6245 29.2581 86.9489 29.3984C87.2733 29.5387 87.6287 29.5921 87.98 29.5532C88.2583 29.5509 88.5346 29.5067 88.8 29.4228C89.0992 29.3304 89.3776 29.1811 89.62 28.9829C89.8722 28.7506 90.0673 28.4632 90.19 28.143C90.3536 27.7192 90.4318 27.2671 90.42 26.813V25.4829H94.31V27.1631C94.3107 27.89 94.1821 28.6111 93.93 29.2929C93.6853 29.9657 93.3378 30.5966 92.9 31.1631C92.4428 31.7205 91.8952 32.1973 91.28 32.5732C90.6524 32.9579 89.9618 33.2285 89.24 33.373L87.6 35.5132C87.8 35.4832 88 35.4731 88.19 35.4531C88.3862 35.4363 88.5832 35.4296 88.78 35.4331C89.3131 35.4144 89.8443 35.5064 90.34 35.7031C90.7144 35.8618 91.0516 36.0967 91.33 36.393C91.5686 36.671 91.7488 36.9938 91.86 37.3427C91.9563 37.6504 92.0068 37.9706 92.01 38.2929C92.0233 38.8516 91.8702 39.4017 91.57 39.873C91.2801 40.3132 90.8979 40.685 90.45 40.9629C89.9849 41.2433 89.4788 41.4495 88.95 41.5732C88.4192 41.6993 87.8756 41.763 87.33 41.7632C86.6342 41.7687 85.9409 41.6778 85.27 41.4931C84.64 41.3131 84.14 41.1632 83.78 41.0332L84.43 39.4331C84.84 39.5831 85.24 39.723 85.65 39.833C86.0608 39.9447 86.4843 40.0018 86.91 40.0029C87.1346 40.0006 87.3586 39.9805 87.58 39.9428C87.8177 39.9047 88.0454 39.8197 88.25 39.6928C88.481 39.5774 88.6727 39.3961 88.8008 39.1718C88.9289 38.9476 88.9878 38.6907 88.97 38.4331C88.9728 38.2283 88.926 38.0256 88.8338 37.8427C88.7415 37.6599 88.6064 37.5022 88.44 37.3828C88.1024 37.1214 87.687 36.9807 87.26 36.9829C86.7504 36.9741 86.2441 37.0658 85.77 37.2529L85.13 36.4931Z" fill="#F9F9F9"/>
<path d="M96.67 33.2129L102.73 6.06299H105.97L112.03 33.2129H108.15L107.01 27.3828H101.72L100.58 33.2129H96.67ZM110.84 0.0830078C110.719 0.638248 110.565 1.186 110.38 1.72314C110.215 2.20328 109.972 2.65281 109.66 3.05322C109.361 3.43268 108.986 3.74588 108.56 3.97314C108.076 4.21368 107.54 4.33034 107 4.31299C106.578 4.2905 106.162 4.21321 105.76 4.08301C105.24 3.93301 104.7 3.75322 104.14 3.55322C103.86 3.45322 103.59 3.3632 103.34 3.2832C103.09 3.2032 102.83 3.11318 102.58 3.01318C102.234 2.89385 101.875 2.81664 101.51 2.7832C101.284 2.76845 101.057 2.80374 100.846 2.88672C100.635 2.96969 100.445 3.09828 100.29 3.26318C99.9999 3.61207 99.8377 4.04927 99.83 4.50293H97.89C98.0219 3.42806 98.4283 2.40552 99.07 1.5332C99.3691 1.15374 99.7436 0.84006 100.17 0.612793C100.654 0.372262 101.19 0.255601 101.73 0.272949C102.152 0.295434 102.568 0.372732 102.97 0.50293C103.49 0.65293 104.03 0.833203 104.59 1.0332C105.15 1.2332 105.68 1.41299 106.17 1.56299C106.509 1.68361 106.862 1.76087 107.22 1.79297C107.446 1.80772 107.673 1.77243 107.884 1.68945C108.095 1.60648 108.285 1.47789 108.44 1.31299C108.73 0.964105 108.892 0.526901 108.9 0.0732422H110.84V0.0830078ZM106.27 23.7231L104.37 13.8828H104.29L102.39 23.7231H106.27Z" fill="#F9F9F9"/>
<path d="M114.65 12.4731C114.631 11.4769 114.825 10.4881 115.22 9.57323C115.572 8.77359 116.09 8.05773 116.74 7.47313C117.351 6.94011 118.057 6.52609 118.82 6.25291C120.33 5.69304 121.99 5.69304 123.5 6.25291C124.27 6.53221 124.984 6.94543 125.61 7.47313C126.241 8.06728 126.748 8.78126 127.1 9.57323C127.499 10.4867 127.694 11.4764 127.67 12.4731V26.813C127.696 27.8228 127.502 28.826 127.1 29.7529C126.753 30.5247 126.245 31.2134 125.61 31.7729C124.992 32.3212 124.276 32.7488 123.5 33.0332C121.99 33.5931 120.33 33.5931 118.82 33.0332C118.05 32.7551 117.343 32.3266 116.74 31.7729C116.089 31.2212 115.57 30.531 115.22 29.7529C114.816 28.8266 114.622 27.8229 114.65 26.813V12.4731ZM118.53 26.8032C118.498 27.186 118.552 27.571 118.687 27.9306C118.821 28.2903 119.034 28.6152 119.31 28.8828C119.829 29.3157 120.484 29.5532 121.16 29.5532C121.836 29.5532 122.491 29.3157 123.01 28.8828C123.286 28.6158 123.5 28.2909 123.635 27.9311C123.77 27.5713 123.823 27.1861 123.79 26.8032V12.4629C123.822 12.0801 123.768 11.6951 123.633 11.3354C123.498 10.9758 123.286 10.6504 123.01 10.3828C122.491 9.94987 121.836 9.71287 121.16 9.71287C120.484 9.71287 119.829 9.94987 119.31 10.3828C119.034 10.6498 118.82 10.9752 118.685 11.3349C118.55 11.6947 118.497 12.08 118.53 12.4629V26.8032Z" fill="#F9F9F9"/>
<path d="M0.829991 48.4731C0.810813 47.4769 1.00518 46.4881 1.4 45.5732C1.75242 44.7736 2.27051 44.0577 2.92002 43.4731C3.53106 42.9401 4.23656 42.5261 5 42.2529C6.50977 41.693 8.17023 41.693 9.68 42.2529C10.4497 42.5322 11.164 42.9454 11.79 43.4731C12.4212 44.0673 12.9277 44.7812 13.28 45.5732C13.6795 46.4867 13.874 47.4764 13.85 48.4731V62.813C13.8761 63.8228 13.6816 64.826 13.28 65.7529C12.9329 66.5247 12.4249 67.2134 11.79 67.7729C11.1717 68.3212 10.4559 68.7488 9.68 69.0332C8.17023 69.5931 6.50977 69.5931 5 69.0332C4.23004 68.7551 3.52302 68.3266 2.92002 67.7729C2.26926 67.2212 1.74993 66.531 1.4 65.7529C0.996522 64.8266 0.801909 63.8229 0.829991 62.813V48.4731ZM4.72001 62.8032C4.68831 63.186 4.74182 63.571 4.87668 63.9306C5.01155 64.2903 5.22442 64.6152 5.5 64.8828C6.01928 65.3157 6.67394 65.5532 7.35001 65.5532C8.02608 65.5532 8.68075 65.3157 9.20002 64.8828C9.47634 64.6158 9.6897 64.2909 9.82462 63.9311C9.95954 63.5713 10.0126 63.1861 9.98002 62.8032V48.4629C10.0117 48.0801 9.95821 47.6951 9.82334 47.3354C9.68847 46.9758 9.4756 46.6504 9.20002 46.3828C8.68075 45.9499 8.02608 45.7129 7.35001 45.7129C6.67394 45.7129 6.01928 45.9499 5.5 46.3828C5.22368 46.6498 5.01029 46.9752 4.87537 47.3349C4.74045 47.6947 4.68738 48.08 4.72001 48.4629V62.8032Z" fill="#F9F9F9"/>
<path d="M26.13 69.2129V42.063H29.86L35.73 58.4229H35.81V42.063H39.69V69.2129H36.03L30.09 52.8931H30.01V69.2129H26.13Z" fill="#F9F9F9"/>
<path d="M44.14 69.2129V42.063H55.72V45.7231H48.03V53.6929H54.73V57.353H48.03V65.3232H55.72V69.2129H44.14Z" fill="#F9F9F9"/>
<path d="M58.96 48.4731C58.9408 47.4769 59.1352 46.4881 59.53 45.5732C59.8824 44.7736 60.4005 44.0577 61.05 43.4731C61.661 42.9401 62.3666 42.5261 63.13 42.2529C64.6398 41.693 66.3002 41.693 67.81 42.2529C68.5797 42.5322 69.2939 42.9454 69.92 43.4731C70.5511 44.0673 71.0576 44.7813 71.41 45.5732C71.8094 46.4867 72.004 47.4764 71.98 48.4731V49.8428H68.09V48.4731C68.1217 48.0903 68.0682 47.7053 67.9334 47.3457C67.7985 46.986 67.5856 46.6606 67.31 46.393C66.7907 45.9601 66.1361 45.7231 65.46 45.7231C64.784 45.7231 64.1293 45.9601 63.61 46.393C63.3337 46.6601 63.1203 46.9854 62.9854 47.3452C62.8505 47.705 62.7974 48.0903 62.83 48.4731V62.813C62.7983 63.1958 62.8518 63.5808 62.9867 63.9404C63.1215 64.3001 63.3344 64.6255 63.61 64.893C64.1293 65.326 64.784 65.563 65.46 65.563C66.1361 65.563 66.7907 65.326 67.31 64.893C67.5863 64.626 67.7997 64.3007 67.9346 63.9409C68.0696 63.5811 68.1227 63.1958 68.09 62.813V57.7031H65.01V54.2729H71.98V62.813C72.0061 63.8228 71.8116 64.826 71.41 65.7529C71.0628 66.5247 70.5549 67.2134 69.92 67.7729C69.3016 68.3212 68.5859 68.7488 67.81 69.0332C66.3002 69.5931 64.6398 69.5931 63.13 69.0332C62.36 68.7551 61.653 68.3266 61.05 67.7729C60.3992 67.2212 59.8799 66.531 59.53 65.7529C59.1265 64.8266 58.9319 63.8229 58.96 62.813V48.4731Z" fill="#F9F9F9"/>
<path d="M76.14 48.4731C76.1208 47.4769 76.3152 46.4881 76.71 45.5732C77.0624 44.7736 77.5804 44.0577 78.23 43.4731C78.841 42.9401 79.5465 42.5261 80.31 42.2529C81.8197 41.6931 83.4802 41.6931 84.99 42.2529C85.7596 42.5322 86.4739 42.9454 87.0999 43.4731C87.7311 44.0673 88.2377 44.7813 88.59 45.5732C88.9895 46.4867 89.184 47.4765 89.1599 48.4731V62.813C89.186 63.8228 88.9916 64.8261 88.59 65.7529C88.2429 66.5247 87.7348 67.2134 87.0999 67.7729C86.4816 68.3212 85.7659 68.7488 84.99 69.0332C83.4802 69.5931 81.8197 69.5931 80.31 69.0332C79.54 68.7552 78.833 68.3266 78.23 67.7729C77.5792 67.2212 77.06 66.531 76.71 65.7529C76.3065 64.8266 76.1119 63.8229 76.14 62.813V48.4731ZM80.02 62.8032C79.9883 63.186 80.0418 63.571 80.1767 63.9307C80.3115 64.2903 80.5244 64.6153 80.8 64.8828C81.3192 65.3157 81.9739 65.5532 82.65 65.5532C83.3261 65.5532 83.9807 65.3157 84.5 64.8828C84.7763 64.6158 84.9897 64.2909 85.1246 63.9312C85.2595 63.5714 85.3126 63.1861 85.28 62.8032V48.4629C85.3117 48.0801 85.2582 47.6951 85.1233 47.3354C84.9885 46.9758 84.7756 46.6504 84.5 46.3828C83.9807 45.9499 83.3261 45.7129 82.65 45.7129C81.9739 45.7129 81.3192 45.9499 80.8 46.3828C80.5236 46.6498 80.3102 46.9752 80.1753 47.335C80.0404 47.6947 79.9874 48.08 80.02 48.4629V62.8032ZM80.17 40.8428L83.5999 35.4629H87.71L82.68 40.8428H80.17Z" fill="#F9F9F9"/>
<path d="M105.89 61.4731V63.1528C105.894 63.9706 105.731 64.7809 105.41 65.5332C105.096 66.2727 104.653 66.9501 104.1 67.5332C103.541 68.1169 102.876 68.5883 102.14 68.9228C101.379 69.2647 100.554 69.4389 99.7199 69.4331C98.9602 69.4303 98.2039 69.3292 97.4699 69.1328C96.7124 68.9333 96.0088 68.568 95.4099 68.063C94.7762 67.5238 94.2648 66.8556 93.9099 66.103C93.4844 65.1372 93.2827 64.0879 93.32 63.0332V48.083C93.3102 47.2342 93.4665 46.3918 93.78 45.603C94.0757 44.8623 94.5179 44.1889 95.08 43.623C95.6513 43.0532 96.3315 42.6044 97.08 42.3032C97.8965 41.9747 98.77 41.8116 99.65 41.8232C100.477 41.7933 101.302 41.9368 102.07 42.2451C102.838 42.5534 103.533 43.0192 104.11 43.6128C104.681 44.2115 105.127 44.9188 105.42 45.6929C105.746 46.524 105.909 47.4105 105.9 48.3032V49.833H102V48.5332C102.013 47.8187 101.784 47.1208 101.35 46.5532C101.147 46.2827 100.883 46.0647 100.578 45.9184C100.273 45.7722 99.9377 45.7017 99.6 45.7129C99.2272 45.6619 98.8477 45.7197 98.5071 45.8794C98.1665 46.039 97.8792 46.2937 97.68 46.6128C97.3357 47.3185 97.1709 48.0982 97.2 48.8828V62.7632C97.1751 63.4586 97.3522 64.1463 97.71 64.7431C97.9223 65.0257 98.2045 65.2479 98.5289 65.3882C98.8533 65.5285 99.2087 65.5818 99.56 65.543C99.8382 65.5406 100.115 65.4969 100.38 65.4131C100.679 65.3207 100.958 65.1713 101.2 64.9731C101.452 64.7408 101.647 64.453 101.77 64.1328C101.934 63.709 102.012 63.2574 102 62.8032V61.4731H105.89Z" fill="#F9F9F9"/>
<path d="M110.11 69.2129V42.063H114V69.2129H110.11Z" fill="#F9F9F9"/>
<path d="M118.49 48.4731C118.471 47.4769 118.665 46.4881 119.06 45.5732C119.412 44.7736 119.93 44.0577 120.58 43.4731C121.191 42.9401 121.896 42.5261 122.66 42.2529C124.17 41.693 125.83 41.693 127.34 42.2529C128.11 42.5322 128.824 42.9454 129.45 43.4731C130.081 44.0673 130.588 44.7813 130.94 45.5732C131.339 46.4867 131.534 47.4764 131.51 48.4731V62.813C131.536 63.8228 131.342 64.826 130.94 65.7529C130.593 66.5247 130.085 67.2134 129.45 67.7729C128.832 68.3212 128.116 68.7488 127.34 69.0332C125.83 69.5931 124.17 69.5931 122.66 69.0332C121.89 68.7551 121.183 68.3266 120.58 67.7729C119.929 67.2212 119.41 66.531 119.06 65.7529C118.656 64.8266 118.462 63.8229 118.49 62.813V48.4731ZM122.38 62.8032C122.348 63.186 122.402 63.571 122.537 63.9306C122.672 64.2903 122.884 64.6152 123.16 64.8828C123.679 65.3157 124.334 65.5532 125.01 65.5532C125.686 65.5532 126.341 65.3157 126.86 64.8828C127.136 64.6158 127.35 64.2909 127.485 63.9311C127.62 63.5713 127.673 63.1861 127.64 62.8032V48.4629C127.672 48.0801 127.618 47.6951 127.483 47.3354C127.348 46.9758 127.136 46.6504 126.86 46.3828C126.341 45.9499 125.686 45.7129 125.01 45.7129C124.334 45.7129 123.679 45.9499 123.16 46.3828C122.884 46.6498 122.67 46.9752 122.535 47.3349C122.4 47.6947 122.347 48.08 122.38 48.4629V62.8032Z" fill="#F9F9F9"/>
<path d="M143.94 69.2129V42.063H147.67L152.66 56.4429H152.74L157.69 42.063H161.46V69.2129H157.57V52.7031H157.49L153.64 64.373H151.7L147.89 52.7031H147.81V69.2129H143.94Z" fill="#F9F9F9"/>
<path d="M164.31 69.2129L170.37 42.063H173.61L179.67 69.2129H175.79L174.65 63.3828H169.36L168.22 69.2129H164.31ZM173.91 59.7231L172.01 49.8828H171.93L170.03 59.7231H173.91Z" fill="#F9F9F9"/>
<path d="M182.64 69.2129V42.063H186.53V69.2129H182.64Z" fill="#F9F9F9"/>
<path d="M203.81 49.8829H199.92V49.003C199.941 48.1879 199.722 47.3846 199.29 46.693C199.055 46.3596 198.736 46.0943 198.366 45.9239C197.995 45.7536 197.586 45.6846 197.18 45.7232C196.726 45.7018 196.275 45.8093 195.88 46.0333C195.563 46.2277 195.29 46.4864 195.08 46.7931C194.875 47.1388 194.733 47.5181 194.66 47.9132C194.582 48.3488 194.545 48.7905 194.55 49.233C194.546 49.6771 194.566 50.1212 194.61 50.5631C194.64 50.8965 194.738 51.2202 194.9 51.5133C195.06 51.8053 195.29 52.0525 195.57 52.233C195.946 52.4809 196.348 52.6854 196.77 52.8429L199.74 54.023C200.497 54.297 201.205 54.6886 201.84 55.1832C202.354 55.6119 202.782 56.1346 203.1 56.7232C203.394 57.3836 203.587 58.0851 203.67 58.8033C203.776 59.6826 203.826 60.5676 203.82 61.4532C203.83 62.5228 203.716 63.5896 203.48 64.6329C203.282 65.5307 202.908 66.3804 202.38 67.1329C201.83 67.8586 201.109 68.4362 200.28 68.8131C199.285 69.2481 198.206 69.4563 197.12 69.423C196.219 69.4291 195.326 69.2593 194.49 68.923C193.708 68.6111 192.998 68.1456 192.4 67.5533C191.812 66.967 191.341 66.2748 191.01 65.5133C190.665 64.7114 190.491 63.8462 190.5 62.9732V61.523H194.39V62.7433C194.386 63.4378 194.607 64.1148 195.02 64.673C195.276 64.9767 195.601 65.214 195.969 65.3639C196.336 65.5137 196.735 65.5718 197.13 65.5333C197.659 65.5579 198.186 65.4585 198.67 65.2433C199.031 65.0603 199.33 64.7748 199.53 64.423C199.741 64.0273 199.864 63.5908 199.89 63.1432C199.93 62.6432 199.95 62.093 199.95 61.483C199.955 60.8987 199.928 60.3145 199.87 59.733C199.841 59.3474 199.739 58.9709 199.57 58.6231C199.392 58.3433 199.152 58.1075 198.87 57.9332C198.499 57.7134 198.111 57.5225 197.71 57.3629L194.93 56.2232C193.511 55.7551 192.312 54.7841 191.56 53.4933C190.946 52.163 190.652 50.7076 190.7 49.2433C190.695 48.2611 190.837 47.2833 191.12 46.3429C191.372 45.4776 191.801 44.6741 192.38 43.983C192.929 43.3063 193.627 42.7655 194.42 42.4029C195.347 41.9896 196.355 41.7882 197.37 41.8131C198.281 41.8043 199.183 41.9845 200.02 42.3429C200.792 42.6849 201.496 43.1626 202.1 43.753C202.655 44.3007 203.095 44.9532 203.395 45.6725C203.696 46.3917 203.85 47.1635 203.85 47.943V49.8819L203.81 49.8829Z" fill="#F9F9F9"/>
<path d="M1.06 105.213V78.063H4.95001V101.323H12.64V105.213H1.06Z" fill="#F9F9F9"/>
<path d="M28.68 78.063V99.1128C28.6891 99.9569 28.5258 100.794 28.2 101.573C27.8829 102.321 27.4245 103 26.85 103.573C26.2691 104.153 25.5837 104.618 24.83 104.943C24.0601 105.277 23.2292 105.447 22.39 105.443C21.5572 105.447 20.7328 105.277 19.97 104.943C18.4661 104.278 17.2644 103.077 16.6 101.573C16.263 100.797 16.0926 99.9588 16.1 99.1128V78.063H19.99V98.7329C19.9575 99.1175 20.0017 99.5047 20.1202 99.8721C20.2386 100.239 20.4289 100.58 20.68 100.873C21.1392 101.316 21.7522 101.563 22.39 101.563C23.0278 101.563 23.6408 101.316 24.1 100.873C24.3511 100.58 24.5413 100.239 24.6598 99.8721C24.7782 99.5047 24.8225 99.1175 24.79 98.7329V78.063H28.68Z" fill="#F9F9F9"/>
<path d="M45.63 97.4731V99.1528C45.6342 99.9706 45.4708 100.781 45.15 101.533C44.8363 102.273 44.3926 102.95 43.84 103.533C43.281 104.117 42.6158 104.588 41.88 104.923C41.1193 105.265 40.2939 105.439 39.46 105.433C38.7002 105.43 37.944 105.329 37.21 105.133C36.4525 104.933 35.7488 104.568 35.15 104.063C34.5162 103.524 34.0048 102.856 33.65 102.103C33.2244 101.137 33.0227 100.088 33.06 99.0332V84.083C33.0503 83.2342 33.2065 82.3918 33.52 81.603C33.8157 80.8623 34.2579 80.1889 34.82 79.623C35.3913 79.0532 36.0715 78.6045 36.82 78.3032C37.6365 77.9747 38.51 77.8116 39.39 77.8232C40.2173 77.7933 41.0416 77.9368 41.8098 78.2451C42.578 78.5534 43.273 79.0192 43.85 79.6128C44.4215 80.2115 44.8669 80.9188 45.16 81.6929C45.4859 82.524 45.6488 83.4105 45.64 84.3032V85.833H41.75V84.5332C41.7633 83.8187 41.5342 83.1208 41.1 82.5532C40.8974 82.2827 40.6325 82.0647 40.3279 81.9184C40.0232 81.7722 39.6878 81.7017 39.35 81.7129C38.9773 81.6619 38.5978 81.7197 38.2571 81.8794C37.9165 82.039 37.6293 82.2937 37.43 82.6128C37.0858 83.3185 36.9209 84.0982 36.95 84.8828V98.7632C36.9251 99.4586 37.1022 100.146 37.46 100.743C37.6723 101.026 37.9545 101.248 38.2789 101.388C38.6033 101.528 38.9587 101.582 39.31 101.543C39.5883 101.541 39.8647 101.497 40.13 101.413C40.4292 101.321 40.7076 101.171 40.95 100.973C41.2023 100.741 41.3973 100.453 41.52 100.133C41.6836 99.709 41.7617 99.2574 41.75 98.8032V97.4731H45.63Z" fill="#F9F9F9"/>
<path d="M49.74 105.213V78.063H55.99C60.56 78.063 62.8467 80.7199 62.85 86.0332C62.8866 87.4296 62.6347 88.8182 62.11 90.1128C61.5638 91.2801 60.6459 92.2336 59.5 92.8232L63.69 105.213H59.58L55.96 93.623H53.64V105.213H49.74ZM53.63 81.7231V90.1831H55.84C56.4015 90.2101 56.9619 90.111 57.48 89.8931C57.8703 89.7189 58.2007 89.4339 58.43 89.0732C58.6483 88.6621 58.7906 88.2146 58.85 87.7529C58.9318 87.1532 58.9686 86.5481 58.96 85.9429C58.9636 85.3378 58.9268 84.733 58.85 84.1328C58.7915 83.6559 58.6349 83.1966 58.39 82.7832C58.058 82.3914 57.6337 82.0882 57.1553 81.9014C56.677 81.7146 56.1596 81.6498 55.65 81.7129H53.63V81.7231Z" fill="#F9F9F9"/>
<path d="M65.17 105.213L71.23 78.063H74.47L80.53 105.213H76.65L75.51 99.3828H70.22L69.08 105.213H65.17ZM74.77 95.7231L72.87 85.8828H72.79L70.89 95.7231H74.77Z" fill="#F9F9F9"/>
<path d="M83.83 105.213V81.7231H79.34V78.063H92.21V81.7231H87.72V105.213H83.83Z" fill="#F9F9F9"/>
<path d="M94.99 105.213V78.063H98.88V105.213H94.99Z" fill="#F9F9F9"/>
<path d="M116.78 78.063L111.22 105.213H107.79L102.27 78.063H106.38L109.47 97.0132H109.55L112.67 78.063H116.78Z" fill="#F9F9F9"/>
<path d="M119.83 84.4731C119.811 83.4769 120.005 82.4881 120.4 81.5732C120.752 80.7736 121.27 80.0577 121.92 79.4731C122.531 78.9401 123.237 78.5261 124 78.2529C125.51 77.693 127.17 77.693 128.68 78.2529C129.45 78.5322 130.164 78.9454 130.79 79.4731C131.421 80.0673 131.928 80.7813 132.28 81.5732C132.679 82.4867 132.874 83.4764 132.85 84.4731V98.813C132.876 99.8228 132.682 100.826 132.28 101.753C131.933 102.525 131.425 103.213 130.79 103.773C130.172 104.321 129.456 104.749 128.68 105.033C127.17 105.593 125.51 105.593 124 105.033C123.23 104.755 122.523 104.327 121.92 103.773C121.269 103.221 120.75 102.531 120.4 101.753C119.997 100.827 119.802 99.8229 119.83 98.813V84.4731ZM123.71 98.8032C123.678 99.186 123.732 99.571 123.867 99.9306C124.002 100.29 124.214 100.615 124.49 100.883C125.009 101.316 125.664 101.553 126.34 101.553C127.016 101.553 127.671 101.316 128.19 100.883C128.466 100.616 128.68 100.291 128.815 99.9311C128.95 99.5713 129.003 99.1861 128.97 98.8032V84.4629C129.002 84.0801 128.948 83.6951 128.813 83.3354C128.678 82.9758 128.466 82.6504 128.19 82.3828C127.671 81.9499 127.016 81.7129 126.34 81.7129C125.664 81.7129 125.009 81.9499 124.49 82.3828C124.214 82.6498 124 82.9752 123.865 83.3349C123.73 83.6947 123.677 84.08 123.71 84.4629V98.8032Z" fill="#F9F9F9"/>
<path d="M145.27 105.213V78.0629H151.02C151.948 77.9965 152.879 78.1252 153.754 78.4403C154.629 78.7555 155.428 79.2503 156.1 79.893C157.334 81.3298 157.955 83.1932 157.83 85.0829V97.7831C157.83 100.323 157.21 102.203 155.98 103.403C155.259 104.042 154.419 104.531 153.507 104.842C152.595 105.152 151.631 105.279 150.67 105.213H145.27ZM149.16 81.7231V101.553H150.95C151.373 101.598 151.801 101.548 152.203 101.406C152.604 101.264 152.969 101.034 153.27 100.733C153.791 99.9819 154.034 99.0737 153.96 98.163V85.0829C154.012 84.2083 153.784 83.3398 153.31 82.6029C153.014 82.2805 152.646 82.0327 152.236 81.8798C151.825 81.7269 151.385 81.6732 150.95 81.7231H149.16Z" fill="#F9F9F9"/>
<path d="M162.22 84.4731C162.201 83.4769 162.395 82.4881 162.79 81.5732C163.142 80.7736 163.66 80.0577 164.31 79.4731C164.921 78.9401 165.627 78.5261 166.39 78.2529C167.9 77.693 169.56 77.693 171.07 78.2529C171.84 78.5322 172.554 78.9454 173.18 79.4731C173.811 80.0673 174.318 80.7813 174.67 81.5732C175.069 82.4867 175.264 83.4764 175.24 84.4731V98.813C175.266 99.8228 175.072 100.826 174.67 101.753C174.323 102.525 173.815 103.213 173.18 103.773C172.562 104.321 171.846 104.749 171.07 105.033C169.56 105.593 167.9 105.593 166.39 105.033C165.62 104.755 164.913 104.327 164.31 103.773C163.659 103.221 163.14 102.531 162.79 101.753C162.386 100.827 162.192 99.8229 162.22 98.813V84.4731ZM166.11 98.8032C166.078 99.186 166.132 99.571 166.267 99.9306C166.402 100.29 166.614 100.615 166.89 100.883C167.409 101.316 168.064 101.553 168.74 101.553C169.416 101.553 170.071 101.316 170.59 100.883C170.866 100.616 171.08 100.291 171.215 99.9311C171.349 99.5713 171.403 99.1861 171.37 98.8032V84.4629C171.402 84.0801 171.348 83.6951 171.213 83.3354C171.078 82.9758 170.866 82.6504 170.59 82.3828C170.071 81.9499 169.416 81.7129 168.74 81.7129C168.064 81.7129 167.409 81.9499 166.89 82.3828C166.614 82.6498 166.4 82.9752 166.265 83.3349C166.13 83.6947 166.077 84.08 166.11 84.4629V98.8032Z" fill="#F9F9F9"/>
<path d="M187.66 105.213V78.063H191.39L196.38 92.4429H196.46L201.41 78.063H205.18V105.213H201.29V88.7031H201.21L197.36 100.373H195.42L191.61 88.7031H191.53V105.213H187.66Z" fill="#F9F9F9"/>
<path d="M222.36 78.063V99.1128C222.369 99.9569 222.206 100.794 221.88 101.573C221.563 102.321 221.105 103 220.53 103.573C219.949 104.153 219.264 104.618 218.51 104.943C217.74 105.277 216.909 105.447 216.07 105.443C215.237 105.447 214.413 105.277 213.65 104.943C212.146 104.278 210.944 103.077 210.28 101.573C209.943 100.797 209.773 99.9588 209.78 99.1128V78.063H213.67V98.7329C213.637 99.1175 213.682 99.5047 213.8 99.8721C213.919 100.239 214.109 100.58 214.36 100.873C214.819 101.316 215.432 101.563 216.07 101.563C216.708 101.563 217.321 101.316 217.78 100.873C218.031 100.58 218.221 100.239 218.34 99.8721C218.458 99.5047 218.503 99.1175 218.47 98.7329V78.063H222.36Z" fill="#F9F9F9"/>
<path d="M226.82 105.213V78.063H230.55L236.42 94.4229H236.5V78.063H240.38V105.213H236.72L230.78 88.8931H230.7V105.213H226.82Z" fill="#F9F9F9"/>
<path d="M244.84 105.213V78.0629H250.59C251.518 77.9965 252.449 78.1252 253.324 78.4403C254.199 78.7555 254.998 79.2503 255.67 79.893C256.904 81.3298 257.525 83.1932 257.4 85.0829V97.7831C257.4 100.323 256.78 102.203 255.55 103.403C254.829 104.042 253.989 104.531 253.077 104.842C252.165 105.152 251.201 105.279 250.24 105.213H244.84ZM248.72 81.7231V101.553H250.51C250.933 101.598 251.361 101.548 251.763 101.406C252.164 101.264 252.529 101.034 252.83 100.733C253.351 99.9819 253.594 99.0737 253.52 98.163V85.0829C253.572 84.2083 253.344 83.3398 252.87 82.6029C252.574 82.2805 252.206 82.0327 251.796 81.8798C251.385 81.7269 250.945 81.6732 250.51 81.7231H248.72Z" fill="#F9F9F9"/>
<path d="M261.79 84.4731C261.771 83.4769 261.965 82.4881 262.36 81.5732C262.712 80.7736 263.23 80.0577 263.88 79.4731C264.491 78.9401 265.197 78.5261 265.96 78.2529C267.47 77.693 269.13 77.693 270.64 78.2529C271.41 78.5322 272.124 78.9454 272.75 79.4731C273.381 80.0673 273.888 80.7813 274.24 81.5732C274.639 82.4867 274.834 83.4764 274.81 84.4731V98.813C274.836 99.8228 274.642 100.826 274.24 101.753C273.893 102.525 273.385 103.213 272.75 103.773C272.132 104.321 271.416 104.749 270.64 105.033C269.13 105.593 267.47 105.593 265.96 105.033C265.19 104.755 264.483 104.327 263.88 103.773C263.229 103.221 262.71 102.531 262.36 101.753C261.956 100.827 261.762 99.8229 261.79 98.813V84.4731ZM265.67 98.8032C265.638 99.186 265.692 99.571 265.827 99.9306C265.962 100.29 266.174 100.615 266.45 100.883C266.969 101.316 267.624 101.553 268.3 101.553C268.976 101.553 269.631 101.316 270.15 100.883C270.426 100.616 270.64 100.291 270.775 99.9311C270.909 99.5713 270.963 99.1861 270.93 98.8032V84.4629C270.962 84.0801 270.908 83.6951 270.773 83.3354C270.638 82.9758 270.426 82.6504 270.15 82.3828C269.631 81.9499 268.976 81.7129 268.3 81.7129C267.624 81.7129 266.969 81.9499 266.45 82.3828C266.174 82.6498 265.96 82.9752 265.825 83.3349C265.69 83.6947 265.637 84.08 265.67 84.4629V98.8032Z" fill="#F9F9F9"/>
<path d="M10.82 130.723V132.433H7.60999V148.043H5.76001V132.433H2.57001V130.723H10.82Z" fill="white"/>
<path d="M11.88 139.033C11.8992 138.111 12.2782 137.234 12.936 136.587C13.5938 135.941 14.4782 135.578 15.4002 135.576C16.3223 135.573 17.2087 135.931 17.8702 136.573C18.5316 137.216 18.9156 138.091 18.94 139.013V144.723C18.94 145.659 18.5681 146.557 17.9061 147.219C17.2441 147.881 16.3462 148.253 15.41 148.253C14.4738 148.253 13.5759 147.881 12.9139 147.219C12.2519 146.557 11.88 145.659 11.88 144.723V139.033ZM17.09 139.383C17.09 138.023 16.32 137.383 15.41 137.383C14.5 137.383 13.73 138.023 13.73 139.383V144.433C13.73 145.723 14.32 146.433 15.41 146.433C16.45 146.433 17.09 145.763 17.09 144.433V139.383Z" fill="white"/>
<path d="M29.6 148.043H27.75V146.833C27.4546 147.262 27.0608 147.614 26.6014 147.859C26.1421 148.104 25.6307 148.236 25.11 148.243C22.94 148.243 22.54 146.583 22.54 145.403V138.423C22.54 137.233 22.94 135.583 25.11 135.583C25.6307 135.59 26.1421 135.721 26.6014 135.967C27.0608 136.212 27.4546 136.564 27.75 136.993V130.733H29.6V148.043ZM27.74 144.183V139.633C27.74 138.863 27.44 137.383 25.94 137.383C24.75 137.383 24.38 138.343 24.38 139.283V144.523C24.38 145.463 24.75 146.433 25.94 146.433C27.45 146.433 27.74 144.943 27.74 144.183Z" fill="white"/>
<path d="M38.37 146.823H38.35C38.0479 147.276 37.6344 147.643 37.1494 147.89C36.6643 148.137 36.1238 148.255 35.58 148.233C33.63 148.233 33.06 146.753 33.06 144.793C33.06 142.193 33.9 140.733 36.64 140.733C37.218 140.735 37.7955 140.769 38.37 140.833V139.023C38.3715 138.798 38.3272 138.576 38.2399 138.37C38.1526 138.163 38.024 137.976 37.8621 137.821C37.7002 137.665 37.5083 137.544 37.2982 137.466C37.0881 137.387 36.8641 137.352 36.64 137.363C36.2186 137.347 35.8076 137.495 35.494 137.777C35.1803 138.059 34.9888 138.452 34.96 138.873H33.18C33.1749 138.414 33.2663 137.958 33.448 137.536C33.6298 137.114 33.898 136.735 34.2353 136.423C34.5726 136.111 34.9716 135.874 35.4065 135.726C35.8413 135.577 36.3024 135.522 36.76 135.563C39.6 135.563 40.22 137.663 40.22 139.253V148.033H38.37V146.823ZM38.37 142.203C37.9527 142.138 37.532 142.098 37.11 142.083C36.8017 142.066 36.4933 142.116 36.2069 142.232C35.9205 142.347 35.6631 142.525 35.453 142.751C35.2429 142.977 35.0854 143.247 34.9915 143.541C34.8977 143.836 34.8698 144.147 34.91 144.453C34.91 146.183 35.43 146.653 36.49 146.653C37.0229 146.55 37.5029 146.263 37.8464 145.843C38.1899 145.423 38.3752 144.896 38.37 144.353V142.203Z" fill="white"/>
<path d="M48.62 139.013C48.5 137.633 47.73 137.333 46.96 137.333C46.7447 137.299 46.5244 137.316 46.317 137.383C46.1096 137.451 45.9212 137.566 45.767 137.72C45.6128 137.874 45.4974 138.063 45.4301 138.27C45.3629 138.477 45.3457 138.698 45.38 138.913C45.38 139.873 46.05 140.273 46.84 140.643L48.37 141.383C48.954 141.647 49.4566 142.063 49.8252 142.587C50.1939 143.112 50.4151 143.725 50.4659 144.364C50.5168 145.003 50.3953 145.644 50.1142 146.22C49.833 146.796 49.4026 147.287 48.8676 147.64C48.3327 147.993 47.7128 148.196 47.0726 148.228C46.4324 148.26 45.7953 148.12 45.2277 147.822C44.6601 147.524 44.1828 147.08 43.8455 146.535C43.5082 145.99 43.3233 145.364 43.31 144.723H45.19C45.29 146.033 45.88 146.503 46.84 146.503C47.0813 146.535 47.3268 146.511 47.5574 146.433C47.7879 146.355 47.9974 146.225 48.1696 146.053C48.3417 145.881 48.4719 145.671 48.55 145.44C48.6281 145.21 48.6521 144.964 48.62 144.723C48.62 143.803 48.32 143.343 47.06 142.723L45.55 141.983C44.8981 141.747 44.344 141.301 43.976 140.713C43.608 140.126 43.4475 139.432 43.52 138.743C43.52 137.083 44.61 135.573 47.05 135.573C49.74 135.573 50.41 137.473 50.46 139.013H48.62Z" fill="white"/>
<path d="M65.15 146.823H65.13C64.8279 147.276 64.4144 147.643 63.9294 147.89C63.4443 148.137 62.9038 148.255 62.36 148.233C60.41 148.233 59.84 146.753 59.84 144.793C59.84 142.193 60.68 140.733 63.42 140.733C63.998 140.735 64.5755 140.769 65.15 140.833V139.023C65.1515 138.798 65.1072 138.576 65.0199 138.37C64.9326 138.163 64.804 137.976 64.6421 137.821C64.4802 137.665 64.2883 137.544 64.0782 137.466C63.8681 137.387 63.6441 137.352 63.42 137.363C62.9986 137.347 62.5876 137.495 62.274 137.777C61.9603 138.059 61.7688 138.452 61.74 138.873H59.96C59.9549 138.414 60.0463 137.958 60.228 137.536C60.4098 137.114 60.678 136.735 61.0154 136.423C61.3527 136.111 61.7516 135.874 62.1865 135.726C62.6213 135.577 63.0824 135.522 63.54 135.563C66.38 135.563 67 137.663 67 139.253V148.033H65.15V146.823ZM65.15 142.203C64.7327 142.138 64.312 142.098 63.89 142.083C63.5817 142.066 63.2733 142.116 62.9869 142.232C62.7005 142.347 62.4431 142.525 62.233 142.751C62.0229 142.977 61.8654 143.247 61.7715 143.541C61.6777 143.836 61.6498 144.147 61.69 144.453C61.69 146.183 62.21 146.653 63.27 146.653C63.8029 146.55 64.2829 146.263 64.6264 145.843C64.9699 145.423 65.1552 144.896 65.15 144.353V142.203Z" fill="white"/>
<path d="M75.4 139.013C75.28 137.633 74.51 137.333 73.74 137.333C73.5247 137.299 73.3044 137.316 73.097 137.383C72.8896 137.451 72.7011 137.566 72.547 137.72C72.3928 137.874 72.2774 138.063 72.2101 138.27C72.1429 138.477 72.1257 138.698 72.16 138.913C72.16 139.873 72.83 140.273 73.62 140.643L75.15 141.383C75.7341 141.647 76.2366 142.063 76.6052 142.587C76.9739 143.112 77.1952 143.725 77.246 144.364C77.2968 145.003 77.1753 145.644 76.8942 146.22C76.613 146.796 76.1825 147.287 75.6476 147.64C75.1126 147.993 74.4928 148.196 73.8526 148.228C73.2124 148.26 72.5753 148.12 72.0077 147.822C71.4401 147.524 70.9628 147.08 70.6255 146.535C70.2883 145.99 70.1033 145.364 70.09 144.723H71.97C72.07 146.033 72.66 146.503 73.62 146.503C73.8613 146.535 74.1068 146.511 74.3374 146.433C74.568 146.355 74.7774 146.225 74.9496 146.053C75.1217 145.881 75.2519 145.671 75.33 145.44C75.4081 145.21 75.4321 144.964 75.4 144.723C75.4 143.803 75.1 143.343 73.84 142.723L72.33 141.983C71.6782 141.747 71.124 141.301 70.756 140.713C70.3881 140.126 70.2275 139.432 70.3 138.743C70.3 137.083 71.39 135.573 73.83 135.573C76.52 135.573 77.19 137.473 77.24 139.013H75.4Z" fill="white"/>
<path d="M88.69 130.723V144.973C88.6747 145.156 88.6993 145.339 88.7622 145.511C88.8252 145.683 88.9248 145.839 89.0543 145.969C89.1838 146.098 89.34 146.198 89.5119 146.261C89.6839 146.324 89.8675 146.348 90.05 146.333H90.32V148.043H89.75C89.3729 148.088 88.9906 148.049 88.6297 147.931C88.2688 147.813 87.9379 147.618 87.6601 147.359C87.3822 147.101 87.164 146.784 87.0207 146.433C86.8773 146.081 86.8123 145.703 86.83 145.323V130.733H88.69V130.723Z" fill="white"/>
<path d="M94.92 131.073V132.883H93.07V131.073H94.92ZM93.07 135.773H94.92V148.043H93.07V135.773Z" fill="white"/>
<path d="M102.18 148.043H100.72L97.51 135.773H99.46L101.51 144.383H101.56L103.56 135.773H105.44L102.18 148.043Z" fill="white"/>
<path d="M113 144.603H114.85V144.773C114.885 145.232 114.821 145.693 114.663 146.125C114.504 146.558 114.255 146.951 113.932 147.279C113.609 147.607 113.219 147.861 112.789 148.026C112.36 148.19 111.899 148.261 111.44 148.233C110.964 148.262 110.487 148.19 110.041 148.022C109.595 147.854 109.189 147.593 108.851 147.257C108.513 146.921 108.25 146.516 108.079 146.071C107.908 145.625 107.833 145.149 107.86 144.673V138.983C107.842 138.526 107.919 138.07 108.087 137.645C108.255 137.22 108.511 136.834 108.836 136.513C109.162 136.192 109.551 135.943 109.979 135.781C110.407 135.619 110.863 135.548 111.32 135.573C111.79 135.553 112.258 135.629 112.697 135.797C113.136 135.966 113.536 136.222 113.871 136.551C114.207 136.88 114.471 137.275 114.648 137.71C114.825 138.146 114.911 138.613 114.9 139.083V142.593H109.71V144.543C109.71 145.853 110.3 146.423 111.44 146.423C112.53 146.423 113 145.753 113 144.743V144.603ZM113.05 141.213V139.113C113.075 138.886 113.049 138.656 112.975 138.44C112.902 138.224 112.782 138.026 112.623 137.861C112.465 137.696 112.273 137.568 112.06 137.485C111.847 137.403 111.618 137.368 111.39 137.383C111.155 137.378 110.922 137.423 110.706 137.516C110.489 137.608 110.295 137.745 110.137 137.918C109.978 138.092 109.857 138.296 109.784 138.52C109.71 138.743 109.685 138.979 109.71 139.213V141.213H113.05Z" fill="white"/>
<path d="M123.11 139.013C122.99 137.633 122.22 137.333 121.45 137.333C121.235 137.299 121.014 137.316 120.807 137.383C120.6 137.451 120.411 137.566 120.257 137.72C120.103 137.874 119.987 138.063 119.92 138.27C119.853 138.477 119.836 138.698 119.87 138.913C119.87 139.873 120.54 140.273 121.33 140.643L122.86 141.383C123.444 141.647 123.947 142.063 124.315 142.587C124.684 143.112 124.905 143.725 124.956 144.364C125.007 145.003 124.885 145.644 124.604 146.22C124.323 146.796 123.893 147.287 123.358 147.64C122.823 147.993 122.203 148.196 121.563 148.228C120.922 148.26 120.285 148.12 119.718 147.822C119.15 147.524 118.673 147.08 118.336 146.535C117.998 145.99 117.813 145.364 117.8 144.723H119.68C119.78 146.033 120.37 146.503 121.33 146.503C121.571 146.535 121.817 146.511 122.047 146.433C122.278 146.355 122.487 146.225 122.66 146.053C122.832 145.881 122.962 145.671 123.04 145.44C123.118 145.21 123.142 144.964 123.11 144.723C123.11 143.803 122.81 143.343 121.55 142.723L120.04 141.983C119.388 141.747 118.834 141.301 118.466 140.713C118.098 140.126 117.938 139.432 118.01 138.743C118.01 137.083 119.1 135.573 121.54 135.573C124.23 135.573 124.9 137.473 124.95 139.013H123.11Z" fill="white"/>
<path d="M141.61 153.083H139.76V146.823C139.465 147.252 139.071 147.604 138.611 147.849C138.152 148.094 137.641 148.226 137.12 148.233C134.95 148.233 134.55 146.573 134.55 145.393V138.413C134.55 137.223 134.95 135.573 137.12 135.573C137.641 135.58 138.152 135.712 138.611 135.957C139.071 136.202 139.465 136.554 139.76 136.983V135.773H141.61V153.083ZM139.76 144.183V139.633C139.76 138.863 139.46 137.383 137.96 137.383C136.77 137.383 136.4 138.343 136.4 139.283V144.523C136.4 145.463 136.77 146.433 137.96 146.433C139.46 146.433 139.76 144.943 139.76 144.183Z" fill="white"/>
<path d="M152.36 148.043H150.51V146.833C150.215 147.262 149.821 147.614 149.361 147.859C148.902 148.104 148.391 148.236 147.87 148.243C145.7 148.243 145.3 146.583 145.3 145.403V135.783H147.15V144.543C147.15 145.483 147.52 146.453 148.71 146.453C150.22 146.453 150.51 144.973 150.51 144.203V135.793H152.36V148.043Z" fill="white"/>
<path d="M161.08 144.603H162.93V144.773C162.965 145.232 162.901 145.693 162.743 146.125C162.584 146.558 162.335 146.951 162.012 147.279C161.689 147.607 161.299 147.861 160.87 148.026C160.44 148.19 159.979 148.261 159.52 148.233C159.044 148.262 158.567 148.19 158.121 148.022C157.675 147.854 157.269 147.593 156.931 147.257C156.593 146.921 156.33 146.516 156.159 146.071C155.988 145.625 155.913 145.149 155.94 144.673V138.983C155.922 138.526 155.999 138.07 156.167 137.645C156.335 137.22 156.59 136.834 156.916 136.513C157.242 136.192 157.631 135.943 158.059 135.781C158.487 135.619 158.943 135.548 159.4 135.573C159.87 135.553 160.338 135.629 160.777 135.797C161.216 135.966 161.616 136.222 161.951 136.551C162.287 136.88 162.551 137.275 162.728 137.71C162.905 138.146 162.991 138.613 162.98 139.083V142.593H157.79V144.543C157.79 145.853 158.38 146.423 159.52 146.423C160.61 146.423 161.08 145.753 161.08 144.743V144.603ZM161.13 141.213V139.113C161.155 138.886 161.129 138.656 161.055 138.44C160.982 138.224 160.862 138.026 160.703 137.861C160.545 137.696 160.353 137.568 160.14 137.485C159.927 137.403 159.698 137.368 159.47 137.383C159.235 137.378 159.002 137.423 158.786 137.516C158.569 137.608 158.375 137.745 158.217 137.918C158.058 138.092 157.937 138.296 157.864 138.52C157.79 138.743 157.765 138.979 157.79 139.213V141.213H161.13Z" fill="white"/>
<path d="M173.43 137.253H172.1V135.773H173.43V133.923C173.43 132.113 174.05 130.733 176.79 130.733H177.36V132.343H176.84C175.88 132.343 175.26 132.833 175.26 134.023V135.783H177.34V137.263H175.29V148.043H173.44V137.253H173.43ZM180.94 131.073V132.883H179.09V131.073H180.94ZM179.09 135.773H180.94V148.043H179.09V135.773Z" fill="white"/>
<path d="M184.25 135.773H190.62V137.253L185.93 146.483H190.62V148.043H183.93V146.563L188.65 137.333H184.25V135.773Z" fill="white"/>
<path d="M198.41 144.603H200.26V144.773C200.295 145.232 200.231 145.693 200.073 146.125C199.914 146.558 199.665 146.951 199.342 147.279C199.019 147.607 198.629 147.861 198.199 148.026C197.77 148.19 197.309 148.261 196.85 148.233C196.374 148.262 195.897 148.19 195.451 148.022C195.005 147.854 194.599 147.593 194.261 147.257C193.923 146.921 193.659 146.516 193.489 146.071C193.318 145.625 193.243 145.149 193.27 144.673V138.983C193.252 138.526 193.329 138.07 193.497 137.645C193.665 137.22 193.921 136.834 194.246 136.513C194.572 136.192 194.961 135.943 195.389 135.781C195.817 135.619 196.273 135.548 196.73 135.573C197.2 135.553 197.668 135.629 198.107 135.797C198.546 135.966 198.946 136.222 199.281 136.551C199.617 136.88 199.881 137.275 200.058 137.71C200.235 138.146 200.321 138.613 200.31 139.083V142.593H195.12V144.543C195.12 145.853 195.71 146.423 196.85 146.423C197.94 146.423 198.41 145.753 198.41 144.743V144.603ZM198.46 141.213V139.113C198.485 138.886 198.459 138.656 198.385 138.44C198.312 138.224 198.192 138.026 198.033 137.861C197.875 137.696 197.683 137.568 197.47 137.485C197.257 137.403 197.028 137.368 196.8 137.383C196.565 137.378 196.332 137.423 196.116 137.516C195.899 137.608 195.705 137.745 195.547 137.918C195.388 138.092 195.267 138.296 195.194 138.52C195.12 138.743 195.095 138.979 195.12 139.213V141.213H198.46Z" fill="white"/>
<path d="M205.65 135.773V136.983C205.94 136.553 206.33 136.2 206.786 135.955C207.243 135.709 207.752 135.578 208.27 135.573C208.768 135.54 209.265 135.656 209.696 135.907C210.127 136.158 210.473 136.533 210.69 136.983C210.975 136.537 211.371 136.172 211.839 135.925C212.307 135.678 212.831 135.557 213.36 135.573C215.06 135.573 215.88 136.733 215.88 138.463V148.033H214.03V139.273C214.03 138.213 213.59 137.373 212.47 137.373C211.31 137.373 210.77 138.433 210.77 139.623V148.033H208.92V139.273C208.92 138.503 208.62 137.373 207.39 137.373C206.2 137.373 205.66 138.483 205.66 139.623V148.033H203.81V135.763H205.65V135.773Z" fill="white"/>
<path d="M219.46 139.033C219.479 138.111 219.858 137.234 220.516 136.587C221.174 135.941 222.058 135.578 222.98 135.576C223.902 135.573 224.789 135.931 225.45 136.573C226.112 137.216 226.496 138.091 226.52 139.013V144.723C226.52 145.659 226.148 146.557 225.486 147.219C224.824 147.881 223.926 148.253 222.99 148.253C222.054 148.253 221.156 147.881 220.494 147.219C219.832 146.557 219.46 145.659 219.46 144.723V139.033ZM224.67 139.383C224.67 138.023 223.9 137.383 222.99 137.383C222.08 137.383 221.31 138.023 221.31 139.383V144.433C221.31 145.723 221.9 146.433 222.99 146.433C224.03 146.433 224.67 145.763 224.67 144.433V139.383Z" fill="white"/>
<path d="M234.83 139.013C234.71 137.633 233.94 137.333 233.17 137.333C232.955 137.299 232.734 137.316 232.527 137.383C232.32 137.451 232.131 137.566 231.977 137.72C231.823 137.874 231.707 138.063 231.64 138.27C231.573 138.477 231.556 138.698 231.59 138.913C231.59 139.873 232.26 140.273 233.05 140.643L234.58 141.383C235.164 141.647 235.667 142.063 236.035 142.587C236.404 143.112 236.625 143.725 236.676 144.364C236.727 145.003 236.605 145.644 236.324 146.22C236.043 146.796 235.613 147.287 235.078 147.64C234.543 147.993 233.923 148.196 233.283 148.228C232.642 148.26 232.005 148.12 231.438 147.822C230.87 147.524 230.393 147.08 230.056 146.535C229.718 145.99 229.533 145.364 229.52 144.723H231.4C231.5 146.033 232.09 146.503 233.05 146.503C233.291 146.535 233.537 146.511 233.767 146.433C233.998 146.355 234.207 146.225 234.38 146.053C234.552 145.881 234.682 145.671 234.76 145.44C234.838 145.21 234.862 144.964 234.83 144.723C234.83 143.803 234.53 143.343 233.27 142.723L231.76 141.983C231.108 141.747 230.554 141.301 230.186 140.713C229.818 140.126 229.657 139.432 229.73 138.743C229.73 137.083 230.82 135.573 233.26 135.573C235.95 135.573 236.62 137.473 236.67 139.013H234.83Z" fill="white"/>
<path d="M253.33 148.043H251.48V146.833C251.185 147.262 250.791 147.614 250.331 147.859C249.872 148.104 249.361 148.236 248.84 148.243C246.67 148.243 246.27 146.583 246.27 145.403V138.423C246.27 137.233 246.67 135.583 248.84 135.583C249.361 135.59 249.872 135.721 250.331 135.967C250.791 136.212 251.185 136.564 251.48 136.993V130.733H253.33V148.043ZM251.48 144.183V139.633C251.48 138.863 251.18 137.383 249.68 137.383C248.49 137.383 248.12 138.343 248.12 139.283V144.523C248.12 145.463 248.49 146.433 249.68 146.433C251.18 146.433 251.48 144.943 251.48 144.183Z" fill="white"/>
<path d="M264.08 148.043H262.23V146.833C261.935 147.262 261.541 147.614 261.081 147.859C260.622 148.104 260.111 148.236 259.59 148.243C257.42 148.243 257.02 146.583 257.02 145.403V135.783H258.87V144.543C258.87 145.483 259.24 146.453 260.43 146.453C261.94 146.453 262.23 144.973 262.23 144.203V135.793H264.08V148.043Z" fill="white"/>
<path d="M272.87 139.733V141.313H267.58V139.733H272.87Z" fill="white"/>
<path d="M5.32999 166.473V168.403C6.63999 166.623 7.77999 166.303 8.73999 166.273V168.353H8.39001C7.03001 168.353 5.32999 168.893 5.32999 171.593V178.743H3.48001V166.473H5.32999Z" fill="white"/>
<path d="M15.93 177.533H15.91C15.6079 177.986 15.1944 178.353 14.7094 178.6C14.2243 178.847 13.6839 178.965 13.14 178.943C11.19 178.943 10.62 177.463 10.62 175.503C10.62 172.903 11.46 171.443 14.2 171.443C14.778 171.445 15.3555 171.479 15.93 171.543V169.733C15.9315 169.508 15.8872 169.286 15.7999 169.08C15.7126 168.873 15.584 168.686 15.4221 168.531C15.2602 168.375 15.0683 168.255 14.8582 168.176C14.6481 168.097 14.4241 168.062 14.2 168.073C13.7786 168.057 13.3676 168.205 13.054 168.487C12.7403 168.769 12.5488 169.162 12.52 169.583H10.74C10.7349 169.124 10.8263 168.668 11.008 168.247C11.1898 167.825 11.458 167.445 11.7953 167.133C12.1327 166.821 12.5316 166.584 12.9665 166.435C13.4013 166.287 13.8624 166.232 14.32 166.273C17.16 166.273 17.78 168.373 17.78 169.963V178.743H15.93V177.533ZM15.93 172.903C15.5127 172.838 15.092 172.798 14.67 172.783C14.3617 172.766 14.0533 172.817 13.7669 172.932C13.4805 173.048 13.2231 173.225 13.013 173.451C12.8029 173.677 12.6454 173.947 12.5515 174.241C12.4577 174.535 12.4298 174.847 12.47 175.153C12.47 176.883 12.99 177.353 14.05 177.353C14.5829 177.25 15.0629 176.964 15.4064 176.543C15.7499 176.123 15.9352 175.596 15.93 175.053V172.903Z" fill="white"/>
<path d="M21.47 166.473H23.32V167.683C23.6154 167.254 24.0092 166.903 24.4686 166.657C24.9279 166.412 25.4393 166.28 25.96 166.273C28.13 166.273 28.53 167.933 28.53 169.113V178.733H26.68V169.973C26.68 169.033 26.31 168.073 25.12 168.073C23.61 168.073 23.32 169.553 23.32 170.323V178.733H21.47V166.473Z" fill="white"/>
<path d="M34.39 162.733V166.463H36.12V167.943H34.39V175.393C34.3466 175.62 34.3591 175.853 34.4265 176.074C34.4939 176.294 34.6141 176.495 34.7767 176.659C34.9393 176.822 35.1393 176.943 35.3595 177.012C35.5796 177.081 35.8132 177.095 36.04 177.053H36.24V178.733H35.7C35.2682 178.834 34.8179 178.824 34.3911 178.703C33.9643 178.583 33.575 178.356 33.2595 178.044C32.944 177.733 32.7125 177.347 32.5867 176.921C32.4609 176.496 32.4448 176.046 32.54 175.613V167.943H31.23V166.463H32.54V162.733H34.39Z" fill="white"/>
<path d="M44.17 175.303H46.02V175.473C46.0549 175.932 45.991 176.393 45.8326 176.825C45.6743 177.257 45.4252 177.651 45.1021 177.978C44.779 178.306 44.3894 178.561 43.9595 178.726C43.5296 178.891 43.0694 178.961 42.61 178.933C42.134 178.962 41.6571 178.89 41.2109 178.722C40.7646 178.554 40.359 178.293 40.0209 177.957C39.6827 177.62 39.4195 177.216 39.2487 176.771C39.0779 176.326 39.0034 175.849 39.03 175.373V169.683C39.0118 169.226 39.0892 168.77 39.2573 168.345C39.4254 167.92 39.6805 167.534 40.0062 167.213C40.332 166.892 40.7211 166.643 41.1488 166.481C41.5766 166.319 42.0333 166.248 42.49 166.273C42.9596 166.253 43.4284 166.329 43.8672 166.498C44.3061 166.666 44.7057 166.922 45.0414 167.251C45.377 167.581 45.6415 167.975 45.8184 168.411C45.9953 168.846 46.081 169.313 46.07 169.783V173.293H40.88V175.243C40.88 176.553 41.47 177.123 42.61 177.123C43.7 177.123 44.17 176.453 44.17 175.443V175.303ZM44.22 171.913V169.813C44.2446 169.586 44.2192 169.356 44.1455 169.14C44.0717 168.923 43.9516 168.726 43.7933 168.561C43.6351 168.396 43.4427 168.268 43.2297 168.186C43.0166 168.103 42.788 168.068 42.56 168.083C42.325 168.078 42.0917 168.123 41.8756 168.216C41.6595 168.308 41.4655 168.445 41.3065 168.619C41.1476 168.792 41.0273 168.996 40.9538 169.22C40.8803 169.443 40.8551 169.679 40.88 169.913V171.913H44.22Z" fill="white"/>
<path d="M61.02 177.533H61C60.6979 177.986 60.2844 178.353 59.7993 178.6C59.3143 178.847 58.7739 178.965 58.23 178.943C56.28 178.943 55.71 177.463 55.71 175.503C55.71 172.903 56.55 171.443 59.29 171.443C59.868 171.445 60.4455 171.479 61.02 171.543V169.733C61.0215 169.508 60.9772 169.286 60.8899 169.08C60.8026 168.873 60.674 168.686 60.5121 168.531C60.3502 168.375 60.1583 168.255 59.9482 168.176C59.7381 168.097 59.5141 168.062 59.29 168.073C58.8686 168.057 58.4576 168.205 58.144 168.487C57.8303 168.769 57.6388 169.162 57.61 169.583H55.83C55.8249 169.124 55.9162 168.668 56.098 168.247C56.2798 167.825 56.548 167.445 56.8853 167.133C57.2227 166.821 57.6216 166.584 58.0565 166.435C58.4913 166.287 58.9524 166.232 59.41 166.273C62.25 166.273 62.87 168.373 62.87 169.963V178.743H61.02V177.533ZM61.02 172.903C60.6027 172.838 60.182 172.798 59.76 172.783C59.4517 172.766 59.1433 172.817 58.8569 172.932C58.5705 173.048 58.3131 173.225 58.103 173.451C57.8929 173.677 57.7354 173.947 57.6415 174.241C57.5476 174.535 57.5198 174.847 57.56 175.153C57.56 176.883 58.08 177.353 59.14 177.353C59.6729 177.25 60.1529 176.964 60.4964 176.543C60.8399 176.123 61.0252 175.596 61.02 175.053V172.903Z" fill="white"/>
<path d="M74.78 161.773V163.583H72.93V161.773H74.78ZM72.93 166.473H74.78V178.743H72.93V166.473Z" fill="white"/>
<path d="M80.32 166.473V167.683C80.6099 167.254 80.9998 166.901 81.4562 166.655C81.9126 166.409 82.4218 166.278 82.94 166.273C83.438 166.24 83.9347 166.356 84.366 166.608C84.7973 166.859 85.1435 167.234 85.36 167.683C85.6448 167.237 86.0407 166.872 86.5087 166.625C86.9768 166.378 87.501 166.257 88.03 166.273C89.73 166.273 90.55 167.433 90.55 169.163V178.733H88.7V169.973C88.7 168.913 88.26 168.073 87.14 168.073C85.98 168.073 85.44 169.133 85.44 170.323V178.733H83.59V169.973C83.59 169.203 83.29 168.073 82.06 168.073C80.87 168.073 80.33 169.183 80.33 170.323V178.733H78.48V166.463H80.32V166.473Z" fill="white"/>
<path d="M99.27 175.303H101.12V175.473C101.155 175.932 101.091 176.393 100.933 176.825C100.774 177.257 100.525 177.651 100.202 177.978C99.879 178.306 99.4893 178.561 99.0595 178.726C98.6296 178.891 98.1695 178.961 97.71 178.933C97.234 178.962 96.7571 178.89 96.3109 178.722C95.8646 178.554 95.459 178.293 95.1209 177.957C94.7827 177.62 94.5195 177.216 94.3488 176.771C94.178 176.326 94.1034 175.849 94.13 175.373V169.683C94.1118 169.226 94.1892 168.77 94.3573 168.345C94.5254 167.92 94.7805 167.534 95.1062 167.213C95.4319 166.892 95.8211 166.643 96.2488 166.481C96.6766 166.319 97.1334 166.248 97.59 166.273C98.0596 166.253 98.5284 166.329 98.9672 166.498C99.4061 166.666 99.8057 166.922 100.141 167.251C100.477 167.581 100.741 167.975 100.918 168.411C101.095 168.846 101.181 169.313 101.17 169.783V173.293H95.98V175.243C95.98 176.553 96.57 177.123 97.71 177.123C98.8 177.123 99.27 176.453 99.27 175.443V175.303ZM99.32 171.913V169.813C99.3446 169.586 99.3191 169.356 99.2454 169.14C99.1717 168.923 99.0515 168.726 98.8933 168.561C98.7351 168.396 98.5427 168.268 98.3297 168.186C98.1166 168.103 97.888 168.068 97.66 168.083C97.425 168.078 97.1917 168.123 96.9756 168.216C96.7595 168.308 96.5654 168.445 96.4065 168.619C96.2476 168.792 96.1273 168.996 96.0538 169.22C95.9802 169.443 95.9551 169.679 95.98 169.913V171.913H99.32Z" fill="white"/>
<path d="M106.51 166.473V168.403C107.82 166.623 108.96 166.303 109.92 166.273V168.353H109.57C108.21 168.353 106.51 168.893 106.51 171.593V178.743H104.66V166.473H106.51Z" fill="white"/>
<path d="M116.93 169.713C116.81 168.333 116.04 168.033 115.27 168.033C115.055 167.999 114.834 168.016 114.627 168.083C114.42 168.15 114.231 168.266 114.077 168.42C113.923 168.574 113.807 168.763 113.74 168.97C113.673 169.178 113.656 169.398 113.69 169.613C113.69 170.573 114.36 170.973 115.15 171.343L116.68 172.083C117.264 172.347 117.767 172.763 118.135 173.288C118.504 173.812 118.725 174.425 118.776 175.064C118.827 175.703 118.705 176.344 118.424 176.92C118.143 177.496 117.713 177.987 117.178 178.34C116.643 178.693 116.023 178.896 115.383 178.928C114.742 178.96 114.105 178.82 113.538 178.522C112.97 178.224 112.493 177.779 112.156 177.234C111.818 176.689 111.633 176.064 111.62 175.423H113.5C113.6 176.733 114.19 177.203 115.15 177.203C115.391 177.235 115.637 177.211 115.867 177.133C116.098 177.055 116.307 176.925 116.48 176.752C116.652 176.58 116.782 176.371 116.86 176.141C116.938 175.91 116.962 175.664 116.93 175.423C116.93 174.503 116.63 174.043 115.37 173.423L113.86 172.683C113.208 172.448 112.654 172 112.286 171.413C111.918 170.826 111.758 170.132 111.83 169.443C111.83 167.783 112.92 166.273 115.36 166.273C118.05 166.273 118.72 168.173 118.77 169.713H116.93Z" fill="white"/>
<path d="M126.84 177.533H126.82C126.518 177.986 126.104 178.353 125.619 178.6C125.134 178.847 124.594 178.965 124.05 178.943C122.1 178.943 121.53 177.463 121.53 175.503C121.53 172.903 122.37 171.443 125.11 171.443C125.688 171.445 126.266 171.479 126.84 171.543V169.733C126.842 169.509 126.797 169.286 126.71 169.08C126.623 168.873 126.494 168.686 126.332 168.531C126.17 168.375 125.978 168.255 125.768 168.176C125.558 168.098 125.334 168.063 125.11 168.073C124.689 168.057 124.278 168.205 123.964 168.487C123.65 168.769 123.459 169.162 123.43 169.583H121.65C121.645 169.124 121.736 168.669 121.918 168.247C122.1 167.825 122.368 167.445 122.705 167.133C123.043 166.821 123.442 166.584 123.876 166.436C124.311 166.287 124.772 166.232 125.23 166.273C128.07 166.273 128.69 168.373 128.69 169.963V178.743H126.84V177.533ZM122.32 164.273C122.32 163.213 122.84 161.873 124.02 161.873C124.389 161.882 124.751 161.975 125.08 162.143L125.55 162.363C125.787 162.489 126.051 162.558 126.32 162.563C126.64 162.563 126.96 162.343 127.06 161.623H128.17C128.17 163.183 127.33 164.023 126.51 164.023C126.126 164.005 125.749 163.913 125.4 163.753L124.91 163.533C124.687 163.421 124.44 163.362 124.19 163.363C123.89 163.363 123.52 163.583 123.45 164.303H122.31V164.273H122.32ZM126.84 172.903C126.423 172.838 126.002 172.799 125.58 172.783C125.272 172.766 124.963 172.817 124.677 172.932C124.391 173.048 124.133 173.225 123.923 173.451C123.713 173.677 123.555 173.947 123.461 174.241C123.368 174.535 123.34 174.847 123.38 175.153C123.38 176.883 123.9 177.353 124.96 177.353C125.493 177.25 125.973 176.964 126.316 176.543C126.66 176.123 126.845 175.596 126.84 175.053V172.903Z" fill="white"/>
<path d="M132.27 169.733C132.289 168.811 132.668 167.933 133.326 167.287C133.984 166.641 134.868 166.278 135.79 166.275C136.712 166.273 137.599 166.631 138.26 167.273C138.922 167.916 139.306 168.791 139.33 169.713V175.423C139.33 176.359 138.958 177.257 138.296 177.919C137.634 178.581 136.736 178.953 135.8 178.953C134.864 178.953 133.966 178.581 133.304 177.919C132.642 177.257 132.27 176.359 132.27 175.423V169.733ZM137.49 170.083C137.49 168.723 136.72 168.083 135.81 168.083C134.9 168.083 134.13 168.723 134.13 170.083V175.133C134.13 176.423 134.72 177.133 135.81 177.133C136.85 177.133 137.49 176.463 137.49 175.133V170.083Z" fill="white"/>
<path d="M156.36 178.743H154.51V177.533C154.215 177.962 153.821 178.314 153.361 178.559C152.902 178.804 152.391 178.936 151.87 178.943C149.7 178.943 149.3 177.283 149.3 176.103V169.123C149.3 167.933 149.7 166.283 151.87 166.283C152.391 166.29 152.902 166.422 153.361 166.667C153.821 166.912 154.215 167.264 154.51 167.693V161.433H156.36V178.743ZM154.51 174.883V170.333C154.51 169.563 154.21 168.083 152.71 168.083C151.52 168.083 151.15 169.043 151.15 169.983V175.223C151.15 176.163 151.52 177.133 152.71 177.133C154.21 177.133 154.51 175.653 154.51 174.883Z" fill="white"/>
<path d="M161.9 161.773V163.583H160.05V161.773H161.9ZM160.04 166.473H161.89V178.743H160.04V166.473Z" fill="white"/>
<path d="M170.3 169.713C170.18 168.333 169.41 168.033 168.64 168.033C168.425 167.999 168.204 168.016 167.997 168.083C167.79 168.15 167.601 168.266 167.447 168.42C167.293 168.574 167.177 168.763 167.11 168.97C167.043 169.178 167.026 169.398 167.06 169.613C167.06 170.573 167.73 170.973 168.52 171.343L170.05 172.083C170.634 172.347 171.137 172.763 171.505 173.288C171.874 173.812 172.095 174.425 172.146 175.064C172.197 175.703 172.075 176.344 171.794 176.92C171.513 177.496 171.083 177.987 170.548 178.34C170.013 178.693 169.393 178.896 168.753 178.928C168.112 178.96 167.475 178.82 166.908 178.522C166.34 178.224 165.863 177.779 165.526 177.234C165.188 176.689 165.003 176.064 164.99 175.423H166.87C166.97 176.733 167.56 177.203 168.52 177.203C168.761 177.235 169.007 177.211 169.237 177.133C169.468 177.055 169.677 176.925 169.85 176.752C170.022 176.58 170.152 176.371 170.23 176.141C170.308 175.91 170.332 175.664 170.3 175.423C170.3 174.503 170 174.043 168.74 173.423L167.23 172.683C166.578 172.448 166.024 172 165.656 171.413C165.288 170.826 165.128 170.132 165.2 169.443C165.2 167.783 166.29 166.273 168.73 166.273C171.42 166.273 172.09 168.173 172.14 169.713H170.3Z" fill="white"/>
<path d="M175.36 166.473H177.21V167.683C177.505 167.254 177.899 166.903 178.359 166.657C178.818 166.412 179.329 166.28 179.85 166.273C182.02 166.273 182.42 167.933 182.42 169.113V176.093C182.42 177.283 182.02 178.933 179.85 178.933C179.329 178.926 178.818 178.794 178.359 178.549C177.899 178.304 177.505 177.952 177.21 177.523V183.783H175.36V166.473ZM180.57 175.233V169.993C180.57 169.053 180.2 168.093 179.01 168.093C177.5 168.093 177.21 169.573 177.21 170.343V174.893C177.21 175.663 177.51 177.143 179.01 177.143C180.2 177.133 180.57 176.173 180.57 175.233Z" fill="white"/>
<path d="M186.01 169.733C186.029 168.811 186.408 167.933 187.066 167.287C187.724 166.641 188.608 166.278 189.53 166.275C190.452 166.273 191.339 166.631 192 167.273C192.662 167.916 193.046 168.791 193.07 169.713V175.423C193.07 176.359 192.698 177.257 192.036 177.919C191.374 178.581 190.476 178.953 189.54 178.953C188.604 178.953 187.706 178.581 187.044 177.919C186.382 177.257 186.01 176.359 186.01 175.423V169.733ZM191.22 170.083C191.22 168.723 190.45 168.083 189.54 168.083C188.63 168.083 187.86 168.723 187.86 170.083V175.133C187.86 176.423 188.45 177.133 189.54 177.133C190.58 177.133 191.22 176.463 191.22 175.133V170.083Z" fill="white"/>
<path d="M196.66 166.473H198.51V167.683C198.805 167.254 199.199 166.903 199.659 166.657C200.118 166.412 200.629 166.28 201.15 166.273C203.32 166.273 203.72 167.933 203.72 169.113V178.733H201.87V169.973C201.87 169.033 201.5 168.073 200.31 168.073C198.8 168.073 198.51 169.553 198.51 170.323V178.733H196.66V166.473Z" fill="white"/>
<path d="M209.26 161.773V163.583H207.41V161.773H209.26ZM207.4 166.473H209.25V178.743H207.4V166.473Z" fill="white"/>
<path d="M212.94 161.423H214.79V167.683C215.085 167.254 215.479 166.903 215.939 166.657C216.398 166.412 216.909 166.28 217.43 166.273C219.6 166.273 220 167.933 220 169.113V176.093C220 177.283 219.6 178.933 217.43 178.933C216.909 178.926 216.398 178.794 215.939 178.549C215.479 178.304 215.085 177.952 214.79 177.523V178.733H212.94V161.423ZM218.15 175.233V169.993C218.15 169.053 217.78 168.093 216.59 168.093C215.08 168.093 214.79 169.573 214.79 170.343V174.893C214.79 175.663 215.09 177.143 216.59 177.143C217.78 177.133 218.15 176.173 218.15 175.233Z" fill="white"/>
<path d="M225.54 161.773V163.583H223.69V161.773H225.54ZM223.69 166.473H225.54V178.743H223.69V166.473Z" fill="white"/>
<path d="M231.07 161.423V175.673C231.055 175.855 231.079 176.039 231.142 176.211C231.205 176.383 231.305 176.539 231.434 176.668C231.564 176.798 231.72 176.898 231.892 176.961C232.064 177.024 232.248 177.049 232.43 177.033H232.7V178.743H232.13C231.753 178.788 231.371 178.749 231.01 178.631C230.649 178.513 230.318 178.318 230.04 178.059C229.762 177.8 229.544 177.484 229.401 177.133C229.257 176.781 229.192 176.402 229.21 176.023V161.433H231.07V161.423Z" fill="white"/>
<path d="M237.3 161.773V163.583H235.45V161.773H237.3ZM235.45 166.473H237.3V178.743H235.45V166.473Z" fill="white"/>
<path d="M240.61 166.473H246.98V167.953L242.29 177.183H246.98V178.743H240.29V177.263L245.01 168.033H240.61V166.473Z" fill="white"/>
<path d="M254.81 177.533H254.79C254.488 177.986 254.074 178.353 253.589 178.6C253.104 178.847 252.564 178.965 252.02 178.943C250.07 178.943 249.5 177.463 249.5 175.503C249.5 172.903 250.34 171.443 253.08 171.443C253.658 171.445 254.236 171.479 254.81 171.543V169.733C254.811 169.508 254.767 169.286 254.68 169.08C254.593 168.873 254.464 168.686 254.302 168.531C254.14 168.375 253.948 168.255 253.738 168.176C253.528 168.097 253.304 168.062 253.08 168.073C252.659 168.057 252.248 168.205 251.934 168.487C251.62 168.769 251.429 169.162 251.4 169.583H249.62C249.615 169.124 249.706 168.668 249.888 168.247C250.07 167.825 250.338 167.445 250.675 167.133C251.013 166.821 251.412 166.584 251.846 166.435C252.281 166.287 252.742 166.232 253.2 166.273C256.04 166.273 256.66 168.373 256.66 169.963V178.743H254.81V177.533ZM254.81 172.903C254.393 172.838 253.972 172.798 253.55 172.783C253.242 172.766 252.933 172.817 252.647 172.932C252.361 173.048 252.103 173.225 251.893 173.451C251.683 173.677 251.525 173.947 251.432 174.241C251.338 174.535 251.31 174.847 251.35 175.153C251.35 176.883 251.87 177.353 252.93 177.353C253.463 177.25 253.943 176.964 254.286 176.543C254.63 176.123 254.815 175.596 254.81 175.053V172.903Z" fill="white"/>
<path d="M265.46 170.433V172.013H260.17V170.433H265.46Z" fill="white"/>
<path d="M10.55 209.443H8.70001V208.233C8.40462 208.662 8.01075 209.013 7.55142 209.259C7.0921 209.504 6.58068 209.636 6.06 209.643C3.89 209.643 3.48999 207.983 3.48999 206.803V199.823C3.48999 198.633 3.89 196.983 6.06 196.983C6.58068 196.99 7.0921 197.122 7.55142 197.367C8.01075 197.613 8.40462 197.964 8.70001 198.393V192.133H10.55V209.443ZM8.69 205.583V201.033C8.69 200.263 8.39001 198.783 6.89001 198.783C5.70001 198.783 5.32999 199.743 5.32999 200.683V205.923C5.32999 206.863 5.70001 207.833 6.89001 207.833C8.40001 207.833 8.69 206.353 8.69 205.583Z" fill="white"/>
<path d="M19.32 208.233H19.3C18.9979 208.686 18.5844 209.053 18.0993 209.3C17.6143 209.547 17.0739 209.665 16.53 209.643C14.58 209.643 14.01 208.163 14.01 206.203C14.01 203.603 14.85 202.143 17.59 202.143C18.168 202.146 18.7455 202.179 19.32 202.243V200.433C19.3215 200.209 19.2772 199.986 19.1899 199.78C19.1026 199.573 18.974 199.386 18.8121 199.231C18.6502 199.076 18.4584 198.955 18.2482 198.876C18.0381 198.797 17.8141 198.762 17.59 198.773C17.1686 198.757 16.7576 198.906 16.4439 199.187C16.1303 199.469 15.9388 199.862 15.91 200.283H14.13C14.125 199.824 14.2163 199.368 14.398 198.946C14.5798 198.524 14.848 198.145 15.1853 197.833C15.5227 197.522 15.9216 197.284 16.3565 197.136C16.7913 196.987 17.2524 196.932 17.71 196.973C20.55 196.973 21.17 199.073 21.17 200.663V209.443H19.32V208.233ZM19.32 203.603C18.9027 203.538 18.482 203.498 18.06 203.483C17.7517 203.466 17.4434 203.516 17.157 203.632C16.8705 203.747 16.6131 203.924 16.403 204.151C16.193 204.377 16.0354 204.647 15.9415 204.941C15.8476 205.236 15.8198 205.547 15.86 205.853C15.86 207.583 16.38 208.053 17.44 208.053C17.9729 207.95 18.4529 207.663 18.7964 207.243C19.1399 206.823 19.3252 206.296 19.32 205.753V203.603Z" fill="white"/>
<path d="M29.57 200.413C29.45 199.033 28.68 198.733 27.91 198.733C27.6947 198.699 27.4744 198.716 27.267 198.783C27.0596 198.85 26.8711 198.966 26.717 199.12C26.5628 199.274 26.4474 199.463 26.3801 199.67C26.3129 199.877 26.2957 200.098 26.33 200.313C26.33 201.273 27 201.673 27.79 202.043L29.32 202.783C29.9041 203.047 30.4066 203.463 30.7752 203.987C31.1439 204.512 31.3651 205.126 31.416 205.765C31.4668 206.404 31.3453 207.045 31.0642 207.621C30.7831 208.197 30.3526 208.686 29.8176 209.04C29.2826 209.393 28.6628 209.596 28.0226 209.628C27.3824 209.66 26.7453 209.52 26.1777 209.222C25.6101 208.924 25.1328 208.48 24.7955 207.935C24.4582 207.389 24.2733 206.764 24.26 206.123H26.14C26.24 207.433 26.83 207.903 27.79 207.903C28.0313 207.935 28.2768 207.911 28.5074 207.833C28.738 207.755 28.9474 207.625 29.1196 207.453C29.2917 207.28 29.4219 207.071 29.5 206.84C29.5781 206.61 29.6021 206.364 29.57 206.123C29.57 205.203 29.27 204.743 28.01 204.123L26.5 203.383C25.8482 203.147 25.294 202.701 24.926 202.113C24.5581 201.526 24.3975 200.832 24.47 200.143C24.47 198.483 25.56 196.973 28 196.973C30.69 196.973 31.36 198.873 31.41 200.413H29.57Z" fill="white"/>
<path d="M41.01 197.173H42.86V198.383C43.1554 197.954 43.5493 197.602 44.0086 197.357C44.4679 197.112 44.9793 196.98 45.5 196.973C47.67 196.973 48.07 198.633 48.07 199.813V206.793C48.07 207.983 47.67 209.633 45.5 209.633C44.9793 209.626 44.4679 209.494 44.0086 209.249C43.5493 209.004 43.1554 208.652 42.86 208.223V214.483H41.01V197.173ZM46.22 205.933V200.693C46.22 199.753 45.85 198.793 44.66 198.793C43.15 198.793 42.86 200.273 42.86 201.043V205.593C42.86 206.363 43.16 207.843 44.66 207.843C45.85 207.833 46.22 206.873 46.22 205.933Z" fill="white"/>
<path d="M56.85 208.233H56.83C56.5279 208.686 56.1144 209.053 55.6293 209.3C55.1443 209.547 54.6039 209.665 54.06 209.643C52.11 209.643 51.54 208.163 51.54 206.203C51.54 203.603 52.38 202.143 55.12 202.143C55.698 202.146 56.2755 202.179 56.85 202.243V200.433C56.8515 200.209 56.8072 199.986 56.7199 199.78C56.6326 199.573 56.504 199.386 56.3421 199.231C56.1802 199.076 55.9884 198.955 55.7782 198.876C55.5681 198.797 55.3441 198.762 55.12 198.773C54.6986 198.757 54.2876 198.906 53.9739 199.187C53.6603 199.469 53.4688 199.862 53.44 200.283H51.66C51.655 199.824 51.7463 199.368 51.928 198.946C52.1098 198.524 52.378 198.145 52.7153 197.833C53.0527 197.522 53.4516 197.284 53.8865 197.136C54.3213 196.987 54.7824 196.932 55.24 196.973C58.08 196.973 58.7 199.073 58.7 200.663V209.443H56.85V208.233ZM56.85 203.603C56.4327 203.538 56.012 203.498 55.59 203.483C55.2817 203.466 54.9734 203.516 54.687 203.632C54.4005 203.747 54.1431 203.924 53.933 204.151C53.723 204.377 53.5654 204.647 53.4715 204.941C53.3776 205.236 53.3498 205.547 53.39 205.853C53.39 207.583 53.91 208.053 54.97 208.053C55.5029 207.95 55.9829 207.663 56.3264 207.243C56.6699 206.823 56.8552 206.296 56.85 205.753V203.603Z" fill="white"/>
<path d="M64.23 197.173V199.103C65.54 197.323 66.68 197.003 67.64 196.973V199.053H67.29C65.93 199.053 64.23 199.593 64.23 202.293V209.443H62.38V197.173H64.23Z" fill="white"/>
<path d="M74.83 208.233H74.81C74.5079 208.686 74.0944 209.053 73.6093 209.3C73.1242 209.547 72.5838 209.665 72.04 209.643C70.09 209.643 69.52 208.163 69.52 206.203C69.52 203.603 70.36 202.143 73.1 202.143C73.678 202.146 74.2555 202.179 74.83 202.243V200.433C74.8315 200.209 74.7872 199.986 74.6999 199.78C74.6126 199.573 74.484 199.386 74.3221 199.231C74.1602 199.076 73.9684 198.955 73.7582 198.876C73.5481 198.797 73.3241 198.762 73.1 198.773C72.6786 198.757 72.2675 198.906 71.9539 199.187C71.6403 199.469 71.4488 199.862 71.42 200.283H69.64C69.635 199.824 69.7262 199.368 69.908 198.946C70.0898 198.524 70.358 198.145 70.6953 197.833C71.0326 197.522 71.4316 197.284 71.8665 197.136C72.3013 196.987 72.7624 196.932 73.22 196.973C76.06 196.973 76.68 199.073 76.68 200.663V209.443H74.83V208.233ZM74.83 203.603C74.4127 203.538 73.992 203.498 73.57 203.483C73.2617 203.466 72.9533 203.516 72.6669 203.632C72.3805 203.747 72.1231 203.924 71.913 204.151C71.7029 204.377 71.5453 204.647 71.4515 204.941C71.3576 205.236 71.3298 205.547 71.37 205.853C71.37 207.583 71.89 208.053 72.95 208.053C73.4829 207.95 73.9629 207.663 74.3064 207.243C74.6499 206.823 74.8352 206.296 74.83 205.753V203.603Z" fill="white"/>
<path d="M90.32 209.443H88.86L85.65 197.173H87.6L89.65 205.783H89.7L91.7 197.173H93.58L90.32 209.443Z" fill="white"/>
<path d="M96 200.443C96.0192 199.521 96.3982 198.644 97.056 197.998C97.7138 197.351 98.5982 196.988 99.5203 196.985C100.442 196.983 101.329 197.341 101.99 197.983C102.652 198.626 103.036 199.501 103.06 200.423V206.133C103.06 207.069 102.688 207.967 102.026 208.629C101.364 209.291 100.466 209.663 99.53 209.663C98.5938 209.663 97.6959 209.291 97.0339 208.629C96.3719 207.967 96 207.069 96 206.133V200.443ZM101.22 200.783C101.22 199.423 100.45 198.783 99.54 198.783C98.63 198.783 97.86 199.423 97.86 200.783V205.833C97.86 207.123 98.45 207.833 99.54 207.833C100.58 207.833 101.22 207.163 101.22 205.833V200.783Z" fill="white"/>
<path d="M111.87 205.683H113.72V206.183C113.689 207.12 113.292 208.008 112.613 208.656C111.934 209.303 111.029 209.659 110.091 209.645C109.153 209.632 108.258 209.252 107.598 208.585C106.937 207.919 106.565 207.021 106.56 206.083V200.523C106.538 200.049 106.615 199.575 106.788 199.133C106.961 198.691 107.224 198.29 107.562 197.956C107.899 197.622 108.303 197.363 108.747 197.195C109.192 197.028 109.666 196.955 110.14 196.983C110.607 196.948 111.076 197.012 111.517 197.171C111.958 197.329 112.36 197.579 112.698 197.904C113.036 198.228 113.301 198.621 113.477 199.055C113.654 199.489 113.736 199.955 113.72 200.423V200.963H111.87V200.793C111.87 199.413 111.08 198.793 110.14 198.793C109.18 198.793 108.41 199.413 108.41 200.793V205.843C108.41 207.153 109 207.843 110.14 207.843C111.23 207.843 111.87 207.173 111.87 205.843V205.683Z" fill="white"/>
<path d="M121.8 206.003H123.65V206.173C123.685 206.632 123.621 207.093 123.463 207.525C123.304 207.958 123.055 208.351 122.732 208.679C122.409 209.007 122.019 209.261 121.589 209.426C121.16 209.59 120.699 209.661 120.24 209.633C119.764 209.662 119.287 209.59 118.841 209.422C118.395 209.254 117.989 208.993 117.651 208.657C117.313 208.32 117.05 207.916 116.879 207.471C116.708 207.025 116.633 206.549 116.66 206.073V200.383C116.642 199.926 116.719 199.47 116.887 199.045C117.055 198.62 117.311 198.234 117.636 197.913C117.962 197.592 118.351 197.343 118.779 197.181C119.207 197.019 119.663 196.948 120.12 196.973C120.59 196.953 121.058 197.029 121.497 197.197C121.936 197.366 122.336 197.623 122.671 197.952C123.007 198.281 123.271 198.675 123.448 199.11C123.625 199.546 123.711 200.013 123.7 200.483V203.993H118.51V205.943C118.51 207.253 119.1 207.823 120.24 207.823C121.33 207.823 121.8 207.153 121.8 206.143V206.003ZM118.76 194.953H117.62L118.88 192.133H121.45L122.68 194.953H121.54L120.16 193.223L118.76 194.953ZM121.85 202.613V200.513C121.875 200.286 121.849 200.056 121.775 199.84C121.702 199.624 121.582 199.426 121.423 199.261C121.265 199.096 121.073 198.968 120.86 198.885C120.647 198.803 120.418 198.768 120.19 198.783C119.955 198.778 119.722 198.823 119.506 198.916C119.289 199.008 119.095 199.145 118.937 199.318C118.778 199.491 118.657 199.697 118.584 199.92C118.51 200.143 118.485 200.379 118.51 200.613V202.613H121.85Z" fill="white"/>
<path d="M138.65 208.233H138.63C138.328 208.686 137.914 209.053 137.429 209.3C136.944 209.547 136.404 209.665 135.86 209.643C133.91 209.643 133.34 208.163 133.34 206.203C133.34 203.603 134.18 202.143 136.92 202.143C137.498 202.146 138.076 202.179 138.65 202.243V200.433C138.652 200.209 138.607 199.986 138.52 199.78C138.433 199.573 138.304 199.386 138.142 199.231C137.98 199.076 137.788 198.955 137.578 198.876C137.368 198.797 137.144 198.762 136.92 198.773C136.499 198.757 136.088 198.906 135.774 199.187C135.46 199.469 135.269 199.862 135.24 200.283H133.46C133.455 199.824 133.546 199.368 133.728 198.946C133.91 198.524 134.178 198.145 134.515 197.833C134.853 197.522 135.252 197.284 135.686 197.136C136.121 196.987 136.582 196.932 137.04 196.973C139.88 196.973 140.5 199.073 140.5 200.663V209.443H138.65V208.233ZM138.65 203.603C138.233 203.538 137.812 203.498 137.39 203.483C137.082 203.466 136.773 203.516 136.487 203.632C136.201 203.747 135.943 203.924 135.733 204.151C135.523 204.377 135.365 204.647 135.271 204.941C135.178 205.236 135.15 205.547 135.19 205.853C135.19 207.583 135.71 208.053 136.77 208.053C137.303 207.95 137.783 207.663 138.126 207.243C138.47 206.823 138.655 206.296 138.65 205.753V203.603Z" fill="#0AEFC3"/>
<path d="M148.9 200.413C148.78 199.033 148.01 198.733 147.24 198.733C147.025 198.699 146.804 198.716 146.597 198.783C146.39 198.85 146.201 198.966 146.047 199.12C145.893 199.274 145.777 199.463 145.71 199.67C145.643 199.877 145.626 200.098 145.66 200.313C145.66 201.273 146.33 201.673 147.12 202.043L148.65 202.783C149.234 203.047 149.737 203.463 150.105 203.987C150.474 204.512 150.695 205.126 150.746 205.765C150.797 206.404 150.675 207.045 150.394 207.621C150.113 208.197 149.683 208.686 149.148 209.04C148.613 209.393 147.993 209.596 147.353 209.628C146.712 209.66 146.075 209.52 145.508 209.222C144.94 208.924 144.463 208.48 144.126 207.935C143.788 207.389 143.603 206.764 143.59 206.123H145.47C145.57 207.433 146.16 207.903 147.12 207.903C147.361 207.935 147.607 207.911 147.837 207.833C148.068 207.755 148.277 207.625 148.45 207.453C148.622 207.28 148.752 207.071 148.83 206.84C148.908 206.61 148.932 206.364 148.9 206.123C148.9 205.203 148.6 204.743 147.34 204.123L145.83 203.383C145.178 203.147 144.624 202.701 144.256 202.113C143.888 201.526 143.727 200.832 143.8 200.143C143.8 198.483 144.89 196.973 147.33 196.973C150.02 196.973 150.69 198.873 150.74 200.413H148.9Z" fill="#0AEFC3"/>
<path d="M158.68 200.413C158.56 199.033 157.79 198.733 157.02 198.733C156.805 198.699 156.584 198.716 156.377 198.783C156.17 198.85 155.981 198.966 155.827 199.12C155.673 199.274 155.557 199.463 155.49 199.67C155.423 199.877 155.406 200.098 155.44 200.313C155.44 201.273 156.11 201.673 156.9 202.043L158.43 202.783C159.014 203.047 159.517 203.463 159.885 203.987C160.254 204.512 160.475 205.126 160.526 205.765C160.577 206.404 160.455 207.045 160.174 207.621C159.893 208.197 159.463 208.686 158.928 209.04C158.393 209.393 157.773 209.596 157.133 209.628C156.492 209.66 155.855 209.52 155.288 209.222C154.72 208.924 154.243 208.48 153.906 207.935C153.568 207.389 153.383 206.764 153.37 206.123H155.25C155.35 207.433 155.94 207.903 156.9 207.903C157.141 207.935 157.387 207.911 157.617 207.833C157.848 207.755 158.057 207.625 158.23 207.453C158.402 207.28 158.532 207.071 158.61 206.84C158.688 206.61 158.712 206.364 158.68 206.123C158.68 205.203 158.38 204.743 157.12 204.123L155.61 203.383C154.958 203.147 154.404 202.701 154.036 202.113C153.668 201.526 153.508 200.832 153.58 200.143C153.58 198.483 154.67 196.973 157.11 196.973C159.8 196.973 160.47 198.873 160.52 200.413H158.68Z" fill="#0AEFC3"/>
<path d="M165.6 192.473V194.283H163.75V192.473H165.6ZM163.75 197.173H165.6V209.443H163.75V197.173Z" fill="#0AEFC3"/>
<path d="M174 200.413C173.88 199.033 173.11 198.733 172.34 198.733C172.125 198.699 171.904 198.716 171.697 198.783C171.49 198.85 171.301 198.966 171.147 199.12C170.993 199.274 170.877 199.463 170.81 199.67C170.743 199.877 170.726 200.098 170.76 200.313C170.76 201.273 171.43 201.673 172.22 202.043L173.75 202.783C174.334 203.047 174.837 203.463 175.205 203.987C175.574 204.512 175.795 205.126 175.846 205.765C175.897 206.404 175.775 207.045 175.494 207.621C175.213 208.197 174.783 208.686 174.248 209.04C173.713 209.393 173.093 209.596 172.453 209.628C171.812 209.66 171.175 209.52 170.608 209.222C170.04 208.924 169.563 208.48 169.226 207.935C168.888 207.389 168.703 206.764 168.69 206.123H170.57C170.67 207.433 171.26 207.903 172.22 207.903C172.461 207.935 172.707 207.911 172.937 207.833C173.168 207.755 173.377 207.625 173.55 207.453C173.722 207.28 173.852 207.071 173.93 206.84C174.008 206.61 174.032 206.364 174 206.123C174 205.203 173.7 204.743 172.44 204.123L170.93 203.383C170.278 203.147 169.724 202.701 169.356 202.113C168.988 201.526 168.828 200.832 168.9 200.143C168.9 198.483 169.99 196.973 172.43 196.973C175.12 196.973 175.79 198.873 175.84 200.413H174Z" fill="#0AEFC3"/>
<path d="M181.24 193.443V197.173H182.97V198.653H181.24V206.103C181.197 206.33 181.209 206.563 181.276 206.784C181.344 207.004 181.464 207.205 181.627 207.369C181.789 207.532 181.989 207.653 182.209 207.722C182.43 207.791 182.663 207.805 182.89 207.763H183.09V209.443H182.55C182.118 209.544 181.668 209.533 181.241 209.413C180.814 209.293 180.425 209.066 180.109 208.754C179.794 208.443 179.562 208.057 179.437 207.631C179.311 207.206 179.295 206.756 179.39 206.323V198.653H178.08V197.173H179.39V193.443H181.24Z" fill="#0AEFC3"/>
<path d="M187.84 192.473V194.283H185.99V192.473H187.84ZM185.98 197.173H187.83V209.443H185.98V197.173Z" fill="#0AEFC3"/>
<path d="M193.37 197.173V199.103C194.68 197.323 195.82 197.003 196.78 196.973V199.053H196.43C195.07 199.053 193.37 199.593 193.37 202.293V209.443H191.52V197.173H193.37Z" fill="#0AEFC3"/>
<path d="M212.76 214.493H210.91V208.233C210.615 208.662 210.221 209.013 209.761 209.259C209.302 209.504 208.791 209.636 208.27 209.643C206.1 209.643 205.7 207.983 205.7 206.803V199.823C205.7 198.633 206.1 196.983 208.27 196.983C208.791 196.99 209.302 197.122 209.761 197.367C210.221 197.613 210.615 197.964 210.91 198.393V197.183H212.76V214.493ZM210.91 205.583V201.033C210.91 200.263 210.61 198.783 209.11 198.783C207.92 198.783 207.55 199.743 207.55 200.683V205.923C207.55 206.863 207.92 207.833 209.11 207.833C210.62 207.833 210.91 206.353 210.91 205.583Z" fill="#0AEFC3"/>
<path d="M223.51 209.443H221.66V208.233C221.365 208.662 220.971 209.013 220.511 209.259C220.052 209.504 219.541 209.636 219.02 209.643C216.85 209.643 216.45 207.983 216.45 206.803V197.183H218.3V205.943C218.3 206.883 218.67 207.853 219.86 207.853C221.37 207.853 221.66 206.373 221.66 205.603V197.193H223.51V209.443Z" fill="#0AEFC3"/>
<path d="M232.28 208.233H232.26C231.958 208.686 231.544 209.053 231.059 209.3C230.574 209.547 230.034 209.665 229.49 209.643C227.54 209.643 226.97 208.163 226.97 206.203C226.97 203.603 227.81 202.143 230.55 202.143C231.128 202.146 231.706 202.179 232.28 202.243V200.433C232.282 200.209 232.237 199.986 232.15 199.78C232.063 199.573 231.934 199.386 231.772 199.231C231.61 199.076 231.418 198.955 231.208 198.876C230.998 198.797 230.774 198.762 230.55 198.773C230.129 198.757 229.718 198.906 229.404 199.187C229.09 199.469 228.899 199.862 228.87 200.283H227.09C227.085 199.824 227.176 199.368 227.358 198.946C227.54 198.524 227.808 198.145 228.145 197.833C228.483 197.522 228.882 197.284 229.316 197.136C229.751 196.987 230.212 196.932 230.67 196.973C233.51 196.973 234.13 199.073 234.13 200.663V209.443H232.28V208.233ZM232.28 203.603C231.863 203.538 231.442 203.498 231.02 203.483C230.712 203.466 230.403 203.516 230.117 203.632C229.831 203.747 229.573 203.924 229.363 204.151C229.153 204.377 228.995 204.647 228.901 204.941C228.808 205.236 228.78 205.547 228.82 205.853C228.82 207.583 229.34 208.053 230.4 208.053C230.933 207.95 231.413 207.663 231.756 207.243C232.1 206.823 232.285 206.296 232.28 205.753V203.603Z" fill="#0AEFC3"/>
<path d="M237.82 197.173H239.67V198.383C239.965 197.954 240.359 197.602 240.819 197.357C241.278 197.112 241.789 196.98 242.31 196.973C244.48 196.973 244.88 198.633 244.88 199.813V209.433H243.03V200.673C243.03 199.733 242.66 198.773 241.47 198.773C239.96 198.773 239.67 200.253 239.67 201.023V209.433H237.82V197.173Z" fill="#0AEFC3"/>
<path d="M255.63 209.443H253.78V208.233C253.485 208.662 253.091 209.013 252.631 209.259C252.172 209.504 251.661 209.636 251.14 209.643C248.97 209.643 248.57 207.983 248.57 206.803V199.823C248.57 198.633 248.97 196.983 251.14 196.983C251.661 196.99 252.172 197.122 252.631 197.367C253.091 197.613 253.485 197.964 253.78 198.393V192.133H255.63V209.443ZM253.78 205.583V201.033C253.78 200.263 253.48 198.783 251.98 198.783C250.79 198.783 250.42 199.743 250.42 200.683V205.923C250.42 206.863 250.79 207.833 251.98 207.833C253.48 207.833 253.78 206.353 253.78 205.583Z" fill="#0AEFC3"/>
<path d="M259.21 200.443C259.229 199.521 259.608 198.644 260.266 197.998C260.924 197.351 261.808 196.988 262.73 196.985C263.652 196.983 264.539 197.341 265.2 197.983C265.862 198.626 266.246 199.501 266.27 200.423V206.133C266.27 207.069 265.898 207.967 265.236 208.629C264.574 209.291 263.676 209.663 262.74 209.663C261.804 209.663 260.906 209.291 260.244 208.629C259.582 207.967 259.21 207.069 259.21 206.133V200.443ZM264.43 200.783C264.43 199.423 263.66 198.783 262.75 198.783C261.84 198.783 261.07 199.423 261.07 200.783V205.833C261.07 207.123 261.66 207.833 262.75 207.833C263.79 207.833 264.43 207.163 264.43 205.833V200.783Z" fill="#0AEFC3"/>
<path d="M10.55 245.193H8.70001V238.933C8.40462 239.362 8.01075 239.714 7.55142 239.959C7.0921 240.204 6.58068 240.336 6.06 240.343C3.89 240.343 3.48999 238.683 3.48999 237.503V230.523C3.48999 229.333 3.89 227.683 6.06 227.683C6.58068 227.69 7.0921 227.822 7.55142 228.067C8.01075 228.312 8.40462 228.664 8.70001 229.093V227.883H10.55V245.193ZM8.69 236.283V231.733C8.69 230.963 8.39001 229.483 6.89001 229.483C5.70001 229.483 5.32999 230.443 5.32999 231.383V236.623C5.32999 237.563 5.70001 238.533 6.89001 238.533C8.40001 238.533 8.69 237.053 8.69 236.283Z" fill="#0AEFC3"/>
<path d="M21.29 240.143H19.44V238.933C19.1446 239.362 18.7508 239.714 18.2914 239.959C17.8321 240.204 17.3207 240.336 16.8 240.343C14.63 240.343 14.23 238.683 14.23 237.503V227.883H16.08V236.643C16.08 237.583 16.45 238.553 17.64 238.553C19.15 238.553 19.44 237.073 19.44 236.303V227.893H21.29V240.143Z" fill="#0AEFC3"/>
<path d="M26.83 223.173V224.983H24.98V223.173H26.83ZM24.98 227.873H26.83V240.143H24.98V227.873Z" fill="#0AEFC3"/>
<path d="M35.23 231.113C35.11 229.733 34.34 229.433 33.57 229.433C33.3547 229.399 33.1344 229.416 32.927 229.483C32.7196 229.55 32.5311 229.666 32.377 229.82C32.2228 229.974 32.1074 230.163 32.0401 230.37C31.9729 230.577 31.9557 230.798 31.99 231.013C31.99 231.973 32.66 232.373 33.45 232.743L34.98 233.483C35.5641 233.747 36.0666 234.163 36.4352 234.688C36.8039 235.212 37.0251 235.825 37.076 236.464C37.1268 237.103 37.0053 237.744 36.7242 238.32C36.443 238.896 36.0126 239.387 35.4776 239.74C34.9426 240.093 34.3228 240.296 33.6826 240.328C33.0424 240.36 32.4053 240.22 31.8377 239.922C31.2701 239.624 30.7928 239.179 30.4555 238.634C30.1182 238.089 29.9333 237.464 29.92 236.823H31.8C31.9 238.133 32.49 238.603 33.45 238.603C33.6913 238.635 33.9368 238.611 34.1674 238.533C34.398 238.455 34.6074 238.324 34.7796 238.152C34.9517 237.98 35.0819 237.771 35.16 237.541C35.2381 237.31 35.2621 237.065 35.23 236.823C35.23 235.903 34.93 235.443 33.67 234.823L32.16 234.083C31.5082 233.848 30.954 233.401 30.586 232.813C30.2181 232.226 30.0575 231.532 30.13 230.843C30.13 229.183 31.22 227.673 33.66 227.673C36.35 227.673 37.02 229.573 37.07 231.113H35.23Z" fill="#0AEFC3"/>
<path d="M45.33 236.703H47.18V236.873C47.2149 237.332 47.151 237.793 46.9927 238.226C46.8343 238.658 46.5852 239.051 46.2621 239.379C45.939 239.707 45.5494 239.961 45.1195 240.126C44.6896 240.291 44.2294 240.361 43.77 240.333C43.294 240.362 42.8171 240.29 42.3709 240.122C41.9246 239.954 41.519 239.693 41.1809 239.356C40.8427 239.02 40.5795 238.616 40.4087 238.171C40.238 237.726 40.1634 237.249 40.19 236.773V231.083C40.1718 230.626 40.2492 230.17 40.4173 229.745C40.5854 229.32 40.8405 228.934 41.1662 228.613C41.492 228.292 41.8811 228.043 42.3088 227.881C42.7366 227.719 43.1934 227.648 43.65 227.673C44.1196 227.653 44.5884 227.729 45.0272 227.897C45.4661 228.066 45.8657 228.322 46.2014 228.651C46.537 228.98 46.8015 229.375 46.9784 229.811C47.1553 230.246 47.241 230.713 47.23 231.183V234.693H42.04V236.643C42.04 237.953 42.63 238.523 43.77 238.523C44.86 238.523 45.33 237.853 45.33 236.843V236.703ZM45.38 233.313V231.213C45.4046 230.986 45.3791 230.756 45.3054 230.54C45.2317 230.323 45.1116 230.126 44.9533 229.961C44.7951 229.796 44.6027 229.668 44.3897 229.585C44.1766 229.503 43.948 229.468 43.72 229.483C43.485 229.478 43.2517 229.523 43.0356 229.616C42.8195 229.708 42.6255 229.845 42.4665 230.019C42.3076 230.192 42.1874 230.396 42.1138 230.62C42.0403 230.843 42.0151 231.079 42.04 231.313V233.313H45.38Z" fill="#0AEFC3"/>
<path d="M52.57 227.873V229.803C53.88 228.023 55.02 227.703 55.98 227.673V229.753H55.63C54.27 229.753 52.57 230.293 52.57 232.993V240.143H50.72V227.873H52.57Z" fill="#0AEFC3"/>
<path d="M60.6 238.043V240.143H58.48V238.043H60.6Z" fill="white"/>
</svg>
