<svg width="841" height="175" viewBox="0 0 841 175" fill="none" xmlns="http://www.w3.org/2000/svg">
<path d="M296.43 40.2532L294.94 33.4731H289.15L287.66 40.2532H283.14L290.06 8.61316H294.04L300.96 40.2532H296.43ZM291.95 17.4231L289.6 29.4431H294.39L291.95 17.4231Z" fill="#00E1BE"/>
<path d="M325.3 40.2532H321.32L314.63 8.61316H319.6L323.26 30.4932H323.44L327.24 8.61316H331.99L325.3 40.2532Z" fill="#00E1BE"/>
<path d="M336.28 8.61316H349.7V12.9031H340.8V22.2131H348.66V26.2831H340.8V35.9531H349.84V40.2432H336.28V8.61316Z" fill="#00E1BE"/>
<path d="M361.18 8.61311C363.49 8.61311 366.83 8.4731 368.95 11.1031C370.122 12.694 370.712 14.6393 370.62 16.6131V19.0131C370.652 20.8279 370.063 22.599 368.95 24.033C368.288 24.7557 367.466 25.3138 366.55 25.663L371.52 40.2631H366.82L362.44 26.6131H359.77V40.2631H355.25V8.62312H361.18V8.61311ZM359.78 22.533H362.36C362.873 22.5555 363.384 22.4751 363.865 22.2965C364.346 22.1178 364.786 21.8447 365.16 21.4931C365.533 21.1276 365.814 20.6784 365.979 20.1828C366.145 19.6872 366.189 19.1595 366.11 18.6431V16.3831C366.142 15.3228 365.771 14.2897 365.07 13.4931C364.666 13.1556 364.195 12.9086 363.688 12.7689C363.181 12.6291 362.649 12.5999 362.13 12.6831H359.78V22.533Z" fill="#00E1BE"/>
<path d="M382.61 8.61316C384.51 8.61316 387.22 8.70318 389.21 10.5132C391.52 12.6332 391.65 15.9831 391.65 17.3331V31.3031C391.65 33.4731 391.42 35.7732 389.62 37.7632C388.795 38.6058 387.801 39.2635 386.703 39.6927C385.604 40.122 384.428 40.3131 383.25 40.2532H376.52V8.61316H382.61ZM381.02 35.8231H383.05C383.602 35.8632 384.157 35.7879 384.679 35.6019C385.2 35.416 385.678 35.1236 386.08 34.7432C386.857 33.6696 387.226 32.3541 387.12 31.0331V17.0231C387.173 15.9742 386.87 14.9383 386.26 14.0831C385.898 13.6756 385.438 13.3664 384.924 13.1846C384.41 13.0027 383.858 12.954 383.32 13.0431H381.01V35.8231H381.02Z" fill="#00E1BE"/>
<path d="M407.78 40.2532L406.29 33.4731H400.5L399.01 40.2532H394.49L401.41 8.61316H405.39L412.31 40.2532H407.78ZM403.3 17.4231L400.95 29.4431H405.74L403.3 17.4231Z" fill="#00E1BE"/>
<path d="M422.69 8.61316C424.59 8.61316 427.3 8.70318 429.29 10.5132C431.59 12.6332 431.73 15.9831 431.73 17.3331V31.3031C431.73 33.4731 431.5 35.7732 429.7 37.7632C428.875 38.6058 427.881 39.2635 426.783 39.6927C425.684 40.122 424.508 40.3131 423.33 40.2532H416.6V8.61316H422.69ZM421.11 35.8231H423.14C423.692 35.8632 424.247 35.7879 424.769 35.6019C425.29 35.416 425.768 35.1236 426.17 34.7432C426.947 33.6696 427.316 32.3541 427.21 31.0331V17.0231C427.263 15.9742 426.96 14.9383 426.35 14.0831C425.988 13.6756 425.528 13.3664 425.014 13.1846C424.5 13.0027 423.948 12.954 423.41 13.0431H421.11V35.8231Z" fill="#00E1BE"/>
<path d="M438.1 8.61316H451.52V12.9031H442.62V22.2131H450.48V26.2831H442.62V35.9531H451.66V40.2432H438.1V8.61316Z" fill="#00E1BE"/>
<path d="M468.74 8.61316H482.16V12.9031H473.26V22.2131H481.12V26.2831H473.26V35.9531H482.3V40.2432H468.74V8.61316ZM472.22 5.72314L474.48 0.973145H479.95L475.16 5.72314H472.22Z" fill="#00E1BE"/>
<path d="M499.2 16.9331C499.2 14.5331 499.38 12.2331 501.55 10.2031C503.106 8.89208 505.075 8.1731 507.11 8.1731C509.145 8.1731 511.114 8.89208 512.67 10.2031C514.84 12.2331 515.02 14.5431 515.02 16.9331V31.9331C515.149 33.3881 514.901 34.8518 514.3 36.1831L517.15 38.4431L514.85 41.2432L512.05 39.0331C511.391 39.6413 510.612 40.1043 509.762 40.392C508.913 40.6797 508.013 40.7857 507.12 40.7031C505.078 40.7436 503.095 40.0196 501.56 38.6731C499.39 36.6431 499.21 34.3331 499.21 31.9431V16.9331H499.2ZM506.16 34.3732L508.46 31.5731L510.49 33.2031V16.2532C510.538 15.752 510.478 15.2461 510.314 14.77C510.151 14.2939 509.887 13.8585 509.54 13.4932C509.213 13.1888 508.829 12.9525 508.41 12.798C507.991 12.6435 507.546 12.5738 507.1 12.5931C506.2 12.5588 505.322 12.8824 504.66 13.4932C504.314 13.8585 504.049 14.2939 503.885 14.77C503.722 15.2461 503.662 15.752 503.71 16.2532V32.6132C503.662 33.1144 503.722 33.6201 503.885 34.0962C504.049 34.5723 504.314 35.0078 504.66 35.3732C504.987 35.6775 505.371 35.9138 505.79 36.0684C506.208 36.2229 506.654 36.2924 507.1 36.2731C507.514 36.285 507.927 36.2241 508.32 36.0931L506.16 34.3732Z" fill="#00E1BE"/>
<path d="M526.63 8.61316V32.6132C526.63 34.7832 527.67 36.2731 529.66 36.2731C531.65 36.2731 532.69 34.7832 532.69 32.6132V8.61316H537.21V31.9331C537.21 38.8931 533.05 40.7031 529.66 40.7031C526.27 40.7031 522.11 38.8931 522.11 31.9331V8.61316H526.63Z" fill="#00E1BE"/>
<path d="M543.76 8.61316H557.18V12.9031H548.28V22.2131H556.14V26.2831H548.28V35.9531H557.32V40.2432H543.76V8.61316Z" fill="#00E1BE"/>
<path d="M567.03 18.0631V22.8131H562.28V18.0631H567.03ZM567.03 35.5032V40.2532H562.28V35.5032H567.03Z" fill="#00E1BE"/>
<path d="M0.309998 79.6532C0.309998 77.2532 0.489973 74.9532 2.65997 72.9232C4.216 71.6122 6.18526 70.8932 8.21997 70.8932C10.2547 70.8932 12.224 71.6122 13.78 72.9232C15.95 74.9532 16.13 77.2632 16.13 79.6532V94.6532C16.13 97.0532 15.95 99.3532 13.78 101.383C12.224 102.694 10.2547 103.413 8.21997 103.413C6.18526 103.413 4.216 102.694 2.65997 101.383C0.489973 99.3532 0.309998 97.0432 0.309998 94.6532V79.6532ZM11.61 78.983C11.6581 78.4818 11.5983 77.9762 11.4344 77.5001C11.2705 77.024 11.0064 76.5884 10.66 76.223C10.3333 75.9187 9.94936 75.6825 9.53046 75.528C9.11155 75.3734 8.66604 75.3038 8.21997 75.3231C7.31965 75.2888 6.44242 75.6123 5.78003 76.223C5.43359 76.5884 5.16949 77.024 5.00562 77.5001C4.84174 77.9762 4.78187 78.4818 4.83002 78.983V95.3431C4.78187 95.8444 4.84174 96.3502 5.00562 96.8263C5.16949 97.3024 5.43359 97.7377 5.78003 98.1031C6.10672 98.4075 6.49064 98.6437 6.90955 98.7982C7.32845 98.9527 7.7739 99.0224 8.21997 99.0031C9.1203 99.0374 9.99758 98.7139 10.66 98.1031C11.0064 97.7377 11.2705 97.3024 11.4344 96.8263C11.5983 96.3502 11.6581 95.8444 11.61 95.3431V78.983Z" fill="white"/>
<path d="M35.87 102.983H31.35V100.723C30.9148 101.36 30.3816 101.923 29.77 102.393C28.8555 103.029 27.764 103.362 26.65 103.343C25.9695 103.378 25.291 103.243 24.675 102.952C24.059 102.661 23.5248 102.221 23.12 101.673C22.4777 100.645 22.1637 99.4445 22.22 98.233V80.5631H26.74V96.4232C26.6701 97.1023 26.8634 97.7823 27.28 98.3231C27.4684 98.5155 27.6943 98.6672 27.9437 98.7687C28.1932 98.8702 28.4608 98.9194 28.73 98.9132C29.0853 98.9159 29.4374 98.8453 29.7643 98.7059C30.0912 98.5666 30.3859 98.3614 30.63 98.1031C30.8878 97.8072 31.0841 97.463 31.2077 97.0905C31.3313 96.7179 31.3797 96.3246 31.35 95.9332V80.5631H35.87V102.983Z" fill="white"/>
<path d="M61 102.983H57.38L51.41 80.5631H56.16L59.19 94.8031H59.42L62.45 80.5631H66.97L61 102.983Z" fill="white"/>
<path d="M70.67 87.7931C70.67 86.0331 70.81 83.5431 72.88 81.7831C74.1985 80.7589 75.8205 80.203 77.49 80.203C79.1595 80.203 80.7815 80.7589 82.1 81.7831C84.18 83.5431 84.31 86.0331 84.31 87.7931V95.743C84.31 97.503 84.17 99.9931 82.1 101.753C80.7815 102.777 79.1595 103.333 77.49 103.333C75.8205 103.333 74.1985 102.777 72.88 101.753C70.8 99.9931 70.67 97.503 70.67 95.743V87.7931ZM79.8 87.5231C79.8556 86.7121 79.6139 85.9087 79.12 85.2631C78.6739 84.8577 78.0927 84.6332 77.49 84.6332C76.8872 84.6332 76.3061 84.8577 75.86 85.2631C75.3661 85.9087 75.1244 86.7121 75.18 87.5231V96.0231C75.1244 96.834 75.3661 97.6375 75.86 98.2831C76.3061 98.6884 76.8872 98.913 77.49 98.913C78.0927 98.913 78.6739 98.6884 79.12 98.2831C79.6139 97.6375 79.8556 96.834 79.8 96.0231V87.5231Z" fill="white"/>
<path d="M99.23 87.3433V87.2532C99.2513 86.6287 99.0764 86.0132 98.73 85.4932C98.5224 85.2119 98.2486 84.9864 97.9328 84.8364C97.6171 84.6864 97.2692 84.6166 96.92 84.6333C96.5877 84.6217 96.2571 84.6848 95.9525 84.8181C95.6479 84.9514 95.377 85.1514 95.16 85.4033C94.6894 86.0241 94.465 86.7969 94.53 87.5732V96.2532C94.5033 96.9278 94.6925 97.5936 95.07 98.1533C95.3003 98.4129 95.5864 98.6169 95.9068 98.7502C96.2271 98.8836 96.5735 98.9429 96.92 98.9233C97.2611 98.9475 97.6031 98.8902 97.9178 98.7563C98.2325 98.6225 98.5108 98.4158 98.73 98.1533C99.0811 97.6168 99.2559 96.9839 99.23 96.3433V96.3032H103.75V96.7131C103.777 97.6793 103.588 98.6394 103.197 99.5234C102.806 100.407 102.223 101.193 101.49 101.823C100.21 102.849 98.6103 103.394 96.97 103.363C95.0484 103.429 93.1791 102.731 91.77 101.423C89.96 99.5733 90.01 97.4034 90.01 95.4534V87.7231C90.01 85.9131 90.19 83.6133 92.09 81.8933C93.374 80.7634 95.0407 80.1659 96.75 80.2231C97.7028 80.1787 98.6548 80.3277 99.5485 80.6611C100.442 80.9945 101.259 81.5056 101.95 82.1633C103.152 83.5721 103.795 85.3719 103.76 87.2231V87.3633H99.23V87.3433Z" fill="white"/>
<path d="M113.02 96.3331C112.981 96.6796 113.014 97.0303 113.115 97.3639C113.216 97.6975 113.385 98.0068 113.61 98.2731C113.837 98.4921 114.107 98.6612 114.403 98.7697C114.7 98.8781 115.015 98.9237 115.33 98.9032C115.689 98.9223 116.047 98.8441 116.366 98.6769C116.684 98.5097 116.952 98.2597 117.14 97.9532C117.407 97.4837 117.548 96.9532 117.55 96.4132H122.07V96.5931C122.144 97.6442 121.95 98.6969 121.508 99.6532C121.066 100.61 120.389 101.439 119.54 102.063C118.302 102.903 116.837 103.346 115.34 103.333C114.371 103.346 113.409 103.161 112.515 102.787C111.62 102.414 110.812 101.861 110.14 101.163C108.94 99.6232 108.358 97.6898 108.51 95.743V87.1532C108.455 86.1426 108.625 85.1323 109.007 84.1952C109.389 83.2581 109.974 82.4172 110.72 81.733C111.977 80.6998 113.563 80.1534 115.19 80.1932C116.903 80.1442 118.575 80.7239 119.89 81.8231C120.674 82.5483 121.285 83.4411 121.676 84.4349C122.067 85.4288 122.229 86.498 122.15 87.5631V93.4432H113.02V96.3331ZM113.33 76.8531H110.75L113.06 71.3431H118.39L120.7 76.8531H118.12L115.72 73.8231L113.33 76.8531ZM117.63 89.963V87.0231C117.653 86.702 117.609 86.3796 117.501 86.0765C117.392 85.7734 117.222 85.4963 117 85.2631C116.547 84.8424 115.948 84.6164 115.33 84.6332C114.998 84.6223 114.667 84.6857 114.363 84.819C114.058 84.9522 113.787 85.1519 113.57 85.4032C113.182 85.9239 112.991 86.5648 113.03 87.213V89.973H117.63V89.963Z" fill="white"/>
<path d="M148.54 100.993H148.49C148.088 101.618 147.565 102.156 146.95 102.573C146.123 103.088 145.165 103.356 144.19 103.343C143.473 103.378 142.758 103.24 142.105 102.941C141.452 102.642 140.881 102.19 140.44 101.623C139.62 100.215 139.257 98.5865 139.4 96.963V85.3031C139.357 84.6146 139.451 83.9245 139.676 83.2723C139.9 82.6202 140.252 82.0189 140.71 81.5031C141.141 81.0594 141.662 80.7131 142.238 80.4872C142.814 80.2613 143.432 80.1611 144.05 80.1932C145.107 80.174 146.146 80.4735 147.03 81.0531C147.597 81.4025 148.101 81.8455 148.52 82.3632V71.3331H153.04V102.973H148.52V100.993H148.54ZM148.54 87.6132C148.577 87.2074 148.533 86.7985 148.409 86.4103C148.285 86.0221 148.085 85.6626 147.82 85.3531C147.598 85.122 147.33 84.9389 147.035 84.8151C146.739 84.6912 146.421 84.6293 146.1 84.6332C145.802 84.6203 145.506 84.6746 145.232 84.7924C144.959 84.9101 144.715 85.0881 144.52 85.3131C144.092 85.815 143.88 86.4656 143.93 87.1232V96.2032C143.879 96.5641 143.905 96.9317 144.007 97.2816C144.109 97.6316 144.284 97.9557 144.52 98.233C144.716 98.4572 144.959 98.6349 145.233 98.7526C145.506 98.8702 145.803 98.9251 146.1 98.9132C146.42 98.9148 146.738 98.8519 147.033 98.7281C147.329 98.6044 147.596 98.4226 147.82 98.1932C148.087 97.8853 148.289 97.5259 148.413 97.1373C148.537 96.7488 148.58 96.3391 148.54 95.9332V87.6132Z" fill="white"/>
<path d="M158.88 87.7931C158.88 86.0331 159.02 83.5431 161.09 81.7831C162.409 80.7589 164.03 80.203 165.7 80.203C167.37 80.203 168.992 80.7589 170.31 81.7831C172.39 83.5431 172.52 86.0331 172.52 87.7931V95.743C172.52 97.503 172.38 99.9931 170.31 101.753C168.992 102.777 167.37 103.333 165.7 103.333C164.03 103.333 162.409 102.777 161.09 101.753C159.01 99.9931 158.88 97.503 158.88 95.743V87.7931ZM168.01 87.5231C168.066 86.7121 167.824 85.9087 167.33 85.2631C166.884 84.8577 166.303 84.6332 165.7 84.6332C165.097 84.6332 164.516 84.8577 164.07 85.2631C163.576 85.9087 163.334 86.7121 163.39 87.5231V96.0231C163.334 96.834 163.576 97.6375 164.07 98.2831C164.516 98.6884 165.097 98.913 165.7 98.913C166.303 98.913 166.884 98.6884 167.33 98.2831C167.824 97.6375 168.066 96.834 168.01 96.0231V87.5231Z" fill="white"/>
<path d="M182.88 80.5632V82.5932C183.29 82.073 183.76 81.6032 184.28 81.1933C185.161 80.5247 186.244 80.1756 187.35 80.2033C188.215 80.1977 189.062 80.4468 189.786 80.9199C190.51 81.3929 191.078 82.069 191.42 82.8632C191.904 82.0314 192.588 81.3336 193.41 80.8332C194.165 80.3944 195.027 80.1762 195.9 80.2033C196.677 80.1291 197.46 80.2566 198.173 80.5737C198.886 80.8908 199.505 81.3865 199.97 82.0131C200.705 83.1717 201.052 84.5343 200.96 85.9033V102.983H196.44V87.1232C196.477 86.4673 196.266 85.8213 195.85 85.3132C195.661 85.091 195.425 84.9146 195.158 84.7968C194.891 84.6791 194.601 84.6231 194.31 84.6332C193.996 84.6232 193.683 84.6824 193.395 84.8068C193.106 84.9313 192.848 85.1179 192.64 85.3532C192.373 85.6612 192.171 86.0205 192.047 86.4091C191.923 86.7977 191.88 87.2074 191.92 87.6132V102.983H187.4V87.1232C187.451 86.4656 187.239 85.8146 186.81 85.3132C186.622 85.0897 186.386 84.9122 186.119 84.7944C185.852 84.6765 185.562 84.6214 185.27 84.6332C184.956 84.6241 184.644 84.6839 184.355 84.8083C184.067 84.9327 183.809 85.1186 183.6 85.3532C183.333 85.6612 183.131 86.0205 183.007 86.4091C182.883 86.7977 182.84 87.2074 182.88 87.6132V102.983H178.36V80.5632H182.88Z" fill="white"/>
<path d="M211.49 71.973V76.4032H206.97V71.973H211.49ZM206.97 80.5631H211.49V102.983H206.97V80.5631Z" fill="white"/>
<path d="M217.5 80.5632H222.02V82.5932C222.516 81.8621 223.182 81.2619 223.96 80.844C224.738 80.426 225.607 80.2029 226.49 80.1933C227.108 80.1631 227.725 80.2642 228.301 80.49C228.876 80.7158 229.398 81.061 229.83 81.5032C230.291 82.0173 230.644 82.6184 230.869 83.271C231.094 83.9236 231.186 84.6145 231.14 85.3032V102.973H226.62V87.1133C226.67 86.4557 226.458 85.8051 226.03 85.3032C225.834 85.079 225.591 84.9016 225.317 84.7839C225.044 84.6662 224.747 84.6114 224.45 84.6233C224.13 84.6217 223.812 84.6846 223.517 84.8083C223.221 84.932 222.954 85.1139 222.73 85.3432C222.463 85.6512 222.261 86.0106 222.137 86.3992C222.013 86.7877 221.97 87.1974 222.01 87.6033V102.973H217.49V80.5632H217.5Z" fill="white"/>
<path d="M246.06 100.763H245.97C245.549 101.413 245.029 101.993 244.43 102.483C243.691 103.081 242.759 103.387 241.81 103.343C240.56 103.399 239.335 102.981 238.38 102.173C236.98 100.863 236.75 98.8331 236.75 97.0231C236.75 95.3931 236.84 92.9532 238.15 91.4232C239.64 89.6632 242.17 89.483 243.48 89.483C244.342 89.4847 245.203 89.5315 246.06 89.6232V87.2731C246.094 86.933 246.059 86.5897 245.958 86.2633C245.856 85.9369 245.691 85.6342 245.47 85.3732C245.235 85.1333 244.953 84.9452 244.641 84.8212C244.33 84.6972 243.995 84.64 243.66 84.6532C243.318 84.6485 242.978 84.7184 242.666 84.8583C242.353 84.9982 242.075 85.2045 241.85 85.463C241.502 85.8701 241.295 86.3789 241.26 86.9132H236.97C236.922 85.1187 237.588 83.3784 238.82 82.0731C240.204 80.8249 242.017 80.1616 243.88 80.223C245.667 80.175 247.403 80.8242 248.72 82.0331C249.367 82.7456 249.865 83.5813 250.183 84.4901C250.501 85.3989 250.632 86.3624 250.57 87.3231V103.003H246.05V100.763H246.06ZM246.06 93.213C245.538 93.1235 245.01 93.0768 244.48 93.0731C244.014 93.0343 243.546 93.0993 243.108 93.2636C242.671 93.4278 242.275 93.6873 241.95 94.0231C241.452 94.7013 241.212 95.5341 241.27 96.3732C241.241 97.0201 241.397 97.6616 241.72 98.223C241.897 98.5462 242.159 98.8144 242.479 98.9979C242.798 99.1814 243.162 99.2732 243.53 99.2631C244.89 99.2631 246.06 98.3632 246.06 96.3732V93.213Z" fill="white"/>
<path d="M277.33 87.3433V87.2532C277.351 86.6287 277.176 86.0132 276.83 85.4932C276.622 85.2119 276.349 84.9864 276.033 84.8364C275.717 84.6864 275.369 84.6166 275.02 84.6333C274.688 84.6217 274.357 84.6848 274.052 84.8181C273.748 84.9514 273.477 85.1514 273.26 85.4033C272.789 86.0241 272.565 86.7969 272.63 87.5732V96.2532C272.603 96.9278 272.792 97.5936 273.17 98.1533C273.4 98.4129 273.686 98.6169 274.007 98.7502C274.327 98.8836 274.674 98.9429 275.02 98.9233C275.361 98.9475 275.703 98.8902 276.018 98.7563C276.332 98.6225 276.611 98.4158 276.83 98.1533C277.181 97.6168 277.356 96.9839 277.33 96.3433V96.3032H281.85V96.7131C281.877 97.6793 281.688 98.6394 281.297 99.5234C280.906 100.407 280.323 101.193 279.59 101.823C278.31 102.849 276.71 103.394 275.07 103.363C273.148 103.429 271.279 102.731 269.87 101.423C268.06 99.5733 268.11 97.4034 268.11 95.4534V87.7231C268.11 85.9131 268.29 83.6133 270.19 81.8933C271.471 80.765 273.134 80.1676 274.84 80.2231C275.793 80.1787 276.745 80.3277 277.639 80.6611C278.532 80.9945 279.349 81.5056 280.04 82.1633C281.242 83.5721 281.885 85.3719 281.85 87.2231V87.3633H277.33V87.3433Z" fill="white"/>
<path d="M286.6 87.7931C286.6 86.0331 286.74 83.5431 288.81 81.7831C290.128 80.7589 291.75 80.203 293.42 80.203C295.09 80.203 296.712 80.7589 298.03 81.7831C300.11 83.5431 300.24 86.0331 300.24 87.7931V95.743C300.24 97.503 300.1 99.9931 298.03 101.753C296.712 102.777 295.09 103.333 293.42 103.333C291.75 103.333 290.128 102.777 288.81 101.753C286.73 99.9931 286.6 97.503 286.6 95.743V87.7931ZM295.73 87.5231C295.786 86.7121 295.544 85.9087 295.05 85.2631C294.604 84.8577 294.023 84.6332 293.42 84.6332C292.817 84.6332 292.236 84.8577 291.79 85.2631C291.296 85.9087 291.054 86.7121 291.11 87.5231V96.0231C291.054 96.834 291.296 97.6375 291.79 98.2831C292.236 98.6884 292.817 98.913 293.42 98.913C294.023 98.913 294.604 98.6884 295.05 98.2831C295.544 97.6375 295.786 96.834 295.73 96.0231V87.5231Z" fill="white"/>
<path d="M310.59 80.5632V82.5932C311 82.073 311.47 81.6032 311.99 81.1933C312.871 80.5247 313.954 80.1756 315.06 80.2033C315.925 80.1977 316.772 80.4468 317.496 80.9199C318.22 81.3929 318.788 82.069 319.13 82.8632C319.614 82.0314 320.298 81.3336 321.12 80.8332C321.875 80.3944 322.737 80.1762 323.61 80.2033C324.387 80.1291 325.17 80.2566 325.883 80.5737C326.596 80.8908 327.215 81.3865 327.68 82.0131C328.415 83.1717 328.762 84.5343 328.67 85.9033V102.983H324.15V87.1232C324.187 86.4673 323.976 85.8213 323.56 85.3132C323.371 85.091 323.135 84.9146 322.868 84.7968C322.601 84.6791 322.311 84.6231 322.02 84.6332C321.706 84.6232 321.393 84.6824 321.105 84.8068C320.816 84.9313 320.558 85.1179 320.35 85.3532C320.083 85.6612 319.881 86.0205 319.757 86.4091C319.633 86.7977 319.59 87.2074 319.63 87.6132V102.983H315.11V87.1232C315.161 86.4656 314.949 85.8146 314.52 85.3132C314.332 85.0897 314.096 84.9122 313.829 84.7944C313.562 84.6765 313.272 84.6214 312.98 84.6332C312.666 84.6241 312.354 84.6839 312.065 84.8083C311.777 84.9327 311.519 85.1186 311.31 85.3532C311.043 85.6612 310.841 86.0205 310.717 86.4091C310.593 86.7977 310.55 87.2074 310.59 87.6132V102.983H306.07V80.5632H310.59Z" fill="white"/>
<path d="M334.5 87.7931C334.5 86.0331 334.64 83.5431 336.71 81.7831C338.029 80.7589 339.65 80.203 341.32 80.203C342.99 80.203 344.612 80.7589 345.93 81.7831C348.01 83.5431 348.14 86.0331 348.14 87.7931V95.743C348.14 97.503 348 99.9931 345.93 101.753C344.612 102.777 342.99 103.333 341.32 103.333C339.65 103.333 338.029 102.777 336.71 101.753C334.63 99.9931 334.5 97.503 334.5 95.743V87.7931ZM343.63 87.5231C343.686 86.7121 343.444 85.9087 342.95 85.2631C342.504 84.8577 341.923 84.6332 341.32 84.6332C340.717 84.6332 340.136 84.8577 339.69 85.2631C339.196 85.9087 338.954 86.7121 339.01 87.5231V96.0231C338.954 96.834 339.196 97.6375 339.69 98.2831C340.136 98.6884 340.717 98.913 341.32 98.913C341.923 98.913 342.504 98.6884 342.95 98.2831C343.444 97.6375 343.686 96.834 343.63 96.0231V87.5231Z" fill="white"/>
<path d="M374.72 87.3433V87.2532C374.741 86.6287 374.566 86.0132 374.22 85.4932C374.012 85.2119 373.739 84.9864 373.423 84.8364C373.107 84.6864 372.759 84.6166 372.41 84.6333C372.078 84.6217 371.747 84.6848 371.442 84.8181C371.138 84.9514 370.867 85.1514 370.65 85.4033C370.179 86.0241 369.955 86.7969 370.02 87.5732V96.2532C369.993 96.9278 370.182 97.5936 370.56 98.1533C370.79 98.4129 371.076 98.6169 371.397 98.7502C371.717 98.8836 372.064 98.9429 372.41 98.9233C372.751 98.9475 373.093 98.8902 373.408 98.7563C373.722 98.6225 374.001 98.4158 374.22 98.1533C374.571 97.6168 374.746 96.9839 374.72 96.3433V96.3032H379.24V96.7131C379.267 97.6793 379.078 98.6394 378.687 99.5234C378.296 100.407 377.713 101.193 376.98 101.823C375.7 102.849 374.1 103.394 372.46 103.363C370.538 103.429 368.669 102.731 367.26 101.423C365.45 99.5733 365.5 97.4034 365.5 95.4534V87.7231C365.5 85.9131 365.68 83.6133 367.58 81.8933C368.864 80.7634 370.531 80.1659 372.24 80.2231C373.193 80.1787 374.145 80.3277 375.039 80.6611C375.932 80.9945 376.749 81.5056 377.44 82.1633C378.642 83.5721 379.285 85.3719 379.25 87.2231V87.3633H374.72V87.3433Z" fill="white"/>
<path d="M388.68 80.5632V82.9631L388.77 83.0031C389.482 82.1201 390.384 81.4096 391.409 80.9247C392.434 80.4398 393.556 80.1933 394.69 80.2033V85.0431C392.52 84.6831 388.68 85.2232 388.68 90.1532V102.993H384.16V80.5732H388.68V80.5632Z" fill="white"/>
<path d="M403.24 71.973V76.4032H398.72V71.973H403.24ZM398.72 80.5631H403.24V102.983H398.72V80.5631Z" fill="white"/>
<path d="M418.15 100.763H418.06C417.639 101.413 417.119 101.993 416.52 102.483C415.781 103.081 414.849 103.387 413.9 103.343C412.65 103.399 411.425 102.981 410.47 102.173C409.07 100.863 408.84 98.8331 408.84 97.0231C408.84 95.3931 408.93 92.9532 410.24 91.4232C411.73 89.6632 414.26 89.483 415.57 89.483C416.432 89.4849 417.293 89.5317 418.15 89.6232V87.2731C418.182 86.9331 418.146 86.5903 418.044 86.2643C417.943 85.9382 417.779 85.6355 417.56 85.3732C417.325 85.1333 417.043 84.9452 416.731 84.8212C416.42 84.6972 416.085 84.64 415.75 84.6532C415.408 84.6485 415.068 84.7184 414.756 84.8583C414.443 84.9982 414.165 85.2045 413.94 85.463C413.592 85.8701 413.385 86.3789 413.35 86.9132H409.06C409.012 85.1187 409.678 83.3784 410.91 82.0731C412.294 80.8249 414.107 80.1616 415.97 80.223C417.757 80.175 419.493 80.8242 420.81 82.0331C421.457 82.7456 421.955 83.5813 422.273 84.4901C422.591 85.3989 422.722 86.3624 422.66 87.3231V103.003H418.14V100.763H418.15ZM418.15 93.213C417.628 93.1235 417.1 93.0768 416.57 93.0731C416.104 93.0343 415.636 93.0993 415.198 93.2636C414.761 93.4278 414.365 93.6873 414.04 94.0231C413.542 94.7013 413.301 95.5341 413.36 96.3732C413.331 97.0201 413.487 97.6616 413.81 98.223C413.987 98.5462 414.249 98.8144 414.569 98.9979C414.888 99.1814 415.252 99.2732 415.62 99.2631C416.98 99.2631 418.15 98.3632 418.15 96.3732V93.213Z" fill="white"/>
<path d="M433.2 80.5632V82.9631L433.29 83.0031C434.002 82.1201 434.904 81.4096 435.929 80.9247C436.954 80.4398 438.076 80.1933 439.21 80.2033V85.0431C437.04 84.6831 433.2 85.2232 433.2 90.1532V102.993H428.68V80.5732H433.2V80.5632Z" fill="white"/>
<path d="M468.54 102.983H464.02V100.723C463.585 101.36 463.052 101.923 462.44 102.393C461.525 103.029 460.434 103.362 459.32 103.343C458.639 103.378 457.961 103.243 457.345 102.952C456.729 102.661 456.195 102.221 455.79 101.673C455.148 100.645 454.834 99.4445 454.89 98.233V80.5631H459.41V96.4232C459.345 97.1019 459.538 97.7801 459.95 98.3231C460.138 98.5155 460.364 98.6672 460.614 98.7687C460.863 98.8702 461.131 98.9194 461.4 98.9132C461.755 98.9159 462.107 98.8453 462.434 98.7059C462.761 98.5666 463.056 98.3614 463.3 98.1031C463.558 97.8072 463.754 97.463 463.878 97.0905C464.001 96.7179 464.05 96.3246 464.02 95.9332V80.5631H468.54V102.983Z" fill="white"/>
<path d="M479.07 80.5632V82.5932C479.48 82.073 479.95 81.6032 480.47 81.1933C481.351 80.5247 482.434 80.1756 483.54 80.2033C484.405 80.1977 485.252 80.4468 485.976 80.9199C486.7 81.3929 487.268 82.069 487.61 82.8632C488.094 82.0314 488.778 81.3336 489.6 80.8332C490.355 80.3944 491.217 80.1762 492.09 80.2033C492.867 80.1291 493.65 80.2566 494.363 80.5737C495.076 80.8908 495.695 81.3865 496.16 82.0131C496.895 83.1717 497.242 84.5343 497.15 85.9033V102.983H492.63V87.1232C492.667 86.4673 492.457 85.8213 492.04 85.3132C491.851 85.091 491.615 84.9143 491.348 84.7966C491.081 84.6788 490.791 84.623 490.5 84.6332C490.186 84.6232 489.873 84.6824 489.585 84.8068C489.296 84.9313 489.038 85.1179 488.83 85.3532C488.563 85.6612 488.361 86.0205 488.237 86.4091C488.113 86.7977 488.07 87.2074 488.11 87.6132V102.983H483.59V87.1232C483.617 86.7974 483.579 86.4693 483.478 86.1584C483.377 85.8475 483.214 85.5602 483 85.3132C482.812 85.0898 482.576 84.9122 482.309 84.7944C482.042 84.6765 481.752 84.6215 481.46 84.6332C481.146 84.6241 480.834 84.6839 480.545 84.8083C480.257 84.9327 479.999 85.1186 479.79 85.3532C479.523 85.6612 479.321 86.0205 479.197 86.4091C479.073 86.7977 479.03 87.2074 479.07 87.6132V102.983H474.55V80.5632H479.07Z" fill="white"/>
<path d="M514.81 80.5632H519.33V82.5932C519.826 81.8621 520.492 81.2619 521.27 80.844C522.049 80.426 522.917 80.2029 523.8 80.1933C524.418 80.1631 525.035 80.2642 525.61 80.49C526.186 80.7158 526.708 81.061 527.14 81.5032C527.599 82.0186 527.95 82.62 528.175 83.2722C528.4 83.9244 528.493 84.6147 528.45 85.3032V102.973H523.93V87.1133C523.957 86.7875 523.918 86.4597 523.817 86.1489C523.716 85.8381 523.554 85.5506 523.34 85.3032C523.144 85.079 522.901 84.9016 522.627 84.7839C522.354 84.6662 522.057 84.6114 521.76 84.6233C521.44 84.6217 521.122 84.6846 520.827 84.8083C520.531 84.932 520.264 85.1139 520.04 85.3432C519.773 85.6512 519.571 86.0106 519.447 86.3992C519.323 86.7877 519.28 87.1974 519.32 87.6033V102.973H514.8V80.5632H514.81Z" fill="white"/>
<path d="M538.81 96.3331C538.769 96.6797 538.8 97.0309 538.902 97.3648C539.003 97.6987 539.173 98.008 539.4 98.273C539.627 98.492 539.897 98.6611 540.194 98.7696C540.49 98.8781 540.805 98.9237 541.12 98.9031C541.479 98.9222 541.837 98.844 542.156 98.6768C542.474 98.5096 542.742 98.2597 542.93 97.9532C543.197 97.4836 543.338 96.9532 543.34 96.4132H547.86V96.5931C547.934 97.6442 547.74 98.6968 547.298 99.6531C546.856 100.609 546.179 101.438 545.33 102.063C544.092 102.903 542.627 103.346 541.13 103.333C540.161 103.346 539.199 103.161 538.305 102.787C537.411 102.414 536.602 101.861 535.93 101.163C534.73 99.6231 534.148 97.6897 534.3 95.743V87.1531C534.245 86.1426 534.415 85.1323 534.797 84.1951C535.179 83.258 535.764 82.4171 536.51 81.733C537.767 80.6998 539.353 80.1534 540.98 80.1932C542.693 80.1441 544.365 80.7238 545.68 81.8231C546.464 82.5482 547.075 83.4411 547.466 84.4349C547.857 85.4287 548.019 86.4979 547.94 87.5631V93.4432H538.81V96.3331ZM543.42 89.963V87.023C543.444 86.702 543.4 86.3796 543.291 86.0765C543.183 85.7734 543.012 85.4963 542.79 85.263C542.337 84.8424 541.738 84.6163 541.12 84.6331C540.788 84.6223 540.457 84.6857 540.153 84.8189C539.848 84.9521 539.578 85.1518 539.36 85.4031C538.972 85.9238 538.781 86.5648 538.82 87.213V89.973H543.42V89.963Z" fill="white"/>
<path d="M567.01 80.5631V105.063C567.097 106.022 566.99 106.988 566.695 107.904C566.399 108.82 565.921 109.667 565.29 110.393C564.615 111.079 563.803 111.614 562.907 111.964C562.011 112.314 561.051 112.47 560.09 112.423C559.152 112.469 558.215 112.306 557.347 111.946C556.479 111.587 555.701 111.039 555.07 110.343C554.027 109.006 553.426 107.377 553.35 105.683H557.87C557.853 105.987 557.897 106.291 557.998 106.577C558.099 106.864 558.256 107.128 558.46 107.353C558.678 107.57 558.94 107.738 559.228 107.847C559.515 107.955 559.823 108.002 560.13 107.983C560.486 108.005 560.841 107.938 561.164 107.788C561.487 107.638 561.768 107.409 561.98 107.123C562.373 106.387 562.546 105.554 562.48 104.723V100.923C562.061 101.441 561.557 101.884 560.99 102.233C560.106 102.813 559.067 103.112 558.01 103.093C557.392 103.125 556.774 103.025 556.198 102.799C555.622 102.573 555.101 102.227 554.67 101.783C554.211 101.268 553.859 100.667 553.635 100.014C553.41 99.362 553.316 98.6716 553.36 97.983V86.5531C553.212 84.9293 553.576 83.3 554.4 81.8932C554.841 81.3267 555.412 80.8747 556.065 80.5753C556.718 80.276 557.433 80.138 558.15 80.1732C559.124 80.1638 560.081 80.4308 560.91 80.9432C561.52 81.3662 562.043 81.9024 562.45 82.5231H562.49V80.5331H567.01V80.5631ZM562.49 87.6132C562.53 87.2073 562.487 86.7976 562.363 86.4091C562.239 86.0205 562.037 85.6611 561.77 85.3532C561.548 85.122 561.28 84.9389 560.985 84.8151C560.689 84.6912 560.371 84.6293 560.05 84.6332C559.753 84.6226 559.457 84.6782 559.184 84.7958C558.91 84.9134 558.667 85.09 558.47 85.3131C558.019 85.8887 557.808 86.6158 557.88 87.3431V96.2033C557.845 96.8589 558.055 97.5039 558.47 98.0131C558.667 98.2362 558.91 98.4131 559.184 98.5306C559.457 98.6482 559.753 98.7038 560.05 98.6932C560.37 98.6948 560.688 98.6319 560.983 98.5082C561.279 98.3845 561.546 98.2024 561.77 97.973C562.037 97.665 562.239 97.3059 562.363 96.9174C562.487 96.5288 562.53 96.1189 562.49 95.713V87.6132Z" fill="white"/>
<path d="M572.84 87.7931C572.84 86.0331 572.98 83.5431 575.05 81.7831C576.369 80.7589 577.991 80.203 579.66 80.203C581.33 80.203 582.952 80.7589 584.27 81.7831C586.35 83.5431 586.48 86.0331 586.48 87.7931V95.743C586.48 97.503 586.34 99.9931 584.27 101.753C582.952 102.777 581.33 103.333 579.66 103.333C577.991 103.333 576.369 102.777 575.05 101.753C572.97 99.9931 572.84 97.503 572.84 95.743V87.7931ZM577.36 76.8531L579.35 71.3431H584.19L579.94 76.8531H577.36ZM581.97 87.5231C582.026 86.7121 581.784 85.9087 581.29 85.2631C580.844 84.8577 580.263 84.6332 579.66 84.6332C579.057 84.6332 578.476 84.8577 578.03 85.2631C577.536 85.9087 577.294 86.7121 577.35 87.5231V96.0231C577.294 96.834 577.536 97.6375 578.03 98.2831C578.476 98.6884 579.057 98.913 579.66 98.913C580.263 98.913 580.844 98.6884 581.29 98.2831C581.784 97.6375 582.026 96.834 581.97 96.0231V87.5231Z" fill="white"/>
<path d="M601.4 87.343V87.2529C601.421 86.6284 601.247 86.0129 600.9 85.4929C600.692 85.2117 600.419 84.9862 600.103 84.8362C599.787 84.6862 599.439 84.6164 599.09 84.6331C598.758 84.6215 598.427 84.6846 598.122 84.8179C597.818 84.9511 597.547 85.1512 597.33 85.4031C596.859 86.0239 596.635 86.7967 596.7 87.573V96.2529C596.673 96.9276 596.862 97.5933 597.24 98.1531C597.47 98.4127 597.756 98.6167 598.077 98.75C598.397 98.8834 598.744 98.9426 599.09 98.9231C599.431 98.9473 599.773 98.89 600.088 98.7561C600.402 98.6222 600.681 98.4156 600.9 98.1531C601.251 97.6165 601.426 96.9837 601.4 96.343V96.303H605.92V96.7129C605.947 97.6791 605.758 98.6392 605.367 99.5232C604.976 100.407 604.393 101.193 603.66 101.823C602.38 102.849 600.78 103.394 599.14 103.363C597.218 103.429 595.349 102.731 593.94 101.423C592.13 99.5731 592.18 97.4031 592.18 95.4531V87.7229C592.18 85.9129 592.36 83.6131 594.26 81.8931C595.544 80.7632 597.211 80.1657 598.92 80.2229C599.873 80.1784 600.825 80.3275 601.719 80.6609C602.612 80.9943 603.429 81.5053 604.12 82.1631C605.322 83.5718 605.966 85.3717 605.93 87.2229V87.363H601.4V87.343Z" fill="white"/>
<path d="M615.37 71.973V76.4032H610.85V71.973H615.37ZM610.85 80.5631H615.37V102.983H610.85V80.5631Z" fill="white"/>
<path d="M621.19 87.7931C621.19 86.0331 621.33 83.5431 623.4 81.7831C624.719 80.7589 626.34 80.203 628.01 80.203C629.68 80.203 631.302 80.7589 632.62 81.7831C634.7 83.5431 634.83 86.0331 634.83 87.7931V95.743C634.83 97.503 634.69 99.9931 632.62 101.753C631.302 102.777 629.68 103.333 628.01 103.333C626.34 103.333 624.719 102.777 623.4 101.753C621.32 99.9931 621.19 97.503 621.19 95.743V87.7931ZM630.32 87.5231C630.376 86.7121 630.134 85.9087 629.64 85.2631C629.194 84.8577 628.613 84.6332 628.01 84.6332C627.407 84.6332 626.826 84.8577 626.38 85.2631C625.886 85.9087 625.644 86.7121 625.7 87.5231V96.0231C625.644 96.834 625.886 97.6375 626.38 98.2831C626.826 98.6884 627.407 98.913 628.01 98.913C628.613 98.913 629.194 98.6884 629.64 98.2831C630.134 97.6375 630.376 96.834 630.32 96.0231V87.5231Z" fill="white"/>
<path d="M652.33 102.983V71.3431H656.85V82.3732C657.269 81.8555 657.773 81.4125 658.34 81.0631C659.224 80.4836 660.263 80.1841 661.32 80.2032C661.938 80.1711 662.556 80.2713 663.132 80.4972C663.708 80.7231 664.229 81.0694 664.66 81.5131C665.119 82.0285 665.47 82.6299 665.695 83.2821C665.92 83.9343 666.014 84.6246 665.97 85.3131V96.973C666.118 98.5968 665.754 100.226 664.93 101.633C664.489 102.2 663.918 102.652 663.265 102.951C662.612 103.25 661.897 103.388 661.18 103.353C660.206 103.363 659.249 103.096 658.42 102.583C657.81 102.16 657.287 101.624 656.88 101.003H656.83V102.993H652.33V102.983ZM656.85 95.9232C656.813 96.3289 656.857 96.7379 656.981 97.1261C657.105 97.5143 657.305 97.8738 657.57 98.1832C657.792 98.4144 658.06 98.5975 658.355 98.7213C658.651 98.8451 658.969 98.9071 659.29 98.9032C659.588 98.9161 659.884 98.8615 660.158 98.7438C660.431 98.626 660.675 98.448 660.87 98.223C661.106 97.9454 661.28 97.621 661.382 97.2711C661.484 96.9213 661.51 96.5541 661.46 96.1932V87.1132C661.487 86.7874 661.448 86.4596 661.347 86.1488C661.246 85.838 661.084 85.5505 660.87 85.3031C660.674 85.0789 660.431 84.9015 660.157 84.7838C659.884 84.6661 659.587 84.6113 659.29 84.6232C658.97 84.6216 658.652 84.6845 658.357 84.8082C658.061 84.9319 657.794 85.1138 657.57 85.3431C657.303 85.6511 657.101 86.0105 656.977 86.399C656.853 86.7876 656.81 87.1973 656.85 87.6031V95.9232Z" fill="white"/>
<path d="M680.89 100.763H680.8C680.379 101.413 679.859 101.993 679.26 102.483C678.521 103.081 677.589 103.387 676.64 103.343C675.39 103.399 674.165 102.981 673.21 102.173C671.81 100.863 671.58 98.8331 671.58 97.0231C671.58 95.3931 671.67 92.9532 672.98 91.4232C674.47 89.6632 677 89.483 678.31 89.483C679.172 89.4849 680.033 89.5317 680.89 89.6232V87.2731C680.953 86.5866 680.741 85.9032 680.3 85.3732C680.065 85.1333 679.783 84.9452 679.471 84.8212C679.16 84.6972 678.825 84.64 678.49 84.6532C678.148 84.6485 677.808 84.7184 677.496 84.8583C677.183 84.9982 676.905 85.2045 676.68 85.463C676.332 85.8701 676.125 86.3789 676.09 86.9132H671.8C671.752 85.1187 672.418 83.3784 673.65 82.0731C675.034 80.8249 676.847 80.1616 678.71 80.223C680.497 80.175 682.233 80.8242 683.55 82.0331C684.198 82.7456 684.695 83.5813 685.013 84.4901C685.331 85.3989 685.462 86.3624 685.4 87.3231V103.003H680.88V100.763H680.89ZM680.89 93.213C680.368 93.1235 679.84 93.0768 679.31 93.0731C678.844 93.0343 678.376 93.0993 677.938 93.2636C677.501 93.4278 677.105 93.6873 676.78 94.0231C676.283 94.7013 676.042 95.5341 676.1 96.3732C676.071 97.0201 676.227 97.6616 676.55 98.223C676.727 98.5462 676.989 98.8144 677.309 98.9979C677.628 99.1814 677.992 99.2732 678.36 99.2631C679.72 99.2631 680.89 98.3632 680.89 96.3732V93.213Z" fill="white"/>
<path d="M699.74 86.6132C699.715 86.0062 699.474 85.428 699.06 84.9831C698.841 84.7816 698.584 84.6259 698.304 84.5246C698.024 84.4233 697.727 84.3787 697.43 84.3933C697.132 84.379 696.834 84.4279 696.556 84.5371C696.278 84.6463 696.026 84.8133 695.817 85.0268C695.609 85.2403 695.447 85.4957 695.344 85.7761C695.241 86.0564 695.199 86.3554 695.22 86.6533C695.213 87.172 695.371 87.6794 695.67 88.1032C696.13 88.6588 696.741 89.0687 697.43 89.2832L700.14 90.4133C701.266 90.8902 702.258 91.6351 703.03 92.5832C703.845 93.793 704.242 95.2367 704.16 96.6933C704.187 98.2754 703.676 99.8196 702.71 101.073C702.036 101.849 701.191 102.457 700.242 102.849C699.292 103.242 698.265 103.407 697.24 103.333C696.275 103.397 695.307 103.252 694.403 102.909C693.499 102.565 692.679 102.031 692 101.343C690.896 100.044 690.302 98.3879 690.33 96.6833H694.85C694.835 97.3086 695.045 97.9185 695.44 98.4033C695.944 98.8673 696.605 99.1244 697.29 99.1232C697.622 99.131 697.951 99.0661 698.255 98.9331C698.559 98.8 698.831 98.6022 699.05 98.3532C699.473 97.8487 699.684 97.2001 699.64 96.5432C699.64 95.3732 699.28 94.5133 697.38 93.6933L694.71 92.5632C693.639 92.1604 692.68 91.5093 691.91 90.6633C691.072 89.5777 690.641 88.2334 690.69 86.8632C690.605 85.0833 691.202 83.3379 692.36 81.9831C693.001 81.3684 693.761 80.891 694.594 80.5798C695.426 80.2686 696.313 80.1304 697.2 80.1733C700.05 80.1733 701.67 81.1631 702.44 81.9831C703.579 83.2452 704.194 84.8937 704.16 86.5932H699.74V86.6132Z" fill="white"/>
<path d="M713.66 96.3331C713.619 96.6797 713.65 97.0309 713.752 97.3648C713.853 97.6987 714.023 98.008 714.25 98.273C714.477 98.492 714.747 98.6611 715.043 98.7696C715.34 98.8781 715.655 98.9237 715.97 98.9031C716.329 98.9222 716.687 98.844 717.006 98.6768C717.324 98.5096 717.592 98.2597 717.78 97.9532C718.047 97.4836 718.188 96.9532 718.19 96.4132H722.71V96.5931C722.784 97.6442 722.59 98.6968 722.148 99.6531C721.706 100.609 721.029 101.438 720.18 102.063C718.942 102.903 717.477 103.346 715.98 103.333C715.011 103.346 714.049 103.161 713.155 102.787C712.261 102.414 711.452 101.861 710.78 101.163C709.58 99.6231 708.998 97.6897 709.15 95.743V87.1531C709.095 86.1426 709.265 85.1323 709.647 84.1951C710.029 83.258 710.614 82.4171 711.36 81.733C712.617 80.6998 714.203 80.1534 715.83 80.1932C717.543 80.1441 719.215 80.7238 720.53 81.8231C721.314 82.5482 721.925 83.4411 722.316 84.4349C722.707 85.4287 722.869 86.4979 722.79 87.5631V93.4432H713.66V96.3331ZM718.27 89.963V87.023C718.293 86.702 718.25 86.3796 718.141 86.0765C718.033 85.7734 717.862 85.4963 717.64 85.263C717.187 84.8424 716.588 84.6163 715.97 84.6331C715.638 84.6223 715.307 84.6857 715.003 84.8189C714.698 84.9521 714.427 85.1518 714.21 85.4031C713.822 85.9238 713.631 86.5648 713.67 87.213V89.973H718.27V89.963Z" fill="white"/>
<path d="M737.29 100.763H737.2C736.779 101.413 736.26 101.993 735.66 102.483C734.921 103.081 733.989 103.387 733.04 103.343C731.79 103.399 730.565 102.981 729.61 102.173C728.21 100.863 727.98 98.8331 727.98 97.0231C727.98 95.3931 728.07 92.9532 729.38 91.4232C730.87 89.6632 733.4 89.483 734.71 89.483C735.572 89.4849 736.433 89.5317 737.29 89.6232V87.2731C737.353 86.5866 737.141 85.9032 736.7 85.3732C736.465 85.1333 736.183 84.9452 735.871 84.8212C735.56 84.6972 735.225 84.64 734.89 84.6532C734.548 84.6485 734.208 84.7184 733.896 84.8583C733.583 84.9982 733.305 85.2045 733.08 85.463C732.732 85.8701 732.525 86.3789 732.49 86.9132H728.2C728.152 85.1187 728.818 83.3784 730.05 82.0731C731.434 80.8249 733.247 80.1616 735.11 80.223C736.897 80.175 738.633 80.8242 739.95 82.0331C740.597 82.7456 741.095 83.5813 741.413 84.4901C741.731 85.3989 741.862 86.3624 741.8 87.3231V103.003H737.28V100.763H737.29ZM737.29 93.213C736.768 93.1235 736.24 93.0768 735.71 93.0731C735.244 93.0343 734.776 93.0993 734.338 93.2636C733.901 93.4278 733.505 93.6873 733.18 94.0231C732.683 94.7013 732.442 95.5341 732.5 96.3732C732.471 97.0201 732.627 97.6616 732.95 98.223C733.127 98.5462 733.389 98.8144 733.708 98.9979C734.028 99.1814 734.392 99.2732 734.76 99.2631C736.12 99.2631 737.29 98.3632 737.29 96.3732V93.213Z" fill="white"/>
<path d="M756.95 100.993H756.91C756.508 101.618 755.985 102.156 755.37 102.573C754.542 103.088 753.585 103.356 752.61 103.343C751.893 103.378 751.178 103.24 750.525 102.941C749.872 102.642 749.301 102.19 748.86 101.623C748.036 100.216 747.672 98.5868 747.82 96.963V85.3031C747.777 84.6146 747.871 83.9245 748.096 83.2723C748.321 82.6202 748.672 82.0189 749.13 81.5031C749.561 81.0594 750.082 80.7131 750.658 80.4872C751.234 80.2613 751.852 80.1611 752.47 80.1932C753.527 80.174 754.566 80.4735 755.45 81.0531C756.017 81.4025 756.521 81.8455 756.94 82.3632V71.3331H761.46V102.973H756.94V100.993H756.95ZM756.95 87.6132C756.99 87.2073 756.947 86.7976 756.823 86.4091C756.699 86.0205 756.497 85.6611 756.23 85.3531C756.008 85.122 755.74 84.9389 755.445 84.8151C755.149 84.6912 754.831 84.6293 754.51 84.6332C754.213 84.6213 753.916 84.6761 753.643 84.7938C753.369 84.9115 753.126 85.0889 752.93 85.3131C752.502 85.815 752.29 86.4656 752.34 87.1232V96.2032C752.289 96.5641 752.315 96.9317 752.417 97.2816C752.519 97.6316 752.694 97.9557 752.93 98.233C753.126 98.4572 753.369 98.6349 753.643 98.7526C753.916 98.8702 754.213 98.9251 754.51 98.9132C754.83 98.9148 755.148 98.8519 755.443 98.7281C755.739 98.6044 756.006 98.4226 756.23 98.1932C756.497 97.8853 756.699 97.5259 756.823 97.1373C756.947 96.7488 756.99 96.3391 756.95 95.9332V87.6132Z" fill="white"/>
<path d="M767.3 87.7931C767.3 86.0331 767.44 83.5431 769.51 81.7831C770.829 80.7589 772.45 80.203 774.12 80.203C775.79 80.203 777.411 80.7589 778.73 81.7831C780.81 83.5431 780.94 86.0331 780.94 87.7931V95.743C780.94 97.503 780.8 99.9931 778.73 101.753C777.411 102.777 775.79 103.333 774.12 103.333C772.45 103.333 770.829 102.777 769.51 101.753C767.43 99.9931 767.3 97.503 767.3 95.743V87.7931ZM776.43 87.5231C776.486 86.7121 776.244 85.9087 775.75 85.2631C775.304 84.8577 774.723 84.6332 774.12 84.6332C773.517 84.6332 772.936 84.8577 772.49 85.2631C771.996 85.9087 771.754 86.7121 771.81 87.5231V96.0231C771.754 96.834 771.996 97.6375 772.49 98.2831C772.936 98.6884 773.517 98.913 774.12 98.913C774.723 98.913 775.304 98.6884 775.75 98.2831C776.244 97.6375 776.486 96.834 776.43 96.0231V87.5231Z" fill="white"/>
<path d="M802.78 96.3331C802.739 96.6797 802.77 97.0309 802.872 97.3648C802.973 97.6987 803.143 98.008 803.37 98.273C803.597 98.492 803.867 98.6611 804.163 98.7696C804.46 98.8781 804.775 98.9237 805.09 98.9031C805.449 98.9222 805.807 98.844 806.126 98.6768C806.444 98.5096 806.712 98.2597 806.9 97.9532C807.167 97.4836 807.308 96.9532 807.31 96.4132H811.83V96.5931C811.904 97.6442 811.71 98.6968 811.268 99.6531C810.826 100.609 810.149 101.438 809.3 102.063C808.062 102.903 806.597 103.346 805.1 103.333C804.131 103.346 803.169 103.161 802.275 102.787C801.381 102.414 800.572 101.861 799.9 101.163C798.7 99.6231 798.118 97.6897 798.27 95.743V87.1531C798.215 86.1426 798.385 85.1323 798.767 84.1951C799.149 83.258 799.734 82.4171 800.48 81.733C801.737 80.6998 803.323 80.1534 804.95 80.1932C806.663 80.1441 808.335 80.7238 809.65 81.8231C810.434 82.5482 811.045 83.4411 811.436 84.4349C811.827 85.4287 811.989 86.4979 811.91 87.5631V93.4432H802.78V96.3331ZM807.39 89.963V87.023C807.413 86.702 807.37 86.3796 807.261 86.0765C807.153 85.7734 806.982 85.4963 806.76 85.263C806.307 84.8424 805.708 84.6163 805.09 84.6331C804.758 84.6223 804.427 84.6857 804.123 84.8189C803.818 84.9521 803.547 85.1518 803.33 85.4031C802.942 85.9238 802.751 86.5648 802.79 87.213V89.973H807.39V89.963Z" fill="white"/>
<path d="M822.03 80.5632V82.5932C822.44 82.073 822.91 81.6032 823.43 81.1933C824.312 80.5247 825.394 80.1756 826.5 80.2033C827.365 80.1977 828.212 80.4468 828.936 80.9199C829.66 81.3929 830.228 82.069 830.57 82.8632C831.054 82.0314 831.738 81.3336 832.56 80.8332C833.315 80.3944 834.177 80.1762 835.05 80.2033C835.827 80.1291 836.61 80.2566 837.323 80.5737C838.036 80.8908 838.655 81.3865 839.12 82.0131C839.855 83.1717 840.202 84.5343 840.11 85.9033V102.983H835.59V87.1232C835.627 86.4673 835.416 85.8213 835 85.3132C834.811 85.091 834.575 84.9143 834.308 84.7966C834.041 84.6788 833.751 84.623 833.46 84.6332C833.146 84.6232 832.833 84.6824 832.545 84.8068C832.256 84.9313 831.998 85.1179 831.79 85.3532C831.523 85.6612 831.321 86.0205 831.197 86.4091C831.073 86.7977 831.03 87.2074 831.07 87.6132V102.983H826.55V87.1232C826.578 86.7974 826.539 86.4693 826.438 86.1584C826.337 85.8475 826.174 85.5602 825.96 85.3132C825.772 85.0898 825.536 84.9122 825.269 84.7944C825.002 84.6765 824.712 84.6215 824.42 84.6332C824.106 84.6241 823.794 84.6839 823.505 84.8083C823.217 84.9327 822.959 85.1186 822.75 85.3532C822.483 85.6612 822.281 86.0205 822.157 86.4091C822.033 86.7977 821.99 87.2074 822.03 87.6132V102.983H817.51V80.5632H822.03Z" fill="white"/>
<path d="M114.35 159.063C114.311 159.41 114.344 159.76 114.445 160.094C114.546 160.427 114.715 160.737 114.94 161.003C115.167 161.222 115.437 161.391 115.733 161.5C116.03 161.608 116.345 161.654 116.66 161.633C117.019 161.652 117.377 161.574 117.696 161.407C118.014 161.24 118.282 160.99 118.47 160.683C118.737 160.214 118.878 159.683 118.88 159.143H123.4V159.323C123.474 160.374 123.28 161.427 122.838 162.383C122.396 163.339 121.719 164.168 120.87 164.793C119.632 165.633 118.166 166.076 116.67 166.063C115.701 166.076 114.739 165.891 113.845 165.517C112.951 165.144 112.142 164.591 111.47 163.893C110.269 162.353 109.688 160.42 109.84 158.473V149.883C109.785 148.873 109.955 147.862 110.337 146.925C110.719 145.988 111.304 145.147 112.05 144.463C113.307 143.43 114.893 142.883 116.52 142.923C118.233 142.874 119.905 143.454 121.22 144.553C122.004 145.278 122.615 146.171 123.006 147.165C123.397 148.159 123.559 149.228 123.48 150.293V156.173H114.35V159.063ZM118.96 152.683V149.743C118.983 149.422 118.939 149.1 118.831 148.796C118.722 148.493 118.552 148.216 118.33 147.983C117.877 147.562 117.278 147.336 116.66 147.353C116.328 147.342 115.997 147.406 115.693 147.539C115.388 147.672 115.117 147.872 114.9 148.123C114.512 148.644 114.321 149.285 114.36 149.933V152.693H118.96V152.683Z" fill="white"/>
<path d="M142.73 143.283V174.923H138.21V163.893C137.791 164.411 137.287 164.854 136.72 165.203C135.836 165.783 134.797 166.082 133.74 166.063C133.122 166.095 132.504 165.995 131.928 165.769C131.352 165.543 130.831 165.197 130.4 164.753C129.939 164.239 129.586 163.638 129.361 162.985C129.136 162.333 129.044 161.642 129.09 160.953V149.293C128.947 147.67 129.31 146.042 130.13 144.633C130.571 144.067 131.142 143.615 131.795 143.315C132.448 143.016 133.163 142.878 133.88 142.913C134.854 142.904 135.811 143.171 136.64 143.683C137.252 144.103 137.776 144.64 138.18 145.263H138.23V143.273H142.73V143.283ZM138.21 150.333C138.247 149.927 138.203 149.518 138.079 149.13C137.955 148.742 137.755 148.383 137.49 148.073C137.268 147.842 137 147.659 136.705 147.535C136.409 147.411 136.091 147.349 135.77 147.353C135.472 147.34 135.176 147.395 134.902 147.512C134.629 147.63 134.385 147.808 134.19 148.033C133.954 148.311 133.78 148.635 133.678 148.985C133.576 149.335 133.55 149.702 133.6 150.063V159.143C133.573 159.469 133.612 159.797 133.713 160.108C133.814 160.418 133.976 160.706 134.19 160.953C134.386 161.177 134.629 161.355 134.903 161.473C135.176 161.59 135.473 161.645 135.77 161.633C136.09 161.635 136.408 161.572 136.703 161.448C136.999 161.324 137.266 161.143 137.49 160.913C137.757 160.605 137.959 160.246 138.083 159.857C138.207 159.469 138.25 159.059 138.21 158.653V150.333Z" fill="white"/>
<path d="M162.39 165.703H157.87V163.443C157.435 164.08 156.902 164.643 156.29 165.113C155.375 165.749 154.284 166.082 153.17 166.063C152.489 166.098 151.811 165.963 151.195 165.672C150.579 165.381 150.045 164.941 149.64 164.393C148.998 163.365 148.684 162.165 148.74 160.953V143.283H153.26V159.143C153.19 159.822 153.383 160.502 153.8 161.043C153.988 161.235 154.214 161.387 154.464 161.489C154.713 161.59 154.981 161.639 155.25 161.633C155.605 161.636 155.957 161.565 156.284 161.426C156.611 161.287 156.906 161.081 157.15 160.823C157.408 160.527 157.604 160.183 157.728 159.81C157.851 159.438 157.9 159.045 157.87 158.653V143.283H162.39V165.703Z" fill="white"/>
<path d="M172.92 134.703V139.133H168.4V134.703H172.92ZM168.4 143.283H172.92V165.703H168.4V143.283Z" fill="white"/>
<path d="M183.99 136.463V143.283H186.88V146.903H183.99V159.193C183.963 159.536 184.005 159.88 184.113 160.207C184.221 160.533 184.394 160.834 184.62 161.093C185.117 161.409 185.703 161.553 186.29 161.503H186.88V165.703H185.66C184.35 165.703 182.18 165.653 180.78 164.123C179.772 162.844 179.302 161.223 179.47 159.603V146.903H177.16V143.283H179.47V136.463H183.99Z" fill="white"/>
<path d="M194.34 143.283L198 157.203H198.18L200.98 143.283H205.5L199.35 168.733C199.03 170.043 198.63 172.213 197.27 173.523C196.647 174.044 195.927 174.437 195.151 174.677C194.375 174.917 193.559 175.001 192.75 174.923H191.57L191.48 170.723H192.34C192.745 170.756 193.151 170.686 193.522 170.52C193.892 170.354 194.215 170.097 194.46 169.773C194.87 169.11 195.145 168.373 195.27 167.603L195.99 164.663L189.44 143.283H194.34Z" fill="white"/>
<path d="M220.86 150.523C220.86 148.763 221 146.273 223.07 144.513C224.388 143.489 226.01 142.933 227.68 142.933C229.35 142.933 230.971 143.489 232.29 144.513C234.37 146.273 234.5 148.763 234.5 150.523V158.473C234.5 160.233 234.36 162.723 232.29 164.483C230.971 165.507 229.35 166.063 227.68 166.063C226.01 166.063 224.388 165.507 223.07 164.483C220.99 162.723 220.86 160.233 220.86 158.473V150.523ZM229.99 150.243C230.046 149.432 229.804 148.629 229.31 147.983C228.864 147.578 228.283 147.353 227.68 147.353C227.077 147.353 226.496 147.578 226.05 147.983C225.556 148.629 225.314 149.432 225.37 150.243V158.743C225.314 159.554 225.556 160.357 226.05 161.003C226.496 161.408 227.077 161.633 227.68 161.633C228.283 161.633 228.864 161.408 229.31 161.003C229.804 160.357 230.046 159.554 229.99 158.743V150.243Z" fill="white"/>
<path d="M253.99 165.703H249.47V163.443C249.035 164.08 248.502 164.643 247.89 165.113C246.975 165.749 245.884 166.082 244.77 166.063C244.09 166.098 243.411 165.963 242.795 165.672C242.179 165.381 241.645 164.941 241.24 164.393C240.598 163.365 240.284 162.165 240.34 160.953V143.283H244.86V159.143C244.79 159.822 244.983 160.502 245.4 161.043C245.588 161.235 245.814 161.387 246.064 161.489C246.313 161.59 246.581 161.639 246.85 161.633C247.205 161.636 247.557 161.565 247.884 161.426C248.211 161.287 248.506 161.081 248.75 160.823C249.008 160.527 249.204 160.183 249.328 159.81C249.451 159.438 249.5 159.045 249.47 158.653V143.283H253.99V165.703Z" fill="white"/>
<path d="M279.12 165.703H275.5L269.53 143.283H274.28L277.31 157.523H277.54L280.57 143.283H285.09L279.12 165.703Z" fill="white"/>
<path d="M293.49 134.703V139.133H288.97V134.703H293.49ZM288.97 143.283H293.49V165.703H288.97V143.283Z" fill="white"/>
<path d="M304.02 143.283V145.683L304.11 145.723C304.822 144.84 305.724 144.13 306.749 143.645C307.774 143.16 308.896 142.913 310.03 142.923V147.763C307.86 147.403 304.02 147.943 304.02 152.873V165.713H299.5V143.293H304.02V143.283Z" fill="white"/>
<path d="M322.05 163.493H321.96C321.539 164.143 321.019 164.723 320.42 165.213C319.681 165.811 318.749 166.117 317.8 166.073C316.548 166.129 315.322 165.707 314.37 164.893C312.97 163.583 312.74 161.553 312.74 159.743C312.74 158.113 312.83 155.673 314.14 154.143C315.63 152.383 318.16 152.203 319.47 152.203C320.332 152.205 321.193 152.252 322.05 152.343V149.993C322.084 149.653 322.049 149.31 321.948 148.983C321.846 148.657 321.681 148.354 321.46 148.093C321.225 147.853 320.943 147.665 320.631 147.541C320.32 147.417 319.985 147.36 319.65 147.373C319.308 147.368 318.968 147.438 318.656 147.578C318.343 147.718 318.065 147.925 317.84 148.183C317.492 148.59 317.285 149.099 317.25 149.633H312.96C312.912 147.839 313.578 146.098 314.81 144.793C316.194 143.545 318.007 142.882 319.87 142.943C321.657 142.895 323.393 143.544 324.71 144.753C325.357 145.466 325.855 146.301 326.173 147.21C326.491 148.119 326.622 149.082 326.56 150.043V165.723H322.04V163.493H322.05ZM322.05 155.943C321.528 155.854 321 155.807 320.47 155.803C320.004 155.764 319.536 155.829 319.098 155.994C318.661 156.158 318.265 156.417 317.94 156.753C317.442 157.431 317.202 158.264 317.26 159.103C317.231 159.75 317.387 160.392 317.71 160.953C317.887 161.276 318.149 161.544 318.469 161.728C318.788 161.911 319.152 162.003 319.52 161.993C320.88 161.993 322.05 161.093 322.05 159.103V155.943Z" fill="white"/>
<path d="M348.57 159.063C348.531 159.41 348.564 159.76 348.665 160.094C348.766 160.427 348.935 160.737 349.16 161.003C349.387 161.222 349.657 161.391 349.953 161.5C350.25 161.608 350.565 161.654 350.88 161.633C351.239 161.652 351.597 161.574 351.916 161.407C352.234 161.24 352.502 160.99 352.69 160.683C352.957 160.214 353.098 159.683 353.1 159.143H357.62V159.323C357.694 160.374 357.5 161.427 357.058 162.383C356.616 163.339 355.939 164.168 355.09 164.793C353.852 165.633 352.387 166.076 350.89 166.063C349.921 166.076 348.959 165.891 348.065 165.517C347.17 165.144 346.362 164.591 345.69 163.893C344.489 162.353 343.908 160.42 344.06 158.473V149.883C344.005 148.873 344.175 147.862 344.557 146.925C344.939 145.988 345.524 145.147 346.27 144.463C347.527 143.43 349.113 142.883 350.74 142.923C352.453 142.874 354.125 143.454 355.44 144.553C356.224 145.278 356.835 146.171 357.226 147.165C357.617 148.159 357.779 149.228 357.7 150.293V156.173H348.57V159.063ZM353.18 152.683V149.743C353.203 149.422 353.159 149.1 353.051 148.796C352.942 148.493 352.772 148.216 352.55 147.983C352.097 147.562 351.498 147.336 350.88 147.353C350.548 147.342 350.217 147.406 349.913 147.539C349.608 147.672 349.337 147.872 349.12 148.123C348.732 148.644 348.541 149.285 348.58 149.933V152.693H353.18V152.683Z" fill="white"/>
<path d="M371.62 149.343C371.59 148.737 371.35 148.16 370.94 147.713C370.721 147.512 370.464 147.356 370.184 147.255C369.904 147.153 369.607 147.109 369.31 147.123C369.012 147.109 368.714 147.158 368.436 147.267C368.158 147.376 367.906 147.543 367.697 147.757C367.489 147.97 367.327 148.226 367.224 148.506C367.121 148.786 367.079 149.085 367.1 149.383C367.093 149.902 367.251 150.409 367.55 150.833C368.012 151.387 368.623 151.796 369.31 152.013L372.02 153.143C373.146 153.62 374.138 154.365 374.91 155.313C375.725 156.523 376.122 157.967 376.04 159.423C376.067 161.005 375.556 162.55 374.59 163.803C373.917 164.579 373.072 165.187 372.122 165.579C371.173 165.972 370.145 166.137 369.12 166.063C368.155 166.127 367.188 165.982 366.283 165.639C365.379 165.295 364.56 164.761 363.88 164.073C362.776 162.774 362.182 161.118 362.21 159.413H366.73C366.715 160.039 366.925 160.648 367.32 161.133C367.824 161.597 368.485 161.854 369.17 161.853C369.502 161.861 369.831 161.796 370.135 161.663C370.439 161.53 370.711 161.332 370.93 161.083C371.353 160.579 371.564 159.93 371.52 159.273C371.52 158.093 371.16 157.243 369.26 156.423L366.59 155.293C365.519 154.89 364.56 154.239 363.79 153.393C362.952 152.308 362.521 150.963 362.57 149.593C362.485 147.813 363.082 146.068 364.24 144.713C364.882 144.098 365.642 143.621 366.474 143.31C367.306 142.999 368.193 142.86 369.08 142.903C371.93 142.903 373.55 143.893 374.32 144.713C375.459 145.975 376.074 147.624 376.04 149.323H371.62V149.343Z" fill="white"/>
<path d="M390.29 150.063V149.973C390.311 149.349 390.136 148.733 389.79 148.213C389.582 147.932 389.309 147.706 388.993 147.556C388.677 147.406 388.329 147.337 387.98 147.353C387.648 147.342 387.317 147.405 387.012 147.538C386.708 147.671 386.437 147.871 386.22 148.123C385.749 148.744 385.525 149.517 385.59 150.293V158.973C385.563 159.648 385.752 160.314 386.13 160.873C386.36 161.133 386.646 161.337 386.967 161.47C387.287 161.604 387.634 161.663 387.98 161.643C388.321 161.667 388.663 161.61 388.978 161.476C389.292 161.342 389.571 161.136 389.79 160.873C390.141 160.337 390.316 159.704 390.29 159.063V159.023H394.81V159.433C394.837 160.4 394.648 161.359 394.257 162.243C393.866 163.127 393.283 163.913 392.55 164.543C391.27 165.569 389.67 166.114 388.03 166.083C386.109 166.149 384.239 165.451 382.83 164.143C381.02 162.293 381.07 160.123 381.07 158.173V150.443C381.07 148.633 381.25 146.333 383.15 144.613C384.431 143.485 386.094 142.888 387.8 142.943C388.753 142.899 389.705 143.048 390.599 143.381C391.492 143.715 392.309 144.226 393 144.883C394.202 146.292 394.845 148.092 394.81 149.943V150.083H390.29V150.063Z" fill="white"/>
<path d="M404.25 143.283V145.683L404.34 145.723C405.052 144.84 405.954 144.13 406.979 143.645C408.004 143.16 409.126 142.913 410.26 142.923V147.763C408.09 147.403 404.25 147.943 404.25 152.873V165.713H399.73V143.293H404.25V143.283Z" fill="white"/>
<path d="M422.28 163.493H422.19C421.769 164.143 421.249 164.723 420.65 165.213C419.911 165.811 418.979 166.117 418.03 166.073C416.778 166.129 415.552 165.707 414.6 164.893C413.2 163.583 412.97 161.553 412.97 159.743C412.97 158.113 413.06 155.673 414.37 154.143C415.86 152.383 418.39 152.203 419.7 152.203C420.562 152.205 421.423 152.252 422.28 152.343V149.993C422.312 149.653 422.276 149.31 422.174 148.984C422.073 148.658 421.909 148.355 421.69 148.093C421.455 147.853 421.173 147.665 420.861 147.541C420.55 147.417 420.215 147.36 419.88 147.373C419.538 147.368 419.198 147.438 418.886 147.578C418.573 147.718 418.295 147.925 418.07 148.183C417.722 148.59 417.515 149.099 417.48 149.633H413.19C413.142 147.839 413.808 146.098 415.04 144.793C416.424 143.545 418.237 142.882 420.1 142.943C421.887 142.895 423.623 143.544 424.94 144.753C425.587 145.466 426.085 146.301 426.403 147.21C426.721 148.119 426.852 149.082 426.79 150.043V165.723H422.27V163.493H422.28ZM422.28 155.943C421.758 155.854 421.23 155.807 420.7 155.803C420.234 155.764 419.766 155.829 419.328 155.994C418.891 156.158 418.495 156.417 418.17 156.753C417.672 157.431 417.432 158.264 417.49 159.103C417.461 159.75 417.617 160.392 417.94 160.953C418.117 161.276 418.379 161.544 418.699 161.728C419.018 161.911 419.382 162.003 419.75 161.993C421.11 161.993 422.28 161.093 422.28 159.103V155.943Z" fill="white"/>
<path d="M439.19 165.703H435.57L429.6 143.283H434.35L437.38 157.523H437.61L440.64 143.283H445.16L439.19 165.703Z" fill="white"/>
<path d="M448.86 150.523C448.86 148.763 449 146.273 451.07 144.513C452.388 143.489 454.01 142.933 455.68 142.933C457.35 142.933 458.971 143.489 460.29 144.513C462.37 146.273 462.5 148.763 462.5 150.523V158.473C462.5 160.233 462.36 162.723 460.29 164.483C458.971 165.507 457.35 166.063 455.68 166.063C454.01 166.063 452.388 165.507 451.07 164.483C448.99 162.723 448.86 160.233 448.86 158.473V150.523ZM457.99 150.243C458.046 149.432 457.804 148.629 457.31 147.983C456.864 147.578 456.283 147.353 455.68 147.353C455.077 147.353 454.496 147.578 454.05 147.983C453.556 148.629 453.314 149.432 453.37 150.243V158.743C453.314 159.554 453.556 160.357 454.05 161.003C454.496 161.408 455.077 161.633 455.68 161.633C456.283 161.633 456.864 161.408 457.31 161.003C457.804 160.357 458.046 159.554 457.99 158.743V150.243Z" fill="white"/>
<path d="M489.12 163.713H489.08C488.678 164.338 488.155 164.876 487.54 165.293C486.713 165.808 485.755 166.075 484.78 166.063C484.063 166.098 483.348 165.96 482.695 165.661C482.042 165.362 481.471 164.91 481.03 164.343C480.206 162.936 479.842 161.307 479.99 159.683V148.023C479.947 147.335 480.041 146.644 480.266 145.992C480.49 145.34 480.842 144.739 481.3 144.223C481.731 143.779 482.252 143.433 482.828 143.207C483.404 142.981 484.022 142.881 484.64 142.913C485.697 142.894 486.736 143.194 487.62 143.773C488.187 144.123 488.691 144.565 489.11 145.083V134.053H493.63V165.693H489.11V163.713H489.12ZM489.12 150.333C489.16 149.927 489.117 149.518 488.993 149.129C488.869 148.74 488.667 148.381 488.4 148.073C488.178 147.842 487.91 147.659 487.615 147.535C487.319 147.411 487.001 147.349 486.68 147.353C486.382 147.34 486.086 147.395 485.812 147.512C485.539 147.63 485.295 147.808 485.1 148.033C484.672 148.535 484.46 149.186 484.51 149.843V158.923C484.459 159.284 484.485 159.652 484.587 160.002C484.689 160.352 484.863 160.676 485.1 160.953C485.296 161.177 485.539 161.355 485.813 161.473C486.086 161.59 486.383 161.645 486.68 161.633C487 161.635 487.318 161.572 487.613 161.448C487.909 161.324 488.176 161.143 488.4 160.913C488.667 160.605 488.869 160.246 488.993 159.857C489.117 159.469 489.16 159.059 489.12 158.653V150.333Z" fill="white"/>
<path d="M508.56 163.493H508.47C508.049 164.143 507.53 164.723 506.93 165.213C506.191 165.811 505.259 166.117 504.31 166.073C503.058 166.129 501.832 165.707 500.88 164.893C499.48 163.583 499.25 161.553 499.25 159.743C499.25 158.113 499.34 155.673 500.65 154.143C502.14 152.383 504.67 152.203 505.98 152.203C506.842 152.205 507.703 152.252 508.56 152.343V149.993C508.623 149.307 508.411 148.623 507.97 148.093C507.735 147.853 507.453 147.665 507.141 147.541C506.83 147.417 506.495 147.36 506.16 147.373C505.818 147.368 505.478 147.438 505.166 147.578C504.853 147.718 504.575 147.925 504.35 148.183C504.002 148.59 503.795 149.099 503.76 149.633H499.47C499.422 147.839 500.088 146.098 501.32 144.793C502.704 143.545 504.517 142.882 506.38 142.943C508.167 142.895 509.903 143.544 511.22 144.753C511.867 145.466 512.365 146.301 512.683 147.21C513.001 148.119 513.132 149.082 513.07 150.043V165.723H508.55V163.493H508.56ZM508.56 155.943C508.038 155.854 507.51 155.807 506.98 155.803C506.514 155.764 506.046 155.829 505.608 155.994C505.171 156.158 504.775 156.417 504.45 156.753C503.952 157.431 503.712 158.264 503.77 159.103C503.741 159.75 503.897 160.392 504.22 160.953C504.397 161.276 504.659 161.544 504.979 161.728C505.298 161.911 505.662 162.003 506.03 161.993C507.39 161.993 508.56 161.093 508.56 159.103V155.943Z" fill="white"/>
<path d="M539.06 149.343C539.035 148.736 538.794 148.158 538.38 147.713C538.161 147.512 537.904 147.356 537.624 147.255C537.344 147.153 537.047 147.109 536.75 147.123C536.452 147.109 536.154 147.158 535.876 147.267C535.598 147.376 535.346 147.543 535.137 147.757C534.928 147.97 534.767 148.226 534.664 148.506C534.561 148.786 534.519 149.085 534.54 149.383C534.533 149.902 534.691 150.409 534.99 150.833C535.45 151.389 536.061 151.799 536.75 152.013L539.46 153.143C540.586 153.62 541.578 154.365 542.35 155.313C543.165 156.523 543.562 157.967 543.48 159.423C543.507 161.005 542.996 162.55 542.03 163.803C541.356 164.579 540.511 165.187 539.562 165.579C538.612 165.972 537.585 166.137 536.56 166.063C535.595 166.127 534.627 165.982 533.723 165.639C532.819 165.295 531.999 164.761 531.32 164.073C530.216 162.774 529.622 161.118 529.65 159.413H534.17C534.155 160.039 534.365 160.649 534.76 161.133C535.264 161.597 535.925 161.854 536.61 161.853C536.942 161.861 537.271 161.796 537.575 161.663C537.879 161.53 538.15 161.332 538.37 161.083C538.793 160.579 539.004 159.93 538.96 159.273C538.96 158.093 538.6 157.243 536.7 156.423L534.03 155.293C532.959 154.89 532 154.239 531.23 153.393C530.392 152.308 529.961 150.963 530.01 149.593C529.925 147.813 530.522 146.068 531.68 144.713C532.321 144.098 533.081 143.621 533.914 143.31C534.746 142.999 535.633 142.86 536.52 142.903C539.37 142.903 540.99 143.893 541.76 144.713C542.899 145.975 543.514 147.624 543.48 149.323H539.06V149.343Z" fill="white"/>
<path d="M562.29 165.703H557.77V163.443C557.335 164.08 556.801 164.643 556.19 165.113C555.275 165.749 554.184 166.082 553.07 166.063C552.389 166.098 551.711 165.963 551.095 165.672C550.479 165.381 549.945 164.941 549.54 164.393C548.898 163.365 548.584 162.165 548.64 160.953V143.283H553.16V159.143C553.095 159.822 553.288 160.5 553.7 161.043C553.888 161.235 554.114 161.387 554.364 161.489C554.613 161.59 554.881 161.639 555.15 161.633C555.505 161.636 555.857 161.565 556.184 161.426C556.511 161.287 556.806 161.081 557.05 160.823C557.308 160.527 557.504 160.183 557.628 159.81C557.751 159.438 557.8 159.045 557.77 158.653V143.283H562.29V165.703Z" fill="white"/>
<path d="M577.2 163.493H577.11C576.689 164.143 576.169 164.723 575.57 165.213C574.831 165.811 573.899 166.117 572.95 166.073C571.698 166.129 570.472 165.707 569.52 164.893C568.12 163.583 567.89 161.553 567.89 159.743C567.89 158.113 567.98 155.673 569.29 154.143C570.78 152.383 573.31 152.203 574.62 152.203C575.482 152.205 576.343 152.252 577.2 152.343V149.993C577.263 149.307 577.051 148.623 576.61 148.093C576.375 147.853 576.093 147.665 575.781 147.541C575.47 147.417 575.135 147.36 574.8 147.373C574.458 147.368 574.118 147.438 573.806 147.578C573.493 147.718 573.215 147.925 572.99 148.183C572.642 148.59 572.435 149.099 572.4 149.633H568.11C568.062 147.839 568.728 146.098 569.96 144.793C571.344 143.545 573.157 142.882 575.02 142.943C576.807 142.895 578.543 143.544 579.86 144.753C580.507 145.466 581.005 146.301 581.323 147.21C581.641 148.119 581.772 149.082 581.71 150.043V165.723H577.19V163.493H577.2ZM577.2 155.943C576.678 155.854 576.15 155.807 575.62 155.803C575.154 155.764 574.686 155.829 574.248 155.994C573.811 156.158 573.415 156.417 573.09 156.753C572.592 157.431 572.352 158.264 572.41 159.103C572.381 159.75 572.537 160.392 572.86 160.953C573.037 161.276 573.299 161.544 573.619 161.728C573.938 161.911 574.302 162.003 574.67 161.993C576.03 161.993 577.2 161.093 577.2 159.103V155.943Z" fill="white"/>
<path d="M603.73 159.063C603.689 159.41 603.72 159.761 603.822 160.095C603.923 160.429 604.093 160.738 604.32 161.003C604.547 161.222 604.817 161.391 605.114 161.5C605.41 161.608 605.725 161.654 606.04 161.633C606.399 161.652 606.757 161.574 607.076 161.407C607.394 161.24 607.662 160.99 607.85 160.683C608.117 160.214 608.258 159.683 608.26 159.143H612.78V159.323C612.854 160.374 612.66 161.427 612.218 162.383C611.776 163.339 611.099 164.168 610.25 164.793C609.012 165.633 607.547 166.076 606.05 166.063C605.081 166.076 604.119 165.891 603.225 165.517C602.331 165.144 601.522 164.591 600.85 163.893C599.65 162.353 599.068 160.42 599.22 158.473V149.883C599.165 148.873 599.335 147.862 599.717 146.925C600.099 145.988 600.684 145.147 601.43 144.463C602.687 143.43 604.274 142.883 605.9 142.923C607.613 142.874 609.285 143.454 610.6 144.553C611.384 145.278 611.995 146.171 612.386 147.165C612.777 148.159 612.939 149.228 612.86 150.293V156.173H603.73V159.063ZM608.34 152.683V149.743C608.363 149.422 608.319 149.1 608.211 148.796C608.102 148.493 607.932 148.216 607.71 147.983C607.257 147.562 606.658 147.336 606.04 147.353C605.708 147.342 605.377 147.406 605.073 147.539C604.768 147.672 604.498 147.872 604.28 148.123C603.892 148.644 603.701 149.285 603.74 149.933V152.693H608.34V152.683Z" fill="white"/>
<path d="M622.98 143.283V145.313C623.39 144.793 623.86 144.323 624.38 143.913C625.261 143.245 626.344 142.896 627.45 142.923C628.315 142.918 629.162 143.167 629.886 143.64C630.61 144.113 631.178 144.789 631.52 145.583C632.004 144.751 632.688 144.054 633.51 143.553C634.265 143.114 635.127 142.896 636 142.923C636.777 142.849 637.56 142.977 638.273 143.294C638.986 143.611 639.605 144.107 640.07 144.733C640.805 145.892 641.152 147.254 641.06 148.623V165.703H636.54V149.843C636.577 149.187 636.366 148.541 635.95 148.033C635.761 147.811 635.525 147.634 635.258 147.517C634.991 147.399 634.701 147.343 634.41 147.353C634.096 147.343 633.783 147.402 633.495 147.527C633.206 147.651 632.948 147.838 632.74 148.073C632.473 148.381 632.271 148.741 632.147 149.129C632.023 149.518 631.98 149.927 632.02 150.333V165.703H627.5V149.843C627.528 149.517 627.49 149.189 627.388 148.879C627.287 148.568 627.124 148.28 626.91 148.033C626.722 147.81 626.486 147.632 626.219 147.515C625.952 147.397 625.662 147.341 625.37 147.353C625.056 147.344 624.744 147.404 624.455 147.528C624.167 147.653 623.909 147.839 623.7 148.073C623.433 148.381 623.231 148.741 623.107 149.129C622.983 149.518 622.94 149.927 622.98 150.333V165.703H618.46V143.283H622.98Z" fill="white"/>
<path d="M651.59 145.273H651.64C652.042 144.648 652.565 144.111 653.18 143.693C654.008 143.178 654.965 142.911 655.94 142.923C656.657 142.888 657.372 143.026 658.025 143.325C658.678 143.625 659.249 144.077 659.69 144.643C660.51 146.052 660.873 147.68 660.73 149.303V160.963C660.773 161.651 660.679 162.342 660.454 162.994C660.23 163.646 659.878 164.247 659.42 164.763C658.989 165.207 658.468 165.553 657.892 165.779C657.316 166.005 656.698 166.105 656.08 166.073C655.023 166.092 653.984 165.793 653.1 165.213C652.533 164.864 652.029 164.421 651.61 163.903V174.933H647.09V143.293H651.61V145.273H651.59ZM651.59 158.653C651.553 159.059 651.597 159.468 651.721 159.856C651.845 160.244 652.045 160.604 652.31 160.913C652.532 161.144 652.8 161.327 653.095 161.451C653.391 161.575 653.709 161.637 654.03 161.633C654.328 161.646 654.624 161.592 654.898 161.474C655.171 161.356 655.415 161.178 655.61 160.953C656.038 160.451 656.25 159.801 656.2 159.143V150.063C656.251 149.702 656.225 149.335 656.123 148.985C656.021 148.635 655.846 148.31 655.61 148.033C655.414 147.809 655.171 147.631 654.897 147.514C654.624 147.396 654.327 147.341 654.03 147.353C653.71 147.352 653.392 147.415 653.097 147.538C652.801 147.662 652.534 147.844 652.31 148.073C652.043 148.381 651.841 148.74 651.717 149.129C651.593 149.518 651.55 149.927 651.59 150.333V158.653Z" fill="white"/>
<path d="M671.24 143.283V145.683L671.33 145.723C672.042 144.84 672.944 144.13 673.969 143.645C674.994 143.16 676.116 142.913 677.25 142.923V147.763C675.08 147.403 671.24 147.943 671.24 152.873V165.713H666.72V143.293H671.24V143.283Z" fill="white"/>
<path d="M685.3 159.063C685.259 159.41 685.29 159.761 685.392 160.095C685.493 160.429 685.663 160.738 685.89 161.003C686.117 161.222 686.387 161.391 686.684 161.5C686.98 161.608 687.295 161.654 687.61 161.633C687.969 161.652 688.327 161.574 688.646 161.407C688.964 161.24 689.232 160.99 689.42 160.683C689.687 160.214 689.828 159.683 689.83 159.143H694.35V159.323C694.424 160.374 694.23 161.427 693.788 162.383C693.346 163.339 692.669 164.168 691.82 164.793C690.582 165.633 689.117 166.076 687.62 166.063C686.651 166.076 685.689 165.891 684.795 165.517C683.901 165.144 683.092 164.591 682.42 163.893C681.22 162.353 680.638 160.42 680.79 158.473V149.883C680.735 148.873 680.905 147.862 681.287 146.925C681.669 145.988 682.254 145.147 683 144.463C684.257 143.43 685.843 142.883 687.47 142.923C689.183 142.874 690.855 143.454 692.17 144.553C692.954 145.278 693.565 146.171 693.956 147.165C694.347 148.159 694.509 149.228 694.43 150.293V156.173H685.3V159.063ZM689.91 152.683V149.743C689.933 149.422 689.89 149.1 689.781 148.796C689.673 148.493 689.502 148.216 689.28 147.983C688.827 147.562 688.228 147.336 687.61 147.353C687.278 147.342 686.947 147.406 686.643 147.539C686.338 147.672 686.067 147.872 685.85 148.123C685.462 148.644 685.271 149.285 685.31 149.933V152.693H689.91V152.683Z" fill="white"/>
<path d="M708.35 149.343C708.325 148.736 708.084 148.158 707.67 147.713C707.451 147.512 707.194 147.356 706.914 147.255C706.634 147.153 706.337 147.109 706.04 147.123C705.742 147.109 705.444 147.158 705.166 147.267C704.888 147.376 704.636 147.543 704.427 147.757C704.219 147.97 704.057 148.226 703.954 148.506C703.851 148.786 703.809 149.085 703.83 149.383C703.823 149.902 703.981 150.409 704.28 150.833C704.74 151.389 705.351 151.799 706.04 152.013L708.75 153.143C709.876 153.62 710.868 154.365 711.64 155.313C712.455 156.523 712.852 157.967 712.77 159.423C712.797 161.005 712.286 162.55 711.32 163.803C710.646 164.579 709.801 165.187 708.852 165.579C707.902 165.972 706.875 166.137 705.85 166.063C704.885 166.127 703.917 165.982 703.013 165.639C702.109 165.295 701.289 164.761 700.61 164.073C699.506 162.774 698.912 161.118 698.94 159.413H703.46C703.445 160.039 703.655 160.649 704.05 161.133C704.554 161.597 705.215 161.854 705.9 161.853C706.232 161.861 706.561 161.796 706.865 161.663C707.169 161.53 707.441 161.332 707.66 161.083C708.083 160.579 708.294 159.93 708.25 159.273C708.25 158.093 707.89 157.243 705.99 156.423L703.32 155.293C702.249 154.89 701.29 154.239 700.52 153.393C699.682 152.308 699.251 150.963 699.3 149.593C699.215 147.813 699.812 146.068 700.97 144.713C701.611 144.098 702.371 143.621 703.204 143.31C704.036 142.999 704.923 142.86 705.81 142.903C708.66 142.903 710.28 143.893 711.05 144.713C712.189 145.975 712.804 147.624 712.77 149.323H708.35V149.343Z" fill="white"/>
<path d="M726.83 163.493H726.74C726.319 164.143 725.799 164.723 725.2 165.213C724.461 165.811 723.529 166.117 722.58 166.073C721.328 166.129 720.102 165.707 719.15 164.893C717.75 163.583 717.52 161.553 717.52 159.743C717.52 158.113 717.61 155.673 718.92 154.143C720.41 152.383 722.94 152.203 724.25 152.203C725.112 152.205 725.973 152.252 726.83 152.343V149.993C726.893 149.307 726.681 148.623 726.24 148.093C726.005 147.853 725.723 147.665 725.411 147.541C725.1 147.417 724.765 147.36 724.43 147.373C724.088 147.368 723.748 147.438 723.436 147.578C723.123 147.718 722.845 147.925 722.62 148.183C722.272 148.59 722.065 149.099 722.03 149.633H717.74C717.692 147.839 718.358 146.098 719.59 144.793C720.974 143.545 722.788 142.882 724.65 142.943C726.437 142.895 728.173 143.544 729.49 144.753C730.137 145.466 730.635 146.301 730.953 147.21C731.271 148.119 731.402 149.082 731.34 150.043V165.723H726.82V163.493H726.83ZM726.83 155.943C726.308 155.854 725.78 155.807 725.25 155.803C724.784 155.764 724.316 155.829 723.878 155.994C723.441 156.158 723.045 156.417 722.72 156.753C722.223 157.431 721.982 158.264 722.04 159.103C722.011 159.75 722.167 160.392 722.49 160.953C722.667 161.276 722.929 161.544 723.249 161.728C723.568 161.911 723.932 162.003 724.3 161.993C725.66 161.993 726.83 161.093 726.83 159.103V155.943Z" fill="white"/>
<path d="M742.15 160.733V165.703H737.18V160.733H742.15Z" fill="white"/>
</svg>
