<svg width="920" height="52" viewBox="0 0 920 52" fill="none" xmlns="http://www.w3.org/2000/svg">
<path d="M42.396 27.4602C42.396 32.3457 41.5325 36.6289 39.8056 40.3101C38.0787 43.9912 35.6019 46.8316 32.3752 48.8312C29.1712 50.8308 25.4901 51.8306 21.3318 51.8306C17.219 51.8306 13.5492 50.8422 10.3225 48.8653C7.09587 46.8884 4.59634 44.0707 2.82395 40.4123C1.05156 36.7312 0.154 32.5047 0.131277 27.7329V25.2788C0.131277 20.3934 1.00611 16.0987 2.75578 12.3949C4.52817 8.66831 7.01634 5.81658 10.2203 3.83968C13.4469 1.84006 17.1281 0.840244 21.2637 0.840244C25.3992 0.840244 29.069 1.84006 32.2729 3.83968C35.4996 5.81658 37.9878 8.66831 39.7374 12.3949C41.5098 16.0987 42.396 20.382 42.396 25.2447V27.4602ZM32.0343 25.2106C32.0343 20.0071 31.1027 16.0533 29.2394 13.3492C27.3761 10.6452 24.7175 9.29319 21.2637 9.29319C17.8325 9.29319 15.1853 10.6338 13.322 13.3152C11.4587 15.9737 10.5157 19.8821 10.493 25.0402V27.4602C10.493 32.5274 11.4246 36.4585 13.2879 39.2534C15.1512 42.0484 17.8325 43.4458 21.3318 43.4458C24.763 43.4458 27.3989 42.1052 29.2394 39.4239C31.08 36.7198 32.0116 32.7888 32.0343 27.6306V25.2106ZM77.4349 33.6636V51.1489H67.2095V1.52193H86.5695C90.2961 1.52193 93.5682 2.20362 96.3858 3.567C99.2262 4.93038 101.408 6.8732 102.93 9.39545C104.452 11.895 105.214 14.7467 105.214 17.9506C105.214 22.8134 103.544 26.6536 100.203 29.4712C96.8857 32.2661 92.2843 33.6636 86.3991 33.6636H77.4349ZM77.4349 25.3811H86.5695C89.2735 25.3811 91.33 24.7448 92.7388 23.4723C94.1703 22.1998 94.8861 20.382 94.8861 18.0188C94.8861 15.5875 94.1703 13.6219 92.7388 12.1222C91.3072 10.6225 89.3303 9.84991 86.8081 9.80446H77.4349V25.3811ZM130.641 32.9819H122.495V51.1489H112.269V1.52193H130.709C136.571 1.52193 141.093 2.8285 144.275 5.44165C147.456 8.05479 149.046 11.7473 149.046 16.5191C149.046 19.9048 148.308 22.7338 146.831 25.0061C145.377 27.2557 143.161 29.0508 140.184 30.3915L150.921 50.6717V51.1489H139.946L130.641 32.9819ZM122.495 24.6994H130.743C133.311 24.6994 135.299 24.0518 136.708 22.7566C138.117 21.4386 138.821 19.6321 138.821 17.3371C138.821 14.9967 138.151 13.1561 136.81 11.8154C135.492 10.4748 133.458 9.80446 130.709 9.80446H122.495V24.6994ZM197.617 27.4602C197.617 32.3457 196.753 36.6289 195.026 40.3101C193.299 43.9912 190.823 46.8316 187.596 48.8312C184.392 50.8308 180.711 51.8306 176.553 51.8306C172.44 51.8306 168.77 50.8422 165.543 48.8653C162.317 46.8884 159.817 44.0707 158.045 40.4123C156.272 36.7312 155.375 32.5047 155.352 27.7329V25.2788C155.352 20.3934 156.227 16.0987 157.976 12.3949C159.749 8.66831 162.237 5.81658 165.441 3.83968C168.668 1.84006 172.349 0.840244 176.484 0.840244C180.62 0.840244 184.29 1.84006 187.494 3.83968C190.72 5.81658 193.208 8.66831 194.958 12.3949C196.731 16.0987 197.617 20.382 197.617 25.2447V27.4602ZM187.255 25.2106C187.255 20.0071 186.323 16.0533 184.46 13.3492C182.597 10.6452 179.938 9.29319 176.484 9.29319C173.053 9.29319 170.406 10.6338 168.543 13.3152C166.679 15.9737 165.736 19.8821 165.714 25.0402V27.4602C165.714 32.5274 166.645 36.4585 168.509 39.2534C170.372 42.0484 173.053 43.4458 176.553 43.4458C179.984 43.4458 182.62 42.1052 184.46 39.4239C186.301 36.7198 187.232 32.7888 187.255 27.6306V25.2106ZM244.312 44.8774C242.472 47.0815 239.87 48.7971 236.507 50.0241C233.144 51.2285 229.418 51.8306 225.327 51.8306C221.033 51.8306 217.261 50.899 214.011 49.0357C210.785 47.1497 208.285 44.4229 206.513 40.8554C204.763 37.2879 203.866 33.0955 203.82 28.2782V24.9039C203.82 19.9503 204.649 15.667 206.308 12.054C207.99 8.41836 210.398 5.64615 213.534 3.73742C216.693 1.80597 220.385 0.840244 224.612 0.840244C230.497 0.840244 235.098 2.24907 238.416 5.06672C241.733 7.86165 243.699 11.9404 244.312 17.303H234.36C233.905 14.4627 232.894 12.3835 231.326 11.0656C229.781 9.74765 227.645 9.08869 224.918 9.08869C221.442 9.08869 218.795 10.3953 216.977 13.0084C215.159 15.6215 214.239 19.5072 214.216 24.6653V27.8351C214.216 33.0387 215.204 36.9698 217.181 39.6284C219.158 42.287 222.055 43.6163 225.873 43.6163C229.713 43.6163 232.451 42.7982 234.087 41.1622V32.607H224.782V25.0743H244.312V44.8774ZM271.001 32.9819H262.854V51.1489H252.629V1.52193H271.069C276.931 1.52193 281.453 2.8285 284.634 5.44165C287.816 8.05479 289.406 11.7473 289.406 16.5191C289.406 19.9048 288.668 22.7338 287.191 25.0061C285.736 27.2557 283.521 29.0508 280.544 30.3915L291.281 50.6717V51.1489H280.306L271.001 32.9819ZM262.854 24.6994H271.103C273.671 24.6994 275.659 24.0518 277.068 22.7566C278.476 21.4386 279.181 19.6321 279.181 17.3371C279.181 14.9967 278.511 13.1561 277.17 11.8154C275.852 10.4748 273.818 9.80446 271.069 9.80446H262.854V24.6994ZM325.229 40.9236H307.301L303.892 51.1489H293.019L311.493 1.52193H320.968L339.544 51.1489H328.671L325.229 40.9236ZM310.061 32.6411H322.468L316.231 14.065L310.061 32.6411ZM357.541 1.52193L370.289 37.5151L382.968 1.52193H396.397V51.1489H386.138V37.5833L387.16 14.1673L373.765 51.1489H366.744L353.383 14.2014L354.405 37.5833V51.1489H344.18V1.52193H357.541ZM433.958 40.9236H416.03L412.622 51.1489H401.749L420.222 1.52193H429.698L448.274 51.1489H437.401L433.958 40.9236ZM418.791 32.6411H431.198L424.96 14.065L418.791 32.6411ZM470.292 51.1489V1.52193H485.562C489.925 1.52193 493.822 2.51038 497.253 4.48728C500.707 6.44146 503.4 9.23639 505.331 12.8721C507.263 16.485 508.229 20.5979 508.229 25.2106V27.4943C508.229 32.1071 507.274 36.2086 505.365 39.7988C503.479 43.389 500.809 46.1726 497.356 48.1495C493.902 50.1264 490.005 51.1262 485.665 51.1489H470.292ZM480.518 9.80446V42.9346H485.46C489.459 42.9346 492.516 41.628 494.629 39.0149C496.742 36.4017 497.821 32.6638 497.867 27.8011V25.1766C497.867 20.1321 496.822 16.3146 494.731 13.7242C492.641 11.111 489.584 9.80446 485.562 9.80446H480.518ZM545.551 29.6416H525.918V42.9346H548.959V51.1489H515.693V1.52193H548.891V9.80446H525.918V21.6318H545.551V29.6416ZM585.702 1.52193L598.45 37.5151L611.13 1.52193H624.559V51.1489H614.299V37.5833L615.322 14.1673L601.927 51.1489H594.905L581.544 14.2014L582.567 37.5833V51.1489H572.341V1.52193H585.702ZM663.347 29.6416H643.714V42.9346H666.755V51.1489H633.489V1.52193H666.687V9.80446H643.714V21.6318H663.347V29.6416ZM713.11 51.1489H702.885L682.98 18.496V51.1489H672.754V1.52193H682.98L702.919 34.243V1.52193H713.11V51.1489ZM758.374 9.80446H743.173V51.1489H732.947V9.80446H717.95V1.52193H758.374V9.80446ZM804.048 27.4602C804.048 32.3457 803.184 36.6289 801.457 40.3101C799.73 43.9912 797.253 46.8316 794.027 48.8312C790.823 50.8308 787.142 51.8306 782.983 51.8306C778.871 51.8306 775.201 50.8422 771.974 48.8653C768.747 46.8884 766.248 44.0707 764.476 40.4123C762.703 36.7312 761.806 32.5047 761.783 27.7329V25.2788C761.783 20.3934 762.658 16.0987 764.407 12.3949C766.18 8.66831 768.668 5.81658 771.872 3.83968C775.099 1.84006 778.78 0.840244 782.915 0.840244C787.051 0.840244 790.721 1.84006 793.925 3.83968C797.151 5.81658 799.639 8.66831 801.389 12.3949C803.161 16.0987 804.048 20.382 804.048 25.2447V27.4602ZM793.686 25.2106C793.686 20.0071 792.754 16.0533 790.891 13.3492C789.028 10.6452 786.369 9.29319 782.915 9.29319C779.484 9.29319 776.837 10.6338 774.974 13.3152C773.11 15.9737 772.167 19.8821 772.145 25.0402V27.4602C772.145 32.5274 773.076 36.4585 774.939 39.2534C776.803 42.0484 779.484 43.4458 782.983 43.4458C786.415 43.4458 789.05 42.1052 790.891 39.4239C792.732 36.7198 793.663 32.7888 793.686 27.6306V25.2106ZM829.85 32.9819H821.703V51.1489H811.478V1.52193H829.918C835.78 1.52193 840.302 2.8285 843.483 5.44165C846.665 8.05479 848.255 11.7473 848.255 16.5191C848.255 19.9048 847.517 22.7338 846.04 25.0061C844.585 27.2557 842.37 29.0508 839.393 30.3915L850.13 50.6717V51.1489H839.155L829.85 32.9819ZM821.703 24.6994H829.952C832.52 24.6994 834.508 24.0518 835.917 22.7566C837.325 21.4386 838.03 19.6321 838.03 17.3371C838.03 14.9967 837.36 13.1561 836.019 11.8154C834.701 10.4748 832.667 9.80446 829.918 9.80446H821.703V24.6994ZM866.934 51.1489H856.708V1.52193H866.934V51.1489ZM905.074 40.9236H887.146L883.737 51.1489H872.864L891.338 1.52193H900.813L919.39 51.1489H908.517L905.074 40.9236ZM889.906 32.6411H902.313L896.076 14.065L889.906 32.6411Z" fill="#001E1F"/>
</svg>
