<svg width="1052" height="133" viewBox="0 0 1052 133" fill="none" xmlns="http://www.w3.org/2000/svg">
<path d="M0.410034 131.203V26.3931H22.34C26.5447 26.2817 30.7276 27.0338 34.63 28.6031C37.8059 29.925 40.6479 31.9371 42.95 34.4932C45.1007 36.9372 46.6851 39.826 47.59 42.9532C48.5276 46.183 48.999 49.53 48.99 52.8931V56.7232C49.0312 59.1433 48.8099 61.5607 48.33 63.9332C47.9497 65.7462 47.2776 67.4854 46.34 69.0831C44.4332 72.0523 41.8001 74.4856 38.69 76.1529C42.0458 77.6562 44.7946 80.2503 46.49 83.5132C48.16 86.7532 48.9934 91.1699 48.99 96.7632V102.653C48.99 111.883 46.7567 118.95 42.29 123.853C37.8234 128.756 30.6834 131.21 20.87 131.213H0.410034V131.203ZM15.42 40.523V69.3731H22.19C27.19 69.3731 30.56 68.1231 32.27 65.6231C33.98 63.1231 34.85 59.4629 34.85 54.6529C34.85 49.9429 33.8934 46.4099 31.98 44.0533C30.0667 41.6966 26.6067 40.5197 21.6 40.523H15.42ZM15.42 82.6231V116.183H21.9C24.35 116.3 26.7937 115.848 29.04 114.863C30.6807 114.056 32.0399 112.774 32.94 111.183C33.8675 109.455 34.4195 107.549 34.56 105.593C34.76 103.433 34.85 101.083 34.85 98.523C34.8704 96.2087 34.7233 93.8961 34.41 91.6031C34.1872 89.8283 33.5834 88.1227 32.64 86.6031C31.6468 85.2237 30.2645 84.1722 28.67 83.5831C26.5381 82.8716 24.2962 82.5465 22.05 82.6231H15.42Z" fill="white"/>
<path d="M65.91 51.123C65.836 47.2777 66.5897 43.4615 68.12 39.9331C69.4797 36.8419 71.4885 34.0793 74.01 31.833C76.3651 29.775 79.0855 28.1773 82.03 27.123C86.4374 25.5365 91.1845 25.1362 95.7952 25.9629C100.406 26.7896 104.718 28.814 108.3 31.833C110.742 34.1167 112.695 36.8725 114.04 39.9331C115.57 43.4616 116.324 47.2778 116.25 51.123V106.473C116.355 110.366 115.6 114.235 114.04 117.803C112.691 120.775 110.736 123.432 108.3 125.603C105.909 127.726 103.137 129.375 100.13 130.463C94.29 132.623 87.87 132.623 82.03 130.463C79.0584 129.396 76.3312 127.743 74.01 125.603C71.4985 123.466 69.4877 120.804 68.12 117.803C66.5617 114.234 65.8072 110.366 65.91 106.473V51.123ZM69.74 21.6831L84.17 0.922852H98.01L112.44 21.6831H100.96L91.1 7.70312L81.24 21.6831H69.74ZM80.93 106.473C80.93 110.103 81.93 112.783 83.95 114.493C85.9558 116.16 88.4818 117.073 91.09 117.073C93.6983 117.073 96.2242 116.16 98.23 114.493C100.24 112.773 101.247 110.1 101.25 106.473V51.123C101.25 47.493 100.243 44.8197 98.23 43.103C96.2242 41.4358 93.6983 40.5229 91.09 40.5229C88.4818 40.5229 85.9558 41.4358 83.95 43.103C81.94 44.823 80.9333 47.4964 80.93 51.123V106.473Z" fill="white"/>
<path d="M132.6 131.203V26.3931H147.03L169.7 89.543H169.99V26.3931H185.01V131.203H170.88L147.92 68.1929H147.63V131.203H132.6Z" fill="white"/>
<path d="M250.81 26.3931V107.653C250.855 110.853 250.252 114.03 249.037 116.991C247.822 119.952 246.02 122.637 243.74 124.883C241.501 127.13 238.854 128.929 235.94 130.183C232.965 131.461 229.758 132.111 226.52 132.093C223.304 132.116 220.119 131.466 217.17 130.183C211.358 127.611 206.712 122.965 204.14 117.153C202.842 114.156 202.191 110.919 202.23 107.653V26.3931H217.25V106.183C217.25 109.913 218.133 112.66 219.9 114.423C221.684 116.124 224.055 117.073 226.52 117.073C228.985 117.073 231.356 116.124 233.14 114.423C234.91 112.653 235.79 109.913 235.79 106.183V26.3931H250.81Z" fill="white"/>
<path d="M317.2 56.5732H302.18V53.1831C302.259 50.0393 301.414 46.9412 299.75 44.2729C298.13 41.7729 295.407 40.5229 291.58 40.5229C289.833 40.4441 288.098 40.8529 286.57 41.7031C285.339 42.447 284.284 43.4502 283.48 44.643C282.674 45.9759 282.124 47.4478 281.86 48.9829C281.563 50.6599 281.416 52.3599 281.42 54.063C281.403 55.7823 281.476 57.5013 281.64 59.2129C281.765 60.4993 282.138 61.7493 282.74 62.893C283.37 64.0149 284.253 64.9736 285.32 65.6929C286.775 66.6488 288.331 67.4407 289.96 68.0532L301.44 72.6128C304.367 73.6572 307.103 75.1742 309.54 77.103C311.538 78.7488 313.19 80.7745 314.4 83.063C315.53 85.6121 316.275 88.3149 316.61 91.083C317.026 94.4768 317.223 97.8938 317.2 101.313C317.231 105.447 316.789 109.57 315.88 113.603C315.134 117.075 313.68 120.357 311.61 123.243C309.49 126.042 306.706 128.269 303.51 129.723C299.659 131.394 295.486 132.197 291.29 132.073C287.812 132.101 284.361 131.452 281.13 130.163C278.099 128.963 275.343 127.159 273.03 124.863C270.763 122.595 268.941 119.923 267.66 116.983C266.313 113.897 265.634 110.56 265.67 107.193V101.603H280.69V106.313C280.665 108.989 281.519 111.599 283.12 113.743C284.74 115.953 287.463 117.057 291.29 117.053C293.335 117.152 295.375 116.775 297.25 115.953C298.642 115.246 299.794 114.143 300.56 112.783C301.384 111.263 301.862 109.579 301.96 107.853C302.11 105.943 302.18 103.803 302.18 101.453C302.201 99.1929 302.104 96.9332 301.89 94.6831C301.772 93.1976 301.372 91.7482 300.71 90.4131C300.018 89.3337 299.087 88.4273 297.99 87.7632C296.547 86.9219 295.047 86.1835 293.5 85.5532L282.75 81.1328C276.27 78.4828 271.927 74.973 269.72 70.603C267.513 66.233 266.41 60.7629 266.41 54.1929C266.39 50.403 266.936 46.6315 268.03 43.0029C269.011 39.6601 270.665 36.5533 272.89 33.873C275.021 31.2671 277.715 29.1783 280.77 27.7632C284.355 26.1608 288.254 25.3815 292.18 25.4829C295.697 25.4411 299.183 26.1432 302.41 27.5429C305.396 28.8499 308.115 30.6978 310.43 32.9931C312.574 35.1095 314.276 37.63 315.438 40.4092C316.6 43.1883 317.199 46.1707 317.2 49.1831V56.5718V56.5732Z" fill="white"/>
<path d="M363.12 131.203V26.3931H407.87V40.5229H378.13V71.293H404.04V85.4229H378.13V116.193H407.87V131.213H363.12V131.203Z" fill="#00E1BE"/>
<path d="M413.91 131.203L435.11 76.293L415.53 26.3931H431.43L442.76 57.4531L454.24 26.3931H470.14L450.12 76.293L471.76 131.203H455.86L442.76 95.873L429.81 131.203H413.91Z" fill="#00E1BE"/>
<path d="M482.21 131.203V26.3929H504.73C508.425 26.3277 512.104 26.8752 515.62 28.013C518.898 29.1901 521.832 31.1622 524.16 33.7528C526.699 36.477 528.52 39.7899 529.46 43.3929C530.57 48.2923 531.063 53.3111 530.93 58.3328C530.982 62.3215 530.711 66.3078 530.12 70.2528C529.581 73.4946 528.405 76.5975 526.66 79.3826C524.678 82.7433 521.833 85.5124 518.42 87.4027C514.98 89.3127 510.467 90.2694 504.88 90.2728H497.23V131.193H482.21V131.203ZM497.23 40.5228V76.1429H504.44C506.869 76.2686 509.293 75.8126 511.51 74.8128C513.098 74.0103 514.388 72.7206 515.19 71.1326C516.032 69.4336 516.509 67.5774 516.59 65.6829C516.74 63.5229 516.813 61.1196 516.81 58.473C516.81 56.023 516.76 53.6927 516.66 51.4827C516.607 49.4781 516.158 47.5036 515.34 45.6727C514.598 44.0547 513.362 42.7137 511.81 41.8426C509.699 40.844 507.372 40.3873 505.04 40.513H497.23V40.5228Z" fill="#00E1BE"/>
<path d="M544.92 51.1229C544.846 47.2776 545.6 43.4614 547.13 39.933C548.49 36.8418 550.499 34.0792 553.02 31.8329C555.375 29.7748 558.095 28.1772 561.04 27.1229C565.447 25.5363 570.194 25.1361 574.805 25.9628C579.416 26.7894 583.728 28.8139 587.31 31.8329C589.755 34.114 591.708 36.8704 593.05 39.933C594.58 43.4615 595.334 47.2776 595.26 51.1229V106.473C595.365 110.366 594.61 114.235 593.05 117.803C591.701 120.775 589.746 123.431 587.31 125.603C584.919 127.726 582.147 129.375 579.14 130.463C573.3 132.623 566.88 132.623 561.04 130.463C558.068 129.396 555.341 127.743 553.02 125.603C550.509 123.466 548.498 120.804 547.13 117.803C545.572 114.234 544.817 110.366 544.92 106.473V51.1229ZM559.94 106.473C559.94 110.103 560.94 112.783 562.96 114.493C564.966 116.16 567.492 117.073 570.1 117.073C572.708 117.073 575.234 116.16 577.24 114.493C579.25 112.773 580.257 110.1 580.26 106.473V51.1229C580.26 47.4929 579.253 44.8196 577.24 43.1029C575.234 41.4357 572.708 40.5228 570.1 40.5228C567.492 40.5228 564.966 41.4357 562.96 43.1029C560.95 44.8229 559.943 47.4963 559.94 51.1229V106.473Z" fill="#00E1BE"/>
<path d="M611.61 131.203V26.3931H626.04L648.71 89.543H649V26.3931H664.02V131.203H649.89L626.93 68.1929H626.64V131.203H611.61Z" fill="#00E1BE"/>
<path d="M681.24 131.203V26.3931H725.99V40.5229H696.25V71.293H722.16V85.4229H696.25V116.193H725.99V131.213H681.24V131.203Z" fill="#00E1BE"/>
<path d="M738.79 131.203V26.3931H753.22L775.89 89.543H776.18V26.3931H791.2V131.203H777.07L754.11 68.1929H753.82V131.203H738.79Z" fill="#00E1BE"/>
<path d="M856.12 101.323V107.803C856.138 110.963 855.512 114.093 854.28 117.003C853.073 119.868 851.351 122.488 849.2 124.733C847.04 126.991 844.467 128.814 841.62 130.103C838.686 131.439 835.494 132.118 832.27 132.093C829.334 132.082 826.412 131.686 823.58 130.913C820.661 130.136 817.948 128.729 815.63 126.793C813.178 124.707 811.197 122.123 809.82 119.213C808.171 115.487 807.391 111.435 807.54 107.363V49.6528C807.511 46.3788 808.112 43.1299 809.31 40.0829C810.439 37.2162 812.14 34.6096 814.31 32.4228C816.521 30.2289 819.149 28.5013 822.04 27.3427C825.2 26.0819 828.578 25.4568 831.98 25.5029C839.047 25.5029 844.787 27.8094 849.2 32.4228C851.397 34.7417 853.122 37.4656 854.28 40.4428C855.531 43.6546 856.155 47.0763 856.12 50.5229V56.413H841.1V51.413C841.161 48.6499 840.279 45.9482 838.6 43.7529C837.816 42.7074 836.791 41.8668 835.612 41.3027C834.434 40.7385 833.136 40.4679 831.83 40.5131C828.1 40.5131 825.623 41.6664 824.4 43.9731C823.08 46.6988 822.448 49.7063 822.56 52.7328V106.313C822.465 109.002 823.156 111.661 824.55 113.963C825.88 116.023 828.25 117.053 831.69 117.053C832.767 117.04 833.835 116.864 834.86 116.533C836.014 116.175 837.09 115.601 838.03 114.843C838.995 113.938 839.749 112.832 840.24 111.603C840.877 109.963 841.176 108.211 841.12 106.453V101.303H856.12V101.323Z" fill="#00E1BE"/>
<path d="M872.46 131.203V26.3931H887.48V131.203H872.46Z" fill="#00E1BE"/>
<path d="M898.95 131.203L922.36 26.3931H934.87L958.28 131.203H943.27L938.85 108.683H918.39L913.97 131.203H898.95ZM936.05 94.5532L928.69 56.5732H928.4L921.04 94.5532H936.05Z" fill="#00E1BE"/>
<path d="M969.76 131.203V26.3931H984.78V131.203H969.76Z" fill="#00E1BE"/>
<path d="M1051.61 56.5732H1036.6V53.1831C1036.68 50.0393 1035.83 46.9412 1034.17 44.2729C1032.55 41.7729 1029.83 40.5229 1026 40.5229C1024.26 40.4427 1022.52 40.8516 1021 41.7031C1019.77 42.4468 1018.71 43.4501 1017.91 44.643C1017.1 45.9739 1016.55 47.4466 1016.29 48.9829C1015.99 50.6599 1015.85 52.3599 1015.85 54.063C1015.83 55.7823 1015.91 57.5013 1016.07 59.2129C1016.19 60.4993 1016.57 61.7493 1017.17 62.893C1017.8 64.0149 1018.68 64.9736 1019.75 65.6929C1021.2 66.6488 1022.76 67.4407 1024.39 68.0532L1035.87 72.6128C1038.8 73.6594 1041.53 75.1762 1043.97 77.103C1045.97 78.7487 1047.62 80.7745 1048.83 83.063C1049.96 85.6104 1050.71 88.314 1051.04 91.083C1051.46 94.4768 1051.65 97.8938 1051.63 101.313C1051.66 105.447 1051.22 109.57 1050.31 113.603C1049.56 117.075 1048.11 120.357 1046.04 123.243C1043.92 126.042 1041.14 128.269 1037.94 129.723C1034.09 131.394 1029.92 132.197 1025.72 132.073C1022.24 132.101 1018.79 131.452 1015.56 130.163C1012.53 128.963 1009.77 127.159 1007.46 124.863C1005.19 122.595 1003.37 119.923 1002.09 116.983C1000.74 113.897 1000.06 110.56 1000.1 107.193V101.603H1015.11V106.313C1015.09 108.989 1015.94 111.599 1017.54 113.743C1019.16 115.943 1021.88 117.053 1025.71 117.053C1027.75 117.152 1029.8 116.775 1031.67 115.953C1033.06 115.246 1034.21 114.143 1034.98 112.783C1035.8 111.263 1036.28 109.579 1036.38 107.853C1036.53 105.943 1036.6 103.803 1036.6 101.453C1036.62 99.1929 1036.52 96.9332 1036.31 94.6831C1036.19 93.1975 1035.79 91.7482 1035.13 90.4131C1034.44 89.3337 1033.51 88.4273 1032.41 87.7632C1030.97 86.9219 1029.47 86.1835 1027.92 85.5532L1017.17 81.1328C1010.69 78.4828 1006.35 74.973 1004.14 70.603C1001.93 66.233 1000.83 60.7629 1000.83 54.1929C1000.81 50.403 1001.36 46.6315 1002.45 43.0029C1003.43 39.6601 1005.08 36.5533 1007.31 33.873C1009.44 31.2671 1012.14 29.1783 1015.19 27.7632C1018.78 26.1608 1022.67 25.3815 1026.6 25.4829C1030.12 25.4411 1033.6 26.1432 1036.83 27.5429C1039.82 28.85 1042.54 30.6979 1044.85 32.9931C1046.99 35.1095 1048.7 37.63 1049.86 40.4092C1051.02 43.1883 1051.62 46.1707 1051.62 49.1831V56.5718L1051.61 56.5732Z" fill="#00E1BE"/>
</svg>
