<svg width="642" height="280" viewBox="0 0 642 280" fill="none" xmlns="http://www.w3.org/2000/svg">
<path d="M374.7 88.7228H359.86V85.373C359.941 82.2645 359.107 79.2007 357.46 76.5629C355.86 74.0962 353.167 72.8596 349.38 72.8529C347.653 72.7754 345.939 73.1805 344.43 74.0229C343.213 74.762 342.169 75.7546 341.37 76.933C340.569 78.2519 340.026 79.711 339.77 81.2328C339.473 82.893 339.326 84.5764 339.33 86.2628C339.313 87.9655 339.386 89.668 339.55 91.3629C339.672 92.6358 340.043 93.8722 340.64 95.0028C341.259 96.1145 342.133 97.0637 343.19 97.7729C344.626 98.7168 346.162 99.4984 347.77 100.103L359.12 104.623C362.013 105.653 364.716 107.153 367.12 109.063C369.098 110.689 370.731 112.695 371.92 114.963C373.04 117.486 373.775 120.162 374.1 122.903C374.512 126.26 374.705 129.641 374.68 133.023C374.709 137.113 374.27 141.193 373.37 145.183C372.634 148.619 371.197 151.867 369.15 154.723C367.054 157.488 364.306 159.691 361.15 161.133C357.343 162.786 353.219 163.582 349.07 163.463C345.632 163.492 342.222 162.85 339.03 161.573C336.036 160.386 333.315 158.603 331.03 156.333C328.791 154.089 326.991 151.447 325.72 148.543C324.392 145.487 323.724 142.185 323.76 138.853V133.313H338.6V137.973C338.577 140.622 339.42 143.206 341 145.333C342.6 147.523 345.293 148.616 349.08 148.613C351.101 148.714 353.119 148.341 354.97 147.523C356.346 146.827 357.484 145.737 358.24 144.393C359.061 142.891 359.532 141.222 359.62 139.513C359.77 137.623 359.84 135.503 359.84 133.173C359.861 130.936 359.764 128.7 359.55 126.473C359.433 125.006 359.039 123.574 358.39 122.253C357.707 121.184 356.787 120.287 355.7 119.633C354.273 118.8 352.789 118.068 351.26 117.443L340.64 113.073C334.24 110.453 329.947 106.98 327.76 102.653C325.573 98.3263 324.483 92.913 324.49 86.413C324.469 82.6639 325.009 78.9327 326.09 75.3429C327.059 72.0376 328.692 68.9648 330.89 66.3129C332.998 63.7354 335.661 61.6673 338.68 60.2628C342.224 58.6775 346.078 57.9053 349.96 58.0028C353.436 57.9592 356.882 58.6546 360.07 60.0429C363.024 61.3335 365.713 63.1613 368 65.433C370.12 67.5277 371.803 70.0221 372.951 72.7721C374.1 75.5221 374.691 78.4729 374.69 81.453V88.7228H374.7Z" fill="white"/>
<path d="M389.4 162.583V58.863H403.66L422.72 113.783H423.01L441.93 58.863H456.34V162.583H441.5V99.5129H441.21L426.51 144.083H419.09L404.54 99.5129H404.25V162.583H389.4Z" fill="#00E1BE"/>
<path d="M467.25 162.583L490.39 58.863H502.76L525.9 162.583H511.06L506.69 140.293H486.46L482.09 162.583H467.25ZM503.92 126.313L496.64 88.7329H496.35L489.07 126.313H503.92Z" fill="#FCF7F7"/>
<path d="M536.81 162.583V58.863H560.68C578.14 58.863 586.87 69.0096 586.87 89.303C587.016 94.6404 586.048 99.9498 584.03 104.893C581.955 109.357 578.445 112.997 574.06 115.233L590.07 162.573H574.35L560.53 118.293H551.65V162.573H536.81V162.583ZM551.65 72.853V105.193H560.09C562.231 105.283 564.366 104.911 566.35 104.103C567.837 103.428 569.1 102.342 569.99 100.973C570.835 99.4118 571.378 97.7055 571.59 95.9431C572.177 91.3484 572.177 86.6977 571.59 82.103C571.358 80.28 570.763 78.522 569.84 76.9331C568 74.2131 564.507 72.853 559.36 72.853H551.65Z" fill="#FCF7F7"/>
<path d="M609.57 162.583V72.853H592.4V58.873H641.58V72.853H624.41V162.583H609.57Z" fill="#FCF7F7"/>
<path d="M323.91 279.033V177.283H337.92L356.64 231.163H356.93L375.51 177.283H389.66V279.033H375.08V217.153H374.79L360.36 260.883H353.07L338.78 217.153H338.49V279.033H323.91Z" fill="#F9F9F9"/>
<path d="M402.51 201.293C402.434 197.561 403.164 193.857 404.65 190.433C405.973 187.435 407.924 184.754 410.37 182.573C412.657 180.574 415.3 179.024 418.16 178.003C423.833 175.91 430.067 175.91 435.74 178.003C438.633 179.045 441.318 180.593 443.67 182.573C446.04 184.789 447.934 187.463 449.24 190.433C450.725 193.857 451.455 197.561 451.38 201.293V255.033C451.485 258.812 450.754 262.568 449.24 266.033C447.93 268.916 446.033 271.495 443.67 273.603C441.349 275.664 438.658 277.266 435.74 278.323C430.067 280.416 423.833 280.416 418.16 278.323C415.274 277.287 412.625 275.682 410.37 273.603C407.931 271.53 405.978 268.945 404.65 266.033C403.138 262.568 402.407 258.812 402.51 255.033V201.293ZM417.09 255.023C417.09 258.553 418.07 261.143 420.02 262.813C421.968 264.429 424.419 265.313 426.95 265.313C429.481 265.313 431.932 264.429 433.88 262.813C435.83 261.143 436.81 258.553 436.81 255.023V201.283C436.81 197.763 435.833 195.166 433.88 193.493C431.932 191.877 429.481 190.993 426.95 190.993C424.419 190.993 421.968 191.877 420.02 193.493C418.07 195.16 417.093 197.756 417.09 201.283V255.023Z" fill="#00E1BE"/>
<path d="M463.68 279.033V177.283H477.69L499.7 238.593H499.99V177.283H514.57V279.033H500.85L478.56 217.863H478.27V279.033H463.68Z" fill="#00E1BE"/>
<path d="M527.7 279.033V177.283H571.15V191.003H542.28V220.873H567.43V234.593H542.28V264.463H571.15V279.043H527.7V279.033Z" fill="#00E1BE"/>
<path d="M594.16 279.033V236.013L574.15 177.273H589.58L601.3 217.713H601.59L613.31 177.273H628.75L608.74 236.013V279.033H594.16Z" fill="#00E1BE"/>
<path d="M323.03 0.99292H328.02L337.68 24.2729H337.88L347.14 0.99292H352.13V38.1931H347.2V13.0029H347L338.79 31.9231H336.36L328.15 13.0029H327.95V38.1931H323.02V0.99292H323.03Z" fill="#F7F2F2"/>
<path d="M374.21 0.99292H392.67V4.66309H379.13V17.6331H391.09V21.083H379.13V34.533H392.86V38.2031H374.2V0.99292H374.21Z" fill="#F7F2F2"/>
<path d="M417.37 0.99292L430.38 28.6831V0.99292H435.31V38.1931H430.38L417.37 11.033V38.1931H412.44V0.99292H417.37Z" fill="#F7F2F2"/>
<path d="M476.5 0.99292V4.66309H467.96V38.2031H463.03V4.66309H454.55V0.99292H476.5Z" fill="#F7F2F2"/>
<path d="M493.78 10.4031C493.78 7.64308 494.04 4.98312 497.07 2.69312C499.392 1.23602 502.078 0.463135 504.82 0.463135C507.562 0.463135 510.248 1.23602 512.57 2.69312C515.59 4.98312 515.86 7.63308 515.86 10.4031V28.793C515.86 31.553 515.6 34.2129 512.57 36.5029C510.248 37.96 507.562 38.7329 504.82 38.7329C502.078 38.7329 499.392 37.96 497.07 36.5029C494.05 34.2129 493.78 31.563 493.78 28.793V10.4031ZM510.93 9.55298C511.008 8.81333 510.891 8.0663 510.591 7.38574C510.291 6.70519 509.818 6.11484 509.22 5.6731C507.916 4.80578 506.386 4.34302 504.82 4.34302C503.254 4.34302 501.724 4.80578 500.42 5.6731C499.822 6.11484 499.349 6.70519 499.049 7.38574C498.749 8.0663 498.632 8.81333 498.71 9.55298V29.6431C498.636 30.3896 498.755 31.1425 499.054 31.8303C499.353 32.5182 499.824 33.118 500.42 33.573C501.735 34.4093 503.261 34.8535 504.82 34.8535C506.378 34.8535 507.905 34.4093 509.22 33.573C509.816 33.1176 510.286 32.5176 510.585 31.8298C510.884 31.1421 511.003 30.3895 510.93 29.6431V9.55298Z" fill="#F7F2F2"/>
<path d="M546.8 0.99292C551.79 0.99292 558.96 1.57299 558.96 9.81299V12.7329C558.96 16.8229 556.86 19.5931 552.65 20.6531L560.01 38.1931H554.89L548.12 21.4531H542.54V38.1931H537.61V0.99292H546.8ZM542.53 18.0029H547.39C551 18.0029 554.03 16.3029 554.03 13.0029V9.49292C554.03 4.87292 549.63 4.44312 547.13 4.44312H542.53V18.0029Z" fill="#F7F2F2"/>
<path d="M585.23 0.99292V38.1931H580.3V0.99292H585.23Z" fill="#F7F2F2"/>
<path d="M625.18 38.2031L622.88 29.9131H612.5L610.27 38.2031H605.47L615.46 1.00293H619.93L629.98 38.2031H625.18ZM617.56 8.9729L613.16 26.5129H622.16L617.56 8.9729Z" fill="#F7F2F2"/>
<path d="M156.36 57.4729H0.410004V115.133H156.36V57.4729Z" fill="#00E1BE"/>
<path d="M287.74 120.803H0.410004V178.463H287.74V120.803Z" fill="#00E1BE"/>
<path d="M14.29 109.983V72.063H7.03006V66.1531H27.8401V72.063H20.58V109.983H14.29Z" fill="#001E1F"/>
<path d="M52.45 66.1531V100.133C52.4634 101.495 52.2015 102.845 51.68 104.103C51.1706 105.314 50.4263 106.412 49.49 107.333C48.5519 108.271 47.446 109.024 46.23 109.553C44.9857 110.088 43.6444 110.36 42.29 110.353C40.9451 110.362 39.6132 110.09 38.38 109.553C37.1718 109.025 36.0756 108.272 35.15 107.333C34.2175 106.402 33.4648 105.307 32.93 104.103C32.3892 102.85 32.1167 101.498 32.13 100.133V66.1531H38.41V99.5129C38.3577 100.133 38.429 100.757 38.6195 101.349C38.81 101.941 39.1161 102.49 39.52 102.963C40.2662 103.675 41.2582 104.073 42.29 104.073C43.3217 104.073 44.3138 103.675 45.06 102.963C45.4639 102.49 45.77 101.941 45.9605 101.349C46.151 100.757 46.2222 100.133 46.17 99.5129V66.1531H52.45Z" fill="#001E1F"/>
<path d="M59.9001 109.983V66.1531H69.2C72.81 66.1531 75.55 67.1397 77.42 69.113C79.29 71.0864 80.2233 73.8762 80.22 77.4829V97.9829C80.22 102.083 79.2233 105.11 77.23 107.063C75.2367 109.016 72.3734 109.99 68.64 109.983H59.9001ZM66.18 72.063V104.073H69.07C69.7538 104.144 70.4448 104.062 71.0933 103.834C71.7418 103.606 72.3315 103.237 72.82 102.753C73.6589 101.536 74.0511 100.066 73.93 98.593V77.4829C74.0168 76.0716 73.6488 74.6696 72.88 73.4829C72.18 72.5429 70.91 72.063 69.06 72.063H66.18Z" fill="#001E1F"/>
<path d="M87.29 76.4929C87.261 74.8853 87.5747 73.29 88.21 71.8129C88.7853 70.5241 89.6231 69.3697 90.67 68.423C91.6523 67.5609 92.7891 66.8925 94.02 66.4531C96.4653 65.5462 99.1547 65.5462 101.6 66.4531C102.847 66.9031 104.005 67.57 105.02 68.423C106.043 69.377 106.86 70.5307 107.42 71.8129C108.062 73.2879 108.376 74.8846 108.34 76.4929V99.643C108.383 101.271 108.069 102.889 107.42 104.383C106.853 105.623 106.036 106.733 105.02 107.643C104.018 108.528 102.857 109.217 101.6 109.673C99.1547 110.58 96.4653 110.58 94.02 109.673C92.7786 109.228 91.6393 108.537 90.67 107.643C89.6181 106.752 88.7778 105.639 88.21 104.383C87.5565 102.891 87.2422 101.272 87.29 99.643V76.4929ZM93.57 99.643C93.517 100.26 93.6026 100.881 93.8206 101.461C94.0386 102.04 94.3835 102.564 94.83 102.993C95.6701 103.691 96.7278 104.073 97.82 104.073C98.9122 104.073 99.9699 103.691 100.81 102.993C101.255 102.563 101.599 102.039 101.817 101.46C102.035 100.88 102.121 100.26 102.07 99.643V76.4929C102.123 75.8759 102.037 75.2549 101.819 74.6752C101.601 74.0956 101.257 73.5721 100.81 73.143C99.9699 72.4451 98.9122 72.0629 97.82 72.0629C96.7278 72.0629 95.6701 72.4451 94.83 73.143C94.3851 73.5733 94.0412 74.0969 93.8233 74.6762C93.6054 75.2556 93.5189 75.876 93.57 76.4929V99.643Z" fill="#001E1F"/>
<path d="M128.04 76.4929C128.011 74.8853 128.325 73.29 128.96 71.8129C129.535 70.5241 130.373 69.3697 131.42 68.423C132.402 67.5609 133.539 66.8925 134.77 66.4531C137.215 65.5462 139.905 65.5462 142.35 66.4531C143.597 66.9031 144.755 67.57 145.77 68.423C146.793 69.377 147.61 70.5307 148.17 71.8129C148.812 73.2879 149.126 74.8846 149.09 76.4929V99.643C149.133 101.271 148.819 102.889 148.17 104.383C147.603 105.623 146.786 106.733 145.77 107.643C144.768 108.528 143.607 109.217 142.35 109.673C139.905 110.58 137.215 110.58 134.77 109.673C133.529 109.228 132.389 108.537 131.42 107.643C130.368 106.752 129.528 105.639 128.96 104.383C128.306 102.891 127.992 101.272 128.04 99.643V76.4929ZM134.32 99.643C134.267 100.26 134.353 100.881 134.571 101.461C134.789 102.04 135.134 102.564 135.58 102.993C136.42 103.691 137.478 104.073 138.57 104.073C139.662 104.073 140.72 103.691 141.56 102.993C142.005 102.563 142.349 102.039 142.567 101.46C142.785 100.88 142.871 100.26 142.82 99.643V76.4929C142.873 75.8759 142.787 75.2549 142.569 74.6752C142.351 74.0956 142.007 73.5721 141.56 73.143C140.72 72.4451 139.662 72.0629 138.57 72.0629C137.478 72.0629 136.42 72.4451 135.58 73.143C135.135 73.5733 134.791 74.0969 134.573 74.6762C134.355 75.2556 134.269 75.876 134.32 76.4929V99.643Z" fill="#001E1F"/>
<path d="M9.80002 138.053C9.77108 136.445 10.0847 134.85 10.72 133.373C11.2953 132.084 12.1332 130.929 13.18 129.983C14.1624 129.121 15.2991 128.452 16.5301 128.013C18.9754 127.106 21.6647 127.106 24.11 128.013C25.3572 128.463 26.515 129.13 27.5301 129.983C28.5535 130.937 29.3703 132.091 29.93 133.373C30.572 134.848 30.8859 136.445 30.85 138.053V161.203C30.8851 162.75 30.5706 164.285 29.93 165.693L33.81 168.833L30.61 172.653L26.92 169.633C25.0594 171.144 22.7264 171.951 20.3301 171.913C19.0369 171.907 17.7546 171.677 16.54 171.233C15.2986 170.788 14.1594 170.097 13.19 169.203C12.1382 168.313 11.2978 167.199 10.73 165.943C10.0765 164.451 9.76226 162.832 9.81003 161.203V138.053H9.80002ZM16.07 161.203C16.017 161.82 16.1026 162.441 16.3207 163.021C16.5387 163.6 16.8835 164.124 17.3301 164.553C18.1598 165.269 19.2244 165.653 20.32 165.633C20.7834 165.657 21.2459 165.571 21.67 165.383L18.8401 163.103L22.04 159.283L24.56 161.313V138.043C24.6131 137.426 24.5274 136.805 24.3094 136.225C24.0914 135.646 23.7465 135.122 23.3 134.693C22.4599 133.995 21.4022 133.613 20.31 133.613C19.2179 133.613 18.1601 133.995 17.32 134.693C16.8751 135.123 16.5312 135.647 16.3133 136.226C16.0954 136.806 16.0089 137.426 16.06 138.043V161.203H16.07Z" fill="#001E1F"/>
<path d="M58.24 127.713V161.693C58.2534 163.055 57.9914 164.405 57.47 165.663C56.9606 166.874 56.2163 167.972 55.28 168.893C54.3419 169.831 53.2361 170.584 52.02 171.113C50.7757 171.648 49.4344 171.92 48.08 171.913C46.7351 171.922 45.4031 171.65 44.17 171.113C42.9618 170.585 41.8655 169.832 40.94 168.893C40.0075 167.962 39.2548 166.867 38.72 165.663C38.1792 164.41 37.9067 163.058 37.92 161.693V127.713H44.2V161.073C44.1478 161.693 44.219 162.317 44.4095 162.909C44.6 163.501 44.9061 164.05 45.31 164.523C46.0562 165.235 47.0483 165.633 48.08 165.633C49.1118 165.633 50.1038 165.235 50.85 164.523C51.2539 164.05 51.56 163.501 51.7505 162.909C51.941 162.317 52.0123 161.693 51.96 161.073V127.713H58.24Z" fill="#001E1F"/>
<path d="M65.69 171.543V127.713H84.4001V133.623H71.97V146.493H82.8V152.403H71.97V165.273H84.4001V171.553H65.69V171.543Z" fill="#001E1F"/>
<path d="M124.29 127.713L115.3 171.543H109.76L100.83 127.713H107.48L112.47 158.303H112.59L117.64 127.713H124.29Z" fill="#001E1F"/>
<path d="M129.21 138.053C129.181 136.445 129.495 134.85 130.13 133.373C130.705 132.084 131.543 130.929 132.59 129.983C133.572 129.121 134.709 128.452 135.94 128.013C138.385 127.106 141.075 127.106 143.52 128.013C144.767 128.463 145.925 129.13 146.94 129.983C147.963 130.937 148.78 132.091 149.34 133.373C149.982 134.848 150.296 136.445 150.26 138.053V161.203C150.303 162.831 149.989 164.449 149.34 165.943C148.773 167.183 147.956 168.293 146.94 169.203C145.938 170.088 144.777 170.777 143.52 171.233C141.075 172.14 138.385 172.14 135.94 171.233C134.699 170.788 133.559 170.097 132.59 169.203C131.538 168.313 130.698 167.199 130.13 165.943C129.476 164.451 129.162 162.832 129.21 161.203V138.053ZM135.49 161.203C135.437 161.82 135.523 162.441 135.741 163.021C135.959 163.6 136.304 164.124 136.75 164.553C137.59 165.251 138.648 165.633 139.74 165.633C140.832 165.633 141.89 165.251 142.73 164.553C143.175 164.123 143.519 163.599 143.737 163.02C143.955 162.44 144.041 161.82 143.99 161.203V138.053C144.043 137.436 143.957 136.815 143.739 136.235C143.521 135.656 143.176 135.132 142.73 134.703C141.89 134.005 140.832 133.623 139.74 133.623C138.648 133.623 137.59 134.005 136.75 134.703C136.305 135.133 135.961 135.657 135.743 136.236C135.525 136.816 135.439 137.436 135.49 138.053V161.203Z" fill="#001E1F"/>
<path d="M177.29 159.043V161.753C177.295 163.075 177.033 164.384 176.52 165.603C176.018 166.801 175.299 167.896 174.4 168.833C173.494 169.776 172.419 170.539 171.23 171.083C170.002 171.639 168.668 171.922 167.32 171.913C166.094 171.91 164.873 171.745 163.69 171.423C162.47 171.101 161.337 170.514 160.37 169.703C159.345 168.83 158.517 167.749 157.94 166.533C157.248 164.974 156.923 163.277 156.99 161.573V137.443C156.979 136.075 157.23 134.717 157.73 133.443C158.2 132.244 158.911 131.155 159.82 130.243C160.744 129.327 161.842 128.606 163.05 128.123C164.37 127.599 165.78 127.337 167.2 127.353C168.536 127.3 169.868 127.531 171.109 128.029C172.35 128.527 173.471 129.281 174.4 130.243C175.318 131.211 176.039 132.349 176.52 133.593C177.042 134.938 177.303 136.37 177.29 137.813V140.273H171.01V138.183C171.035 137.028 170.665 135.899 169.96 134.983C169.632 134.547 169.203 134.197 168.71 133.962C168.218 133.727 167.676 133.614 167.13 133.633C165.57 133.633 164.53 134.113 164.02 135.083C163.47 136.222 163.205 137.478 163.25 138.743V161.153C163.212 162.277 163.501 163.389 164.08 164.353C164.423 164.81 164.879 165.169 165.403 165.396C165.928 165.622 166.502 165.707 167.07 165.643C167.519 165.638 167.964 165.564 168.39 165.423C168.872 165.275 169.321 165.034 169.71 164.713C170.113 164.337 170.428 163.876 170.63 163.363C170.899 162.679 171.025 161.947 171 161.213V159.063H177.29V159.043Z" fill="#001E1F"/>
<path d="M183.94 171.543V127.713H202.65V133.623H190.22V146.493H201.05V152.403H190.22V165.273H202.65V171.553H183.94V171.543ZM184.06 125.743L190.09 117.063H195.88L201.91 125.743H197.11L192.99 119.893L188.87 125.743H184.06Z" fill="#001E1F"/>
<path d="M242.54 127.713L233.55 171.543H228.01L219.08 127.713H225.73L230.72 158.303H230.84L235.89 127.713H242.54Z" fill="#001E1F"/>
<path d="M242.73 171.543L252.52 127.713H257.75L267.54 171.543H261.26L259.41 162.123H250.85L249 171.543H242.73ZM258.24 156.213L255.16 140.333H255.04L251.96 156.213H258.24Z" fill="#001E1F"/>
<path d="M272.33 171.543V127.713H278.61V171.543H272.33Z" fill="#001E1F"/>
<path d="M7.33005 233.103L17.12 189.273H22.35L32.14 233.103H25.86L24.01 223.683H15.45L13.6 233.103H7.33005ZM22.85 217.773L19.7701 201.893H19.6501L16.57 217.773H22.85Z" fill="#00E1BE"/>
<path d="M36.76 233.103V189.273H46.18C47.727 189.248 49.2676 189.478 50.74 189.953C52.1111 190.444 53.3382 191.269 54.31 192.353C55.3741 193.491 56.1372 194.876 56.5301 196.383C56.9965 198.433 57.2047 200.532 57.1501 202.633C57.1732 204.303 57.0594 205.972 56.81 207.623C56.5807 208.979 56.0881 210.277 55.36 211.443C54.5315 212.849 53.3398 214.006 51.91 214.793C50.155 215.665 48.2078 216.078 46.25 215.993H43.05V233.103H36.76ZM43.04 195.183V210.083H46.06C47.0731 210.137 48.0845 209.949 49.01 209.533C49.6752 209.198 50.215 208.658 50.55 207.993C50.9033 207.283 51.1011 206.506 51.13 205.713C51.19 204.813 51.22 203.803 51.22 202.693C51.22 201.663 51.2 200.693 51.16 199.773C51.1356 198.935 50.9488 198.11 50.61 197.343C50.3005 196.665 49.7818 196.104 49.13 195.743C48.2472 195.327 47.2744 195.138 46.3 195.193H43.04V195.183Z" fill="#00E1BE"/>
<path d="M63.35 233.103V189.273H73.45C80.84 189.273 84.5334 193.563 84.5301 202.143C84.5925 204.399 84.1838 206.644 83.33 208.733C82.4517 210.621 80.9658 212.159 79.11 213.103L85.88 233.113H79.23L73.38 214.403H69.62V233.113H63.35V233.103ZM69.63 195.183V208.853H73.2C74.1062 208.892 75.0101 208.735 75.85 208.393C76.4785 208.109 77.0129 207.651 77.39 207.073C77.7453 206.414 77.9758 205.696 78.07 204.953C78.31 203.014 78.31 201.052 78.07 199.113C77.9717 198.341 77.7201 197.597 77.33 196.923C76.55 195.773 75.0734 195.2 72.9001 195.203H69.63V195.183Z" fill="#00E1BE"/>
<path d="M91.11 233.103V189.273H109.82V195.183H97.39V208.053H108.22V213.963H97.39V226.833H109.82V233.113H91.11V233.103Z" fill="#00E1BE"/>
<path d="M115.18 233.103V189.273H121.21L130.69 215.683H130.81V189.273H137.09V233.103H131.18L121.58 206.753H121.46V233.103H115.18Z" fill="#00E1BE"/>
<path d="M144.3 233.103V189.273H153.6C157.21 189.273 159.95 190.26 161.82 192.233C163.69 194.206 164.623 196.996 164.62 200.603V221.103C164.62 225.203 163.623 228.23 161.63 230.183C159.637 232.136 156.773 233.11 153.04 233.103H144.3ZM150.58 195.183V227.193H153.47C154.154 227.264 154.845 227.183 155.493 226.954C156.142 226.726 156.731 226.357 157.22 225.873C158.059 224.656 158.451 223.186 158.33 221.713V200.603C158.417 199.192 158.049 197.79 157.28 196.603C156.58 195.663 155.31 195.183 153.46 195.183H150.58Z" fill="#00E1BE"/>
<path d="M172.06 233.103V189.273H190.77V195.183H178.34V208.053H189.17V213.963H178.34V226.833H190.77V233.113H172.06V233.103Z" fill="#00E1BE"/>
<path d="M196.37 233.103V189.273H206.47C213.86 189.273 217.553 193.563 217.55 202.143C217.612 204.399 217.204 206.644 216.35 208.733C215.472 210.621 213.986 212.159 212.13 213.103L218.9 233.113H212.25L206.4 214.403H202.64V233.113H196.37V233.103ZM202.65 195.183V208.853H206.22C207.126 208.892 208.03 208.735 208.87 208.393C209.499 208.109 210.033 207.651 210.41 207.073C210.765 206.414 210.996 205.696 211.09 204.953C211.33 203.014 211.33 201.052 211.09 199.113C210.992 198.341 210.74 197.597 210.35 196.923C209.57 195.773 208.093 195.2 205.92 195.203H202.65V195.183Z" fill="#00E1BE"/>
<path d="M223.77 219.123V212.843H230.05V219.123H223.77ZM223.77 233.103V226.823H230.05V233.103H223.77Z" fill="white"/>
</svg>
