<svg width="725" height="64" viewBox="0 0 725 64" fill="none" xmlns="http://www.w3.org/2000/svg">
<path d="M0.00513259 15.0303C-0.0404285 12.7754 0.403065 10.5373 1.30512 8.47022C2.10213 6.65835 3.27862 5.03856 4.75513 3.72022C6.13582 2.50976 7.73428 1.57284 9.46515 0.959968C12.8918 -0.306968 16.6585 -0.306968 20.0851 0.959968C21.8343 1.5855 23.4568 2.52062 24.8751 3.72022C26.3056 5.06158 27.4516 6.67694 28.2451 8.47022C29.1425 10.5388 29.5858 12.7758 29.5451 15.0303V47.5C29.5994 49.6718 29.1547 51.8269 28.2451 53.7998L33.6851 58.2002L29.1951 63.5498L24.0151 59.3198C21.4059 61.4374 18.1352 62.5703 14.7752 62.52C12.9634 62.5147 11.1664 62.193 9.46515 61.5698C7.71968 60.9458 6.11779 59.9769 4.75513 58.7202C3.28032 57.4677 2.10196 55.9033 1.30512 54.1401C0.390301 52.0453 -0.0534655 49.7753 0.00513259 47.4902V15.0303ZM8.80512 47.5C8.73236 48.3672 8.85342 49.2396 9.15955 50.0542C9.46569 50.8688 9.94926 51.6053 10.5751 52.21C11.7385 53.2117 13.2303 53.7495 14.7651 53.7202C15.4168 53.7494 16.0666 53.6296 16.6651 53.3701L12.6951 50.1699L17.1851 44.8198L20.7251 47.6699V15.0303C20.7979 14.1631 20.6768 13.2902 20.3707 12.4756C20.0645 11.661 19.581 10.9245 18.9551 10.3198C17.7769 9.34402 16.295 8.81007 14.7651 8.81007C13.2353 8.81007 11.7534 9.34402 10.5751 10.3198C9.94926 10.9245 9.46569 11.661 9.15955 12.4756C8.85342 13.2902 8.73236 14.1631 8.80512 15.0303V47.5Z" fill="#001E1F"/>
<path d="M67.9652 0.52002V48.1899C67.9919 50.0665 67.6379 51.9291 66.9246 53.665C66.2113 55.401 65.1536 56.9744 63.8151 58.29C62.4994 59.6076 60.9451 60.6629 59.2351 61.3999C57.4891 62.1519 55.6061 62.5333 53.7052 62.52C51.8204 62.5326 49.9538 62.151 48.2251 61.3999C44.8198 59.8879 42.0972 57.1656 40.5852 53.7603C39.8244 52.003 39.4428 50.1047 39.4652 48.1899V0.52002H48.2752V47.3198C48.2028 48.1889 48.3024 49.064 48.5684 49.8945C48.8343 50.725 49.2614 51.4948 49.8251 52.1602C50.3323 52.6718 50.9394 53.0732 51.6087 53.3398C52.278 53.6065 52.9951 53.7326 53.7152 53.71C54.4347 53.7284 55.1505 53.6004 55.8192 53.334C56.4878 53.0675 57.0954 52.6684 57.6051 52.1602C58.6451 51.1302 59.1551 49.5098 59.1551 47.3198V0.52002H67.9652Z" fill="#001E1F"/>
<path d="M73.4051 62.0103L87.1351 0.52002H94.4751L108.205 62.0103H99.3951L96.8051 48.7998H84.8051L82.2151 62.0103H73.4051ZM95.1651 40.5L90.8451 18.2202H90.6751L86.3551 40.5H95.1651Z" fill="#001E1F"/>
<path d="M114.335 62.0103V0.52002H122.795L136.095 37.5698H136.265V0.52002H145.075V62.0103H136.785L123.315 25.0498H123.145V62.0103H114.335Z" fill="#001E1F"/>
<path d="M160.965 62.0103V8.81006H150.775V0.52002H179.965V8.81006H169.775V62.0103H160.965Z" fill="#001E1F"/>
<path d="M184.455 15.0303C184.41 12.7754 184.853 10.5373 185.755 8.47022C186.552 6.65835 187.729 5.03856 189.205 3.72022C190.586 2.50976 192.184 1.57284 193.915 0.959968C197.342 -0.306968 201.108 -0.306968 204.535 0.959968C206.284 1.5855 207.907 2.52062 209.325 3.72022C210.756 5.06158 211.902 6.67694 212.695 8.47022C213.592 10.5388 214.036 12.7758 213.995 15.0303V47.5C214.059 49.7855 213.615 52.0566 212.695 54.1499C211.903 55.8948 210.755 57.4549 209.325 58.73C207.924 59.9759 206.298 60.9432 204.535 61.5801C201.108 62.847 197.342 62.847 193.915 61.5801C192.17 60.9561 190.568 59.9867 189.205 58.73C187.73 57.4775 186.552 55.9131 185.755 54.1499C184.84 52.0551 184.397 49.7851 184.455 47.5V15.0303ZM193.265 47.5C193.192 48.3672 193.313 49.2396 193.62 50.0542C193.926 50.8688 194.409 51.6053 195.035 52.21C196.213 53.1858 197.695 53.7197 199.225 53.7197C200.755 53.7197 202.237 53.1858 203.415 52.21C204.041 51.6053 204.525 50.8688 204.831 50.0542C205.137 49.2396 205.258 48.3672 205.185 47.5V15.0303C205.258 14.1631 205.137 13.2902 204.831 12.4756C204.525 11.661 204.041 10.9245 203.415 10.3198C202.237 9.34402 200.755 8.81007 199.225 8.81007C197.695 8.81007 196.213 9.34402 195.035 10.3198C194.409 10.9245 193.926 11.661 193.62 12.4756C193.313 13.2902 193.192 14.1631 193.265 15.0303V47.5Z" fill="#001E1F"/>
<path d="M272.015 0.52002L259.405 62.0103H251.635L239.115 0.52002H248.445L255.435 43.4399H255.605L262.685 0.52002H272.015Z" fill="#001E1F"/>
<path d="M272.275 62.0103L286.005 0.52002H293.345L307.075 62.0103H298.265L295.675 48.7998H283.675L281.085 62.0103H272.275ZM294.035 40.5L289.715 18.2202H289.545L285.225 40.5H294.035Z" fill="#001E1F"/>
<path d="M313.555 62.0103V0.52002H322.365V53.2002H339.805V62.0103H313.555Z" fill="#001E1F"/>
<path d="M347.665 62.0103V0.52002H373.915V8.81006H356.475V26.8599H371.675V35.1499H356.475V53.2002H373.915V62.0103H347.665Z" fill="#001E1F"/>
<path d="M405.775 62.0103V8.81006H395.585V0.52002H424.775V8.81006H414.585V62.0103H405.775Z" fill="#001E1F"/>
<path d="M459.315 0.52002V48.1899C459.342 50.0665 458.988 51.9291 458.275 53.665C457.561 55.401 456.503 56.9744 455.165 58.29C453.848 59.6055 452.294 60.6604 450.585 61.3999C448.839 62.1519 446.956 62.5333 445.055 62.52C443.17 62.5326 441.304 62.151 439.575 61.3999C436.17 59.8879 433.447 57.1656 431.935 53.7603C431.174 52.003 430.793 50.1047 430.815 48.1899V0.52002H439.625V47.3198C439.553 48.1889 439.652 49.064 439.918 49.8945C440.184 50.725 440.611 51.4948 441.175 52.1602C441.682 52.6718 442.289 53.0732 442.959 53.3398C443.628 53.6065 444.345 53.7326 445.065 53.71C445.785 53.7294 446.501 53.6019 447.17 53.3354C447.838 53.069 448.446 52.6692 448.955 52.1602C449.995 51.1202 450.505 49.5098 450.505 47.3198V0.52002H459.315Z" fill="#001E1F"/>
<path d="M469.765 62.0103V0.52002H482.805C487.872 0.52002 491.715 1.90326 494.335 4.66992C496.955 7.43659 498.265 11.3502 498.265 16.4102V45.1699C498.265 50.9299 496.868 55.1768 494.075 57.9102C491.282 60.6435 487.265 62.0103 482.025 62.0103H469.765ZM478.575 8.81006V53.7202H482.635C485.102 53.7202 486.858 53.0999 487.905 51.8599C488.945 50.6199 489.455 48.6803 489.455 46.0303V16.4102C489.578 14.4311 489.062 12.4645 487.985 10.7998C487.005 9.4798 485.225 8.81006 482.635 8.81006H478.575Z" fill="#001E1F"/>
<path d="M508.195 15.0303C508.151 12.7766 508.591 10.5396 509.485 8.47025C510.282 6.65579 511.462 5.03535 512.945 3.72025C514.326 2.50978 515.924 1.57286 517.655 0.959991C520.24 0.0295829 523.025 -0.205066 525.729 0.279327C528.434 0.76372 530.963 1.9504 533.065 3.72025C534.496 5.0616 535.642 6.67697 536.435 8.47025C537.329 10.5396 537.769 12.7766 537.725 15.0303V47.5C537.787 49.7844 537.346 52.0543 536.435 54.1499C535.643 55.8948 534.495 57.4549 533.065 58.73C531.664 59.9759 530.038 60.9433 528.275 61.5801C524.848 62.847 521.082 62.847 517.655 61.5801C515.908 60.9583 514.306 59.9887 512.945 58.73C511.47 57.4752 510.289 55.9116 509.485 54.1499C508.574 52.0543 508.133 49.7844 508.195 47.5V15.0303ZM517.005 47.5C516.932 48.3672 517.053 49.2396 517.359 50.0542C517.666 50.8689 518.149 51.6053 518.775 52.21C519.953 53.1858 521.435 53.7198 522.965 53.7198C524.495 53.7198 525.977 53.1858 527.155 52.21C527.781 51.6053 528.264 50.8689 528.571 50.0542C528.877 49.2396 528.998 48.3672 528.925 47.5V15.0303C528.998 14.1631 528.877 13.2902 528.571 12.4756C528.264 11.661 527.781 10.9245 527.155 10.3199C525.977 9.34404 524.495 8.81009 522.965 8.81009C521.435 8.81009 519.953 9.34404 518.775 10.3199C518.149 10.9245 517.666 11.661 517.359 12.4756C517.053 13.2902 516.932 14.1631 517.005 15.0303V47.5Z" fill="#001E1F"/>
<path d="M566.135 62.0103V0.52002H574.945V62.0103H566.135Z" fill="#001E1F"/>
<path d="M614.155 18.2202H605.345V16.23C605.395 14.3883 604.901 12.5731 603.925 11.0102C602.975 9.54024 601.378 8.80672 599.135 8.81005C598.11 8.76456 597.093 9.0033 596.195 9.49999C595.472 9.93717 594.855 10.5277 594.385 11.23C593.911 12.0128 593.589 12.8782 593.435 13.7803C593.26 14.7639 593.173 15.7612 593.175 16.7602C593.164 17.7685 593.208 18.7767 593.305 19.7803C593.376 20.5364 593.597 21.2705 593.955 21.9399C594.322 22.5978 594.84 23.1599 595.465 23.5801C596.318 24.1387 597.231 24.6014 598.185 24.9599L604.925 27.6401C606.64 28.2551 608.244 29.1431 609.675 30.27C610.85 31.2337 611.82 32.424 612.525 33.77C613.188 35.2669 613.622 36.8544 613.815 38.48C614.061 40.4704 614.178 42.4745 614.165 44.48C614.184 46.9053 613.922 49.3246 613.385 51.6899C612.947 53.7274 612.096 55.6538 610.885 57.3501C609.641 58.9906 608.009 60.2962 606.135 61.1499C603.875 62.13 601.427 62.6015 598.965 62.5303C596.925 62.5444 594.901 62.1639 593.005 61.4101C591.227 60.7065 589.611 59.648 588.255 58.2998C586.93 56.9668 585.862 55.4009 585.105 53.6802C584.315 51.8708 583.916 49.9144 583.935 47.9399V44.6601H592.745V47.4199C592.729 48.9894 593.228 50.5212 594.165 51.7803C595.115 53.0803 596.715 53.7202 598.955 53.7202C600.156 53.7772 601.355 53.5543 602.455 53.0698C603.271 52.6548 603.946 52.0078 604.395 51.2099C604.879 50.3191 605.159 49.3319 605.215 48.3198C605.305 47.1998 605.345 45.94 605.345 44.56C605.357 43.2347 605.3 41.9094 605.175 40.5898C605.108 39.7198 604.874 38.871 604.485 38.0898C604.08 37.4559 603.532 36.9254 602.885 36.54C602.038 36.0492 601.159 35.6151 600.255 35.2402L593.955 32.6499C590.155 31.0999 587.609 29.0433 586.315 26.48C584.922 23.4665 584.258 20.1678 584.375 16.8501C584.365 14.6284 584.685 12.4176 585.325 10.29C585.895 8.32889 586.866 6.50712 588.175 4.93993C589.424 3.41162 591.004 2.18731 592.795 1.35985C594.897 0.419863 597.183 -0.0378262 599.485 0.0200089C601.548 -0.00753979 603.594 0.404917 605.485 1.22997C607.239 1.99804 608.835 3.08304 610.195 4.43017C611.454 5.67125 612.453 7.15027 613.135 8.78124C613.816 10.4122 614.167 12.1625 614.165 13.9302V18.2212L614.155 18.2202Z" fill="#001E1F"/>
<path d="M651.365 18.2202H642.555V16.23C642.605 14.3883 642.111 12.5731 641.135 11.0102C640.185 9.54024 638.589 8.80672 636.345 8.81005C635.32 8.76456 634.303 9.0033 633.405 9.49999C632.682 9.93717 632.065 10.5277 631.595 11.23C631.121 12.0128 630.799 12.8782 630.645 13.7803C630.47 14.7639 630.383 15.7612 630.385 16.7602C630.374 17.7685 630.418 18.7767 630.515 19.7803C630.586 20.5364 630.807 21.2705 631.165 21.9399C631.532 22.5978 632.05 23.1599 632.675 23.5801C633.528 24.1387 634.44 24.6014 635.395 24.9599L642.135 27.6401C643.85 28.2551 645.454 29.1431 646.885 30.27C648.06 31.2337 649.03 32.424 649.735 33.77C650.398 35.2669 650.832 36.8544 651.025 38.48C651.271 40.4704 651.388 42.4745 651.375 44.48C651.394 46.9053 651.132 49.3246 650.595 51.6899C650.157 53.7274 649.306 55.6538 648.095 57.3501C646.851 58.9906 645.219 60.2962 643.345 61.1499C641.085 62.13 638.637 62.6015 636.175 62.5303C634.135 62.5444 632.111 62.1639 630.215 61.4101C628.437 60.7065 626.821 59.648 625.465 58.2998C624.14 56.9668 623.072 55.4009 622.315 53.6802C621.525 51.8708 621.126 49.9144 621.145 47.9399V44.6601H629.955V47.4199C629.939 48.9894 630.438 50.5212 631.375 51.7803C632.325 53.0803 633.925 53.7202 636.165 53.7202C637.366 53.7772 638.564 53.5543 639.665 53.0698C640.481 52.6548 641.156 52.0078 641.605 51.2099C642.089 50.3191 642.369 49.3319 642.425 48.3198C642.515 47.1998 642.555 45.94 642.555 44.56C642.567 43.2347 642.51 41.9094 642.385 40.5898C642.318 39.7198 642.084 38.871 641.695 38.0898C641.29 37.4559 640.742 36.9254 640.095 36.54C639.248 36.0492 638.37 35.6151 637.465 35.2402L631.165 32.6499C627.365 31.0999 624.818 29.0433 623.525 26.48C622.132 23.4665 621.468 20.1678 621.585 16.8501C621.575 14.6284 621.895 12.4176 622.535 10.29C623.105 8.32889 624.076 6.50712 625.385 4.93993C626.634 3.41162 628.214 2.18731 630.005 1.35985C632.107 0.419863 634.393 -0.0378262 636.695 0.0200089C638.758 -0.00753979 640.804 0.404917 642.695 1.22997C644.449 1.99804 646.045 3.08304 647.405 4.43017C648.664 5.67125 649.663 7.15027 650.345 8.78124C651.026 10.4122 651.376 12.1625 651.375 13.9302V18.2212L651.365 18.2202Z" fill="#001E1F"/>
<path d="M659.575 15.0303C659.531 12.7766 659.971 10.5396 660.865 8.47025C661.662 6.65579 662.842 5.03535 664.325 3.72025C665.706 2.50978 667.304 1.57286 669.035 0.959991C671.62 0.0295829 674.405 -0.205066 677.109 0.279327C679.814 0.76372 682.343 1.9504 684.445 3.72025C685.876 5.0616 687.022 6.67697 687.815 8.47025C688.709 10.5396 689.149 12.7766 689.105 15.0303V47.5C689.167 49.7844 688.726 52.0543 687.815 54.1499C687.023 55.8948 685.875 57.4549 684.445 58.73C683.044 59.9759 681.418 60.9433 679.655 61.5801C676.228 62.847 672.462 62.847 669.035 61.5801C667.288 60.9583 665.686 59.9887 664.325 58.73C662.85 57.4752 661.669 55.9116 660.865 54.1499C659.954 52.0543 659.513 49.7844 659.575 47.5V15.0303ZM668.385 47.5C668.312 48.3672 668.433 49.2396 668.74 50.0542C669.046 50.8689 669.529 51.6053 670.155 52.21C671.333 53.1858 672.815 53.7198 674.345 53.7198C675.875 53.7198 677.357 53.1858 678.535 52.21C679.161 51.6053 679.644 50.8689 679.951 50.0542C680.257 49.2396 680.378 48.3672 680.305 47.5V15.0303C680.378 14.1631 680.257 13.2902 679.951 12.4756C679.644 11.661 679.161 10.9245 678.535 10.3199C677.357 9.34404 675.875 8.81009 674.345 8.81009C672.815 8.81009 671.333 9.34404 670.155 10.3199C669.529 10.9245 669.046 11.661 668.74 12.4756C668.433 13.2902 668.312 14.1631 668.385 15.0303V47.5Z" fill="#001E1F"/>
<path d="M697.655 18.2203V13.13C697.646 11.3765 698.001 9.64047 698.695 8.03037C699.365 6.45051 700.332 5.0139 701.545 3.7999C702.779 2.6344 704.211 1.69983 705.775 1.04013C707.527 0.313555 709.411 -0.0395357 711.306 0.00351211C713.202 0.04656 715.068 0.484799 716.785 1.29013C718.512 2.12786 720.008 3.3737 721.145 4.92002C721.658 5.62689 722.132 6.36152 722.565 7.12021C722.952 7.81613 723.257 8.55405 723.475 9.31992C723.936 11.3292 724.138 13.3897 724.075 15.4503C724.075 16.9503 724.055 18.2001 724.035 19.2101C724.018 20.0905 723.945 20.9689 723.815 21.8399C723.718 22.496 723.575 23.1448 723.385 23.7804C723.223 24.3119 722.991 24.8194 722.695 25.2901L716.735 35.4801C716.339 36.1612 715.991 36.8697 715.695 37.6002C715.405 38.3285 715.259 39.1063 715.265 39.8902V46.7999H706.455V38.7701C706.45 37.535 706.653 36.308 707.055 35.1402C707.466 33.9713 707.985 32.843 708.605 31.7701L714.135 22.7901C714.591 22.0495 714.9 21.2279 715.045 20.3702C715.188 19.5142 715.261 18.6482 715.265 17.7804V13.2003C715.274 12.6248 715.168 12.0532 714.954 11.5191C714.739 10.9851 714.42 10.4991 714.015 10.0899C713.622 9.67116 713.146 9.33921 712.618 9.11533C712.089 8.89145 711.519 8.78077 710.945 8.79013C709.842 8.81718 708.779 9.21142 707.925 9.91025C707.433 10.2975 707.043 10.798 706.787 11.3692C706.531 11.9405 706.417 12.5652 706.455 13.19V18.2003H697.655V18.2203ZM706.465 62.0103V53.2003H715.275V62.0103H706.465Z" fill="#001E1F"/>
</svg>
